<?xml version="1.0" encoding="UTF-8" standalone="no"?>
<svg
   xmlns:dc="http://purl.org/dc/elements/1.1/"
   xmlns:cc="http://creativecommons.org/ns#"
   xmlns:rdf="http://www.w3.org/1999/02/22-rdf-syntax-ns#"
   xmlns:svg="http://www.w3.org/2000/svg"
   xmlns="http://www.w3.org/2000/svg"
   xmlns:sodipodi="http://sodipodi.sourceforge.net/DTD/sodipodi-0.dtd"
   xmlns:inkscape="http://www.inkscape.org/namespaces/inkscape"
   width="29.285078mm"
   height="11.421725mm"
   viewBox="0 0 29.285079 11.421725"
   version="1.1"
   id="svg1991"
   inkscape:version="1.0.1 (3bc2e813f5, 2020-09-07, custom)"
   sodipodi:docname="Bone-Logo-Schriftzug-2.svg">
  <defs
     id="defs1985" />
  <sodipodi:namedview
     id="base"
     pagecolor="#ffffff"
     bordercolor="#666666"
     borderopacity="1.0"
     inkscape:pageopacity="0.0"
     inkscape:pageshadow="2"
     inkscape:zoom="3.959798"
     inkscape:cx="36.670814"
     inkscape:cy="60.01067"
     inkscape:document-units="mm"
     inkscape:current-layer="layer1"
     inkscape:document-rotation="0"
     showgrid="false"
     fit-margin-top="0"
     fit-margin-left="0"
     fit-margin-right="0"
     fit-margin-bottom="0"
     inkscape:window-width="1438"
     inkscape:window-height="1006"
     inkscape:window-x="23"
     inkscape:window-y="15"
     inkscape:window-maximized="0" />
  <metadata
     id="metadata1988">
    <rdf:RDF>
      <cc:Work
         rdf:about="">
        <dc:format>image/svg+xml</dc:format>
        <dc:type
           rdf:resource="http://purl.org/dc/dcmitype/StillImage" />
        <dc:title></dc:title>
      </cc:Work>
    </rdf:RDF>
  </metadata>
  <g
     inkscape:label="Layer 1"
     inkscape:groupmode="layer"
     id="layer1"
     transform="translate(-62.049344,-54.500288)">
    <g
       id="g1971"
       style="fill:#000000;fill-opacity:1;stroke:none;stroke-width:0.2;stroke-miterlimit:4;stroke-dasharray:none;stroke-opacity:1"
       transform="translate(47.331079,18.794929)">
      <path
         style="font-style:normal;font-weight:normal;font-size:143.387px;font-family:'Linux Libertine';display:inline;fill:#000000;fill-opacity:1;stroke:none;stroke-width:0.2;stroke-linecap:butt;stroke-linejoin:miter;stroke-miterlimit:4;stroke-dasharray:none;stroke-opacity:1"
         d="m 43.554633,39.642043 0.213916,-0.83056 c -0.670343,-0.779239 -1.582789,-1.164144 -2.749046,-1.164209 -1.307962,3.3e-5 -2.355585,0.431554 -3.140362,1.291366 l 1.281586,0.675049 c 0.46868,-0.472904 1.065462,-0.70438 1.790295,-0.70438 0.741178,0 1.309861,0.228034 1.702258,0.684812 z m -5.147207,2.13369 c 0.03665,0.387787 0.0048,0.776445 0.244575,1.1642 h 3.786049 l 0.723947,-0.586985 -0.958743,-0.577215 z"
         id="path44662"
         sodipodi:nodetypes="ccsccscccccccc" />
      <path
         style="font-style:normal;font-weight:normal;font-size:143.387px;font-family:'Linux Libertine';display:inline;opacity:1;fill:#000000;fill-opacity:1;stroke:none;stroke-width:0.2;stroke-linecap:butt;stroke-linejoin:miter;stroke-miterlimit:4;stroke-dasharray:none;stroke-opacity:1"
         d="m 24.213994,45.626779 c 0.65727,0.789981 1.984007,1.273863 3.150256,1.273895 l 1e-5,10e-6 c 1.141919,-0.01102 2.03136,-0.502148 2.778419,-1.308427 0.715552,-0.772284 0.88732,-1.824961 0.823568,-3.329638 0.01146,-1.318793 0.264606,-1.982787 0.666781,-2.447239 0.402175,-0.464451 1.287223,-0.836917 2.170147,-0.790614 0.886795,0.04658 1.698089,0.650376 2.075611,1.445325 0.53083,1.117742 0.161044,3.745521 1.589472,5.326494 0.801125,0.838339 2.344067,1.330499 3.766481,1.330499 0.495937,-3.2e-5 1.007304,-0.05787 1.535941,-0.176094 0.534078,-0.112864 0.66042,-0.189589 1.232663,-0.420687 l -1.271797,-0.675017 c -0.194014,0.0048 -1.319608,0.112006 -1.310933,0.08804 -1.791559,0.125011 -2.744172,-0.661147 -3.140361,-1.173971 -0.180985,-0.234259 -0.350038,-0.491406 -0.508718,-0.958734 -0.06154,-0.250104 -0.117738,-0.508093 -0.156525,-0.782647 -0.0999,-0.707229 -0.147425,-1.469717 -0.273921,-2.191408 -0.1265,-0.721657 -0.473969,-1.317941 -0.9069,-1.838311 -0.657283,-0.78997 -1.746166,-1.273863 -2.912415,-1.273895 l -1e-5,-10e-6 c -1.141919,0.01102 -2.03136,0.502148 -2.778419,1.308427 -0.541541,0.692091 -0.932086,1.627603 -0.92746,3.200174 0,1.144668 -0.172741,2.09082 -0.811997,2.661 -0.541426,0.482949 -1.275956,0.75262 -2.15888,0.706317 -0.886795,-0.04658 -1.970367,-0.377193 -2.29052,-1.411736 -0.281099,-0.908345 -0.278401,-1.292044 -0.163489,-2.321972 0.114911,-1.029928 0.381246,-1.916641 1.186984,-2.487905 0.776525,-0.550552 1.491476,-0.833489 2.783453,-0.549815 0.645705,0.141775 0.932564,0.437073 0.932564,0.437073 l 0.627757,-0.854824 c 0,0 -0.601083,-0.534523 -1.514159,-0.762855 -0.742869,-0.185768 -1.695046,-0.121052 -2.4023,0.182569 -0.681505,0.292567 -1.465398,0.840035 -1.839088,1.388643 -0.60564,0.889131 -0.789167,1.271811 -0.89305,2.624789 -0.0679,0.884276 -0.04402,1.152016 0.148514,2.07622 0.149782,0.719 0.359378,1.185965 0.792321,1.706324 z"
         id="path44662-5-6"
         sodipodi:nodetypes="sccsczscsccccscsssccccczsszssccssssss" />
      <path
         style="font-style:normal;font-weight:normal;font-size:143.387px;font-family:'Linux Libertine';display:inline;opacity:1;fill:#000000;fill-opacity:1;stroke:none;stroke-width:0.2;stroke-linecap:butt;stroke-linejoin:miter;stroke-miterlimit:4;stroke-dasharray:none;stroke-opacity:1"
         d="m 22.078708,45.763548 c -0.65727,0.789981 -2.021656,1.153201 -3.086472,1.128667 -1.064816,-0.02453 -2.343023,-0.581045 -3.090083,-1.387324 -0.715551,-0.772284 -1.242414,-1.692936 -1.178662,-3.197613 -0.01146,-1.318793 0.02837,-6.601919 0.02837,-6.601919 l 1.192062,0.0034 c 0,0 0.01506,5.046164 0.01042,6.618735 0,1.144668 0.164788,1.809216 0.804043,2.379396 0.541427,0.482949 1.361034,0.977961 2.243957,0.931658 0.886795,-0.04658 1.837815,-0.151548 2.375053,-1.066149 0.302412,-0.51483 0.571213,-1.262976 0.453071,-2.56905 -0.118142,-1.306074 -0.362371,-1.983076 -1.357646,-2.532218 -1.002121,-0.552919 -1.220113,-0.455133 -2.303767,-0.505502 -0.375631,-0.299022 -0.282481,-0.267372 -0.633481,-0.548802 0.228758,-0.239338 0.407285,-0.45578 0.58732,-0.631804 0.765384,0.02349 1.447448,-0.08484 2.164458,0.182569 0.721105,0.268932 1.367528,0.765033 1.839089,1.388643 0.60804,0.804096 0.698142,1.155765 0.84596,2.624789 0.08235,0.818377 0.09111,1.152016 -0.101424,2.07622 -0.149782,0.719 -0.359378,1.185965 -0.792321,1.706324 z"
         id="path44662-5-6-0"
         sodipodi:nodetypes="scscccczsszscccssssss" />
    </g>
  </g>
</svg>
