<?xml version="1.0" encoding="UTF-8" standalone="no"?>
<!-- Created with Inkscape (http://www.inkscape.org/) -->
<svg
   xmlns:dc="http://purl.org/dc/elements/1.1/"
   xmlns:cc="http://creativecommons.org/ns#"
   xmlns:rdf="http://www.w3.org/1999/02/22-rdf-syntax-ns#"
   xmlns:svg="http://www.w3.org/2000/svg"
   xmlns="http://www.w3.org/2000/svg"
   xmlns:xlink="http://www.w3.org/1999/xlink"
   xmlns:sodipodi="http://sodipodi.sourceforge.net/DTD/sodipodi-0.dtd"
   xmlns:inkscape="http://www.inkscape.org/namespaces/inkscape"
   width="210mm"
   height="297mm"
   id="svg5168"
   sodipodi:version="0.32"
   inkscape:version="0.46"
   sodipodi:docname="neo_status_76.svg"
   inkscape:output_extension="org.inkscape.output.svg.inkscape">
  <defs
     id="defs5170">
    <linearGradient
       id="linearGradient7921">
      <stop
         style="stop-color:#a14a4a;stop-opacity:1;"
         offset="0"
         id="stop7923" />
      <stop
         style="stop-color:#a14a4a;stop-opacity:0;"
         offset="1"
         id="stop7925" />
    </linearGradient>
    <linearGradient
       inkscape:collect="always"
       xlink:href="#linearGradient6625"
       id="linearGradient7822"
       gradientUnits="userSpaceOnUse"
       gradientTransform="matrix(0.7436211,0,0,0.7436211,-339.62806,-313.49476)"
       x1="177.86992"
       y1="358.754"
       x2="170.11589"
       y2="320.92755" />
    <linearGradient
       id="linearGradient6625">
      <stop
         id="stop6627"
         offset="0"
         style="stop-color:#4a65a1;stop-opacity:1;" />
      <stop
         id="stop6629"
         offset="1"
         style="stop-color:#94e7f4;stop-opacity:0;" />
    </linearGradient>
    <linearGradient
       inkscape:collect="always"
       xlink:href="#linearGradient6625"
       id="linearGradient7820"
       gradientUnits="userSpaceOnUse"
       gradientTransform="matrix(0.7436211,0,0,0.7436211,-339.48694,-312.29142)"
       x1="177.86992"
       y1="358.754"
       x2="170.11589"
       y2="320.92755" />
    <linearGradient
       inkscape:collect="always"
       xlink:href="#linearGradient7740"
       id="linearGradient7804"
       gradientUnits="userSpaceOnUse"
       gradientTransform="matrix(0.7436211,0,0,0.7436211,-260.31142,97.982728)"
       x1="183.36272"
       y1="370.36536"
       x2="170.11589"
       y2="320.92755" />
    <linearGradient
       id="linearGradient7740">
      <stop
         id="stop7742"
         offset="0"
         style="stop-color:#ca9b21;stop-opacity:1;" />
      <stop
         style="stop-color:#b0801c;stop-opacity:0.88235295;"
         offset="0.22"
         id="stop7744" />
      <stop
         id="stop7746"
         offset="1"
         style="stop-color:#def177;stop-opacity:0;" />
    </linearGradient>
    <linearGradient
       inkscape:collect="always"
       xlink:href="#linearGradient7740"
       id="linearGradient7798"
       gradientUnits="userSpaceOnUse"
       gradientTransform="matrix(0.7436211,0,0,0.7436211,-260.31142,97.982728)"
       x1="183.36272"
       y1="370.36536"
       x2="170.11589"
       y2="320.92755" />
    <linearGradient
       id="linearGradient7582">
      <stop
         style="stop-color:#ca9b21;stop-opacity:1;"
         offset="0"
         id="stop7584" />
      <stop
         id="stop7588"
         offset="0.22"
         style="stop-color:#c18d1f;stop-opacity:0.88;" />
      <stop
         style="stop-color:#def177;stop-opacity:0;"
         offset="1"
         id="stop7586" />
    </linearGradient>
    <linearGradient
       inkscape:collect="always"
       xlink:href="#linearGradient7582"
       id="linearGradient7796"
       gradientUnits="userSpaceOnUse"
       gradientTransform="matrix(0.7436211,0,0,0.7436211,-260.1703,99.186068)"
       x1="177.86992"
       y1="358.754"
       x2="170.11589"
       y2="320.92755" />
    <linearGradient
       inkscape:collect="always"
       xlink:href="#linearGradient7732"
       id="linearGradient7802"
       gradientUnits="userSpaceOnUse"
       gradientTransform="matrix(0.7436211,0,0,0.7436211,-180.31142,97.982728)"
       x1="183.36272"
       y1="370.36536"
       x2="170.11589"
       y2="320.92755" />
    <filter
       inkscape:collect="always"
       id="filter6905"
       x="-0.044590853"
       width="1.0891817"
       y="-0.13366689"
       height="1.2673338">
      <feGaussianBlur
         inkscape:collect="always"
         stdDeviation="0.73447174"
         id="feGaussianBlur6907" />
    </filter>
    <linearGradient
       id="linearGradient7732">
      <stop
         id="stop7734"
         offset="0"
         style="stop-color:#000000;stop-opacity:1;" />
      <stop
         style="stop-color:#070307;stop-opacity:0.88235295;"
         offset="0.22"
         id="stop7736" />
      <stop
         id="stop7738"
         offset="1"
         style="stop-color:#ee77f1;stop-opacity:0;" />
    </linearGradient>
    <linearGradient
       inkscape:collect="always"
       xlink:href="#linearGradient7732"
       id="linearGradient7800"
       gradientUnits="userSpaceOnUse"
       gradientTransform="matrix(0.7436211,0,0,0.7436211,-180.1703,99.186068)"
       x1="177.86992"
       y1="358.754"
       x2="170.11589"
       y2="320.92755" />
    <inkscape:perspective
       sodipodi:type="inkscape:persp3d"
       inkscape:vp_x="0 : 526.18109 : 1"
       inkscape:vp_y="0 : 1000 : 0"
       inkscape:vp_z="744.09448 : 526.18109 : 1"
       inkscape:persp3d-origin="372.04724 : 350.78739 : 1"
       id="perspective5176" />
    <linearGradient
       inkscape:collect="always"
       xlink:href="#linearGradient7732"
       id="linearGradient5893"
       gradientUnits="userSpaceOnUse"
       gradientTransform="matrix(0.7436211,0,0,0.7436211,-180.1703,99.186068)"
       x1="177.86992"
       y1="358.754"
       x2="170.11589"
       y2="320.92755" />
    <linearGradient
       inkscape:collect="always"
       xlink:href="#linearGradient7732"
       id="linearGradient5895"
       gradientUnits="userSpaceOnUse"
       gradientTransform="matrix(0.7436211,0,0,0.7436211,-180.31142,97.982728)"
       x1="183.36272"
       y1="370.36536"
       x2="170.11589"
       y2="320.92755" />
  </defs>
  <sodipodi:namedview
     id="base"
     pagecolor="#ffffff"
     bordercolor="#666666"
     borderopacity="1.0"
     inkscape:pageopacity="0.0"
     inkscape:pageshadow="2"
     inkscape:zoom="1.1900445"
     inkscape:cx="225.33196"
     inkscape:cy="958.45752"
     inkscape:document-units="px"
     inkscape:current-layer="g5941"
     showgrid="false"
     inkscape:window-width="817"
     inkscape:window-height="862"
     inkscape:window-x="584"
     inkscape:window-y="204" />
  <metadata
     id="metadata5173">
    <rdf:RDF>
      <cc:Work
         rdf:about="">
        <dc:format>image/svg+xml</dc:format>
        <dc:type
           rdf:resource="http://purl.org/dc/dcmitype/StillImage" />
      </cc:Work>
    </rdf:RDF>
  </metadata>
  <g
     inkscape:label="Ebene 1"
     inkscape:groupmode="layer"
     id="layer1">
    <g
       id="g5941"
       transform="translate(0.9065616,20)">
      <rect
         style="opacity:1;fill:#f2f2f2;fill-opacity:1;stroke:none;stroke-width:12.80000019;stroke-linecap:round;stroke-linejoin:round;stroke-miterlimit:4;stroke-dasharray:none;stroke-dashoffset:0;stroke-opacity:1"
         id="rect5978"
         width="98.084915"
         height="184.71466"
         x="72.120163"
         y="76.571236" />
      <g
         transform="translate(130.893,-30.739224)"
         id="g5937"
         style="fill:#a02c2c"
         inkscape:export-filename="/tmp/neo_status_86prozent.png"
         inkscape:export-xdpi="436.23538"
         inkscape:export-ydpi="436.23538">
        <rect
           y="173.66869"
           x="68.638084"
           height="9.6132946"
           width="39.503571"
           id="rect5933"
           style="opacity:1;fill:#a02c2c;fill-opacity:1;stroke:none;stroke-width:12.80000019;stroke-linecap:round;stroke-linejoin:round;stroke-miterlimit:4;stroke-dasharray:none;stroke-dashoffset:0;stroke-opacity:1" />
        <rect
           style="opacity:1;fill:#a02c2c;fill-opacity:1;stroke:none;stroke-width:12.80000019;stroke-linecap:round;stroke-linejoin:round;stroke-miterlimit:4;stroke-dasharray:none;stroke-dashoffset:0;stroke-opacity:1"
           id="rect5935"
           width="15.916542"
           height="9.6132946"
           x="68.638084"
           y="173.66869" />
      </g>
      <text
         id="text5929"
         y="150.84534"
         x="227.92809"
         style="font-size:11.02189732px;font-style:normal;font-weight:bold;text-align:center;text-anchor:middle;fill:#f2f2f2;fill-opacity:1;stroke:none;stroke-width:1px;stroke-linecap:butt;stroke-linejoin:miter;stroke-opacity:1;font-family:Linux Libertine"
         xml:space="preserve"
         inkscape:export-filename="/tmp/neo_status_86prozent.png"
         inkscape:export-xdpi="436.23538"
         inkscape:export-ydpi="436.23538"><tspan
           y="150.84534"
           x="227.92809"
           id="tspan5931"
           sodipodi:role="line">86%</tspan></text>
      <text
         xml:space="preserve"
         style="font-size:12px;font-style:normal;font-weight:bold;text-align:center;text-anchor:middle;fill:#000000;fill-opacity:1;stroke:none;stroke-width:1px;stroke-linecap:butt;stroke-linejoin:miter;stroke-opacity:1;font-family:Linux Libertine"
         x="131.54387"
         y="181.09967"
         id="text5970"><tspan
           sodipodi:role="line"
           id="tspan5972"
           x="133.04387"
           y="181.09967">Flach </tspan><tspan
           sodipodi:role="line"
           x="131.54387"
           y="196.09967"
           id="tspan5974">für niedrige</tspan><tspan
           sodipodi:role="line"
           x="131.54387"
           y="211.09967"
           id="tspan5976">Auflösungen</tspan></text>
    </g>
    <g
       transform="translate(228.77028,-194.34906)"
       inkscape:export-ydpi="436.23538"
       inkscape:export-xdpi="436.23538"
       inkscape:export-filename="/tmp/neo_status_86prozent.png"
       id="g5885">
      <path
         id="path5887"
         d="M -45.222247,355.32124 C -48.259347,355.32124 -50.722247,357.83224 -50.722247,360.94624 L -50.722247,362.88374 C -50.722247,365.99774 -48.259347,368.50874 -45.222247,368.50874 L -23.784747,368.50874 L -23.222247,368.50874 L -16.659747,368.50874 C -13.622647,368.50874 -11.190997,365.99775 -11.190997,362.88374 L -11.190997,360.94624 C -11.190997,357.83224 -13.622647,355.32124 -16.659747,355.32124 L -23.222247,355.32124 L -23.784747,355.32124 L -45.222247,355.32124 z M -33.440997,358.63374 C -32.624447,358.63378 -31.972837,358.90066 -31.503497,359.44624 C -30.327607,360.93369 -30.438087,364.20643 -28.065997,364.38374 C -27.485167,364.38374 -27.050097,364.16888 -26.753497,363.75874 C -26.456907,363.34487 -26.378497,362.74768 -26.378497,361.94624 C -26.378497,361.14105 -26.581907,360.51261 -26.878497,360.10249 C -27.175097,359.69237 -27.703927,359.50874 -28.284747,359.50874 C -28.861457,359.50874 -29.184927,359.75658 -29.503497,360.03999 C -29.802827,359.88401 -30.165677,359.67082 -30.409747,359.53999 C -29.903067,358.97183 -29.244557,358.63374 -28.284747,358.63374 C -27.324947,358.63374 -26.666437,358.90936 -26.159747,359.47749 C -25.648957,360.04565 -25.347257,360.87014 -25.347247,361.94624 C -25.347257,363.02612 -25.528077,363.84683 -26.034747,364.41499 C -26.541437,364.97939 -26.947867,365.25874 -27.909747,365.25874 C -27.996717,365.28597 -28.432137,365.26159 -28.565997,365.22749 C -29.334617,365.14608 -29.754017,364.78948 -30.284747,364.25874 C -31.070447,363.47303 -31.402707,361.16046 -32.284747,360.00874 C -32.559487,359.68892 -32.953307,359.50874 -33.472247,359.50874 C -33.979737,359.50874 -34.394097,359.67763 -34.722247,360.00874 L -35.628497,359.53999 C -35.079037,358.93799 -34.356767,358.63376 -33.440997,358.63374 z M -38.690997,358.69624 C -37.874447,358.69626 -37.119947,359.01814 -36.659747,359.57124 C -36.356637,359.93557 -36.092057,360.34722 -36.003497,360.85249 C -35.914927,361.35778 -35.885947,361.91983 -35.815997,362.41499 C -35.788847,362.60722 -35.765327,362.77113 -35.722247,362.94624 C -35.611147,363.27344 -35.473967,363.46972 -35.347247,363.63374 C -35.069857,363.99279 -34.414117,364.53376 -33.159747,364.44624 C -33.165817,364.46303 -32.358097,364.38703 -32.222247,364.38374 L -31.347247,364.85249 C -31.747897,365.01429 -31.848307,365.05472 -32.222247,365.13374 C -32.592377,365.2165 -32.937517,365.25872 -33.284747,365.25874 C -34.280647,365.25874 -35.348837,364.93945 -35.909747,364.35249 C -36.909857,363.24557 -36.663087,361.38508 -37.034747,360.60249 C -37.299067,360.0459 -37.882607,359.63508 -38.503497,359.60249 C -39.121677,359.57007 -39.468157,359.76435 -39.847247,360.10249 C -40.294817,360.5017 -40.409747,361.1448 -40.409747,361.94624 C -40.409747,364.02054 -40.372127,364.0988 -40.378497,365.13374 C -40.617017,365.13374 -41.002317,365.13374 -41.284747,365.13374 C -41.284747,364.14766 -41.272907,362.16496 -41.284747,361.94624 C -41.342327,360.89337 -41.129487,360.1432 -40.628497,359.60249 C -40.105437,359.03797 -39.490517,358.70389 -38.690997,358.69624 z M -35.253497,361.53999 L -32.597247,361.53999 L -31.940997,361.91499 L -32.440997,362.35249 L -35.097247,362.35249 C -35.265327,362.081 -35.227847,361.8115 -35.253497,361.53999 z"
         style="fill:#ffffff;fill-opacity:1;stroke:none;stroke-width:1.3102541;stroke-linecap:square;stroke-linejoin:miter;stroke-miterlimit:4;stroke-dashoffset:0;stroke-opacity:1" />
      <path
         id="path5889"
         d="M -45.081127,356.52457 C -48.118227,356.52457 -50.581127,359.03558 -50.581127,362.14957 L -50.581127,364.08707 C -50.581127,367.20108 -48.118227,369.71207 -45.081127,369.71207 L -23.643627,369.71207 L -23.081127,369.71207 L -16.518627,369.71207 C -13.481527,369.71207 -11.049877,367.20109 -11.049877,364.08707 L -11.049877,362.14957 C -11.049877,359.03558 -13.481527,356.52457 -16.518627,356.52457 L -23.081127,356.52457 L -23.643627,356.52457 L -45.081127,356.52457 z M -33.299877,359.83707 C -32.483327,359.83712 -31.831717,360.104 -31.362377,360.64957 C -30.186487,362.13703 -30.296967,365.40977 -27.924877,365.58707 C -27.344047,365.58707 -26.908977,365.37222 -26.612377,364.96207 C -26.315787,364.5482 -26.237377,363.95101 -26.237377,363.14957 C -26.237377,362.34439 -26.440787,361.71595 -26.737377,361.30582 C -27.033977,360.89571 -27.562807,360.71208 -28.143627,360.71207 C -28.720337,360.71207 -29.043807,360.95991 -29.362377,361.24332 C -29.661707,361.08735 -30.024557,360.87416 -30.268627,360.74332 C -29.761947,360.17517 -29.103437,359.83707 -28.143627,359.83707 C -27.183827,359.83707 -26.525317,360.11269 -26.018627,360.68082 C -25.507837,361.24898 -25.206137,362.07348 -25.206127,363.14957 C -25.206137,364.22945 -25.386957,365.05017 -25.893627,365.61832 C -26.400317,366.18273 -26.806747,366.46207 -27.768627,366.46207 C -27.855597,366.4893 -28.291017,366.46493 -28.424877,366.43082 C -29.193497,366.34942 -29.612897,365.99281 -30.143627,365.46207 C -30.929327,364.67637 -31.261587,362.36379 -32.143627,361.21207 C -32.418367,360.89225 -32.812187,360.71207 -33.331127,360.71207 C -33.838617,360.71207 -34.252977,360.88097 -34.581127,361.21207 L -35.487377,360.74332 C -34.937917,360.14133 -34.215647,359.8371 -33.299877,359.83707 z M -38.549877,359.89957 C -37.733327,359.8996 -36.978827,360.22148 -36.518627,360.77457 C -36.215517,361.13891 -35.950937,361.55055 -35.862377,362.05582 C -35.773807,362.56112 -35.744827,363.12316 -35.674877,363.61832 C -35.647727,363.81056 -35.624207,363.97447 -35.581127,364.14957 C -35.470027,364.47678 -35.332847,364.67306 -35.206127,364.83707 C -34.928737,365.19612 -34.272997,365.73709 -33.018627,365.64957 C -33.024697,365.66636 -32.216977,365.59037 -32.081127,365.58707 L -31.206127,366.05582 C -31.606777,366.21763 -31.707187,366.25806 -32.081127,366.33707 C -32.451257,366.41984 -32.796397,366.46205 -33.143627,366.46207 C -34.139527,366.46207 -35.207717,366.14278 -35.768627,365.55582 C -36.768737,364.4489 -36.521967,362.58841 -36.893627,361.80582 C -37.157947,361.24924 -37.741487,360.83842 -38.362377,360.80582 C -38.980557,360.77341 -39.327037,360.96769 -39.706127,361.30582 C -40.153697,361.70503 -40.268627,362.34814 -40.268627,363.14957 C -40.268627,365.22388 -40.231007,365.30213 -40.237377,366.33707 C -40.475897,366.33707 -40.861197,366.33707 -41.143627,366.33707 C -41.143627,365.35099 -41.131787,363.3683 -41.143627,363.14957 C -41.201207,362.0967 -40.988367,361.34654 -40.487377,360.80582 C -39.964317,360.24131 -39.349397,359.90722 -38.549877,359.89957 z M -35.112377,362.74332 L -32.456127,362.74332 L -31.799877,363.11832 L -32.299877,363.55582 L -34.956127,363.55582 C -35.124207,363.28434 -35.086727,363.01483 -35.112377,362.74332 z"
         style="opacity:0.49216303;fill:url(#linearGradient5893);fill-opacity:1;stroke:none;stroke-width:1.3102541;stroke-linecap:square;stroke-linejoin:miter;stroke-miterlimit:4;stroke-dashoffset:0;stroke-opacity:1;filter:url(#filter6905)" />
      <path
         style="fill:url(#linearGradient5895);fill-opacity:1;stroke:none;stroke-width:1.3102541;stroke-linecap:square;stroke-linejoin:miter;stroke-miterlimit:4;stroke-dashoffset:0;stroke-opacity:1"
         d="M -45.222247,355.32124 C -48.259347,355.32124 -50.722247,357.83224 -50.722247,360.94624 L -50.722247,362.88374 C -50.722247,365.99774 -48.259347,368.50874 -45.222247,368.50874 L -23.784747,368.50874 L -23.222247,368.50874 L -16.659747,368.50874 C -13.622647,368.50874 -11.190997,365.99775 -11.190997,362.88374 L -11.190997,360.94624 C -11.190997,357.83224 -13.622647,355.32124 -16.659747,355.32124 L -23.222247,355.32124 L -23.784747,355.32124 L -45.222247,355.32124 z M -33.440997,358.63374 C -32.624447,358.63378 -31.972837,358.90066 -31.503497,359.44624 C -30.327607,360.93369 -30.438087,364.20643 -28.065997,364.38374 C -27.485167,364.38374 -27.050097,364.16888 -26.753497,363.75874 C -26.456907,363.34487 -26.378497,362.74768 -26.378497,361.94624 C -26.378497,361.14105 -26.581907,360.51261 -26.878497,360.10249 C -27.175097,359.69237 -27.703927,359.50874 -28.284747,359.50874 C -28.861457,359.50874 -29.184927,359.75658 -29.503497,360.03999 C -29.802827,359.88401 -30.165677,359.67082 -30.409747,359.53999 C -29.903067,358.97183 -29.244557,358.63374 -28.284747,358.63374 C -27.324947,358.63374 -26.666437,358.90936 -26.159747,359.47749 C -25.648957,360.04565 -25.347257,360.87014 -25.347247,361.94624 C -25.347257,363.02612 -25.528077,363.84683 -26.034747,364.41499 C -26.541437,364.97939 -26.947867,365.25874 -27.909747,365.25874 C -27.996717,365.28597 -28.432137,365.26159 -28.565997,365.22749 C -29.334617,365.14608 -29.754017,364.78948 -30.284747,364.25874 C -31.070447,363.47303 -31.402707,361.16046 -32.284747,360.00874 C -32.559487,359.68892 -32.953307,359.50874 -33.472247,359.50874 C -33.979737,359.50874 -34.394097,359.67763 -34.722247,360.00874 L -35.628497,359.53999 C -35.079037,358.93799 -34.356767,358.63376 -33.440997,358.63374 z M -38.690997,358.69624 C -37.874447,358.69626 -37.119947,359.01814 -36.659747,359.57124 C -36.356637,359.93557 -36.092057,360.34722 -36.003497,360.85249 C -35.914927,361.35778 -35.885947,361.91983 -35.815997,362.41499 C -35.788847,362.60722 -35.765327,362.77113 -35.722247,362.94624 C -35.611147,363.27344 -35.473967,363.46972 -35.347247,363.63374 C -35.069857,363.99279 -34.414117,364.53376 -33.159747,364.44624 C -33.165817,364.46303 -32.358097,364.38703 -32.222247,364.38374 L -31.347247,364.85249 C -31.747897,365.01429 -31.848307,365.05472 -32.222247,365.13374 C -32.592377,365.2165 -32.937517,365.25872 -33.284747,365.25874 C -34.280647,365.25874 -35.348837,364.93945 -35.909747,364.35249 C -36.909857,363.24557 -36.663087,361.38508 -37.034747,360.60249 C -37.299067,360.0459 -37.882607,359.63508 -38.503497,359.60249 C -39.121677,359.57007 -39.468157,359.76435 -39.847247,360.10249 C -40.294817,360.5017 -40.409747,361.1448 -40.409747,361.94624 C -40.409747,364.02054 -40.372127,364.0988 -40.378497,365.13374 C -40.617017,365.13374 -41.002317,365.13374 -41.284747,365.13374 C -41.284747,364.14766 -41.272907,362.16496 -41.284747,361.94624 C -41.342327,360.89337 -41.129487,360.1432 -40.628497,359.60249 C -40.105437,359.03797 -39.490517,358.70389 -38.690997,358.69624 z M -35.253497,361.53999 L -32.597247,361.53999 L -31.940997,361.91499 L -32.440997,362.35249 L -35.097247,362.35249 C -35.265327,362.081 -35.227847,361.8115 -35.253497,361.53999 z"
         id="path5891" />
    </g>
    <g
       id="g7811"
       inkscape:export-filename="/tmp/b.png"
       inkscape:export-xdpi="205.90593"
       inkscape:export-ydpi="205.90593"
       transform="translate(308.76751,-234.37782)">
      <path
         style="fill:#ffffff;fill-opacity:1;stroke:none;stroke-width:1.3102541;stroke-linecap:square;stroke-linejoin:miter;stroke-miterlimit:4;stroke-dashoffset:0;stroke-opacity:1"
         d="M -125.22225,355.32124 C -128.25935,355.32124 -130.72225,357.83224 -130.72225,360.94624 L -130.72225,362.88374 C -130.72225,365.99774 -128.25935,368.50874 -125.22225,368.50874 L -103.78475,368.50874 L -103.22225,368.50874 L -96.659747,368.50874 C -93.622647,368.50874 -91.190997,365.99775 -91.190997,362.88374 L -91.190997,360.94624 C -91.190997,357.83224 -93.622647,355.32124 -96.659747,355.32124 L -103.22225,355.32124 L -103.78475,355.32124 L -125.22225,355.32124 z M -113.441,358.63374 C -112.62445,358.63378 -111.97284,358.90066 -111.5035,359.44624 C -110.32761,360.93369 -110.43809,364.20643 -108.066,364.38374 C -107.48517,364.38374 -107.0501,364.16888 -106.7535,363.75874 C -106.45691,363.34487 -106.3785,362.74768 -106.3785,361.94624 C -106.3785,361.14105 -106.58191,360.51261 -106.8785,360.10249 C -107.1751,359.69237 -107.70393,359.50874 -108.28475,359.50874 C -108.86146,359.50874 -109.18493,359.75658 -109.5035,360.03999 C -109.80283,359.88401 -110.16568,359.67082 -110.40975,359.53999 C -109.90307,358.97183 -109.24456,358.63374 -108.28475,358.63374 C -107.32495,358.63374 -106.66644,358.90936 -106.15975,359.47749 C -105.64896,360.04565 -105.34726,360.87014 -105.34725,361.94624 C -105.34726,363.02612 -105.52808,363.84683 -106.03475,364.41499 C -106.54144,364.97939 -106.94787,365.25874 -107.90975,365.25874 C -107.99672,365.28597 -108.43214,365.26159 -108.566,365.22749 C -109.33462,365.14608 -109.75402,364.78948 -110.28475,364.25874 C -111.07045,363.47303 -111.40271,361.16046 -112.28475,360.00874 C -112.55949,359.68892 -112.95331,359.50874 -113.47225,359.50874 C -113.97974,359.50874 -114.3941,359.67763 -114.72225,360.00874 L -115.6285,359.53999 C -115.07904,358.93799 -114.35677,358.63376 -113.441,358.63374 z M -118.691,358.69624 C -117.87445,358.69626 -117.11995,359.01814 -116.65975,359.57124 C -116.35664,359.93557 -116.09206,360.34722 -116.0035,360.85249 C -115.91493,361.35778 -115.88595,361.91983 -115.816,362.41499 C -115.78885,362.60722 -115.76533,362.77113 -115.72225,362.94624 C -115.61115,363.27344 -115.47397,363.46972 -115.34725,363.63374 C -115.06986,363.99279 -114.41412,364.53376 -113.15975,364.44624 C -113.16582,364.46303 -112.3581,364.38703 -112.22225,364.38374 L -111.34725,364.85249 C -111.7479,365.01429 -111.84831,365.05472 -112.22225,365.13374 C -112.59238,365.2165 -112.93752,365.25872 -113.28475,365.25874 C -114.28065,365.25874 -115.34884,364.93945 -115.90975,364.35249 C -116.90986,363.24557 -116.66309,361.38508 -117.03475,360.60249 C -117.29907,360.0459 -117.88261,359.63508 -118.5035,359.60249 C -119.12168,359.57007 -119.46816,359.76435 -119.84725,360.10249 C -120.29482,360.5017 -120.40975,361.1448 -120.40975,361.94624 C -120.40975,364.02054 -120.37213,364.0988 -120.3785,365.13374 C -120.61702,365.13374 -121.00232,365.13374 -121.28475,365.13374 C -121.28475,364.14766 -121.27291,362.16496 -121.28475,361.94624 C -121.34233,360.89337 -121.12949,360.1432 -120.6285,359.60249 C -120.10544,359.03797 -119.49052,358.70389 -118.691,358.69624 z M -115.2535,361.53999 L -112.59725,361.53999 L -111.941,361.91499 L -112.441,362.35249 L -115.09725,362.35249 C -115.26533,362.081 -115.22785,361.8115 -115.2535,361.53999 z"
         id="path5899" />
      <path
         id="path7782"
         d="M -125.08113,356.52457 C -128.11823,356.52457 -130.58113,359.03558 -130.58113,362.14957 L -130.58113,364.08707 C -130.58113,367.20108 -128.11823,369.71207 -125.08113,369.71207 L -103.64363,369.71207 L -103.08113,369.71207 L -96.518627,369.71207 C -93.481527,369.71207 -91.049877,367.20109 -91.049877,364.08707 L -91.049877,362.14957 C -91.049877,359.03558 -93.481527,356.52457 -96.518627,356.52457 L -103.08113,356.52457 L -103.64363,356.52457 L -125.08113,356.52457 z M -113.29988,359.83707 C -112.48333,359.83712 -111.83172,360.104 -111.36238,360.64957 C -110.18649,362.13703 -110.29697,365.40977 -107.92488,365.58707 C -107.34405,365.58707 -106.90898,365.37222 -106.61238,364.96207 C -106.31579,364.5482 -106.23738,363.95101 -106.23738,363.14957 C -106.23738,362.34439 -106.44079,361.71595 -106.73738,361.30582 C -107.03398,360.89571 -107.56281,360.71208 -108.14363,360.71207 C -108.72034,360.71207 -109.04381,360.95991 -109.36238,361.24332 C -109.66171,361.08735 -110.02456,360.87416 -110.26863,360.74332 C -109.76195,360.17517 -109.10344,359.83707 -108.14363,359.83707 C -107.18383,359.83707 -106.52532,360.11269 -106.01863,360.68082 C -105.50784,361.24898 -105.20614,362.07348 -105.20613,363.14957 C -105.20614,364.22945 -105.38696,365.05017 -105.89363,365.61832 C -106.40032,366.18273 -106.80675,366.46207 -107.76863,366.46207 C -107.8556,366.4893 -108.29102,366.46493 -108.42488,366.43082 C -109.1935,366.34942 -109.6129,365.99281 -110.14363,365.46207 C -110.92933,364.67637 -111.26159,362.36379 -112.14363,361.21207 C -112.41837,360.89225 -112.81219,360.71207 -113.33113,360.71207 C -113.83862,360.71207 -114.25298,360.88097 -114.58113,361.21207 L -115.48738,360.74332 C -114.93792,360.14133 -114.21565,359.8371 -113.29988,359.83707 z M -118.54988,359.89957 C -117.73333,359.8996 -116.97883,360.22148 -116.51863,360.77457 C -116.21552,361.13891 -115.95094,361.55055 -115.86238,362.05582 C -115.77381,362.56112 -115.74483,363.12316 -115.67488,363.61832 C -115.64773,363.81056 -115.62421,363.97447 -115.58113,364.14957 C -115.47003,364.47678 -115.33285,364.67306 -115.20613,364.83707 C -114.92874,365.19612 -114.273,365.73709 -113.01863,365.64957 C -113.0247,365.66636 -112.21698,365.59037 -112.08113,365.58707 L -111.20613,366.05582 C -111.60678,366.21763 -111.70719,366.25806 -112.08113,366.33707 C -112.45126,366.41984 -112.7964,366.46205 -113.14363,366.46207 C -114.13953,366.46207 -115.20772,366.14278 -115.76863,365.55582 C -116.76874,364.4489 -116.52197,362.58841 -116.89363,361.80582 C -117.15795,361.24924 -117.74149,360.83842 -118.36238,360.80582 C -118.98056,360.77341 -119.32704,360.96769 -119.70613,361.30582 C -120.1537,361.70503 -120.26863,362.34814 -120.26863,363.14957 C -120.26863,365.22388 -120.23101,365.30213 -120.23738,366.33707 C -120.4759,366.33707 -120.8612,366.33707 -121.14363,366.33707 C -121.14363,365.35099 -121.13179,363.3683 -121.14363,363.14957 C -121.20121,362.0967 -120.98837,361.34654 -120.48738,360.80582 C -119.96432,360.24131 -119.3494,359.90722 -118.54988,359.89957 z M -115.11238,362.74332 L -112.45613,362.74332 L -111.79988,363.11832 L -112.29988,363.55582 L -114.95613,363.55582 C -115.12421,363.28434 -115.08673,363.01483 -115.11238,362.74332 z"
         style="opacity:0.49216303;fill:url(#linearGradient7796);fill-opacity:1;stroke:none;stroke-width:1.3102541;stroke-linecap:square;stroke-linejoin:miter;stroke-miterlimit:4;stroke-dashoffset:0;stroke-opacity:1;filter:url(#filter6905)" />
      <path
         style="fill:url(#linearGradient7798);fill-opacity:1;stroke:none;stroke-width:1.3102541;stroke-linecap:square;stroke-linejoin:miter;stroke-miterlimit:4;stroke-dashoffset:0;stroke-opacity:1"
         d="M -125.22225,355.32124 C -128.25935,355.32124 -130.72225,357.83224 -130.72225,360.94624 L -130.72225,362.88374 C -130.72225,365.99774 -128.25935,368.50874 -125.22225,368.50874 L -103.78475,368.50874 L -103.22225,368.50874 L -96.659747,368.50874 C -93.622647,368.50874 -91.190997,365.99775 -91.190997,362.88374 L -91.190997,360.94624 C -91.190997,357.83224 -93.622647,355.32124 -96.659747,355.32124 L -103.22225,355.32124 L -103.78475,355.32124 L -125.22225,355.32124 z M -113.441,358.63374 C -112.62445,358.63378 -111.97284,358.90066 -111.5035,359.44624 C -110.32761,360.93369 -110.43809,364.20643 -108.066,364.38374 C -107.48517,364.38374 -107.0501,364.16888 -106.7535,363.75874 C -106.45691,363.34487 -106.3785,362.74768 -106.3785,361.94624 C -106.3785,361.14105 -106.58191,360.51261 -106.8785,360.10249 C -107.1751,359.69237 -107.70393,359.50874 -108.28475,359.50874 C -108.86146,359.50874 -109.18493,359.75658 -109.5035,360.03999 C -109.80283,359.88401 -110.16568,359.67082 -110.40975,359.53999 C -109.90307,358.97183 -109.24456,358.63374 -108.28475,358.63374 C -107.32495,358.63374 -106.66644,358.90936 -106.15975,359.47749 C -105.64896,360.04565 -105.34726,360.87014 -105.34725,361.94624 C -105.34726,363.02612 -105.52808,363.84683 -106.03475,364.41499 C -106.54144,364.97939 -106.94787,365.25874 -107.90975,365.25874 C -107.99672,365.28597 -108.43214,365.26159 -108.566,365.22749 C -109.33462,365.14608 -109.75402,364.78948 -110.28475,364.25874 C -111.07045,363.47303 -111.40271,361.16046 -112.28475,360.00874 C -112.55949,359.68892 -112.95331,359.50874 -113.47225,359.50874 C -113.97974,359.50874 -114.3941,359.67763 -114.72225,360.00874 L -115.6285,359.53999 C -115.07904,358.93799 -114.35677,358.63376 -113.441,358.63374 z M -118.691,358.69624 C -117.87445,358.69626 -117.11995,359.01814 -116.65975,359.57124 C -116.35664,359.93557 -116.09206,360.34722 -116.0035,360.85249 C -115.91493,361.35778 -115.88595,361.91983 -115.816,362.41499 C -115.78885,362.60722 -115.76533,362.77113 -115.72225,362.94624 C -115.61115,363.27344 -115.47397,363.46972 -115.34725,363.63374 C -115.06986,363.99279 -114.41412,364.53376 -113.15975,364.44624 C -113.16582,364.46303 -112.3581,364.38703 -112.22225,364.38374 L -111.34725,364.85249 C -111.7479,365.01429 -111.84831,365.05472 -112.22225,365.13374 C -112.59238,365.2165 -112.93752,365.25872 -113.28475,365.25874 C -114.28065,365.25874 -115.34884,364.93945 -115.90975,364.35249 C -116.90986,363.24557 -116.66309,361.38508 -117.03475,360.60249 C -117.29907,360.0459 -117.88261,359.63508 -118.5035,359.60249 C -119.12168,359.57007 -119.46816,359.76435 -119.84725,360.10249 C -120.29482,360.5017 -120.40975,361.1448 -120.40975,361.94624 C -120.40975,364.02054 -120.37213,364.0988 -120.3785,365.13374 C -120.61702,365.13374 -121.00232,365.13374 -121.28475,365.13374 C -121.28475,364.14766 -121.27291,362.16496 -121.28475,361.94624 C -121.34233,360.89337 -121.12949,360.1432 -120.6285,359.60249 C -120.10544,359.03797 -119.49052,358.70389 -118.691,358.69624 z M -115.2535,361.53999 L -112.59725,361.53999 L -111.941,361.91499 L -112.441,362.35249 L -115.09725,362.35249 C -115.26533,362.081 -115.22785,361.8115 -115.2535,361.53999 z"
         id="path7784" />
      <path
         id="path7790"
         d="M -125.22225,355.32124 C -128.25935,355.32124 -130.72225,357.83224 -130.72225,360.94624 L -130.72225,362.88374 C -130.72225,365.99774 -128.25935,368.50874 -125.22225,368.50874 L -103.78475,368.50874 L -103.22225,368.50874 L -96.659747,368.50874 C -93.622647,368.50874 -91.190997,365.99775 -91.190997,362.88374 L -91.190997,360.94624 C -91.190997,357.83224 -93.622647,355.32124 -96.659747,355.32124 L -103.22225,355.32124 L -103.78475,355.32124 L -125.22225,355.32124 z M -113.441,358.63374 C -112.62445,358.63378 -111.97284,358.90066 -111.5035,359.44624 C -110.32761,360.93369 -110.43809,364.20643 -108.066,364.38374 C -107.48517,364.38374 -107.0501,364.16888 -106.7535,363.75874 C -106.45691,363.34487 -106.3785,362.74768 -106.3785,361.94624 C -106.3785,361.14105 -106.58191,360.51261 -106.8785,360.10249 C -107.1751,359.69237 -107.70393,359.50874 -108.28475,359.50874 C -108.86146,359.50874 -109.18493,359.75658 -109.5035,360.03999 C -109.80283,359.88401 -110.16568,359.67082 -110.40975,359.53999 C -109.90307,358.97183 -109.24456,358.63374 -108.28475,358.63374 C -107.32495,358.63374 -106.66644,358.90936 -106.15975,359.47749 C -105.64896,360.04565 -105.34726,360.87014 -105.34725,361.94624 C -105.34726,363.02612 -105.52808,363.84683 -106.03475,364.41499 C -106.54144,364.97939 -106.94787,365.25874 -107.90975,365.25874 C -107.99672,365.28597 -108.43214,365.26159 -108.566,365.22749 C -109.33462,365.14608 -109.75402,364.78948 -110.28475,364.25874 C -111.07045,363.47303 -111.40271,361.16046 -112.28475,360.00874 C -112.55949,359.68892 -112.95331,359.50874 -113.47225,359.50874 C -113.97974,359.50874 -114.3941,359.67763 -114.72225,360.00874 L -115.6285,359.53999 C -115.07904,358.93799 -114.35677,358.63376 -113.441,358.63374 z M -118.691,358.69624 C -117.87445,358.69626 -117.11995,359.01814 -116.65975,359.57124 C -116.35664,359.93557 -116.09206,360.34722 -116.0035,360.85249 C -115.91493,361.35778 -115.88595,361.91983 -115.816,362.41499 C -115.78885,362.60722 -115.76533,362.77113 -115.72225,362.94624 C -115.61115,363.27344 -115.47397,363.46972 -115.34725,363.63374 C -115.06986,363.99279 -114.41412,364.53376 -113.15975,364.44624 C -113.16582,364.46303 -112.3581,364.38703 -112.22225,364.38374 L -111.34725,364.85249 C -111.7479,365.01429 -111.84831,365.05472 -112.22225,365.13374 C -112.59238,365.2165 -112.93752,365.25872 -113.28475,365.25874 C -114.28065,365.25874 -115.34884,364.93945 -115.90975,364.35249 C -116.90986,363.24557 -116.66309,361.38508 -117.03475,360.60249 C -117.29907,360.0459 -117.88261,359.63508 -118.5035,359.60249 C -119.12168,359.57007 -119.46816,359.76435 -119.84725,360.10249 C -120.29482,360.5017 -120.40975,361.1448 -120.40975,361.94624 C -120.40975,364.02054 -120.37213,364.0988 -120.3785,365.13374 C -120.61702,365.13374 -121.00232,365.13374 -121.28475,365.13374 C -121.28475,364.14766 -121.27291,362.16496 -121.28475,361.94624 C -121.34233,360.89337 -121.12949,360.1432 -120.6285,359.60249 C -120.10544,359.03797 -119.49052,358.70389 -118.691,358.69624 z M -115.2535,361.53999 L -112.59725,361.53999 L -111.941,361.91499 L -112.441,362.35249 L -115.09725,362.35249 C -115.26533,362.081 -115.22785,361.8115 -115.2535,361.53999 z"
         style="fill:url(#linearGradient7804);fill-opacity:1;stroke:none;stroke-width:1.3102541;stroke-linecap:square;stroke-linejoin:miter;stroke-miterlimit:4;stroke-dashoffset:0;stroke-opacity:1" />
    </g>
    <g
       id="g5924"
       transform="translate(231.01854,-10.739224)">
      <rect
         style="opacity:1;fill:#ff2a2a;fill-opacity:1;stroke:none;stroke-width:12.80000019;stroke-linecap:round;stroke-linejoin:round;stroke-miterlimit:4;stroke-dasharray:none;stroke-dashoffset:0;stroke-opacity:1"
         id="rect5905"
         width="22.823746"
         height="9.6132946"
         x="120.16313"
         y="173.85338" />
      <rect
         y="153.85338"
         x="129.10101"
         height="9.6132946"
         width="13.88587"
         id="rect5903"
         style="opacity:1;fill:#ff2a2a;fill-opacity:1;stroke:none;stroke-width:12.80000019;stroke-linecap:round;stroke-linejoin:round;stroke-miterlimit:4;stroke-dasharray:none;stroke-dashoffset:0;stroke-opacity:1" />
      <rect
         style="opacity:1;fill:#ff2a2a;fill-opacity:1;stroke:none;stroke-width:12.80000019;stroke-linecap:round;stroke-linejoin:round;stroke-miterlimit:4;stroke-dasharray:none;stroke-dashoffset:0;stroke-opacity:1"
         id="rect5901"
         width="18.761074"
         height="9.6132946"
         x="124.2258"
         y="133.85338" />
    </g>
    <rect
       y="63.114155"
       x="-220.11954"
       height="9.6132946"
       width="17.624374"
       id="rect5201"
       style="opacity:1;fill:#00ff00;fill-opacity:1;stroke:none;stroke-width:12.80000019;stroke-linecap:round;stroke-linejoin:round;stroke-miterlimit:4;stroke-dasharray:none;stroke-dashoffset:0;stroke-opacity:1"
       transform="scale(-1,1)" />
    <rect
       style="opacity:1;fill:#d40000;fill-opacity:1;stroke:none;stroke-width:12.80000019;stroke-linecap:round;stroke-linejoin:round;stroke-miterlimit:4;stroke-dasharray:none;stroke-dashoffset:0;stroke-opacity:1"
       id="rect5195"
       width="29.456379"
       height="6.797626"
       x="240.14296"
       y="64.164749" />
    <rect
       style="opacity:1;fill:#d40000;fill-opacity:1;stroke:none;stroke-width:12.80000019;stroke-linecap:round;stroke-linejoin:round;stroke-miterlimit:4;stroke-dasharray:none;stroke-dashoffset:0;stroke-opacity:1"
       id="rect5193"
       width="13.88587"
       height="9.6132946"
       x="220.11954"
       y="63.114155" />
    <g
       id="g7816"
       inkscape:export-filename="/tmp/b.png"
       inkscape:export-xdpi="205.90593"
       inkscape:export-ydpi="205.90593"
       transform="translate(248.77028,-314.34906)">
      <path
         style="fill:#ffffff;fill-opacity:1;stroke:none;stroke-width:1.3102541;stroke-linecap:square;stroke-linejoin:miter;stroke-miterlimit:4;stroke-dashoffset:0;stroke-opacity:1"
         d="M -45.222247,355.32124 C -48.259347,355.32124 -50.722247,357.83224 -50.722247,360.94624 L -50.722247,362.88374 C -50.722247,365.99774 -48.259347,368.50874 -45.222247,368.50874 L -23.784747,368.50874 L -23.222247,368.50874 L -16.659747,368.50874 C -13.622647,368.50874 -11.190997,365.99775 -11.190997,362.88374 L -11.190997,360.94624 C -11.190997,357.83224 -13.622647,355.32124 -16.659747,355.32124 L -23.222247,355.32124 L -23.784747,355.32124 L -45.222247,355.32124 z M -33.440997,358.63374 C -32.624447,358.63378 -31.972837,358.90066 -31.503497,359.44624 C -30.327607,360.93369 -30.438087,364.20643 -28.065997,364.38374 C -27.485167,364.38374 -27.050097,364.16888 -26.753497,363.75874 C -26.456907,363.34487 -26.378497,362.74768 -26.378497,361.94624 C -26.378497,361.14105 -26.581907,360.51261 -26.878497,360.10249 C -27.175097,359.69237 -27.703927,359.50874 -28.284747,359.50874 C -28.861457,359.50874 -29.184927,359.75658 -29.503497,360.03999 C -29.802827,359.88401 -30.165677,359.67082 -30.409747,359.53999 C -29.903067,358.97183 -29.244557,358.63374 -28.284747,358.63374 C -27.324947,358.63374 -26.666437,358.90936 -26.159747,359.47749 C -25.648957,360.04565 -25.347257,360.87014 -25.347247,361.94624 C -25.347257,363.02612 -25.528077,363.84683 -26.034747,364.41499 C -26.541437,364.97939 -26.947867,365.25874 -27.909747,365.25874 C -27.996717,365.28597 -28.432137,365.26159 -28.565997,365.22749 C -29.334617,365.14608 -29.754017,364.78948 -30.284747,364.25874 C -31.070447,363.47303 -31.402707,361.16046 -32.284747,360.00874 C -32.559487,359.68892 -32.953307,359.50874 -33.472247,359.50874 C -33.979737,359.50874 -34.394097,359.67763 -34.722247,360.00874 L -35.628497,359.53999 C -35.079037,358.93799 -34.356767,358.63376 -33.440997,358.63374 z M -38.690997,358.69624 C -37.874447,358.69626 -37.119947,359.01814 -36.659747,359.57124 C -36.356637,359.93557 -36.092057,360.34722 -36.003497,360.85249 C -35.914927,361.35778 -35.885947,361.91983 -35.815997,362.41499 C -35.788847,362.60722 -35.765327,362.77113 -35.722247,362.94624 C -35.611147,363.27344 -35.473967,363.46972 -35.347247,363.63374 C -35.069857,363.99279 -34.414117,364.53376 -33.159747,364.44624 C -33.165817,364.46303 -32.358097,364.38703 -32.222247,364.38374 L -31.347247,364.85249 C -31.747897,365.01429 -31.848307,365.05472 -32.222247,365.13374 C -32.592377,365.2165 -32.937517,365.25872 -33.284747,365.25874 C -34.280647,365.25874 -35.348837,364.93945 -35.909747,364.35249 C -36.909857,363.24557 -36.663087,361.38508 -37.034747,360.60249 C -37.299067,360.0459 -37.882607,359.63508 -38.503497,359.60249 C -39.121677,359.57007 -39.468157,359.76435 -39.847247,360.10249 C -40.294817,360.5017 -40.409747,361.1448 -40.409747,361.94624 C -40.409747,364.02054 -40.372127,364.0988 -40.378497,365.13374 C -40.617017,365.13374 -41.002317,365.13374 -41.284747,365.13374 C -41.284747,364.14766 -41.272907,362.16496 -41.284747,361.94624 C -41.342327,360.89337 -41.129487,360.1432 -40.628497,359.60249 C -40.105437,359.03797 -39.490517,358.70389 -38.690997,358.69624 z M -35.253497,361.53999 L -32.597247,361.53999 L -31.940997,361.91499 L -32.440997,362.35249 L -35.097247,362.35249 C -35.265327,362.081 -35.227847,361.8115 -35.253497,361.53999 z"
         id="path5162" />
      <path
         style="opacity:0.49216303;fill:url(#linearGradient7800);fill-opacity:1;stroke:none;stroke-width:1.3102541;stroke-linecap:square;stroke-linejoin:miter;stroke-miterlimit:4;stroke-dashoffset:0;stroke-opacity:1;filter:url(#filter6905)"
         d="M -45.081127,356.52457 C -48.118227,356.52457 -50.581127,359.03558 -50.581127,362.14957 L -50.581127,364.08707 C -50.581127,367.20108 -48.118227,369.71207 -45.081127,369.71207 L -23.643627,369.71207 L -23.081127,369.71207 L -16.518627,369.71207 C -13.481527,369.71207 -11.049877,367.20109 -11.049877,364.08707 L -11.049877,362.14957 C -11.049877,359.03558 -13.481527,356.52457 -16.518627,356.52457 L -23.081127,356.52457 L -23.643627,356.52457 L -45.081127,356.52457 z M -33.299877,359.83707 C -32.483327,359.83712 -31.831717,360.104 -31.362377,360.64957 C -30.186487,362.13703 -30.296967,365.40977 -27.924877,365.58707 C -27.344047,365.58707 -26.908977,365.37222 -26.612377,364.96207 C -26.315787,364.5482 -26.237377,363.95101 -26.237377,363.14957 C -26.237377,362.34439 -26.440787,361.71595 -26.737377,361.30582 C -27.033977,360.89571 -27.562807,360.71208 -28.143627,360.71207 C -28.720337,360.71207 -29.043807,360.95991 -29.362377,361.24332 C -29.661707,361.08735 -30.024557,360.87416 -30.268627,360.74332 C -29.761947,360.17517 -29.103437,359.83707 -28.143627,359.83707 C -27.183827,359.83707 -26.525317,360.11269 -26.018627,360.68082 C -25.507837,361.24898 -25.206137,362.07348 -25.206127,363.14957 C -25.206137,364.22945 -25.386957,365.05017 -25.893627,365.61832 C -26.400317,366.18273 -26.806747,366.46207 -27.768627,366.46207 C -27.855597,366.4893 -28.291017,366.46493 -28.424877,366.43082 C -29.193497,366.34942 -29.612897,365.99281 -30.143627,365.46207 C -30.929327,364.67637 -31.261587,362.36379 -32.143627,361.21207 C -32.418367,360.89225 -32.812187,360.71207 -33.331127,360.71207 C -33.838617,360.71207 -34.252977,360.88097 -34.581127,361.21207 L -35.487377,360.74332 C -34.937917,360.14133 -34.215647,359.8371 -33.299877,359.83707 z M -38.549877,359.89957 C -37.733327,359.8996 -36.978827,360.22148 -36.518627,360.77457 C -36.215517,361.13891 -35.950937,361.55055 -35.862377,362.05582 C -35.773807,362.56112 -35.744827,363.12316 -35.674877,363.61832 C -35.647727,363.81056 -35.624207,363.97447 -35.581127,364.14957 C -35.470027,364.47678 -35.332847,364.67306 -35.206127,364.83707 C -34.928737,365.19612 -34.272997,365.73709 -33.018627,365.64957 C -33.024697,365.66636 -32.216977,365.59037 -32.081127,365.58707 L -31.206127,366.05582 C -31.606777,366.21763 -31.707187,366.25806 -32.081127,366.33707 C -32.451257,366.41984 -32.796397,366.46205 -33.143627,366.46207 C -34.139527,366.46207 -35.207717,366.14278 -35.768627,365.55582 C -36.768737,364.4489 -36.521967,362.58841 -36.893627,361.80582 C -37.157947,361.24924 -37.741487,360.83842 -38.362377,360.80582 C -38.980557,360.77341 -39.327037,360.96769 -39.706127,361.30582 C -40.153697,361.70503 -40.268627,362.34814 -40.268627,363.14957 C -40.268627,365.22388 -40.231007,365.30213 -40.237377,366.33707 C -40.475897,366.33707 -40.861197,366.33707 -41.143627,366.33707 C -41.143627,365.35099 -41.131787,363.3683 -41.143627,363.14957 C -41.201207,362.0967 -40.988367,361.34654 -40.487377,360.80582 C -39.964317,360.24131 -39.349397,359.90722 -38.549877,359.89957 z M -35.112377,362.74332 L -32.456127,362.74332 L -31.799877,363.11832 L -32.299877,363.55582 L -34.956127,363.55582 C -35.124207,363.28434 -35.086727,363.01483 -35.112377,362.74332 z"
         id="path7786" />
      <path
         id="path7788"
         d="M -45.222247,355.32124 C -48.259347,355.32124 -50.722247,357.83224 -50.722247,360.94624 L -50.722247,362.88374 C -50.722247,365.99774 -48.259347,368.50874 -45.222247,368.50874 L -23.784747,368.50874 L -23.222247,368.50874 L -16.659747,368.50874 C -13.622647,368.50874 -11.190997,365.99775 -11.190997,362.88374 L -11.190997,360.94624 C -11.190997,357.83224 -13.622647,355.32124 -16.659747,355.32124 L -23.222247,355.32124 L -23.784747,355.32124 L -45.222247,355.32124 z M -33.440997,358.63374 C -32.624447,358.63378 -31.972837,358.90066 -31.503497,359.44624 C -30.327607,360.93369 -30.438087,364.20643 -28.065997,364.38374 C -27.485167,364.38374 -27.050097,364.16888 -26.753497,363.75874 C -26.456907,363.34487 -26.378497,362.74768 -26.378497,361.94624 C -26.378497,361.14105 -26.581907,360.51261 -26.878497,360.10249 C -27.175097,359.69237 -27.703927,359.50874 -28.284747,359.50874 C -28.861457,359.50874 -29.184927,359.75658 -29.503497,360.03999 C -29.802827,359.88401 -30.165677,359.67082 -30.409747,359.53999 C -29.903067,358.97183 -29.244557,358.63374 -28.284747,358.63374 C -27.324947,358.63374 -26.666437,358.90936 -26.159747,359.47749 C -25.648957,360.04565 -25.347257,360.87014 -25.347247,361.94624 C -25.347257,363.02612 -25.528077,363.84683 -26.034747,364.41499 C -26.541437,364.97939 -26.947867,365.25874 -27.909747,365.25874 C -27.996717,365.28597 -28.432137,365.26159 -28.565997,365.22749 C -29.334617,365.14608 -29.754017,364.78948 -30.284747,364.25874 C -31.070447,363.47303 -31.402707,361.16046 -32.284747,360.00874 C -32.559487,359.68892 -32.953307,359.50874 -33.472247,359.50874 C -33.979737,359.50874 -34.394097,359.67763 -34.722247,360.00874 L -35.628497,359.53999 C -35.079037,358.93799 -34.356767,358.63376 -33.440997,358.63374 z M -38.690997,358.69624 C -37.874447,358.69626 -37.119947,359.01814 -36.659747,359.57124 C -36.356637,359.93557 -36.092057,360.34722 -36.003497,360.85249 C -35.914927,361.35778 -35.885947,361.91983 -35.815997,362.41499 C -35.788847,362.60722 -35.765327,362.77113 -35.722247,362.94624 C -35.611147,363.27344 -35.473967,363.46972 -35.347247,363.63374 C -35.069857,363.99279 -34.414117,364.53376 -33.159747,364.44624 C -33.165817,364.46303 -32.358097,364.38703 -32.222247,364.38374 L -31.347247,364.85249 C -31.747897,365.01429 -31.848307,365.05472 -32.222247,365.13374 C -32.592377,365.2165 -32.937517,365.25872 -33.284747,365.25874 C -34.280647,365.25874 -35.348837,364.93945 -35.909747,364.35249 C -36.909857,363.24557 -36.663087,361.38508 -37.034747,360.60249 C -37.299067,360.0459 -37.882607,359.63508 -38.503497,359.60249 C -39.121677,359.57007 -39.468157,359.76435 -39.847247,360.10249 C -40.294817,360.5017 -40.409747,361.1448 -40.409747,361.94624 C -40.409747,364.02054 -40.372127,364.0988 -40.378497,365.13374 C -40.617017,365.13374 -41.002317,365.13374 -41.284747,365.13374 C -41.284747,364.14766 -41.272907,362.16496 -41.284747,361.94624 C -41.342327,360.89337 -41.129487,360.1432 -40.628497,359.60249 C -40.105437,359.03797 -39.490517,358.70389 -38.690997,358.69624 z M -35.253497,361.53999 L -32.597247,361.53999 L -31.940997,361.91499 L -32.440997,362.35249 L -35.097247,362.35249 C -35.265327,362.081 -35.227847,361.8115 -35.253497,361.53999 z"
         style="fill:url(#linearGradient7802);fill-opacity:1;stroke:none;stroke-width:1.3102541;stroke-linecap:square;stroke-linejoin:miter;stroke-miterlimit:4;stroke-dashoffset:0;stroke-opacity:1" />
    </g>
    <text
       xml:space="preserve"
       style="font-size:3.56860566px;font-style:normal;font-weight:bold;text-align:center;text-anchor:middle;fill:#f9f9f9;fill-opacity:1;stroke:none;stroke-width:1px;stroke-linecap:butt;stroke-linejoin:miter;stroke-opacity:1;font-family:Linux Libertine"
       x="246.81534"
       y="68.501305"
       id="text5164"><tspan
         sodipodi:role="line"
         id="tspan5166"
         x="246.81534"
         y="68.501305">66%</tspan></text>
    <rect
       y="-64.164749"
       x="240.14296"
       height="0.50352788"
       width="29.456379"
       id="rect5197"
       style="opacity:1;fill:#4d4d4d;fill-opacity:1;stroke:none;stroke-width:12.80000019;stroke-linecap:round;stroke-linejoin:round;stroke-miterlimit:4;stroke-dasharray:none;stroke-dashoffset:0;stroke-opacity:1"
       transform="scale(1,-1)" />
    <rect
       y="-71.465904"
       x="240.14296"
       height="0.50352788"
       width="29.456379"
       id="rect5199"
       style="opacity:1;fill:#333333;fill-opacity:1;stroke:none;stroke-width:12.80000019;stroke-linecap:round;stroke-linejoin:round;stroke-miterlimit:4;stroke-dasharray:none;stroke-dashoffset:0;stroke-opacity:1"
       transform="scale(1,-1)" />
    <g
       id="g7806"
       transform="translate(368.76751,-214.37782)"
       inkscape:export-filename="/tmp/b.png"
       inkscape:export-xdpi="205.90593"
       inkscape:export-ydpi="205.90593">
      <g
         id="g7776"
         transform="translate(19.316645,411.47749)">
        <path
           id="path5897"
           d="M -204.53889,-56.15625 C -207.57599,-56.15625 -210.03889,-53.645245 -210.03889,-50.53125 L -210.03889,-48.59375 C -210.03889,-45.479747 -207.57599,-42.96875 -204.53889,-42.96875 L -183.10139,-42.96875 L -182.53889,-42.96875 L -175.97639,-42.96875 C -172.93929,-42.96875 -170.50764,-45.47974 -170.50764,-48.59375 L -170.50764,-50.53125 C -170.50764,-53.645245 -172.93929,-56.15625 -175.97639,-56.15625 L -182.53889,-56.15625 L -183.10139,-56.15625 L -204.53889,-56.15625 z M -192.75764,-52.84375 C -191.94109,-52.843709 -191.28948,-52.576827 -190.82014,-52.03125 C -189.64425,-50.543795 -189.75473,-47.271055 -187.38264,-47.09375 C -186.80181,-47.09375 -186.36674,-47.308608 -186.07014,-47.71875 C -185.77355,-48.13262 -185.69514,-48.729813 -185.69514,-49.53125 C -185.69514,-50.336436 -185.89855,-50.964878 -186.19514,-51.375 C -186.49174,-51.785115 -187.02057,-51.968749 -187.60139,-51.96875 C -188.1781,-51.96875 -188.50157,-51.720913 -188.82014,-51.4375 C -189.11947,-51.593479 -189.48232,-51.806667 -189.72639,-51.9375 C -189.21971,-52.505657 -188.5612,-52.84375 -187.60139,-52.84375 C -186.64159,-52.84375 -185.98308,-52.568131 -185.47639,-52 C -184.9656,-51.431841 -184.6639,-50.60735 -184.66389,-49.53125 C -184.6639,-48.451374 -184.84472,-47.630659 -185.35139,-47.0625 C -185.85808,-46.498096 -186.26451,-46.21875 -187.22639,-46.21875 C -187.31336,-46.191524 -187.74878,-46.215895 -187.88264,-46.25 C -188.65126,-46.331408 -189.07066,-46.68801 -189.60139,-47.21875 C -190.38709,-48.004456 -190.71935,-50.31703 -191.60139,-51.46875 C -191.87613,-51.788571 -192.26995,-51.96875 -192.78889,-51.96875 C -193.29638,-51.96875 -193.71074,-51.799855 -194.03889,-51.46875 L -194.94514,-51.9375 C -194.39568,-52.539496 -193.67341,-52.843729 -192.75764,-52.84375 z M -198.00764,-52.78125 C -197.19109,-52.78123 -196.43659,-52.459349 -195.97639,-51.90625 C -195.67328,-51.541916 -195.4087,-51.130273 -195.32014,-50.625 C -195.23157,-50.119707 -195.20259,-49.557663 -195.13264,-49.0625 C -195.10549,-48.870266 -195.08197,-48.706357 -195.03889,-48.53125 C -194.92779,-48.204046 -194.79061,-48.007768 -194.66389,-47.84375 C -194.3865,-47.484704 -193.73076,-46.94373 -192.47639,-47.03125 C -192.48246,-47.014461 -191.67474,-47.090459 -191.53889,-47.09375 L -190.66389,-46.625 C -191.06454,-46.463195 -191.16495,-46.422768 -191.53889,-46.34375 C -191.90902,-46.260986 -192.25416,-46.218773 -192.60139,-46.21875 C -193.59729,-46.21875 -194.66548,-46.538041 -195.22639,-47.125 C -196.2265,-48.23192 -195.97973,-50.092411 -196.35139,-50.875 C -196.61571,-51.431588 -197.19925,-51.842408 -197.82014,-51.875 C -198.43832,-51.907417 -198.7848,-51.713136 -199.16389,-51.375 C -199.61146,-50.975791 -199.72639,-50.332688 -199.72639,-49.53125 C -199.72639,-47.456947 -199.68877,-47.37869 -199.69514,-46.34375 C -199.93366,-46.34375 -200.31896,-46.34375 -200.60139,-46.34375 C -200.60139,-47.329834 -200.58955,-49.312525 -200.60139,-49.53125 C -200.65897,-50.584123 -200.44613,-51.334286 -199.94514,-51.875 C -199.42208,-52.439518 -198.80716,-52.7736 -198.00764,-52.78125 z M -194.57014,-49.9375 L -191.91389,-49.9375 L -191.25764,-49.5625 L -191.75764,-49.125 L -194.41389,-49.125 C -194.58197,-49.396488 -194.54449,-49.665991 -194.57014,-49.9375 z"
           style="fill:#ffffff;fill-opacity:1;stroke:none;stroke-width:1.3102541;stroke-linecap:square;stroke-linejoin:miter;stroke-miterlimit:4;stroke-dashoffset:0;stroke-opacity:1" />
        <path
           id="path7778"
           d="M -204.39777,-54.952915 C -207.43487,-54.952915 -209.89777,-52.44191 -209.89777,-49.327915 L -209.89777,-47.390415 C -209.89777,-44.276412 -207.43487,-41.765415 -204.39777,-41.765415 L -182.96027,-41.765415 L -182.39777,-41.765415 L -175.83527,-41.765415 C -172.79817,-41.765415 -170.36652,-44.276405 -170.36652,-47.390415 L -170.36652,-49.327915 C -170.36652,-52.44191 -172.79817,-54.952915 -175.83527,-54.952915 L -182.39777,-54.952915 L -182.96027,-54.952915 L -204.39777,-54.952915 z M -192.61652,-51.640415 C -191.79997,-51.640374 -191.14836,-51.373492 -190.67902,-50.827915 C -189.50313,-49.34046 -189.61361,-46.06772 -187.24152,-45.890415 C -186.66069,-45.890415 -186.22562,-46.105273 -185.92902,-46.515415 C -185.63243,-46.929285 -185.55402,-47.526478 -185.55402,-48.327915 C -185.55402,-49.133101 -185.75743,-49.761543 -186.05402,-50.171665 C -186.35062,-50.58178 -186.87945,-50.765414 -187.46027,-50.765415 C -188.03698,-50.765415 -188.36045,-50.517578 -188.67902,-50.234165 C -188.97835,-50.390144 -189.3412,-50.603332 -189.58527,-50.734165 C -189.07859,-51.302322 -188.42008,-51.640415 -187.46027,-51.640415 C -186.50047,-51.640415 -185.84196,-51.364796 -185.33527,-50.796665 C -184.82448,-50.228506 -184.52278,-49.404015 -184.52277,-48.327915 C -184.52278,-47.248039 -184.7036,-46.427324 -185.21027,-45.859165 C -185.71696,-45.294761 -186.12339,-45.015415 -187.08527,-45.015415 C -187.17224,-44.988189 -187.60766,-45.01256 -187.74152,-45.046665 C -188.51014,-45.128073 -188.92954,-45.484675 -189.46027,-46.015415 C -190.24597,-46.801121 -190.57823,-49.113695 -191.46027,-50.265415 C -191.73501,-50.585236 -192.12883,-50.765415 -192.64777,-50.765415 C -193.15526,-50.765415 -193.56962,-50.59652 -193.89777,-50.265415 L -194.80402,-50.734165 C -194.25456,-51.336161 -193.53229,-51.640394 -192.61652,-51.640415 z M -197.86652,-51.577915 C -197.04997,-51.577895 -196.29547,-51.256014 -195.83527,-50.702915 C -195.53216,-50.338581 -195.26758,-49.926938 -195.17902,-49.421665 C -195.09045,-48.916372 -195.06147,-48.354328 -194.99152,-47.859165 C -194.96437,-47.666931 -194.94085,-47.503022 -194.89777,-47.327915 C -194.78667,-47.000711 -194.64949,-46.804433 -194.52277,-46.640415 C -194.24538,-46.281369 -193.58964,-45.740395 -192.33527,-45.827915 C -192.34134,-45.811126 -191.53362,-45.887124 -191.39777,-45.890415 L -190.52277,-45.421665 C -190.92342,-45.25986 -191.02383,-45.219433 -191.39777,-45.140415 C -191.7679,-45.057651 -192.11304,-45.015438 -192.46027,-45.015415 C -193.45617,-45.015415 -194.52436,-45.334706 -195.08527,-45.921665 C -196.08538,-47.028585 -195.83861,-48.889076 -196.21027,-49.671665 C -196.47459,-50.228253 -197.05813,-50.639073 -197.67902,-50.671665 C -198.2972,-50.704082 -198.64368,-50.509801 -199.02277,-50.171665 C -199.47034,-49.772456 -199.58527,-49.129353 -199.58527,-48.327915 C -199.58527,-46.253612 -199.54765,-46.175355 -199.55402,-45.140415 C -199.79254,-45.140415 -200.17784,-45.140415 -200.46027,-45.140415 C -200.46027,-46.126499 -200.44843,-48.10919 -200.46027,-48.327915 C -200.51785,-49.380788 -200.30501,-50.130951 -199.80402,-50.671665 C -199.28096,-51.236183 -198.66604,-51.570265 -197.86652,-51.577915 z M -194.42902,-48.734165 L -191.77277,-48.734165 L -191.11652,-48.359165 L -191.61652,-47.921665 L -194.27277,-47.921665 C -194.44085,-48.193153 -194.40337,-48.462656 -194.42902,-48.734165 z"
           style="opacity:0.34796238;fill:url(#linearGradient7820);fill-opacity:1;stroke:none;stroke-width:1.3102541;stroke-linecap:square;stroke-linejoin:miter;stroke-miterlimit:4;stroke-dashoffset:0;stroke-opacity:1;filter:url(#filter6905)" />
        <path
           style="fill:url(#linearGradient7822);fill-opacity:1;stroke:none;stroke-width:1.3102541;stroke-linecap:square;stroke-linejoin:miter;stroke-miterlimit:4;stroke-dashoffset:0;stroke-opacity:1"
           d="M -204.53889,-56.15625 C -207.57599,-56.15625 -210.03889,-53.645245 -210.03889,-50.53125 L -210.03889,-48.59375 C -210.03889,-45.479747 -207.57599,-42.96875 -204.53889,-42.96875 L -183.10139,-42.96875 L -182.53889,-42.96875 L -175.97639,-42.96875 C -172.93929,-42.96875 -170.50764,-45.47974 -170.50764,-48.59375 L -170.50764,-50.53125 C -170.50764,-53.645245 -172.93929,-56.15625 -175.97639,-56.15625 L -182.53889,-56.15625 L -183.10139,-56.15625 L -204.53889,-56.15625 z M -192.75764,-52.84375 C -191.94109,-52.843709 -191.28948,-52.576827 -190.82014,-52.03125 C -189.64425,-50.543795 -189.75473,-47.271055 -187.38264,-47.09375 C -186.80181,-47.09375 -186.36674,-47.308608 -186.07014,-47.71875 C -185.77355,-48.13262 -185.69514,-48.729813 -185.69514,-49.53125 C -185.69514,-50.336436 -185.89855,-50.964878 -186.19514,-51.375 C -186.49174,-51.785115 -187.02057,-51.968749 -187.60139,-51.96875 C -188.1781,-51.96875 -188.50157,-51.720913 -188.82014,-51.4375 C -189.11947,-51.593479 -189.48232,-51.806667 -189.72639,-51.9375 C -189.21971,-52.505657 -188.5612,-52.84375 -187.60139,-52.84375 C -186.64159,-52.84375 -185.98308,-52.568131 -185.47639,-52 C -184.9656,-51.431841 -184.6639,-50.60735 -184.66389,-49.53125 C -184.6639,-48.451374 -184.84472,-47.630659 -185.35139,-47.0625 C -185.85808,-46.498096 -186.26451,-46.21875 -187.22639,-46.21875 C -187.31336,-46.191524 -187.74878,-46.215895 -187.88264,-46.25 C -188.65126,-46.331408 -189.07066,-46.68801 -189.60139,-47.21875 C -190.38709,-48.004456 -190.71935,-50.31703 -191.60139,-51.46875 C -191.87613,-51.788571 -192.26995,-51.96875 -192.78889,-51.96875 C -193.29638,-51.96875 -193.71074,-51.799855 -194.03889,-51.46875 L -194.94514,-51.9375 C -194.39568,-52.539496 -193.67341,-52.843729 -192.75764,-52.84375 z M -198.00764,-52.78125 C -197.19109,-52.78123 -196.43659,-52.459349 -195.97639,-51.90625 C -195.67328,-51.541916 -195.4087,-51.130273 -195.32014,-50.625 C -195.23157,-50.119707 -195.20259,-49.557663 -195.13264,-49.0625 C -195.10549,-48.870266 -195.08197,-48.706357 -195.03889,-48.53125 C -194.92779,-48.204046 -194.79061,-48.007768 -194.66389,-47.84375 C -194.3865,-47.484704 -193.73076,-46.94373 -192.47639,-47.03125 C -192.48246,-47.014461 -191.67474,-47.090459 -191.53889,-47.09375 L -190.66389,-46.625 C -191.06454,-46.463195 -191.16495,-46.422768 -191.53889,-46.34375 C -191.90902,-46.260986 -192.25416,-46.218773 -192.60139,-46.21875 C -193.59729,-46.21875 -194.66548,-46.538041 -195.22639,-47.125 C -196.2265,-48.23192 -195.97973,-50.092411 -196.35139,-50.875 C -196.61571,-51.431588 -197.19925,-51.842408 -197.82014,-51.875 C -198.43832,-51.907417 -198.7848,-51.713136 -199.16389,-51.375 C -199.61146,-50.975791 -199.72639,-50.332688 -199.72639,-49.53125 C -199.72639,-47.456947 -199.68877,-47.37869 -199.69514,-46.34375 C -199.93366,-46.34375 -200.31896,-46.34375 -200.60139,-46.34375 C -200.60139,-47.329834 -200.58955,-49.312525 -200.60139,-49.53125 C -200.65897,-50.584123 -200.44613,-51.334286 -199.94514,-51.875 C -199.42208,-52.439518 -198.80716,-52.7736 -198.00764,-52.78125 z M -194.57014,-49.9375 L -191.91389,-49.9375 L -191.25764,-49.5625 L -191.75764,-49.125 L -194.41389,-49.125 C -194.58197,-49.396488 -194.54449,-49.665991 -194.57014,-49.9375 z"
           id="path7780" />
      </g>
    </g>
    <path
       id="path5845"
       d="M 123.60593,120.79906 C 120.56883,120.79906 118.10593,123.31006 118.10593,126.42406 L 118.10593,128.36156 C 118.10593,131.47556 120.56883,133.98656 123.60593,133.98656 L 145.04343,133.98656 L 145.60593,133.98656 L 152.16843,133.98656 C 155.20553,133.98656 157.63718,131.47557 157.63718,128.36156 L 157.63718,126.42406 C 157.63718,123.31006 155.20553,120.79906 152.16843,120.79906 L 145.60593,120.79906 L 145.04343,120.79906 L 123.60593,120.79906 z M 135.38718,124.11156 C 136.20373,124.1116 136.85534,124.37848 137.32468,124.92406 C 138.50057,126.41151 138.39009,129.68425 140.76218,129.86156 C 141.34301,129.86156 141.77808,129.6467 142.07468,129.23656 C 142.37127,128.82269 142.44968,128.22549 142.44968,127.42406 C 142.44968,126.61887 142.24627,125.99043 141.94968,125.58031 C 141.65308,125.17019 141.12425,124.98656 140.54343,124.98656 C 139.96672,124.98656 139.64325,125.23439 139.32468,125.51781 C 139.02535,125.36183 138.6625,125.14864 138.41843,125.01781 C 138.92511,124.44965 139.58362,124.11156 140.54343,124.11156 C 141.50323,124.11156 142.16174,124.38718 142.66843,124.95531 C 143.17922,125.52347 143.48092,126.34796 143.48093,127.42406 C 143.48092,128.50393 143.3001,129.32465 142.79343,129.89281 C 142.28674,130.45721 141.88031,130.73656 140.91843,130.73656 C 140.83146,130.76378 140.39604,130.73941 140.26218,130.70531 C 139.49356,130.6239 139.07416,130.2673 138.54343,129.73656 C 137.75773,128.95085 137.42547,126.63828 136.54343,125.48656 C 136.26869,125.16674 135.87487,124.98656 135.35593,124.98656 C 134.84844,124.98656 134.43408,125.15545 134.10593,125.48656 L 133.19968,125.01781 C 133.74914,124.41581 134.47141,124.11158 135.38718,124.11156 z M 130.13718,124.17406 C 130.95373,124.17408 131.70823,124.49596 132.16843,125.04906 C 132.47154,125.41339 132.73612,125.82503 132.82468,126.33031 C 132.91325,126.8356 132.94223,127.39764 133.01218,127.89281 C 133.03933,128.08504 133.06285,128.24895 133.10593,128.42406 C 133.21703,128.75126 133.35421,128.94754 133.48093,129.11156 C 133.75832,129.4706 134.41406,130.01158 135.66843,129.92406 C 135.66236,129.94085 136.47008,129.86485 136.60593,129.86156 L 137.48093,130.33031 C 137.08028,130.49211 136.97987,130.53254 136.60593,130.61156 C 136.2358,130.69432 135.89066,130.73653 135.54343,130.73656 C 134.54753,130.73656 133.47934,130.41727 132.91843,129.83031 C 131.91832,128.72339 132.16509,126.8629 131.79343,126.08031 C 131.52911,125.52372 130.94557,125.1129 130.32468,125.08031 C 129.7065,125.04789 129.36002,125.24217 128.98093,125.58031 C 128.53336,125.97952 128.41843,126.62262 128.41843,127.42406 C 128.41843,129.49836 128.45605,129.57662 128.44968,130.61156 C 128.21116,130.61156 127.82586,130.61156 127.54343,130.61156 C 127.54343,129.62547 127.55527,127.64278 127.54343,127.42406 C 127.48585,126.37118 127.69869,125.62102 128.19968,125.08031 C 128.72274,124.51579 129.33766,124.18171 130.13718,124.17406 z M 133.57468,127.01781 L 136.23093,127.01781 L 136.88718,127.39281 L 136.38718,127.83031 L 133.73093,127.83031 C 133.56285,127.55882 133.60033,127.28932 133.57468,127.01781 z"
       style="fill:#b48825;fill-opacity:1;stroke:none;stroke-width:1.3102541;stroke-linecap:square;stroke-linejoin:miter;stroke-miterlimit:4;stroke-dashoffset:0;stroke-opacity:1" />
    <path
       style="fill:#000000;fill-opacity:1;stroke:none;stroke-width:1.3102541;stroke-linecap:square;stroke-linejoin:miter;stroke-miterlimit:4;stroke-dashoffset:0;stroke-opacity:1"
       d="M 123.60593,160.79906 C 120.56883,160.79906 118.10593,163.31006 118.10593,166.42406 L 118.10593,168.36156 C 118.10593,171.47556 120.56883,173.98656 123.60593,173.98656 L 145.04343,173.98656 L 145.60593,173.98656 L 152.16843,173.98656 C 155.20553,173.98656 157.63718,171.47557 157.63718,168.36156 L 157.63718,166.42406 C 157.63718,163.31006 155.20553,160.79906 152.16843,160.79906 L 145.60593,160.79906 L 145.04343,160.79906 L 123.60593,160.79906 z M 135.38718,164.11156 C 136.20373,164.1116 136.85534,164.37848 137.32468,164.92406 C 138.50057,166.41151 138.39009,169.68425 140.76218,169.86156 C 141.34301,169.86156 141.77808,169.6467 142.07468,169.23656 C 142.37127,168.82269 142.44968,168.22549 142.44968,167.42406 C 142.44968,166.61887 142.24627,165.99043 141.94968,165.58031 C 141.65308,165.17019 141.12425,164.98656 140.54343,164.98656 C 139.96672,164.98656 139.64325,165.23439 139.32468,165.51781 C 139.02535,165.36183 138.6625,165.14864 138.41843,165.01781 C 138.92511,164.44965 139.58362,164.11156 140.54343,164.11156 C 141.50323,164.11156 142.16174,164.38718 142.66843,164.95531 C 143.17922,165.52347 143.48092,166.34796 143.48093,167.42406 C 143.48092,168.50393 143.3001,169.32465 142.79343,169.89281 C 142.28674,170.45721 141.88031,170.73656 140.91843,170.73656 C 140.83146,170.76378 140.39604,170.73941 140.26218,170.70531 C 139.49356,170.6239 139.07416,170.2673 138.54343,169.73656 C 137.75773,168.95085 137.42547,166.63828 136.54343,165.48656 C 136.26869,165.16674 135.87487,164.98656 135.35593,164.98656 C 134.84844,164.98656 134.43408,165.15545 134.10593,165.48656 L 133.19968,165.01781 C 133.74914,164.41581 134.47141,164.11158 135.38718,164.11156 z M 130.13718,164.17406 C 130.95373,164.17408 131.70823,164.49596 132.16843,165.04906 C 132.47154,165.41339 132.73612,165.82503 132.82468,166.33031 C 132.91325,166.8356 132.94223,167.39764 133.01218,167.89281 C 133.03933,168.08504 133.06285,168.24895 133.10593,168.42406 C 133.21703,168.75126 133.35421,168.94754 133.48093,169.11156 C 133.75832,169.4706 134.41406,170.01158 135.66843,169.92406 C 135.66236,169.94085 136.47008,169.86485 136.60593,169.86156 L 137.48093,170.33031 C 137.08028,170.49211 136.97987,170.53254 136.60593,170.61156 C 136.2358,170.69432 135.89066,170.73653 135.54343,170.73656 C 134.54753,170.73656 133.47934,170.41727 132.91843,169.83031 C 131.91832,168.72339 132.16509,166.8629 131.79343,166.08031 C 131.52911,165.52372 130.94557,165.1129 130.32468,165.08031 C 129.7065,165.04789 129.36002,165.24217 128.98093,165.58031 C 128.53336,165.97952 128.41843,166.62262 128.41843,167.42406 C 128.41843,169.49836 128.45605,169.57662 128.44968,170.61156 C 128.21116,170.61156 127.82586,170.61156 127.54343,170.61156 C 127.54343,169.62547 127.55527,167.64278 127.54343,167.42406 C 127.48585,166.37118 127.69869,165.62102 128.19968,165.08031 C 128.72274,164.51579 129.33766,164.18171 130.13718,164.17406 z M 133.57468,167.01781 L 136.23093,167.01781 L 136.88718,167.39281 L 136.38718,167.83031 L 133.73093,167.83031 C 133.56285,167.55882 133.60033,167.28932 133.57468,167.01781 z"
       id="path5912" />
    <path
       id="path5916"
       d="M 123.60593,140.79906 C 120.56883,140.79906 118.10593,143.31006 118.10593,146.42406 L 118.10593,148.36156 C 118.10593,151.47556 120.56883,153.98656 123.60593,153.98656 L 145.04343,153.98656 L 145.60593,153.98656 L 152.16843,153.98656 C 155.20553,153.98656 157.63718,151.47557 157.63718,148.36156 L 157.63718,146.42406 C 157.63718,143.31006 155.20553,140.79906 152.16843,140.79906 L 145.60593,140.79906 L 145.04343,140.79906 L 123.60593,140.79906 z M 135.38718,144.11156 C 136.20373,144.1116 136.85534,144.37848 137.32468,144.92406 C 138.50057,146.41151 138.39009,149.68425 140.76218,149.86156 C 141.34301,149.86156 141.77808,149.6467 142.07468,149.23656 C 142.37127,148.82269 142.44968,148.22549 142.44968,147.42406 C 142.44968,146.61887 142.24627,145.99043 141.94968,145.58031 C 141.65308,145.17019 141.12425,144.98656 140.54343,144.98656 C 139.96672,144.98656 139.64325,145.23439 139.32468,145.51781 C 139.02535,145.36183 138.6625,145.14864 138.41843,145.01781 C 138.92511,144.44965 139.58362,144.11156 140.54343,144.11156 C 141.50323,144.11156 142.16174,144.38718 142.66843,144.95531 C 143.17922,145.52347 143.48092,146.34796 143.48093,147.42406 C 143.48092,148.50393 143.3001,149.32465 142.79343,149.89281 C 142.28674,150.45721 141.88031,150.73656 140.91843,150.73656 C 140.83146,150.76378 140.39604,150.73941 140.26218,150.70531 C 139.49356,150.6239 139.07416,150.2673 138.54343,149.73656 C 137.75773,148.95085 137.42547,146.63828 136.54343,145.48656 C 136.26869,145.16674 135.87487,144.98656 135.35593,144.98656 C 134.84844,144.98656 134.43408,145.15545 134.10593,145.48656 L 133.19968,145.01781 C 133.74914,144.41581 134.47141,144.11158 135.38718,144.11156 z M 130.13718,144.17406 C 130.95373,144.17408 131.70823,144.49596 132.16843,145.04906 C 132.47154,145.41339 132.73612,145.82503 132.82468,146.33031 C 132.91325,146.8356 132.94223,147.39764 133.01218,147.89281 C 133.03933,148.08504 133.06285,148.24895 133.10593,148.42406 C 133.21703,148.75126 133.35421,148.94754 133.48093,149.11156 C 133.75832,149.4706 134.41406,150.01158 135.66843,149.92406 C 135.66236,149.94085 136.47008,149.86485 136.60593,149.86156 L 137.48093,150.33031 C 137.08028,150.49211 136.97987,150.53254 136.60593,150.61156 C 136.2358,150.69432 135.89066,150.73653 135.54343,150.73656 C 134.54753,150.73656 133.47934,150.41727 132.91843,149.83031 C 131.91832,148.72339 132.16509,146.8629 131.79343,146.08031 C 131.52911,145.52372 130.94557,145.1129 130.32468,145.08031 C 129.7065,145.04789 129.36002,145.24217 128.98093,145.58031 C 128.53336,145.97952 128.41843,146.62262 128.41843,147.42406 C 128.41843,149.49836 128.45605,149.57662 128.44968,150.61156 C 128.21116,150.61156 127.82586,150.61156 127.54343,150.61156 C 127.54343,149.62547 127.55527,147.64278 127.54343,147.42406 C 127.48585,146.37118 127.69869,145.62102 128.19968,145.08031 C 128.72274,144.51579 129.33766,144.18171 130.13718,144.17406 z M 133.57468,147.01781 L 136.23093,147.01781 L 136.88718,147.39281 L 136.38718,147.83031 L 133.73093,147.83031 C 133.56285,147.55882 133.60033,147.28932 133.57468,147.01781 z"
       style="fill:#4b66a2;fill-opacity:1;stroke:none;stroke-width:1.3102541;stroke-linecap:square;stroke-linejoin:miter;stroke-miterlimit:4;stroke-dashoffset:0;stroke-opacity:1" />
    <path
       style="fill:#b48825;fill-opacity:1;stroke:none;stroke-width:1.3102541;stroke-linecap:square;stroke-linejoin:miter;stroke-miterlimit:4;stroke-dashoffset:0;stroke-opacity:1"
       d="M 343.60594,120.79906 C 340.56884,120.79906 338.10594,123.31006 338.10594,126.42406 L 338.10594,128.36156 C 338.10594,131.47556 340.56884,133.98656 343.60594,133.98656 L 365.04344,133.98656 L 365.60594,133.98656 L 372.16844,133.98656 C 375.20554,133.98656 377.63719,131.47557 377.63719,128.36156 L 377.63719,126.42406 C 377.63719,123.31006 375.20554,120.79906 372.16844,120.79906 L 365.60594,120.79906 L 365.04344,120.79906 L 343.60594,120.79906 z M 355.38719,124.11156 C 356.20374,124.1116 356.85535,124.37848 357.32469,124.92406 C 358.50058,126.41151 358.3901,129.68425 360.76219,129.86156 C 361.34302,129.86156 361.77809,129.6467 362.07469,129.23656 C 362.37128,128.82269 362.44969,128.22549 362.44969,127.42406 C 362.44969,126.61887 362.24628,125.99043 361.94969,125.58031 C 361.65309,125.17019 361.12426,124.98656 360.54344,124.98656 C 359.96673,124.98656 359.64326,125.23439 359.32469,125.51781 C 359.02536,125.36183 358.66251,125.14864 358.41844,125.01781 C 358.92512,124.44965 359.58363,124.11156 360.54344,124.11156 C 361.50324,124.11156 362.16175,124.38718 362.66844,124.95531 C 363.17923,125.52347 363.48093,126.34796 363.48094,127.42406 C 363.48093,128.50393 363.30011,129.32465 362.79344,129.89281 C 362.28675,130.45721 361.88032,130.73656 360.91844,130.73656 C 360.83147,130.76378 360.39605,130.73941 360.26219,130.70531 C 359.49357,130.6239 359.07417,130.2673 358.54344,129.73656 C 357.75774,128.95085 357.42548,126.63828 356.54344,125.48656 C 356.2687,125.16674 355.87488,124.98656 355.35594,124.98656 C 354.84845,124.98656 354.43409,125.15545 354.10594,125.48656 L 353.19969,125.01781 C 353.74915,124.41581 354.47142,124.11158 355.38719,124.11156 z M 350.13719,124.17406 C 350.95374,124.17408 351.70824,124.49596 352.16844,125.04906 C 352.47155,125.41339 352.73613,125.82503 352.82469,126.33031 C 352.91326,126.8356 352.94224,127.39764 353.01219,127.89281 C 353.03934,128.08504 353.06286,128.24895 353.10594,128.42406 C 353.21704,128.75126 353.35422,128.94754 353.48094,129.11156 C 353.75833,129.4706 354.41407,130.01158 355.66844,129.92406 C 355.66237,129.94085 356.47009,129.86485 356.60594,129.86156 L 357.48094,130.33031 C 357.08029,130.49211 356.97988,130.53254 356.60594,130.61156 C 356.23581,130.69432 355.89067,130.73653 355.54344,130.73656 C 354.54754,130.73656 353.47935,130.41727 352.91844,129.83031 C 351.91833,128.72339 352.1651,126.8629 351.79344,126.08031 C 351.52912,125.52372 350.94558,125.1129 350.32469,125.08031 C 349.70651,125.04789 349.36003,125.24217 348.98094,125.58031 C 348.53337,125.97952 348.41844,126.62262 348.41844,127.42406 C 348.41844,129.49836 348.45606,129.57662 348.44969,130.61156 C 348.21117,130.61156 347.82587,130.61156 347.54344,130.61156 C 347.54344,129.62547 347.55528,127.64278 347.54344,127.42406 C 347.48586,126.37118 347.6987,125.62102 348.19969,125.08031 C 348.72275,124.51579 349.33767,124.18171 350.13719,124.17406 z M 353.57469,127.01781 L 356.23094,127.01781 L 356.88719,127.39281 L 356.38719,127.83031 L 353.73094,127.83031 C 353.56286,127.55882 353.60034,127.28932 353.57469,127.01781 z"
       id="path5918" />
    <path
       id="path5920"
       d="M 343.60594,160.79906 C 340.56884,160.79906 338.10594,163.31006 338.10594,166.42406 L 338.10594,168.36156 C 338.10594,171.47556 340.56884,173.98656 343.60594,173.98656 L 365.04344,173.98656 L 365.60594,173.98656 L 372.16844,173.98656 C 375.20554,173.98656 377.63719,171.47557 377.63719,168.36156 L 377.63719,166.42406 C 377.63719,163.31006 375.20554,160.79906 372.16844,160.79906 L 365.60594,160.79906 L 365.04344,160.79906 L 343.60594,160.79906 z M 355.38719,164.11156 C 356.20374,164.1116 356.85535,164.37848 357.32469,164.92406 C 358.50058,166.41151 358.3901,169.68425 360.76219,169.86156 C 361.34302,169.86156 361.77809,169.6467 362.07469,169.23656 C 362.37128,168.82269 362.44969,168.22549 362.44969,167.42406 C 362.44969,166.61887 362.24628,165.99043 361.94969,165.58031 C 361.65309,165.17019 361.12426,164.98656 360.54344,164.98656 C 359.96673,164.98656 359.64326,165.23439 359.32469,165.51781 C 359.02536,165.36183 358.66251,165.14864 358.41844,165.01781 C 358.92512,164.44965 359.58363,164.11156 360.54344,164.11156 C 361.50324,164.11156 362.16175,164.38718 362.66844,164.95531 C 363.17923,165.52347 363.48093,166.34796 363.48094,167.42406 C 363.48093,168.50393 363.30011,169.32465 362.79344,169.89281 C 362.28675,170.45721 361.88032,170.73656 360.91844,170.73656 C 360.83147,170.76378 360.39605,170.73941 360.26219,170.70531 C 359.49357,170.6239 359.07417,170.2673 358.54344,169.73656 C 357.75774,168.95085 357.42548,166.63828 356.54344,165.48656 C 356.2687,165.16674 355.87488,164.98656 355.35594,164.98656 C 354.84845,164.98656 354.43409,165.15545 354.10594,165.48656 L 353.19969,165.01781 C 353.74915,164.41581 354.47142,164.11158 355.38719,164.11156 z M 350.13719,164.17406 C 350.95374,164.17408 351.70824,164.49596 352.16844,165.04906 C 352.47155,165.41339 352.73613,165.82503 352.82469,166.33031 C 352.91326,166.8356 352.94224,167.39764 353.01219,167.89281 C 353.03934,168.08504 353.06286,168.24895 353.10594,168.42406 C 353.21704,168.75126 353.35422,168.94754 353.48094,169.11156 C 353.75833,169.4706 354.41407,170.01158 355.66844,169.92406 C 355.66237,169.94085 356.47009,169.86485 356.60594,169.86156 L 357.48094,170.33031 C 357.08029,170.49211 356.97988,170.53254 356.60594,170.61156 C 356.23581,170.69432 355.89067,170.73653 355.54344,170.73656 C 354.54754,170.73656 353.47935,170.41727 352.91844,169.83031 C 351.91833,168.72339 352.1651,166.8629 351.79344,166.08031 C 351.52912,165.52372 350.94558,165.1129 350.32469,165.08031 C 349.70651,165.04789 349.36003,165.24217 348.98094,165.58031 C 348.53337,165.97952 348.41844,166.62262 348.41844,167.42406 C 348.41844,169.49836 348.45606,169.57662 348.44969,170.61156 C 348.21117,170.61156 347.82587,170.61156 347.54344,170.61156 C 347.54344,169.62547 347.55528,167.64278 347.54344,167.42406 C 347.48586,166.37118 347.6987,165.62102 348.19969,165.08031 C 348.72275,164.51579 349.33767,164.18171 350.13719,164.17406 z M 353.57469,167.01781 L 356.23094,167.01781 L 356.88719,167.39281 L 356.38719,167.83031 L 353.73094,167.83031 C 353.56286,167.55882 353.60034,167.28932 353.57469,167.01781 z"
       style="fill:#000000;fill-opacity:1;stroke:none;stroke-width:1.3102541;stroke-linecap:square;stroke-linejoin:miter;stroke-miterlimit:4;stroke-dashoffset:0;stroke-opacity:1" />
    <path
       style="fill:#4b66a2;fill-opacity:1;stroke:none;stroke-width:1.3102541;stroke-linecap:square;stroke-linejoin:miter;stroke-miterlimit:4;stroke-dashoffset:0;stroke-opacity:1"
       d="M 343.60594,140.79906 C 340.56884,140.79906 338.10594,143.31006 338.10594,146.42406 L 338.10594,148.36156 C 338.10594,151.47556 340.56884,153.98656 343.60594,153.98656 L 365.04344,153.98656 L 365.60594,153.98656 L 372.16844,153.98656 C 375.20554,153.98656 377.63719,151.47557 377.63719,148.36156 L 377.63719,146.42406 C 377.63719,143.31006 375.20554,140.79906 372.16844,140.79906 L 365.60594,140.79906 L 365.04344,140.79906 L 343.60594,140.79906 z M 355.38719,144.11156 C 356.20374,144.1116 356.85535,144.37848 357.32469,144.92406 C 358.50058,146.41151 358.3901,149.68425 360.76219,149.86156 C 361.34302,149.86156 361.77809,149.6467 362.07469,149.23656 C 362.37128,148.82269 362.44969,148.22549 362.44969,147.42406 C 362.44969,146.61887 362.24628,145.99043 361.94969,145.58031 C 361.65309,145.17019 361.12426,144.98656 360.54344,144.98656 C 359.96673,144.98656 359.64326,145.23439 359.32469,145.51781 C 359.02536,145.36183 358.66251,145.14864 358.41844,145.01781 C 358.92512,144.44965 359.58363,144.11156 360.54344,144.11156 C 361.50324,144.11156 362.16175,144.38718 362.66844,144.95531 C 363.17923,145.52347 363.48093,146.34796 363.48094,147.42406 C 363.48093,148.50393 363.30011,149.32465 362.79344,149.89281 C 362.28675,150.45721 361.88032,150.73656 360.91844,150.73656 C 360.83147,150.76378 360.39605,150.73941 360.26219,150.70531 C 359.49357,150.6239 359.07417,150.2673 358.54344,149.73656 C 357.75774,148.95085 357.42548,146.63828 356.54344,145.48656 C 356.2687,145.16674 355.87488,144.98656 355.35594,144.98656 C 354.84845,144.98656 354.43409,145.15545 354.10594,145.48656 L 353.19969,145.01781 C 353.74915,144.41581 354.47142,144.11158 355.38719,144.11156 z M 350.13719,144.17406 C 350.95374,144.17408 351.70824,144.49596 352.16844,145.04906 C 352.47155,145.41339 352.73613,145.82503 352.82469,146.33031 C 352.91326,146.8356 352.94224,147.39764 353.01219,147.89281 C 353.03934,148.08504 353.06286,148.24895 353.10594,148.42406 C 353.21704,148.75126 353.35422,148.94754 353.48094,149.11156 C 353.75833,149.4706 354.41407,150.01158 355.66844,149.92406 C 355.66237,149.94085 356.47009,149.86485 356.60594,149.86156 L 357.48094,150.33031 C 357.08029,150.49211 356.97988,150.53254 356.60594,150.61156 C 356.23581,150.69432 355.89067,150.73653 355.54344,150.73656 C 354.54754,150.73656 353.47935,150.41727 352.91844,149.83031 C 351.91833,148.72339 352.1651,146.8629 351.79344,146.08031 C 351.52912,145.52372 350.94558,145.1129 350.32469,145.08031 C 349.70651,145.04789 349.36003,145.24217 348.98094,145.58031 C 348.53337,145.97952 348.41844,146.62262 348.41844,147.42406 C 348.41844,149.49836 348.45606,149.57662 348.44969,150.61156 C 348.21117,150.61156 347.82587,150.61156 347.54344,150.61156 C 347.54344,149.62547 347.55528,147.64278 347.54344,147.42406 C 347.48586,146.37118 347.6987,145.62102 348.19969,145.08031 C 348.72275,144.51579 349.33767,144.18171 350.13719,144.17406 z M 353.57469,147.01781 L 356.23094,147.01781 L 356.88719,147.39281 L 356.38719,147.83031 L 353.73094,147.83031 C 353.56286,147.55882 353.60034,147.28932 353.57469,147.01781 z"
       id="path5922" />
  </g>
</svg>
