<?xml version="1.0" encoding="UTF-8" standalone="no"?>
<!-- Created with Inkscape (http://www.inkscape.org/) -->
<svg
   xmlns:dc="http://purl.org/dc/elements/1.1/"
   xmlns:cc="http://web.resource.org/cc/"
   xmlns:rdf="http://www.w3.org/1999/02/22-rdf-syntax-ns#"
   xmlns:svg="http://www.w3.org/2000/svg"
   xmlns="http://www.w3.org/2000/svg"
   xmlns:xlink="http://www.w3.org/1999/xlink"
   xmlns:sodipodi="http://sodipodi.sourceforge.net/DTD/sodipodi-0.dtd"
   xmlns:inkscape="http://www.inkscape.org/namespaces/inkscape"
   width="913.68591"
   height="365.11444"
   id="svg2635"
   sodipodi:version="0.32"
   inkscape:version="0.45.1"
   sodipodi:docbase="/home/nepomuk/daten/bilder/neo2/logoideen"
   sodipodi:docname="neologo_mit_richtigen_Tasten__finger_taste.svg"
   inkscape:output_extension="org.inkscape.output.svg.inkscape"
   version="1.0">
  <defs
     id="defs2637">
    <radialGradient
       inkscape:collect="always"
       xlink:href="#linearGradient6536"
       id="radialGradient3759"
       gradientUnits="userSpaceOnUse"
       gradientTransform="matrix(0.598235,-2.39429e-6,5.622594e-6,1.404856,1053.1888,-300.71422)"
       cx="623.38293"
       cy="233.13782"
       fx="623.38293"
       fy="233.13782"
       r="31.428574" />
    <linearGradient
       inkscape:collect="always"
       xlink:href="#linearGradient3730"
       id="linearGradient3757"
       gradientUnits="userSpaceOnUse"
       gradientTransform="translate(1226.5273,-122.33853)"
       x1="183.82088"
       y1="152.68343"
       x2="233.54607"
       y2="152.17834" />
    <radialGradient
       inkscape:collect="always"
       xlink:href="#linearGradient4720"
       id="radialGradient3755"
       gradientUnits="userSpaceOnUse"
       gradientTransform="matrix(0.308336,-0.808817,1.413042,0.538676,1182.1492,306.407)"
       cx="316.07376"
       cy="126.72243"
       fx="316.07376"
       fy="126.72243"
       r="46.277191" />
    <radialGradient
       inkscape:collect="always"
       xlink:href="#linearGradient4702"
       id="radialGradient3753"
       gradientUnits="userSpaceOnUse"
       gradientTransform="matrix(1.254091,-5.681726e-3,1.251906e-2,1.756906,1025.0345,-45.9257)"
       cx="382.62219"
       cy="53.614029"
       fx="382.62219"
       fy="53.614029"
       r="35.777191" />
    <linearGradient
       inkscape:collect="always"
       xlink:href="#linearGradient4720"
       id="linearGradient3751"
       gradientUnits="userSpaceOnUse"
       gradientTransform="matrix(1.011033,0,0,1,1113.5953,-8.3385)"
       x1="247.74515"
       y1="47.647896"
       x2="278.87097"
       y2="47.647896" />
    <radialGradient
       inkscape:collect="always"
       xlink:href="#linearGradient3730"
       id="radialGradient3749"
       gradientUnits="userSpaceOnUse"
       gradientTransform="matrix(0.491136,-0.305596,0.552048,0.887218,1395.6852,116.267)"
       cx="146.65874"
       cy="-12.182395"
       fx="146.65874"
       fy="-12.182395"
       r="46.277191" />
    <radialGradient
       inkscape:collect="always"
       xlink:href="#linearGradient3765"
       id="radialGradient3747"
       gradientUnits="userSpaceOnUse"
       gradientTransform="matrix(1,0,0,1.044946,1224.5273,-129.60383)"
       cx="203.52232"
       cy="161.6479"
       fx="203.52232"
       fy="161.6479"
       r="46.277191" />
    <radialGradient
       inkscape:collect="always"
       xlink:href="#linearGradient3449"
       id="radialGradient3761"
       gradientUnits="userSpaceOnUse"
       gradientTransform="matrix(0.8680797,8.2450162e-2,-2.2311227e-2,0.2349046,1.8903674,225.40907)"
       cx="-34.862335"
       cy="290.85873"
       fx="-34.862335"
       fy="290.85873"
       r="92.590324" />
    <radialGradient
       inkscape:collect="always"
       xlink:href="#linearGradient3449"
       id="radialGradient3883"
       gradientUnits="userSpaceOnUse"
       gradientTransform="matrix(0.8680797,8.2450162e-2,-2.2311227e-2,0.2349046,1.8903674,225.40907)"
       cx="-34.862335"
       cy="290.85873"
       fx="-34.862335"
       fy="290.85873"
       r="92.590324" />
    <radialGradient
       inkscape:collect="always"
       xlink:href="#linearGradient6536"
       id="radialGradient3775"
       gradientUnits="userSpaceOnUse"
       gradientTransform="matrix(0.598235,-2.39429e-6,5.622594e-6,1.404856,1053.1888,-300.71422)"
       cx="623.38293"
       cy="233.13782"
       fx="623.38293"
       fy="233.13782"
       r="31.428574" />
    <linearGradient
       inkscape:collect="always"
       xlink:href="#linearGradient3730"
       id="linearGradient3773"
       gradientUnits="userSpaceOnUse"
       gradientTransform="translate(1226.5273,-122.33853)"
       x1="183.82088"
       y1="152.68343"
       x2="233.54607"
       y2="152.17834" />
    <radialGradient
       inkscape:collect="always"
       xlink:href="#linearGradient4720"
       id="radialGradient3771"
       gradientUnits="userSpaceOnUse"
       gradientTransform="matrix(0.308336,-0.808817,1.413042,0.538676,1182.1492,306.407)"
       cx="316.07376"
       cy="126.72243"
       fx="316.07376"
       fy="126.72243"
       r="46.277191" />
    <radialGradient
       inkscape:collect="always"
       xlink:href="#linearGradient4702"
       id="radialGradient3769"
       gradientUnits="userSpaceOnUse"
       gradientTransform="matrix(1.254091,-5.681726e-3,1.251906e-2,1.756906,1025.0345,-45.9257)"
       cx="382.62219"
       cy="53.614029"
       fx="382.62219"
       fy="53.614029"
       r="35.777191" />
    <linearGradient
       inkscape:collect="always"
       xlink:href="#linearGradient4720"
       id="linearGradient3767"
       gradientUnits="userSpaceOnUse"
       gradientTransform="matrix(1.011033,0,0,1,1113.5953,-8.3385)"
       x1="247.74515"
       y1="47.647896"
       x2="278.87097"
       y2="47.647896" />
    <radialGradient
       inkscape:collect="always"
       xlink:href="#linearGradient3730"
       id="radialGradient3765"
       gradientUnits="userSpaceOnUse"
       gradientTransform="matrix(0.491136,-0.305596,0.552048,0.887218,1395.6852,116.267)"
       cx="146.65874"
       cy="-12.182395"
       fx="146.65874"
       fy="-12.182395"
       r="46.277191" />
    <radialGradient
       inkscape:collect="always"
       xlink:href="#linearGradient3765"
       id="radialGradient3763"
       gradientUnits="userSpaceOnUse"
       gradientTransform="matrix(1,0,0,1.044946,1224.5273,-129.60383)"
       cx="203.52232"
       cy="161.6479"
       fx="203.52232"
       fy="161.6479"
       r="46.277191" />
    <linearGradient
       inkscape:collect="always"
       id="linearGradient3449">
      <stop
         style="stop-color:#000000;stop-opacity:1;"
         offset="0"
         id="stop3451" />
      <stop
         style="stop-color:#000000;stop-opacity:0;"
         offset="1"
         id="stop3453" />
    </linearGradient>
    <radialGradient
       inkscape:collect="always"
       xlink:href="#linearGradient3449"
       id="radialGradient3777"
       gradientUnits="userSpaceOnUse"
       gradientTransform="matrix(0.8680797,8.2450162e-2,-2.2311227e-2,0.2349046,1.8903674,225.40907)"
       cx="-34.862335"
       cy="290.85873"
       fx="-34.862335"
       fy="290.85873"
       r="92.590324" />
    <linearGradient
       id="linearGradient6536">
      <stop
         style="stop-color:#c5c5c5;stop-opacity:1"
         offset="0"
         id="stop6542" />
      <stop
         style="stop-color:#a9a9a9;stop-opacity:0"
         offset="1"
         id="stop6544" />
    </linearGradient>
    <radialGradient
       inkscape:collect="always"
       xlink:href="#linearGradient6536"
       id="radialGradient3857"
       gradientUnits="userSpaceOnUse"
       gradientTransform="matrix(0.598235,-2.39429e-6,5.622594e-6,1.404856,1053.1888,-300.71422)"
       cx="623.38293"
       cy="233.13782"
       fx="623.38293"
       fy="233.13782"
       r="31.428574" />
    <linearGradient
       inkscape:collect="always"
       xlink:href="#linearGradient3730"
       id="linearGradient3855"
       gradientUnits="userSpaceOnUse"
       gradientTransform="translate(1226.5273,-122.33853)"
       x1="183.82088"
       y1="152.68343"
       x2="233.54607"
       y2="152.17834" />
    <radialGradient
       inkscape:collect="always"
       xlink:href="#linearGradient4720"
       id="radialGradient3853"
       gradientUnits="userSpaceOnUse"
       gradientTransform="matrix(0.308336,-0.808817,1.413042,0.538676,1182.1492,306.407)"
       cx="316.07376"
       cy="126.72243"
       fx="316.07376"
       fy="126.72243"
       r="46.277191" />
    <linearGradient
       id="linearGradient4702">
      <stop
         style="stop-color:black;stop-opacity:1"
         offset="0"
         id="stop4704" />
      <stop
         style="stop-color:black;stop-opacity:0"
         offset="1"
         id="stop4706" />
    </linearGradient>
    <radialGradient
       inkscape:collect="always"
       xlink:href="#linearGradient4702"
       id="radialGradient3851"
       gradientUnits="userSpaceOnUse"
       gradientTransform="matrix(1.254091,-5.681726e-3,1.251906e-2,1.756906,1025.0345,-45.9257)"
       cx="382.62219"
       cy="53.614029"
       fx="382.62219"
       fy="53.614029"
       r="35.777191" />
    <linearGradient
       id="linearGradient4720">
      <stop
         style="stop-color:black;stop-opacity:1"
         offset="0"
         id="stop4722" />
      <stop
         style="stop-color:black;stop-opacity:0"
         offset="1"
         id="stop4724" />
    </linearGradient>
    <linearGradient
       inkscape:collect="always"
       xlink:href="#linearGradient4720"
       id="linearGradient3849"
       gradientUnits="userSpaceOnUse"
       gradientTransform="matrix(1.011033,0,0,1,1113.5953,-8.3385)"
       x1="247.74515"
       y1="47.647896"
       x2="278.87097"
       y2="47.647896" />
    <linearGradient
       id="linearGradient3730">
      <stop
         style="stop-color:#d6d6d6;stop-opacity:1"
         offset="0"
         id="stop3732" />
      <stop
         style="stop-color:#d5d5d5;stop-opacity:1"
         offset="0.15977488"
         id="stop3738" />
      <stop
         style="stop-color:#cbcbcb;stop-opacity:1"
         offset="0.40777084"
         id="stop3740" />
      <stop
         style="stop-color:#a9a9a9;stop-opacity:1"
         offset="1"
         id="stop3734" />
    </linearGradient>
    <radialGradient
       inkscape:collect="always"
       xlink:href="#linearGradient3730"
       id="radialGradient3847"
       gradientUnits="userSpaceOnUse"
       gradientTransform="matrix(0.491136,-0.305596,0.552048,0.887218,1395.6852,116.267)"
       cx="146.65874"
       cy="-12.182395"
       fx="146.65874"
       fy="-12.182395"
       r="46.277191" />
    <linearGradient
       id="linearGradient3765">
      <stop
         style="stop-color:#ededed;stop-opacity:1"
         offset="0"
         id="stop3767" />
      <stop
         style="stop-color:#bababa;stop-opacity:1"
         offset="0.50660795"
         id="stop3771" />
      <stop
         style="stop-color:#878787;stop-opacity:1"
         offset="1"
         id="stop3769" />
    </linearGradient>
    <radialGradient
       inkscape:collect="always"
       xlink:href="#linearGradient3765"
       id="radialGradient3845"
       gradientUnits="userSpaceOnUse"
       gradientTransform="matrix(1,0,0,1.044946,1224.5273,-129.60383)"
       cx="203.52232"
       cy="161.6479"
       fx="203.52232"
       fy="161.6479"
       r="46.277191" />
  </defs>
  <sodipodi:namedview
     id="base"
     pagecolor="#ffffff"
     bordercolor="#666666"
     borderopacity="1.0"
     inkscape:pageopacity="0.0"
     inkscape:pageshadow="2"
     inkscape:zoom="0.7"
     inkscape:cx="308.89034"
     inkscape:cy="487.05163"
     inkscape:document-units="px"
     inkscape:current-layer="layer1"
     inkscape:window-width="1592"
     inkscape:window-height="1124"
     inkscape:window-x="0"
     inkscape:window-y="0" />
  <metadata
     id="metadata2640">
    <rdf:RDF>
      <cc:Work
         rdf:about="">
        <dc:format>image/svg+xml</dc:format>
        <dc:type
           rdf:resource="http://purl.org/dc/dcmitype/StillImage" />
      </cc:Work>
    </rdf:RDF>
  </metadata>
  <g
     inkscape:label="Ebene 1"
     inkscape:groupmode="layer"
     id="layer1"
     transform="translate(124.70007,-39.090683)">
    <g
       id="g3673"
       transform="translate(-1398.9432,184.39881)"
       inkscape:tile-w="91.913605"
       inkscape:tile-h="96.428576"
       inkscape:tile-cx="789.25844"
       inkscape:tile-cy="-830.34582">
      <path
         d="M 1457.7416,-8.54778 C 1457.7416,-8.54778 1468.813,-3.90492 1471.313,-0.69063 C 1473.813,2.52365 1474.5273,73.23794 1473.0987,78.59508 C 1471.6702,83.95222 1466.6702,87.16651 1466.6702,87.16651 L 1392.0273,86.45222 C 1392.0273,86.45222 1383.813,86.09508 1383.813,81.09508 C 1383.813,76.09508 1381.4916,4.39865 1384.3487,2.2558 C 1387.2059,0.11294 1401.313,-8.54778 1401.313,-8.54778 L 1457.7416,-8.54778 z "
         style="fill:url(#radialGradient3747);fill-opacity:1;fill-rule:evenodd;stroke:none;stroke-width:1px;stroke-linecap:butt;stroke-linejoin:miter;stroke-opacity:1"
         id="path3675" />
      <path
         d="M 1457.7416,-8.54778 C 1457.7416,-8.54778 1468.813,-3.90492 1471.313,-0.69063 C 1473.813,2.52365 1474.5273,73.23794 1473.0987,78.59508 C 1471.6702,83.95222 1466.6702,87.16651 1466.6702,87.16651 L 1392.0273,86.45222 C 1392.0273,86.45222 1383.813,86.09508 1383.813,81.09508 C 1383.813,76.09508 1381.4916,4.48793 1384.3487,2.34508 C 1387.2059,0.20222 1401.313,-8.54778 1401.313,-8.54778 L 1457.7416,-8.54778 z "
         style="opacity:0.88161208;fill:url(#radialGradient3749);fill-opacity:1;fill-rule:evenodd;stroke:none;stroke-width:1px;stroke-linecap:butt;stroke-linejoin:miter;stroke-opacity:1"
         id="path3677" />
      <path
         d="M 1458.5743,-8.54778 C 1458.5743,-8.54778 1469.7678,-3.90492 1472.2954,-0.69063 C 1474.823,2.52365 1475.5452,73.23794 1474.1009,78.59508 C 1472.6565,83.95222 1467.6013,87.16651 1467.6013,87.16651 L 1392.1349,86.45222 C 1392.1349,86.45222 1383.83,86.09508 1383.83,81.09508 C 1383.83,76.09508 1381.4731,4.04151 1384.3618,1.89866 C 1387.2505,-0.2442 1401.5231,-8.54778 1401.5231,-8.54778 L 1458.5743,-8.54778 z "
         style="opacity:0.88161208;fill:url(#linearGradient3751);fill-opacity:1;fill-rule:evenodd;stroke:none;stroke-width:1px;stroke-linecap:butt;stroke-linejoin:miter;stroke-opacity:1"
         id="path3679" />
      <path
         d="M 1453.6542,-8.54778 C 1453.6542,-8.54778 1467.539,-3.90492 1470.6742,-0.69063 C 1473.8095,2.52365 1474.7053,73.23794 1472.9137,78.59508 C 1471.1221,83.95222 1464.8516,87.16651 1464.8516,87.16651 L 1396.3234,86.45222 C 1396.3234,86.45222 1386.0217,86.09508 1386.0217,81.09508 C 1386.0217,76.09508 1381.9907,3.95222 1385.5738,1.80937 C 1389.157,-0.33349 1407.9687,-8.54778 1407.9687,-8.54778 L 1453.6542,-8.54778 z "
         style="opacity:0.99924436;fill:url(#radialGradient3753);fill-opacity:1;fill-rule:evenodd;stroke:none;stroke-width:1px;stroke-linecap:butt;stroke-linejoin:miter;stroke-opacity:1"
         id="path3681" />
      <path
         d="M 1457.7416,-8.54778 C 1457.7416,-8.54778 1468.813,-3.90492 1471.313,-0.69063 C 1473.813,2.52365 1474.5273,73.23794 1473.0987,78.59508 C 1471.6702,83.95222 1466.6702,87.16651 1466.6702,87.16651 L 1392.0273,86.45222 C 1392.0273,86.45222 1383.813,86.09508 1383.813,81.09508 C 1383.813,76.09508 1384.6166,9.84508 1384.2594,1.98794 C 1384.0973,-1.5798 1401.313,-8.54778 1401.313,-8.54778 L 1457.7416,-8.54778 z "
         style="opacity:0.88161208;fill:url(#radialGradient3755);fill-opacity:1;fill-rule:evenodd;stroke:none;stroke-width:1px;stroke-linecap:butt;stroke-linejoin:miter;stroke-opacity:1"
         id="path3683" />
      <rect
         width="62.857147"
         height="72.142853"
         ry="8.4049931"
         x="1399.7416"
         y="-9.2620659"
         style="fill:url(#linearGradient3757);fill-opacity:1;fill-rule:nonzero;stroke:none;stroke-width:1.05200005;stroke-linecap:round;stroke-linejoin:miter;stroke-miterlimit:4;stroke-dasharray:none;stroke-dashoffset:0;stroke-opacity:0.48627451"
         id="rect3685" />
      <rect
         width="62.857147"
         height="72.142853"
         ry="8.4049931"
         x="1399.7416"
         y="-9.2620659"
         style="opacity:0.57430731;fill:url(#radialGradient3759);fill-opacity:1;fill-rule:nonzero;stroke:none;stroke-width:1.05200005;stroke-linecap:round;stroke-linejoin:miter;stroke-miterlimit:4;stroke-dasharray:none;stroke-dashoffset:0;stroke-opacity:0.48627451"
         id="rect3687" />
    </g>
    <text
       xml:space="preserve"
       style="font-size:68.55725098px;font-style:normal;font-weight:bold;fill:#a3a3a3;fill-opacity:1;stroke:none;stroke-width:1px;stroke-linecap:butt;stroke-linejoin:miter;stroke-opacity:1;font-family:Linux Libertine"
       x="2.7150269"
       y="241.7498"
       id="text3885"><tspan
         sodipodi:role="line"
         id="tspan3887"
         x="2.7150269"
         y="241.7498">n</tspan></text>
    <path
       sodipodi:type="arc"
       style="opacity:1;fill:url(#radialGradient3761);fill-opacity:1;stroke:none;stroke-width:6.54300022;stroke-linejoin:bevel;stroke-miterlimit:4;stroke-dasharray:none;stroke-dashoffset:0;stroke-opacity:1"
       id="path3689"
       sodipodi:cx="-34.862335"
       sodipodi:cy="290.85873"
       sodipodi:rx="89.318825"
       sodipodi:ry="48.094753"
       d="M 54.45649 290.85873 A 89.318825 48.094753 0 1 1  -124.18116,290.85873 A 89.318825 48.094753 0 1 1  54.45649 290.85873 z"
       transform="matrix(-0.5387128,0.1125195,-0.2436526,-0.9694989,132.66428,546.66793)" />
    <text
       id="text2818"
       y="203.00282"
       x="40.09433"
       style="font-size:30.72548866px;font-style:normal;font-weight:bold;fill:#a3a3a3;fill-opacity:1;stroke:none;stroke-width:1px;stroke-linecap:butt;stroke-linejoin:miter;stroke-opacity:1;font-family:Linux Libertine"
       xml:space="preserve"><tspan
         y="203.00282"
         x="40.09433"
         id="tspan2820"
         sodipodi:role="line">(</tspan></text>
    <path
       style="font-size:52.72890091px;font-style:normal;font-variant:normal;font-weight:bold;font-stretch:normal;text-align:center;line-height:100%;writing-mode:lr-tb;text-anchor:middle;fill:#cccccc;fill-opacity:1;stroke:none;stroke-width:1px;stroke-linecap:butt;stroke-linejoin:miter;stroke-opacity:1;display:inline;font-family:DejaVu LGC Sans"
       d="M 40.061,188.14733 C 37.52739,191.06665 40.5441,194.99483 44.09225,193.95983 C 45.7878,196.52918 43.87524,201.61002 44.59225,204.83483 C 44.74419,210.85381 45.54297,218.59747 40.65297,210.08813 C 34.54655,202.48168 28.28836,195.00959 21.90475,187.61608 C 17.86718,188.74962 8.65685,184.58772 8.8735,191.05358 C 8.84405,195.12955 15.4395,192.56572 14.9985,197.08483 C 14.779,207.64229 15.40306,218.67314 14.7485,228.99108 C 12.12458,229.22879 8.05927,229.50199 9.21725,233.49108 C 10.82177,238.11384 17.87291,234.44941 21.87342,235.53467 C 25.37451,236.24508 30.05994,235.80857 28.40475,231.02233 C 27.87129,227.82501 22.16113,231.13236 23.311,227.17858 C 23.311,220.80358 23.311,214.42858 23.311,208.05358 C 30.96455,217.05114 37.5135,227.2874 45.6235,235.74108 C 49.49129,238.13748 54.35832,234.28961 52.90475,229.86608 C 53.11461,217.99955 52.51321,205.68877 53.15475,194.05358 C 55.84795,194.24285 59.14364,193.14091 58.1235,189.67858 C 56.23085,185.21932 49.00185,188.70968 44.81115,187.62233 C 43.33414,187.95337 41.07959,186.80179 40.061,188.14733 z "
       id="path3889" />
    <path
       sodipodi:type="arc"
       style="opacity:1;fill:url(#radialGradient3883);fill-opacity:1;stroke:none;stroke-width:6.54300022;stroke-linejoin:bevel;stroke-miterlimit:4;stroke-dasharray:none;stroke-dashoffset:0;stroke-opacity:1"
       id="path3881"
       sodipodi:cx="-34.862335"
       sodipodi:cy="290.85873"
       sodipodi:rx="89.318825"
       sodipodi:ry="48.094753"
       d="M 54.45649 290.85873 A 89.318825 48.094753 0 1 1  -124.18116,290.85873 A 89.318825 48.094753 0 1 1  54.45649 290.85873 z"
       transform="matrix(8.5967192e-2,0.4303871,-1.5369979,0.1104777,526.91723,211.95221)" />
    <path
       d="M 46.59236,194.82572 C 46.59232,193.73944 46.30411,192.97459 45.72774,192.53115 C 45.17345,192.06562 44.22016,191.83285 42.86784,191.83281 L 41.90345,191.83281 C 41.74822,191.83285 41.61521,191.7885 41.50439,191.69978 C 41.3935,191.58898 41.33808,191.44487 41.33812,191.26747 L 41.33812,189.67124 L 41.47113,189.53822 L 44.26453,189.60474 C 46.12676,189.64912 47.61213,189.6713 48.72067,189.67124 L 56.00345,189.53822 L 56.13647,189.67124 L 56.13647,191.26747 C 56.13642,191.6444 55.95906,191.83285 55.60439,191.83281 L 54.64,191.83281 C 53.2876,191.83285 52.32321,192.0878 51.74684,192.59767 C 51.19255,193.08543 50.91544,193.82813 50.91548,194.82572 L 50.91548,231.87148 C 50.91544,233.55638 50.05081,234.39884 48.32161,234.39884 C 47.96685,234.39884 47.62322,234.3545 47.29071,234.26582 C 46.9803,234.17714 46.71426,234.05521 46.4926,233.90002 C 46.27086,233.767 46.07134,233.6229 45.89401,233.46771 C 45.71662,233.31253 45.57251,233.16842 45.4617,233.0354 C 45.37298,232.90239 45.29539,232.79153 45.22892,232.70286 L 45.16241,232.53657 L 21.31877,202.27479 L 21.31877,228.34648 C 21.31877,229.34413 21.59588,230.09791 22.15014,230.6078 C 22.72654,231.09554 23.69093,231.33941 25.04331,231.33941 L 26.00769,231.33941 C 26.36239,231.33941 26.53975,231.52786 26.53976,231.90474 L 26.53976,233.50096 L 26.40674,233.63399 L 23.48033,233.56748 C 21.52938,233.52314 20.044,233.50096 19.02419,233.50096 L 11.34234,233.63399 L 11.20933,233.50096 L 11.20933,231.90474 C 11.20933,231.52786 11.39777,231.33941 11.77466,231.33941 L 12.73906,231.33941 C 15.57678,231.33941 16.99565,230.34176 16.99567,228.34648 L 16.99567,195.45757 C 16.61877,194.90336 16.2973,194.45996 16.03128,194.12738 C 15.76523,193.79487 15.4216,193.42907 15.00037,193.02997 C 14.60131,192.63095 14.16901,192.33167 13.70344,192.13209 C 13.26004,191.93261 12.78339,191.83285 12.27349,191.83281 C 11.71924,191.83285 11.34234,191.77742 11.14283,191.66652 C 10.96546,191.53355 10.87678,191.33402 10.87678,191.06795 L 10.87678,189.80427 L 11.07631,189.53822 L 20.95297,189.60474 L 25.10981,194.45992 C 27.88102,197.67458 31.30625,201.77599 35.38552,206.76417 C 39.46474,211.73023 42.81237,215.97574 45.42844,219.50073 C 45.98265,220.29886 46.37063,220.88635 46.59236,221.26323 L 46.59236,194.82572"
       style="font-size:52.72890091px;font-style:normal;font-variant:normal;font-weight:bold;font-stretch:normal;text-align:center;line-height:100%;writing-mode:lr-tb;text-anchor:middle;fill:#000000;fill-opacity:1;stroke:none;stroke-width:1px;stroke-linecap:butt;stroke-linejoin:miter;stroke-opacity:1;display:inline;font-family:DejaVu LGC Sans"
       id="path3717" />
    <g
       inkscape:tile-cy="-830.34582"
       inkscape:tile-cx="789.25844"
       inkscape:tile-h="96.428576"
       inkscape:tile-w="91.913605"
       transform="translate(-1329.7275,205.88151)"
       id="g3693">
      <path
         id="path3695"
         style="fill:url(#radialGradient3763);fill-opacity:1;fill-rule:evenodd;stroke:none;stroke-width:1px;stroke-linecap:butt;stroke-linejoin:miter;stroke-opacity:1"
         d="M 1457.7416,-8.54778 C 1457.7416,-8.54778 1468.813,-3.90492 1471.313,-0.69063 C 1473.813,2.52365 1474.5273,73.23794 1473.0987,78.59508 C 1471.6702,83.95222 1466.6702,87.16651 1466.6702,87.16651 L 1392.0273,86.45222 C 1392.0273,86.45222 1383.813,86.09508 1383.813,81.09508 C 1383.813,76.09508 1381.4916,4.39865 1384.3487,2.2558 C 1387.2059,0.11294 1401.313,-8.54778 1401.313,-8.54778 L 1457.7416,-8.54778 z " />
      <path
         id="path3697"
         style="opacity:0.88161208;fill:url(#radialGradient3765);fill-opacity:1;fill-rule:evenodd;stroke:none;stroke-width:1px;stroke-linecap:butt;stroke-linejoin:miter;stroke-opacity:1"
         d="M 1457.7416,-8.54778 C 1457.7416,-8.54778 1468.813,-3.90492 1471.313,-0.69063 C 1473.813,2.52365 1474.5273,73.23794 1473.0987,78.59508 C 1471.6702,83.95222 1466.6702,87.16651 1466.6702,87.16651 L 1392.0273,86.45222 C 1392.0273,86.45222 1383.813,86.09508 1383.813,81.09508 C 1383.813,76.09508 1381.4916,4.48793 1384.3487,2.34508 C 1387.2059,0.20222 1401.313,-8.54778 1401.313,-8.54778 L 1457.7416,-8.54778 z " />
      <path
         id="path3699"
         style="opacity:0.88161208;fill:url(#linearGradient3767);fill-opacity:1;fill-rule:evenodd;stroke:none;stroke-width:1px;stroke-linecap:butt;stroke-linejoin:miter;stroke-opacity:1"
         d="M 1458.5743,-8.54778 C 1458.5743,-8.54778 1469.7678,-3.90492 1472.2954,-0.69063 C 1474.823,2.52365 1475.5452,73.23794 1474.1009,78.59508 C 1472.6565,83.95222 1467.6013,87.16651 1467.6013,87.16651 L 1392.1349,86.45222 C 1392.1349,86.45222 1383.83,86.09508 1383.83,81.09508 C 1383.83,76.09508 1381.4731,4.04151 1384.3618,1.89866 C 1387.2505,-0.2442 1401.5231,-8.54778 1401.5231,-8.54778 L 1458.5743,-8.54778 z " />
      <path
         id="path3701"
         style="opacity:0.99924436;fill:url(#radialGradient3769);fill-opacity:1;fill-rule:evenodd;stroke:none;stroke-width:1px;stroke-linecap:butt;stroke-linejoin:miter;stroke-opacity:1"
         d="M 1453.6542,-8.54778 C 1453.6542,-8.54778 1467.539,-3.90492 1470.6742,-0.69063 C 1473.8095,2.52365 1474.7053,73.23794 1472.9137,78.59508 C 1471.1221,83.95222 1464.8516,87.16651 1464.8516,87.16651 L 1396.3234,86.45222 C 1396.3234,86.45222 1386.0217,86.09508 1386.0217,81.09508 C 1386.0217,76.09508 1381.9907,3.95222 1385.5738,1.80937 C 1389.157,-0.33349 1407.9687,-8.54778 1407.9687,-8.54778 L 1453.6542,-8.54778 z " />
      <path
         id="path3703"
         style="opacity:0.88161208;fill:url(#radialGradient3771);fill-opacity:1;fill-rule:evenodd;stroke:none;stroke-width:1px;stroke-linecap:butt;stroke-linejoin:miter;stroke-opacity:1"
         d="M 1457.7416,-8.54778 C 1457.7416,-8.54778 1468.813,-3.90492 1471.313,-0.69063 C 1473.813,2.52365 1474.5273,73.23794 1473.0987,78.59508 C 1471.6702,83.95222 1466.6702,87.16651 1466.6702,87.16651 L 1392.0273,86.45222 C 1392.0273,86.45222 1383.813,86.09508 1383.813,81.09508 C 1383.813,76.09508 1384.6166,9.84508 1384.2594,1.98794 C 1384.0973,-1.5798 1401.313,-8.54778 1401.313,-8.54778 L 1457.7416,-8.54778 z " />
      <rect
         id="rect3705"
         style="fill:url(#linearGradient3773);fill-opacity:1;fill-rule:nonzero;stroke:none;stroke-width:1.05200005;stroke-linecap:round;stroke-linejoin:miter;stroke-miterlimit:4;stroke-dasharray:none;stroke-dashoffset:0;stroke-opacity:0.48627451"
         y="-9.2620659"
         x="1399.7416"
         ry="8.4049931"
         height="72.142853"
         width="62.857147" />
      <rect
         id="rect3707"
         style="opacity:0.57430731;fill:url(#radialGradient3775);fill-opacity:1;fill-rule:nonzero;stroke:none;stroke-width:1.05200005;stroke-linecap:round;stroke-linejoin:miter;stroke-miterlimit:4;stroke-dasharray:none;stroke-dashoffset:0;stroke-opacity:0.48627451"
         y="-9.2620659"
         x="1399.7416"
         ry="8.4049931"
         height="72.142853"
         width="62.857147" />
    </g>
    <text
       xml:space="preserve"
       style="font-size:68.76712036px;font-style:normal;font-weight:bold;fill:#a3a3a3;fill-opacity:1;stroke:none;stroke-width:1px;stroke-linecap:butt;stroke-linejoin:miter;stroke-opacity:1;font-family:Linux Libertine"
       x="79.455902"
       y="257.04825"
       id="text3709"><tspan
         sodipodi:role="line"
         id="tspan3711"
         x="79.455902"
         y="257.04825">E</tspan></text>
    <path
       style="font-size:25.71306038px;font-style:normal;font-variant:normal;font-weight:bold;font-stretch:normal;text-align:center;line-height:100%;writing-mode:lr-tb;text-anchor:middle;fill:#cccccc;fill-opacity:1;stroke:none;stroke-width:1px;stroke-linecap:butt;stroke-linejoin:miter;stroke-opacity:1;display:inline;font-family:DejaVu LGC Sans"
       d="M 87.45469,200.88295 C 80.06431,200.41593 71.68744,208.53105 76.42344,215.75795 C 79.89274,217.93069 74.4256,219.14674 74.23594,222.07045 C 71.4838,229.52 78.9385,236.19989 86.07969,235.88295 C 92.15544,236.58939 98.28534,234.24307 102.45469,229.8517 C 99.88651,224.05351 96.71248,224.77485 92.42344,228.13295 C 89.50741,230.6304 85.09665,228.37722 85.98594,224.4142 C 85.57984,220.7438 89.45142,220.48635 92.04844,221.38295 C 96.01664,222.43756 99.87535,216.77843 95.36094,214.75795 C 92.5092,212.96137 86.24055,217.05293 86.76719,211.57045 C 86.10258,210.20606 87.9357,205.40843 89.23594,208.5392 C 90.92776,214.94032 102.97795,213.64546 101.14219,206.50795 C 98.96725,201.60604 92.16913,200.66694 87.45469,200.88295 z "
       id="path3713" />
    <path
       d="M 83.96392,224.88861 C 83.96391,226.6622 84.42947,228.15865 85.36061,229.37799 C 86.3139,230.57517 87.54432,231.17375 89.05189,231.17375 C 91.11366,231.17375 94.05117,229.84356 97.86439,227.18318 L 99.72666,229.61077 C 98.39644,230.85229 96.74479,231.89426 94.7717,232.73672 C 92.79857,233.557 90.65918,233.96714 88.35354,233.96714 C 86.33608,233.96714 84.55141,233.76761 82.99953,233.36856 C 81.4698,232.9695 80.25047,232.47069 79.34151,231.8721 C 78.45471,231.27351 77.72312,230.56408 77.1467,229.74379 C 76.59246,228.92351 76.21558,228.14757 76.01605,227.41596 C 75.81652,226.6622 75.71675,225.88626 75.71675,225.08814 C 75.71675,221.65182 77.92264,219.13556 82.33444,217.53931 C 80.49433,216.78556 79.15306,215.92094 78.31062,214.94544 C 77.46816,213.97 77.04694,212.7174 77.04694,211.18766 C 77.04694,210.56693 77.15779,209.924 77.37949,209.25889 C 77.60119,208.57165 78.00023,207.84005 78.57665,207.06407 C 79.15306,206.28816 79.8625,205.58982 80.70496,204.96903 C 81.56957,204.3483 82.70022,203.83839 84.09694,203.43931 C 85.5158,203.04029 87.08984,202.84076 88.8191,202.84072 C 91.76767,202.84076 94.26178,203.36175 96.30141,204.4037 C 98.34102,205.42353 99.36083,206.59853 99.36086,207.92869 C 99.36083,208.88202 98.95068,209.58038 98.13042,210.02375 C 97.31012,210.46716 96.43441,210.68886 95.50331,210.68884 C 94.32828,210.68886 93.45258,210.48933 92.87618,210.09026 C 92.29974,209.69122 91.81202,209.10372 91.41297,208.32775 C 91.05824,207.68486 90.77003,207.2082 90.54835,206.8978 C 90.3488,206.56529 90.04951,206.22165 89.65048,205.86691 C 89.25141,205.51222 88.84127,205.33486 88.42006,205.33482 C 87.51108,205.33486 86.66862,205.81151 85.89269,206.76479 C 85.1389,207.69594 84.76202,209.11481 84.76203,211.02139 C 84.76202,213.0832 85.09456,214.52423 85.75967,215.3445 C 86.44693,216.16481 87.37805,216.57495 88.55307,216.57492 L 89.1184,216.50842 C 90.71461,216.33108 91.69007,216.24239 92.04482,216.24238 C 94.30612,216.24239 95.43678,216.73014 95.43679,217.70559 C 95.43678,218.81409 94.28394,219.36833 91.97831,219.36832 C 91.62357,219.36833 91.00282,219.30183 90.11604,219.16879 C 89.14055,219.03579 88.60848,218.96927 88.51982,218.96926 C 87.10094,218.96927 85.98136,219.50136 85.16109,220.5655 C 84.36296,221.60748 83.96391,223.04852 83.96392,224.88861"
       style="font-size:25.71306038px;font-style:normal;font-variant:normal;font-weight:bold;font-stretch:normal;text-align:center;line-height:100%;writing-mode:lr-tb;text-anchor:middle;fill:#000000;fill-opacity:1;stroke:none;stroke-width:1px;stroke-linecap:butt;stroke-linejoin:miter;stroke-opacity:1;display:inline;font-family:DejaVu LGC Sans"
       id="path3715" />
    <path
       transform="matrix(8.5967192e-2,0.6180937,-1.5369979,0.1586608,575.40947,201.80497)"
       d="M 54.45649 290.85873 A 89.318825 48.094753 0 1 1  -124.18116,290.85873 A 89.318825 48.094753 0 1 1  54.45649 290.85873 z"
       sodipodi:ry="48.094753"
       sodipodi:rx="89.318825"
       sodipodi:cy="290.85873"
       sodipodi:cx="-34.862335"
       id="path3719"
       style="opacity:1;fill:url(#radialGradient3777);fill-opacity:1;stroke:none;stroke-width:6.54300022;stroke-linejoin:bevel;stroke-miterlimit:4;stroke-dasharray:none;stroke-dashoffset:0;stroke-opacity:1"
       sodipodi:type="arc" />
    <g
       id="g3723"
       transform="translate(-1278.5075,177.12646)"
       inkscape:tile-w="91.913605"
       inkscape:tile-h="96.428576"
       inkscape:tile-cx="789.25844"
       inkscape:tile-cy="-830.34582">
      <path
         d="M 1457.7416,-8.54778 C 1457.7416,-8.54778 1468.813,-3.90492 1471.313,-0.69063 C 1473.813,2.52365 1474.5273,73.23794 1473.0987,78.59508 C 1471.6702,83.95222 1466.6702,87.16651 1466.6702,87.16651 L 1392.0273,86.45222 C 1392.0273,86.45222 1383.813,86.09508 1383.813,81.09508 C 1383.813,76.09508 1381.4916,4.39865 1384.3487,2.2558 C 1387.2059,0.11294 1401.313,-8.54778 1401.313,-8.54778 L 1457.7416,-8.54778 z "
         style="fill:url(#radialGradient3845);fill-opacity:1;fill-rule:evenodd;stroke:none;stroke-width:1px;stroke-linecap:butt;stroke-linejoin:miter;stroke-opacity:1"
         id="path3725" />
      <path
         d="M 1457.7416,-8.54778 C 1457.7416,-8.54778 1468.813,-3.90492 1471.313,-0.69063 C 1473.813,2.52365 1474.5273,73.23794 1473.0987,78.59508 C 1471.6702,83.95222 1466.6702,87.16651 1466.6702,87.16651 L 1392.0273,86.45222 C 1392.0273,86.45222 1383.813,86.09508 1383.813,81.09508 C 1383.813,76.09508 1381.4916,4.48793 1384.3487,2.34508 C 1387.2059,0.20222 1401.313,-8.54778 1401.313,-8.54778 L 1457.7416,-8.54778 z "
         style="opacity:0.88161208;fill:url(#radialGradient3847);fill-opacity:1;fill-rule:evenodd;stroke:none;stroke-width:1px;stroke-linecap:butt;stroke-linejoin:miter;stroke-opacity:1"
         id="path3727" />
      <path
         d="M 1458.5743,-8.54778 C 1458.5743,-8.54778 1469.7678,-3.90492 1472.2954,-0.69063 C 1474.823,2.52365 1475.5452,73.23794 1474.1009,78.59508 C 1472.6565,83.95222 1467.6013,87.16651 1467.6013,87.16651 L 1392.1349,86.45222 C 1392.1349,86.45222 1383.83,86.09508 1383.83,81.09508 C 1383.83,76.09508 1381.4731,4.04151 1384.3618,1.89866 C 1387.2505,-0.2442 1401.5231,-8.54778 1401.5231,-8.54778 L 1458.5743,-8.54778 z "
         style="opacity:0.88161208;fill:url(#linearGradient3849);fill-opacity:1;fill-rule:evenodd;stroke:none;stroke-width:1px;stroke-linecap:butt;stroke-linejoin:miter;stroke-opacity:1"
         id="path3729" />
      <path
         d="M 1453.6542,-8.54778 C 1453.6542,-8.54778 1467.539,-3.90492 1470.6742,-0.69063 C 1473.8095,2.52365 1474.7053,73.23794 1472.9137,78.59508 C 1471.1221,83.95222 1464.8516,87.16651 1464.8516,87.16651 L 1396.3234,86.45222 C 1396.3234,86.45222 1386.0217,86.09508 1386.0217,81.09508 C 1386.0217,76.09508 1381.9907,3.95222 1385.5738,1.80937 C 1389.157,-0.33349 1407.9687,-8.54778 1407.9687,-8.54778 L 1453.6542,-8.54778 z "
         style="opacity:0.99924436;fill:url(#radialGradient3851);fill-opacity:1;fill-rule:evenodd;stroke:none;stroke-width:1px;stroke-linecap:butt;stroke-linejoin:miter;stroke-opacity:1"
         id="path3731" />
      <path
         d="M 1457.7416,-8.54778 C 1457.7416,-8.54778 1468.813,-3.90492 1471.313,-0.69063 C 1473.813,2.52365 1474.5273,73.23794 1473.0987,78.59508 C 1471.6702,83.95222 1466.6702,87.16651 1466.6702,87.16651 L 1392.0273,86.45222 C 1392.0273,86.45222 1383.813,86.09508 1383.813,81.09508 C 1383.813,76.09508 1384.6166,9.84508 1384.2594,1.98794 C 1384.0973,-1.5798 1401.313,-8.54778 1401.313,-8.54778 L 1457.7416,-8.54778 z "
         style="opacity:0.88161208;fill:url(#radialGradient3853);fill-opacity:1;fill-rule:evenodd;stroke:none;stroke-width:1px;stroke-linecap:butt;stroke-linejoin:miter;stroke-opacity:1"
         id="path3733" />
      <rect
         width="62.857147"
         height="72.142853"
         ry="8.4049931"
         x="1399.7416"
         y="-9.2620659"
         style="fill:url(#linearGradient3855);fill-opacity:1;fill-rule:nonzero;stroke:none;stroke-width:1.05200005;stroke-linecap:round;stroke-linejoin:miter;stroke-miterlimit:4;stroke-dasharray:none;stroke-dashoffset:0;stroke-opacity:0.48627451"
         id="rect3735" />
      <rect
         width="62.857147"
         height="72.142853"
         ry="8.4049931"
         x="1399.7416"
         y="-9.2620659"
         style="opacity:0.57430731;fill:url(#radialGradient3857);fill-opacity:1;fill-rule:nonzero;stroke:none;stroke-width:1.05200005;stroke-linecap:round;stroke-linejoin:miter;stroke-miterlimit:4;stroke-dasharray:none;stroke-dashoffset:0;stroke-opacity:0.48627451"
         id="rect3737" />
    </g>
    <text
       id="text3739"
       y="228.5533"
       x="125.9789"
       style="font-size:66.32151031px;font-style:normal;font-weight:bold;fill:#a3a3a3;fill-opacity:1;stroke:none;stroke-width:1px;stroke-linecap:butt;stroke-linejoin:miter;stroke-opacity:1;font-family:Linux Libertine"
       xml:space="preserve"
       transform="scale(1.0099799,0.9901187)"><tspan
         y="228.5533"
         x="125.9789"
         id="tspan3741"
         sodipodi:role="line">O</tspan></text>
    <path
       style="font-size:25.71306038px;font-style:normal;font-variant:normal;font-weight:bold;font-stretch:normal;text-align:center;line-height:100%;writing-mode:lr-tb;text-anchor:middle;fill:#cccccc;fill-opacity:1;stroke:none;stroke-width:1px;stroke-linecap:butt;stroke-linejoin:miter;stroke-opacity:1;display:inline;font-family:DejaVu LGC Sans"
       d="M 142.47712,200.5439 C 129.40644,200.04249 121.92081,216.39653 128.19587,226.95015 C 134.09025,239.03111 154.11357,238.33986 159.00837,225.76265 C 164.32153,215.46287 157.2251,200.68373 145.10212,200.57515 C 144.22724,200.55274 143.35235,200.4637 142.47712,200.5439 z M 142.85212,207.2939 C 148.74676,208.56952 148.39189,216.93491 148.47712,221.6689 C 149.7236,226.67437 143.32523,231.97126 140.50837,225.8564 C 137.93175,220.34033 136.54007,211.02557 142.35212,207.32515 C 142.52051,207.34237 142.68373,207.27668 142.85212,207.2939 z "
       id="path3743" />
    <path
       d="M 142.73421,205.28408 C 141.35967,205.28411 140.17358,205.89378 139.17595,207.11308 C 138.17829,208.31028 137.45778,209.78458 137.01439,211.53596 C 136.57099,213.2874 136.3493,215.17183 136.3493,217.18926 C 136.3493,218.54164 136.51557,219.97159 136.84812,221.47913 C 137.18066,222.98668 137.65731,224.44989 138.27807,225.86875 C 138.89881,227.26545 139.75235,228.42937 140.83869,229.3605 C 141.925,230.26946 143.13324,230.72395 144.46346,230.72393 C 145.1507,230.72395 145.81579,230.57984 146.45874,230.29163 C 147.10164,229.98125 147.74457,229.48243 148.38751,228.79516 C 149.03041,228.08574 149.54032,226.99942 149.91723,225.5362 C 150.31626,224.073 150.51579,222.32159 150.51582,220.28195 C 150.51579,215.51546 149.80636,211.8242 148.38751,209.20814 C 146.99079,206.59212 145.10636,205.28411 142.73421,205.28408 M 128.03563,218.75224 C 128.03563,213.94141 129.38798,210.03953 132.0927,207.04658 C 134.81958,204.03151 138.59953,202.52397 143.43256,202.52393 C 145.56084,202.52397 147.5007,202.84543 149.25213,203.48832 C 151.00352,204.10911 152.45565,204.92939 153.60849,205.94918 C 154.7613,206.96901 155.72569,208.16618 156.50166,209.54068 C 157.29975,210.91523 157.86508,212.32301 158.19766,213.76403 C 158.55234,215.18291 158.7297,216.63504 158.72973,218.1204 C 158.7297,219.53928 158.53017,220.95814 158.13114,222.377 C 157.75422,223.79588 157.14456,225.19257 156.30213,226.5671 C 155.48182,227.91947 154.48417,229.12771 153.30921,230.19186 C 152.13418,231.23384 150.68206,232.0763 148.95284,232.71923 C 147.24575,233.33998 145.37239,233.65035 143.3328,233.65035 C 140.93843,233.65035 138.74362,233.20695 136.74836,232.32017 C 134.75306,231.43337 133.13468,230.26946 131.89317,228.82842 C 130.67383,227.38738 129.72053,225.80224 129.03327,224.073 C 128.36817,222.32159 128.03563,220.548 128.03563,218.75224"
       style="font-size:25.71306038px;font-style:normal;font-variant:normal;font-weight:bold;font-stretch:normal;text-align:center;line-height:100%;writing-mode:lr-tb;text-anchor:middle;fill:#000000;fill-opacity:1;stroke:none;stroke-width:1px;stroke-linecap:butt;stroke-linejoin:miter;stroke-opacity:1;display:inline;font-family:DejaVu LGC Sans"
       id="path3745" />
    <path
       sodipodi:nodetypes="cssssccssc"
       id="path2621"
       d="M 532.62637,209.59404 C 538.92924,210.84272 543.51315,211.46713 544.08614,217.71072 C 544.65913,223.95432 542.36717,243.93391 535.49131,246.43134 C 528.61545,248.92876 512.57177,252.05059 503.40395,252.05059 C 494.23613,252.05059 475.64809,249.5531 471.63716,250.80185 C 467.62624,252.05059 440.12279,252.05059 440.12279,252.05059 L 437.25785,205.22347 C 437.25785,205.22347 462.46934,207.09662 468.77222,206.47227 C 475.0751,205.84787 485.6413,205.22347 491.37119,206.47227 C 497.10107,207.72096 526.32349,207.72096 532.62637,209.59404 z "
       style="fill:none;fill-rule:evenodd;stroke:#000000;stroke-width:0.5876177px;stroke-linecap:butt;stroke-linejoin:miter;stroke-opacity:1" />
    <path
       id="path2623"
       d="M 492.27213,207.7323 C 492.27213,207.7323 520.97712,208.35633 525.96929,207.10833 C 530.96146,205.86026 540.32178,205.23622 540.32178,205.23622 C 540.32178,205.23622 545.31395,219.58871 538.44972,222.70882 C 531.58548,225.82894 493.52018,226.45297 494.76822,223.33286 C 496.01626,220.21275 493.52018,208.35633 492.27213,207.7323 z "
       style="fill:#ffffff;fill-rule:evenodd;stroke:#000000;stroke-width:0.61306083px;stroke-linecap:butt;stroke-linejoin:miter;stroke-opacity:1" />
    <path
       id="path2625"
       d="M 478.54367,276.99867 L 487.27997,257.65403 C 487.27997,257.65403 487.27996,258.9021 498.51235,258.9021 C 509.74474,258.9021 532.2095,255.15795 534.70559,253.90988 C 537.20168,252.66187 549.05808,273.87862 549.05808,273.87862 L 478.54367,276.99867 z "
       style="fill:none;fill-rule:evenodd;stroke:#000000;stroke-width:0.61306083px;stroke-linecap:butt;stroke-linejoin:miter;stroke-opacity:1" />
    <text
       id="text2627"
       y="265.59128"
       x="556.6604"
       style="font-size:72.81829071px;font-style:normal;font-weight:bold;fill:none;fill-opacity:1;stroke:#000000;stroke-width:0.61306083px;stroke-linecap:butt;stroke-linejoin:miter;stroke-opacity:1;font-family:Linux Libertine O"
       xml:space="preserve"><tspan
         style="stroke-width:0.61306083"
         y="265.59128"
         x="556.6604"
         id="tspan2629"
         sodipodi:role="line">neo</tspan></text>
    <path
       style="fill:none;fill-rule:evenodd;stroke:#000000;stroke-width:1px;stroke-linecap:butt;stroke-linejoin:miter;stroke-opacity:1"
       d="M 313.87136,61.347981 L 313.87136,379.91941"
       id="path2864" />
  </g>
</svg>
