<?xml version="1.0" encoding="UTF-8" standalone="no"?>
<svg
   xmlns:dc="http://purl.org/dc/elements/1.1/"
   xmlns:cc="http://creativecommons.org/ns#"
   xmlns:rdf="http://www.w3.org/1999/02/22-rdf-syntax-ns#"
   xmlns:svg="http://www.w3.org/2000/svg"
   xmlns="http://www.w3.org/2000/svg"
   xmlns:sodipodi="http://sodipodi.sourceforge.net/DTD/sodipodi-0.dtd"
   xmlns:inkscape="http://www.inkscape.org/namespaces/inkscape"
   width="85.138481mm"
   height="18.809147mm"
   viewBox="0 0 85.138481 18.809147"
   version="1.1"
   id="svg238"
   inkscape:version="1.0.1 (3bc2e813f5, 2020-09-07, custom)"
   sodipodi:docname="Neoqwertz-Logo-Schriftzug.svg">
  <defs
     id="defs232">
    <inkscape:path-effect
       effect="bspline"
       id="path-effect1275"
       is_visible="true"
       lpeversion="1"
       weight="33.333333"
       steps="2"
       helper_size="0"
       apply_no_weight="true"
       apply_with_weight="true"
       only_selected="false" />
  </defs>
  <sodipodi:namedview
     id="base"
     pagecolor="#ffffff"
     bordercolor="#666666"
     borderopacity="1.0"
     inkscape:pageopacity="0.0"
     inkscape:pageshadow="2"
     inkscape:zoom="2.8"
     inkscape:cx="190.08567"
     inkscape:cy="-37.288412"
     inkscape:document-units="mm"
     inkscape:current-layer="layer1"
     inkscape:document-rotation="0"
     showgrid="true"
     inkscape:snap-global="false"
     fit-margin-top="0"
     fit-margin-left="0"
     fit-margin-right="0"
     fit-margin-bottom="0"
     inkscape:window-width="1920"
     inkscape:window-height="1052"
     inkscape:window-x="0"
     inkscape:window-y="0"
     inkscape:window-maximized="1">
    <inkscape:grid
       type="xygrid"
       id="grid1161"
       originx="-40.063372"
       originy="-98.121218" />
  </sodipodi:namedview>
  <metadata
     id="metadata235">
    <rdf:RDF>
      <cc:Work
         rdf:about="">
        <dc:format>image/svg+xml</dc:format>
        <dc:type
           rdf:resource="http://purl.org/dc/dcmitype/StillImage" />
        <dc:title />
      </cc:Work>
    </rdf:RDF>
  </metadata>
  <g
     inkscape:label="Layer 1"
     inkscape:groupmode="layer"
     id="layer1"
     transform="translate(-40.063372,-98.12122)">
    <path
       style="font-style:normal;font-weight:normal;font-size:143.387px;font-family:'Linux Libertine';display:inline;fill:#000000;fill-opacity:1;stroke:none;stroke-width:0.264583px;stroke-linecap:butt;stroke-linejoin:miter;stroke-opacity:1"
       d="m 63.294476,102.1472 c -1.712966,0 -2.897542,0.59964 -3.801809,1.61362 0.435584,0.2335 1.054965,0.61404 1.58918,0.89241 0.56855,-0.5058 1.183384,-0.9413 2.212629,-0.9413 1.0366,0 1.940004,0.36826 2.46934,1.1002 0.529315,0.73194 0.916831,1.81469 0.916831,3.2517 0,1.43033 -0.143028,2.51308 -0.67234,3.25171 -0.529339,0.73198 -1.310497,1.1002 -2.347098,1.1002 -4.23345,-0.31643 -4.050305,-6.13472 -6.148903,-8.78937 -0.837629,-0.97369 -1.977779,-1.45465 -3.435075,-1.45473 -1.634373,4e-5 -2.943435,0.53925 -3.924051,1.61363 l 1.601404,0.84351 c 0.585647,-0.59092 1.331359,-0.88016 2.237076,-0.88016 0.926142,0 1.636736,0.28494 2.127056,0.85571 1.574171,2.05547 2.155084,6.17693 3.557318,7.57917 0.9472,0.94721 1.696588,1.62724 3.068341,1.77253 0.0029,7.9e-4 0.0093,-8e-4 0.01222,0 0.238911,0.0609 1.054989,0.0853 1.210223,0.0367 1.716651,0 2.432989,-0.50854 3.337274,-1.51584 0.90425,-1.01398 1.22243,-2.48581 1.222446,-4.41305 -1.2e-5,-1.92051 -0.567546,-3.38682 -1.479157,-4.4008 -0.904269,-1.01395 -2.039943,-1.51583 -3.752905,-1.51583 z m -18.586079,0.12075 c -1.426886,0.0137 -2.538291,0.62746 -3.471782,1.63495 -0.894118,0.96501 -1.259162,2.31858 -1.156391,4.19763 0.02113,0.39036 0,3.8986 0,5.65846 0.504059,0 1.163499,0 1.58918,0 0.01137,-1.84705 -0.02445,-1.95647 -0.02445,-5.65846 -4e-6,-1.43032 0.215851,-2.61259 1.014631,-3.32506 0.676542,-0.60347 1.297185,-0.94044 2.400446,-0.88258 1.108095,0.0582 2.121854,0.81268 2.593592,1.80601 0.663294,1.39668 0.201233,4.68023 1.986129,6.65574 1.001044,1.04755 2.929039,1.66253 4.706417,1.66253 0.619699,-4e-5 1.258681,-0.0723 1.91924,-0.22004 0.667358,-0.14103 0.825232,-0.2369 1.540282,-0.52567 l -1.58918,-0.84347 c -0.242435,0.006 -1.648918,0.13996 -1.638078,0.11 -2.238656,0.1562 -3.428994,-0.82614 -3.924051,-1.46694 -0.226155,-0.29272 -0.437389,-0.61404 -0.635671,-1.198 -0.07688,-0.31251 -0.147136,-0.63488 -0.195592,-0.97795 -0.124826,-0.88372 -0.184212,-1.83649 -0.342285,-2.73828 -0.158061,-0.90176 -0.592243,-1.64684 -1.133213,-2.29707 -0.821308,-0.98711 -2.181928,-1.59176 -3.639224,-1.5918 z m 6.104903,5.06242 c 0.04578,0.48455 0.0056,0.97021 0.305612,1.45473 h 4.730866 l 0.90461,-0.73347 -1.197996,-0.72126 z"
       id="path44662"
       sodipodi:nodetypes="cccssscccsccscsssccscccssccsszscsccccscsssccccccc" />
    <g
       id="g1971"
       style="fill:#000000;fill-opacity:1;stroke:none;stroke-width:0.2;stroke-miterlimit:4;stroke-dasharray:none;stroke-opacity:1"
       transform="matrix(1.3078354,0,0,1.2764336,50.58132,57.074084)">
      <path
         style="font-style:normal;font-weight:normal;font-size:143.387px;font-family:'Linux Libertine';display:inline;opacity:1;fill:#000000;fill-opacity:1;stroke:none;stroke-width:0.2;stroke-linecap:butt;stroke-linejoin:miter;stroke-miterlimit:4;stroke-dasharray:none;stroke-opacity:1"
         d="m 15.05091,36.361271 c 0.65727,-0.789981 2.021656,-1.153201 3.086472,-1.128667 1.064816,0.02453 2.343023,0.581045 3.090083,1.387324 0.715551,0.772284 1.242414,1.692936 1.178662,3.197613 0.01146,1.318793 -0.02837,6.601919 -0.02837,6.601919 l -0.613034,0.473918 -0.579028,-0.51381 c -0.02463,-4.338591 -0.01506,-5.009656 -0.01042,-6.582227 0,-1.144668 -0.164788,-1.809216 -0.804043,-2.379396 -0.541427,-0.482949 -1.361034,-0.977961 -2.243957,-0.931658 -0.886795,0.04658 -1.837815,0.151548 -2.375053,1.066149 -0.302412,0.51483 -0.571213,1.262976 -0.453071,2.56905 0.118142,1.306074 0.362371,1.983076 1.357646,2.532218 1.002121,0.552919 1.220113,0.455133 2.303767,0.505502 0.375631,0.299022 0.282481,0.267372 0.633481,0.548802 -0.228758,0.239338 -0.407285,0.45578 -0.58732,0.631804 -0.765384,-0.02349 -1.447448,0.08484 -2.164458,-0.182569 -0.721105,-0.268932 -1.367528,-0.765033 -1.839089,-1.388643 -0.60804,-0.804096 -0.698142,-1.155765 -0.84596,-2.624789 -0.08235,-0.818377 -0.09111,-1.152016 0.101424,-2.07622 0.149782,-0.719 0.359378,-1.185965 0.792321,-1.706324 z"
         id="path44662-5-6-0"
         sodipodi:nodetypes="scsccccczsszscccssssss" />
    </g>
    <path
       style="color:#000000;font-style:normal;font-variant:normal;font-weight:normal;font-stretch:normal;font-size:medium;line-height:normal;font-family:sans-serif;font-variant-ligatures:normal;font-variant-position:normal;font-variant-caps:normal;font-variant-numeric:normal;font-variant-alternates:normal;font-variant-east-asian:normal;font-feature-settings:normal;font-variation-settings:normal;text-indent:0;text-align:start;text-decoration:none;text-decoration-line:none;text-decoration-style:solid;text-decoration-color:#000000;letter-spacing:normal;word-spacing:normal;text-transform:none;writing-mode:lr-tb;direction:ltr;text-orientation:mixed;dominant-baseline:auto;baseline-shift:baseline;text-anchor:start;white-space:normal;shape-padding:0;shape-margin:0;inline-size:0;clip-rule:nonzero;display:inline;overflow:visible;visibility:visible;opacity:1;isolation:auto;mix-blend-mode:normal;color-interpolation:sRGB;color-interpolation-filters:linearRGB;solid-color:#000000;solid-opacity:1;vector-effect:none;fill:#000000;fill-opacity:1;fill-rule:nonzero;stroke:none;stroke-width:0.1;stroke-linecap:butt;stroke-linejoin:miter;stroke-miterlimit:4;stroke-dasharray:none;stroke-dashoffset:0;stroke-opacity:1;color-rendering:auto;image-rendering:auto;shape-rendering:auto;text-rendering:auto;enable-background:accumulate;stop-color:#000000;stop-opacity:1"
       d="m 101.11321,103.40212 c -0.90571,0 -1.611677,0.19758 -2.27943,0.69385 -0.624949,0.46445 -1.482813,1.19292 -1.491413,2.23028 l -0.02321,2.7987 c 0.08643,1.33168 -0.381419,2.52989 -1.22461,3.35352 -0.843191,0.82362 -2.033734,1.27329 -3.33789,1.27929 l -0.0078,-1.59179 c 0.946663,-0.005 1.716442,-0.32217 2.232422,-0.82618 0.51598,-0.504 0.807637,-1.1932 0.748047,-2.11132 v -0.0273 l 0.02741,-2.89089 h 3e-5 c 0.01133,-1.19465 0.972071,-2.26681 1.517991,-2.87151 1.110826,-1.00619 2.289679,-1.61359 3.924063,-1.61363 0,0 0.90835,0.0796 1.36253,0.1194 0.90968,0.0797 1.83415,0.61411 2.65339,1.30209 0.81923,0.68798 1.36152,1.75284 1.4082,3.05469 v 0.0137 7.34767 h -1.56445 v -7.3047 c -0.0331,-0.92379 -0.35641,-1.49629 -0.85157,-1.91211 -0.49515,-0.41582 -1.03571,-0.78519 -1.70532,-0.97266 -0.39929,-0.11178 -1.38839,-0.0711 -1.38839,-0.0711 z"
       id="path1241"
       sodipodi:nodetypes="csscsccsccssccsscccccssc" />
    <path
       style="color:#000000;font-style:normal;font-variant:normal;font-weight:normal;font-stretch:normal;font-size:medium;line-height:normal;font-family:sans-serif;font-variant-ligatures:normal;font-variant-position:normal;font-variant-caps:normal;font-variant-numeric:normal;font-variant-alternates:normal;font-variant-east-asian:normal;font-feature-settings:normal;font-variation-settings:normal;text-indent:0;text-align:start;text-decoration:none;text-decoration-line:none;text-decoration-style:solid;text-decoration-color:#000000;letter-spacing:normal;word-spacing:normal;text-transform:none;writing-mode:lr-tb;direction:ltr;text-orientation:mixed;dominant-baseline:auto;baseline-shift:baseline;text-anchor:start;white-space:normal;shape-padding:0;shape-margin:0;inline-size:0;clip-rule:nonzero;display:inline;overflow:visible;visibility:visible;opacity:1;isolation:auto;mix-blend-mode:normal;color-interpolation:sRGB;color-interpolation-filters:linearRGB;solid-color:#000000;solid-opacity:1;vector-effect:none;fill:#000000;fill-opacity:1;fill-rule:nonzero;stroke:none;stroke-width:1.59151;stroke-linecap:butt;stroke-linejoin:miter;stroke-miterlimit:4;stroke-dasharray:none;stroke-dashoffset:0;stroke-opacity:1;color-rendering:auto;image-rendering:auto;shape-rendering:auto;text-rendering:auto;enable-background:accumulate;stop-color:#000000;stop-opacity:1"
       d="m 88.186361,102.24414 v 6.93164 l 0.002,-0.0508 c -0.08643,1.33168 0.381418,2.52989 1.22461,3.35352 0.843191,0.82362 2.031781,1.27297 3.335937,1.27929 l 0.0078,-1.59179 c -0.946663,-0.005 -1.71449,-0.32217 -2.230469,-0.82618 -0.51598,-0.504 -0.809592,-1.1932 -0.75,-2.11132 l 0.002,-0.0273 v -6.95703 z"
       id="path1245" />
    <path
       style="color:#000000;font-style:normal;font-variant:normal;font-weight:normal;font-stretch:normal;font-size:medium;line-height:normal;font-family:sans-serif;font-variant-ligatures:normal;font-variant-position:normal;font-variant-caps:normal;font-variant-numeric:normal;font-variant-alternates:normal;font-variant-east-asian:normal;font-feature-settings:normal;font-variation-settings:normal;text-indent:0;text-align:start;text-decoration:none;text-decoration-line:none;text-decoration-style:solid;text-decoration-color:#000000;letter-spacing:normal;word-spacing:normal;text-transform:none;writing-mode:lr-tb;direction:ltr;text-orientation:mixed;dominant-baseline:auto;baseline-shift:baseline;text-anchor:start;white-space:normal;shape-padding:0;shape-margin:0;inline-size:0;clip-rule:nonzero;display:inline;overflow:visible;visibility:visible;opacity:1;isolation:auto;mix-blend-mode:normal;color-interpolation:sRGB;color-interpolation-filters:linearRGB;solid-color:#000000;solid-opacity:1;vector-effect:none;fill:#000000;fill-opacity:1;fill-rule:nonzero;stroke:none;stroke-width:1.59151;stroke-linecap:butt;stroke-linejoin:miter;stroke-miterlimit:4;stroke-dasharray:none;stroke-dashoffset:0;stroke-opacity:1;color-rendering:auto;image-rendering:auto;shape-rendering:auto;text-rendering:auto;enable-background:accumulate;stop-color:#000000;stop-opacity:1"
       d="m 88.172689,102.24414 v 6.95703 l 0.002,0.0273 c 0.05959,0.91812 -0.232067,1.60732 -0.748047,2.11132 -0.515979,0.50401 -1.285759,0.82158 -2.232421,0.82618 l 0.0078,1.59179 c 1.304156,-0.006 2.492746,-0.45567 3.335938,-1.27929 0.843191,-0.82363 1.311043,-2.02184 1.224609,-3.35352 l 0.002,0.0508 v -6.93164 z"
       id="path1249" />
    <path
       style="color:#000000;font-style:normal;font-variant:normal;font-weight:normal;font-stretch:normal;font-size:medium;line-height:normal;font-family:sans-serif;font-variant-ligatures:normal;font-variant-position:normal;font-variant-caps:normal;font-variant-numeric:normal;font-variant-alternates:normal;font-variant-east-asian:normal;font-feature-settings:normal;font-variation-settings:normal;text-indent:0;text-align:start;text-decoration:none;text-decoration-line:none;text-decoration-style:solid;text-decoration-color:#000000;letter-spacing:normal;word-spacing:normal;text-transform:none;writing-mode:lr-tb;direction:ltr;text-orientation:mixed;dominant-baseline:auto;baseline-shift:baseline;text-anchor:start;white-space:normal;shape-padding:0;shape-margin:0;inline-size:0;clip-rule:nonzero;display:inline;overflow:visible;visibility:visible;opacity:1;isolation:auto;mix-blend-mode:normal;color-interpolation:sRGB;color-interpolation-filters:linearRGB;solid-color:#000000;solid-opacity:1;vector-effect:none;fill:#000000;fill-opacity:1;fill-rule:nonzero;stroke:none;stroke-width:5.192;stroke-linecap:butt;stroke-linejoin:miter;stroke-miterlimit:4;stroke-dasharray:none;stroke-dashoffset:0;stroke-opacity:1;color-rendering:auto;image-rendering:auto;shape-rendering:auto;text-rendering:auto;enable-background:accumulate;stop-color:#000000;stop-opacity:1"
       d="m 80.631674,102.24414 v 6.93164 l 0.002,-0.0508 c -0.08643,1.33168 0.381418,2.52989 1.224609,3.35352 0.843191,0.82362 2.031781,1.27297 3.335938,1.27929 l 0.0078,-1.59179 c -0.946663,-0.005 -1.716442,-0.32217 -2.232422,-0.82618 -0.515979,-0.504 -0.807639,-1.1932 -0.748047,-2.11132 l 0.002,-0.0273 v -6.95703 z"
       id="path1253" />
    <path
       style="font-style:normal;font-weight:normal;font-size:143.387px;font-family:'Linux Libertine';display:inline;fill:#000000;fill-opacity:1;stroke:none;stroke-width:0.264583px;stroke-linecap:butt;stroke-linejoin:miter;stroke-opacity:1"
       d="m 100.11836,112.14752 -0.084,1.58736 c 0,0 2.15014,-0.10571 2.8107,-0.25345 0.66736,-0.14103 0.82524,-0.2369 1.54029,-0.52567 l -1.58918,-0.84347 c -0.24244,0.006 -2.67786,0.0352 -2.67786,0.0352 z m -2.183513,-5.16365 c 0.0458,0.48455 0.006,0.97021 0.30561,1.45473 h 4.730873 l 0.90461,-0.73347 -1.19799,-0.72126 z"
       id="path44662-6-5"
       sodipodi:nodetypes="ccccccccccccc" />
    <path
       style="color:#000000;font-style:normal;font-variant:normal;font-weight:normal;font-stretch:normal;font-size:medium;line-height:normal;font-family:sans-serif;font-variant-ligatures:normal;font-variant-position:normal;font-variant-caps:normal;font-variant-numeric:normal;font-variant-alternates:normal;font-variant-east-asian:normal;font-feature-settings:normal;font-variation-settings:normal;text-indent:0;text-align:start;text-decoration:none;text-decoration-line:none;text-decoration-style:solid;text-decoration-color:#000000;letter-spacing:normal;word-spacing:normal;text-transform:none;writing-mode:lr-tb;direction:ltr;text-orientation:mixed;dominant-baseline:auto;baseline-shift:baseline;text-anchor:start;white-space:normal;shape-padding:0;shape-margin:0;inline-size:0;clip-rule:nonzero;display:inline;overflow:visible;visibility:visible;opacity:1;isolation:auto;mix-blend-mode:normal;color-interpolation:sRGB;color-interpolation-filters:linearRGB;solid-color:#000000;solid-opacity:1;vector-effect:none;fill:#000000;fill-opacity:1;fill-rule:nonzero;stroke:none;stroke-width:1.59151;stroke-linecap:butt;stroke-linejoin:miter;stroke-miterlimit:4;stroke-dasharray:none;stroke-dashoffset:0;stroke-opacity:1;color-rendering:auto;image-rendering:auto;shape-rendering:auto;text-rendering:auto;enable-background:accumulate;stop-color:#000000;stop-opacity:1"
       d="m 95.784017,109.15234 0.002,-0.0508 c -0.08643,1.33168 0.381418,2.52989 1.224609,3.35352 0.843191,0.82363 2.031781,1.27297 3.335934,1.2793 l 0.008,-1.5918 c -0.946666,-0.005 -1.716447,-0.32217 -2.232426,-0.82617 -0.515979,-0.50401 -0.865383,-1.20924 -0.805791,-2.12736 z"
       id="path1257"
       sodipodi:nodetypes="ccsccscc" />
    <path
       style="color:#000000;font-style:normal;font-variant:normal;font-weight:normal;font-stretch:normal;font-size:medium;line-height:normal;font-family:sans-serif;font-variant-ligatures:normal;font-variant-position:normal;font-variant-caps:normal;font-variant-numeric:normal;font-variant-alternates:normal;font-variant-east-asian:normal;font-feature-settings:normal;font-variation-settings:normal;text-indent:0;text-align:start;text-decoration:none;text-decoration-line:none;text-decoration-style:solid;text-decoration-color:#000000;letter-spacing:normal;word-spacing:normal;text-transform:none;writing-mode:lr-tb;direction:ltr;text-orientation:mixed;dominant-baseline:auto;baseline-shift:baseline;text-anchor:start;white-space:normal;shape-padding:0;shape-margin:0;inline-size:0;clip-rule:nonzero;display:inline;overflow:visible;visibility:visible;opacity:1;isolation:auto;mix-blend-mode:normal;color-interpolation:sRGB;color-interpolation-filters:linearRGB;solid-color:#000000;solid-opacity:1;vector-effect:none;fill:#000000;fill-opacity:1;fill-rule:nonzero;stroke:none;stroke-width:1.565;stroke-linecap:butt;stroke-linejoin:miter;stroke-miterlimit:4;stroke-dasharray:none;stroke-dashoffset:0;stroke-opacity:1;color-rendering:auto;image-rendering:auto;shape-rendering:auto;text-rendering:auto;enable-background:accumulate;stop-color:#000000;stop-opacity:1"
       d="m 109.43867,102.20824 c -1.06947,0.053 -2.12022,0.37843 -2.93946,1.06641 -0.81923,0.68798 -1.36152,1.75284 -1.4082,3.05469 v 0.0137 7.34766 h 1.56445 v -7.30469 c 0.0331,-0.92379 0.35641,-1.49629 0.85157,-1.91211 0.49515,-0.41582 1.20688,-0.66145 2.00781,-0.70117 h 12.08748 l -1.0817,-1.56449 h -11.06428 z"
       id="path1311"
       sodipodi:nodetypes="cscccccsccccc" />
    <path
       style="color:#000000;font-style:normal;font-variant:normal;font-weight:normal;font-stretch:normal;font-size:medium;line-height:normal;font-family:sans-serif;font-variant-ligatures:normal;font-variant-position:normal;font-variant-caps:normal;font-variant-numeric:normal;font-variant-alternates:normal;font-variant-east-asian:normal;font-feature-settings:normal;font-variation-settings:normal;text-indent:0;text-align:start;text-decoration:none;text-decoration-line:none;text-decoration-style:solid;text-decoration-color:#000000;letter-spacing:normal;word-spacing:normal;text-transform:none;writing-mode:lr-tb;direction:ltr;text-orientation:mixed;dominant-baseline:auto;baseline-shift:baseline;text-anchor:start;white-space:normal;shape-padding:0;shape-margin:0;inline-size:0;clip-rule:nonzero;display:inline;overflow:visible;visibility:visible;opacity:1;isolation:auto;mix-blend-mode:normal;color-interpolation:sRGB;color-interpolation-filters:linearRGB;solid-color:#000000;solid-opacity:1;vector-effect:none;fill:#000000;fill-opacity:1;fill-rule:nonzero;stroke:none;stroke-width:1.565;stroke-linecap:butt;stroke-linejoin:miter;stroke-miterlimit:4;stroke-dasharray:none;stroke-dashoffset:0;stroke-opacity:1;color-rendering:auto;image-rendering:auto;shape-rendering:auto;text-rendering:auto;enable-background:accumulate;stop-color:#000000;stop-opacity:1"
       d="m 110.91132,98.960194 v 3.292976 7.34765 0.0137 c 0.0467,1.30186 0.59092,2.36672 1.41016,3.05469 0.81924,0.68798 2.04083,1.04114 3.11029,1.0942 l 1.15172,-0.76136 -1.24641,-0.83089 c -0.80093,-0.0397 -1.51461,-0.28535 -2.00976,-0.70117 -0.49516,-0.41582 -0.81844,-0.98832 -0.85156,-1.91211 l 0.002,-7.30468 v -3.292976 l -0.81458,-0.839004 z"
       id="path1315"
       sodipodi:nodetypes="ccccscccsccccc" />
    <path
       style="color:#000000;font-style:normal;font-variant:normal;font-weight:normal;font-stretch:normal;font-size:medium;line-height:normal;font-family:sans-serif;font-variant-ligatures:normal;font-variant-position:normal;font-variant-caps:normal;font-variant-numeric:normal;font-variant-alternates:normal;font-variant-east-asian:normal;font-feature-settings:normal;font-variation-settings:normal;text-indent:0;text-align:start;text-decoration:none;text-decoration-line:none;text-decoration-style:solid;text-decoration-color:#000000;letter-spacing:normal;word-spacing:normal;text-transform:none;writing-mode:lr-tb;direction:ltr;text-orientation:mixed;dominant-baseline:auto;baseline-shift:baseline;text-anchor:start;white-space:normal;shape-padding:0;shape-margin:0;inline-size:0;clip-rule:nonzero;display:inline;overflow:visible;visibility:visible;opacity:1;isolation:auto;mix-blend-mode:normal;color-interpolation:sRGB;color-interpolation-filters:linearRGB;solid-color:#000000;solid-opacity:1;vector-effect:none;fill:#000000;fill-opacity:1;fill-rule:nonzero;stroke:none;stroke-width:1.565;stroke-linecap:square;stroke-linejoin:miter;stroke-miterlimit:13.9;stroke-dasharray:none;stroke-dashoffset:0;stroke-opacity:1;paint-order:markers stroke fill;color-rendering:auto;image-rendering:auto;shape-rendering:auto;text-rendering:auto;enable-background:accumulate;stop-color:#000000;stop-opacity:1"
       d="m 117.54883,102.21875 -0.78321,0.0156 0.0313,1.56445 0.78124,-0.0156 c 0,0 2.75073,-0.0512 4.28711,0.043 1.22553,0.0752 1.53105,0.49723 1.65235,0.94336 0.12129,0.44613 -0.0854,1.0706 -0.39453,1.35938 -1.18705,1.109 -2.59564,1.83228 -3.72852,2.57226 -0.56644,0.36999 -1.07734,0.74102 -1.44531,1.26953 -0.36797,0.52852 -0.51295,1.27755 -0.2832,1.97266 0.21232,0.6424 0.64568,1.16258 1.17968,1.42383 0.534,0.26124 1.09182,0.30851 1.68555,0.33203 1.1676,0.0462 3.20898,0.0156 3.20898,0.0156 l 0.32619,-0.025 1.07095,-0.80193 -0.96202,-0.74921 -0.45656,0.0117 c 0,0 -2.0606,0.0265 -3.125,-0.0156 -0.52227,-0.0207 -0.87915,-0.0851 -1.06055,-0.17383 -0.1814,-0.0887 -0.26494,-0.15711 -0.38086,-0.50782 -0.0985,-0.29799 -0.0725,-0.36878 0.0801,-0.58789 0.15255,-0.2191 0.51151,-0.52296 1.01758,-0.85351 1.01214,-0.66111 2.5561,-1.44406 3.94141,-2.73828 0.76477,-0.7145 1.13347,-1.82884 0.83789,-2.91602 -0.29559,-1.08718 -1.39837,-1.99133 -3.06836,-2.09375 -1.67984,-0.103 -4.41211,-0.0449 -4.41211,-0.0449 z"
       id="path862"
       sodipodi:nodetypes="cccccscssssscccccsssssssccc" />
  </g>
</svg>
