<?xml version="1.0" encoding="UTF-8" standalone="no"?>
<!-- Created with Inkscape (http://www.inkscape.org/) -->
<svg
   xmlns:svg="http://www.w3.org/2000/svg"
   xmlns="http://www.w3.org/2000/svg"
   version="1.0"
   width="155.50818"
   height="96.189507"
   id="svg3179">
  <defs
     id="defs3181" />
  <g
     transform="translate(-247.9602,-201.41029)"
     id="layer1">
    <path
       d="M 263.92981,213.02449 L 301.44226,213.02449 C 306.63814,213.02449 310.82111,217.20746 310.82111,222.40334 L 310.82111,268.45504 C 310.82111,273.65092 306.63814,277.83389 301.44226,277.83389 L 263.92981,277.83389 C 258.73393,277.83389 254.55096,273.65092 254.55096,268.45504 L 254.55096,222.40334 C 254.55096,217.20746 258.73393,213.02449 263.92981,213.02449 z "
       style="fill:#8dc937;fill-opacity:1;fill-rule:nonzero;stroke:#32b230;stroke-width:1.24239898;stroke-linejoin:round;stroke-miterlimit:0;stroke-dashoffset:0.52015748;stroke-opacity:1;display:inline"
       id="rect2906" />
    <path
       d="M 312.4664,232.75182 L 349.97885,232.75182 C 355.17473,232.75182 359.3577,236.93478 359.3577,242.13066 L 359.3577,287.59975 C 359.3577,292.79563 355.17473,296.97859 349.97885,296.97859 L 312.4664,296.97859 C 307.27052,296.97859 303.08755,292.79563 303.08755,287.59975 L 303.08755,242.13066 C 303.08755,236.93478 307.27052,232.75182 312.4664,232.75182 z "
       style="fill:#d9de43;fill-opacity:1;fill-rule:nonzero;stroke:#bcd30d;stroke-width:1.24239898;stroke-linejoin:round;stroke-miterlimit:0;stroke-dashoffset:0.52015748;stroke-opacity:1;display:inline"
       id="rect2924" />
    <path
       d="M 342.9527,202.03149 L 381.63037,202.03149 C 386.82625,202.03149 391.00921,206.21446 391.00921,211.41034 L 391.00921,256.29682 C 391.00921,261.49271 386.82625,265.67567 381.63037,265.67567 L 342.9527,265.67567 C 337.75682,265.67567 333.57385,261.49271 333.57385,256.29682 L 333.57385,211.41034 C 333.57385,206.21446 337.75682,202.03149 342.9527,202.03149 z "
       style="fill:#cae677;fill-opacity:1;fill-rule:nonzero;stroke:#bcd35f;stroke-width:1.24239898;stroke-linejoin:round;stroke-miterlimit:0;stroke-dashoffset:0.52015748;stroke-opacity:1;display:inline"
       id="rect2926" />
    <path
       d="M 316.48154,255.09109 C 316.48153,256.46424 316.84198,257.62283 317.56289,258.56687 C 318.30095,259.49375 319.25357,259.95718 320.42076,259.95718 C 322.01703,259.95718 324.29131,258.92732 327.24359,256.8676 L 328.6854,258.74709 C 327.65552,259.7083 326.37677,260.51502 324.84916,261.16727 C 323.32152,261.80235 321.66516,262.11989 319.88008,262.11989 C 318.31812,262.11989 316.93639,261.96541 315.73489,261.65645 C 314.55054,261.34749 313.60651,260.9613 312.90277,260.49786 C 312.21619,260.03442 311.64977,259.48516 311.2035,258.85008 C 310.77439,258.215 310.4826,257.61425 310.32812,257.04782 C 310.17364,256.46424 310.0964,255.86349 310.0964,255.24557 C 310.0964,252.5851 311.80425,250.63695 315.21996,249.4011 C 313.79531,248.81753 312.75687,248.14812 312.10463,247.39287 C 311.45238,246.63766 311.12626,245.66787 311.12626,244.48351 C 311.12626,244.00293 311.21208,243.50516 311.38373,242.99022 C 311.55537,242.45814 311.86432,241.89172 312.3106,241.29094 C 312.75687,240.69021 313.30613,240.14954 313.95838,239.66891 C 314.62778,239.18833 315.50316,238.79355 316.58453,238.48457 C 317.68304,238.17564 318.9017,238.02116 320.24053,238.02113 C 322.52338,238.02116 324.45437,238.42452 326.0335,239.23122 C 327.61261,240.0208 328.40217,240.93051 328.40219,241.96035 C 328.40217,242.69844 328.08462,243.23912 327.44956,243.58239 C 326.81446,243.92569 326.13647,244.09733 325.41559,244.09732 C 324.50586,244.09733 323.82787,243.94285 323.38161,243.63388 C 322.93532,243.32494 322.55771,242.87008 322.24876,242.26931 C 321.97412,241.77157 321.75098,241.40253 321.57935,241.16221 C 321.42486,240.90477 321.19314,240.63872 320.8842,240.36407 C 320.57523,240.08946 320.25769,239.95215 319.93158,239.95212 C 319.22783,239.95215 318.57558,240.32118 317.97484,241.05923 C 317.39124,241.78015 317.09945,242.87867 317.09946,244.35478 C 317.09945,245.95108 317.35691,247.06676 317.87185,247.70183 C 318.40394,248.33693 319.12484,248.65447 320.03456,248.65445 L 320.47225,248.60296 C 321.70807,248.46566 322.4633,248.397 322.73795,248.39699 C 324.4887,248.397 325.36408,248.77462 325.36409,249.52984 C 325.36408,250.38806 324.47153,250.81717 322.68646,250.81716 C 322.41181,250.81717 321.93121,250.76568 321.24465,250.66268 C 320.4894,250.55971 320.07746,250.50821 320.00882,250.5082 C 318.91029,250.50821 318.04349,250.92016 317.40842,251.74404 C 316.79049,252.55077 316.48153,253.66645 316.48154,255.09109"
       style="font-size:25.71306038px;font-style:normal;font-variant:normal;font-weight:bold;font-stretch:normal;text-align:center;line-height:100%;writing-mode:lr-tb;text-anchor:middle;fill:#2862ba;fill-opacity:1;stroke:none;stroke-width:1px;stroke-linecap:butt;stroke-linejoin:miter;stroke-opacity:1;display:inline;font-family:DejaVu LGC Sans"
       id="text2908" />
    <path
       d="M 293.45813,230.43662 C 293.4581,229.5956 293.23496,229.00343 292.78872,228.66011 C 292.35958,228.29969 291.62152,228.11947 290.57452,228.11944 L 289.82787,228.11944 C 289.70769,228.11947 289.60471,228.08514 289.51891,228.01645 C 289.43306,227.93066 289.39015,227.81909 289.39018,227.68174 L 289.39018,226.44591 L 289.49316,226.34292 L 291.65587,226.39442 C 293.09765,226.42878 294.24766,226.44595 295.10591,226.44591 L 300.7444,226.34292 L 300.84739,226.44591 L 300.84739,227.68174 C 300.84735,227.97357 300.71003,228.11947 300.43544,228.11944 L 299.68879,228.11944 C 298.64173,228.11947 297.89508,228.31686 297.44884,228.71161 C 297.0197,229.08925 296.80515,229.66426 296.80518,230.43662 L 296.80518,259.11826 C 296.80515,260.42275 296.13574,261.075 294.79695,261.075 C 294.52229,261.075 294.25624,261.04067 293.99881,260.97201 C 293.75848,260.90335 293.55251,260.80895 293.38089,260.6888 C 293.20922,260.58581 293.05474,260.47425 292.91745,260.3541 C 292.78011,260.23395 292.66854,260.12238 292.58275,260.01939 C 292.51406,259.91641 292.45399,259.83058 292.40252,259.76193 L 292.35103,259.63319 L 273.89076,236.20385 L 273.89076,256.38913 C 273.89076,257.16153 274.10531,257.74512 274.53443,258.13989 C 274.98069,258.51751 275.72734,258.70632 276.77438,258.70632 L 277.52103,258.70632 C 277.79564,258.70632 277.93296,258.85222 277.93297,259.14401 L 277.93297,260.37984 L 277.82998,260.48283 L 275.56429,260.43134 C 274.05382,260.39701 272.90381,260.37984 272.11425,260.37984 L 266.1668,260.48283 L 266.06382,260.37984 L 266.06382,259.14401 C 266.06382,258.85222 266.20971,258.70632 266.50151,258.70632 L 267.24816,258.70632 C 269.44519,258.70632 270.54371,257.93392 270.54372,256.38913 L 270.54372,230.92581 C 270.25192,230.49673 270.00303,230.15344 269.79707,229.89595 C 269.59109,229.63851 269.32504,229.3553 268.99892,229.04631 C 268.68996,228.73738 268.35526,228.50567 267.99481,228.35115 C 267.65152,228.19671 267.28248,228.11947 266.88771,228.11944 C 266.4586,228.11947 266.1668,228.07656 266.01233,227.9907 C 265.87501,227.88775 265.80635,227.73327 265.80635,227.52727 L 265.80635,226.5489 L 265.96083,226.34292 L 273.60755,226.39442 L 276.82587,230.15341 C 278.9714,232.64227 281.62329,235.81767 284.78155,239.67963 C 287.93977,243.52446 290.53158,246.81143 292.557,249.54055 C 292.98608,250.15848 293.28646,250.61333 293.45813,250.90512 L 293.45813,230.43662"
       style="font-size:52.72890091px;font-style:normal;font-variant:normal;font-weight:bold;font-stretch:normal;text-align:center;line-height:100%;writing-mode:lr-tb;text-anchor:middle;fill:#ffffff;fill-opacity:1;stroke:none;stroke-width:1px;stroke-linecap:butt;stroke-linejoin:miter;stroke-opacity:1;display:inline;font-family:DejaVu LGC Sans"
       id="text2912" />
    <path
       d="M 350.14245,239.46343 C 349.07825,239.46345 348.15995,239.93547 347.38757,240.87948 C 346.61516,241.80638 346.05732,242.94781 345.71404,244.30377 C 345.37075,245.65977 345.19911,247.11874 345.19911,248.68068 C 345.19911,249.72772 345.32784,250.83482 345.58531,252.00199 C 345.84277,253.16917 346.2118,254.30202 346.69241,255.40053 C 347.173,256.48189 347.83383,257.38302 348.6749,258.10392 C 349.51594,258.80766 350.45139,259.15953 351.48127,259.15952 C 352.01335,259.15953 352.52828,259.04796 353.02606,258.82482 C 353.52381,258.58452 354.02158,258.19832 354.51936,257.66622 C 355.01711,257.11697 355.41189,256.27592 355.7037,255.14306 C 356.01264,254.01022 356.16712,252.65424 356.16714,251.07511 C 356.16712,247.38479 355.61786,244.52693 354.51936,242.50152 C 353.43799,240.47614 351.97902,239.46345 350.14245,239.46343 M 338.76248,249.89077 C 338.76248,246.16612 339.8095,243.1452 341.90356,240.82799 C 344.01477,238.49366 346.94129,237.32649 350.68313,237.32646 C 352.33089,237.32649 353.83277,237.57537 355.18877,238.07311 C 356.54473,238.55374 357.669,239.18882 358.56156,239.97836 C 359.45409,240.76794 360.20074,241.69481 360.80151,242.75898 C 361.41941,243.82319 361.8571,244.91312 362.11459,246.02879 C 362.38919,247.12732 362.52651,248.25159 362.52653,249.40159 C 362.52651,250.50012 362.37203,251.59863 362.06309,252.69714 C 361.77127,253.79567 361.29926,254.87702 360.64703,255.94121 C 360.01193,256.98824 359.23953,257.92369 358.32985,258.74758 C 357.42011,259.5543 356.29585,260.20655 354.95705,260.70432 C 353.63538,261.18492 352.18499,261.42522 350.60589,261.42522 C 348.75212,261.42522 347.05285,261.08193 345.50807,260.39536 C 343.96327,259.70878 342.71028,258.80766 341.74908,257.69197 C 340.80504,256.57629 340.06697,255.34904 339.53488,254.01022 C 339.01994,252.65424 338.76248,251.28109 338.76248,249.89077"
       style="font-size:25.71306038px;font-style:normal;font-variant:normal;font-weight:bold;font-stretch:normal;text-align:center;line-height:100%;writing-mode:lr-tb;text-anchor:middle;fill:#8f7713;fill-opacity:1;stroke:none;stroke-width:1px;stroke-linecap:butt;stroke-linejoin:miter;stroke-opacity:1;display:inline;font-family:DejaVu LGC Sans"
       id="text2916" />
    <path
       d="M -313.11328,-25.189565 L -311.29688,-24.964956 C -311.58334,-23.903756 -312.11394,-23.080189 -312.88867,-22.494253 C -313.66342,-21.908315 -314.653,-21.615347 -315.85742,-21.615346 C -317.37435,-21.615347 -318.57878,-22.080841 -319.4707,-23.011831 C -320.35612,-23.949329 -320.79883,-25.261176 -320.79883,-26.947378 C -320.79883,-28.692162 -320.34961,-30.046328 -319.45117,-31.009878 C -318.55274,-31.973409 -317.38737,-32.455179 -315.95508,-32.45519 C -314.56837,-32.455179 -313.43555,-31.983175 -312.55664,-31.039174 C -311.67774,-30.095156 -311.23829,-28.767032 -311.23828,-27.054799 C -311.23829,-26.950628 -311.24155,-26.794378 -311.24805,-26.586049 L -318.98242,-26.586049 C -318.91732,-25.446723 -318.59506,-24.574328 -318.01562,-23.968862 C -317.4362,-23.363392 -316.71355,-23.060658 -315.84766,-23.060659 C -315.20313,-23.060658 -314.653,-23.229928 -314.19727,-23.568471 C -313.74154,-23.907011 -313.38022,-24.447375 -313.11328,-25.189565 M -318.88477,-28.031362 L -313.09375,-28.031362 C -313.17188,-28.903751 -313.39324,-29.558047 -313.75781,-29.994253 C -314.31772,-30.671327 -315.04363,-31.009868 -315.93555,-31.009878 C -316.74284,-31.009868 -317.42318,-30.739686 -317.97656,-30.199331 C -318.52344,-29.658958 -318.82617,-28.936303 -318.88477,-28.031362 M -309.09961,-21.849721 L -309.09961,-32.220815 L -307.51758,-32.220815 L -307.51758,-30.648549 C -307.11394,-31.384217 -306.74284,-31.869243 -306.4043,-32.103628 C -306.05925,-32.337992 -305.68165,-32.455179 -305.27148,-32.45519 C -304.67904,-32.455179 -304.07683,-32.266378 -303.46484,-31.888784 L -304.07031,-30.257924 C -304.50001,-30.511822 -304.92969,-30.638775 -305.35938,-30.638784 C -305.74349,-30.638775 -306.08855,-30.521588 -306.39453,-30.287221 C -306.70052,-30.059349 -306.91862,-29.740338 -307.04883,-29.33019 C -307.24414,-28.705183 -307.3418,-28.02159 -307.3418,-27.279409 L -307.3418,-21.849721 L -309.09961,-21.849721 M -302.72266,-20.990346 L -301.01367,-20.73644 C -300.94206,-20.209098 -300.74349,-19.824984 -300.41797,-19.584096 C -299.98177,-19.258578 -299.38607,-19.095818 -298.63086,-19.095815 C -297.81706,-19.095818 -297.18881,-19.258578 -296.74609,-19.584096 C -296.30339,-19.909619 -296.00391,-20.365348 -295.84766,-20.951284 C -295.75652,-21.309357 -295.7142,-22.06131 -295.7207,-23.207143 C -296.48894,-22.302195 -297.44597,-21.849721 -298.5918,-21.849721 C -300.01758,-21.849721 -301.1211,-22.364044 -301.90234,-23.39269 C -302.68359,-24.421333 -303.07422,-25.655056 -303.07422,-27.093862 C -303.07422,-28.083439 -302.89518,-28.994896 -302.53711,-29.828237 C -302.17904,-30.668072 -301.66146,-31.315858 -300.98438,-31.771596 C -300.30078,-32.227315 -299.5,-32.455179 -298.58203,-32.45519 C -297.35808,-32.455179 -296.34897,-31.960388 -295.55469,-30.970815 L -295.55469,-32.220815 L -293.93359,-32.220815 L -293.93359,-23.255971 C -293.9336,-21.641388 -294.09962,-20.498811 -294.43164,-19.828237 C -294.75717,-19.151156 -295.278,-18.617303 -295.99414,-18.226674 C -296.70378,-17.836053 -297.57943,-17.640741 -298.62109,-17.640737 C -299.85808,-17.640741 -300.85742,-17.920689 -301.61914,-18.480581 C -302.38086,-19.033969 -302.7487,-19.870557 -302.72266,-20.990346 M -301.26758,-27.220815 C -301.26758,-25.860134 -300.9974,-24.867296 -300.45703,-24.242299 C -299.91667,-23.617298 -299.23959,-23.304798 -298.42578,-23.304799 C -297.6185,-23.304798 -296.94141,-23.614042 -296.39453,-24.232534 C -295.84766,-24.857531 -295.57423,-25.834092 -295.57422,-27.162221 C -295.57423,-28.431746 -295.85743,-29.388776 -296.42383,-30.033315 C -296.98373,-30.677838 -297.66081,-31.000103 -298.45508,-31.000112 C -299.23633,-31.000103 -299.90039,-30.681093 -300.44727,-30.043081 C -300.99414,-29.411563 -301.26758,-28.470808 -301.26758,-27.220815 M -291.92188,-27.035268 C -291.92188,-28.955834 -291.38802,-30.378359 -290.32031,-31.302846 C -289.42839,-32.071065 -288.34115,-32.455179 -287.05859,-32.45519 C -285.63282,-32.455179 -284.46746,-31.98643 -283.5625,-31.04894 C -282.65756,-30.117942 -282.20509,-28.828881 -282.20508,-27.181753 C -282.20509,-25.847113 -282.40691,-24.795682 -282.81055,-24.027456 C -283.20769,-23.265736 -283.79037,-22.673288 -284.55859,-22.250112 C -285.32032,-21.826935 -286.15365,-21.615347 -287.05859,-21.615346 C -288.51042,-21.615347 -289.68555,-22.080841 -290.58398,-23.011831 C -291.47591,-23.942818 -291.92188,-25.283963 -291.92188,-27.035268 M -290.11523,-27.035268 C -290.11524,-25.707139 -289.82552,-24.711047 -289.24609,-24.046987 C -288.66667,-23.389433 -287.9375,-23.060658 -287.05859,-23.060659 C -286.1862,-23.060658 -285.46029,-23.392689 -284.88086,-24.056753 C -284.30144,-24.720812 -284.01173,-25.733181 -284.01172,-27.093862 C -284.01173,-28.376408 -284.3047,-29.346459 -284.89062,-30.004018 C -285.47006,-30.668072 -286.19271,-31.000103 -287.05859,-31.000112 C -287.9375,-31.000103 -288.66667,-30.671327 -289.24609,-30.013784 C -289.82552,-29.356224 -290.11524,-28.363387 -290.11523,-27.035268 M -280.13477,-21.849721 L -280.13477,-32.220815 L -278.55273,-32.220815 L -278.55273,-30.746206 C -277.79102,-31.885519 -276.69076,-32.455179 -275.25195,-32.45519 C -274.62696,-32.455179 -274.05404,-32.341247 -273.5332,-32.113393 C -273.00587,-31.892029 -272.61199,-31.599061 -272.35156,-31.234487 C -272.09116,-30.869895 -271.90886,-30.436952 -271.80469,-29.935659 C -271.73959,-29.61013 -271.70704,-29.040469 -271.70703,-28.226674 L -271.70703,-21.849721 L -273.46484,-21.849721 L -273.46484,-28.158315 C -273.46485,-28.874454 -273.53321,-29.408308 -273.66992,-29.759878 C -273.80665,-30.117942 -274.05079,-30.401145 -274.40234,-30.609487 C -274.7474,-30.824322 -275.1543,-30.931744 -275.62305,-30.931753 C -276.37175,-30.931744 -277.01954,-30.694114 -277.56641,-30.218862 C -278.10677,-29.743594 -278.37696,-28.841902 -278.37695,-27.513784 L -278.37695,-21.849721 L -280.13477,-21.849721 M -269.65625,-27.035268 C -269.65625,-28.955834 -269.1224,-30.378359 -268.05469,-31.302846 C -267.16276,-32.071065 -266.07553,-32.455179 -264.79297,-32.45519 C -263.36719,-32.455179 -262.20183,-31.98643 -261.29688,-31.04894 C -260.39194,-30.117942 -259.93946,-28.828881 -259.93945,-27.181753 C -259.93946,-25.847113 -260.14129,-24.795682 -260.54492,-24.027456 C -260.94207,-23.265736 -261.52475,-22.673288 -262.29297,-22.250112 C -263.05469,-21.826935 -263.88803,-21.615347 -264.79297,-21.615346 C -266.2448,-21.615347 -267.41992,-22.080841 -268.31836,-23.011831 C -269.21029,-23.942818 -269.65625,-25.283963 -269.65625,-27.035268 M -267.84961,-27.035268 C -267.84961,-25.707139 -267.5599,-24.711047 -266.98047,-24.046987 C -266.40105,-23.389433 -265.67188,-23.060658 -264.79297,-23.060659 C -263.92058,-23.060658 -263.19467,-23.392689 -262.61523,-24.056753 C -262.03582,-24.720812 -261.7461,-25.733181 -261.74609,-27.093862 C -261.7461,-28.376408 -262.03907,-29.346459 -262.625,-30.004018 C -263.20443,-30.668072 -263.92709,-31.000103 -264.79297,-31.000112 C -265.67188,-31.000103 -266.40105,-30.671327 -266.98047,-30.013784 C -267.5599,-29.356224 -267.84961,-28.363387 -267.84961,-27.035268 M -257.86914,-21.849721 L -257.86914,-32.220815 L -256.29688,-32.220815 L -256.29688,-30.765737 C -255.97136,-31.27354 -255.53842,-31.680441 -254.99805,-31.98644 C -254.45769,-32.29893 -253.84245,-32.455179 -253.15234,-32.45519 C -252.38412,-32.455179 -251.75587,-32.295674 -251.26758,-31.976674 C -250.77279,-31.657654 -250.42449,-31.211691 -250.22266,-30.638784 C -249.40235,-31.849711 -248.33465,-32.455179 -247.01953,-32.45519 C -245.9909,-32.455179 -245.19988,-32.168721 -244.64648,-31.595815 C -244.09311,-31.0294 -243.81642,-30.153749 -243.81641,-28.968862 L -243.81641,-21.849721 L -245.56445,-21.849721 L -245.56445,-28.382924 C -245.56447,-29.086042 -245.62306,-29.590599 -245.74023,-29.896596 C -245.85092,-30.209088 -246.056,-30.459739 -246.35547,-30.648549 C -246.65496,-30.837343 -247.00652,-30.931744 -247.41016,-30.931753 C -248.13933,-30.931744 -248.7448,-30.687603 -249.22656,-30.199331 C -249.70834,-29.717552 -249.94923,-28.942813 -249.94922,-27.875112 L -249.94922,-21.849721 L -251.70703,-21.849721 L -251.70703,-28.588003 C -251.70704,-29.369245 -251.85027,-29.955182 -252.13672,-30.345815 C -252.42318,-30.736431 -252.89193,-30.931744 -253.54297,-30.931753 C -254.03777,-30.931744 -254.49675,-30.801535 -254.91992,-30.541128 C -255.33659,-30.280702 -255.63933,-29.899843 -255.82812,-29.398549 C -256.01693,-28.89724 -256.11133,-28.174585 -256.11133,-27.230581 L -256.11133,-21.849721 L -257.86914,-21.849721 M -241.14062,-34.144643 L -241.14062,-36.166128 L -239.38281,-36.166128 L -239.38281,-34.144643 L -241.14062,-34.144643 M -241.14062,-21.849721 L -241.14062,-32.220815 L -239.38281,-32.220815 L -239.38281,-21.849721 L -241.14062,-21.849721 M -237.40039,-24.945424 L -235.66211,-25.218862 C -235.56446,-24.522245 -235.29427,-23.988391 -234.85156,-23.617299 C -234.40235,-23.246204 -233.77735,-23.060658 -232.97656,-23.060659 C -232.16928,-23.060658 -231.57032,-23.223418 -231.17969,-23.54894 C -230.78907,-23.880969 -230.59376,-24.268339 -230.59375,-24.711049 C -230.59376,-25.108182 -230.76628,-25.420681 -231.11133,-25.648549 C -231.35222,-25.804796 -231.95118,-26.003363 -232.9082,-26.244253 C -234.19727,-26.569769 -235.09245,-26.849716 -235.59375,-27.084096 C -236.08854,-27.324976 -236.46615,-27.653752 -236.72656,-28.070424 C -236.98047,-28.493595 -237.10742,-28.959089 -237.10742,-29.466909 C -237.10742,-29.92914 -237.00326,-30.355572 -236.79492,-30.746206 C -236.58008,-31.143332 -236.29037,-31.472108 -235.92578,-31.732534 C -235.65235,-31.934347 -235.28125,-32.103617 -234.8125,-32.240346 C -234.33724,-32.383565 -233.82943,-32.455179 -233.28906,-32.45519 C -232.47527,-32.455179 -231.76238,-32.337992 -231.15039,-32.103628 C -230.53191,-31.869243 -230.07618,-31.550232 -229.7832,-31.146596 C -229.49024,-30.749452 -229.28842,-30.215598 -229.17773,-29.545034 L -230.89648,-29.310659 C -230.97462,-29.844505 -231.20248,-30.261171 -231.58008,-30.560659 C -231.95118,-30.860129 -232.47852,-31.009868 -233.16211,-31.009878 C -233.96941,-31.009868 -234.54558,-30.876405 -234.89062,-30.609487 C -235.23568,-30.342551 -235.40821,-30.030052 -235.4082,-29.671987 C -235.40821,-29.444115 -235.33659,-29.239037 -235.19336,-29.056753 C -235.05013,-28.867943 -234.82552,-28.711694 -234.51953,-28.588003 C -234.34375,-28.522892 -233.82618,-28.373152 -232.9668,-28.138784 C -231.72331,-27.806747 -230.85743,-27.533309 -230.36914,-27.318471 C -229.87436,-27.110133 -229.48699,-26.804143 -229.20703,-26.400503 C -228.92709,-25.996853 -228.78712,-25.495551 -228.78711,-24.896596 C -228.78712,-24.310656 -228.95964,-23.757272 -229.30469,-23.23644 C -229.64324,-22.722116 -230.13477,-22.321726 -230.7793,-22.035268 C -231.42383,-21.75532 -232.153,-21.615347 -232.9668,-21.615346 C -234.31446,-21.615347 -235.3431,-21.895294 -236.05273,-22.45519 C -236.75586,-23.015085 -237.20508,-23.845162 -237.40039,-24.945424 M -219.92969,-25.648549 L -218.20117,-25.42394 C -218.38998,-24.232531 -218.87501,-23.298288 -219.65625,-22.621206 C -220.431,-21.950633 -221.38477,-21.615347 -222.51758,-21.615346 C -223.93685,-21.615347 -225.07943,-22.077586 -225.94531,-23.002065 C -226.80469,-23.933053 -227.23438,-25.264431 -227.23438,-26.996206 C -227.23438,-28.115991 -227.04883,-29.095808 -226.67773,-29.935659 C -226.30664,-30.775494 -225.74349,-31.403748 -224.98828,-31.820424 C -224.22657,-32.243591 -223.39974,-32.455179 -222.50781,-32.45519 C -221.38152,-32.455179 -220.46029,-32.168721 -219.74414,-31.595815 C -219.028,-31.0294 -218.56902,-30.222109 -218.36719,-29.17394 L -220.07617,-28.910268 C -220.23894,-29.606875 -220.52865,-30.130963 -220.94531,-30.482534 C -221.35548,-30.834087 -221.85352,-31.009868 -222.43945,-31.009878 C -223.32487,-31.009868 -224.04427,-30.690858 -224.59766,-30.052846 C -225.15104,-29.421328 -225.42774,-28.418725 -225.42773,-27.045034 C -225.42774,-25.651801 -225.16081,-24.639432 -224.62695,-24.007924 C -224.0931,-23.376413 -223.39649,-23.060658 -222.53711,-23.060659 C -221.84701,-23.060658 -221.27084,-23.272246 -220.80859,-23.695424 C -220.34636,-24.118599 -220.05339,-24.76964 -219.92969,-25.648549 M -216.69727,-21.849721 L -216.69727,-36.166128 L -214.93945,-36.166128 L -214.93945,-31.029409 C -214.11914,-31.97992 -213.08399,-32.455179 -211.83398,-32.45519 C -211.06576,-32.455179 -210.39845,-32.302185 -209.83203,-31.996206 C -209.26563,-31.696717 -208.86199,-31.28005 -208.62109,-30.746206 C -208.37371,-30.212343 -208.25001,-29.437604 -208.25,-28.421987 L -208.25,-21.849721 L -210.00781,-21.849721 L -210.00781,-28.421987 C -210.00782,-29.300886 -210.19988,-29.938906 -210.58398,-30.336049 C -210.9616,-30.739686 -211.4987,-30.941509 -212.19531,-30.941518 C -212.71615,-30.941509 -213.20769,-30.804791 -213.66992,-30.531362 C -214.12565,-30.264426 -214.45118,-29.899843 -214.64648,-29.437612 C -214.8418,-28.975365 -214.93946,-28.337345 -214.93945,-27.523549 L -214.93945,-21.849721 L -216.69727,-21.849721 M -198.46484,-25.189565 L -196.64844,-24.964956 C -196.93491,-23.903756 -197.4655,-23.080189 -198.24023,-22.494253 C -199.01498,-21.908315 -200.00456,-21.615347 -201.20898,-21.615346 C -202.72592,-21.615347 -203.93034,-22.080841 -204.82227,-23.011831 C -205.70768,-23.949329 -206.15039,-25.261176 -206.15039,-26.947378 C -206.15039,-28.692162 -205.70117,-30.046328 -204.80273,-31.009878 C -203.9043,-31.973409 -202.73894,-32.455179 -201.30664,-32.45519 C -199.91993,-32.455179 -198.78712,-31.983175 -197.9082,-31.039174 C -197.02931,-30.095156 -196.58985,-28.767032 -196.58984,-27.054799 C -196.58985,-26.950628 -196.59311,-26.794378 -196.59961,-26.586049 L -204.33398,-26.586049 C -204.26888,-25.446723 -203.94662,-24.574328 -203.36719,-23.968862 C -202.78776,-23.363392 -202.06511,-23.060658 -201.19922,-23.060659 C -200.55469,-23.060658 -200.00456,-23.229928 -199.54883,-23.568471 C -199.09311,-23.907011 -198.73178,-24.447375 -198.46484,-25.189565 M -204.23633,-28.031362 L -198.44531,-28.031362 C -198.52345,-28.903751 -198.7448,-29.558047 -199.10938,-29.994253 C -199.66928,-30.671327 -200.39519,-31.009868 -201.28711,-31.009878 C -202.09441,-31.009868 -202.77474,-30.739686 -203.32812,-30.199331 C -203.875,-29.658958 -204.17774,-28.936303 -204.23633,-28.031362 M -185.36914,-21.849721 L -185.36914,-34.476674 L -190.08594,-34.476674 L -190.08594,-36.166128 L -178.73828,-36.166128 L -178.73828,-34.476674 L -183.47461,-34.476674 L -183.47461,-21.849721 L -185.36914,-21.849721 M -172.39062,-23.129018 C -173.04167,-22.575632 -173.66993,-22.185007 -174.27539,-21.957143 C -174.87435,-21.729279 -175.51889,-21.615347 -176.20898,-21.615346 C -177.34831,-21.615347 -178.22396,-21.892039 -178.83594,-22.445424 C -179.44792,-23.005319 -179.75391,-23.718209 -179.75391,-24.584096 C -179.75391,-25.091906 -179.63997,-25.554145 -179.41211,-25.970815 C -179.17774,-26.393988 -178.875,-26.732529 -178.50391,-26.98644 C -178.1263,-27.240341 -177.70313,-27.432398 -177.23438,-27.562612 C -176.88933,-27.653752 -176.36849,-27.741643 -175.67188,-27.826284 C -174.25261,-27.995549 -173.20769,-28.197371 -172.53711,-28.431753 C -172.53061,-28.672631 -172.52735,-28.825626 -172.52734,-28.890737 C -172.52735,-29.606875 -172.69337,-30.111432 -173.02539,-30.404409 C -173.47462,-30.801535 -174.14193,-31.000103 -175.02734,-31.000112 C -175.85417,-31.000103 -176.46615,-30.853619 -176.86328,-30.560659 C -177.25391,-30.274192 -177.54362,-29.763125 -177.73242,-29.027456 L -179.45117,-29.261831 C -179.29492,-29.9975 -179.03776,-30.589947 -178.67969,-31.039174 C -178.32162,-31.494894 -177.80404,-31.843201 -177.12695,-32.084096 C -176.44987,-32.331482 -175.66537,-32.455179 -174.77344,-32.45519 C -173.88803,-32.455179 -173.16863,-32.351013 -172.61523,-32.14269 C -172.06186,-31.934347 -171.65496,-31.670675 -171.39453,-31.351674 C -171.13412,-31.039165 -170.95183,-30.64203 -170.84766,-30.160268 C -170.78907,-29.860781 -170.75978,-29.320417 -170.75977,-28.539174 L -170.75977,-26.195424 C -170.75978,-24.561307 -170.72397,-23.526152 -170.65234,-23.089956 C -170.57423,-22.660267 -170.42449,-22.246856 -170.20312,-21.849721 L -172.03906,-21.849721 C -172.22136,-22.214304 -172.33855,-22.640736 -172.39062,-23.129018 M -172.53711,-27.054799 C -173.17514,-26.794378 -174.13217,-26.573024 -175.4082,-26.390737 C -176.13086,-26.286566 -176.64193,-26.169378 -176.94141,-26.039174 C -177.24089,-25.908962 -177.47201,-25.716905 -177.63477,-25.463003 C -177.79753,-25.215603 -177.87891,-24.938911 -177.87891,-24.632924 C -177.87891,-24.164172 -177.70313,-23.773548 -177.35156,-23.461049 C -176.99349,-23.148548 -176.47266,-22.992298 -175.78906,-22.992299 C -175.11198,-22.992298 -174.50977,-23.138783 -173.98242,-23.431753 C -173.45509,-23.73123 -173.06772,-24.138131 -172.82031,-24.652456 C -172.63152,-25.049588 -172.53712,-25.635525 -172.53711,-26.410268 L -172.53711,-27.054799 M -168.72852,-24.945424 L -166.99023,-25.218862 C -166.89258,-24.522245 -166.6224,-23.988391 -166.17969,-23.617299 C -165.73047,-23.246204 -165.10547,-23.060658 -164.30469,-23.060659 C -163.4974,-23.060658 -162.89844,-23.223418 -162.50781,-23.54894 C -162.11719,-23.880969 -161.92188,-24.268339 -161.92188,-24.711049 C -161.92188,-25.108182 -162.09441,-25.420681 -162.43945,-25.648549 C -162.68035,-25.804796 -163.2793,-26.003363 -164.23633,-26.244253 C -165.52539,-26.569769 -166.42058,-26.849716 -166.92188,-27.084096 C -167.41667,-27.324976 -167.79427,-27.653752 -168.05469,-28.070424 C -168.30859,-28.493595 -168.43555,-28.959089 -168.43555,-29.466909 C -168.43555,-29.92914 -168.33138,-30.355572 -168.12305,-30.746206 C -167.9082,-31.143332 -167.61849,-31.472108 -167.25391,-31.732534 C -166.98047,-31.934347 -166.60938,-32.103617 -166.14062,-32.240346 C -165.66537,-32.383565 -165.15756,-32.455179 -164.61719,-32.45519 C -163.80339,-32.455179 -163.0905,-32.337992 -162.47852,-32.103628 C -161.86003,-31.869243 -161.4043,-31.550232 -161.11133,-31.146596 C -160.81837,-30.749452 -160.61655,-30.215598 -160.50586,-29.545034 L -162.22461,-29.310659 C -162.30274,-29.844505 -162.53061,-30.261171 -162.9082,-30.560659 C -163.2793,-30.860129 -163.80665,-31.009868 -164.49023,-31.009878 C -165.29753,-31.009868 -165.8737,-30.876405 -166.21875,-30.609487 C -166.5638,-30.342551 -166.73633,-30.030052 -166.73633,-29.671987 C -166.73633,-29.444115 -166.66472,-29.239037 -166.52148,-29.056753 C -166.37826,-28.867943 -166.15365,-28.711694 -165.84766,-28.588003 C -165.67188,-28.522892 -165.1543,-28.373152 -164.29492,-28.138784 C -163.05144,-27.806747 -162.18555,-27.533309 -161.69727,-27.318471 C -161.20248,-27.110133 -160.81511,-26.804143 -160.53516,-26.400503 C -160.25522,-25.996853 -160.11524,-25.495551 -160.11523,-24.896596 C -160.11524,-24.310656 -160.28777,-23.757272 -160.63281,-23.23644 C -160.97136,-22.722116 -161.4629,-22.321726 -162.10742,-22.035268 C -162.75196,-21.75532 -163.48113,-21.615347 -164.29492,-21.615346 C -165.64258,-21.615347 -166.67123,-21.895294 -167.38086,-22.45519 C -168.08399,-23.015085 -168.5332,-23.845162 -168.72852,-24.945424 M -154.1875,-23.421987 L -153.93359,-21.869253 C -154.42839,-21.765086 -154.8711,-21.713003 -155.26172,-21.713003 C -155.89974,-21.713003 -156.39453,-21.813914 -156.74609,-22.015737 C -157.09766,-22.21756 -157.34505,-22.481231 -157.48828,-22.806753 C -157.63151,-23.138783 -157.70313,-23.832141 -157.70312,-24.886831 L -157.70312,-30.853628 L -158.99219,-30.853628 L -158.99219,-32.220815 L -157.70312,-32.220815 L -157.70312,-34.789174 L -155.95508,-35.843862 L -155.95508,-32.220815 L -154.1875,-32.220815 L -154.1875,-30.853628 L -155.95508,-30.853628 L -155.95508,-24.789174 C -155.95508,-24.28787 -155.92578,-23.965605 -155.86719,-23.822378 C -155.80209,-23.679147 -155.70118,-23.565214 -155.56445,-23.480581 C -155.42123,-23.395944 -155.21941,-23.353626 -154.95898,-23.353628 C -154.76368,-23.353626 -154.50652,-23.376413 -154.1875,-23.421987 M -145.71094,-23.129018 C -146.36199,-22.575632 -146.99024,-22.185007 -147.5957,-21.957143 C -148.19467,-21.729279 -148.8392,-21.615347 -149.5293,-21.615346 C -150.66862,-21.615347 -151.54427,-21.892039 -152.15625,-22.445424 C -152.76823,-23.005319 -153.07422,-23.718209 -153.07422,-24.584096 C -153.07422,-25.091906 -152.96029,-25.554145 -152.73242,-25.970815 C -152.49805,-26.393988 -152.19531,-26.732529 -151.82422,-26.98644 C -151.44662,-27.240341 -151.02344,-27.432398 -150.55469,-27.562612 C -150.20964,-27.653752 -149.68881,-27.741643 -148.99219,-27.826284 C -147.57292,-27.995549 -146.528,-28.197371 -145.85742,-28.431753 C -145.85092,-28.672631 -145.84766,-28.825626 -145.84766,-28.890737 C -145.84766,-29.606875 -146.01368,-30.111432 -146.3457,-30.404409 C -146.79493,-30.801535 -147.46225,-31.000103 -148.34766,-31.000112 C -149.17448,-31.000103 -149.78646,-30.853619 -150.18359,-30.560659 C -150.57422,-30.274192 -150.86394,-29.763125 -151.05273,-29.027456 L -152.77148,-29.261831 C -152.61524,-29.9975 -152.35807,-30.589947 -152,-31.039174 C -151.64193,-31.494894 -151.12435,-31.843201 -150.44727,-32.084096 C -149.77019,-32.331482 -148.98568,-32.455179 -148.09375,-32.45519 C -147.20834,-32.455179 -146.48894,-32.351013 -145.93555,-32.14269 C -145.38217,-31.934347 -144.97527,-31.670675 -144.71484,-31.351674 C -144.45444,-31.039165 -144.27214,-30.64203 -144.16797,-30.160268 C -144.10938,-29.860781 -144.08009,-29.320417 -144.08008,-28.539174 L -144.08008,-26.195424 C -144.08009,-24.561307 -144.04428,-23.526152 -143.97266,-23.089956 C -143.89454,-22.660267 -143.7448,-22.246856 -143.52344,-21.849721 L -145.35938,-21.849721 C -145.54167,-22.214304 -145.65886,-22.640736 -145.71094,-23.129018 M -145.85742,-27.054799 C -146.49545,-26.794378 -147.45248,-26.573024 -148.72852,-26.390737 C -149.45118,-26.286566 -149.96224,-26.169378 -150.26172,-26.039174 C -150.5612,-25.908962 -150.79232,-25.716905 -150.95508,-25.463003 C -151.11784,-25.215603 -151.19922,-24.938911 -151.19922,-24.632924 C -151.19922,-24.164172 -151.02344,-23.773548 -150.67188,-23.461049 C -150.31381,-23.148548 -149.79297,-22.992298 -149.10938,-22.992299 C -148.4323,-22.992298 -147.83008,-23.138783 -147.30273,-23.431753 C -146.7754,-23.73123 -146.38803,-24.138131 -146.14062,-24.652456 C -145.95183,-25.049588 -145.85743,-25.635525 -145.85742,-26.410268 L -145.85742,-27.054799 M -137.50781,-23.421987 L -137.25391,-21.869253 C -137.7487,-21.765086 -138.19141,-21.713003 -138.58203,-21.713003 C -139.22006,-21.713003 -139.71485,-21.813914 -140.06641,-22.015737 C -140.41797,-22.21756 -140.66537,-22.481231 -140.80859,-22.806753 C -140.95182,-23.138783 -141.02344,-23.832141 -141.02344,-24.886831 L -141.02344,-30.853628 L -142.3125,-30.853628 L -142.3125,-32.220815 L -141.02344,-32.220815 L -141.02344,-34.789174 L -139.27539,-35.843862 L -139.27539,-32.220815 L -137.50781,-32.220815 L -137.50781,-30.853628 L -139.27539,-30.853628 L -139.27539,-24.789174 C -139.27539,-24.28787 -139.2461,-23.965605 -139.1875,-23.822378 C -139.1224,-23.679147 -139.02149,-23.565214 -138.88477,-23.480581 C -138.74154,-23.395944 -138.53972,-23.353626 -138.2793,-23.353628 C -138.08399,-23.353626 -137.82683,-23.376413 -137.50781,-23.421987 M -129.00195,-21.849721 L -129.00195,-23.373159 C -129.80925,-22.201283 -130.90626,-21.615347 -132.29297,-21.615346 C -132.90495,-21.615347 -133.47787,-21.732534 -134.01172,-21.966909 C -134.53907,-22.201283 -134.93294,-22.494252 -135.19336,-22.845815 C -135.44727,-23.203887 -135.6263,-23.640084 -135.73047,-24.154409 C -135.80208,-24.499458 -135.83789,-25.046333 -135.83789,-25.795034 L -135.83789,-32.220815 L -134.08008,-32.220815 L -134.08008,-26.468862 C -134.08008,-25.55089 -134.04427,-24.932401 -133.97266,-24.613393 C -133.86198,-24.151151 -133.62761,-23.786568 -133.26953,-23.519643 C -132.91146,-23.259225 -132.46875,-23.129017 -131.94141,-23.129018 C -131.41407,-23.129017 -130.91928,-23.26248 -130.45703,-23.529409 C -129.9948,-23.802844 -129.66928,-24.170683 -129.48047,-24.632924 C -129.28516,-25.101671 -129.18751,-25.778754 -129.1875,-26.664174 L -129.1875,-32.220815 L -127.42969,-32.220815 L -127.42969,-21.849721 L -129.00195,-21.849721 M -124.68555,-21.849721 L -124.68555,-32.220815 L -123.10352,-32.220815 L -123.10352,-30.648549 C -122.69987,-31.384217 -122.32878,-31.869243 -121.99023,-32.103628 C -121.64519,-32.337992 -121.26758,-32.455179 -120.85742,-32.45519 C -120.26498,-32.455179 -119.66277,-32.266378 -119.05078,-31.888784 L -119.65625,-30.257924 C -120.08594,-30.511822 -120.51563,-30.638775 -120.94531,-30.638784 C -121.32943,-30.638775 -121.67448,-30.521588 -121.98047,-30.287221 C -122.28646,-30.059349 -122.50456,-29.740338 -122.63477,-29.33019 C -122.83008,-28.705183 -122.92774,-28.02159 -122.92773,-27.279409 L -122.92773,-21.849721 L -124.68555,-21.849721 M -116.36523,-21.849721 L -117.99609,-21.849721 L -117.99609,-36.166128 L -116.23828,-36.166128 L -116.23828,-31.058706 C -115.4961,-31.989685 -114.54883,-32.455179 -113.39648,-32.45519 C -112.75847,-32.455179 -112.15626,-32.324971 -111.58984,-32.064565 C -111.01694,-31.810649 -110.54819,-31.449321 -110.18359,-30.980581 C -109.81251,-30.518332 -109.5228,-29.958437 -109.31445,-29.300893 C -109.10613,-28.643334 -109.00196,-27.94021 -109.00195,-27.191518 C -109.00196,-25.414171 -109.44142,-24.040474 -110.32031,-23.070424 C -111.19923,-22.100372 -112.25391,-21.615347 -113.48438,-21.615346 C -114.70834,-21.615347 -115.66862,-22.126414 -116.36523,-23.148549 L -116.36523,-21.849721 M -116.38477,-27.113393 C -116.38477,-25.8699 -116.2155,-24.971463 -115.87695,-24.418081 C -115.32357,-23.513131 -114.57487,-23.060658 -113.63086,-23.060659 C -112.86264,-23.060658 -112.19857,-23.392689 -111.63867,-24.056753 C -111.07878,-24.727323 -110.79884,-25.723415 -110.79883,-27.045034 C -110.79884,-28.399194 -111.06902,-29.398542 -111.60938,-30.043081 C -112.14324,-30.687603 -112.79102,-31.009868 -113.55273,-31.009878 C -114.32097,-31.009868 -114.98503,-30.674582 -115.54492,-30.004018 C -116.10482,-29.339948 -116.38477,-28.376408 -116.38477,-27.113393 M -99.753906,-25.189565 L -97.9375,-24.964956 C -98.223968,-23.903756 -98.754567,-23.080189 -99.529297,-22.494253 C -100.30404,-21.908315 -101.29363,-21.615347 -102.49805,-21.615346 C -104.01498,-21.615347 -105.2194,-22.080841 -106.11133,-23.011831 C -106.99675,-23.949329 -107.43945,-25.261176 -107.43945,-26.947378 C -107.43945,-28.692162 -106.99024,-30.046328 -106.0918,-31.009878 C -105.19336,-31.973409 -104.028,-32.455179 -102.5957,-32.45519 C -101.20899,-32.455179 -100.07618,-31.983175 -99.197266,-31.039174 C -98.318369,-30.095156 -97.878917,-28.767032 -97.878906,-27.054799 C -97.878917,-26.950628 -97.882172,-26.794378 -97.888672,-26.586049 L -105.62305,-26.586049 C -105.55795,-25.446723 -105.23568,-24.574328 -104.65625,-23.968862 C -104.07683,-23.363392 -103.35417,-23.060658 -102.48828,-23.060659 C -101.84376,-23.060658 -101.29363,-23.229928 -100.83789,-23.568471 C -100.38217,-23.907011 -100.02084,-24.447375 -99.753906,-25.189565 M -105.52539,-28.031362 L -99.734375,-28.031362 C -99.812508,-28.903751 -100.03386,-29.558047 -100.39844,-29.994253 C -100.95834,-30.671327 -101.68425,-31.009868 -102.57617,-31.009878 C -103.38347,-31.009868 -104.06381,-30.739686 -104.61719,-30.199331 C -105.16407,-29.658958 -105.4668,-28.936303 -105.52539,-28.031362 M -95.759766,-21.849721 L -95.759766,-36.166128 L -94.001953,-36.166128 L -94.001953,-21.849721 L -95.759766,-21.849721 M -84.167969,-25.189565 L -82.351562,-24.964956 C -82.638031,-23.903756 -83.168629,-23.080189 -83.943359,-22.494253 C -84.718107,-21.908315 -85.707689,-21.615347 -86.912109,-21.615346 C -88.429041,-21.615347 -89.633466,-22.080841 -90.525391,-23.011831 C -91.410808,-23.949329 -91.853516,-25.261176 -91.853516,-26.947378 C -91.853516,-28.692162 -91.404298,-30.046328 -90.505859,-31.009878 C -89.607425,-31.973409 -88.442061,-32.455179 -87.009766,-32.45519 C -85.623054,-32.455179 -84.490242,-31.983175 -83.611328,-31.039174 C -82.732432,-30.095156 -82.292979,-28.767032 -82.292969,-27.054799 C -82.292979,-26.950628 -82.296234,-26.794378 -82.302734,-26.586049 L -90.037109,-26.586049 C -89.972008,-25.446723 -89.649743,-24.574328 -89.070312,-23.968862 C -88.49089,-23.363392 -87.768234,-23.060658 -86.902344,-23.060659 C -86.257819,-23.060658 -85.707689,-23.229928 -85.251953,-23.568471 C -84.796232,-23.907011 -84.434904,-24.447375 -84.167969,-25.189565 M -89.939453,-28.031362 L -84.148438,-28.031362 C -84.226571,-28.903751 -84.447925,-29.558047 -84.8125,-29.994253 C -85.372403,-30.671327 -86.098314,-31.009868 -86.990234,-31.009878 C -87.797531,-31.009868 -88.477869,-30.739686 -89.03125,-30.199331 C -89.578128,-29.658958 -89.880862,-28.936303 -89.939453,-28.031362 M -80.457031,-20.990346 L -78.748047,-20.73644 C -78.676435,-20.209098 -78.477868,-19.824984 -78.152344,-19.584096 C -77.71615,-19.258578 -77.120447,-19.095818 -76.365234,-19.095815 C -75.551438,-19.095818 -74.923184,-19.258578 -74.480469,-19.584096 C -74.037768,-19.909619 -73.738289,-20.365348 -73.582031,-20.951284 C -73.490893,-21.309357 -73.448576,-22.06131 -73.455078,-23.207143 C -74.223315,-22.302195 -75.180345,-21.849721 -76.326172,-21.849721 C -77.751957,-21.849721 -78.855471,-22.364044 -79.636719,-23.39269 C -80.41797,-24.421333 -80.808594,-25.655056 -80.808594,-27.093862 C -80.808594,-28.083439 -80.629558,-28.994896 -80.271484,-29.828237 C -79.913413,-30.668072 -79.395835,-31.315858 -78.71875,-31.771596 C -78.03516,-32.227315 -77.234379,-32.455179 -76.316406,-32.45519 C -75.092454,-32.455179 -74.083341,-31.960388 -73.289062,-30.970815 L -73.289062,-32.220815 L -71.667969,-32.220815 L -71.667969,-23.255971 C -71.667979,-21.641388 -71.833994,-20.498811 -72.166016,-19.828237 C -72.491545,-19.151156 -73.012378,-18.617303 -73.728516,-18.226674 C -74.438158,-17.836053 -75.313808,-17.640741 -76.355469,-17.640737 C -77.592452,-17.640741 -78.5918,-17.920689 -79.353516,-18.480581 C -80.115236,-19.033969 -80.483074,-19.870557 -80.457031,-20.990346 M -79.001953,-27.220815 C -79.001956,-25.860134 -78.731774,-24.867296 -78.191406,-24.242299 C -77.651045,-23.617298 -76.973963,-23.304798 -76.160156,-23.304799 C -75.352871,-23.304798 -74.675788,-23.614042 -74.128906,-24.232534 C -73.582039,-24.857531 -73.308602,-25.834092 -73.308594,-27.162221 C -73.308602,-28.431746 -73.591805,-29.388776 -74.158203,-30.033315 C -74.718106,-30.677838 -75.395188,-31.000103 -76.189453,-31.000112 C -76.970708,-31.000103 -77.634769,-30.681093 -78.181641,-30.043081 C -78.728518,-29.411563 -79.001956,-28.470808 -79.001953,-27.220815 M -62.205078,-21.849721 L -62.205078,-23.373159 C -63.012377,-22.201283 -64.109381,-21.615347 -65.496094,-21.615346 C -66.108077,-21.615347 -66.680993,-21.732534 -67.214844,-21.966909 C -67.74219,-22.201283 -68.13607,-22.494252 -68.396484,-22.845815 C -68.650392,-23.203887 -68.829429,-23.640084 -68.933594,-24.154409 C -69.00521,-24.499458 -69.041017,-25.046333 -69.041016,-25.795034 L -69.041016,-32.220815 L -67.283203,-32.220815 L -67.283203,-26.468862 C -67.283206,-25.55089 -67.247399,-24.932401 -67.175781,-24.613393 C -67.065107,-24.151151 -66.830733,-23.786568 -66.472656,-23.519643 C -66.114588,-23.259225 -65.67188,-23.129017 -65.144531,-23.129018 C -64.617193,-23.129017 -64.122402,-23.26248 -63.660156,-23.529409 C -63.197924,-23.802844 -62.872403,-24.170683 -62.683594,-24.632924 C -62.488289,-25.101671 -62.390633,-25.778754 -62.390625,-26.664174 L -62.390625,-32.220815 L -60.632812,-32.220815 L -60.632812,-21.849721 L -62.205078,-21.849721 M -57.869141,-21.849721 L -57.869141,-32.220815 L -56.287109,-32.220815 L -56.287109,-30.746206 C -55.525394,-31.885519 -54.425135,-32.455179 -52.986328,-32.45519 C -52.361335,-32.455179 -51.788419,-32.341247 -51.267578,-32.113393 C -50.740243,-31.892029 -50.346363,-31.599061 -50.085938,-31.234487 C -49.82553,-30.869895 -49.643239,-30.436952 -49.539062,-29.935659 C -49.473968,-29.61013 -49.441416,-29.040469 -49.441406,-28.226674 L -49.441406,-21.849721 L -51.199219,-21.849721 L -51.199219,-28.158315 C -51.199227,-28.874454 -51.267586,-29.408308 -51.404297,-29.759878 C -51.541023,-30.117942 -51.785164,-30.401145 -52.136719,-30.609487 C -52.481778,-30.824322 -52.888678,-30.931744 -53.357422,-30.931753 C -54.106125,-30.931744 -54.753911,-30.694114 -55.300781,-30.218862 C -55.841149,-29.743594 -56.111331,-28.841902 -56.111328,-27.513784 L -56.111328,-21.849721 L -57.869141,-21.849721 M -47.058594,-20.990346 L -45.349609,-20.73644 C -45.277998,-20.209098 -45.07943,-19.824984 -44.753906,-19.584096 C -44.317712,-19.258578 -43.72201,-19.095818 -42.966797,-19.095815 C -42.153001,-19.095818 -41.524746,-19.258578 -41.082031,-19.584096 C -40.63933,-19.909619 -40.339851,-20.365348 -40.183594,-20.951284 C -40.092456,-21.309357 -40.050138,-22.06131 -40.056641,-23.207143 C -40.824877,-22.302195 -41.781907,-21.849721 -42.927734,-21.849721 C -44.353519,-21.849721 -45.457034,-22.364044 -46.238281,-23.39269 C -47.019532,-24.421333 -47.410157,-25.655056 -47.410156,-27.093862 C -47.410157,-28.083439 -47.231121,-28.994896 -46.873047,-29.828237 C -46.514975,-30.668072 -45.997398,-31.315858 -45.320312,-31.771596 C -44.636722,-32.227315 -43.835942,-32.455179 -42.917969,-32.45519 C -41.694017,-32.455179 -40.684903,-31.960388 -39.890625,-30.970815 L -39.890625,-32.220815 L -38.269531,-32.220815 L -38.269531,-23.255971 C -38.269541,-21.641388 -38.435556,-20.498811 -38.767578,-19.828237 C -39.093108,-19.151156 -39.613941,-18.617303 -40.330078,-18.226674 C -41.039721,-17.836053 -41.915371,-17.640741 -42.957031,-17.640737 C -44.194014,-17.640741 -45.193362,-17.920689 -45.955078,-18.480581 C -46.716798,-19.033969 -47.084636,-19.870557 -47.058594,-20.990346 M -45.603516,-27.220815 C -45.603518,-25.860134 -45.333336,-24.867296 -44.792969,-24.242299 C -44.252608,-23.617298 -43.575525,-23.304798 -42.761719,-23.304799 C -41.954433,-23.304798 -41.277351,-23.614042 -40.730469,-24.232534 C -40.183602,-24.857531 -39.910164,-25.834092 -39.910156,-27.162221 C -39.910164,-28.431746 -40.193367,-29.388776 -40.759766,-30.033315 C -41.319668,-30.677838 -41.996751,-31.000103 -42.791016,-31.000112 C -43.57227,-31.000103 -44.236332,-30.681093 -44.783203,-30.043081 C -45.330081,-29.411563 -45.603518,-28.470808 -45.603516,-27.220815"
       transform="matrix(0.5435969,0,0,0.5435969,423.30852,303.63102)"
       style="font-size:20px;stroke:#ffffff;stroke-width:3.54330707;stroke-miterlimit:4;display:inline"
       id="flowRoot7783" />
    <path
       d="M -313.11328,-25.189565 L -311.29688,-24.964956 C -311.58334,-23.903756 -312.11394,-23.080189 -312.88867,-22.494253 C -313.66342,-21.908315 -314.653,-21.615347 -315.85742,-21.615346 C -317.37435,-21.615347 -318.57878,-22.080841 -319.4707,-23.011831 C -320.35612,-23.949329 -320.79883,-25.261176 -320.79883,-26.947378 C -320.79883,-28.692162 -320.34961,-30.046328 -319.45117,-31.009878 C -318.55274,-31.973409 -317.38737,-32.455179 -315.95508,-32.45519 C -314.56837,-32.455179 -313.43555,-31.983175 -312.55664,-31.039174 C -311.67774,-30.095156 -311.23829,-28.767032 -311.23828,-27.054799 C -311.23829,-26.950628 -311.24155,-26.794378 -311.24805,-26.586049 L -318.98242,-26.586049 C -318.91732,-25.446723 -318.59506,-24.574328 -318.01562,-23.968862 C -317.4362,-23.363392 -316.71355,-23.060658 -315.84766,-23.060659 C -315.20313,-23.060658 -314.653,-23.229928 -314.19727,-23.568471 C -313.74154,-23.907011 -313.38022,-24.447375 -313.11328,-25.189565 M -318.88477,-28.031362 L -313.09375,-28.031362 C -313.17188,-28.903751 -313.39324,-29.558047 -313.75781,-29.994253 C -314.31772,-30.671327 -315.04363,-31.009868 -315.93555,-31.009878 C -316.74284,-31.009868 -317.42318,-30.739686 -317.97656,-30.199331 C -318.52344,-29.658958 -318.82617,-28.936303 -318.88477,-28.031362 M -309.09961,-21.849721 L -309.09961,-32.220815 L -307.51758,-32.220815 L -307.51758,-30.648549 C -307.11394,-31.384217 -306.74284,-31.869243 -306.4043,-32.103628 C -306.05925,-32.337992 -305.68165,-32.455179 -305.27148,-32.45519 C -304.67904,-32.455179 -304.07683,-32.266378 -303.46484,-31.888784 L -304.07031,-30.257924 C -304.50001,-30.511822 -304.92969,-30.638775 -305.35938,-30.638784 C -305.74349,-30.638775 -306.08855,-30.521588 -306.39453,-30.287221 C -306.70052,-30.059349 -306.91862,-29.740338 -307.04883,-29.33019 C -307.24414,-28.705183 -307.3418,-28.02159 -307.3418,-27.279409 L -307.3418,-21.849721 L -309.09961,-21.849721 M -302.72266,-20.990346 L -301.01367,-20.73644 C -300.94206,-20.209098 -300.74349,-19.824984 -300.41797,-19.584096 C -299.98177,-19.258578 -299.38607,-19.095818 -298.63086,-19.095815 C -297.81706,-19.095818 -297.18881,-19.258578 -296.74609,-19.584096 C -296.30339,-19.909619 -296.00391,-20.365348 -295.84766,-20.951284 C -295.75652,-21.309357 -295.7142,-22.06131 -295.7207,-23.207143 C -296.48894,-22.302195 -297.44597,-21.849721 -298.5918,-21.849721 C -300.01758,-21.849721 -301.1211,-22.364044 -301.90234,-23.39269 C -302.68359,-24.421333 -303.07422,-25.655056 -303.07422,-27.093862 C -303.07422,-28.083439 -302.89518,-28.994896 -302.53711,-29.828237 C -302.17904,-30.668072 -301.66146,-31.315858 -300.98438,-31.771596 C -300.30078,-32.227315 -299.5,-32.455179 -298.58203,-32.45519 C -297.35808,-32.455179 -296.34897,-31.960388 -295.55469,-30.970815 L -295.55469,-32.220815 L -293.93359,-32.220815 L -293.93359,-23.255971 C -293.9336,-21.641388 -294.09962,-20.498811 -294.43164,-19.828237 C -294.75717,-19.151156 -295.278,-18.617303 -295.99414,-18.226674 C -296.70378,-17.836053 -297.57943,-17.640741 -298.62109,-17.640737 C -299.85808,-17.640741 -300.85742,-17.920689 -301.61914,-18.480581 C -302.38086,-19.033969 -302.7487,-19.870557 -302.72266,-20.990346 M -301.26758,-27.220815 C -301.26758,-25.860134 -300.9974,-24.867296 -300.45703,-24.242299 C -299.91667,-23.617298 -299.23959,-23.304798 -298.42578,-23.304799 C -297.6185,-23.304798 -296.94141,-23.614042 -296.39453,-24.232534 C -295.84766,-24.857531 -295.57423,-25.834092 -295.57422,-27.162221 C -295.57423,-28.431746 -295.85743,-29.388776 -296.42383,-30.033315 C -296.98373,-30.677838 -297.66081,-31.000103 -298.45508,-31.000112 C -299.23633,-31.000103 -299.90039,-30.681093 -300.44727,-30.043081 C -300.99414,-29.411563 -301.26758,-28.470808 -301.26758,-27.220815 M -291.92188,-27.035268 C -291.92188,-28.955834 -291.38802,-30.378359 -290.32031,-31.302846 C -289.42839,-32.071065 -288.34115,-32.455179 -287.05859,-32.45519 C -285.63282,-32.455179 -284.46746,-31.98643 -283.5625,-31.04894 C -282.65756,-30.117942 -282.20509,-28.828881 -282.20508,-27.181753 C -282.20509,-25.847113 -282.40691,-24.795682 -282.81055,-24.027456 C -283.20769,-23.265736 -283.79037,-22.673288 -284.55859,-22.250112 C -285.32032,-21.826935 -286.15365,-21.615347 -287.05859,-21.615346 C -288.51042,-21.615347 -289.68555,-22.080841 -290.58398,-23.011831 C -291.47591,-23.942818 -291.92188,-25.283963 -291.92188,-27.035268 M -290.11523,-27.035268 C -290.11524,-25.707139 -289.82552,-24.711047 -289.24609,-24.046987 C -288.66667,-23.389433 -287.9375,-23.060658 -287.05859,-23.060659 C -286.1862,-23.060658 -285.46029,-23.392689 -284.88086,-24.056753 C -284.30144,-24.720812 -284.01173,-25.733181 -284.01172,-27.093862 C -284.01173,-28.376408 -284.3047,-29.346459 -284.89062,-30.004018 C -285.47006,-30.668072 -286.19271,-31.000103 -287.05859,-31.000112 C -287.9375,-31.000103 -288.66667,-30.671327 -289.24609,-30.013784 C -289.82552,-29.356224 -290.11524,-28.363387 -290.11523,-27.035268 M -280.13477,-21.849721 L -280.13477,-32.220815 L -278.55273,-32.220815 L -278.55273,-30.746206 C -277.79102,-31.885519 -276.69076,-32.455179 -275.25195,-32.45519 C -274.62696,-32.455179 -274.05404,-32.341247 -273.5332,-32.113393 C -273.00587,-31.892029 -272.61199,-31.599061 -272.35156,-31.234487 C -272.09116,-30.869895 -271.90886,-30.436952 -271.80469,-29.935659 C -271.73959,-29.61013 -271.70704,-29.040469 -271.70703,-28.226674 L -271.70703,-21.849721 L -273.46484,-21.849721 L -273.46484,-28.158315 C -273.46485,-28.874454 -273.53321,-29.408308 -273.66992,-29.759878 C -273.80665,-30.117942 -274.05079,-30.401145 -274.40234,-30.609487 C -274.7474,-30.824322 -275.1543,-30.931744 -275.62305,-30.931753 C -276.37175,-30.931744 -277.01954,-30.694114 -277.56641,-30.218862 C -278.10677,-29.743594 -278.37696,-28.841902 -278.37695,-27.513784 L -278.37695,-21.849721 L -280.13477,-21.849721 M -269.65625,-27.035268 C -269.65625,-28.955834 -269.1224,-30.378359 -268.05469,-31.302846 C -267.16276,-32.071065 -266.07553,-32.455179 -264.79297,-32.45519 C -263.36719,-32.455179 -262.20183,-31.98643 -261.29688,-31.04894 C -260.39194,-30.117942 -259.93946,-28.828881 -259.93945,-27.181753 C -259.93946,-25.847113 -260.14129,-24.795682 -260.54492,-24.027456 C -260.94207,-23.265736 -261.52475,-22.673288 -262.29297,-22.250112 C -263.05469,-21.826935 -263.88803,-21.615347 -264.79297,-21.615346 C -266.2448,-21.615347 -267.41992,-22.080841 -268.31836,-23.011831 C -269.21029,-23.942818 -269.65625,-25.283963 -269.65625,-27.035268 M -267.84961,-27.035268 C -267.84961,-25.707139 -267.5599,-24.711047 -266.98047,-24.046987 C -266.40105,-23.389433 -265.67188,-23.060658 -264.79297,-23.060659 C -263.92058,-23.060658 -263.19467,-23.392689 -262.61523,-24.056753 C -262.03582,-24.720812 -261.7461,-25.733181 -261.74609,-27.093862 C -261.7461,-28.376408 -262.03907,-29.346459 -262.625,-30.004018 C -263.20443,-30.668072 -263.92709,-31.000103 -264.79297,-31.000112 C -265.67188,-31.000103 -266.40105,-30.671327 -266.98047,-30.013784 C -267.5599,-29.356224 -267.84961,-28.363387 -267.84961,-27.035268 M -257.86914,-21.849721 L -257.86914,-32.220815 L -256.29688,-32.220815 L -256.29688,-30.765737 C -255.97136,-31.27354 -255.53842,-31.680441 -254.99805,-31.98644 C -254.45769,-32.29893 -253.84245,-32.455179 -253.15234,-32.45519 C -252.38412,-32.455179 -251.75587,-32.295674 -251.26758,-31.976674 C -250.77279,-31.657654 -250.42449,-31.211691 -250.22266,-30.638784 C -249.40235,-31.849711 -248.33465,-32.455179 -247.01953,-32.45519 C -245.9909,-32.455179 -245.19988,-32.168721 -244.64648,-31.595815 C -244.09311,-31.0294 -243.81642,-30.153749 -243.81641,-28.968862 L -243.81641,-21.849721 L -245.56445,-21.849721 L -245.56445,-28.382924 C -245.56447,-29.086042 -245.62306,-29.590599 -245.74023,-29.896596 C -245.85092,-30.209088 -246.056,-30.459739 -246.35547,-30.648549 C -246.65496,-30.837343 -247.00652,-30.931744 -247.41016,-30.931753 C -248.13933,-30.931744 -248.7448,-30.687603 -249.22656,-30.199331 C -249.70834,-29.717552 -249.94923,-28.942813 -249.94922,-27.875112 L -249.94922,-21.849721 L -251.70703,-21.849721 L -251.70703,-28.588003 C -251.70704,-29.369245 -251.85027,-29.955182 -252.13672,-30.345815 C -252.42318,-30.736431 -252.89193,-30.931744 -253.54297,-30.931753 C -254.03777,-30.931744 -254.49675,-30.801535 -254.91992,-30.541128 C -255.33659,-30.280702 -255.63933,-29.899843 -255.82812,-29.398549 C -256.01693,-28.89724 -256.11133,-28.174585 -256.11133,-27.230581 L -256.11133,-21.849721 L -257.86914,-21.849721 M -241.14062,-34.144643 L -241.14062,-36.166128 L -239.38281,-36.166128 L -239.38281,-34.144643 L -241.14062,-34.144643 M -241.14062,-21.849721 L -241.14062,-32.220815 L -239.38281,-32.220815 L -239.38281,-21.849721 L -241.14062,-21.849721 M -237.40039,-24.945424 L -235.66211,-25.218862 C -235.56446,-24.522245 -235.29427,-23.988391 -234.85156,-23.617299 C -234.40235,-23.246204 -233.77735,-23.060658 -232.97656,-23.060659 C -232.16928,-23.060658 -231.57032,-23.223418 -231.17969,-23.54894 C -230.78907,-23.880969 -230.59376,-24.268339 -230.59375,-24.711049 C -230.59376,-25.108182 -230.76628,-25.420681 -231.11133,-25.648549 C -231.35222,-25.804796 -231.95118,-26.003363 -232.9082,-26.244253 C -234.19727,-26.569769 -235.09245,-26.849716 -235.59375,-27.084096 C -236.08854,-27.324976 -236.46615,-27.653752 -236.72656,-28.070424 C -236.98047,-28.493595 -237.10742,-28.959089 -237.10742,-29.466909 C -237.10742,-29.92914 -237.00326,-30.355572 -236.79492,-30.746206 C -236.58008,-31.143332 -236.29037,-31.472108 -235.92578,-31.732534 C -235.65235,-31.934347 -235.28125,-32.103617 -234.8125,-32.240346 C -234.33724,-32.383565 -233.82943,-32.455179 -233.28906,-32.45519 C -232.47527,-32.455179 -231.76238,-32.337992 -231.15039,-32.103628 C -230.53191,-31.869243 -230.07618,-31.550232 -229.7832,-31.146596 C -229.49024,-30.749452 -229.28842,-30.215598 -229.17773,-29.545034 L -230.89648,-29.310659 C -230.97462,-29.844505 -231.20248,-30.261171 -231.58008,-30.560659 C -231.95118,-30.860129 -232.47852,-31.009868 -233.16211,-31.009878 C -233.96941,-31.009868 -234.54558,-30.876405 -234.89062,-30.609487 C -235.23568,-30.342551 -235.40821,-30.030052 -235.4082,-29.671987 C -235.40821,-29.444115 -235.33659,-29.239037 -235.19336,-29.056753 C -235.05013,-28.867943 -234.82552,-28.711694 -234.51953,-28.588003 C -234.34375,-28.522892 -233.82618,-28.373152 -232.9668,-28.138784 C -231.72331,-27.806747 -230.85743,-27.533309 -230.36914,-27.318471 C -229.87436,-27.110133 -229.48699,-26.804143 -229.20703,-26.400503 C -228.92709,-25.996853 -228.78712,-25.495551 -228.78711,-24.896596 C -228.78712,-24.310656 -228.95964,-23.757272 -229.30469,-23.23644 C -229.64324,-22.722116 -230.13477,-22.321726 -230.7793,-22.035268 C -231.42383,-21.75532 -232.153,-21.615347 -232.9668,-21.615346 C -234.31446,-21.615347 -235.3431,-21.895294 -236.05273,-22.45519 C -236.75586,-23.015085 -237.20508,-23.845162 -237.40039,-24.945424 M -219.92969,-25.648549 L -218.20117,-25.42394 C -218.38998,-24.232531 -218.87501,-23.298288 -219.65625,-22.621206 C -220.431,-21.950633 -221.38477,-21.615347 -222.51758,-21.615346 C -223.93685,-21.615347 -225.07943,-22.077586 -225.94531,-23.002065 C -226.80469,-23.933053 -227.23438,-25.264431 -227.23438,-26.996206 C -227.23438,-28.115991 -227.04883,-29.095808 -226.67773,-29.935659 C -226.30664,-30.775494 -225.74349,-31.403748 -224.98828,-31.820424 C -224.22657,-32.243591 -223.39974,-32.455179 -222.50781,-32.45519 C -221.38152,-32.455179 -220.46029,-32.168721 -219.74414,-31.595815 C -219.028,-31.0294 -218.56902,-30.222109 -218.36719,-29.17394 L -220.07617,-28.910268 C -220.23894,-29.606875 -220.52865,-30.130963 -220.94531,-30.482534 C -221.35548,-30.834087 -221.85352,-31.009868 -222.43945,-31.009878 C -223.32487,-31.009868 -224.04427,-30.690858 -224.59766,-30.052846 C -225.15104,-29.421328 -225.42774,-28.418725 -225.42773,-27.045034 C -225.42774,-25.651801 -225.16081,-24.639432 -224.62695,-24.007924 C -224.0931,-23.376413 -223.39649,-23.060658 -222.53711,-23.060659 C -221.84701,-23.060658 -221.27084,-23.272246 -220.80859,-23.695424 C -220.34636,-24.118599 -220.05339,-24.76964 -219.92969,-25.648549 M -216.69727,-21.849721 L -216.69727,-36.166128 L -214.93945,-36.166128 L -214.93945,-31.029409 C -214.11914,-31.97992 -213.08399,-32.455179 -211.83398,-32.45519 C -211.06576,-32.455179 -210.39845,-32.302185 -209.83203,-31.996206 C -209.26563,-31.696717 -208.86199,-31.28005 -208.62109,-30.746206 C -208.37371,-30.212343 -208.25001,-29.437604 -208.25,-28.421987 L -208.25,-21.849721 L -210.00781,-21.849721 L -210.00781,-28.421987 C -210.00782,-29.300886 -210.19988,-29.938906 -210.58398,-30.336049 C -210.9616,-30.739686 -211.4987,-30.941509 -212.19531,-30.941518 C -212.71615,-30.941509 -213.20769,-30.804791 -213.66992,-30.531362 C -214.12565,-30.264426 -214.45118,-29.899843 -214.64648,-29.437612 C -214.8418,-28.975365 -214.93946,-28.337345 -214.93945,-27.523549 L -214.93945,-21.849721 L -216.69727,-21.849721 M -198.46484,-25.189565 L -196.64844,-24.964956 C -196.93491,-23.903756 -197.4655,-23.080189 -198.24023,-22.494253 C -199.01498,-21.908315 -200.00456,-21.615347 -201.20898,-21.615346 C -202.72592,-21.615347 -203.93034,-22.080841 -204.82227,-23.011831 C -205.70768,-23.949329 -206.15039,-25.261176 -206.15039,-26.947378 C -206.15039,-28.692162 -205.70117,-30.046328 -204.80273,-31.009878 C -203.9043,-31.973409 -202.73894,-32.455179 -201.30664,-32.45519 C -199.91993,-32.455179 -198.78712,-31.983175 -197.9082,-31.039174 C -197.02931,-30.095156 -196.58985,-28.767032 -196.58984,-27.054799 C -196.58985,-26.950628 -196.59311,-26.794378 -196.59961,-26.586049 L -204.33398,-26.586049 C -204.26888,-25.446723 -203.94662,-24.574328 -203.36719,-23.968862 C -202.78776,-23.363392 -202.06511,-23.060658 -201.19922,-23.060659 C -200.55469,-23.060658 -200.00456,-23.229928 -199.54883,-23.568471 C -199.09311,-23.907011 -198.73178,-24.447375 -198.46484,-25.189565 M -204.23633,-28.031362 L -198.44531,-28.031362 C -198.52345,-28.903751 -198.7448,-29.558047 -199.10938,-29.994253 C -199.66928,-30.671327 -200.39519,-31.009868 -201.28711,-31.009878 C -202.09441,-31.009868 -202.77474,-30.739686 -203.32812,-30.199331 C -203.875,-29.658958 -204.17774,-28.936303 -204.23633,-28.031362 M -185.36914,-21.849721 L -185.36914,-34.476674 L -190.08594,-34.476674 L -190.08594,-36.166128 L -178.73828,-36.166128 L -178.73828,-34.476674 L -183.47461,-34.476674 L -183.47461,-21.849721 L -185.36914,-21.849721 M -172.39062,-23.129018 C -173.04167,-22.575632 -173.66993,-22.185007 -174.27539,-21.957143 C -174.87435,-21.729279 -175.51889,-21.615347 -176.20898,-21.615346 C -177.34831,-21.615347 -178.22396,-21.892039 -178.83594,-22.445424 C -179.44792,-23.005319 -179.75391,-23.718209 -179.75391,-24.584096 C -179.75391,-25.091906 -179.63997,-25.554145 -179.41211,-25.970815 C -179.17774,-26.393988 -178.875,-26.732529 -178.50391,-26.98644 C -178.1263,-27.240341 -177.70313,-27.432398 -177.23438,-27.562612 C -176.88933,-27.653752 -176.36849,-27.741643 -175.67188,-27.826284 C -174.25261,-27.995549 -173.20769,-28.197371 -172.53711,-28.431753 C -172.53061,-28.672631 -172.52735,-28.825626 -172.52734,-28.890737 C -172.52735,-29.606875 -172.69337,-30.111432 -173.02539,-30.404409 C -173.47462,-30.801535 -174.14193,-31.000103 -175.02734,-31.000112 C -175.85417,-31.000103 -176.46615,-30.853619 -176.86328,-30.560659 C -177.25391,-30.274192 -177.54362,-29.763125 -177.73242,-29.027456 L -179.45117,-29.261831 C -179.29492,-29.9975 -179.03776,-30.589947 -178.67969,-31.039174 C -178.32162,-31.494894 -177.80404,-31.843201 -177.12695,-32.084096 C -176.44987,-32.331482 -175.66537,-32.455179 -174.77344,-32.45519 C -173.88803,-32.455179 -173.16863,-32.351013 -172.61523,-32.14269 C -172.06186,-31.934347 -171.65496,-31.670675 -171.39453,-31.351674 C -171.13412,-31.039165 -170.95183,-30.64203 -170.84766,-30.160268 C -170.78907,-29.860781 -170.75978,-29.320417 -170.75977,-28.539174 L -170.75977,-26.195424 C -170.75978,-24.561307 -170.72397,-23.526152 -170.65234,-23.089956 C -170.57423,-22.660267 -170.42449,-22.246856 -170.20312,-21.849721 L -172.03906,-21.849721 C -172.22136,-22.214304 -172.33855,-22.640736 -172.39062,-23.129018 M -172.53711,-27.054799 C -173.17514,-26.794378 -174.13217,-26.573024 -175.4082,-26.390737 C -176.13086,-26.286566 -176.64193,-26.169378 -176.94141,-26.039174 C -177.24089,-25.908962 -177.47201,-25.716905 -177.63477,-25.463003 C -177.79753,-25.215603 -177.87891,-24.938911 -177.87891,-24.632924 C -177.87891,-24.164172 -177.70313,-23.773548 -177.35156,-23.461049 C -176.99349,-23.148548 -176.47266,-22.992298 -175.78906,-22.992299 C -175.11198,-22.992298 -174.50977,-23.138783 -173.98242,-23.431753 C -173.45509,-23.73123 -173.06772,-24.138131 -172.82031,-24.652456 C -172.63152,-25.049588 -172.53712,-25.635525 -172.53711,-26.410268 L -172.53711,-27.054799 M -168.72852,-24.945424 L -166.99023,-25.218862 C -166.89258,-24.522245 -166.6224,-23.988391 -166.17969,-23.617299 C -165.73047,-23.246204 -165.10547,-23.060658 -164.30469,-23.060659 C -163.4974,-23.060658 -162.89844,-23.223418 -162.50781,-23.54894 C -162.11719,-23.880969 -161.92188,-24.268339 -161.92188,-24.711049 C -161.92188,-25.108182 -162.09441,-25.420681 -162.43945,-25.648549 C -162.68035,-25.804796 -163.2793,-26.003363 -164.23633,-26.244253 C -165.52539,-26.569769 -166.42058,-26.849716 -166.92188,-27.084096 C -167.41667,-27.324976 -167.79427,-27.653752 -168.05469,-28.070424 C -168.30859,-28.493595 -168.43555,-28.959089 -168.43555,-29.466909 C -168.43555,-29.92914 -168.33138,-30.355572 -168.12305,-30.746206 C -167.9082,-31.143332 -167.61849,-31.472108 -167.25391,-31.732534 C -166.98047,-31.934347 -166.60938,-32.103617 -166.14062,-32.240346 C -165.66537,-32.383565 -165.15756,-32.455179 -164.61719,-32.45519 C -163.80339,-32.455179 -163.0905,-32.337992 -162.47852,-32.103628 C -161.86003,-31.869243 -161.4043,-31.550232 -161.11133,-31.146596 C -160.81837,-30.749452 -160.61655,-30.215598 -160.50586,-29.545034 L -162.22461,-29.310659 C -162.30274,-29.844505 -162.53061,-30.261171 -162.9082,-30.560659 C -163.2793,-30.860129 -163.80665,-31.009868 -164.49023,-31.009878 C -165.29753,-31.009868 -165.8737,-30.876405 -166.21875,-30.609487 C -166.5638,-30.342551 -166.73633,-30.030052 -166.73633,-29.671987 C -166.73633,-29.444115 -166.66472,-29.239037 -166.52148,-29.056753 C -166.37826,-28.867943 -166.15365,-28.711694 -165.84766,-28.588003 C -165.67188,-28.522892 -165.1543,-28.373152 -164.29492,-28.138784 C -163.05144,-27.806747 -162.18555,-27.533309 -161.69727,-27.318471 C -161.20248,-27.110133 -160.81511,-26.804143 -160.53516,-26.400503 C -160.25522,-25.996853 -160.11524,-25.495551 -160.11523,-24.896596 C -160.11524,-24.310656 -160.28777,-23.757272 -160.63281,-23.23644 C -160.97136,-22.722116 -161.4629,-22.321726 -162.10742,-22.035268 C -162.75196,-21.75532 -163.48113,-21.615347 -164.29492,-21.615346 C -165.64258,-21.615347 -166.67123,-21.895294 -167.38086,-22.45519 C -168.08399,-23.015085 -168.5332,-23.845162 -168.72852,-24.945424 M -154.1875,-23.421987 L -153.93359,-21.869253 C -154.42839,-21.765086 -154.8711,-21.713003 -155.26172,-21.713003 C -155.89974,-21.713003 -156.39453,-21.813914 -156.74609,-22.015737 C -157.09766,-22.21756 -157.34505,-22.481231 -157.48828,-22.806753 C -157.63151,-23.138783 -157.70313,-23.832141 -157.70312,-24.886831 L -157.70312,-30.853628 L -158.99219,-30.853628 L -158.99219,-32.220815 L -157.70312,-32.220815 L -157.70312,-34.789174 L -155.95508,-35.843862 L -155.95508,-32.220815 L -154.1875,-32.220815 L -154.1875,-30.853628 L -155.95508,-30.853628 L -155.95508,-24.789174 C -155.95508,-24.28787 -155.92578,-23.965605 -155.86719,-23.822378 C -155.80209,-23.679147 -155.70118,-23.565214 -155.56445,-23.480581 C -155.42123,-23.395944 -155.21941,-23.353626 -154.95898,-23.353628 C -154.76368,-23.353626 -154.50652,-23.376413 -154.1875,-23.421987 M -145.71094,-23.129018 C -146.36199,-22.575632 -146.99024,-22.185007 -147.5957,-21.957143 C -148.19467,-21.729279 -148.8392,-21.615347 -149.5293,-21.615346 C -150.66862,-21.615347 -151.54427,-21.892039 -152.15625,-22.445424 C -152.76823,-23.005319 -153.07422,-23.718209 -153.07422,-24.584096 C -153.07422,-25.091906 -152.96029,-25.554145 -152.73242,-25.970815 C -152.49805,-26.393988 -152.19531,-26.732529 -151.82422,-26.98644 C -151.44662,-27.240341 -151.02344,-27.432398 -150.55469,-27.562612 C -150.20964,-27.653752 -149.68881,-27.741643 -148.99219,-27.826284 C -147.57292,-27.995549 -146.528,-28.197371 -145.85742,-28.431753 C -145.85092,-28.672631 -145.84766,-28.825626 -145.84766,-28.890737 C -145.84766,-29.606875 -146.01368,-30.111432 -146.3457,-30.404409 C -146.79493,-30.801535 -147.46225,-31.000103 -148.34766,-31.000112 C -149.17448,-31.000103 -149.78646,-30.853619 -150.18359,-30.560659 C -150.57422,-30.274192 -150.86394,-29.763125 -151.05273,-29.027456 L -152.77148,-29.261831 C -152.61524,-29.9975 -152.35807,-30.589947 -152,-31.039174 C -151.64193,-31.494894 -151.12435,-31.843201 -150.44727,-32.084096 C -149.77019,-32.331482 -148.98568,-32.455179 -148.09375,-32.45519 C -147.20834,-32.455179 -146.48894,-32.351013 -145.93555,-32.14269 C -145.38217,-31.934347 -144.97527,-31.670675 -144.71484,-31.351674 C -144.45444,-31.039165 -144.27214,-30.64203 -144.16797,-30.160268 C -144.10938,-29.860781 -144.08009,-29.320417 -144.08008,-28.539174 L -144.08008,-26.195424 C -144.08009,-24.561307 -144.04428,-23.526152 -143.97266,-23.089956 C -143.89454,-22.660267 -143.7448,-22.246856 -143.52344,-21.849721 L -145.35938,-21.849721 C -145.54167,-22.214304 -145.65886,-22.640736 -145.71094,-23.129018 M -145.85742,-27.054799 C -146.49545,-26.794378 -147.45248,-26.573024 -148.72852,-26.390737 C -149.45118,-26.286566 -149.96224,-26.169378 -150.26172,-26.039174 C -150.5612,-25.908962 -150.79232,-25.716905 -150.95508,-25.463003 C -151.11784,-25.215603 -151.19922,-24.938911 -151.19922,-24.632924 C -151.19922,-24.164172 -151.02344,-23.773548 -150.67188,-23.461049 C -150.31381,-23.148548 -149.79297,-22.992298 -149.10938,-22.992299 C -148.4323,-22.992298 -147.83008,-23.138783 -147.30273,-23.431753 C -146.7754,-23.73123 -146.38803,-24.138131 -146.14062,-24.652456 C -145.95183,-25.049588 -145.85743,-25.635525 -145.85742,-26.410268 L -145.85742,-27.054799 M -137.50781,-23.421987 L -137.25391,-21.869253 C -137.7487,-21.765086 -138.19141,-21.713003 -138.58203,-21.713003 C -139.22006,-21.713003 -139.71485,-21.813914 -140.06641,-22.015737 C -140.41797,-22.21756 -140.66537,-22.481231 -140.80859,-22.806753 C -140.95182,-23.138783 -141.02344,-23.832141 -141.02344,-24.886831 L -141.02344,-30.853628 L -142.3125,-30.853628 L -142.3125,-32.220815 L -141.02344,-32.220815 L -141.02344,-34.789174 L -139.27539,-35.843862 L -139.27539,-32.220815 L -137.50781,-32.220815 L -137.50781,-30.853628 L -139.27539,-30.853628 L -139.27539,-24.789174 C -139.27539,-24.28787 -139.2461,-23.965605 -139.1875,-23.822378 C -139.1224,-23.679147 -139.02149,-23.565214 -138.88477,-23.480581 C -138.74154,-23.395944 -138.53972,-23.353626 -138.2793,-23.353628 C -138.08399,-23.353626 -137.82683,-23.376413 -137.50781,-23.421987 M -129.00195,-21.849721 L -129.00195,-23.373159 C -129.80925,-22.201283 -130.90626,-21.615347 -132.29297,-21.615346 C -132.90495,-21.615347 -133.47787,-21.732534 -134.01172,-21.966909 C -134.53907,-22.201283 -134.93294,-22.494252 -135.19336,-22.845815 C -135.44727,-23.203887 -135.6263,-23.640084 -135.73047,-24.154409 C -135.80208,-24.499458 -135.83789,-25.046333 -135.83789,-25.795034 L -135.83789,-32.220815 L -134.08008,-32.220815 L -134.08008,-26.468862 C -134.08008,-25.55089 -134.04427,-24.932401 -133.97266,-24.613393 C -133.86198,-24.151151 -133.62761,-23.786568 -133.26953,-23.519643 C -132.91146,-23.259225 -132.46875,-23.129017 -131.94141,-23.129018 C -131.41407,-23.129017 -130.91928,-23.26248 -130.45703,-23.529409 C -129.9948,-23.802844 -129.66928,-24.170683 -129.48047,-24.632924 C -129.28516,-25.101671 -129.18751,-25.778754 -129.1875,-26.664174 L -129.1875,-32.220815 L -127.42969,-32.220815 L -127.42969,-21.849721 L -129.00195,-21.849721 M -124.68555,-21.849721 L -124.68555,-32.220815 L -123.10352,-32.220815 L -123.10352,-30.648549 C -122.69987,-31.384217 -122.32878,-31.869243 -121.99023,-32.103628 C -121.64519,-32.337992 -121.26758,-32.455179 -120.85742,-32.45519 C -120.26498,-32.455179 -119.66277,-32.266378 -119.05078,-31.888784 L -119.65625,-30.257924 C -120.08594,-30.511822 -120.51563,-30.638775 -120.94531,-30.638784 C -121.32943,-30.638775 -121.67448,-30.521588 -121.98047,-30.287221 C -122.28646,-30.059349 -122.50456,-29.740338 -122.63477,-29.33019 C -122.83008,-28.705183 -122.92774,-28.02159 -122.92773,-27.279409 L -122.92773,-21.849721 L -124.68555,-21.849721 M -116.36523,-21.849721 L -117.99609,-21.849721 L -117.99609,-36.166128 L -116.23828,-36.166128 L -116.23828,-31.058706 C -115.4961,-31.989685 -114.54883,-32.455179 -113.39648,-32.45519 C -112.75847,-32.455179 -112.15626,-32.324971 -111.58984,-32.064565 C -111.01694,-31.810649 -110.54819,-31.449321 -110.18359,-30.980581 C -109.81251,-30.518332 -109.5228,-29.958437 -109.31445,-29.300893 C -109.10613,-28.643334 -109.00196,-27.94021 -109.00195,-27.191518 C -109.00196,-25.414171 -109.44142,-24.040474 -110.32031,-23.070424 C -111.19923,-22.100372 -112.25391,-21.615347 -113.48438,-21.615346 C -114.70834,-21.615347 -115.66862,-22.126414 -116.36523,-23.148549 L -116.36523,-21.849721 M -116.38477,-27.113393 C -116.38477,-25.8699 -116.2155,-24.971463 -115.87695,-24.418081 C -115.32357,-23.513131 -114.57487,-23.060658 -113.63086,-23.060659 C -112.86264,-23.060658 -112.19857,-23.392689 -111.63867,-24.056753 C -111.07878,-24.727323 -110.79884,-25.723415 -110.79883,-27.045034 C -110.79884,-28.399194 -111.06902,-29.398542 -111.60938,-30.043081 C -112.14324,-30.687603 -112.79102,-31.009868 -113.55273,-31.009878 C -114.32097,-31.009868 -114.98503,-30.674582 -115.54492,-30.004018 C -116.10482,-29.339948 -116.38477,-28.376408 -116.38477,-27.113393 M -99.753906,-25.189565 L -97.9375,-24.964956 C -98.223968,-23.903756 -98.754567,-23.080189 -99.529297,-22.494253 C -100.30404,-21.908315 -101.29363,-21.615347 -102.49805,-21.615346 C -104.01498,-21.615347 -105.2194,-22.080841 -106.11133,-23.011831 C -106.99675,-23.949329 -107.43945,-25.261176 -107.43945,-26.947378 C -107.43945,-28.692162 -106.99024,-30.046328 -106.0918,-31.009878 C -105.19336,-31.973409 -104.028,-32.455179 -102.5957,-32.45519 C -101.20899,-32.455179 -100.07618,-31.983175 -99.197266,-31.039174 C -98.318369,-30.095156 -97.878917,-28.767032 -97.878906,-27.054799 C -97.878917,-26.950628 -97.882172,-26.794378 -97.888672,-26.586049 L -105.62305,-26.586049 C -105.55795,-25.446723 -105.23568,-24.574328 -104.65625,-23.968862 C -104.07683,-23.363392 -103.35417,-23.060658 -102.48828,-23.060659 C -101.84376,-23.060658 -101.29363,-23.229928 -100.83789,-23.568471 C -100.38217,-23.907011 -100.02084,-24.447375 -99.753906,-25.189565 M -105.52539,-28.031362 L -99.734375,-28.031362 C -99.812508,-28.903751 -100.03386,-29.558047 -100.39844,-29.994253 C -100.95834,-30.671327 -101.68425,-31.009868 -102.57617,-31.009878 C -103.38347,-31.009868 -104.06381,-30.739686 -104.61719,-30.199331 C -105.16407,-29.658958 -105.4668,-28.936303 -105.52539,-28.031362 M -95.759766,-21.849721 L -95.759766,-36.166128 L -94.001953,-36.166128 L -94.001953,-21.849721 L -95.759766,-21.849721 M -84.167969,-25.189565 L -82.351562,-24.964956 C -82.638031,-23.903756 -83.168629,-23.080189 -83.943359,-22.494253 C -84.718107,-21.908315 -85.707689,-21.615347 -86.912109,-21.615346 C -88.429041,-21.615347 -89.633466,-22.080841 -90.525391,-23.011831 C -91.410808,-23.949329 -91.853516,-25.261176 -91.853516,-26.947378 C -91.853516,-28.692162 -91.404298,-30.046328 -90.505859,-31.009878 C -89.607425,-31.973409 -88.442061,-32.455179 -87.009766,-32.45519 C -85.623054,-32.455179 -84.490242,-31.983175 -83.611328,-31.039174 C -82.732432,-30.095156 -82.292979,-28.767032 -82.292969,-27.054799 C -82.292979,-26.950628 -82.296234,-26.794378 -82.302734,-26.586049 L -90.037109,-26.586049 C -89.972008,-25.446723 -89.649743,-24.574328 -89.070312,-23.968862 C -88.49089,-23.363392 -87.768234,-23.060658 -86.902344,-23.060659 C -86.257819,-23.060658 -85.707689,-23.229928 -85.251953,-23.568471 C -84.796232,-23.907011 -84.434904,-24.447375 -84.167969,-25.189565 M -89.939453,-28.031362 L -84.148438,-28.031362 C -84.226571,-28.903751 -84.447925,-29.558047 -84.8125,-29.994253 C -85.372403,-30.671327 -86.098314,-31.009868 -86.990234,-31.009878 C -87.797531,-31.009868 -88.477869,-30.739686 -89.03125,-30.199331 C -89.578128,-29.658958 -89.880862,-28.936303 -89.939453,-28.031362 M -80.457031,-20.990346 L -78.748047,-20.73644 C -78.676435,-20.209098 -78.477868,-19.824984 -78.152344,-19.584096 C -77.71615,-19.258578 -77.120447,-19.095818 -76.365234,-19.095815 C -75.551438,-19.095818 -74.923184,-19.258578 -74.480469,-19.584096 C -74.037768,-19.909619 -73.738289,-20.365348 -73.582031,-20.951284 C -73.490893,-21.309357 -73.448576,-22.06131 -73.455078,-23.207143 C -74.223315,-22.302195 -75.180345,-21.849721 -76.326172,-21.849721 C -77.751957,-21.849721 -78.855471,-22.364044 -79.636719,-23.39269 C -80.41797,-24.421333 -80.808594,-25.655056 -80.808594,-27.093862 C -80.808594,-28.083439 -80.629558,-28.994896 -80.271484,-29.828237 C -79.913413,-30.668072 -79.395835,-31.315858 -78.71875,-31.771596 C -78.03516,-32.227315 -77.234379,-32.455179 -76.316406,-32.45519 C -75.092454,-32.455179 -74.083341,-31.960388 -73.289062,-30.970815 L -73.289062,-32.220815 L -71.667969,-32.220815 L -71.667969,-23.255971 C -71.667979,-21.641388 -71.833994,-20.498811 -72.166016,-19.828237 C -72.491545,-19.151156 -73.012378,-18.617303 -73.728516,-18.226674 C -74.438158,-17.836053 -75.313808,-17.640741 -76.355469,-17.640737 C -77.592452,-17.640741 -78.5918,-17.920689 -79.353516,-18.480581 C -80.115236,-19.033969 -80.483074,-19.870557 -80.457031,-20.990346 M -79.001953,-27.220815 C -79.001956,-25.860134 -78.731774,-24.867296 -78.191406,-24.242299 C -77.651045,-23.617298 -76.973963,-23.304798 -76.160156,-23.304799 C -75.352871,-23.304798 -74.675788,-23.614042 -74.128906,-24.232534 C -73.582039,-24.857531 -73.308602,-25.834092 -73.308594,-27.162221 C -73.308602,-28.431746 -73.591805,-29.388776 -74.158203,-30.033315 C -74.718106,-30.677838 -75.395188,-31.000103 -76.189453,-31.000112 C -76.970708,-31.000103 -77.634769,-30.681093 -78.181641,-30.043081 C -78.728518,-29.411563 -79.001956,-28.470808 -79.001953,-27.220815 M -62.205078,-21.849721 L -62.205078,-23.373159 C -63.012377,-22.201283 -64.109381,-21.615347 -65.496094,-21.615346 C -66.108077,-21.615347 -66.680993,-21.732534 -67.214844,-21.966909 C -67.74219,-22.201283 -68.13607,-22.494252 -68.396484,-22.845815 C -68.650392,-23.203887 -68.829429,-23.640084 -68.933594,-24.154409 C -69.00521,-24.499458 -69.041017,-25.046333 -69.041016,-25.795034 L -69.041016,-32.220815 L -67.283203,-32.220815 L -67.283203,-26.468862 C -67.283206,-25.55089 -67.247399,-24.932401 -67.175781,-24.613393 C -67.065107,-24.151151 -66.830733,-23.786568 -66.472656,-23.519643 C -66.114588,-23.259225 -65.67188,-23.129017 -65.144531,-23.129018 C -64.617193,-23.129017 -64.122402,-23.26248 -63.660156,-23.529409 C -63.197924,-23.802844 -62.872403,-24.170683 -62.683594,-24.632924 C -62.488289,-25.101671 -62.390633,-25.778754 -62.390625,-26.664174 L -62.390625,-32.220815 L -60.632812,-32.220815 L -60.632812,-21.849721 L -62.205078,-21.849721 M -57.869141,-21.849721 L -57.869141,-32.220815 L -56.287109,-32.220815 L -56.287109,-30.746206 C -55.525394,-31.885519 -54.425135,-32.455179 -52.986328,-32.45519 C -52.361335,-32.455179 -51.788419,-32.341247 -51.267578,-32.113393 C -50.740243,-31.892029 -50.346363,-31.599061 -50.085938,-31.234487 C -49.82553,-30.869895 -49.643239,-30.436952 -49.539062,-29.935659 C -49.473968,-29.61013 -49.441416,-29.040469 -49.441406,-28.226674 L -49.441406,-21.849721 L -51.199219,-21.849721 L -51.199219,-28.158315 C -51.199227,-28.874454 -51.267586,-29.408308 -51.404297,-29.759878 C -51.541023,-30.117942 -51.785164,-30.401145 -52.136719,-30.609487 C -52.481778,-30.824322 -52.888678,-30.931744 -53.357422,-30.931753 C -54.106125,-30.931744 -54.753911,-30.694114 -55.300781,-30.218862 C -55.841149,-29.743594 -56.111331,-28.841902 -56.111328,-27.513784 L -56.111328,-21.849721 L -57.869141,-21.849721 M -47.058594,-20.990346 L -45.349609,-20.73644 C -45.277998,-20.209098 -45.07943,-19.824984 -44.753906,-19.584096 C -44.317712,-19.258578 -43.72201,-19.095818 -42.966797,-19.095815 C -42.153001,-19.095818 -41.524746,-19.258578 -41.082031,-19.584096 C -40.63933,-19.909619 -40.339851,-20.365348 -40.183594,-20.951284 C -40.092456,-21.309357 -40.050138,-22.06131 -40.056641,-23.207143 C -40.824877,-22.302195 -41.781907,-21.849721 -42.927734,-21.849721 C -44.353519,-21.849721 -45.457034,-22.364044 -46.238281,-23.39269 C -47.019532,-24.421333 -47.410157,-25.655056 -47.410156,-27.093862 C -47.410157,-28.083439 -47.231121,-28.994896 -46.873047,-29.828237 C -46.514975,-30.668072 -45.997398,-31.315858 -45.320312,-31.771596 C -44.636722,-32.227315 -43.835942,-32.455179 -42.917969,-32.45519 C -41.694017,-32.455179 -40.684903,-31.960388 -39.890625,-30.970815 L -39.890625,-32.220815 L -38.269531,-32.220815 L -38.269531,-23.255971 C -38.269541,-21.641388 -38.435556,-20.498811 -38.767578,-19.828237 C -39.093108,-19.151156 -39.613941,-18.617303 -40.330078,-18.226674 C -41.039721,-17.836053 -41.915371,-17.640741 -42.957031,-17.640737 C -44.194014,-17.640741 -45.193362,-17.920689 -45.955078,-18.480581 C -46.716798,-19.033969 -47.084636,-19.870557 -47.058594,-20.990346 M -45.603516,-27.220815 C -45.603518,-25.860134 -45.333336,-24.867296 -44.792969,-24.242299 C -44.252608,-23.617298 -43.575525,-23.304798 -42.761719,-23.304799 C -41.954433,-23.304798 -41.277351,-23.614042 -40.730469,-24.232534 C -40.183602,-24.857531 -39.910164,-25.834092 -39.910156,-27.162221 C -39.910164,-28.431746 -40.193367,-29.388776 -40.759766,-30.033315 C -41.319668,-30.677838 -41.996751,-31.000103 -42.791016,-31.000112 C -43.57227,-31.000103 -44.236332,-30.681093 -44.783203,-30.043081 C -45.330081,-29.411563 -45.603518,-28.470808 -45.603516,-27.220815"
       transform="matrix(0.5435969,0,0,0.5435969,423.30852,303.63102)"
       style="font-size:20px;display:inline"
       id="flowRoot7775" />
    <path
       d="M -116.94141,-170.90767 C -116.94141,-171.32693 -116.83659,-171.75531 -116.62695,-172.19282 C -116.41732,-172.63031 -116.1211,-173.04047 -115.73828,-173.42329 C -115.35547,-173.8152 -114.8405,-174.13421 -114.19336,-174.38032 C -113.54623,-174.6264 -112.83073,-174.74945 -112.04688,-174.74946 C -111.39063,-174.74945 -110.7754,-174.68565 -110.20117,-174.55806 C -109.62696,-174.43044 -109.07553,-174.2208 -108.54688,-173.92915 C -108.01824,-173.63747 -107.59897,-173.20909 -107.28906,-172.644 C -106.97918,-172.08799 -106.82423,-171.41807 -106.82422,-170.63423 C -106.82423,-170.31521 -106.86525,-169.9962 -106.94727,-169.6772 C -107.02931,-169.36729 -107.17058,-169.04373 -107.37109,-168.7065 C -107.57163,-168.36925 -107.77215,-168.06391 -107.97266,-167.79048 C -108.16407,-167.51703 -108.44662,-167.18435 -108.82031,-166.79243 C -109.18491,-166.40961 -109.49936,-166.08605 -109.76367,-165.82173 C -110.01889,-165.56652 -110.38803,-165.20649 -110.87109,-164.74165 C -112.95834,-162.75467 -114.00196,-161.30089 -114.00195,-160.38032 L -109.81836,-160.38032 C -109.30795,-160.38032 -108.92514,-160.53071 -108.66992,-160.8315 C -108.41472,-161.14139 -108.15952,-161.74295 -107.9043,-162.63618 L -106.71484,-162.39009 C -106.94272,-161.43306 -107.1478,-160.15702 -107.33008,-158.56196 L -117.13281,-158.56196 C -117.13281,-159.15441 -117.07813,-159.66483 -116.96875,-160.09321 C -116.85026,-160.5216 -116.56771,-161.07303 -116.12109,-161.74751 C -115.66537,-162.4311 -115,-163.22407 -114.125,-164.12642 L -112.18359,-166.13618 C -111.44532,-166.9018 -110.91212,-167.61274 -110.58398,-168.269 C -110.25587,-168.92524 -110.09181,-169.67719 -110.0918,-170.52486 C -110.09181,-171.09906 -110.16928,-171.60036 -110.32422,-172.02876 C -110.47006,-172.46625 -110.66147,-172.79437 -110.89844,-173.01314 C -111.12631,-173.24099 -111.35417,-173.40505 -111.58203,-173.50532 C -111.80079,-173.61468 -112.01498,-173.66937 -112.22461,-173.66939 C -112.88086,-173.66937 -113.37305,-173.50531 -113.70117,-173.1772 C -114.02019,-172.84906 -114.17969,-172.49359 -114.17969,-172.11079 C -114.17969,-171.84646 -114.14779,-171.62315 -114.08398,-171.44087 C -114.01107,-171.24034 -113.97461,-171.05349 -113.97461,-170.88032 C -113.97461,-170.51573 -114.125,-170.23773 -114.42578,-170.04634 C -114.72657,-169.86404 -115.06381,-169.77289 -115.4375,-169.7729 C -115.85677,-169.77289 -116.21224,-169.88227 -116.50391,-170.10103 C -116.79557,-170.31977 -116.94141,-170.58865 -116.94141,-170.90767 M -103.17383,-158.67134 C -103.47461,-158.98124 -103.625,-159.35038 -103.625,-159.77876 C -103.625,-160.20715 -103.47461,-160.57173 -103.17383,-160.87251 C -102.86393,-161.1824 -102.49479,-161.33735 -102.06641,-161.33736 C -101.63802,-161.33735 -101.27344,-161.1824 -100.97266,-160.87251 C -100.66277,-160.57173 -100.50782,-160.20715 -100.50781,-159.77876 C -100.50782,-159.35038 -100.66277,-158.98124 -100.97266,-158.67134 C -101.27344,-158.37056 -101.63802,-158.22017 -102.06641,-158.22017 C -102.49479,-158.22017 -102.86393,-158.37056 -103.17383,-158.67134 M -92.099609,-173.56001 C -92.309251,-173.56 -92.509772,-173.50531 -92.701172,-173.39595 C -92.892584,-173.29567 -93.097662,-173.08148 -93.316406,-172.75337 C -93.535161,-172.43435 -93.72201,-172.01052 -93.876953,-171.48189 C -94.031906,-170.95323 -94.164067,-170.22406 -94.273438,-169.29439 C -94.373702,-168.3738 -94.423832,-167.30284 -94.423828,-166.0815 C -94.423832,-165.40701 -94.396489,-164.73253 -94.341797,-164.05806 C -94.277999,-163.38357 -94.173182,-162.66808 -94.027344,-161.91157 C -93.881515,-161.15506 -93.649094,-160.53983 -93.330078,-160.06587 C -93.011073,-159.59191 -92.628261,-159.35493 -92.181641,-159.35493 C -92.081387,-159.35493 -91.967455,-159.38228 -91.839844,-159.43696 C -91.712247,-159.50077 -91.561856,-159.60558 -91.388672,-159.75142 C -91.206388,-159.90636 -91.028653,-160.15246 -90.855469,-160.4897 C -90.6823,-160.83605 -90.531909,-161.25076 -90.404297,-161.73384 C -90.039722,-163.05545 -89.857431,-164.85102 -89.857422,-167.12056 C -89.857431,-168.76117 -90.003264,-170.0919 -90.294922,-171.11275 C -90.577482,-172.13357 -90.923836,-172.82172 -91.333984,-173.1772 C -91.598314,-173.43239 -91.853522,-173.56 -92.099609,-173.56001 M -92.208984,-158.22017 C -93.020188,-158.22017 -93.77214,-158.44348 -94.464844,-158.89009 C -95.157556,-159.3367 -95.736331,-159.93371 -96.201172,-160.68111 C -96.666018,-161.4285 -97.030601,-162.29438 -97.294922,-163.27876 C -97.550131,-164.27225 -97.677735,-165.30675 -97.677734,-166.38228 C -97.677735,-168.05935 -97.413413,-169.54503 -96.884766,-170.83931 C -96.356122,-172.13357 -95.672529,-173.10883 -94.833984,-173.76509 C -93.995447,-174.42132 -93.08399,-174.74945 -92.099609,-174.74946 C -91.434252,-174.74945 -90.764331,-174.56716 -90.089844,-174.20259 C -89.415374,-173.84711 -88.854828,-173.40049 -88.408203,-172.86275 C -87.223319,-171.2768 -86.630871,-169.19412 -86.630859,-166.6147 C -86.630871,-165.42068 -86.753918,-164.33605 -87,-163.36079 C -87.236991,-162.38553 -87.551443,-161.58345 -87.943359,-160.95454 C -88.326182,-160.33475 -88.768239,-159.81066 -89.269531,-159.38228 C -89.770842,-158.96301 -90.267587,-158.66678 -90.759766,-158.49361 C -91.242846,-158.31131 -91.725918,-158.22017 -92.208984,-158.22017"
       transform="matrix(0.5435969,0,0,0.5435969,434.86461,345.42122)"
       style="font-size:28px;font-style:normal;font-variant:normal;font-weight:bold;font-stretch:normal;text-align:start;line-height:64.99999762%;writing-mode:lr-tb;text-anchor:start;font-family:Linux Libertine"
       id="flowRoot8764" />
  </g>
</svg>
