<?xml version="1.0" encoding="UTF-8" standalone="no"?>
<svg
   xmlns:dc="http://purl.org/dc/elements/1.1/"
   xmlns:cc="http://creativecommons.org/ns#"
   xmlns:rdf="http://www.w3.org/1999/02/22-rdf-syntax-ns#"
   xmlns:svg="http://www.w3.org/2000/svg"
   xmlns="http://www.w3.org/2000/svg"
   xmlns:xlink="http://www.w3.org/1999/xlink"
   xmlns:sodipodi="http://sodipodi.sourceforge.net/DTD/sodipodi-0.dtd"
   xmlns:inkscape="http://www.inkscape.org/namespaces/inkscape"
   version="1.1"
   id="Ebene_1"
   width="535"
   height="183"
   viewBox="0 0 535 183"
   enable-background="new 0 0 535 183"
   xml:space="preserve"
   inkscape:version="0.48.5 r10040"
   sodipodi:docname="tastatur_e7.svg"
   inkscape:export-filename="/home/knittl/git/svn/neo/www/tastatur_e5.png"
   inkscape:export-xdpi="90"
   inkscape:export-ydpi="90">
  <metadata id="metadata135">
    <rdf:RDF>
      <cc:Work rdf:about="">
        <dc:format>image/svg+xml</dc:format>
        <dc:type rdf:resource="http://purl.org/dc/dcmitype/StillImage" />
        <dc:title />
      </cc:Work>
    </rdf:RDF>
  </metadata>
<defs id="defs">
<style type="text/css">
@import url('tastatur.css');
</style>

    <g id="padlock">
      <g>
        <path d="m -3,1 l 0,-2 a 3,3 0 1 1 6,0 l 0,2" style="stroke:#000000; stroke-width:1.2; fill:none;" />
        <rect width="10" height="8" x="-5" y="0" rx="1" style="fill:#000000; stroke:none;" />
      </g>

      <g transform="translate(0,3)" style="stroke:none;">
        <path d="m 0,-1 -1.5,4.5 3,0 z" />
        <path d="m 1.5,0 a 1.5,1.5 0 1 1 -3,0 1.5,1.5 0 1 1 3,0 z" />
      </g>
    </g>

    </defs>
    <sodipodi:namedview
     pagecolor="#ffffff"
     bordercolor="#666666"
     borderopacity="1"
     objecttolerance="10"
     gridtolerance="10"
     guidetolerance="10"
     inkscape:pageopacity="0"
     inkscape:pageshadow="2"
     inkscape:window-width="1614"
     inkscape:window-height="969"
     id="namedview131"
     showgrid="false"
     inkscape:zoom="0.70961538"
     inkscape:cx="685.32105"
     inkscape:cy="241.15395"
     inkscape:window-x="78"
     inkscape:window-y="71"
     inkscape:window-maximized="0"
     inkscape:current-layer="Ebene_1" />

<image sodipodi:absref="/home/knittl/git/svn/neo/www/tastatur_base.svg" xlink:href="tastatur_base.svg" y="0" x="0" />

<g transform="translate(55,26)">
	<text x="0" class="key">¬</text>
	<text x="36" class="key">∨</text>
	<text x="72" class="key">∧</text>
	<text x="108" class="key">⊥</text>
	<text x="144" class="key">∡</text>

	<text x="180" class="key">∥</text>
	<text x="216" class="key">→</text>
	<text x="252" class="key">∞</text>
	<text x="288" class="key">∝</text>
	<text x="324" class="key">∅</text>
	<text x="360" class="key">╌</text>
</g>


<text x="10" y="60" class="mod big">⇥</text>

<g transform="translate(72,62)">
	<text x="0" class="key">Ξ</text>
	<text x="36" class="key">√</text>
	<text x="72" class="key">Λ</text>
	<text x="108" class="key">ℂ</text>
	<text x="144" class="key">Ω</text>

	<text x="180" class="key">×</text>
	<text x="216" class="key">Ψ</text>
	<text x="252" class="key">Γ</text>
	<text x="288" class="key">Φ</text>
	<text x="324" class="key">ℚ</text>
	<text x="360" class="key">∘</text>
</g>


<g transform="translate(84,98)">
	<text x="0" class="key">⊂</text>
	<text x="36" class="key">∫</text>
	<text x="72" class="key">∀</text>
	<text x="108" class="key nubkey">∃</text>
	<text x="144" class="key">∈</text>

	<text x="180" class="key">Σ</text>
	<text x="216" class="key nubkey">ℕ</text>
	<text x="252" class="key">ℝ</text>
	<text x="288" class="key">∂</text>
	<text x="324" class="key">Δ</text>
	<text x="360" class="key">∇</text>
</g>


<g transform="translate(101,134)">
	<text x="0" class="key">∪</text>
	<text x="36" class="key">∩</text>
	<text x="72" class="key">ℵ</text>
	<text x="108" class="key">Π</text>
	<text x="144" class="key">ℤ</text>

	<text x="180" class="key">⇐</text>
	<text x="216" class="key">⇔</text>
	<text x="252" class="key">⇒</text>
	<text x="288" class="key">↦</text>
	<text x="324" class="key">Θ</text>
</g>

<text x="264.5" y="168" class="mod center" id="spacetxt">schmales gesch. Leerz. ␣</text>
<use xlink:href="#padlock" class="grey" x="324" y="156" />

<text x="28" y="28" class="dead" id="t1"> ̣   </text>
<text x="452" y="26" class="dead" id="t2">¯</text>
<text x="470" y="62" class="dead" id="t3">˘</text>

<!-- highlighted mods -->
<g transform="translate(3.5,3.5)">
<rect id="m3l" x="0" y="72" width="60" height="32" rx="4" class="pressed" />
<rect id="m3r" x="460" y="72" width="32" height="32" rx="4" class="pressed" />

<rect id="m4l" x="44" y="108" width="34" height="32" rx="4" class="pressed" />
<rect id="m4r" x="348" y="144" width="48" height="32" rx="4" class="pressed" />
</g>
</svg>
