<?xml version="1.0" encoding="UTF-8" standalone="no"?>
<!-- Created with Inkscape (http://www.inkscape.org/) -->
<svg
   xmlns:dc="http://purl.org/dc/elements/1.1/"
   xmlns:cc="http://web.resource.org/cc/"
   xmlns:rdf="http://www.w3.org/1999/02/22-rdf-syntax-ns#"
   xmlns:svg="http://www.w3.org/2000/svg"
   xmlns="http://www.w3.org/2000/svg"
   xmlns:sodipodi="http://sodipodi.sourceforge.net/DTD/sodipodi-0.dtd"
   xmlns:inkscape="http://www.inkscape.org/namespaces/inkscape"
   width="715.18817"
   height="239.40614"
   id="svg2928"
   sodipodi:version="0.32"
   inkscape:version="0.45.1"
   version="1.0"
   sodipodi:docbase="/home/nepomuk/daten/bilder/neo2"
   sodipodi:docname="compose.svg"
   inkscape:output_extension="org.inkscape.output.svg.inkscape">
  <defs
     id="defs2930" />
  <sodipodi:namedview
     id="base"
     pagecolor="#ffffff"
     bordercolor="#666666"
     borderopacity="1.0"
     inkscape:pageopacity="0.0"
     inkscape:pageshadow="2"
     inkscape:zoom="0.98994949"
     inkscape:cx="254.75288"
     inkscape:cy="100.83491"
     inkscape:document-units="px"
     inkscape:current-layer="layer1"
     inkscape:window-width="1068"
     inkscape:window-height="658"
     inkscape:window-x="364"
     inkscape:window-y="216" />
  <metadata
     id="metadata2933">
    <rdf:RDF>
      <cc:Work
         rdf:about="">
        <dc:format>image/svg+xml</dc:format>
        <dc:type
           rdf:resource="http://purl.org/dc/dcmitype/StillImage" />
      </cc:Work>
    </rdf:RDF>
  </metadata>
  <g
     inkscape:label="Ebene 1"
     inkscape:groupmode="layer"
     id="layer1"
     transform="translate(-22.223356,-2.813688)">
    <g
       transform="matrix(0.3037997,0,0,0.3037997,321.07171,-366.09527)"
       id="g21991">
      <rect
         width="124.3055"
         height="51.350281"
         x="2.2117236"
         y="1441.8621"
         style="fill:#000000;fill-opacity:1;fill-rule:nonzero;stroke:none;stroke-width:1;stroke-linejoin:miter;stroke-miterlimit:4;stroke-dasharray:none;stroke-opacity:1"
         id="rect7618" />
      <rect
         width="50.918522"
         height="45.56686"
         x="-61.669151"
         y="1393.4011"
         transform="scale(-1,1)"
         style="fill:#000000;fill-opacity:1;fill-rule:nonzero;stroke:#000000;stroke-width:0.78170997;stroke-linejoin:miter;stroke-miterlimit:4;stroke-dasharray:none;stroke-opacity:1"
         id="rect7620" />
      <rect
         width="50.918522"
         height="45.56686"
         x="-61.669151"
         y="1444.9514"
         transform="scale(-1,1)"
         style="fill:#ffffff;fill-opacity:1;fill-rule:nonzero;stroke:#000000;stroke-width:0.78170997;stroke-linejoin:miter;stroke-miterlimit:4;stroke-dasharray:none;stroke-opacity:1"
         id="rect7622" />
      <rect
         width="50.918522"
         height="45.56686"
         x="-61.669151"
         y="1496.5013"
         transform="scale(-1,1)"
         style="fill:#ffffff;fill-opacity:1;fill-rule:nonzero;stroke:#000000;stroke-width:0.78170997;stroke-linejoin:miter;stroke-miterlimit:4;stroke-dasharray:none;stroke-opacity:1"
         id="rect7624" />
      <rect
         width="50.918522"
         height="45.56686"
         x="-119.57806"
         y="1393.4011"
         transform="scale(-1,1)"
         style="fill:#ffffff;fill-opacity:1;fill-rule:nonzero;stroke:#000000;stroke-width:0.78170997;stroke-linejoin:miter;stroke-miterlimit:4;stroke-dasharray:none;stroke-opacity:1"
         id="rect7626" />
      <rect
         width="50.918522"
         height="45.56686"
         x="-119.57806"
         y="1444.9514"
         transform="scale(-1,1)"
         style="fill:#ffffff;fill-opacity:1;fill-rule:nonzero;stroke:#000000;stroke-width:0.78170997;stroke-linejoin:miter;stroke-miterlimit:4;stroke-dasharray:none;stroke-opacity:1"
         id="rect7628" />
      <rect
         width="50.918522"
         height="45.56686"
         x="-119.57806"
         y="1496.5013"
         transform="scale(-1,1)"
         style="fill:#ffffff;fill-opacity:1;fill-rule:nonzero;stroke:#000000;stroke-width:0.78170997;stroke-linejoin:miter;stroke-miterlimit:4;stroke-dasharray:none;stroke-opacity:1"
         id="rect7630" />
      <rect
         width="63.279945"
         height="18.753286"
         x="-1472.0909"
         y="-45.273403"
         transform="matrix(0,-1,-1,0,0,0)"
         style="fill:#ffffff;fill-opacity:1;fill-rule:nonzero;stroke:#ffffff;stroke-width:0.48934427;stroke-linejoin:miter;stroke-miterlimit:4;stroke-dasharray:none;stroke-opacity:1"
         id="rect7632" />
      <path
         d="M 50.156856,1456.8487 L 40.558131,1456.8487 L 40.558131,1412.8593 L 31.415119,1412.8593 L 31.415119,1456.8487 L 21.816044,1456.8487 L 35.986625,1479.4295 L 50.156856,1456.8487 z "
         style="fill:#000000;fill-opacity:1;fill-rule:nonzero;stroke:#000000;stroke-width:0.37578151;stroke-linejoin:miter;stroke-miterlimit:4;stroke-opacity:1"
         id="path7634" />
      <rect
         width="63.279896"
         height="14.36802"
         x="-1473.344"
         y="-101.30316"
         transform="matrix(0,-1,-1,0,0,0)"
         style="fill:#ffffff;fill-opacity:1;fill-rule:nonzero;stroke:#ffffff;stroke-width:0.48934427;stroke-linejoin:miter;stroke-miterlimit:4;stroke-dasharray:none;stroke-opacity:1"
         id="rect7636" />
      <path
         d="M 108.06564,1456.8487 L 98.466915,1456.8487 L 98.466915,1412.8593 L 89.323903,1412.8593 L 89.323903,1456.8487 L 79.724828,1456.8487 L 93.895409,1479.4295 L 108.06564,1456.8487 z "
         style="fill:#ffffff;fill-opacity:1;fill-rule:nonzero;stroke:#000000;stroke-width:0.64390379;stroke-linejoin:miter;stroke-miterlimit:4;stroke-dasharray:none;stroke-opacity:1"
         id="path7638" />
    </g>
    <g
       transform="matrix(0.3037997,0,0,0.3037997,248.17568,-363.14236)"
       id="g22019">
      <rect
         width="124.3055"
         height="50.52227"
         x="443.24002"
         y="1477.7382"
         style="fill:#000000;fill-opacity:1;fill-rule:nonzero;stroke:none;stroke-width:1;stroke-linejoin:miter;stroke-miterlimit:4;stroke-dasharray:none;stroke-opacity:1"
         id="rect7642" />
      <rect
         width="50.918522"
         height="44.832104"
         x="-502.69745"
         y="1379.3392"
         transform="scale(-1,1)"
         style="fill:#000000;fill-opacity:1;fill-rule:nonzero;stroke:#000000;stroke-width:0.77538192;stroke-linejoin:miter;stroke-miterlimit:4;stroke-dasharray:none;stroke-opacity:1"
         id="rect7644" />
      <rect
         width="50.918522"
         height="44.832104"
         x="-502.69745"
         y="1430.0583"
         transform="scale(-1,1)"
         style="fill:#ffffff;fill-opacity:1;fill-rule:nonzero;stroke:#000000;stroke-width:0.77538192;stroke-linejoin:miter;stroke-miterlimit:4;stroke-dasharray:none;stroke-opacity:1"
         id="rect7646" />
      <rect
         width="50.918522"
         height="44.832104"
         x="-502.69745"
         y="1480.7775"
         transform="scale(-1,1)"
         style="fill:#ffffff;fill-opacity:1;fill-rule:nonzero;stroke:#000000;stroke-width:0.77538192;stroke-linejoin:miter;stroke-miterlimit:4;stroke-dasharray:none;stroke-opacity:1"
         id="rect7648" />
      <rect
         width="50.918522"
         height="44.832104"
         x="-560.60553"
         y="1379.3392"
         transform="scale(-1,1)"
         style="fill:#ffffff;fill-opacity:1;fill-rule:nonzero;stroke:#000000;stroke-width:0.77538192;stroke-linejoin:miter;stroke-miterlimit:4;stroke-dasharray:none;stroke-opacity:1"
         id="rect7650" />
      <rect
         width="50.918522"
         height="44.832104"
         x="-560.60553"
         y="1430.0583"
         transform="scale(-1,1)"
         style="fill:#ffffff;fill-opacity:1;fill-rule:nonzero;stroke:#000000;stroke-width:0.77538192;stroke-linejoin:miter;stroke-miterlimit:4;stroke-dasharray:none;stroke-opacity:1"
         id="rect7652" />
      <rect
         width="50.918522"
         height="44.832104"
         x="-560.60553"
         y="1480.7775"
         transform="scale(-1,1)"
         style="fill:#ffffff;fill-opacity:1;fill-rule:nonzero;stroke:#000000;stroke-width:0.77538192;stroke-linejoin:miter;stroke-miterlimit:4;stroke-dasharray:none;stroke-opacity:1"
         id="rect7654" />
      <rect
         width="92.139191"
         height="18.665071"
         x="-1485.4204"
         y="-486.25714"
         transform="matrix(0,-1,-1,0,0,0)"
         style="fill:#ffffff;fill-opacity:1;fill-rule:nonzero;stroke:#ffffff;stroke-width:0.58262885;stroke-linejoin:miter;stroke-miterlimit:4;stroke-dasharray:none;stroke-opacity:1"
         id="rect7656" />
      <path
         d="M 491.18492,1489.6653 L 481.58585,1489.6653 L 481.58585,1398.4839 L 472.44284,1398.4839 L 472.44284,1489.6653 L 462.84411,1489.6653 L 477.01434,1511.8819 L 491.18492,1489.6653 z "
         style="fill:#000000;fill-opacity:1;fill-rule:nonzero;stroke:#000000;stroke-width:0.37273946;stroke-linejoin:miter;stroke-miterlimit:4;stroke-opacity:1"
         id="path7658" />
      <path
         d="M 549.09371,1489.6653 L 539.49463,1489.6653 L 539.49463,1398.4839 L 530.35162,1398.4839 L 530.35162,1489.6653 L 520.7529,1489.6653 L 534.92313,1511.8819 L 549.09371,1489.6653 z "
         style="fill:#ffffff;fill-opacity:1;fill-rule:nonzero;stroke:#000000;stroke-width:0.63869131;stroke-linejoin:miter;stroke-miterlimit:4;stroke-dasharray:none;stroke-opacity:1"
         id="path7660" />
    </g>
    <g
       id="g22004"
       transform="matrix(0.3037997,0,0,0.3037997,195.61054,-365.35703)">
      <rect
         width="55.985359"
         height="43.308838"
         x="-273.91476"
         y="1391.2809"
         transform="scale(-1,1)"
         style="fill:#000000;fill-opacity:1;fill-rule:nonzero;stroke:#000000;stroke-width:0.79911387;stroke-linejoin:miter;stroke-miterlimit:4;stroke-dasharray:none;stroke-opacity:1"
         id="rect7590" />
      <rect
         width="64.639221"
         height="149.16663"
         x="277.3056"
         y="1387.1603"
         style="fill:#000000;fill-opacity:1;fill-rule:nonzero;stroke:none;stroke-width:1;stroke-linejoin:miter;stroke-miterlimit:4;stroke-dasharray:none;stroke-opacity:1"
         id="rect7592" />
      <rect
         width="55.985359"
         height="43.308838"
         x="-273.91476"
         y="1440.2767"
         transform="scale(-1,1)"
         style="fill:#ffffff;fill-opacity:1;fill-rule:nonzero;stroke:#000000;stroke-width:0.79911387;stroke-linejoin:miter;stroke-miterlimit:4;stroke-dasharray:none;stroke-opacity:1"
         id="rect7594" />
      <rect
         width="55.985359"
         height="43.308838"
         x="-273.91476"
         y="1489.2721"
         transform="scale(-1,1)"
         style="fill:#ffffff;fill-opacity:1;fill-rule:nonzero;stroke:#000000;stroke-width:0.79911387;stroke-linejoin:miter;stroke-miterlimit:4;stroke-dasharray:none;stroke-opacity:1"
         id="rect7596" />
      <rect
         width="55.985359"
         height="43.308838"
         x="-337.5853"
         y="1391.2809"
         transform="scale(-1,1)"
         style="fill:#ffffff;fill-opacity:1;fill-rule:nonzero;stroke:#000000;stroke-width:0.79911387;stroke-linejoin:miter;stroke-miterlimit:4;stroke-dasharray:none;stroke-opacity:1"
         id="rect7598" />
      <rect
         width="55.985359"
         height="43.308838"
         x="-337.5853"
         y="1440.2767"
         transform="scale(-1,1)"
         style="fill:#ffffff;fill-opacity:1;fill-rule:nonzero;stroke:#000000;stroke-width:0.79911387;stroke-linejoin:miter;stroke-miterlimit:4;stroke-dasharray:none;stroke-opacity:1"
         id="rect7600" />
      <rect
         width="55.985359"
         height="43.308838"
         x="-337.5853"
         y="1489.2721"
         transform="scale(-1,1)"
         style="fill:#ffffff;fill-opacity:1;fill-rule:nonzero;stroke:#000000;stroke-width:0.79911387;stroke-linejoin:miter;stroke-miterlimit:4;stroke-dasharray:none;stroke-opacity:1"
         id="rect7602" />
      <rect
         width="59.406776"
         height="19.389776"
         x="-302.7005"
         y="1402.9972"
         transform="scale(-1,1)"
         style="fill:#ffffff;fill-opacity:1;fill-rule:nonzero;stroke:#ffffff;stroke-width:0.50023901;stroke-linejoin:miter;stroke-miterlimit:4;stroke-dasharray:none;stroke-opacity:1"
         id="rect7604" />
      <rect
         width="56.274464"
         height="16.884081"
         x="-332.63651"
         y="1453.2456"
         transform="scale(-1,1)"
         style="fill:#ffffff;fill-opacity:1;fill-rule:nonzero;stroke:#ffffff;stroke-width:0.50023901;stroke-linejoin:miter;stroke-miterlimit:4;stroke-dasharray:none;stroke-opacity:1"
         id="rect7608" />
      <rect
         width="56.274464"
         height="16.884081"
         x="-332.63651"
         y="1502.2415"
         transform="scale(-1,1)"
         style="fill:#ffffff;fill-opacity:1;fill-rule:nonzero;stroke:#ffffff;stroke-width:0.50023901;stroke-linejoin:miter;stroke-miterlimit:4;stroke-dasharray:none;stroke-opacity:1"
         id="rect7612" />
      <path
         d="M 292.98447,1398.3081 L 292.98447,1407.9068 L 248.99508,1407.9068 L 248.99508,1417.0499 L 292.98447,1417.0499 L 292.98447,1426.6489 L 315.56521,1412.4783 L 292.98447,1398.3081 z "
         style="fill:#000000;fill-opacity:1;fill-rule:nonzero;stroke:#000000;stroke-width:0.37578151;stroke-linejoin:miter;stroke-miterlimit:4;stroke-opacity:1"
         id="path7696" />
      <path
         d="M 293.30652,1447.0349 L 293.30652,1456.6337 L 249.31713,1456.6337 L 249.31713,1465.7767 L 293.30652,1465.7767 L 293.30652,1475.3758 L 315.88726,1461.2052 L 293.30652,1447.0349 z "
         style="fill:#ffffff;fill-opacity:1;fill-rule:nonzero;stroke:#000000;stroke-width:0.64390379;stroke-linejoin:miter;stroke-miterlimit:4;stroke-dasharray:none;stroke-opacity:1"
         id="path7698" />
      <path
         d="M 293.30652,1496.1494 L 293.30652,1505.7482 L 249.31713,1505.7482 L 249.31713,1514.8912 L 293.30652,1514.8912 L 293.30652,1524.4902 L 315.88726,1510.3197 L 293.30652,1496.1494 z "
         style="fill:#ffffff;fill-opacity:1;fill-rule:nonzero;stroke:#000000;stroke-width:0.64390379;stroke-linejoin:miter;stroke-miterlimit:4;stroke-dasharray:none;stroke-opacity:1"
         id="path7700" />
    </g>
    <text
       x="327.32986"
       y="114.76514"
       style="font-size:9.63412762px;font-style:normal;font-weight:normal;fill:#000000;fill-opacity:1;stroke:none;stroke-width:1px;stroke-linecap:butt;stroke-linejoin:miter;stroke-opacity:1;font-family:DejaVu Sans"
       id="text22031"
       xml:space="preserve"><tspan
         x="327.32986"
         y="114.76514"
         id="tspan22033">mod3</tspan></text>
    <rect
       width="45.523975"
       height="69.639381"
       x="318.08591"
       y="52.509712"
       style="opacity:1;fill:none;fill-opacity:1;fill-rule:nonzero;stroke:#000000;stroke-width:0.30379969;stroke-linejoin:miter;stroke-miterlimit:4;stroke-dasharray:none;stroke-opacity:1"
       id="rect22035" />
    <text
       x="269.62265"
       y="115.01124"
       style="font-size:9.63412762px;font-style:normal;font-weight:normal;fill:#000000;fill-opacity:1;stroke:none;stroke-width:1px;stroke-linecap:butt;stroke-linejoin:miter;stroke-opacity:1;font-family:DejaVu Sans"
       id="text22037"
       xml:space="preserve"><tspan
         x="269.62265"
         y="115.01124"
         id="tspan22039">Shift</tspan></text>
    <rect
       width="45.523975"
       height="69.639381"
       x="257.64047"
       y="52.415504"
       style="opacity:1;fill:none;fill-opacity:1;fill-rule:nonzero;stroke:#000000;stroke-width:0.30379969;stroke-linejoin:miter;stroke-miterlimit:4;stroke-dasharray:none;stroke-opacity:1"
       id="rect22041" />
    <text
       x="388.14609"
       y="114.51905"
       style="font-size:9.63412762px;font-style:normal;font-weight:normal;fill:#000000;fill-opacity:1;stroke:none;stroke-width:1px;stroke-linecap:butt;stroke-linejoin:miter;stroke-opacity:1;font-family:DejaVu Sans"
       id="text22043"
       xml:space="preserve"><tspan
         x="388.14609"
         y="114.51905"
         id="tspan22045">mod5</tspan></text>
    <rect
       width="45.523975"
       height="69.639381"
       x="378.6246"
       y="52.415504"
       style="opacity:1;fill:none;fill-opacity:1;fill-rule:nonzero;stroke:#000000;stroke-width:0.30379969;stroke-linejoin:miter;stroke-miterlimit:4;stroke-dasharray:none;stroke-opacity:1"
       id="rect22047" />
    <rect
       id="rect3395"
       style="fill:#ffffff;stroke:#000000;stroke-width:0.30379969"
       y="57.193001"
       x="169.62222"
       height="45.569954"
       width="36.455963" />
    <g
       id="g3477"
       transform="matrix(0.3037997,0,0,0.3037997,-297.10341,-410.16553)">
      <rect
         width="60"
         height="50"
         x="1566.2942"
         y="1630.3666"
         style="fill:#000000"
         id="rect3303" />
      <path
         style="fill:#ffffff;stroke:#000000;stroke-width:1"
         d="M 1539.1941,1582.3785 L 1593.1941,1582.3785 L 1593.1941,1610.9618 L 1596.4341,1639.3384 L 1579.3607,1626.3785 L 1539.1941,1626.3785 L 1539.1941,1582.3785 z "
         id="path3317"
         sodipodi:nodetypes="ccccccc" />
      <text
         x="1565.3245"
         y="1612.7524"
         style="font-size:30px;font-weight:bold;text-align:center;text-anchor:middle;fill:#000000"
         id="text3365"
         xml:space="preserve">a</text>
      <path
         sodipodi:nodetypes="ccccccc"
         id="path3319"
         d="M 1653.3924,1582.3785 L 1599.3924,1582.3785 L 1599.3924,1610.9618 L 1596.1524,1639.3384 L 1613.2258,1626.3785 L 1653.3924,1626.3785 L 1653.3924,1582.3785 z "
         style="fill:#ffffff;stroke:#000000;stroke-width:1" />
      <text
         x="1627.4413"
         y="1612.7524"
         style="font-size:30px;font-weight:bold;text-align:center;text-anchor:middle;fill:#000000"
         id="text3380"
         xml:space="preserve">e</text>
      <g
         transform="translate(339.85782,73.874896)"
         id="g3388">
        <text
           x="1250.7571"
           y="1589.7026"
           style="font-size:30px;font-weight:bold;text-align:center;text-anchor:middle;fill:#ffffff"
           id="text3384"
           xml:space="preserve">a</text>
        <text
           x="1262.2319"
           y="1589.6577"
           style="font-size:30px;font-weight:bold;text-align:center;text-anchor:middle;fill:#ffffff"
           id="text3386"
           xml:space="preserve">e</text>
      </g>
    </g>
    <g
       id="g3417"
       transform="matrix(0.3037997,0,0,0.3037997,120.47355,-366.09527)">
      <rect
         id="rect3419"
         style="fill:#000000;fill-opacity:1;fill-rule:nonzero;stroke:none;stroke-width:1;stroke-linejoin:miter;stroke-miterlimit:4;stroke-dasharray:none;stroke-opacity:1"
         y="1441.8621"
         x="2.2117236"
         height="51.350281"
         width="124.3055" />
      <rect
         id="rect3421"
         style="fill:#000000;fill-opacity:1;fill-rule:nonzero;stroke:#000000;stroke-width:0.78170997;stroke-linejoin:miter;stroke-miterlimit:4;stroke-dasharray:none;stroke-opacity:1"
         transform="scale(-1,1)"
         y="1393.4011"
         x="-61.669151"
         height="45.56686"
         width="50.918522" />
      <rect
         id="rect3423"
         style="fill:#ffffff;fill-opacity:1;fill-rule:nonzero;stroke:#000000;stroke-width:0.78170997;stroke-linejoin:miter;stroke-miterlimit:4;stroke-dasharray:none;stroke-opacity:1"
         transform="scale(-1,1)"
         y="1444.9514"
         x="-61.669151"
         height="45.56686"
         width="50.918522" />
      <rect
         id="rect3425"
         style="fill:#ffffff;fill-opacity:1;fill-rule:nonzero;stroke:#000000;stroke-width:0.78170997;stroke-linejoin:miter;stroke-miterlimit:4;stroke-dasharray:none;stroke-opacity:1"
         transform="scale(-1,1)"
         y="1496.5013"
         x="-61.669151"
         height="45.56686"
         width="50.918522" />
      <rect
         id="rect3427"
         style="fill:#ffffff;fill-opacity:1;fill-rule:nonzero;stroke:#000000;stroke-width:0.78170997;stroke-linejoin:miter;stroke-miterlimit:4;stroke-dasharray:none;stroke-opacity:1"
         transform="scale(-1,1)"
         y="1393.4011"
         x="-119.57806"
         height="45.56686"
         width="50.918522" />
      <rect
         id="rect3429"
         style="fill:#ffffff;fill-opacity:1;fill-rule:nonzero;stroke:#000000;stroke-width:0.78170997;stroke-linejoin:miter;stroke-miterlimit:4;stroke-dasharray:none;stroke-opacity:1"
         transform="scale(-1,1)"
         y="1444.9514"
         x="-119.57806"
         height="45.56686"
         width="50.918522" />
      <rect
         id="rect3431"
         style="fill:#ffffff;fill-opacity:1;fill-rule:nonzero;stroke:#000000;stroke-width:0.78170997;stroke-linejoin:miter;stroke-miterlimit:4;stroke-dasharray:none;stroke-opacity:1"
         transform="scale(-1,1)"
         y="1496.5013"
         x="-119.57806"
         height="45.56686"
         width="50.918522" />
      <rect
         id="rect3433"
         style="fill:#ffffff;fill-opacity:1;fill-rule:nonzero;stroke:#ffffff;stroke-width:0.48934427;stroke-linejoin:miter;stroke-miterlimit:4;stroke-dasharray:none;stroke-opacity:1"
         transform="matrix(0,-1,-1,0,0,0)"
         y="-45.273403"
         x="-1472.0909"
         height="18.753286"
         width="63.279945" />
      <path
         id="path3435"
         style="fill:#000000;fill-opacity:1;fill-rule:nonzero;stroke:#000000;stroke-width:0.37578151;stroke-linejoin:miter;stroke-miterlimit:4;stroke-opacity:1"
         d="M 50.156856,1456.8487 L 40.558131,1456.8487 L 40.558131,1412.8593 L 31.415119,1412.8593 L 31.415119,1456.8487 L 21.816044,1456.8487 L 35.986625,1479.4295 L 50.156856,1456.8487 z " />
      <rect
         id="rect3437"
         style="fill:#ffffff;fill-opacity:1;fill-rule:nonzero;stroke:#ffffff;stroke-width:0.48934427;stroke-linejoin:miter;stroke-miterlimit:4;stroke-dasharray:none;stroke-opacity:1"
         transform="matrix(0,-1,-1,0,0,0)"
         y="-101.30316"
         x="-1473.344"
         height="14.36802"
         width="63.279896" />
      <path
         id="path3439"
         style="fill:#ffffff;fill-opacity:1;fill-rule:nonzero;stroke:#000000;stroke-width:0.64390379;stroke-linejoin:miter;stroke-miterlimit:4;stroke-dasharray:none;stroke-opacity:1"
         d="M 108.06564,1456.8487 L 98.466915,1456.8487 L 98.466915,1412.8593 L 89.323903,1412.8593 L 89.323903,1456.8487 L 79.724828,1456.8487 L 93.895409,1479.4295 L 108.06564,1456.8487 z " />
    </g>
    <text
       xml:space="preserve"
       id="text3441"
       style="font-size:9.63412762px;font-style:normal;font-weight:normal;fill:#000000;fill-opacity:1;stroke:none;stroke-width:1px;stroke-linecap:butt;stroke-linejoin:miter;stroke-opacity:1;font-family:DejaVu Sans"
       y="114.76514"
       x="126.73181"><tspan
         id="tspan3443"
         y="114.76514"
         x="126.73181">mod3</tspan></text>
    <rect
       id="rect3445"
       style="opacity:1;fill:none;fill-opacity:1;fill-rule:nonzero;stroke:#000000;stroke-width:0.43639079;stroke-linejoin:miter;stroke-miterlimit:4;stroke-dasharray:none;stroke-opacity:1"
       y="52.576027"
       x="117.55414"
       height="69.506783"
       width="94.111862" />
    <path
       style="fill:none;fill-rule:evenodd;stroke:#000000;stroke-width:0.30379969px;stroke-linecap:butt;stroke-linejoin:miter;stroke-opacity:1"
       d="M 163.80706,56.667326 L 163.80706,117.21993"
       id="path3447" />
    <text
       x="165.1636"
       y="114.76514"
       style="font-size:9.63412762px;font-style:normal;font-weight:normal;fill:#000000;fill-opacity:1;stroke:none;stroke-width:1px;stroke-linecap:butt;stroke-linejoin:miter;stroke-opacity:1;font-family:DejaVu Sans"
       id="text3464"
       xml:space="preserve"><tspan
         x="165.1636"
         y="114.76514"
         id="tspan3466">Compose</tspan></text>
    <text
       xml:space="preserve"
       id="text3487"
       style="font-size:9.63412762px;font-style:normal;font-weight:normal;fill:#000000;fill-opacity:1;stroke:none;stroke-width:1px;stroke-linecap:butt;stroke-linejoin:miter;stroke-opacity:1;font-family:DejaVu Sans"
       y="66.765297"
       x="167.3396"><tspan
         id="tspan3489"
         y="66.765297"
         x="167.3396"> &amp;mod5</tspan></text>
    <g
       id="use2744"
       transform="matrix(0.3037997,0,0,0.3037997,485.89297,56.599626)">
      <rect
         id="rect3046"
         style="fill:#ffffff;stroke:#000000"
         y="0"
         x="0"
         height="150"
         width="120" />
      <rect
         id="rect3048"
         style="fill:#000000"
         y="0"
         x="0"
         height="50"
         width="60" />
      <rect
         id="rect3050"
         style="fill:none;stroke:#000000;stroke-width:1"
         y="3"
         x="63"
         height="44"
         width="54" />
      <rect
         id="rect3052"
         style="fill:none;stroke:#000000;stroke-width:1"
         y="53"
         x="3"
         height="44"
         width="54" />
      <rect
         id="rect3054"
         style="fill:none;stroke:#000000;stroke-width:1"
         y="53"
         x="63"
         height="44"
         width="54" />
      <rect
         id="rect3056"
         style="fill:none;stroke:#000000;stroke-width:1"
         y="103"
         x="3"
         height="44"
         width="54" />
      <rect
         id="rect3058"
         style="fill:none;stroke:#000000;stroke-width:1"
         y="103"
         x="63"
         height="44"
         width="54" />
    </g>
    <g
       id="g2746"
       transform="matrix(0.3037997,0,0,0.3037997,485.89297,56.599626)">
      <text
         xml:space="preserve"
         id="text2748"
         style="font-size:30px;font-weight:bold;text-align:center;text-anchor:middle;fill:#ffffff"
         y="35"
         x="30">d</text>
      <text
         xml:space="preserve"
         id="text2750"
         style="font-size:30px;font-weight:bold;text-align:center;text-anchor:middle;fill:#000000"
         y="35"
         x="90">D</text>
      <text
         xml:space="preserve"
         id="text2752"
         style="font-size:30px;font-weight:bold;text-align:center;text-anchor:middle;fill:#000000"
         y="85"
         x="30">:</text>
      <text
         xml:space="preserve"
         id="text2754"
         style="font-size:30px;font-weight:bold;text-align:center;text-anchor:middle;fill:#000000"
         y="85"
         x="90">δ</text>
      <text
         xml:space="preserve"
         id="text2756"
         style="font-size:30px;font-weight:bold;text-align:center;text-anchor:middle;fill:#000000"
         y="135"
         x="30">,</text>
      <text
         xml:space="preserve"
         id="text2758"
         style="font-size:30px;font-weight:bold;text-align:center;text-anchor:middle;fill:#000000"
         y="135"
         x="90">Δ</text>
    </g>
    <g
       id="use2760"
       transform="matrix(0.3037997,0,0,0.3037997,531.4629,56.599626)">
      <rect
         id="rect3030"
         style="fill:#ffffff;stroke:#000000"
         y="0"
         x="0"
         height="150"
         width="120" />
      <rect
         id="rect3032"
         style="fill:#000000"
         y="0"
         x="0"
         height="50"
         width="60" />
      <rect
         id="rect3034"
         style="fill:none;stroke:#000000;stroke-width:1"
         y="3"
         x="63"
         height="44"
         width="54" />
      <rect
         id="rect3036"
         style="fill:none;stroke:#000000;stroke-width:1"
         y="53"
         x="3"
         height="44"
         width="54" />
      <rect
         id="rect3038"
         style="fill:none;stroke:#000000;stroke-width:1"
         y="53"
         x="63"
         height="44"
         width="54" />
      <rect
         id="rect3040"
         style="fill:none;stroke:#000000;stroke-width:1"
         y="103"
         x="3"
         height="44"
         width="54" />
      <rect
         id="rect3042"
         style="fill:none;stroke:#000000;stroke-width:1"
         y="103"
         x="63"
         height="44"
         width="54" />
    </g>
    <g
       id="g2762"
       transform="matrix(0.3037997,0,0,0.3037997,531.4629,56.599626)">
      <text
         xml:space="preserve"
         id="text2764"
         style="font-size:30px;font-weight:bold;text-align:center;text-anchor:middle;fill:#ffffff"
         y="35"
         x="30">y</text>
      <text
         xml:space="preserve"
         id="text2766"
         style="font-size:30px;font-weight:bold;text-align:center;text-anchor:middle;fill:#000000"
         y="35"
         x="90">Y</text>
      <text
         xml:space="preserve"
         id="text2768"
         style="font-size:30px;font-weight:bold;text-align:center;text-anchor:middle;fill:#000000"
         y="85"
         x="30">„</text>
      <text
         xml:space="preserve"
         id="text2770"
         style="font-size:30px;font-weight:bold;text-align:center;text-anchor:middle;fill:#000000"
         y="85"
         x="90">υ</text>
      <text
         xml:space="preserve"
         id="text2772"
         style="font-size:30px;font-weight:bold;text-align:center;text-anchor:middle;fill:#000000"
         y="135"
         x="30">þ</text>
      <text
         xml:space="preserve"
         id="text2774"
         style="font-size:30px;font-weight:bold;text-align:center;text-anchor:middle;fill:#000000"
         y="135"
         x="90">Þ</text>
    </g>
    <path
       style="font-size:12px;font-style:normal;font-weight:normal;fill:#000000;fill-opacity:1;stroke:none;stroke-width:1px;stroke-linecap:butt;stroke-linejoin:miter;stroke-opacity:1;font-family:Bitstream Vera Sans"
       d="M 153.19196,186.90179 L 153.19196,188.27679 L 154.28571,188.27679 L 154.28571,186.90179 L 153.19196,186.90179 z M 176.12946,186.90179 L 176.12946,196.02679 L 177.22321,196.02679 L 177.22321,192.80804 L 180.56696,196.02679 L 181.97321,196.02679 L 178.31696,192.52679 L 181.81696,189.46429 L 180.44196,189.46429 L 177.22321,192.27679 L 177.22321,186.90179 L 176.12946,186.90179 z M 187.84821,186.90179 L 187.84821,188.27679 L 188.91071,188.27679 L 188.91071,186.90179 L 187.84821,186.90179 z M 221.62946,186.90179 L 221.62946,188.27679 L 222.69196,188.27679 L 222.69196,186.90179 L 221.62946,186.90179 z M 232.28571,186.90179 L 232.28571,196.02679 L 233.37946,196.02679 L 233.37946,192.30804 C 233.37946,191.66742 233.5435,191.14789 233.87946,190.77679 C 234.21539,190.4057 234.67241,190.24555 235.25446,190.24554 C 235.73883,190.24555 236.106,190.37445 236.34821,190.68304 C 236.59039,190.99164 236.72319,191.4682 236.72321,192.08929 L 236.72321,196.02679 L 237.78571,196.02679 L 237.78571,192.05804 C 237.7857,191.15179 237.57866,190.46039 237.19196,189.99554 C 236.80524,189.5268 236.25835,189.30805 235.50446,189.30804 C 235.04742,189.30805 234.63725,189.39398 234.28571,189.58929 C 233.93805,189.78461 233.63725,190.06976 233.37946,190.46429 L 233.37946,186.90179 L 232.28571,186.90179 z M 216.72321,187.12054 C 215.76618,187.12055 215.02007,187.33149 214.47321,187.77679 C 213.93024,188.22211 213.66069,188.84711 213.66071,189.62054 C 213.66071,190.28851 213.85991,190.80805 214.25446,191.18304 C 214.64899,191.55804 215.27788,191.81976 216.16071,191.99554 L 216.87946,192.15179 C 217.48102,192.27289 217.93022,192.44086 218.19196,192.68304 C 218.45758,192.92523 218.59819,193.25336 218.59821,193.68304 C 218.5982,194.17523 218.40288,194.57367 218.03571,194.83929 C 217.66852,195.10492 217.14897,195.21429 216.47321,195.21429 C 216.02789,195.21429 215.55913,195.16351 215.09821,195.02679 C 214.63727,194.89007 214.17241,194.67132 213.69196,194.40179 L 213.69196,195.62054 C 214.19196,195.80413 214.69585,195.96429 215.16071,196.05804 C 215.62946,196.15179 216.05913,196.18304 216.47321,196.18304 C 217.57086,196.18304 218.40678,195.96429 218.97321,195.52679 C 219.54352,195.08929 219.81694,194.43695 219.81696,193.58929 C 219.81695,192.87836 219.61381,192.32367 219.19196,191.90179 C 218.77399,191.47601 218.106,191.19476 217.22321,191.02679 L 216.53571,190.87054 C 215.88727,190.74945 215.42632,190.59711 215.19196,190.40179 C 214.96149,190.20258 214.84819,189.91351 214.84821,189.52679 C 214.84821,189.06586 215.03179,188.68305 215.37946,188.43304 C 215.73102,188.18305 216.23491,188.05805 216.87946,188.05804 C 217.25055,188.05805 217.63725,188.10883 218.03571,188.21429 C 218.43414,188.31977 218.83647,188.49945 219.28571,188.71429 L 219.28571,187.55804 C 218.84039,187.40961 218.39897,187.28852 217.97321,187.21429 C 217.54742,187.14008 217.13335,187.12055 216.72321,187.12054 z M 99.910711,187.27679 L 99.910711,188.27679 L 103.03571,188.27679 L 103.03571,196.02679 L 104.22321,196.02679 L 104.22321,188.27679 L 107.31696,188.27679 L 107.31696,187.27679 L 99.910711,187.27679 z M 170.28571,187.27679 L 166.94196,196.02679 L 168.19196,196.02679 L 168.97321,193.77679 L 172.91071,193.77679 L 173.72321,196.02679 L 174.94196,196.02679 L 171.62946,187.27679 L 170.28571,187.27679 z M 120.03571,187.58929 L 120.03571,189.46429 L 119.22321,189.46429 L 119.22321,190.27679 L 120.03571,190.27679 L 120.03571,193.83929 C 120.03571,194.6596 120.18805,195.24554 120.50446,195.55804 C 120.82086,195.86663 121.39118,196.02679 122.22321,196.02679 L 123.31696,196.02679 L 123.31696,195.12054 L 122.22321,195.12054 C 121.77399,195.12054 121.46539,195.02288 121.31696,194.87054 C 121.17243,194.7182 121.09821,194.37445 121.09821,193.83929 L 121.09821,190.27679 L 123.31696,190.27679 L 123.31696,189.46429 L 121.09821,189.46429 L 121.09821,187.58929 L 120.03571,187.58929 z M 132.09821,187.58929 L 132.09821,189.46429 L 131.31696,189.46429 L 131.31696,190.27679 L 132.09821,190.27679 L 132.09821,193.83929 C 132.09821,194.6596 132.25055,195.24554 132.56696,195.55804 C 132.88336,195.86663 133.45368,196.02679 134.28571,196.02679 L 135.41071,196.02679 L 135.41071,195.12054 L 134.28571,195.12054 C 133.83649,195.12054 133.55914,195.02288 133.41071,194.87054 C 133.26618,194.7182 133.19196,194.37445 133.19196,193.83929 L 133.19196,190.27679 L 135.41071,190.27679 L 135.41071,189.46429 L 133.19196,189.46429 L 133.19196,187.58929 L 132.09821,187.58929 z M 183.12946,187.58929 L 183.12946,189.46429 L 182.31696,189.46429 L 182.31696,190.27679 L 183.12946,190.27679 L 183.12946,193.83929 C 183.12946,194.6596 183.2818,195.24554 183.59821,195.55804 C 183.91461,195.86663 184.48493,196.02679 185.31696,196.02679 L 186.41071,196.02679 L 186.41071,195.12054 L 185.31696,195.12054 C 184.86774,195.12054 184.55914,195.02288 184.41071,194.87054 C 184.26618,194.7182 184.19196,194.37445 184.19196,193.83929 L 184.19196,190.27679 L 186.41071,190.27679 L 186.41071,189.46429 L 184.19196,189.46429 L 184.19196,187.58929 L 183.12946,187.58929 z M 170.94196,188.43304 L 172.56696,192.77679 L 169.34821,192.77679 L 170.94196,188.43304 z M 108.72321,189.30804 C 108.37164,189.30805 108.00055,189.32367 107.62946,189.40179 C 107.25836,189.47602 106.89899,189.5932 106.50446,189.74554 L 106.50446,190.74554 C 106.83258,190.56586 107.18024,190.42914 107.53571,190.33929 C 107.89118,190.24945 108.25446,190.2143 108.62946,190.21429 C 109.2193,190.2143 109.64899,190.34711 109.97321,190.62054 C 110.30133,190.89008 110.4732,191.2807 110.47321,191.77679 L 110.47321,191.87054 L 108.97321,191.87054 C 107.99274,191.87054 107.25055,192.05804 106.75446,192.43304 C 106.26227,192.80804 106.00446,193.38226 106.00446,194.12054 C 106.00446,194.75335 106.20368,195.24163 106.59821,195.62054 C 106.99665,195.99554 107.55133,196.18304 108.22321,196.18304 C 108.75446,196.18304 109.19977,196.08929 109.56696,195.90179 C 109.93414,195.71038 110.22711,195.42523 110.47321,195.02679 L 110.47321,196.02679 L 111.56696,196.02679 L 111.56696,192.27679 C 111.56695,191.27679 111.31695,190.51898 110.84821,190.02679 C 110.37945,189.53461 109.67242,189.30805 108.72321,189.30804 z M 115.87946,189.30804 C 115.07477,189.30805 114.44196,189.47211 114.00446,189.80804 C 113.56696,190.14398 113.34821,190.59711 113.34821,191.21429 C 113.34821,191.72211 113.48883,192.14008 113.78571,192.43304 C 114.08258,192.72211 114.58649,192.94867 115.25446,193.08929 L 115.62946,193.15179 C 116.29743,193.29632 116.71539,193.46429 116.91071,193.62054 C 117.10992,193.77679 117.22321,193.98382 117.22321,194.27679 C 117.22321,194.5932 117.09039,194.85101 116.81696,195.02679 C 116.54352,195.19867 116.13727,195.27679 115.62946,195.27679 C 115.25055,195.27679 114.85993,195.2221 114.47321,195.12054 C 114.08649,195.01507 113.7154,194.85882 113.31696,194.65179 L 113.31696,195.77679 C 113.73883,195.91351 114.12555,196.02288 114.50446,196.08929 C 114.88727,196.1596 115.24664,196.18304 115.59821,196.18304 C 116.44196,196.18304 117.11774,196.00726 117.59821,195.65179 C 118.08258,195.29632 118.31695,194.82367 118.31696,194.21429 C 118.31695,193.67914 118.17242,193.26117 117.84821,192.96429 C 117.52789,192.66351 116.95758,192.40961 116.19196,192.24554 L 115.84821,192.18304 C 115.27008,192.05414 114.88336,191.91742 114.69196,191.77679 C 114.50055,191.63226 114.37946,191.43304 114.37946,191.18304 C 114.37946,190.85492 114.52008,190.59711 114.78571,190.43304 C 115.05524,190.26898 115.4693,190.18305 116.00446,190.18304 C 116.35602,190.18305 116.67633,190.22992 117.00446,190.30804 C 117.33258,190.38617 117.66852,190.49555 117.97321,190.65179 L 117.97321,189.65179 C 117.67633,189.53461 117.35602,189.42914 117.00446,189.37054 C 116.65289,189.31195 116.27789,189.30805 115.87946,189.30804 z M 127.06696,189.30804 C 126.71539,189.30805 126.3443,189.32367 125.97321,189.40179 C 125.60211,189.47602 125.21149,189.5932 124.81696,189.74554 L 124.81696,190.74554 C 125.14508,190.56586 125.49274,190.42914 125.84821,190.33929 C 126.20368,190.24945 126.56696,190.2143 126.94196,190.21429 C 127.5318,190.2143 127.99274,190.34711 128.31696,190.62054 C 128.64508,190.89008 128.81695,191.2807 128.81696,191.77679 L 128.81696,191.87054 L 127.28571,191.87054 C 126.30524,191.87054 125.56305,192.05804 125.06696,192.43304 C 124.57477,192.80804 124.34821,193.38226 124.34821,194.12054 C 124.34821,194.75335 124.54743,195.24163 124.94196,195.62054 C 125.3404,195.99554 125.86383,196.18304 126.53571,196.18304 C 127.06696,196.18304 127.51227,196.08929 127.87946,195.90179 C 128.24664,195.71038 128.57086,195.42523 128.81696,195.02679 L 128.81696,196.02679 L 129.87946,196.02679 L 129.87946,192.27679 C 129.87945,191.27679 129.6607,190.51898 129.19196,190.02679 C 128.7232,189.53461 128.01617,189.30805 127.06696,189.30804 z M 147.69196,189.30804 C 147.17242,189.30805 146.74274,189.39398 146.37946,189.58929 C 146.01618,189.7807 145.69977,190.06586 145.47321,190.46429 L 145.47321,189.46429 L 144.41071,189.46429 L 144.41071,196.02679 L 145.47321,196.02679 L 145.47321,192.55804 C 145.47321,191.81586 145.64899,191.23383 145.97321,190.83929 C 146.30133,190.44086 146.77008,190.24555 147.37946,190.24554 C 147.55133,190.24555 147.70758,190.27289 147.84821,190.30804 C 147.99274,190.3393 148.13336,190.39398 148.25446,190.46429 L 148.22321,189.33929 C 148.11383,189.31977 148.0318,189.31586 147.94196,189.30804 C 147.85211,189.29633 147.76617,189.30805 147.69196,189.30804 z M 159.69196,189.30804 C 159.23492,189.30805 158.82477,189.39398 158.47321,189.58929 C 158.12555,189.78461 157.82477,190.06976 157.56696,190.46429 L 157.56696,189.46429 L 156.50446,189.46429 L 156.50446,196.02679 L 157.56696,196.02679 L 157.56696,192.30804 C 157.56696,191.66742 157.73102,191.14789 158.06696,190.77679 C 158.40289,190.4057 158.89118,190.24555 159.47321,190.24554 C 159.95758,190.24555 160.29352,190.37445 160.53571,190.68304 C 160.77789,190.99164 160.9107,191.4682 160.91071,192.08929 L 160.91071,196.02679 L 162.00446,196.02679 L 162.00446,192.05804 C 162.00445,191.15179 161.79742,190.46039 161.41071,189.99554 C 161.02399,189.5268 160.44586,189.30805 159.69196,189.30804 z M 193.72321,189.30804 C 192.7818,189.30805 192.0396,189.60492 191.50446,190.21429 C 190.97321,190.82367 190.69194,191.66742 190.69196,192.74554 C 190.69196,193.81976 190.97319,194.66351 191.50446,195.27679 C 192.03961,195.88617 192.78179,196.18304 193.72321,196.18304 C 194.66071,196.18304 195.40678,195.88617 195.94196,195.27679 C 196.47711,194.66351 196.72319,193.81976 196.72321,192.74554 C 196.7232,191.66742 196.47709,190.82367 195.94196,190.21429 C 195.4068,189.60492 194.66069,189.30805 193.72321,189.30804 z M 201.66071,189.30804 C 201.20367,189.30805 200.82475,189.39398 200.47321,189.58929 C 200.12555,189.78461 199.82475,190.06976 199.56696,190.46429 L 199.56696,189.46429 L 198.47321,189.46429 L 198.47321,196.02679 L 199.56696,196.02679 L 199.56696,192.30804 C 199.56696,191.66742 199.731,191.14789 200.06696,190.77679 C 200.40289,190.4057 200.85991,190.24555 201.44196,190.24554 C 201.92633,190.24555 202.2935,190.37445 202.53571,190.68304 C 202.77789,190.99164 202.87944,191.4682 202.87946,192.08929 L 202.87946,196.02679 L 203.97321,196.02679 L 203.97321,192.05804 C 203.9732,191.15179 203.76616,190.46039 203.37946,189.99554 C 202.99274,189.5268 202.4146,189.30805 201.66071,189.30804 z M 227.69196,189.30804 C 226.70758,189.30805 225.93022,189.61273 225.34821,190.24554 C 224.77008,190.87445 224.47319,191.73383 224.47321,192.80804 C 224.47321,193.8471 224.77007,194.66742 225.37946,195.27679 C 225.99274,195.88617 226.83257,196.18304 227.87946,196.18304 C 228.29742,196.18304 228.72319,196.14398 229.12946,196.05804 C 229.5357,195.9721 229.93022,195.8471 230.31696,195.68304 L 230.31696,194.65179 C 229.93414,194.85492 229.55131,195.01898 229.16071,195.12054 C 228.77399,195.2221 228.356,195.27679 227.94196,195.27679 C 227.22711,195.27679 226.68804,195.06976 226.28571,194.68304 C 225.88727,194.29242 225.64507,193.73773 225.59821,192.99554 L 230.56696,192.99554 L 230.56696,192.46429 C 230.56695,191.48773 230.30131,190.7182 229.78571,190.15179 C 229.27399,189.58148 228.57475,189.30805 227.69196,189.30804 z M 242.69196,189.30804 C 241.70758,189.30805 240.93022,189.61273 240.34821,190.24554 C 239.77008,190.87445 239.47319,191.73383 239.47321,192.80804 C 239.47321,193.8471 239.77007,194.66742 240.37946,195.27679 C 240.99274,195.88617 241.83257,196.18304 242.87946,196.18304 C 243.29742,196.18304 243.72319,196.14398 244.12946,196.05804 C 244.5357,195.9721 244.93022,195.8471 245.31696,195.68304 L 245.31696,194.65179 C 244.93414,194.85492 244.55131,195.01898 244.16071,195.12054 C 243.77399,195.2221 243.356,195.27679 242.94196,195.27679 C 242.22711,195.27679 241.68804,195.06976 241.28571,194.68304 C 240.88727,194.29242 240.64507,193.73773 240.59821,192.99554 L 245.56696,192.99554 L 245.56696,192.46429 C 245.56695,191.48773 245.30131,190.7182 244.78571,190.15179 C 244.27399,189.58148 243.57475,189.30805 242.69196,189.30804 z M 136.72321,189.46429 L 136.72321,193.43304 C 136.72321,194.33539 136.89508,195.02679 137.28571,195.49554 C 137.67633,195.96429 138.25055,196.18304 139.00446,196.18304 C 139.46149,196.18304 139.87946,196.0932 140.22321,195.90179 C 140.57086,195.70648 140.86774,195.39398 141.12946,194.99554 L 141.12946,196.02679 L 142.22321,196.02679 L 142.22321,189.46429 L 141.12946,189.46429 L 141.12946,193.18304 C 141.12945,193.82367 140.9693,194.31195 140.62946,194.68304 C 140.29352,195.05413 139.83649,195.24554 139.25446,195.24554 C 138.77008,195.24554 138.40289,195.08538 138.16071,194.77679 C 137.91852,194.46429 137.78571,193.99164 137.78571,193.37054 L 137.78571,189.46429 L 136.72321,189.46429 z M 153.19196,189.46429 L 153.19196,196.02679 L 154.28571,196.02679 L 154.28571,189.46429 L 153.19196,189.46429 z M 187.84821,189.46429 L 187.84821,196.02679 L 188.91071,196.02679 L 188.91071,189.46429 L 187.84821,189.46429 z M 221.62946,189.46429 L 221.62946,196.02679 L 222.69196,196.02679 L 222.69196,189.46429 L 221.62946,189.46429 z M 206.41071,189.80804 L 206.41071,191.30804 L 207.62946,191.30804 L 207.62946,189.80804 L 206.41071,189.80804 z M 193.72321,190.21429 C 194.29742,190.2143 194.76225,190.44476 195.09821,190.90179 C 195.43414,191.35492 195.59819,191.9682 195.59821,192.74554 C 195.5982,193.52679 195.43413,194.13617 195.09821,194.58929 C 194.76227,195.04242 194.29741,195.27679 193.72321,195.27679 C 193.14118,195.27679 192.68413,195.03851 192.34821,194.58929 C 192.01618,194.13617 191.84819,193.5307 191.84821,192.74554 C 191.84821,191.96039 192.01226,191.35101 192.34821,190.90179 C 192.68414,190.44867 193.14507,190.2143 193.72321,190.21429 z M 227.72321,190.21429 C 228.25446,190.2143 228.65288,190.39398 228.97321,190.74554 C 229.29742,191.09711 229.46538,191.56195 229.47321,192.15179 L 225.62946,192.15179 C 225.68415,191.53461 225.89507,191.05414 226.25446,190.71429 C 226.61774,190.37445 227.12163,190.2143 227.72321,190.21429 z M 242.72321,190.21429 C 243.25446,190.2143 243.65288,190.39398 243.97321,190.74554 C 244.29742,191.09711 244.46538,191.56195 244.47321,192.15179 L 240.62946,192.15179 C 240.68415,191.53461 240.89507,191.05414 241.25446,190.71429 C 241.61774,190.37445 242.12163,190.2143 242.72321,190.21429 z M 109.41071,192.71429 L 110.47321,192.71429 L 110.47321,192.96429 C 110.4732,193.66742 110.30524,194.22601 109.94196,194.65179 C 109.58258,195.07367 109.10211,195.27679 108.50446,195.27679 C 108.07086,195.27679 107.72711,195.18695 107.47321,194.96429 C 107.22321,194.73773 107.09821,194.4096 107.09821,194.02679 C 107.09821,193.54632 107.26227,193.22601 107.59821,193.02679 C 107.93414,192.82757 108.53961,192.71429 109.41071,192.71429 z M 127.72321,192.71429 L 128.81696,192.71429 L 128.81696,192.96429 C 128.81695,193.66742 128.61774,194.22601 128.25446,194.65179 C 127.89508,195.07367 127.41461,195.27679 126.81696,195.27679 C 126.38336,195.27679 126.03961,195.18695 125.78571,194.96429 C 125.53571,194.73773 125.41071,194.4096 125.41071,194.02679 C 125.41071,193.54632 125.57477,193.22601 125.91071,193.02679 C 126.24664,192.82757 126.85211,192.71429 127.72321,192.71429 z M 206.41071,194.52679 L 206.41071,196.02679 L 207.62946,196.02679 L 207.62946,194.52679 L 206.41071,194.52679 z "
       id="text3166" />
    <text
       xml:space="preserve"
       style="font-size:12px;font-style:normal;font-weight:normal;fill:#000000;fill-opacity:1;stroke:none;stroke-width:1px;stroke-linecap:butt;stroke-linejoin:miter;stroke-opacity:1;font-family:Bitstream Vera Sans"
       x="86.667953"
       y="215.33696"
       id="text3174"><tspan
         sodipodi:role="line"
         id="tspan3176"
         x="86.667953"
         y="215.33696">https://neo.eigenheimstrasse.de/svn/grafik/xmodmap2tastenaufkleber/tastaturbilder/</tspan></text>
    <g
       id="g3226"
       transform="translate(181.42857,-254.28571)">
      <path
         sodipodi:nodetypes="ccccccc"
         id="path3180"
         d="M 456.92701,356.41625 L 423.37119,385.58674 L 422.6255,401.35458 L 447.23311,429.73668 L 449.47016,417.12242 L 484.51735,384.79835 L 456.92701,356.41625 z "
         style="fill:none;fill-rule:evenodd;stroke:#000000;stroke-width:0.53671873px;stroke-linecap:butt;stroke-linejoin:miter;stroke-opacity:1" />
      <text
         transform="matrix(0.6507026,0.7049149,-0.6367319,0.8470202,0,0)"
         x="612.71985"
         y="-39.997044"
         style="font-size:7.1262393px;font-style:normal;font-weight:normal;fill:#000000;fill-opacity:1;stroke:none;stroke-width:1px;stroke-linecap:butt;stroke-linejoin:miter;stroke-opacity:1;font-family:DejaVu Sans"
         id="text3182"
         xml:space="preserve"><tspan
           x="612.71985"
           y="-39.997044"
           id="tspan3184">Compose</tspan></text>
      <g
         transform="matrix(0.5416332,0.6061656,-0.5829541,0.55408,549.52259,84.754963)"
         id="g3210">
        <rect
           width="36.455963"
           height="45.569954"
           x="169.62222"
           y="317.19299"
           style="fill:#ffffff;stroke:#000000;stroke-width:0.30379969"
           id="rect3186" />
        <g
           transform="matrix(0.3037997,0,0,0.3037997,-297.10341,-150.16553)"
           id="g3188">
          <rect
             id="rect3190"
             style="fill:#000000"
             y="1630.3666"
             x="1566.2942"
             height="50"
             width="60" />
          <path
             sodipodi:nodetypes="ccccccc"
             id="path3192"
             d="M 1539.1941,1582.3785 L 1593.1941,1582.3785 L 1593.1941,1610.9618 L 1596.4341,1639.3384 L 1579.3607,1626.3785 L 1539.1941,1626.3785 L 1539.1941,1582.3785 z "
             style="fill:#ffffff;stroke:#000000;stroke-width:1" />
          <text
             xml:space="preserve"
             id="text3194"
             style="font-size:30px;font-weight:bold;text-align:center;text-anchor:middle;fill:#000000"
             y="1612.7524"
             x="1565.3245">a</text>
          <path
             style="fill:#ffffff;stroke:#000000;stroke-width:1"
             d="M 1653.3924,1582.3785 L 1599.3924,1582.3785 L 1599.3924,1610.9618 L 1596.1524,1639.3384 L 1613.2258,1626.3785 L 1653.3924,1626.3785 L 1653.3924,1582.3785 z "
             id="path3196"
             sodipodi:nodetypes="ccccccc" />
          <text
             xml:space="preserve"
             id="text3198"
             style="font-size:30px;font-weight:bold;text-align:center;text-anchor:middle;fill:#000000"
             y="1612.7524"
             x="1627.4413">e</text>
          <g
             id="g3200"
             transform="translate(339.85782,73.874896)">
            <text
               xml:space="preserve"
               id="text3202"
               style="font-size:30px;font-weight:bold;text-align:center;text-anchor:middle;fill:#ffffff"
               y="1589.7026"
               x="1250.7571">a</text>
            <text
               xml:space="preserve"
               id="text3204"
               style="font-size:30px;font-weight:bold;text-align:center;text-anchor:middle;fill:#ffffff"
               y="1589.6577"
               x="1262.2319">e</text>
          </g>
        </g>
        <text
           x="167.3396"
           y="326.76529"
           style="font-size:9.63412762px;font-style:normal;font-weight:normal;fill:#000000;fill-opacity:1;stroke:none;stroke-width:1px;stroke-linecap:butt;stroke-linejoin:miter;stroke-opacity:1;font-family:DejaVu Sans"
           id="text3206"
           xml:space="preserve"><tspan
             x="167.3396"
             y="326.76529"
             id="tspan3208"> &amp;mod5</tspan></text>
      </g>
      <path
         id="path3224"
         d="M 422.6255,386.37514 L 450.96153,415.54563 L 447.23311,429.73668 L 480.04325,402.14297 L 484.51735,383.22157 L 450.21585,416.33402"
         style="fill:none;fill-rule:evenodd;stroke:#000000;stroke-width:0.53671873px;stroke-linecap:butt;stroke-linejoin:miter;stroke-opacity:1" />
    </g>
  </g>
</svg>
