<?xml version="1.0" encoding="UTF-8" standalone="no"?>
<!-- Created with Inkscape (http://www.inkscape.org/) -->

<svg
   xmlns:dc="http://purl.org/dc/elements/1.1/"
   xmlns:cc="http://creativecommons.org/ns#"
   xmlns:rdf="http://www.w3.org/1999/02/22-rdf-syntax-ns#"
   xmlns:svg="http://www.w3.org/2000/svg"
   xmlns="http://www.w3.org/2000/svg"
   xmlns:sodipodi="http://sodipodi.sourceforge.net/DTD/sodipodi-0.dtd"
   xmlns:inkscape="http://www.inkscape.org/namespaces/inkscape"
   width="521.67786"
   height="49.995655"
   id="svg44668"
   sodipodi:version="0.32"
   inkscape:version="0.47 r22583"
   version="1.0"
   sodipodi:docname="neo_kopf_trac_522x50.svg"
   inkscape:output_extension="org.inkscape.output.svg.inkscape">
  <defs
     id="defs44670">
    <inkscape:perspective
       sodipodi:type="inkscape:persp3d"
       inkscape:vp_x="0 : 526.18109 : 1"
       inkscape:vp_y="0 : 1000 : 0"
       inkscape:vp_z="744.09448 : 526.18109 : 1"
       inkscape:persp3d-origin="372.04724 : 350.78739 : 1"
       id="perspective44676" />
    <inkscape:perspective
       id="perspective2830"
       inkscape:persp3d-origin="0.5 : 0.33333333 : 1"
       inkscape:vp_z="1 : 0.5 : 1"
       inkscape:vp_y="0 : 1000 : 0"
       inkscape:vp_x="0 : 0.5 : 1"
       sodipodi:type="inkscape:persp3d" />
  </defs>
  <sodipodi:namedview
     id="base"
     pagecolor="#ffffff"
     bordercolor="#666666"
     borderopacity="1.0"
     inkscape:pageopacity="0.0"
     inkscape:pageshadow="2"
     inkscape:zoom="1.6482626"
     inkscape:cx="265.3377"
     inkscape:cy="-41.737566"
     inkscape:document-units="px"
     inkscape:current-layer="layer1"
     showgrid="false"
     inkscape:window-width="1400"
     inkscape:window-height="1002"
     inkscape:window-x="0"
     inkscape:window-y="0"
     inkscape:window-maximized="1" />
  <metadata
     id="metadata44673">
    <rdf:RDF>
      <cc:Work
         rdf:about="">
        <dc:format>image/svg+xml</dc:format>
        <dc:type
           rdf:resource="http://purl.org/dc/dcmitype/StillImage" />
      </cc:Work>
    </rdf:RDF>
  </metadata>
  <g
     inkscape:label="Ebene 1"
     inkscape:groupmode="layer"
     id="layer1"
     transform="translate(46.55321,-504.50721)">
    <path
       style="font-size:143.38720703px;font-style:normal;font-weight:normal;fill:#000000;fill-opacity:1;stroke:none;stroke-width:1px;stroke-linecap:butt;stroke-linejoin:miter;stroke-opacity:1;display:inline;font-family:Linux Libertine"
       d="M 41.24939,504.50721 C 34.77519,504.50721 30.29805,506.77358 26.88035,510.60596 C 28.52665,511.48847 30.86762,512.92674 32.8867,513.97883 C 35.03555,512.06715 37.35933,510.42115 41.24939,510.42115 C 45.16725,510.42115 48.58169,511.813 50.58233,514.5794 C 52.58289,517.34579 54.04752,521.43809 54.04752,526.86931 C 54.04752,532.27525 53.50694,536.36755 51.50639,539.15923 C 49.50574,541.92577 46.55333,543.31747 42.63547,543.31747 C 26.63503,542.12152 27.32723,520.13111 19.39552,510.09781 C 16.22968,506.41771 11.92045,504.59991 6.4125604,504.59961 C 0.23540244,504.59976 -4.7122316,506.63771 -8.4184986,510.69837 L -2.3659496,513.88643 C -0.15247856,511.65303 2.6659594,510.55984 6.0891424,510.55984 C 9.5895204,510.55984 12.27523,511.63676 14.12841,513.79402 C 20.07803,521.56273 22.27361,537.13991 27.57339,542.43969 C 31.15336,546.0197 33.98569,548.5899 39.17027,549.13901 C 39.18118,549.14182 39.2056,549.13635 39.21647,549.13901 C 40.11944,549.36906 43.20383,549.46132 43.79054,549.27769 C 50.27867,549.27769 52.98609,547.35566 56.40386,543.54856 C 59.8215,539.71617 61.02407,534.15337 61.02413,526.86931 C 61.02407,519.61068 58.87906,514.06873 55.4336,510.23634 C 52.01589,506.40411 47.72358,504.50721 41.24939,504.50721 z M -28.997207,504.96362 C -34.390162,505.01522 -38.590748,507.33511 -42.118903,511.14295 C -45.498249,514.79023 -46.877943,519.90609 -46.489515,527.00799 C -46.409647,528.48337 -46.489515,541.74288 -46.489515,548.39429 C -44.584412,548.39429 -42.092039,548.39429 -40.483166,548.39429 C -40.440171,541.41333 -40.575571,540.99979 -40.575571,527.00799 C -40.575586,521.60206 -39.759757,517.13363 -36.740748,514.44086 C -34.183736,512.16 -31.837999,510.88643 -27.668196,511.1051 C -23.480118,511.32495 -19.648591,514.17666 -17.865641,517.93098 C -15.358705,523.20976 -17.105078,535.62003 -10.359012,543.08653 C -6.5755376,547.04577 0.71137144,549.37009 7.4290204,549.37009 C 9.7711904,549.36995 12.18624,549.09672 14.68284,548.53845 C 17.20514,548.00545 17.80183,547.64307 20.50438,546.55166 L 14.49803,543.36374 C 13.58174,543.38592 8.2659004,543.89275 8.3068704,543.7795 C -0.15419356,544.36985 -4.6531066,540.65708 -6.5241906,538.23517 C -7.3789476,537.12882 -8.1773136,535.91439 -8.9267286,533.70731 C -9.2172956,532.52615 -9.4828316,531.30773 -9.6659716,530.01109 C -10.137757,526.67105 -10.362206,523.07005 -10.959647,519.66169 C -11.557044,516.25349 -13.198046,513.43741 -15.242659,510.97987 C -18.346814,507.24906 -23.489314,504.96377 -28.997207,504.96362 z M -5.9235556,524.09715 C -5.7505426,525.92855 -5.9022356,527.76409 -4.7684876,529.59534 L 13.11195,529.59534 L 16.53095,526.82318 L 12.00309,524.09715 L -5.9235556,524.09715 z"
       id="path44662"
       sodipodi:nodetypes="cccssscccsccscsssccscccssccsszscsccccscsssccccccc" />
    <text
       xml:space="preserve"
       style="font-size:28.49365616px;font-style:normal;font-variant:normal;font-weight:bold;font-stretch:normal;fill:#000000;fill-opacity:1;stroke:none;font-family:Linux Biolinum O;-inkscape-font-specification:Bitstream Vera Sans Bold"
       x="77.682159"
       y="543.9361"
       id="text2814"><tspan
         sodipodi:role="line"
         id="tspan2816"
         x="77.682159"
         y="543.9361"
         style="font-size:36;font-style:normal;font-variant:normal;font-weight:bold;font-stretch:normal;font-family:Linux Biolinum O;-inkscape-font-specification:Linux Biolinum O Bold">ergonomisch optimiert</tspan></text>
    <text
       xml:space="preserve"
       style="font-size:40px;font-style:normal;font-variant:normal;font-weight:normal;font-stretch:normal;fill:#000000;fill-opacity:1;stroke:none;font-family:Linux Biolinum O;-inkscape-font-specification:Linux Biolinum O"
       x="154.44046"
       y="111.77184"
       id="text2818"
       transform="translate(-46.55321,504.50721)"><tspan
         sodipodi:role="line"
         id="tspan2820" /></text>
  </g>
</svg>
