<?xml version="1.0" encoding="UTF-8" standalone="no"?>
<!-- Created with Inkscape (http://www.inkscape.org/) -->
<svg
   xmlns:dc="http://purl.org/dc/elements/1.1/"
   xmlns:cc="http://creativecommons.org/ns#"
   xmlns:rdf="http://www.w3.org/1999/02/22-rdf-syntax-ns#"
   xmlns:svg="http://www.w3.org/2000/svg"
   xmlns="http://www.w3.org/2000/svg"
   xmlns:sodipodi="http://sodipodi.sourceforge.net/DTD/sodipodi-0.dtd"
   xmlns:inkscape="http://www.inkscape.org/namespaces/inkscape"
   width="521.67786"
   height="49.995655"
   id="svg44668"
   sodipodi:version="0.32"
   inkscape:version="0.46"
   version="1.0"
   sodipodi:docname="neo_kopf_trac_522x50.svg"
   inkscape:output_extension="org.inkscape.output.svg.inkscape">
  <defs
     id="defs44670">
    <inkscape:perspective
       sodipodi:type="inkscape:persp3d"
       inkscape:vp_x="0 : 526.18109 : 1"
       inkscape:vp_y="0 : 1000 : 0"
       inkscape:vp_z="744.09448 : 526.18109 : 1"
       inkscape:persp3d-origin="372.04724 : 350.78739 : 1"
       id="perspective44676" />
  </defs>
  <sodipodi:namedview
     id="base"
     pagecolor="#ffffff"
     bordercolor="#666666"
     borderopacity="1.0"
     inkscape:pageopacity="0.0"
     inkscape:pageshadow="2"
     inkscape:zoom="0.35"
     inkscape:cx="350"
     inkscape:cy="520"
     inkscape:document-units="px"
     inkscape:current-layer="layer1"
     showgrid="false"
     inkscape:window-width="640"
     inkscape:window-height="672"
     inkscape:window-x="556"
     inkscape:window-y="0" />
  <metadata
     id="metadata44673">
    <rdf:RDF>
      <cc:Work
         rdf:about="">
        <dc:format>image/svg+xml</dc:format>
        <dc:type
           rdf:resource="http://purl.org/dc/dcmitype/StillImage" />
      </cc:Work>
    </rdf:RDF>
  </metadata>
  <g
     inkscape:label="Ebene 1"
     inkscape:groupmode="layer"
     id="layer1"
     transform="translate(46.55321,-504.50721)">
    <path
       style="font-size:143.38720703px;font-style:normal;font-weight:normal;fill:#000000;fill-opacity:1;stroke:none;stroke-width:1px;stroke-linecap:butt;stroke-linejoin:miter;stroke-opacity:1;display:inline;font-family:Linux Libertine"
       d="M 41.24939,504.50721 C 34.77519,504.50721 30.29805,506.77358 26.88035,510.60596 C 28.52665,511.48847 30.86762,512.92674 32.8867,513.97883 C 35.03555,512.06715 37.35933,510.42115 41.24939,510.42115 C 45.16725,510.42115 48.58169,511.813 50.58233,514.5794 C 52.58289,517.34579 54.04752,521.43809 54.04752,526.86931 C 54.04752,532.27525 53.50694,536.36755 51.50639,539.15923 C 49.50574,541.92577 46.55333,543.31747 42.63547,543.31747 C 26.63503,542.12152 27.32723,520.13111 19.39552,510.09781 C 16.22968,506.41771 11.92045,504.59991 6.4125604,504.59961 C 0.23540244,504.59976 -4.7122316,506.63771 -8.4184986,510.69837 L -2.3659496,513.88643 C -0.15247856,511.65303 2.6659594,510.55984 6.0891424,510.55984 C 9.5895204,510.55984 12.27523,511.63676 14.12841,513.79402 C 20.07803,521.56273 22.27361,537.13991 27.57339,542.43969 C 31.15336,546.0197 33.98569,548.5899 39.17027,549.13901 C 39.18118,549.14182 39.2056,549.13635 39.21647,549.13901 C 40.11944,549.36906 43.20383,549.46132 43.79054,549.27769 C 50.27867,549.27769 52.98609,547.35566 56.40386,543.54856 C 59.8215,539.71617 61.02407,534.15337 61.02413,526.86931 C 61.02407,519.61068 58.87906,514.06873 55.4336,510.23634 C 52.01589,506.40411 47.72358,504.50721 41.24939,504.50721 z M -28.997207,504.96362 C -34.390162,505.01522 -38.590748,507.33511 -42.118903,511.14295 C -45.498249,514.79023 -46.877943,519.90609 -46.489515,527.00799 C -46.409647,528.48337 -46.489515,541.74288 -46.489515,548.39429 C -44.584412,548.39429 -42.092039,548.39429 -40.483166,548.39429 C -40.440171,541.41333 -40.575571,540.99979 -40.575571,527.00799 C -40.575586,521.60206 -39.759757,517.13363 -36.740748,514.44086 C -34.183736,512.16 -31.837999,510.88643 -27.668196,511.1051 C -23.480118,511.32495 -19.648591,514.17666 -17.865641,517.93098 C -15.358705,523.20976 -17.105078,535.62003 -10.359012,543.08653 C -6.5755376,547.04577 0.71137144,549.37009 7.4290204,549.37009 C 9.7711904,549.36995 12.18624,549.09672 14.68284,548.53845 C 17.20514,548.00545 17.80183,547.64307 20.50438,546.55166 L 14.49803,543.36374 C 13.58174,543.38592 8.2659004,543.89275 8.3068704,543.7795 C -0.15419356,544.36985 -4.6531066,540.65708 -6.5241906,538.23517 C -7.3789476,537.12882 -8.1773136,535.91439 -8.9267286,533.70731 C -9.2172956,532.52615 -9.4828316,531.30773 -9.6659716,530.01109 C -10.137757,526.67105 -10.362206,523.07005 -10.959647,519.66169 C -11.557044,516.25349 -13.198046,513.43741 -15.242659,510.97987 C -18.346814,507.24906 -23.489314,504.96377 -28.997207,504.96362 z M -5.9235556,524.09715 C -5.7505426,525.92855 -5.9022356,527.76409 -4.7684876,529.59534 L 13.11195,529.59534 L 16.53095,526.82318 L 12.00309,524.09715 L -5.9235556,524.09715 z"
       id="path44662"
       sodipodi:nodetypes="cccssscccsccscsssccscccssccsszscsccccscsssccccccc" />
    <path
       style="font-size:31.72240448px;font-style:normal;font-weight:bold;fill:#000000;fill-opacity:1;stroke:none;stroke-width:1px;stroke-linecap:butt;stroke-linejoin:miter;stroke-opacity:1;font-family:Linux Libertine"
       d="M 71.02023,547.12988 L 86.525175,547.12988 C 86.814295,544.99234 87.103431,543.20589 87.392585,541.77053 L 85.998534,541.46074 C 85.730034,542.6999 85.301493,543.71188 84.712909,544.49668 C 84.124296,545.27115 83.416944,545.65839 82.590853,545.65838 L 77.727164,545.65838 C 77.582589,545.65839 77.474163,545.59643 77.401886,545.47251 C 77.329595,545.33827 77.293453,545.10077 77.29346,544.76 L 77.29346,536.87586 L 80.887013,536.87586 C 81.134834,536.87587 81.331033,536.98946 81.475613,537.21663 C 81.630496,537.43349 81.733759,537.671 81.785402,537.92915 C 81.837022,538.18731 81.898979,538.58488 81.971275,539.12183 C 81.98159,539.20445 82.033221,539.2819 82.12617,539.35418 C 82.229421,539.42647 82.353336,539.46261 82.497917,539.4626 L 83.163963,539.4626 L 83.349837,539.15281 C 83.205255,537.9653 83.132971,536.9843 83.132984,536.20982 C 83.132971,535.43536 83.205255,534.45436 83.349837,533.26682 L 83.163963,532.95703 L 82.497917,532.95703 C 82.353336,532.95705 82.229421,532.99319 82.12617,533.06546 C 82.033221,533.13776 81.98159,533.2152 81.971275,533.2978 C 81.919632,533.70054 81.873164,534.00516 81.83187,534.21168 C 81.80088,534.41822 81.744085,534.64539 81.661486,534.89321 C 81.578864,535.13073 81.475601,535.30111 81.351697,535.40437 C 81.22777,535.49731 81.072876,535.54378 80.887013,535.54377 L 77.29346,535.54377 L 77.29346,529.00722 C 77.293453,528.40831 77.438021,528.10885 77.727164,528.10883 L 81.862849,528.10883 C 82.265563,528.10885 82.637309,528.19662 82.97809,528.37215 C 83.329171,528.54772 83.613144,528.76457 83.83001,529.02271 C 84.057175,529.27056 84.263701,529.59067 84.449588,529.98306 C 84.645773,530.37547 84.795505,530.7214 84.898782,531.02085 C 85.002031,531.32033 85.110457,531.67142 85.224061,532.07413 L 86.494196,531.76434 C 86.174065,530.12248 85.946886,528.41864 85.81266,526.65282 L 71.051209,526.65282 L 70.942783,526.71478 L 70.942783,527.4273 C 70.942782,527.60286 71.030556,527.69064 71.206104,527.69062 L 71.655298,527.69062 C 72.2852,527.69064 72.729231,527.79906 72.987391,528.01589 C 73.255872,528.22244 73.390114,528.5787 73.390117,529.08467 L 73.390117,544.69804 C 73.390114,545.20403 73.255872,545.56545 72.987391,545.7823 C 72.729231,545.98883 72.2852,546.09209 71.655298,546.09209 L 71.206104,546.09209 C 71.030556,546.09209 70.942782,546.17986 70.942783,546.35541 L 70.942783,547.06792 L 71.02023,547.12988 M 94.703608,533.01899 L 94.64165,535.28045 C 95.085674,534.55762 95.694925,534 96.469406,533.60759 C 97.243869,533.2152 97.946057,533.019 98.575972,533.01899 C 99.185213,533.019 99.660222,533.1739 100.001,533.48367 C 100.35208,533.79348 100.52763,534.16522 100.52764,534.59891 C 100.52763,535.13589 100.3779,535.57476 100.07845,535.91552 C 99.789301,536.24597 99.36076,536.41119 98.792824,536.41118 C 98.555309,536.41119 98.307478,536.35956 98.04933,536.25629 C 97.801489,536.14271 97.631105,536.0033 97.538178,535.83807 C 97.280011,535.39405 97.037344,535.17204 96.810174,535.17202 C 96.634618,535.17204 96.386787,535.26497 96.06668,535.45083 C 95.756883,535.63672 95.452258,535.94651 95.152802,536.3802 C 94.853333,536.80359 94.703601,537.27344 94.703608,537.78974 L 94.703608,544.71353 C 94.703601,545.63257 95.219916,546.09209 96.252554,546.09209 L 96.500385,546.09209 C 96.675923,546.09209 96.763697,546.17986 96.763706,546.35541 L 96.763706,547.0989 L 96.701748,547.16086 C 94.997901,547.11956 93.73293,547.0989 92.906831,547.0989 L 89.220341,547.16086 L 89.158383,547.0989 L 89.158383,546.35541 C 89.158382,546.17986 89.240992,546.09209 89.406214,546.09209 L 89.700514,546.09209 C 90.712489,546.09209 91.218477,545.63257 91.218481,544.71353 L 91.218481,536.27177 C 91.218477,535.93102 91.151356,535.68319 91.017118,535.52828 C 90.882873,535.36307 90.645368,535.28046 90.304603,535.28045 C 90.02579,535.28046 89.654044,535.33726 89.189362,535.45083 L 88.95702,534.30461 C 90.103238,534.0568 90.970646,533.85027 91.559249,533.68504 C 92.15817,533.5095 92.793237,533.28749 93.464452,533.01899 L 94.703608,533.01899 M 110.8746,538.11502 C 110.87459,536.87587 110.64225,535.9052 110.17757,535.203 C 109.72321,534.4905 109.12428,534.13424 108.3808,534.13423 C 107.73023,534.13424 107.20359,534.42854 106.80087,535.01713 C 106.39814,535.59541 106.19678,536.4525 106.19678,537.58838 C 106.19678,538.19764 106.26906,538.79656 106.41363,539.38516 C 106.5582,539.96344 106.83184,540.49008 107.23458,540.96508 C 107.64762,541.4401 108.15877,541.6776 108.76803,541.67759 C 109.01586,541.6776 109.2482,541.63113 109.46506,541.53819 C 109.6819,541.44526 109.90392,541.28004 110.1311,541.04253 C 110.35827,540.80503 110.53898,540.43844 110.67324,539.94278 C 110.80747,539.43679 110.87459,538.82754 110.8746,538.11502 M 106.78538,547.51712 C 106.33102,547.51712 106.00058,547.47581 105.79406,547.3932 C 105.28806,547.91984 105.03507,548.84921 105.03507,550.18131 C 105.03507,550.70794 105.15898,551.17263 105.40682,551.57536 C 105.66497,551.97808 105.97993,552.2827 106.35168,552.48923 C 106.72342,552.69575 107.07968,552.84549 107.42045,552.93843 C 107.76121,553.04169 108.06067,553.09332 108.31884,553.09332 C 108.93841,553.09332 109.55282,553.03136 110.16208,552.90745 C 110.78165,552.79385 111.35992,552.61831 111.8969,552.38081 C 112.44418,552.1433 112.88305,551.81802 113.21351,551.40497 C 113.55426,551.00224 113.72465,550.54272 113.72466,550.02641 C 113.72465,549.62368 113.60589,549.26226 113.3684,548.94215 C 113.14121,548.62203 112.85207,548.36904 112.50099,548.18317 C 112.16021,548.00762 111.76781,547.85789 111.32379,547.73397 C 110.89008,547.61006 110.48735,547.52745 110.11561,547.48614 C 109.75419,547.44483 109.41342,547.42418 109.09331,547.42418 C 108.87645,547.42418 108.54601,547.43967 108.10199,547.47065 C 107.64762,547.50163 107.20875,547.51712 106.78538,547.51712 M 115.14969,534.97066 C 114.90184,534.97067 114.69015,534.91904 114.51462,534.81577 C 114.34939,534.70219 114.23063,534.59376 114.15836,534.49049 C 114.09639,534.37691 114.03443,534.23751 113.97249,534.07227 C 113.86921,533.8038 113.71948,533.66956 113.52329,533.66955 C 113.2548,533.66956 112.93985,533.8606 112.57844,534.24266 C 113.72465,535.16171 114.29775,536.42152 114.29777,538.02208 C 114.29775,539.50908 113.7453,540.68628 112.6404,541.55368 C 111.53547,542.42109 110.19822,542.8548 108.62863,542.85479 C 107.60632,542.8548 106.75956,542.67925 106.08836,542.32815 C 105.8715,542.82382 105.76307,543.32464 105.76308,543.83063 C 105.76307,544.39858 105.90764,544.81679 106.19678,545.08527 C 106.49624,545.34343 106.82668,545.47251 107.18811,545.47251 C 107.20875,545.47251 107.59083,545.43637 108.33433,545.36408 C 109.08814,545.2918 109.70255,545.25566 110.17757,545.25566 C 111.15856,545.25566 112.0363,545.35892 112.81078,545.56545 C 113.59557,545.76165 114.21514,546.00948 114.66951,546.30894 C 115.13418,546.59808 115.51626,546.92852 115.81573,547.30027 C 116.12551,547.67201 116.33203,548.01278 116.43531,548.32257 C 116.54889,548.64268 116.60568,548.93698 116.6057,549.20547 C 116.60568,550.31038 116.13583,551.27589 115.19616,552.102 C 114.26678,552.9281 113.11539,553.53218 111.74201,553.91426 C 110.37893,554.30666 108.93841,554.50286 107.42045,554.50286 C 106.72858,554.50286 106.07802,554.4409 105.46878,554.31699 C 104.86985,554.19307 104.3019,553.9917 103.76494,553.7129 C 103.23829,553.44441 102.82008,553.05718 102.51029,552.55119 C 102.2005,552.05552 102.04561,551.47209 102.04561,550.80088 C 102.04561,550.17098 102.2573,549.51526 102.68068,548.83372 C 103.11438,548.15219 103.72879,547.53777 104.52392,546.99048 C 103.5739,546.43286 103.09889,545.66871 103.09889,544.69804 C 103.09889,543.67574 103.59455,542.69474 104.58588,541.75504 C 104.06956,541.35232 103.64618,540.79987 103.31574,540.09767 C 102.9853,539.38516 102.82008,538.64683 102.82008,537.88268 C 102.82008,536.45766 103.39835,535.29079 104.5549,534.38206 C 105.71144,533.47336 107.07451,533.019 108.64412,533.01899 C 109.82131,533.019 110.82296,533.22553 111.64907,533.63857 C 112.08276,533.24618 112.60424,532.93123 113.21351,532.69371 C 113.83307,532.44589 114.3752,532.32198 114.8399,532.32196 C 115.3975,532.32198 115.82088,532.46655 116.11003,532.75567 C 116.39915,533.04482 116.54372,533.36493 116.54374,533.71601 C 116.54372,534.0981 116.41981,534.40273 116.17199,534.62989 C 115.92415,534.85708 115.58338,534.97067 115.14969,534.97066 M 124.95452,534.30461 C 124.31428,534.30463 123.76182,534.5886 123.29714,535.15653 C 122.83245,535.71417 122.49685,536.40086 122.29033,537.21663 C 122.0838,538.03242 121.98054,538.91015 121.98054,539.84984 C 121.98054,540.47975 122.05798,541.1458 122.21288,541.84798 C 122.36777,542.55017 122.58979,543.23171 122.87893,543.89259 C 123.16806,544.54315 123.56562,545.08528 124.07162,545.51898 C 124.5776,545.94236 125.14038,546.15405 125.75997,546.15405 C 126.08007,546.15405 126.38986,546.08693 126.68933,545.95268 C 126.98879,545.80812 127.28825,545.57578 127.58772,545.25566 C 127.88717,544.92522 128.12468,544.41923 128.30024,543.73769 C 128.4861,543.05616 128.57904,542.24038 128.57905,541.29036 C 128.57904,539.07021 128.2486,537.35088 127.58772,536.13237 C 126.93716,534.91388 126.05942,534.30463 124.95452,534.30461 M 118.10818,540.57784 C 118.10818,538.33704 118.73808,536.51962 119.99789,535.12555 C 121.26802,533.72119 123.02865,533.019 125.27979,533.01899 C 126.27111,533.019 127.17466,533.16873 127.99045,533.46818 C 128.80621,533.75733 129.48259,534.13941 130.01957,534.6144 C 130.55652,535.08942 131.00572,535.64704 131.36715,536.28726 C 131.73888,536.92751 132.0022,537.58322 132.15711,538.25442 C 132.32232,538.91532 132.40493,539.59169 132.40494,540.28354 C 132.40493,540.94443 132.31199,541.60532 132.12613,542.26619 C 131.95057,542.92708 131.6666,543.57764 131.27421,544.21787 C 130.89213,544.84777 130.42744,545.41055 129.88016,545.90622 C 129.33286,546.39155 128.65648,546.78395 127.85104,547.08341 C 127.05591,547.37255 126.18334,547.51712 125.23333,547.51712 C 124.11808,547.51712 123.09577,547.31059 122.16641,546.89754 C 121.23704,546.48449 120.48322,545.94236 119.90495,545.27115 C 119.337,544.59994 118.89297,543.86161 118.57286,543.05616 C 118.26307,542.24038 118.10818,541.41428 118.10818,540.57784 M 140.1032,533.01899 L 140.04124,535.00164 C 140.91897,534.34077 141.70893,533.84511 142.41113,533.51465 C 143.11331,533.18422 143.82582,533.019 144.54867,533.01899 C 145.20955,533.019 145.77233,533.10678 146.23702,533.28231 C 146.71202,533.45787 147.08893,533.69021 147.36775,533.97934 C 147.64655,534.25816 147.8634,534.6299 148.01831,535.09458 C 148.18352,535.54894 148.29194,536.00847 148.34359,536.47314 C 148.39521,536.92751 148.42102,537.4748 148.42104,538.11502 L 148.42104,544.71353 C 148.42102,545.63257 148.93734,546.09209 149.96998,546.09209 L 150.21781,546.09209 C 150.39334,546.09209 150.48112,546.17986 150.48114,546.35541 L 150.48114,547.0989 L 150.41918,547.16086 C 148.71532,547.11956 147.45035,547.0989 146.62426,547.0989 L 143.09266,547.16086 L 143.03071,547.0989 L 143.03071,546.35541 C 143.0307,546.17986 143.11331,546.09209 143.27854,546.09209 L 143.41794,546.09209 C 144.42991,546.09209 144.9359,545.63257 144.93591,544.71353 L 144.93591,537.89817 C 144.9359,536.75196 144.84813,535.94651 144.67259,535.48181 C 144.49703,535.01714 144.14077,534.7848 143.60382,534.78479 C 143.14945,534.7848 142.66928,534.90871 142.1633,535.15653 C 141.6573,535.40438 140.9706,535.82775 140.1032,536.42667 L 140.1032,544.71353 C 140.10319,545.63257 140.61951,546.09209 141.65215,546.09209 L 141.74508,546.09209 C 141.92062,546.09209 142.00839,546.17986 142.0084,546.35541 L 142.0084,547.0989 L 141.94645,547.16086 C 140.34586,547.11956 139.13252,547.0989 138.30642,547.0989 L 134.61993,547.16086 L 134.55798,547.0989 L 134.55798,546.35541 C 134.55797,546.17986 134.64058,546.09209 134.80581,546.09209 L 135.10011,546.09209 C 136.11208,546.09209 136.61807,545.63257 136.61807,544.71353 L 136.61807,536.27177 C 136.61807,535.93102 136.55095,535.68319 136.41671,535.52828 C 136.28246,535.36307 136.04496,535.28046 135.70419,535.28045 C 135.42538,535.28046 135.05364,535.33726 134.58895,535.45083 L 134.35661,534.30461 C 135.50283,534.0568 136.37024,533.85027 136.95884,533.68504 C 137.55776,533.5095 138.19283,533.28749 138.86404,533.01899 L 140.1032,533.01899 M 158.96936,534.30461 C 158.32912,534.30463 157.77666,534.5886 157.31199,535.15653 C 156.8473,535.71417 156.51169,536.40086 156.30517,537.21663 C 156.09864,538.03242 155.99538,538.91015 155.99538,539.84984 C 155.99538,540.47975 156.07283,541.1458 156.22772,541.84798 C 156.38261,542.55017 156.60463,543.23171 156.89377,543.89259 C 157.1829,544.54315 157.58046,545.08528 158.08646,545.51898 C 158.59244,545.94236 159.15522,546.15405 159.77481,546.15405 C 160.09492,546.15405 160.40471,546.08693 160.70418,545.95268 C 161.00363,545.80812 161.30309,545.57578 161.60257,545.25566 C 161.90202,544.92522 162.13952,544.41923 162.31508,543.73769 C 162.50094,543.05616 162.59388,542.24038 162.59389,541.29036 C 162.59388,539.07021 162.26344,537.35088 161.60257,536.13237 C 160.952,534.91388 160.07426,534.30463 158.96936,534.30461 M 152.12302,540.57784 C 152.12302,538.33704 152.75292,536.51962 154.01273,535.12555 C 155.28286,533.72119 157.0435,533.019 159.29464,533.01899 C 160.28595,533.019 161.1895,533.16873 162.00529,533.46818 C 162.82106,533.75733 163.49743,534.13941 164.03441,534.6144 C 164.57136,535.08942 165.02056,535.64704 165.38199,536.28726 C 165.75373,536.92751 166.01705,537.58322 166.17196,538.25442 C 166.33716,538.91532 166.41977,539.59169 166.41979,540.28354 C 166.41977,540.94443 166.32683,541.60532 166.14098,542.26619 C 165.96541,542.92708 165.68144,543.57764 165.28906,544.21787 C 164.90697,544.84777 164.44229,545.41055 163.89501,545.90622 C 163.3477,546.39155 162.67133,546.78395 161.86589,547.08341 C 161.07075,547.37255 160.19818,547.51712 159.24817,547.51712 C 158.13292,547.51712 157.11062,547.31059 156.18126,546.89754 C 155.25188,546.48449 154.49807,545.94236 153.9198,545.27115 C 153.35185,544.59994 152.90782,543.86161 152.5877,543.05616 C 152.27791,542.24038 152.12302,541.41428 152.12302,540.57784 M 185.98297,544.71353 L 185.98297,537.52642 C 185.98295,535.69868 185.55441,534.7848 184.69734,534.78479 C 184.17069,534.7848 183.67502,534.91388 183.21036,535.17202 C 182.74566,535.41987 182.20869,535.84324 181.59945,536.44216 C 181.65107,536.8862 181.67689,537.46964 181.6769,538.19247 L 181.6769,544.71353 C 181.67689,545.63257 182.18804,546.09209 183.21036,546.09209 C 183.38589,546.09209 183.47366,546.17986 183.47368,546.35541 L 183.47368,547.0989 L 183.41172,547.16086 C 181.88341,547.11956 180.70622,547.0989 179.88012,547.0989 L 176.47244,547.16086 L 176.41049,547.0989 L 176.41049,546.35541 C 176.41048,546.17986 176.49825,546.09209 176.67381,546.09209 C 177.68577,546.09209 178.19176,545.63257 178.19177,544.71353 L 178.19177,537.58838 C 178.19176,535.71933 177.75806,534.7848 176.89066,534.78479 C 176.43629,534.7848 176.00259,534.90355 175.58955,535.14104 C 175.17649,535.36823 174.63435,535.78645 173.96315,536.39569 L 173.96315,544.71353 C 173.96315,545.63257 174.4743,546.09209 175.49661,546.09209 C 175.67215,546.09209 175.75992,546.17986 175.75993,546.35541 L 175.75993,547.0989 L 175.69797,547.16086 C 174.16967,547.11956 172.99247,547.0989 172.16638,547.0989 L 168.47989,547.16086 L 168.41793,547.0989 L 168.41793,546.35541 C 168.41793,546.17986 168.50054,546.09209 168.66576,546.09209 L 168.96006,546.09209 C 169.97203,546.09209 170.47802,545.63257 170.47802,544.71353 L 170.47802,536.27177 C 170.47802,535.93102 170.4109,535.68319 170.27666,535.52828 C 170.14242,535.36307 169.90491,535.28046 169.56415,535.28045 C 169.28534,535.28046 168.91359,535.33726 168.44891,535.45083 L 168.21656,534.30461 C 169.36278,534.0568 170.23019,533.85027 170.81879,533.68504 C 171.41771,533.5095 172.05278,533.28749 172.724,533.01899 L 173.96315,533.01899 L 173.90119,534.98615 C 174.3762,534.57311 174.77892,534.24783 175.10937,534.01031 C 175.43981,533.77282 175.86835,533.55081 176.395,533.34427 C 176.93196,533.12743 177.47409,533.019 178.02139,533.01899 C 178.83716,533.019 179.52385,533.21004 180.08149,533.5921 C 180.63909,533.97419 181.03666,534.4905 181.27418,535.14104 C 182.08994,534.43887 182.85408,533.91223 183.56661,533.56112 C 184.27911,533.19971 185.03293,533.019 185.82808,533.01899 C 186.47861,533.019 187.03107,533.11194 187.48545,533.2978 C 187.93978,533.48369 188.29088,533.72119 188.53873,534.01031 C 188.79687,534.29946 188.99823,534.6867 189.14282,535.17202 C 189.28736,535.65737 189.37514,536.12205 189.40614,536.56607 C 189.44742,537.01012 189.46808,537.56257 189.4681,538.22345 L 189.4681,544.71353 C 189.46808,545.63257 189.98439,546.09209 191.01704,546.09209 L 191.26487,546.09209 C 191.4404,546.09209 191.52817,546.17986 191.52819,546.35541 L 191.52819,547.0989 L 191.46624,547.16086 C 189.76237,547.11956 188.4974,547.0989 187.67132,547.0989 L 184.26364,547.16086 L 184.20168,547.0989 L 184.20168,546.35541 C 184.20167,546.17986 184.28944,546.09209 184.465,546.09209 C 185.47696,546.09209 185.98295,545.63257 185.98297,544.71353 M 198.79275,544.71353 C 198.79274,545.63257 199.30905,546.09209 200.34169,546.09209 L 200.58952,546.09209 C 200.76506,546.09209 200.85283,546.17986 200.85284,546.35541 L 200.85284,547.0989 L 200.79089,547.16086 C 199.08704,547.11956 197.82207,547.0989 196.99597,547.0989 C 196.99596,547.0989 195.76714,547.11956 193.30948,547.16086 L 193.24752,547.0989 L 193.24752,546.35541 C 193.24752,546.17986 193.33013,546.09209 193.49535,546.09209 L 193.78965,546.09209 C 194.80163,546.09209 195.30762,545.63257 195.30762,544.71353 L 195.30762,536.27177 C 195.30762,535.93102 195.24049,535.68319 195.10626,535.52828 C 194.97201,535.36307 194.73451,535.28046 194.39374,535.28045 C 194.11493,535.28046 193.74318,535.33726 193.2785,535.45083 L 193.04616,534.30461 C 194.19238,534.0568 195.05978,533.85027 195.64839,533.68504 C 196.24731,533.5095 196.88238,533.28749 197.55359,533.01899 L 198.79275,533.01899 L 198.79275,544.71353 M 195.69485,530.3548 C 195.33343,529.98307 195.15272,529.53388 195.15272,529.00722 C 195.15272,528.4806 195.33343,528.0314 195.69485,527.65964 C 196.0666,527.28791 196.51579,527.10204 197.04244,527.10202 C 197.56907,527.10204 198.0131,527.28791 198.37453,527.65964 C 198.74627,528.0314 198.93214,528.4806 198.93215,529.00722 C 198.93214,529.53388 198.74627,529.98307 198.37453,530.3548 C 198.0131,530.72657 197.56907,530.91244 197.04244,530.91242 C 196.51579,530.91244 196.0666,530.72657 195.69485,530.3548 M 202.69609,542.51403 L 203.93524,542.42109 C 204.2347,543.8771 204.64259,544.90457 205.15891,545.50349 C 205.68555,546.10242 206.52198,546.40188 207.6682,546.40188 C 208.13288,546.40188 208.56142,546.20052 208.95383,545.79779 C 209.35654,545.39507 209.55791,544.85294 209.55791,544.1714 C 209.55791,543.52084 209.39269,542.98904 209.06225,542.57598 C 208.74213,542.16294 208.15869,541.81184 207.31194,541.5227 C 206.95052,541.38846 206.5891,541.23873 206.22768,541.07351 C 205.87658,540.89796 205.49451,540.67079 205.08146,540.39197 C 204.67873,540.11317 204.32248,539.8137 204.01269,539.49358 C 203.7029,539.17347 203.44474,538.7914 203.23822,538.34736 C 203.03169,537.89301 202.92843,537.42317 202.92843,536.93782 C 202.92843,535.84324 203.39827,534.91904 204.33797,534.16521 C 205.27766,533.40108 206.45486,533.019 207.86956,533.01899 C 209.35654,533.019 210.71961,533.3133 211.95878,533.90189 C 212.09301,534.93453 212.2066,536.00847 212.29955,537.12369 L 211.06039,537.30957 C 210.47178,535.23399 209.38752,534.1962 207.80761,534.19619 C 207.34292,534.1962 206.93503,534.37691 206.58394,534.73832 C 206.23284,535.08942 206.05729,535.55927 206.0573,536.14786 C 206.05729,536.70549 206.238,537.2218 206.59943,537.6968 C 206.97117,538.1615 207.42553,538.48161 207.9625,538.65715 C 209.51144,539.17347 210.72478,539.80338 211.60252,540.54686 C 212.48025,541.29036 212.91911,542.23522 212.91913,543.38143 C 212.91911,544.10428 212.74873,544.74451 212.40797,545.30213 C 212.07752,545.84942 211.63349,546.27796 211.07588,546.58775 C 210.52858,546.89754 209.94514,547.12988 209.32557,547.28478 C 208.71631,547.43967 208.09157,547.51712 207.45135,547.51712 C 206.96601,547.51712 206.28447,547.45 205.40674,547.31576 C 204.529,547.19184 203.82681,547.12988 203.30017,547.12988 C 203.21756,547.12988 203.13495,547.12988 203.05234,547.12988 C 203.05234,545.99399 202.93359,544.45537 202.69609,542.51403 M 232.82309,544.69804 C 232.82307,545.62741 233.3652,546.09209 234.44948,546.09209 C 234.62501,546.09209 234.71278,546.17986 234.7128,546.35541 L 234.7128,547.0989 L 234.65084,547.16086 C 233.06057,547.11956 231.8524,547.0989 231.02631,547.0989 C 231.02629,547.0989 229.79746,547.11956 227.33982,547.16086 L 227.27786,547.0989 L 227.27786,546.35541 C 227.27785,546.17986 227.36046,546.09209 227.52569,546.09209 L 227.81999,546.09209 C 228.83196,546.09209 229.33794,545.63257 229.33796,544.71353 L 229.33796,529.0382 C 229.33794,528.56321 229.22435,528.16565 228.99719,527.84551 C 228.78032,527.51509 228.4189,527.34987 227.91293,527.34985 C 227.72704,527.34987 227.52568,527.37568 227.30884,527.4273 L 227.0765,526.28108 C 228.2227,526.03327 229.09011,525.82674 229.67873,525.6615 C 230.27764,525.48597 230.9127,525.26396 231.58393,524.99545 L 232.82309,524.99545 L 232.82309,534.93968 C 233.6595,534.32012 234.48044,533.84511 235.28591,533.51465 C 236.09134,533.18422 236.80385,533.019 237.42345,533.01899 C 238.7452,533.019 239.69522,533.44238 240.27351,534.28912 C 240.85176,535.12557 241.1409,536.40086 241.14092,538.11502 L 241.14092,544.71353 C 241.1409,545.63257 241.65721,546.09209 242.68987,546.09209 L 242.9377,546.09209 C 243.11322,546.09209 243.20099,546.17986 243.20102,546.35541 L 243.20102,547.0989 L 243.13906,547.16086 C 241.4352,547.11956 240.17022,547.0989 239.34415,547.0989 L 235.81255,547.16086 L 235.75059,547.0989 L 235.75059,546.35541 C 235.75057,546.17986 235.83318,546.09209 235.99842,546.09209 C 236.5457,546.09209 236.95875,545.99399 237.23758,545.79779 C 237.51637,545.60159 237.65577,545.24017 237.6558,544.71353 L 237.6558,537.75876 C 237.65577,536.54027 237.55251,535.73482 237.34601,535.34241 C 237.13946,534.95002 236.72124,534.75382 236.09136,534.75381 C 235.7609,534.75382 235.30654,534.89839 234.72829,535.18751 C 234.15,535.46633 233.51493,535.88971 232.82309,536.45765 L 232.82309,544.69804 M 227.18492,544.06297 C 226.48272,545.28148 225.72374,546.16437 224.90797,546.71167 C 224.10251,547.24864 223.137,547.51712 222.01145,547.51712 C 219.94618,547.51712 218.3043,546.86656 217.0858,545.56545 C 215.87762,544.26434 215.27353,542.56566 215.27353,540.46942 C 215.27353,538.2596 215.92409,536.46799 217.2252,535.09458 C 218.52631,533.71086 220.13722,533.019 222.05791,533.01899 C 223.68946,533.019 224.92862,533.34428 225.77538,533.99482 C 226.62213,534.63507 227.04551,535.41987 227.04552,536.34922 C 227.04551,536.86555 226.90094,537.29409 226.61181,537.63485 C 226.33299,537.9653 225.95092,538.13052 225.46559,538.13051 C 224.9596,538.13052 224.54138,537.99111 224.21095,537.71229 C 223.89082,537.42317 223.70495,537.06175 223.65333,536.62803 C 223.60169,536.00847 223.4313,535.4715 223.14218,535.01713 C 222.86336,534.56278 222.45031,534.33561 221.90302,534.33559 C 221.05626,534.33561 220.34374,534.84159 219.76548,535.85356 C 219.19752,536.85522 218.91355,538.16666 218.91356,539.78788 C 218.91355,541.55368 219.2853,543.01485 220.0288,544.1714 C 220.77228,545.31762 221.66551,545.89073 222.70847,545.89073 C 223.21445,545.89073 223.7824,545.67904 224.41231,545.25566 C 225.04221,544.82196 225.64113,544.20238 226.20909,543.39692 L 227.18492,544.06297 M 248.6688,538.34736 L 253.74934,538.34736 C 253.80096,538.29574 253.82678,538.19764 253.82679,538.05306 C 253.82678,536.78294 253.59443,535.84841 253.12976,535.24947 C 252.67539,534.64023 252.1849,534.33561 251.65826,534.33559 C 251.50336,534.33561 251.33814,534.35626 251.1626,534.39755 C 250.99737,534.43887 250.78052,534.54213 250.51204,534.70734 C 250.24355,534.86225 249.99572,535.07394 249.76855,535.34241 C 249.55169,535.6109 249.33484,536.00847 249.11799,536.5351 C 248.91146,537.05142 248.76173,537.65551 248.6688,538.34736 M 256.39804,543.64476 L 257.37387,544.4657 C 255.8972,546.49998 254.00232,547.51712 251.68924,547.51712 C 250.53269,547.51712 249.50522,547.33125 248.60684,546.9595 C 247.70845,546.58775 246.99077,546.08176 246.45381,545.44153 C 245.92716,544.79098 245.5296,544.0733 245.26112,543.2885 C 245.00296,542.5037 244.87388,541.66211 244.87388,540.76372 C 244.87388,539.59685 245.07008,538.51775 245.46248,537.52642 C 245.8652,536.52478 246.38668,535.70384 247.02692,535.0636 C 247.67747,534.42338 248.40547,533.92255 249.21093,533.56112 C 250.0267,533.19971 250.8528,533.019 251.68924,533.01899 C 252.58762,533.019 253.38275,533.14292 254.07462,533.39074 C 254.76647,533.63858 255.31893,533.9587 255.73199,534.35108 C 256.15536,534.73317 256.50129,535.19785 256.76978,535.74513 C 257.03825,536.28211 257.21896,536.81392 257.31191,537.34055 C 257.41516,537.8672 257.46679,538.42482 257.46681,539.01341 C 257.46679,539.44712 257.04858,539.66397 256.21216,539.66397 L 248.52939,539.66397 C 248.51906,539.76724 248.5139,539.93762 248.5139,540.17512 C 248.5139,541.69309 248.91662,542.99937 249.72208,544.09395 C 250.53785,545.17821 251.4414,545.72034 252.43274,545.72034 C 253.82678,545.72034 255.14854,545.02848 256.39804,543.64476 M 259.75924,542.51403 L 260.9984,542.42109 C 261.29786,543.8771 261.70575,544.90457 262.22207,545.50349 C 262.7487,546.10242 263.58513,546.40188 264.73136,546.40188 C 265.19603,546.40188 265.62458,546.20052 266.01698,545.79779 C 266.4197,545.39507 266.62106,544.85294 266.62107,544.1714 C 266.62106,543.52084 266.45584,542.98904 266.12541,542.57598 C 265.80529,542.16294 265.22185,541.81184 264.3751,541.5227 C 264.01367,541.38846 263.65225,541.23873 263.29084,541.07351 C 262.93974,540.89796 262.55767,540.67079 262.14462,540.39197 C 261.74189,540.11317 261.38563,539.8137 261.07585,539.49358 C 260.76605,539.17347 260.5079,538.7914 260.30137,538.34736 C 260.09485,537.89301 259.99158,537.42317 259.99158,536.93782 C 259.99158,535.84324 260.46143,534.91904 261.40112,534.16521 C 262.34081,533.40108 263.51801,533.019 264.93272,533.01899 C 266.4197,533.019 267.78277,533.3133 269.02194,533.90189 C 269.15617,534.93453 269.26976,536.00847 269.3627,537.12369 L 268.12355,537.30957 C 267.53494,535.23399 266.45068,534.1962 264.87076,534.19619 C 264.40607,534.1962 263.99818,534.37691 263.6471,534.73832 C 263.296,535.08942 263.12045,535.55927 263.12045,536.14786 C 263.12045,536.70549 263.30116,537.2218 263.66258,537.6968 C 264.03433,538.1615 264.48868,538.48161 265.02566,538.65715 C 266.57459,539.17347 267.78793,539.80338 268.66568,540.54686 C 269.5434,541.29036 269.98227,542.23522 269.98228,543.38143 C 269.98227,544.10428 269.81189,544.74451 269.47113,545.30213 C 269.14068,545.84942 268.69665,546.27796 268.13904,546.58775 C 267.59173,546.89754 267.0083,547.12988 266.38873,547.28478 C 265.77947,547.43967 265.15473,547.51712 264.5145,547.51712 C 264.02916,547.51712 263.34763,547.45 262.4699,547.31576 C 261.59216,547.19184 260.88997,547.12988 260.36333,547.12988 C 260.28072,547.12988 260.19811,547.12988 260.1155,547.12988 C 260.1155,545.99399 259.99675,544.45537 259.75924,542.51403 M 279.9575,526.65282 L 293.37136,526.65282 C 293.8257,526.65284 294.05288,526.39985 294.0529,525.89384 L 295.19912,525.76992 C 295.33334,527.46346 295.56569,529.09501 295.89615,530.66459 L 294.6415,530.81949 C 294.47626,530.16895 294.32653,529.67328 294.19231,529.3325 C 294.05805,528.98142 293.87217,528.71294 293.63468,528.52705 C 293.40749,528.34119 293.16999,528.2276 292.92217,528.18628 C 292.68465,528.14499 292.32323,528.12434 291.83791,528.12432 L 290.11858,528.12432 C 289.54029,528.12434 289.14273,528.21728 288.92589,528.40313 C 288.70903,528.58902 288.6006,528.94012 288.60061,529.45641 L 288.60061,544.69804 C 288.6006,545.1937 288.73484,545.54996 289.00334,545.76681 C 289.27181,545.98366 289.71584,546.09209 290.33543,546.09209 L 291.17186,546.09209 C 291.34739,546.09209 291.43517,546.17986 291.43518,546.35541 L 291.43518,547.0989 L 291.37322,547.16086 C 288.85359,547.11956 287.18073,547.0989 286.35464,547.0989 L 281.97112,547.16086 L 281.90917,547.0989 L 281.90917,546.35541 C 281.90916,546.17986 281.99177,546.09209 282.157,546.09209 L 282.99343,546.09209 C 283.62333,546.09209 284.06736,545.9785 284.32552,545.75132 C 284.594,545.51382 284.72824,545.16272 284.72825,544.69804 L 284.72825,529.37897 C 284.72824,528.89365 284.61465,528.56321 284.38748,528.38764 C 284.17062,528.21211 283.77306,528.12434 283.19479,528.12432 L 281.49095,528.12432 C 281.00561,528.12434 280.63903,528.14499 280.3912,528.18628 C 280.15369,528.2276 279.91619,528.34119 279.67869,528.52705 C 279.4515,528.71294 279.27079,528.98142 279.13655,529.3325 C 279.00231,529.67328 278.85258,530.16895 278.68736,530.81949 L 277.43271,530.66459 C 277.76316,529.09501 277.9955,527.46346 278.12974,525.76992 L 279.27596,525.89384 C 279.27596,526.39985 279.50314,526.65284 279.9575,526.65282 M 306.59935,547.51712 C 305.92813,547.51712 305.386,547.38804 304.97296,547.12988 C 304.5599,546.88205 304.2088,546.48449 303.91968,545.93719 C 302.57725,546.99048 301.3794,547.51712 300.32612,547.51712 C 298.96305,547.51712 297.87362,547.17635 297.05785,546.49482 C 296.24207,545.80295 295.83418,544.8994 295.83418,543.78416 C 295.83418,541.51238 297.68259,539.90148 301.37941,538.95145 L 303.7338,538.26991 C 303.72347,537.48512 303.65118,536.81392 303.51695,536.25629 C 303.3827,535.68835 303.20715,535.26497 302.99031,534.98615 C 302.78377,534.70735 302.57209,534.51115 302.35524,534.39755 C 302.14871,534.27365 301.93702,534.21169 301.72017,534.21168 C 301.10059,534.21169 300.56362,534.32012 300.10927,534.53696 C 299.65491,534.75382 299.42773,535.03263 299.42773,535.37339 C 299.42773,535.6109 299.46387,535.86906 299.53616,536.14786 C 299.60844,536.42668 299.64458,536.61772 299.64459,536.72097 C 299.64458,537.04109 299.5155,537.34056 299.25735,537.61936 C 299.00951,537.88785 298.57581,538.02209 297.95624,538.02208 C 297.42959,538.02209 297.03203,537.86203 296.76355,537.54191 C 296.49506,537.2218 296.36082,536.83457 296.36082,536.3802 C 296.36082,535.78129 296.65512,535.2185 297.24372,534.69185 C 297.84264,534.1549 298.56032,533.74184 299.39676,533.45269 C 300.23318,533.16357 301.03863,533.019 301.81311,533.01899 C 305.41698,533.019 307.21892,534.86225 307.21893,538.54872 L 307.21893,543.16458 C 307.21892,544.12493 307.25506,544.79098 307.32736,545.16272 C 307.39963,545.53447 307.54936,545.72034 307.77655,545.72034 C 308.3135,545.72034 308.64911,545.05946 308.78337,543.73769 L 309.97605,543.95454 C 309.87277,544.67739 309.71272,545.28148 309.49588,545.76681 C 309.28934,546.25215 309.02602,546.61873 308.70592,546.86656 C 308.39611,547.11439 308.076,547.28478 307.74557,547.37771 C 307.41512,547.47065 307.03304,547.51712 306.59935,547.51712 M 303.7338,544.80646 L 303.7338,539.69494 L 301.84409,540.23708 C 300.04731,540.81535 299.14892,541.95125 299.14892,543.64476 C 299.14892,543.9752 299.20571,544.31597 299.31931,544.66706 C 299.44322,545.01816 299.6704,545.34343 300.00084,545.6429 C 300.33128,545.94236 300.72884,546.09209 301.19353,546.09209 C 301.47234,546.09209 301.85957,545.96301 302.35524,545.70485 C 302.8509,545.4467 303.31042,545.14723 303.7338,544.80646 M 311.55598,542.51403 L 312.79514,542.42109 C 313.0946,543.8771 313.50248,544.90457 314.0188,545.50349 C 314.54544,546.10242 315.38187,546.40188 316.52809,546.40188 C 316.99277,546.40188 317.42131,546.20052 317.81372,545.79779 C 318.21644,545.39507 318.4178,544.85294 318.41781,544.1714 C 318.4178,543.52084 318.25258,542.98904 317.92215,542.57598 C 317.60202,542.16294 317.01859,541.81184 316.17184,541.5227 C 315.81041,541.38846 315.44899,541.23873 315.08758,541.07351 C 314.73648,540.89796 314.3544,540.67079 313.94136,540.39197 C 313.53863,540.11317 313.18237,539.8137 312.87258,539.49358 C 312.56279,539.17347 312.30463,538.7914 312.09811,538.34736 C 311.89158,537.89301 311.78832,537.42317 311.78832,536.93782 C 311.78832,535.84324 312.25817,534.91904 313.19786,534.16521 C 314.13755,533.40108 315.31475,533.019 316.72946,533.01899 C 318.21644,533.019 319.57951,533.3133 320.81867,533.90189 C 320.95291,534.93453 321.06649,536.00847 321.15944,537.12369 L 319.92029,537.30957 C 319.33168,535.23399 318.24742,534.1962 316.6675,534.19619 C 316.20281,534.1962 315.79492,534.37691 315.44383,534.73832 C 315.09273,535.08942 314.91719,535.55927 314.91719,536.14786 C 314.91719,536.70549 315.0979,537.2218 315.45932,537.6968 C 315.83106,538.1615 316.28542,538.48161 316.82239,538.65715 C 318.37133,539.17347 319.58467,539.80338 320.46242,540.54686 C 321.34014,541.29036 321.77901,542.23522 321.77902,543.38143 C 321.77901,544.10428 321.60862,544.74451 321.26787,545.30213 C 320.93742,545.84942 320.49338,546.27796 319.93577,546.58775 C 319.38847,546.89754 318.80504,547.12988 318.18547,547.28478 C 317.57621,547.43967 316.95147,547.51712 316.31124,547.51712 C 315.8259,547.51712 315.14437,547.45 314.26663,547.31576 C 313.3889,547.19184 312.68671,547.12988 312.16007,547.12988 C 312.07746,547.12988 311.99485,547.12988 311.91224,547.12988 C 311.91224,545.99399 311.79348,544.45537 311.55598,542.51403 M 329.27593,534.84674 L 329.27593,543.24203 C 329.27592,544.09912 329.32239,544.69804 329.41533,545.03881 C 329.51859,545.37958 329.67348,545.54996 329.88001,545.54996 C 330.22078,545.54996 330.53573,545.47768 330.82487,545.33311 C 331.114,545.18854 331.51673,544.88908 332.03305,544.43472 L 332.77654,545.17821 C 331.58901,546.73748 330.16914,547.51712 328.51694,547.51712 C 327.67018,547.51712 327.00414,547.2538 326.5188,546.72716 C 326.03346,546.20052 325.7908,545.37958 325.7908,544.26433 L 325.7908,534.84674 L 324.44322,534.84674 C 323.87527,534.84676 323.5913,534.76415 323.5913,534.59891 L 323.5913,533.62308 C 323.5913,533.45787 324.03016,533.37526 324.9079,533.37525 C 325.16606,533.37526 325.38807,533.33912 325.57395,533.26682 C 325.77014,533.19455 325.92504,533.07063 326.03863,532.89507 C 326.16254,532.71954 326.26064,532.53883 326.33293,532.35294 C 326.40521,532.16708 326.45684,531.8986 326.48782,531.54749 C 326.5188,531.18609 326.53945,530.86081 326.54978,530.57166 C 326.5601,530.27221 326.56527,529.86948 326.56527,529.36348 L 329.27593,528.26373 L 329.27593,533.37525 L 332.04854,533.37525 C 332.67843,533.37526 332.99339,533.47852 332.9934,533.68504 L 332.9934,534.30461 C 332.99339,534.48017 332.84365,534.61442 332.5442,534.70734 C 332.24473,534.80029 331.91945,534.84676 331.56837,534.84674 L 329.27593,534.84674 M 345.50887,547.51712 C 344.83765,547.51712 344.29552,547.38804 343.88247,547.12988 C 343.46941,546.88205 343.11832,546.48449 342.82919,545.93719 C 341.48676,546.99048 340.28891,547.51712 339.23564,547.51712 C 337.87256,547.51712 336.78314,547.17635 335.96736,546.49482 C 335.15158,545.80295 334.74369,544.8994 334.7437,543.78416 C 334.74369,541.51238 336.5921,539.90148 340.28892,538.95145 L 342.64332,538.26991 C 342.63298,537.48512 342.5607,536.81392 342.42647,536.25629 C 342.29222,535.68835 342.11667,535.26497 341.89982,534.98615 C 341.69329,534.70735 341.4816,534.51115 341.26476,534.39755 C 341.05822,534.27365 340.84653,534.21169 340.62969,534.21168 C 340.0101,534.21169 339.47314,534.32012 339.01879,534.53696 C 338.56442,534.75382 338.33724,535.03263 338.33725,535.37339 C 338.33724,535.6109 338.37339,535.86906 338.44568,536.14786 C 338.51795,536.42668 338.5541,536.61772 338.5541,536.72097 C 338.5541,537.04109 338.42502,537.34056 338.16687,537.61936 C 337.91903,537.88785 337.48533,538.02209 336.86575,538.02208 C 336.33911,538.02209 335.94154,537.86203 335.67306,537.54191 C 335.40458,537.2218 335.27034,536.83457 335.27034,536.3802 C 335.27034,535.78129 335.56463,535.2185 336.15324,534.69185 C 336.75216,534.1549 337.46984,533.74184 338.30627,533.45269 C 339.1427,533.16357 339.94815,533.019 340.72263,533.01899 C 344.32649,533.019 346.12843,534.86225 346.12845,538.54872 L 346.12845,543.16458 C 346.12843,544.12493 346.16457,544.79098 346.23687,545.16272 C 346.30914,545.53447 346.45887,545.72034 346.68607,545.72034 C 347.22302,545.72034 347.55862,545.05946 347.69288,543.73769 L 348.88557,543.95454 C 348.78229,544.67739 348.62223,545.28148 348.4054,545.76681 C 348.19885,546.25215 347.93553,546.61873 347.61543,546.86656 C 347.30563,547.11439 346.98552,547.28478 346.65509,547.37771 C 346.32463,547.47065 345.94256,547.51712 345.50887,547.51712 M 342.64332,544.80646 L 342.64332,539.69494 L 340.7536,540.23708 C 338.95682,540.81535 338.05843,541.95125 338.05844,543.64476 C 338.05843,543.9752 338.11523,544.31597 338.22882,544.66706 C 338.35273,545.01816 338.57991,545.34343 338.91036,545.6429 C 339.2408,545.94236 339.63836,546.09209 340.10305,546.09209 C 340.38185,546.09209 340.76909,545.96301 341.26476,545.70485 C 341.76041,545.4467 342.21993,545.14723 342.64332,544.80646 M 355.42212,534.84674 L 355.42212,543.24203 C 355.42211,544.09912 355.46858,544.69804 355.56153,545.03881 C 355.66478,545.37958 355.81968,545.54996 356.02621,545.54996 C 356.36697,545.54996 356.68192,545.47768 356.97107,545.33311 C 357.26019,545.18854 357.66292,544.88908 358.17924,544.43472 L 358.92274,545.17821 C 357.7352,546.73748 356.31534,547.51712 354.66314,547.51712 C 353.81638,547.51712 353.15033,547.2538 352.665,546.72716 C 352.17966,546.20052 351.93699,545.37958 351.93699,544.26433 L 351.93699,534.84674 L 350.58941,534.84674 C 350.02146,534.84676 349.73749,534.76415 349.73749,534.59891 L 349.73749,533.62308 C 349.73749,533.45787 350.17636,533.37526 351.05409,533.37525 C 351.31225,533.37526 351.53426,533.33912 351.72014,533.26682 C 351.91634,533.19455 352.07123,533.07063 352.18482,532.89507 C 352.30874,532.71954 352.40684,532.53883 352.47912,532.35294 C 352.5514,532.16708 352.60304,531.8986 352.63402,531.54749 C 352.66499,531.18609 352.68565,530.86081 352.69598,530.57166 C 352.7063,530.27221 352.71146,529.86948 352.71147,529.36348 L 355.42212,528.26373 L 355.42212,533.37525 L 358.19473,533.37525 C 358.82463,533.37526 359.13958,533.47852 359.13959,533.68504 L 359.13959,534.30461 C 359.13958,534.48017 358.98985,534.61442 358.6904,534.70734 C 358.39092,534.80029 358.06565,534.84676 357.71456,534.84674 L 355.42212,534.84674 M 374.02496,543.47437 C 374.02495,543.94938 374.13338,544.35211 374.35024,544.68255 C 374.57741,545.00267 374.94399,545.16272 375.44999,545.16272 C 375.63585,545.16272 375.83721,545.13691 376.05408,545.08527 L 376.28642,546.23149 C 375.14019,546.47933 374.26762,546.69102 373.66871,546.86656 C 373.08009,547.03178 372.45019,547.24864 371.77899,547.51712 L 370.53984,547.51712 L 370.63277,546.0766 C 369.12512,547.03695 367.84983,547.51712 366.80688,547.51712 C 366.10468,547.51712 365.4851,547.43451 364.94814,547.26929 C 364.4215,547.10407 363.99812,546.88721 363.67801,546.61873 C 363.36821,546.35025 363.11522,546.01981 362.91902,545.62741 C 362.72282,545.23501 362.58858,544.84261 362.5163,544.45021 C 362.45434,544.05781 362.42336,543.61894 362.42336,543.1336 L 362.42336,535.90003 C 362.42336,535.38372 362.35624,535.00165 362.222,534.75381 C 362.09808,534.50599 361.85541,534.38207 361.49399,534.38206 L 360.51816,534.38206 L 360.42522,534.25815 L 360.42522,533.42171 L 360.56463,533.31329 C 362.24781,533.38559 363.42501,533.42173 364.09622,533.42171 L 365.93947,533.31329 L 365.90849,535.91552 L 365.90849,542.68441 C 365.90848,543.87194 366.07887,544.69804 366.41964,545.16272 C 366.77073,545.62741 367.16829,545.85975 367.61233,545.85975 C 368.4694,545.85975 369.44524,545.38474 370.53984,544.43472 L 370.53984,535.91552 C 370.53983,534.89323 370.24553,534.38207 369.65694,534.38206 L 368.65012,534.38206 L 368.52621,534.30461 L 368.52621,533.42171 L 368.66561,533.31329 C 370.4314,533.38559 371.60343,533.42173 372.18172,533.42171 L 374.07143,533.31329 C 374.04044,534.43887 374.02495,535.29595 374.02496,535.88454 L 374.02496,543.47437 M 383.48903,533.01899 L 383.42707,535.28045 C 383.87109,534.55762 384.48034,534 385.25483,533.60759 C 386.02929,533.2152 386.73148,533.019 387.36139,533.01899 C 387.97063,533.019 388.44564,533.1739 388.78642,533.48367 C 389.1375,533.79348 389.31305,534.16522 389.31306,534.59891 C 389.31305,535.13589 389.16332,535.57476 388.86387,535.91552 C 388.57472,536.24597 388.14618,536.41119 387.57824,536.41118 C 387.34073,536.41119 387.0929,536.35956 386.83475,536.25629 C 386.58691,536.14271 386.41652,536.0033 386.3236,535.83807 C 386.06543,535.39405 385.82276,535.17204 385.59559,535.17202 C 385.42004,535.17204 385.17221,535.26497 384.8521,535.45083 C 384.5423,535.63672 384.23768,535.94651 383.93822,536.3802 C 383.63875,536.80359 383.48902,537.27344 383.48903,537.78974 L 383.48903,544.71353 C 383.48902,545.63257 384.00534,546.09209 385.03797,546.09209 L 385.2858,546.09209 C 385.46134,546.09209 385.54912,546.17986 385.54913,546.35541 L 385.54913,547.0989 L 385.48717,547.16086 C 383.78332,547.11956 382.51835,547.0989 381.69225,547.0989 L 378.00576,547.16086 L 377.9438,547.0989 L 377.9438,546.35541 C 377.9438,546.17986 378.02641,546.09209 378.19163,546.09209 L 378.48593,546.09209 C 379.49791,546.09209 380.0039,545.63257 380.0039,544.71353 L 380.0039,536.27177 C 380.0039,535.93102 379.93678,535.68319 379.80254,535.52828 C 379.66829,535.36307 379.43079,535.28046 379.09002,535.28045 C 378.81121,535.28046 378.43946,535.33726 377.97478,535.45083 L 377.74244,534.30461 C 378.88866,534.0568 379.75607,533.85027 380.34467,533.68504 C 380.94359,533.5095 381.57866,533.28749 382.24987,533.01899 L 383.48903,533.01899 M 392.68976,529.0382 C 392.68976,528.56321 392.57617,528.16565 392.34899,527.84551 C 392.13214,527.51509 391.77072,527.34987 391.26473,527.34985 C 391.07885,527.34987 390.87749,527.37568 390.66064,527.4273 L 390.4283,526.28108 C 391.57452,526.03327 392.44192,525.82674 393.03053,525.6615 C 393.62945,525.48597 394.26451,525.26396 394.93573,524.99545 L 396.17489,524.99545 L 396.17489,544.71353 C 396.17488,545.63257 396.69119,546.09209 397.72383,546.09209 L 397.97166,546.09209 C 398.1472,546.09209 398.23497,546.17986 398.23498,546.35541 L 398.23498,547.0989 L 398.17303,547.16086 C 396.46918,547.11956 395.20421,547.0989 394.37811,547.0989 L 390.69162,547.16086 L 390.62966,547.0989 L 390.62966,546.35541 C 390.62966,546.17986 390.71227,546.09209 390.87749,546.09209 L 391.17179,546.09209 C 392.18377,546.09209 392.68976,545.63257 392.68976,544.71353 L 392.68976,529.0382 M 411.06026,547.51712 C 410.38904,547.51712 409.84691,547.38804 409.43387,547.12988 C 409.0208,546.88205 408.66971,546.48449 408.38058,545.93719 C 407.03816,546.99048 405.84031,547.51712 404.78703,547.51712 C 403.42395,547.51712 402.33453,547.17635 401.51875,546.49482 C 400.70297,545.80295 400.29509,544.8994 400.29509,543.78416 C 400.29509,541.51238 402.14349,539.90148 405.84031,538.95145 L 408.19471,538.26991 C 408.18437,537.48512 408.11209,536.81392 407.97786,536.25629 C 407.84361,535.68835 407.66806,535.26497 407.45122,534.98615 C 407.24468,534.70735 407.03299,534.51115 406.81615,534.39755 C 406.60961,534.27365 406.39793,534.21169 406.18108,534.21168 C 405.5615,534.21169 405.02453,534.32012 404.57018,534.53696 C 404.11581,534.75382 403.88864,535.03263 403.88864,535.37339 C 403.88864,535.6109 403.92478,535.86906 403.99707,536.14786 C 404.06935,536.42668 404.10549,536.61772 404.10549,536.72097 C 404.10549,537.04109 403.97641,537.34056 403.71826,537.61936 C 403.47042,537.88785 403.03672,538.02209 402.41714,538.02208 C 401.8905,538.02209 401.49294,537.86203 401.22445,537.54191 C 400.95597,537.2218 400.82173,536.83457 400.82173,536.3802 C 400.82173,535.78129 401.11603,535.2185 401.70463,534.69185 C 402.30355,534.1549 403.02123,533.74184 403.85766,533.45269 C 404.69409,533.16357 405.49954,533.019 406.27402,533.01899 C 409.87789,533.019 411.67982,534.86225 411.67984,538.54872 L 411.67984,543.16458 C 411.67982,544.12493 411.71597,544.79098 411.78826,545.16272 C 411.86053,545.53447 412.01027,545.72034 412.23746,545.72034 C 412.77441,545.72034 413.11002,545.05946 413.24427,543.73769 L 414.43696,543.95454 C 414.33368,544.67739 414.17362,545.28148 413.95679,545.76681 C 413.75025,546.25215 413.48693,546.61873 413.16682,546.86656 C 412.85702,547.11439 412.53691,547.28478 412.20648,547.37771 C 411.87602,547.47065 411.49395,547.51712 411.06026,547.51712 M 408.19471,544.80646 L 408.19471,539.69494 L 406.305,540.23708 C 404.50821,540.81535 403.60983,541.95125 403.60983,543.64476 C 403.60983,543.9752 403.66662,544.31597 403.78021,544.66706 C 403.90413,545.01816 404.1313,545.34343 404.46175,545.6429 C 404.79219,545.94236 405.18975,546.09209 405.65444,546.09209 C 405.93324,546.09209 406.32048,545.96301 406.81615,545.70485 C 407.3118,545.4467 407.77132,545.14723 408.19471,544.80646 M 428.37744,536.30275 L 423.11103,549.37585 C 422.82188,550.07804 422.52758,550.68729 422.22813,551.20361 C 421.93898,551.71992 421.60338,552.1846 421.22131,552.59766 C 420.83923,553.02103 420.41069,553.33599 419.93569,553.54252 C 419.46067,553.75936 418.93403,553.86779 418.35576,553.8678 C 418.16989,553.86779 417.9582,553.83681 417.7207,553.77486 C 417.49351,553.72322 417.25085,553.63545 416.99269,553.51154 C 416.74486,553.39794 416.53317,553.22756 416.35762,553.00039 C 416.1924,552.78353 416.10979,552.53053 416.10979,552.2414 C 416.10979,551.75606 416.28018,551.37915 416.62094,551.11067 C 416.96171,550.84219 417.36444,550.70794 417.82912,550.70795 C 418.0563,550.70794 418.2938,550.78539 418.54164,550.94029 C 418.78946,551.09518 418.96501,551.25007 419.06828,551.40497 C 419.29545,551.74574 419.48649,551.91612 419.64139,551.91612 C 419.74465,551.91612 419.86856,551.85416 420.01314,551.73025 C 420.16802,551.61666 420.38488,551.32752 420.66369,550.86284 C 420.9425,550.39815 421.22131,549.79407 421.50012,549.05058 L 422.07323,547.51712 L 417.58129,536.45765 C 417.25085,535.64188 416.94106,535.09459 416.65192,534.81577 C 416.36279,534.52664 415.91359,534.38207 415.30434,534.38206 C 415.08749,534.38207 414.97906,534.30979 414.97906,534.16521 L 414.97906,533.37525 L 415.072,533.31329 C 416.4454,533.35461 417.5658,533.37526 418.43321,533.37525 L 422.29009,533.31329 L 422.414,533.37525 L 422.414,534.13423 C 422.41399,534.29946 422.32622,534.38207 422.15068,534.38206 C 421.69632,534.38207 421.36587,534.44403 421.15936,534.56793 C 420.95282,534.68154 420.84956,534.86741 420.84957,535.12555 C 420.84956,535.30111 420.89603,535.52313 420.98897,535.7916 L 423.91648,543.78416 C 425.08334,541.02704 426.06434,538.38351 426.85947,535.85356 C 426.92142,535.64704 426.9524,535.46117 426.95241,535.29594 C 426.9524,534.6867 426.49804,534.38207 425.58934,534.38206 C 425.51704,534.38207 425.45509,534.36142 425.40347,534.3201 C 425.36215,534.26848 425.3415,534.21169 425.34151,534.14972 L 425.34151,533.37525 L 425.46542,533.31329 C 426.90077,533.35461 428.07797,533.37526 428.99702,533.37525 L 431.02614,533.31329 L 431.10359,533.37525 L 431.10359,534.08776 C 431.10357,534.17038 431.06743,534.24267 430.99516,534.30461 C 430.93319,534.35626 430.85057,534.38207 430.74733,534.38206 C 430.2723,534.38207 429.82311,534.54729 429.39975,534.87772 C 428.97635,535.19785 428.63558,535.67286 428.37744,536.30275 M 439.39046,534.30461 C 438.75022,534.30463 438.19777,534.5886 437.73309,535.15653 C 437.2684,535.71417 436.9328,536.40086 436.72628,537.21663 C 436.51975,538.03242 436.41648,538.91015 436.41649,539.84984 C 436.41648,540.47975 436.49393,541.1458 436.64883,541.84798 C 436.80372,542.55017 437.02573,543.23171 437.31488,543.89259 C 437.60401,544.54315 438.00157,545.08528 438.50756,545.51898 C 439.01355,545.94236 439.57633,546.15405 440.19591,546.15405 C 440.51602,546.15405 440.82581,546.08693 441.12528,545.95268 C 441.42473,545.80812 441.7242,545.57578 442.02367,545.25566 C 442.32312,544.92522 442.56063,544.41923 442.73619,543.73769 C 442.92205,543.05616 443.01498,542.24038 443.015,541.29036 C 443.01498,539.07021 442.68454,537.35088 442.02367,536.13237 C 441.3731,534.91388 440.49537,534.30463 439.39046,534.30461 M 432.54412,540.57784 C 432.54412,538.33704 433.17403,536.51962 434.43384,535.12555 C 435.70397,533.72119 437.4646,533.019 439.71574,533.01899 C 440.70706,533.019 441.61061,533.16873 442.4264,533.46818 C 443.24216,533.75733 443.91853,534.13941 444.45551,534.6144 C 444.99247,535.08942 445.44166,535.64704 445.8031,536.28726 C 446.17483,536.92751 446.43815,537.58322 446.59306,538.25442 C 446.75827,538.91532 446.84088,539.59169 446.84089,540.28354 C 446.84088,540.94443 446.74794,541.60532 446.56208,542.26619 C 446.38652,542.92708 446.10255,543.57764 445.71016,544.21787 C 445.32807,544.84777 444.86339,545.41055 444.31611,545.90622 C 443.7688,546.39155 443.09243,546.78395 442.28699,547.08341 C 441.49186,547.37255 440.61928,547.51712 439.66927,547.51712 C 438.55403,547.51712 437.53172,547.31059 436.60236,546.89754 C 435.67299,546.48449 434.91917,545.94236 434.3409,545.27115 C 433.77295,544.59994 433.32892,543.86161 433.00881,543.05616 C 432.69902,542.24038 432.54412,541.41428 432.54412,540.57784 M 462.31485,543.47437 C 462.31484,543.94938 462.42326,544.35211 462.64013,544.68255 C 462.86729,545.00267 463.23388,545.16272 463.73988,545.16272 C 463.92574,545.16272 464.1271,545.13691 464.34397,545.08527 L 464.57631,546.23149 C 463.43008,546.47933 462.5575,546.69102 461.95859,546.86656 C 461.36998,547.03178 460.74008,547.24864 460.06888,547.51712 L 458.82972,547.51712 L 458.92266,546.0766 C 457.41501,547.03695 456.13971,547.51712 455.09676,547.51712 C 454.39457,547.51712 453.77499,547.43451 453.23803,547.26929 C 452.71138,547.10407 452.28801,546.88721 451.96789,546.61873 C 451.6581,546.35025 451.40511,546.01981 451.20891,545.62741 C 451.01271,545.23501 450.87847,544.84261 450.80618,544.45021 C 450.74422,544.05781 450.71325,543.61894 450.71325,543.1336 L 450.71325,535.90003 C 450.71325,535.38372 450.64612,535.00165 450.51189,534.75381 C 450.38797,534.50599 450.1453,534.38207 449.78388,534.38206 L 448.80805,534.38206 L 448.71511,534.25815 L 448.71511,533.42171 L 448.85451,533.31329 C 450.5377,533.38559 451.7149,533.42173 452.38611,533.42171 L 454.22935,533.31329 L 454.19838,535.91552 L 454.19838,542.68441 C 454.19837,543.87194 454.36875,544.69804 454.70953,545.16272 C 455.06061,545.62741 455.45818,545.85975 455.90222,545.85975 C 456.75929,545.85975 457.73512,545.38474 458.82972,544.43472 L 458.82972,535.91552 C 458.82971,534.89323 458.53541,534.38207 457.94682,534.38206 L 456.94001,534.38206 L 456.81609,534.30461 L 456.81609,533.42171 L 456.9555,533.31329 C 458.72129,533.38559 459.89332,533.42173 460.47161,533.42171 L 462.36132,533.31329 C 462.33033,534.43887 462.31484,535.29595 462.31485,535.88454 L 462.31485,543.47437 M 471.40717,534.84674 L 471.40717,543.24203 C 471.40716,544.09912 471.45363,544.69804 471.54657,545.03881 C 471.64983,545.37958 471.80472,545.54996 472.01126,545.54996 C 472.35202,545.54996 472.66697,545.47768 472.95611,545.33311 C 473.24524,545.18854 473.64797,544.88908 474.16429,544.43472 L 474.90778,545.17821 C 473.72025,546.73748 472.30039,547.51712 470.64818,547.51712 C 469.80142,547.51712 469.13538,547.2538 468.65004,546.72716 C 468.1647,546.20052 467.92204,545.37958 467.92204,544.26433 L 467.92204,534.84674 L 466.57446,534.84674 C 466.00651,534.84676 465.72254,534.76415 465.72254,534.59891 L 465.72254,533.62308 C 465.72254,533.45787 466.1614,533.37526 467.03914,533.37525 C 467.2973,533.37526 467.51931,533.33912 467.70519,533.26682 C 467.90138,533.19455 468.05628,533.07063 468.16987,532.89507 C 468.29378,532.71954 468.39188,532.53883 468.46417,532.35294 C 468.53645,532.16708 468.58808,531.8986 468.61907,531.54749 C 468.65004,531.18609 468.67069,530.86081 468.68102,530.57166 C 468.69135,530.27221 468.69651,529.86948 468.69651,529.36348 L 471.40717,528.26373 L 471.40717,533.37525 L 474.17978,533.37525 C 474.80967,533.37526 475.12463,533.47852 475.12464,533.68504 L 475.12464,534.30461 C 475.12463,534.48017 474.97489,534.61442 474.67544,534.70734 C 474.37597,534.80029 474.05069,534.84676 473.69961,534.84674 L 471.40717,534.84674"
       id="text44664" />
  </g>
</svg>
