<?xml version="1.0" encoding="UTF-8" standalone="no"?>
<!-- Created with Inkscape (http://www.inkscape.org/) -->
<svg
   xmlns:dc="http://purl.org/dc/elements/1.1/"
   xmlns:cc="http://creativecommons.org/ns#"
   xmlns:rdf="http://www.w3.org/1999/02/22-rdf-syntax-ns#"
   xmlns:svg="http://www.w3.org/2000/svg"
   xmlns="http://www.w3.org/2000/svg"
   xmlns:sodipodi="http://sodipodi.sourceforge.net/DTD/sodipodi-0.dtd"
   xmlns:inkscape="http://www.inkscape.org/namespaces/inkscape"
   width="44.027493"
   height="36.999996"
   id="svg3310"
   sodipodi:version="0.32"
   inkscape:version="0.46+devel, revision 20105"
   version="1.0"
   sodipodi:docname="tastentierchen_usb.svg"
   inkscape:output_extension="org.inkscape.output.svg.inkscape"
   inkscape:export-filename="C:\Dokumente und Einstellungen\Dennis Heidsiek\Eigene Dateien\0 Temp\tastentierchen_usb.png"
   inkscape:export-xdpi="96.542625"
   inkscape:export-ydpi="96.542625">
  <defs
     id="defs3312">
    <inkscape:perspective
       sodipodi:type="inkscape:persp3d"
       inkscape:vp_x="0 : 526.18109 : 1"
       inkscape:vp_y="0 : 1000 : 0"
       inkscape:vp_z="744.09448 : 526.18109 : 1"
       inkscape:persp3d-origin="372.04724 : 350.78739 : 1"
       id="perspective3318" />
    <inkscape:perspective
       id="perspective2716"
       inkscape:persp3d-origin="0.5 : 0.33333333 : 1"
       inkscape:vp_z="1 : 0.5 : 1"
       inkscape:vp_y="0 : 1000 : 0"
       inkscape:vp_x="0 : 0.5 : 1"
       sodipodi:type="inkscape:persp3d" />
  </defs>
  <sodipodi:namedview
     id="base"
     pagecolor="#ffffff"
     bordercolor="#666666"
     borderopacity="1.0"
     inkscape:pageopacity="0.0"
     inkscape:pageshadow="2"
     inkscape:zoom="6.7881551"
     inkscape:cx="34.727501"
     inkscape:cy="21.446308"
     inkscape:document-units="px"
     inkscape:current-layer="layer1"
     showgrid="false"
     inkscape:window-width="1680"
     inkscape:window-height="980"
     inkscape:window-x="-4"
     inkscape:window-y="-4" />
  <metadata
     id="metadata3315">
    <rdf:RDF>
      <cc:Work
         rdf:about="">
        <dc:format>image/svg+xml</dc:format>
        <dc:type
           rdf:resource="http://purl.org/dc/dcmitype/StillImage" />
        <dc:creator>
          <cc:Agent>
            <dc:title>Martin Engel</dc:title>
          </cc:Agent>
        </dc:creator>
        <dc:title />
      </cc:Work>
    </rdf:RDF>
  </metadata>
  <g
     inkscape:label="Ebene 1"
     inkscape:groupmode="layer"
     id="layer1"
     transform="translate(-17.81734,-184.2129)">
    <g
       id="g2743">
      <path
         id="path2705"
         d="m 43.627913,187.56822 c -0.754083,0 -1.452874,0.50657 -2.017802,1.36057 -0.308951,-0.20805 -0.648095,-0.3635 -1.014666,-0.45544 -2.582359,-0.64772 -5.551474,2.03334 -6.629922,5.98422 -1.078443,3.95089 0.144561,7.68292 2.726916,8.33064 1.701628,0.42681 3.566233,-0.59248 4.952263,-2.46748 0.559585,0.8271 1.242271,1.31445 1.983211,1.31445 1.884596,0 3.412969,-3.15122 3.412969,-7.03348 0,-3.88227 -1.528373,-7.03348 -3.412969,-7.03348 z"
         style="fill:#ffffff;fill-opacity:1;fill-rule:nonzero;stroke:none" />
      <path
         d="m 43.263247,219.35254 c 0.734803,-0.49151 1.522129,-0.89405 2.283682,-1.34191 1.723494,-1.00203 3.245955,-2.28445 4.747845,-3.58314 0.55185,-0.53738 1.126759,-1.04658 1.709123,-1.54943 0.322682,-0.26235 0.707812,-0.43239 1.07121,-0.63042 0.500139,-0.34748 1.094401,-0.49233 1.65101,-0.71761 0.472152,-0.13893 0.893294,-0.38719 1.323771,-0.61596 0.373341,-0.25663 0.742293,-0.51441 1.12294,-0.761 0.335246,-0.18046 0.611346,-0.44647 0.930154,-0.65006 0.25992,-0.14525 0.493644,-0.33781 0.702887,-0.54892 0.194557,-0.20629 0.414094,-0.37773 0.647578,-0.53772 0.113126,-0.10194 0.263758,-0.16351 0.315525,-0.31283 l 2.075859,1.78181 c -0.110008,0.17022 -0.247283,0.28711 -0.409833,0.40708 -0.223706,0.14416 -0.427894,0.30507 -0.614131,0.49538 -0.227193,0.22502 -0.481321,0.42662 -0.753233,0.59463 -0.332737,0.18058 -0.612766,0.44863 -0.958564,0.61019 -0.140541,0.0893 -0.287704,0.16852 -0.423264,0.26521 -0.23817,0.16986 -0.435163,0.39879 -0.704972,0.52468 -0.44601,0.22553 -0.8818,0.47861 -1.366847,0.61551 -0.549783,0.20109 -1.132626,0.34222 -1.611715,0.69547 -0.340466,0.2139 -0.687925,0.41402 -1.035494,0.61449 -0.635846,0.45366 -1.281358,0.89421 -1.902592,1.36896 -0.738954,0.52451 -1.454054,1.07681 -2.178765,1.62069 -0.5874,0.4408 -1.191901,0.85851 -1.779061,1.29964 -0.280767,0.21093 -0.552218,0.43401 -0.828336,0.65102 -0.666046,0.50855 -1.377548,0.9684 -1.970279,1.5646 l -2.044498,-1.86036 z"
         id="path3294"
         style="fill:#666666;fill-opacity:1;stroke:none" />
      <path
         d="m 46.615908,221.05952 c -1.502647,-0.20017 -3.011271,-0.2749 -4.519268,-0.34862 -3.371552,-0.21631 -6.75432,-0.0172 -10.119009,-0.41384 -1.775316,-0.19607 -3.538326,-0.52452 -5.299694,-0.89621 -0.609409,-0.11567 -0.316595,-0.0648 -0.878277,-0.15483 l 2.894234,-3.14647 c 0.530671,0.1382 0.254626,0.063 0.827876,0.22736 1.651618,0.49215 3.310634,0.92156 4.985738,1.19008 3.346369,0.45638 6.70901,0.5075 10.071153,0.4257 1.671893,-0.028 3.3441,-0.0628 5.015016,-0.20427 l -2.977769,3.3211 z"
         id="path2507"
         style="fill:#666666;fill-opacity:1;stroke:none" />
      <g
         transform="matrix(0.18448478,0,0,0.18448478,-184.79279,-138.74413)"
         id="g3279">
        <path
           style="fill:#e6e6e6;fill-rule:evenodd;stroke:#000000;stroke-width:5.42050123px;stroke-linecap:butt;stroke-linejoin:miter;stroke-opacity:1"
           d="m 1157.8571,1851.6479 -55,35 -1.4285,29.2857 50,5.7143 16.4285,-40 20,-25 -12.8571,-5.7143 -17.1429,0.7143 z"
           id="path2477" />
        <path
           style="fill:#b3b3b3;fill-rule:evenodd;stroke:none"
           d="m 1104.2857,1912.3622 57.1429,-37.8572 -0.7143,-20.7143 27.1428,4.2857 -16.4285,15.7143 -20,46.4286 -48.5715,-2.8571 1.4286,-5 z"
           id="path2475" />
        <g
           id="g2501"
           transform="translate(0,80)">
          <path
             id="path2479"
             d="m 1160,1793.0764 -42.1429,27.8572 2.1429,3.5714 35.7143,3.5714 15,-32.8571 -10.7143,-2.1429 z"
             style="fill:#008000;fill-rule:evenodd;stroke:none" />
          <path
             id="path2485"
             d="m 1137.8571,1814.505 24.2858,3.5714 -7.1429,5.7143 -22.1429,-3.5714 5,-5.7143 z"
             style="fill:#ffff00;fill-rule:evenodd;stroke:none" />
          <path
             style="fill:#ffff00;fill-rule:evenodd;stroke:none"
             d="m 1145.6969,1806.6479 20.7317,3.0219 -6.0976,4.8352 -18.9024,-3.022 4.2683,-4.8351 z"
             id="path2487" />
          <path
             id="path2489"
             d="m 1154.5993,1798.7907 15.4007,3.0219 -4.5296,4.8352 -14.0418,-3.022 3.1707,-4.8351 z"
             style="fill:#ffff00;fill-rule:evenodd;stroke:none" />
        </g>
        <path
           style="fill:#ececec;fill-rule:evenodd;stroke:none"
           d="m 1148.5714,1930.2193 22.1429,-51.4286 23.5714,-25 13.5714,-0.7143 17.8572,-8.5714 8.5714,0 21.4286,-8.5714 7.1428,-7.1429 26.4286,5 12.1429,5 32.1428,40 -99.2857,63.5715 -11.4286,1.4285 -74.2857,-13.5714 z"
           id="path2473" />
        <path
           id="path2457"
           d="m 1229.5,1947.0641 c -1.9858,-1.1575 -5.6361,-1.8259 -21,-3.8451 -4.4,-0.5783 -11.375,-1.5197 -15.5,-2.0921 -4.125,-0.5723 -9.525,-1.1972 -12,-1.3888 -17.569,-1.3593 -25.3948,-2.6128 -27.7169,-4.4394 -2.2973,-1.8071 -2.6271,-1.8287 -4.924,-0.3237 -3.6887,2.4169 -5.0764,0.5191 -3.3797,-4.6219 1.007,-3.0512 1.0441,-4.3292 0.1566,-5.3986 -1.1243,-1.3546 -7.4569,-2.0228 -16.7866,-1.7713 -2.2828,0.062 -7.6828,-0.564 -12,-1.3902 -4.3172,-0.8261 -9.7461,-1.5021 -12.0642,-1.5022 -5.8343,-2e-4 -6.9069,-2.1479 -5.4562,-10.9252 2.0246,-12.2493 2.2,-14.5694 1.3286,-17.5749 -1.3577,-4.6832 0.9146,-7.8902 8.5929,-12.1273 3.7122,-2.0485 8.3616,-4.9735 10.332,-6.5 1.9704,-1.5265 6.2454,-3.7625 9.5,-4.9689 3.2546,-1.2064 7.7175,-3.4193 9.9175,-4.9176 2.2,-1.4983 5.4278,-3.5707 7.1729,-4.6052 1.7451,-1.0346 5.2321,-3.6223 7.7489,-5.7505 l 4.5759,-3.8695 11.7511,1.159 c 6.4632,0.6374 13.3867,1.6461 15.3855,2.2414 5.864,1.7464 6.4367,0.7087 2.3157,-4.1953 -7.3457,-8.7413 -8.8777,-16.0928 -6.6617,-31.9661 2.1829,-13.7829 16.9978,-39.5947 27.5396,-47.0883 5.6455,-1.5202 10.0919,-0.5801 16.0888,3.4016 6.0962,4.0477 10.5237,11.4091 11.456,19.0475 0.6015,4.9274 0.8271,5.2422 5.4742,7.6392 6.0242,3.1073 8.079,6.6741 7.2045,12.5059 -0.7019,4.6806 -2.6014,6.881 -6.8014,7.8788 -2.168,0.5151 -2.7506,1.2313 -2.7531,3.3843 0,1.502 -1.5767,5.8552 -3.5,9.6736 -4.9053,9.739 -4.5367,12.598 0.8455,6.5574 2.0229,-2.2704 3.5384,-3 6.2311,-3 8.4532,0 10.8887,-4.3889 10.6627,-19.2151 -0.09,-5.8932 -0.8203,-13.3183 -1.6233,-16.5 -0.8029,-3.1817 -1.4895,-8.8587 -1.5257,-12.6156 -0.052,-5.3721 -0.5407,-7.5074 -2.2898,-10 -4.1634,-5.9332 -7.4597,-11.1152 -14.4585,-4.1163 -2.6277,2.6278 -6.7087,4.0251 -7.7192,2.1371 -1.0264,-1.9179 2.4072,-6.2366 3.9274,-7.3482 5.6513,-4.1323 14.5849,-2.2186 21.0271,4.5044 4.5029,4.6992 5.1118,6.3936 6.524,18.1537 0.828,6.8959 1.5575,11.7604 3.3742,22.5 1.1502,6.7996 3.5064,11.1867 6.8844,12.8182 3.8707,1.8695 17.0774,3.7184 25.1432,3.5201 8.2375,-0.2026 11.5,1.2523 11.5,5.1285 0,1.9727 0.7133,3.4516 2.0616,4.2747 1.1339,0.6922 3.6994,3.9412 5.701,7.2202 3.5186,5.7637 10.1567,14.6813 18.9874,25.5075 4.5961,5.6347 5.2789,8.4098 2.4427,9.9277 -1.5281,0.8178 -3.3884,-0.8683 -12.042,-10.9141 -5.6291,-6.5347 -11.3769,-13.9249 -12.7729,-16.4226 -1.396,-2.4977 -2.9516,-4.7968 -3.4569,-5.1091 -0.5052,-0.3123 -3.0566,0.5591 -5.6698,1.9365 -2.6131,1.3773 -6.9249,3.4863 -9.5817,4.6865 -2.6568,1.2003 -4.9817,2.6871 -5.1665,3.3041 -0.1847,0.617 -0.6342,2.4718 -0.9989,4.1218 -0.8672,3.923 -8.4657,10.9502 -15.3751,14.2189 -2.9891,1.414 -8.1784,2.8833 -11.5318,3.2651 -6.3406,0.7218 -15.0431,4.6402 -18.2971,8.2385 -1.8044,1.9952 -2.1509,6.0589 -2.1709,25.4585 0,3.6344 -0.6497,7.425 -1.5677,9.2003 -0.9489,1.835 -1.5614,5.5886 -1.5614,9.569 0,5.7498 0.2302,6.5497 1.885,6.5497 1.0367,0 2.5999,-1.0912 3.4737,-2.4248 0.8739,-1.3336 5.5871,-5.1174 10.474,-8.4085 4.8868,-3.2911 11.3111,-7.8231 14.2762,-10.071 2.9651,-2.2479 5.7146,-4.0891 6.1099,-4.0914 1.0199,-0.01 13.5359,-8.2052 18.1687,-11.9022 2.1381,-1.7061 4.3203,-3.1021 4.8493,-3.1021 1.5093,0 12.6274,-6.9908 19.5707,-12.3056 5.4998,-4.2099 6.7162,-4.7407 9.5,-4.1458 5.6267,1.2026 7.4031,3.7885 3.4425,5.0113 -2.3411,0.7228 -16.1954,10.7336 -17.2773,12.4843 -0.3401,0.5503 -3.3981,2.4012 -6.7955,4.113 -3.3975,1.7119 -7.5289,4.5414 -9.181,6.2878 -1.652,1.7464 -5.794,4.6624 -9.2043,6.4801 -3.4103,1.8177 -7.9086,4.7638 -9.9962,6.547 -2.0876,1.7831 -5.8207,4.2559 -8.2957,5.495 -2.475,1.2391 -5.625,3.3045 -7,4.5898 -1.375,1.2854 -4.2657,3.0746 -6.4237,3.976 -2.1581,0.9015 -4.7853,2.7344 -5.8383,4.0731 -3.8057,4.8381 -10.8038,6.752 -15.238,4.1674 z m -4.4436,-9.8787 c 0.6536,-1.2213 0.8459,-3.6018 0.4581,-5.6691 -0.385,-2.052 -0.029,-6.5675 0.8388,-10.6447 2.9705,-13.9535 3.6467,-17.7755 3.6467,-20.6102 0,-1.5821 0.5071,-3.9896 1.1269,-5.3499 0.6198,-1.3604 0.8386,-3.6221 0.4862,-5.0261 -0.5924,-2.3604 -0.9597,-2.5094 -4.8769,-1.9775 -2.3299,0.3164 -6.7112,0.057 -9.7362,-0.5761 -7.1945,-1.5062 -46.252,-3.9883 -47.3447,-3.0088 -0.9207,0.8253 -7.6111,16.9084 -7.6385,18.3621 -0.01,0.492 -2.0686,5.3706 -4.5763,10.8414 -6.4766,14.1293 -6.52,14.273 -4.9576,16.4107 1.0344,1.4154 3.2056,2.0029 9.1859,2.4857 28.4679,2.2984 52.327,4.9837 56.8312,6.3963 2.925,0.9173 5.5398,0.2657 6.5564,-1.6338 z m -75.6131,-22.1172 c 1.709,-2.4399 2.0391,-5.3613 0.6994,-6.1893 -0.4715,-0.2914 -3.509,-0.091 -6.75,0.4442 -10.1378,1.6758 -25.3927,-1.4195 -25.3927,-5.1522 0,-1.6593 4.0595,-3.0758 5.467,-1.9076 2.7501,2.2823 8.3327,3.2006 18.533,3.0482 9.1712,-0.137 10.7847,-0.4234 12.75,-2.2631 2.2629,-2.1185 2.969,-5.1953 1.4128,-6.1571 -0.4604,-0.2845 -2.7105,-0.9383 -5.0002,-1.4527 -3.4795,-0.7818 -4.5541,-0.6278 -6.5446,0.9379 -2.2416,1.7633 -2.6533,1.7808 -7.0079,0.297 -4.4105,-1.5028 -4.8155,-1.4777 -8.6841,0.5387 -4.1054,2.1399 -5.926,2.034 -5.926,-0.3447 0,-2.3108 -13.339,-6.4667 -15.5798,-4.8539 -1.2895,0.928 -3.6434,21.4538 -2.5821,22.5152 0.8089,0.8089 21.8638,2.3905 34.8552,2.6182 7.4192,0.1301 8.3404,-0.066 9.75,-2.0788 z m 10.7413,-25.0275 c 0.1015,-1.7875 0.2346,-4.2456 0.2957,-5.4624 0.061,-1.2169 0.4281,-2.5294 0.8154,-2.9167 0.9394,-0.9393 0.9037,-4.3669 -0.046,-4.3862 -0.4125,-0.01 -1.3961,-0.4242 -2.1857,-0.9238 -2.363,-1.4953 0.5983,-4.0609 4.6872,-4.0609 2.9366,0 4.3525,-0.8805 8.712,-5.4176 3.5181,-3.6616 6.1504,-5.5254 8.121,-5.75 2.1288,-0.2427 2.9155,-0.8675 2.9155,-2.3155 0,-2.3523 -4.2966,-3.3694 -14.6133,-3.4593 -6.4024,-0.056 -6.8294,0.1018 -13.3867,4.9424 -3.7253,2.75 -7.3262,5 -8.0018,5 -0.6757,0 -2.3707,0.8984 -3.7667,1.9965 -1.396,1.0982 -6.2528,3.5865 -10.7929,5.5298 -4.5401,1.9432 -10.0862,4.88 -12.3248,6.5263 -2.2385,1.6462 -5.7956,3.4578 -7.9046,4.0257 -5.4077,1.4561 -4.7192,4.1736 1.3039,5.1464 13.4642,2.1746 17.9456,2.0308 25.3582,-0.8137 1.0588,-0.4063 1.6287,-0.1002 1.6287,0.875 0,1.9228 2.115,2.7101 7.3318,2.7293 2.2925,0.01 4.8432,0.4515 5.6682,0.9847 0.825,0.5331 2.5125,0.9762 3.75,0.9847 1.8375,0.013 2.2838,-0.5805 2.4346,-3.2347 z M 1142,1886.3588 c 0,-1.0275 5.3095,-5.0695 6.6544,-5.0658 0.4651,0 0.8935,1.3512 0.9521,3 0.1005,2.8305 -0.1087,2.9977 -3.75,2.9977 -2.1211,0 -3.8565,-0.4194 -3.8565,-0.9319 z m 10.6753,-4.7261 c -0.872,-0.8721 1.227,-3.342 2.8402,-3.342 1.0639,0 2.4845,2.0479 2.4845,3.5818 0,0.6827 -4.6098,0.4751 -5.3247,-0.2398 z m 83.1197,0.7214 c 2.1304,-2.8816 9.4397,-6.0634 13.9288,-6.0634 1.3022,0 6.0236,-1.1835 10.492,-2.6301 6.1935,-2.0049 8.9147,-3.4903 11.4495,-6.25 1.8288,-1.9909 3.3273,-4.3557 3.3299,-5.2549 0,-0.8993 1.1298,-2.3721 2.5048,-3.2731 1.375,-0.9009 2.5,-2.2983 2.5,-3.1053 0,-1.7421 8.7898,-8.4262 11.1276,-8.4618 3.0599,-0.047 9.6912,-4.7195 8.0369,-7.9187 -2.2955,-4.4389 -8.9872,-2.7888 -18.6229,-3.4362 -6.8783,-0.4622 -9.6174,-1.0892 -11.7966,-2.7003 -3.4768,-2.5706 -5.8503,-2.2369 -7.4225,1.0433 -2.1675,4.5225 -6.8545,7.9726 -14.3874,10.5907 -9.1389,3.1762 -13.4873,3.93 -14.376,2.492 -1.0668,-1.7262 -4.0801,-1.2824 -6.0465,0.8905 -0.9885,1.0923 -4.6028,3.3527 -8.0317,5.0232 -5.4214,2.6411 -6.9349,2.9567 -11.6076,2.42 -5.1645,-0.5931 -5.6656,-0.4289 -12.8955,4.2268 -4.1372,2.6641 -8.4122,5.3381 -9.5,5.942 -1.0878,0.604 -2.4876,2.1032 -3.1107,3.3316 -0.623,1.2283 -2.5806,3.7271 -4.35,5.5527 -4.0104,4.1377 -3.9825,4.1468 13.4829,4.4 7.15,0.1037 16.6,0.8101 21,1.5698 4.4,0.7597 10.1007,1.6658 12.6682,2.0135 2.5676,0.3478 5.188,1.2585 5.8231,2.0238 1.4977,1.8046 3.2028,1.0917 5.8037,-2.4261 z m -12.3462,-43.0943 c 4.1063,-6.475 7.5411,-19.1746 5.8937,-21.7907 -1.8598,-2.9535 -4.2044,-2.5268 -6.3804,1.1613 -2.585,4.3812 -10.053,6.6937 -14.9997,4.6447 -5.0856,-2.1065 -8.9647,-7.426 -8.9471,-12.2692 0.01,-2.3184 0.3459,-4.7242 0.75,-5.3464 1.8133,-2.7918 9.6453,-8.3688 11.7526,-8.3688 3.3097,0 8.1399,4.424 11.6813,10.6989 1.6724,2.9633 3.5797,4.931 4.1707,4.6446 5.6022,-2.7148 1.2787,-24.7572 -0.4853,-29.807 -1.6522,-4.7294 -6.7483,-8.5365 -11.4267,-8.5365 -6.289,0 -21.7731,22.9861 -18.7352,19.5815 3.0379,-3.4045 -3.8016,9.6988 -6.8018,12.2381 -3.0001,2.5392 -5.7932,20.3258 -3.9384,28.6022 1.614,9.3138 10.1328,13.3312 15.5175,15.0531 8.4341,2.0919 17.329,-3.6896 21.9488,-10.5058 z m -8.9033,-22.4237 c 3.2823,-3.2823 3.4445,-9.7386 0.2999,-11.9412 -3.3442,-2.3424 -5.5327,-0.513 -6.3312,5.2924 -0.6781,4.9303 0.4984,9.1034 2.5664,9.1034 0.5557,0 2.1149,-1.1046 3.4649,-2.4546 z m 27.3012,-5.2954 c 1.1596,-2.213 -0.2918,-6.25 -2.2471,-6.25 -1.8014,0 -2.9564,3.3005 -2.0996,6 0.783,2.4669 3.1147,2.601 4.3467,0.25 z m 13.4033,79.2156 c -2.3678,-1.6617 -2.9357,-3.9238 -1.2471,-4.9674 1.7092,-1.0564 10.1236,0.6679 10.7094,2.1945 1.2326,3.2121 -5.8704,5.2937 -9.4623,2.7729 z m -27.9027,-132.0029 c -0.837,-2.1813 2.1755,-5.1151 7.2375,-7.0482 4.9586,-1.8938 7.4152,-1.3789 7.4152,1.5541 0,1.4384 -0.6568,2.0329 -2.25,2.0365 -1.2375,0 -4.05,1.1138 -6.25,2.4688 -4.7313,2.9141 -5.3742,3.0174 -6.1527,0.9888 z m -23.019,-1.0495 c -0.8692,-2.2652 2.478,-4.9667 7.2673,-5.8652 6.4482,-1.2097 7.1655,2.2715 0.9989,4.848 -6.472,2.7042 -7.5671,2.839 -8.2662,1.0172 z"
           style="fill:#000000"
           sodipodi:nodetypes="cssssssssssssssssscccssccssssssssssssssssssssssssssssssssssssssssssssssssssssssssssccsssssssssssssccsssssssssssssssccsssssssssssssssssssssccsssccssccssssssssssssssssssssssssccsssssssssszzccccsssccssccssccssssccssc" />
      </g>
    </g>
  </g>
</svg>
