<?xml version="1.0" encoding="UTF-8" standalone="no"?>
<!-- Created with Inkscape (http://www.inkscape.org/) -->
<svg
   xmlns:dc="http://purl.org/dc/elements/1.1/"
   xmlns:cc="http://creativecommons.org/ns#"
   xmlns:rdf="http://www.w3.org/1999/02/22-rdf-syntax-ns#"
   xmlns:svg="http://www.w3.org/2000/svg"
   xmlns="http://www.w3.org/2000/svg"
   xmlns:xlink="http://www.w3.org/1999/xlink"
   xmlns:sodipodi="http://sodipodi.sourceforge.net/DTD/sodipodi-0.dtd"
   xmlns:inkscape="http://www.inkscape.org/namespaces/inkscape"
   width="304.66129"
   height="170.95107"
   id="svg3707"
   sodipodi:version="0.32"
   inkscape:version="0.46"
   version="1.0"
   sodipodi:docname="tastentierchen_apfel.svg"
   inkscape:output_extension="org.inkscape.output.svg.inkscape">
  <defs
     id="defs3709">
    <radialGradient
       inkscape:collect="always"
       xlink:href="#linearGradient2770"
       id="radialGradient2843"
       gradientUnits="userSpaceOnUse"
       gradientTransform="matrix(1.1647299,-0.609434,0.354147,0.676834,-214.12654,458.70548)"
       cx="695.45612"
       cy="264.62213"
       fx="695.45612"
       fy="264.62213"
       r="82.32235" />
    <radialGradient
       inkscape:collect="always"
       xlink:href="#linearGradient2770"
       id="radialGradient2841"
       gradientUnits="userSpaceOnUse"
       gradientTransform="matrix(0.8410302,0.4752456,-0.375805,0.6650526,93.831788,-190.21678)"
       cx="599.95435"
       cy="155.83673"
       fx="599.95435"
       fy="155.83673"
       r="82.32235" />
    <linearGradient
       inkscape:collect="always"
       id="linearGradient2770">
      <stop
         style="stop-color:#808080;stop-opacity:1"
         offset="0"
         id="stop2772" />
      <stop
         style="stop-color:#e6e6e6;stop-opacity:0;"
         offset="1"
         id="stop2774" />
    </linearGradient>
    <radialGradient
       inkscape:collect="always"
       xlink:href="#linearGradient2770"
       id="radialGradient2839"
       gradientUnits="userSpaceOnUse"
       gradientTransform="matrix(2.7919008,-0.8155573,0.190474,0.6520507,-1158.8479,554.98012)"
       cx="615.50555"
       cy="277.36603"
       fx="615.50555"
       fy="277.36603"
       r="82.32235" />
    <linearGradient
       inkscape:collect="always"
       id="linearGradient2750">
      <stop
         style="stop-color:#999999;stop-opacity:1;"
         offset="0"
         id="stop2752" />
      <stop
         style="stop-color:#999999;stop-opacity:0;"
         offset="1"
         id="stop2754" />
    </linearGradient>
    <radialGradient
       inkscape:collect="always"
       xlink:href="#linearGradient2750"
       id="radialGradient2837"
       gradientUnits="userSpaceOnUse"
       gradientTransform="matrix(-9.1559428e-3,0.5998018,-1.0000998,-1.5268156e-2,592.13325,-150.56417)"
       cx="446.38852"
       cy="111.18035"
       fx="446.38852"
       fy="111.18035"
       r="71.973396" />
    <linearGradient
       inkscape:collect="always"
       id="linearGradient2740">
      <stop
         style="stop-color:#000000;stop-opacity:0.67986275"
         offset="0"
         id="stop2742" />
      <stop
         style="stop-color:#000000;stop-opacity:0;"
         offset="1"
         id="stop2744" />
    </linearGradient>
    <radialGradient
       inkscape:collect="always"
       xlink:href="#linearGradient2740"
       id="radialGradient2835"
       gradientUnits="userSpaceOnUse"
       gradientTransform="matrix(4.9712819,3.0998937,-1.283426,2.0582298,-1411.6151,-1445.4305)"
       cx="403.12296"
       cy="147.60016"
       fx="403.12296"
       fy="147.60016"
       r="17.42005" />
    <linearGradient
       inkscape:collect="always"
       id="linearGradient2718">
      <stop
         style="stop-color:#4d4d4d;stop-opacity:1"
         offset="0"
         id="stop2720" />
      <stop
         style="stop-color:#999999;stop-opacity:0;"
         offset="1"
         id="stop2722" />
    </linearGradient>
    <radialGradient
       inkscape:collect="always"
       xlink:href="#linearGradient2718"
       id="radialGradient2833"
       gradientUnits="userSpaceOnUse"
       gradientTransform="matrix(1.8526388,-0.3530784,0.1437674,0.7543473,-2075.3589,-712.69206)"
       cx="1260.6033"
       cy="1732.1663"
       fx="1260.6033"
       fy="1732.1663"
       r="82.579948" />
    <linearGradient
       inkscape:collect="always"
       id="linearGradient2780">
      <stop
         style="stop-color:#808080;stop-opacity:0.7013098"
         offset="0"
         id="stop2782" />
      <stop
         style="stop-color:#808080;stop-opacity:0;"
         offset="1"
         id="stop2784" />
    </linearGradient>
    <radialGradient
       inkscape:collect="always"
       xlink:href="#linearGradient2780"
       id="radialGradient2831"
       gradientUnits="userSpaceOnUse"
       gradientTransform="matrix(2.2146003,-0.5182229,0.1803761,0.7708262,-781.80581,350.07866)"
       cx="620.95825"
       cy="185.26294"
       fx="620.95825"
       fy="185.26294"
       r="60.60405" />
    <linearGradient
       inkscape:collect="always"
       id="linearGradient2760">
      <stop
         style="stop-color:#ffb380;stop-opacity:1;"
         offset="0"
         id="stop2762" />
      <stop
         style="stop-color:#ffb380;stop-opacity:0;"
         offset="1"
         id="stop2764" />
    </linearGradient>
    <radialGradient
       inkscape:collect="always"
       xlink:href="#linearGradient2760"
       id="radialGradient2829"
       gradientUnits="userSpaceOnUse"
       gradientTransform="matrix(-0.9709328,2.5746086,-0.740727,-0.2793419,1365.1839,-1568.8372)"
       cx="657.84558"
       cy="92.631195"
       fx="657.84558"
       fy="92.631195"
       r="60.60405" />
    <inkscape:perspective
       sodipodi:type="inkscape:persp3d"
       inkscape:vp_x="0 : 526.18109 : 1"
       inkscape:vp_y="0 : 1000 : 0"
       inkscape:vp_z="744.09448 : 526.18109 : 1"
       inkscape:persp3d-origin="372.04724 : 350.78739 : 1"
       id="perspective3715" />
  </defs>
  <sodipodi:namedview
     id="base"
     pagecolor="#ffffff"
     bordercolor="#666666"
     borderopacity="1.0"
     inkscape:pageopacity="0.0"
     inkscape:pageshadow="2"
     inkscape:zoom="0.16883503"
     inkscape:cx="-1960.525"
     inkscape:cy="-127.77985"
     inkscape:document-units="px"
     inkscape:current-layer="layer1"
     showgrid="false"
     inkscape:window-width="915"
     inkscape:window-height="671"
     inkscape:window-x="109"
     inkscape:window-y="101" />
  <metadata
     id="metadata3712">
    <rdf:RDF>
      <cc:Work
         rdf:about="">
        <dc:format>image/svg+xml</dc:format>
        <dc:type
           rdf:resource="http://purl.org/dc/dcmitype/StillImage" />
        <dc:creator>
          <cc:Agent>
            <dc:title>Martin Engel</dc:title>
          </cc:Agent>
        </dc:creator>
        <cc:license
           rdf:resource="http://creativecommons.org/licenses/publicdomain/" />
      </cc:Work>
      <cc:License
         rdf:about="http://creativecommons.org/licenses/publicdomain/">
        <cc:permits
           rdf:resource="http://creativecommons.org/ns#Reproduction" />
        <cc:permits
           rdf:resource="http://creativecommons.org/ns#Distribution" />
        <cc:permits
           rdf:resource="http://creativecommons.org/ns#DerivativeWorks" />
      </cc:License>
    </rdf:RDF>
  </metadata>
  <g
     inkscape:label="Ebene 1"
     inkscape:groupmode="layer"
     id="layer1"
     transform="translate(283.75922,-272.60094)">
    <g
       id="g2810"
       transform="translate(-668.57139,234.3501)"
       inkscape:export-filename="/home/nepomuk/bilder/neo2/tastentierchen/tastentierchen_apfel.png"
       inkscape:export-xdpi="26.291491"
       inkscape:export-ydpi="26.291491">
      <path
         style="fill:#333333;fill-opacity:1;stroke:none;stroke-width:9.01299953;stroke-linecap:square;stroke-linejoin:bevel;stroke-miterlimit:4;stroke-dasharray:none;stroke-dashoffset:0;stroke-opacity:0"
         id="path2626"
         d="M 386.50847,166.3914 C 386.73857,141.0073 394.59457,188.9519 396.55787,189.2434 C 398.38727,189.5151 399.76617,189.5752 401.60757,189.7033 C 404.87947,189.8916 408.15457,189.7938 411.42327,189.6123 C 413.29437,189.5938 415.16557,189.5911 417.03667,189.5818 C 418.93357,189.5351 420.82047,189.772 422.71087,189.8908 C 424.75497,190.0548 426.80597,190.0122 428.85377,189.986 C 430.69207,189.9718 432.52937,189.9327 434.36777,189.9278 C 436.40847,189.9175 438.44907,189.9279 440.48977,189.9505 C 443.16107,189.9982 445.83207,190.0031 448.50307,189.9458 C 451.67917,190.1233 454.86537,189.9988 458.04267,189.897 C 460.36147,189.841 462.67907,189.7553 464.99857,189.7183 C 467.07437,189.6803 469.14977,189.6746 471.22567,189.7069 C 474.06277,189.6614 476.88917,189.8333 479.72597,189.7957 C 482.32167,189.6981 484.91717,189.6032 487.51497,189.5935 C 490.26487,189.5026 492.98677,189.5488 495.72027,189.859 C 501.36407,190.7237 507.03447,191.2719 512.72837,191.6695 C 518.23697,192.0465 523.76867,191.8653 529.27397,191.5199 C 531.65127,191.4048 534.02477,191.1678 536.40567,191.1473 C 538.68327,191.1037 540.96557,191.1522 543.23817,191.3051 C 546.29947,191.4671 549.34247,191.1016 552.38377,190.8189 C 566.53607,183.5376 567.54007,184.8773 574.84977,205.7721 C 571.26147,207.4158 546.46117,208.533 543.37567,208.5666 C 541.10687,208.7566 538.82707,208.8419 536.55027,208.8452 C 534.16377,208.8734 531.77997,208.6882 529.39697,208.5829 C 523.85757,208.2441 518.31037,207.9728 512.76057,207.9035 C 510.22447,207.8176 508.95107,207.802 506.44387,207.612 C 502.88327,207.3419 499.32217,206.9044 495.74477,206.9687 C 493.04787,206.9758 490.35497,207.1796 487.65417,207.122 C 485.05657,207.1535 482.45987,207.0999 479.86297,207.0435 C 477.02587,207.051 474.20257,207.2677 471.36517,207.2673 C 469.29007,207.3326 467.21477,207.3598 465.13857,207.3548 C 462.81887,207.3545 460.50017,207.3058 458.18077,207.2866 C 455.00227,207.2353 451.81447,207.1614 448.64157,207.3892 C 445.97007,207.3744 443.29957,207.4217 440.62947,207.5122 C 438.58977,207.5676 436.54987,207.6111 434.50957,207.636 C 432.66747,207.6627 430.82577,207.6583 428.98357,207.6594 C 426.90137,207.6409 424.81917,207.5994 422.73687,207.578 C 420.88307,207.4834 419.03567,207.2444 417.18007,207.2568 C 415.29437,207.2839 413.40777,207.3288 411.52217,207.2794 C 408.21647,206.9966 404.91877,206.6243 401.60947,206.381 C 398.03717,206.1263 388.38917,206.9163 384.81217,207.1935 L 386.50847,166.3914 z"
         sodipodi:nodetypes="cscccccsccccccccccccccccccsccccccccsccccccc" />
      <path
         style="fill:#552200;fill-rule:evenodd;stroke:none;stroke-width:1px;stroke-linecap:butt;stroke-linejoin:miter;stroke-opacity:1"
         d="M 622.15747,53.4117 L 622.66247,81.696 L 652.46197,59.9777 L 644.38077,55.9371 L 622.15747,53.4117 z"
         id="path2628" />
      <path
         style="fill:#d35f5f;fill-rule:evenodd;stroke:#000000;stroke-width:1px;stroke-linecap:butt;stroke-linejoin:miter;stroke-opacity:1"
         d="M 572.65997,89.7772 L 582.76147,113.0107 L 581.75127,123.1122 L 576.70057,128.6681 L 567.10407,138.2645 L 562.05337,145.3356 L 566.09397,156.4473 L 573.67007,165.5387 L 581.75127,170.5894 L 587.30717,169.0742 L 624.17777,163.0133 L 634.78437,160.993 L 646.40107,154.427 L 670.64477,146.8508 L 677.71577,138.2645 L 682.26147,121.0919 L 679.73607,105.9397 L 671.14977,92.8077 L 662.56357,85.2315 L 649.93657,80.6858 L 644.88587,80.6858 L 638.82497,79.1706 L 621.65237,85.7366 L 611.04577,81.1909 L 602.96457,77.6554 L 598.41887,75.6351 L 586.80207,77.6554 L 579.73097,80.1808 L 572.65997,89.7772 z"
         id="path2630" />
      <path
         id="path2758"
         d="M 572.65997,89.7772 L 582.76147,113.0107 L 581.75127,123.1122 L 576.70057,128.6681 L 567.10407,138.2645 L 562.05337,145.3356 L 566.09397,156.4473 L 573.67007,165.5387 L 581.75127,170.5894 L 587.30717,169.0742 L 624.17777,163.0133 L 634.78437,160.993 L 646.40107,154.427 L 670.64477,146.8508 L 677.71577,138.2645 L 682.26147,121.0919 L 679.73607,105.9397 L 671.14977,92.8077 L 662.56357,85.2315 L 649.93657,80.6858 L 644.88587,80.6858 L 638.82497,79.1706 L 621.65237,85.7366 L 611.04577,81.1909 L 602.96457,77.6554 L 598.41887,75.6351 L 586.80207,77.6554 L 579.73097,80.1808 L 572.65997,89.7772 z"
         style="fill:url(#radialGradient2829);fill-opacity:1;fill-rule:evenodd;stroke:#000000;stroke-width:1px;stroke-linecap:butt;stroke-linejoin:miter;stroke-opacity:1" />
      <path
         style="fill:#ffffff;fill-rule:evenodd;stroke:none;stroke-width:1px;stroke-linecap:butt;stroke-linejoin:miter;stroke-opacity:1"
         d="M 477.70557,123.6173 L 467.60407,127.6579 L 451.44167,131.6985 L 443.36047,125.1325 L 435.27917,109.4752 L 433.76397,84.2214 L 437.29947,66.0386 L 441.34007,57.9574 L 442.85537,56.4422 L 453.96707,50.8863 L 465.07867,52.9066 L 474.17007,63.0082 L 477.70557,68.0589 L 479.72587,62.5031 L 486.29187,55.9371 L 493.86807,54.4218 L 505.98987,55.9371 L 515.08127,62.5031 L 519.62697,70.5843 L 524.17257,89.2721 L 524.67767,101.899 L 524.67767,110.9904 L 522.65737,115.5361 L 515.08127,121.597 L 505.48477,129.1732 L 497.40357,131.1935 L 489.82747,132.7087 L 484.27157,130.1833 L 477.70557,123.6173 z"
         id="path2634"
         sodipodi:nodetypes="ccccccccccccccccccccccccccccc" />
      <path
         style="fill:#ececec;fill-rule:evenodd;stroke:none;stroke-width:1px;stroke-linecap:butt;stroke-linejoin:miter;stroke-opacity:1"
         d="M 438.81477,115.5361 L 429.21827,111.4955 L 421.64217,107.4549 L 408.51017,112.0006 L 407.49997,123.6173 L 409.52027,129.6782 L 416.59137,138.2645 L 422.65227,149.3762 L 429.72337,150.3864 L 436.79447,155.4371 L 451.94667,164.0234 L 463.05837,166.5488 L 476.69547,165.5387 L 490.83757,162.5082 L 502.45437,157.4574 L 508.01017,154.932 L 523.16247,157.4574 L 521.64727,152.9117 L 522.65737,146.8508 L 526.19297,141.295 C 526.19297,141.295 528.71827,140.2848 535.28427,141.295 C 541.85027,142.3051 537.80967,140.7899 537.80967,140.7899 L 540.84017,142.8103 C 540.84017,142.8103 544.88077,135.7392 547.40617,132.7087 C 549.93147,129.6783 550.43657,125.6376 550.43657,125.6376 L 551.44677,114.0209 L 549.42647,109.4752 L 538.31477,106.4447 L 529.72847,106.9498 L 524.17257,112.5056 L 519.62697,118.0615 L 509.52537,127.6579 L 498.41377,132.2036 L 488.81727,133.2138 L 479.22087,126.6478 L 476.69547,124.6275 L 465.58377,128.6681 L 453.96707,131.6985 L 447.90607,129.6782 L 440.32997,121.0919 L 438.81477,115.5361 z"
         id="path2636"
         sodipodi:nodetypes="ccccccccccccccccccccsccsccccccccccccccccc" />
      <path
         style="fill:#cccccc;fill-rule:evenodd;stroke:none;stroke-width:1px;stroke-linecap:butt;stroke-linejoin:miter;stroke-opacity:1"
         d="M 422.14717,148.8711 L 428.71317,150.8914 L 434.26907,150.8914 L 439.82487,158.9727 L 454.97717,165.5387 L 468.61427,166.0437 L 480.23097,164.5285 L 497.40357,159.4777 L 505.48477,155.9422 L 517.60667,155.9422 L 522.65737,155.9422 L 533.26397,171.0945 L 547.40617,178.6706 L 554.98227,186.2468 L 566.09387,197.8636 L 538.81987,196.8534 L 477.70557,199.3788 L 415.07617,197.3585 L 400.93397,196.3483 L 405.47967,186.7519 L 417.60157,158.9727 L 422.14717,148.8711 z"
         id="path2638"
         sodipodi:nodetypes="cccccccccccccccccccccc" />
      <path
         style="fill:url(#radialGradient2831);fill-opacity:1;fill-rule:evenodd;stroke:#000000;stroke-width:1px;stroke-linecap:butt;stroke-linejoin:miter;stroke-opacity:1"
         d="M 572.65997,89.7772 L 582.76147,113.0107 L 581.75127,123.1122 L 576.70057,128.6681 L 567.10407,138.2645 L 562.05337,145.3356 L 566.09397,156.4473 L 573.67007,165.5387 L 581.75127,170.5894 L 587.30717,169.0742 L 624.17777,163.0133 L 634.78437,160.993 L 646.40107,154.427 L 670.64477,146.8508 L 677.71577,138.2645 L 682.26147,121.0919 L 679.73607,105.9397 L 671.14977,92.8077 L 662.56357,85.2315 L 649.93657,80.6858 L 644.88587,80.6858 L 638.82497,79.1706 L 621.65237,85.7366 L 611.04577,81.1909 L 602.96457,77.6554 L 598.41887,75.6351 L 586.80207,77.6554 L 579.73097,80.1808 L 572.65997,89.7772 z"
         id="path2778" />
      <path
         sodipodi:nodetypes="cccccccccccccccccccccc"
         id="path2716"
         d="M 422.14717,148.8711 L 428.71317,150.8914 L 434.26907,150.8914 L 439.82487,158.9727 L 454.97717,165.5387 L 468.61427,166.0437 L 480.23097,164.5285 L 497.40357,159.4777 L 505.48477,155.9422 L 517.60667,155.9422 L 522.65737,155.9422 L 533.26397,171.0945 L 547.40617,178.6706 L 554.98227,186.2468 L 566.09387,197.8636 L 538.81987,196.8534 L 477.70557,199.3788 L 415.07617,197.3585 L 400.93397,196.3483 L 405.47967,186.7519 L 417.60157,158.9727 L 422.14717,148.8711 z"
         style="fill:url(#radialGradient2833);fill-opacity:1;fill-rule:evenodd;stroke:none;stroke-width:1px;stroke-linecap:butt;stroke-linejoin:miter;stroke-opacity:1" />
      <path
         style="fill:#b3b3b3;fill-rule:evenodd;stroke:#000000;stroke-width:1px;stroke-linecap:butt;stroke-linejoin:miter;stroke-opacity:1"
         d="M 408.00507,128.6681 L 402.95427,148.3661 L 388.81217,160.993 L 393.86297,180.1859 L 395.88327,195.3382 L 400.93397,194.8331 L 406.48987,183.7214 L 422.65227,147.861 L 414.06597,131.6985 L 408.00507,128.6681 z"
         id="path2640" />
      <path
         id="path2738"
         d="M 408.00507,128.6681 L 402.95427,148.3661 L 388.81217,160.993 L 393.86297,180.1859 L 395.88327,195.3382 L 400.93397,194.8331 L 406.48987,183.7214 L 422.65227,147.861 L 414.06597,131.6985 L 408.00507,128.6681 z"
         style="fill:url(#radialGradient2835);fill-opacity:1;fill-rule:evenodd;stroke:#000000;stroke-width:1px;stroke-linecap:butt;stroke-linejoin:miter;stroke-opacity:1" />
      <path
         sodipodi:nodetypes="ccccccccccccccccccccsccsccccccccccccccccc"
         id="path2748"
         d="M 438.81477,115.5361 L 429.21827,111.4955 L 421.64217,107.4549 L 408.51017,112.0006 L 407.49997,123.6173 L 409.52027,129.6782 L 416.59137,138.2645 L 422.65227,149.3762 L 429.72337,150.3864 L 436.79447,155.4371 L 451.94667,164.0234 L 463.05837,166.5488 L 476.69547,165.5387 L 490.83757,162.5082 L 502.45437,157.4574 L 508.01017,154.932 L 523.16247,157.4574 L 521.64727,152.9117 L 522.65737,146.8508 L 526.19297,141.295 C 526.19297,141.295 528.71827,140.2848 535.28427,141.295 C 541.85027,142.3051 537.80967,140.7899 537.80967,140.7899 L 540.84017,142.8103 C 540.84017,142.8103 544.88077,135.7392 547.40617,132.7087 C 549.93147,129.6783 550.43657,125.6376 550.43657,125.6376 L 551.44677,114.0209 L 549.42647,109.4752 L 538.31477,106.4447 L 529.72847,106.9498 L 524.17257,112.5056 L 519.62697,118.0615 L 509.52537,127.6579 L 498.41377,132.2036 L 488.81727,133.2138 L 479.22087,126.6478 L 476.69547,124.6275 L 465.58377,128.6681 L 453.96707,131.6985 L 447.90607,129.6782 L 440.32997,121.0919 L 438.81477,115.5361 z"
         style="fill:url(#radialGradient2837);fill-opacity:1;fill-rule:evenodd;stroke:none;stroke-width:1px;stroke-linecap:butt;stroke-linejoin:miter;stroke-opacity:1" />
      <path
         style="fill:#ffffff;fill-rule:evenodd;stroke:#000000;stroke-width:1px;stroke-linecap:butt;stroke-linejoin:miter;stroke-opacity:1"
         d="M 525.18277,141.8001 C 525.18277,141.8001 534.27417,138.7696 536.29447,139.7798 C 538.31477,140.7899 549.42647,143.3153 549.42647,143.3153 L 563.56857,151.9016 L 574.17517,164.5285 L 580.74117,170.0843 L 585.79197,170.5894 L 590.84267,165.0336 L 592.35797,147.861 L 589.32747,142.8102 L 587.81227,135.2341 L 587.81227,129.1732 L 597.40867,122.6072 L 605.99497,118.5666 L 615.59147,121.597 L 620.13707,134.729 L 619.12697,148.3661 L 618.62187,157.4574 L 620.64217,164.0234 L 625.18787,163.5183 L 634.78437,160.993 L 651.45187,153.4168 L 671.14977,148.8711 L 675.19047,144.8305 L 681.25137,146.8508 L 686.30207,154.932 L 685.79707,160.4879 L 659.53307,184.7315 C 659.53307,184.7315 653.97727,188.2671 652.46197,190.2874 C 650.94677,192.3077 645.39097,198.3686 642.86557,199.3788 C 640.34017,200.3889 618.62187,205.4397 618.62187,205.4397 L 587.30717,206.4498 L 573.16507,200.3889 L 563.06347,194.8331 L 551.95177,182.7112 L 544.37567,177.1554 L 534.77927,172.6097 L 527.70817,165.5387 L 523.16247,157.4574 L 522.65737,146.3458 L 525.18277,141.8001 z"
         id="path2632" />
      <path
         id="path2768"
         d="M 525.18277,141.8001 C 525.18277,141.8001 534.27417,138.7696 536.29447,139.7798 C 538.31477,140.7899 549.42647,143.3153 549.42647,143.3153 L 563.56857,151.9016 L 574.17517,164.5285 L 580.74117,170.0843 L 585.79197,170.5894 L 590.84267,165.0336 L 592.35797,147.861 L 589.32747,142.8102 L 587.81227,135.2341 L 587.81227,129.1732 L 597.40867,122.6072 L 605.99497,118.5666 L 615.59147,121.597 L 620.13707,134.729 L 619.12697,148.3661 L 618.62187,157.4574 L 620.64217,164.0234 L 625.18787,163.5183 L 634.78437,160.993 L 651.45187,153.4168 L 671.14977,148.8711 L 675.19047,144.8305 L 681.25137,146.8508 L 686.30207,154.932 L 685.79707,160.4879 L 659.53307,184.7315 C 659.53307,184.7315 653.97727,188.2671 652.46197,190.2874 C 650.94677,192.3077 645.39097,198.3686 642.86557,199.3788 C 640.34017,200.3889 618.62187,205.4397 618.62187,205.4397 L 587.30717,206.4498 L 573.16507,200.3889 L 563.06347,194.8331 L 551.95177,182.7112 L 544.37567,177.1554 L 534.77927,172.6097 L 527.70817,165.5387 L 523.16247,157.4574 L 522.65737,146.3458 L 525.18277,141.8001 z"
         style="fill:url(#radialGradient2839);fill-opacity:1;fill-rule:evenodd;stroke:#000000;stroke-width:1px;stroke-linecap:butt;stroke-linejoin:miter;stroke-opacity:1" />
      <path
         style="fill:url(#radialGradient2841);fill-opacity:1;fill-rule:evenodd;stroke:#000000;stroke-width:1px;stroke-linecap:butt;stroke-linejoin:miter;stroke-opacity:1"
         d="M 525.18277,141.8001 C 525.18277,141.8001 534.27417,138.7696 536.29447,139.7798 C 538.31477,140.7899 549.42647,143.3153 549.42647,143.3153 L 563.56857,151.9016 L 574.17517,164.5285 L 580.74117,170.0843 L 585.79197,170.5894 L 590.84267,165.0336 L 592.35797,147.861 L 589.32747,142.8102 L 587.81227,135.2341 L 587.81227,129.1732 L 597.40867,122.6072 L 605.99497,118.5666 L 615.59147,121.597 L 620.13707,134.729 L 619.12697,148.3661 L 618.62187,157.4574 L 620.64217,164.0234 L 625.18787,163.5183 L 634.78437,160.993 L 651.45187,153.4168 L 671.14977,148.8711 L 675.19047,144.8305 L 681.25137,146.8508 L 686.30207,154.932 L 685.79707,160.4879 L 659.53307,184.7315 C 659.53307,184.7315 653.97727,188.2671 652.46197,190.2874 C 650.94677,192.3077 645.39097,198.3686 642.86557,199.3788 C 640.34017,200.3889 618.62187,205.4397 618.62187,205.4397 L 587.30717,206.4498 L 573.16507,200.3889 L 563.06347,194.8331 L 551.95177,182.7112 L 544.37567,177.1554 L 534.77927,172.6097 L 527.70817,165.5387 L 523.16247,157.4574 L 522.65737,146.3458 L 525.18277,141.8001 z"
         id="path2788" />
      <path
         id="path2623"
         d="M 603.31977,208.3992 C 619.36417,207.8338 635.42897,205.1157 650.54877,199.7032 C 659.94967,192.6046 637.93237,200.2773 634.15447,200.4835 C 619.38407,203.4564 604.00757,205.1464 589.01217,203.4404 C 577.63507,200.1296 565.88067,196.1341 559.42157,185.488 C 552.30357,174.9239 538.51067,174.3355 531.35327,164.0209 C 523.81157,158.5097 525.71227,147.0688 524.77087,141.4853 C 517.83637,145.4109 522.57087,159.8026 511.25557,153.6531 C 496.23237,155.3936 483.10307,166.3918 467.11517,164.3764 C 455.10547,162.9161 439.42137,158.6321 436.21917,145.6436 C 420.70807,156.6276 424.21667,130.7557 412.81977,127.3245 C 402.57617,117.4427 421.90477,101.2976 429.85887,115.3811 C 440.51187,122.1672 445.78737,142.2111 462.68237,132.9143 C 471.09377,128.4652 477.89337,124.4135 484.59097,133.6869 C 498.22467,139.0536 512.34487,129.3136 521.63167,119.9025 C 527.13527,108.189 551.92247,104.3822 549.25167,122.0233 C 550.99287,129.1846 533.80047,136.9571 548.82487,133.9834 C 557.60727,126.5226 557.67977,106.0519 543.90167,104.797 C 536.88637,102.1489 522.22017,114.3892 526.83757,100.5791 C 525.76217,85.9356 525.95847,69.1134 514.09637,58.4217 C 510.85497,51.2107 491.42567,50.554 492.92367,56.1891 C 507.15587,54.3077 518.67227,67.5734 520.16577,80.7722 C 521.53307,92.3726 523.27527,104.6518 519.89987,116.0034 C 513.16807,121.8401 523.18167,101.6853 517.21797,97.8627 C 506.77687,90.4354 495.39347,105.6016 499.12377,115.5755 C 497.97187,123.6103 515.22597,125.0698 502.73317,128.96 C 490.99267,136.7497 478.17427,123.4696 479.06977,111.4322 C 478.12017,97.6038 476.59117,83.3321 479.56867,69.6976 C 480.81817,64.189 493.30857,49.1948 480.87507,57.7708 C 472.73037,66.5751 471.91567,79.4529 471.06497,90.8925 C 460.99857,94.9596 454.77007,108.0444 462.04847,118.811 C 465.68387,120.7771 480.57037,120.3015 470.44487,125.2192 C 457.64877,134.9432 442.31847,125.7038 440.10697,110.9996 C 434.48167,94.4001 434.12937,75.0677 443.09707,59.5682 C 452.43077,49.9037 465.65917,54.8408 472.97927,62.353 C 476.09657,51.5534 458.04967,47.6569 450.20847,52.4073 C 435.88537,57.4691 430.72397,73.5325 431.04457,87.4088 C 429.04167,94.3633 433.37217,104.6752 430.40797,109.5505 C 420.10297,99.6598 403.40947,109.9425 403.17987,122.9632 C 402.93467,134.8881 402.02467,148.6704 391.43877,156.4854 C 380.94097,165.8089 393.29357,181.3385 389.85817,193.7749 C 389.17117,205.8418 406.08567,196.3167 413.90417,200.5449 C 426.43057,201.0861 438.96997,199.1057 451.50867,200.7464 C 479.19347,202.5968 506.92307,201.0973 534.57207,199.5503 C 539.31367,203.8508 552.26947,200.4602 547.22017,194.0846 C 517.76197,193.407 488.27437,197.1551 458.80477,194.7646 C 446.08597,193.8608 433.28227,193.4323 420.66917,195.0143 C 415.41657,192.7073 398.58387,196.224 408.29767,186.653 C 412.22297,175.5205 418.73167,164.0261 419.62757,152.5812 C 409.54617,159.3391 408.58617,175.4687 402.59877,186.0901 C 401.00107,197.5853 395.03307,188.9317 396.82307,181.4652 C 394.84607,170.0674 391.18737,158.6644 402.44877,150.7962 C 406.14377,146.5028 406.76297,136.8805 409.39977,133.9043 C 415.30757,139.7114 416.75237,149.1597 424.72787,152.6363 C 437.50817,154.4461 445.33607,167.6916 458.95257,168.2232 C 475.49237,171.622 491.88457,165.5797 506.33007,158.0655 C 514.70747,159.4415 521.83447,155.4242 524.59677,165.821 C 531.47717,178.3846 547.67287,177.6783 555.48817,189.0702 C 563.78357,200.7291 577.82217,206.7383 591.38377,209.2019 C 595.35947,208.8931 599.33997,208.6473 603.31977,208.3992 z M 505.84547,116.535 C 499.07247,109.0084 511.90437,93.0974 513.25857,108.0473 C 514.39847,111.9568 510.62637,125.2422 505.84547,116.535 z M 466.14857,113.8303 C 461.08317,108.9029 466.93547,89.9052 468.04057,105.8773 C 470.62847,107.6882 471.40497,96.6319 472.20577,106.0922 C 472.77667,110.3637 472.64547,119.4504 466.14857,113.8303 z M 660.14077,187.5546 C 668.62907,178.9447 678.20337,171.3542 686.31087,162.4239 C 695.40027,152.6679 682.60057,145.4823 676.68547,142.6879 C 686.71807,133.5721 685.49857,118.9769 683.91917,106.8245 C 678.83167,93.5785 667.26907,82.6869 653.81977,78.3818 C 648.24297,76.877 639.71727,82.3971 650.39847,82.5227 C 667.85547,85.0897 680.34457,103.3483 679.81757,120.4995 C 679.91127,132.4234 673.19107,144.6313 661.27457,148.1839 C 652.25217,152.6173 634.96647,154.3143 632.02427,163.3783 C 643.80357,157.644 656.49427,152.3979 669.90727,152.7397 C 675.99117,148.9746 679.20757,147.4278 683.27987,155.1184 C 682.58017,167.9082 665.91387,173.5414 658.66267,183.3093 C 654.01027,185.5977 645.57957,196.0487 656.15277,190.5358 L 658.04907,189.2089 L 660.14077,187.5546 L 660.14077,187.5546 z M 589.05387,169.581 C 597.80217,160.3731 592.43247,147.1212 589.51547,136.6582 C 588.05617,123.8522 611.01337,115.2354 615.99297,128.827 C 621.16307,140.187 612.67717,153.679 619.27727,165.093 C 624.94097,167.9101 634.06897,160.1424 622.62757,161.484 C 615.71337,149.0856 628.40697,134.4493 618.78967,122.5825 C 610.42447,112.0367 587.49957,121.3005 585.57977,134.1312 C 587.71047,145.2464 588.59067,155.9852 586.52537,167.2859 C 576.22797,170.4225 564.23617,154.1696 565.62777,144.7868 C 573.47447,136.3559 584.69217,129.2347 585.85087,116.5503 C 586.99067,105.2442 574.95347,94.467 577.05027,85.0541 C 585.87557,78.0298 598.87297,75.059 608.48777,82.3886 C 618.61457,91.9259 630.83807,86.0748 640.13917,79.1143 C 628.23867,74.4838 659.99577,66.0689 646.37577,62.4552 C 639.90597,67.4085 631.02497,75.2764 627.94307,69.3027 C 626.16157,73.2647 624.04137,78.8726 624.67247,71.1184 C 623.13577,62.4484 624.38677,49.4889 636.39817,57.139 C 642.68457,61.3006 652.70597,53.8985 641.40037,52.4117 C 632.57497,50.8775 613.34857,43.469 618.07887,59.9699 C 618.25517,68.1388 619.98427,87.3469 606.80977,77.2462 C 597.99717,70.7358 584.33367,74.1918 575.93237,80.3256 C 560.99497,87.4871 573.06447,98.243 577.11347,108.1226 C 585.02327,120.8746 572.90857,133.0817 562.89837,139.888 C 559.32907,155.1524 545.99187,131.536 537.27557,142.4999 C 548.44757,143.6768 558.47397,149.6927 565.48307,158.4356 C 570.47517,165.3167 579.96187,178.439 589.05387,169.581 z M 500.66477,167.6566 C 506.94477,157.1745 485.94727,171.273 498.83667,168.9327 L 500.66477,167.6566 L 500.66477,167.6566 z M 480.56977,47.9251 C 493.18257,38.4187 467.52337,45.6822 475.86397,50.0821 C 477.60247,49.7818 479.11637,48.8586 480.56977,47.9251 z M 434.86977,44.5623 C 442.66147,45.2993 444.86607,35.5653 435.70977,38.9794 C 430.80737,38.9637 428.43077,47.8843 434.86977,44.5623 z"
         style="fill:#000000" />
      <path
         id="path2792"
         d="M 525.18277,141.8001 C 525.18277,141.8001 534.27417,138.7696 536.29447,139.7798 C 538.31477,140.7899 549.42647,143.3153 549.42647,143.3153 L 563.56857,151.9016 L 574.17517,164.5285 L 580.74117,170.0843 L 585.79197,170.5894 L 590.84267,165.0336 L 592.35797,147.861 L 589.32747,142.8102 L 587.81227,135.2341 L 587.81227,129.1732 L 597.40867,122.6072 L 605.99497,118.5666 L 615.59147,121.597 L 620.13707,134.729 L 619.12697,148.3661 L 618.62187,157.4574 L 620.64217,164.0234 L 625.18787,163.5183 L 634.78437,160.993 L 651.45187,153.4168 L 671.14977,148.8711 L 675.19047,144.8305 L 681.25137,146.8508 L 686.30207,154.932 L 685.79707,160.4879 L 659.53307,184.7315 C 659.53307,184.7315 653.97727,188.2671 652.46197,190.2874 C 650.94677,192.3077 645.39097,198.3686 642.86557,199.3788 C 640.34017,200.3889 618.62187,205.4397 618.62187,205.4397 L 587.30717,206.4498 L 573.16507,200.3889 L 563.06347,194.8331 L 551.95177,182.7112 L 544.37567,177.1554 L 534.77927,172.6097 L 527.70817,165.5387 L 523.16247,157.4574 L 522.65737,146.3458 L 525.18277,141.8001 z"
         style="fill:url(#radialGradient2843);fill-opacity:1;fill-rule:evenodd;stroke:#000000;stroke-width:1px;stroke-linecap:butt;stroke-linejoin:miter;stroke-opacity:1" />
    </g>
  </g>
</svg>
