<?xml version="1.0" encoding="UTF-8" standalone="no"?>
<!-- Created with Inkscape (http://www.inkscape.org/) -->
<svg
   xmlns:dc="http://purl.org/dc/elements/1.1/"
   xmlns:cc="http://creativecommons.org/ns#"
   xmlns:rdf="http://www.w3.org/1999/02/22-rdf-syntax-ns#"
   xmlns:svg="http://www.w3.org/2000/svg"
   xmlns="http://www.w3.org/2000/svg"
   xmlns:xlink="http://www.w3.org/1999/xlink"
   xmlns:sodipodi="http://sodipodi.sourceforge.net/DTD/sodipodi-0.dtd"
   xmlns:inkscape="http://www.inkscape.org/namespaces/inkscape"
   width="87.602371"
   height="53.37492"
   id="svg4762"
   sodipodi:version="0.32"
   inkscape:version="0.46"
   version="1.0"
   sodipodi:docname="tastentierchen_pingu.svg"
   inkscape:output_extension="org.inkscape.output.svg.inkscape"
   inkscape:export-filename="/home/nepomuk/projekte/neo/svn/svn.neo-layout.org/www/tastentierchen_pingu.png"
   inkscape:export-xdpi="62.388851"
   inkscape:export-ydpi="62.388851">
  <defs
     id="defs4764">
    <linearGradient
       inkscape:collect="always"
       id="linearGradient5607">
      <stop
         style="stop-color:#550000;stop-opacity:1"
         offset="0"
         id="stop5609" />
      <stop
         style="stop-color:#da0000;stop-opacity:1"
         offset="1"
         id="stop5611" />
    </linearGradient>
    <linearGradient
       inkscape:collect="always"
       xlink:href="#linearGradient5607"
       id="linearGradient6511"
       gradientUnits="userSpaceOnUse"
       x1="162.78802"
       y1="365.9147"
       x2="162.78802"
       y2="372.38251"
       gradientTransform="translate(200,0)" />
    <radialGradient
       inkscape:collect="always"
       xlink:href="#linearGradient3415"
       id="radialGradient6509"
       gradientUnits="userSpaceOnUse"
       gradientTransform="matrix(4.3386401e-3,9.6493668e-2,-0.1481891,6.6630194e-3,952.33826,358.80325)"
       cx="-383.17914"
       cy="3897.1636"
       fx="-383.17914"
       fy="3897.1636"
       r="182.01132" />
    <linearGradient
       inkscape:collect="always"
       id="linearGradient3415">
      <stop
         style="stop-color:#000000;stop-opacity:1;"
         offset="0"
         id="stop3417" />
      <stop
         style="stop-color:#000000;stop-opacity:0;"
         offset="1"
         id="stop3419" />
    </linearGradient>
    <radialGradient
       inkscape:collect="always"
       xlink:href="#linearGradient3415"
       id="radialGradient6507"
       gradientUnits="userSpaceOnUse"
       gradientTransform="matrix(4.3386401e-3,9.6493668e-2,-0.1481891,6.6630194e-3,952.33826,358.80325)"
       cx="-315.02106"
       cy="3970.6899"
       fx="-315.02106"
       fy="3970.6899"
       r="182.01132" />
    <linearGradient
       inkscape:collect="always"
       id="linearGradient3607">
      <stop
         style="stop-color:#ffffff;stop-opacity:1;"
         offset="0"
         id="stop3609" />
      <stop
         style="stop-color:#ffffff;stop-opacity:0;"
         offset="1"
         id="stop3611" />
    </linearGradient>
    <linearGradient
       inkscape:collect="always"
       xlink:href="#linearGradient3607"
       id="linearGradient6505"
       gradientUnits="userSpaceOnUse"
       gradientTransform="matrix(0.1880889,0,0,0.1880889,386.93069,-487.64324)"
       x1="-384.76523"
       y1="4644.0273"
       x2="-240.72159"
       y2="4520.7471" />
    <linearGradient
       inkscape:collect="always"
       id="linearGradient3597">
      <stop
         style="stop-color:#ffffff;stop-opacity:1;"
         offset="0"
         id="stop3599" />
      <stop
         style="stop-color:#ffffff;stop-opacity:0;"
         offset="1"
         id="stop3601" />
    </linearGradient>
    <linearGradient
       inkscape:collect="always"
       xlink:href="#linearGradient3597"
       id="linearGradient6503"
       gradientUnits="userSpaceOnUse"
       gradientTransform="matrix(0.1880889,0,0,0.1880889,386.93069,-487.64321)"
       x1="-97.154755"
       y1="4576.6812"
       x2="-116.1433"
       y2="4456.4487" />
    <linearGradient
       id="linearGradient3381"
       inkscape:collect="always">
      <stop
         id="stop3383"
         offset="0"
         style="stop-color:#ffffff;stop-opacity:1" />
      <stop
         id="stop3385"
         offset="1"
         style="stop-color:#e6e6e6;stop-opacity:0;" />
    </linearGradient>
    <linearGradient
       inkscape:collect="always"
       xlink:href="#linearGradient3381"
       id="linearGradient6501"
       gradientUnits="userSpaceOnUse"
       gradientTransform="matrix(0.1880889,0,0,0.1880889,417.18239,-415.79543)"
       x1="-267.06039"
       y1="4017.0872"
       x2="-235.06189"
       y2="4056.6892" />
    <linearGradient
       id="linearGradient3371"
       inkscape:collect="always">
      <stop
         id="stop3373"
         offset="0"
         style="stop-color:#ffffff;stop-opacity:1" />
      <stop
         id="stop3375"
         offset="1"
         style="stop-color:#ececec;stop-opacity:0;" />
    </linearGradient>
    <linearGradient
       inkscape:collect="always"
       xlink:href="#linearGradient3371"
       id="linearGradient6499"
       gradientUnits="userSpaceOnUse"
       gradientTransform="matrix(0.1880889,0,0,0.1880889,417.18239,-415.79543)"
       x1="-378.25092"
       y1="3996.2708"
       x2="-318.20984"
       y2="4065.8281" />
    <linearGradient
       inkscape:collect="always"
       id="linearGradient3359">
      <stop
         style="stop-color:#cccccc;stop-opacity:1"
         offset="0"
         id="stop3361" />
      <stop
         style="stop-color:#ececec;stop-opacity:0;"
         offset="1"
         id="stop3363" />
    </linearGradient>
    <linearGradient
       inkscape:collect="always"
       xlink:href="#linearGradient3359"
       id="linearGradient6497"
       gradientUnits="userSpaceOnUse"
       gradientTransform="matrix(0.1880889,0,0,0.1880889,417.18239,-415.79543)"
       x1="-290.92319"
       y1="4104.415"
       x2="-331.41055"
       y2="4060.2432" />
    <linearGradient
       inkscape:collect="always"
       id="linearGradient3349">
      <stop
         style="stop-color:#e6e6e6;stop-opacity:1;"
         offset="0"
         id="stop3351" />
      <stop
         style="stop-color:#e6e6e6;stop-opacity:0;"
         offset="1"
         id="stop3353" />
    </linearGradient>
    <linearGradient
       inkscape:collect="always"
       xlink:href="#linearGradient3349"
       id="linearGradient6495"
       gradientUnits="userSpaceOnUse"
       gradientTransform="matrix(0.1880889,0,0,0.1880889,417.18239,-415.79543)"
       x1="-193.44109"
       y1="4072.9363"
       x2="-232.02776"
       y2="4054.6584" />
    <linearGradient
       inkscape:collect="always"
       id="linearGradient3425">
      <stop
         style="stop-color:#f9f9f9;stop-opacity:1;"
         offset="0"
         id="stop3427" />
      <stop
         style="stop-color:#f9f9f9;stop-opacity:0;"
         offset="1"
         id="stop3429" />
    </linearGradient>
    <linearGradient
       inkscape:collect="always"
       xlink:href="#linearGradient3425"
       id="linearGradient6493"
       gradientUnits="userSpaceOnUse"
       gradientTransform="matrix(0.1880889,0,0,0.1880889,417.18239,-415.79543)"
       spreadMethod="reflect"
       x1="-285.84601"
       y1="4192.2505"
       x2="-289.90775"
       y2="4124.2158" />
    <radialGradient
       inkscape:collect="always"
       xlink:href="#linearGradient3399"
       id="radialGradient6491"
       gradientUnits="userSpaceOnUse"
       gradientTransform="matrix(1.6048082e-2,9.0554532e-2,-0.1793599,3.1782527e-2,1056.4185,250.85467)"
       cx="-248.95627"
       cy="3885.6602"
       fx="-248.95627"
       fy="3885.6602"
       r="140.29561" />
    <radialGradient
       inkscape:collect="always"
       xlink:href="#linearGradient3399"
       id="radialGradient6489"
       gradientUnits="userSpaceOnUse"
       gradientTransform="matrix(8.1627261e-3,7.6309939e-2,-9.8386948e-2,1.052337e-2,740.96593,329.38605)"
       cx="-199.24757"
       cy="3702.4329"
       fx="-199.24757"
       fy="3702.4329"
       r="140.29561" />
    <linearGradient
       inkscape:collect="always"
       id="linearGradient3399">
      <stop
         style="stop-color:#4d4d4d;stop-opacity:1"
         offset="0"
         id="stop3401" />
      <stop
         style="stop-color:#ececec;stop-opacity:0;"
         offset="1"
         id="stop3403" />
    </linearGradient>
    <radialGradient
       inkscape:collect="always"
       xlink:href="#linearGradient3399"
       id="radialGradient6487"
       gradientUnits="userSpaceOnUse"
       gradientTransform="matrix(4.6632815e-3,0.1549835,-0.288364,8.6613063e-3,1445.5357,351.78628)"
       cx="-258.57077"
       cy="3747.105"
       fx="-258.57077"
       fy="3747.105"
       r="140.29561" />
    <inkscape:perspective
       sodipodi:type="inkscape:persp3d"
       inkscape:vp_x="0 : 526.18109 : 1"
       inkscape:vp_y="0 : 1000 : 0"
       inkscape:vp_z="744.09448 : 526.18109 : 1"
       inkscape:persp3d-origin="372.04724 : 350.78739 : 1"
       id="perspective4770" />
  </defs>
  <sodipodi:namedview
     id="base"
     pagecolor="#ffffff"
     bordercolor="#666666"
     borderopacity="1.0"
     inkscape:pageopacity="0.0"
     inkscape:pageshadow="2"
     inkscape:zoom="4.3606623"
     inkscape:cx="19.834149"
     inkscape:cy="49.321934"
     inkscape:document-units="px"
     inkscape:current-layer="layer1"
     showgrid="false"
     inkscape:window-width="1600"
     inkscape:window-height="1139"
     inkscape:window-x="-5"
     inkscape:window-y="-3" />
  <metadata
     id="metadata4767">
    <rdf:RDF>
      <cc:Work
         rdf:about="">
        <dc:format>image/svg+xml</dc:format>
        <dc:type
           rdf:resource="http://purl.org/dc/dcmitype/StillImage" />
      </cc:Work>
    </rdf:RDF>
  </metadata>
  <g
     inkscape:label="Ebene 1"
     inkscape:groupmode="layer"
     id="layer1"
     transform="translate(-51.579246,-34.246155)">
    <g
       id="g6531"
       transform="matrix(0.9948625,0.1012352,-0.1012352,0.9948625,-236.14866,-328.10879)">
      <path
         style="opacity:0.70800015;fill:#333333;fill-opacity:1;stroke:none;stroke-width:14.60000038;stroke-linejoin:bevel;stroke-miterlimit:4;stroke-dasharray:none;stroke-opacity:1"
         id="path6425"
         d="M 397.01648,377.47711 C 392.64764,377.36939 388.27672,377.38959 383.90675,377.3724 C 378.98021,377.39366 374.05366,377.37955 369.12713,377.38715 C 364.34298,377.38677 359.55892,377.37707 354.77482,377.4022 C 351.18688,377.4173 347.59889,377.42702 344.01093,377.4403 C 340.82525,377.45764 337.63974,377.42604 334.45402,377.42962 C 333.99523,377.4372 333.52764,377.36971 333.07764,377.45238 C 332.84392,377.49532 332.67043,377.68059 332.4668,377.7947 C 337.93321,374.49101 343.31643,371.06742 348.86605,367.88364 C 348.92302,367.85097 351.69165,368.14145 351.8675,368.15417 C 354.85017,368.30962 357.8393,368.28985 360.82547,368.28141 C 365.2689,368.30908 369.71252,368.33516 374.15607,368.32958 L 385.32844,377.31289 C 382.54724,377.81642 379.75883,378.27275 376.92363,378.43663 C 370.90001,378.63959 364.87031,378.51013 358.84358,378.58072 C 354.33537,378.58176 349.82722,378.62039 345.31922,378.65857 C 342.27788,378.64499 339.22715,378.6632 336.19634,378.40418 C 336.14723,378.3979 332.17854,377.89527 332.61378,377.55784 C 347.34409,366.13798 341.77841,366.8989 349.91984,367.07758 C 353.1162,367.08117 356.31236,367.04956 359.5087,367.06688 C 363.05873,367.08016 366.60876,367.08988 370.15875,367.10499 L 397.01648,377.47711 z"
         sodipodi:nodetypes="ccccccscsccccccccscccc" />
      <path
         sodipodi:nodetypes="ccccccscsccccccccscccc"
         d="M 398.14417,376.14106 C 393.77411,376.11068 389.40423,376.20826 385.03465,376.26843 C 380.10925,376.3769 375.18323,376.45001 370.25761,376.54481 C 365.4742,376.62913 360.25977,378.34143 355.47687,378.45126 C 351.88976,378.52986 348.30251,378.6031 344.71533,378.6799 C 341.53046,378.75363 338.34489,378.77844 335.15974,378.8384 C 335.7505,381.33671 333.87682,378.43751 333.78398,378.88552 C 333.35737,380.94414 333.38085,379.12091 333.17929,379.2386 C 338.58638,375.83866 344.33907,370.683 349.83145,367.40147 C 349.88784,367.3678 352.66117,367.60923 352.83723,367.61883 C 355.8222,367.72145 358.8105,367.64877 361.79605,367.58747 C 366.23927,367.53646 370.68266,367.48389 375.12541,367.39965 L 386.45505,376.18377 C 383.6832,376.73645 380.90331,377.24208 378.07146,377.45612 C 372.05238,377.76568 365.5904,379.3803 359.56585,379.55756 C 355.05838,379.6384 350.55162,379.75684 346.04499,379.87483 C 343.00387,379.91508 339.95396,379.98729 336.91905,379.78197 C 336.86984,379.77655 332.89285,379.34427 333.32205,378.99918 C 347.8479,367.32034 342.72751,366.54236 350.87079,366.57689 C 354.06673,366.5239 357.26185,366.43571 360.45799,366.39644 C 364.00769,366.34688 367.55733,366.29376 371.10704,366.246 L 398.14417,376.14106 z"
         id="path6427"
         style="fill:#000000;fill-opacity:1;stroke:none;stroke-width:14.60000038;stroke-linejoin:bevel;stroke-miterlimit:4;stroke-dasharray:none;stroke-opacity:1" />
      <path
         id="path6429"
         d="M 362.26859,350.61789 C 364.56049,350.7134 365.33366,350.93547 366.00213,350.74447 C 366.67062,350.55348 368.00755,350.83998 368.00755,350.83998"
         style="fill:none;fill-rule:evenodd;stroke:#000000;stroke-width:1.26019549;stroke-linecap:butt;stroke-linejoin:miter;stroke-miterlimit:4;stroke-dasharray:none;stroke-opacity:1"
         sodipodi:nodetypes="csc" />
      <path
         style="fill:#cccccc;fill-rule:evenodd;stroke:none;stroke-width:1px;stroke-linecap:butt;stroke-linejoin:miter;stroke-opacity:1"
         d="M 344.91662,351.62395 L 341.84665,351.62395 L 341.21147,354.16462 L 336.44772,357.76391 L 338.45907,359.56354 L 344.17558,363.16283 L 348.83349,365.28005 L 356.13792,366.65626 L 367.78266,367.50315 L 376.25156,366.02109 L 380.90946,364.32731 L 383.76771,362.21009 L 386.5201,358.6108 L 388.63733,357.12873 C 388.63733,357.12873 389.8018,353.74118 388.84905,353.31773 C 387.8963,352.89429 382.28565,350.56533 382.28565,350.56533 L 380.48601,350.88292 L 344.91662,351.62395 z"
         id="path6431" />
      <path
         id="path6433"
         d="M 344.91662,351.62395 L 341.84665,351.62395 L 341.21147,354.16462 L 336.44772,357.76391 L 338.45907,359.56354 L 344.17558,363.16283 L 348.83349,365.28005 L 356.13792,366.65626 L 367.78266,367.50315 L 376.25156,366.02109 L 380.90946,364.32731 L 383.76771,362.21009 L 386.5201,358.6108 L 388.63733,357.12873 C 388.63733,357.12873 389.8018,353.74118 388.84905,353.31773 C 387.8963,352.89429 382.28565,350.56533 382.28565,350.56533 L 380.48601,350.88292 L 344.91662,351.62395 z"
         style="fill:url(#radialGradient6487);fill-opacity:1;fill-rule:evenodd;stroke:none;stroke-width:1px;stroke-linecap:butt;stroke-linejoin:miter;stroke-opacity:1" />
      <path
         style="fill:url(#radialGradient6489);fill-opacity:1;fill-rule:evenodd;stroke:none;stroke-width:1px;stroke-linecap:butt;stroke-linejoin:miter;stroke-opacity:1"
         d="M 344.91662,351.62395 L 341.84665,351.62395 L 341.21147,354.16462 L 336.44772,357.76391 L 338.45907,359.56354 L 344.17558,363.16283 L 348.83349,365.28005 L 356.13792,366.65626 L 367.78266,367.50315 L 376.25156,366.02109 L 380.90946,364.32731 L 383.76771,362.21009 L 386.5201,358.6108 L 388.63733,357.12873 C 388.63733,357.12873 389.8018,353.74118 388.84905,353.31773 C 387.8963,352.89429 382.28565,350.56533 382.28565,350.56533 L 380.48601,350.88292 L 344.91662,351.62395 z"
         id="path6435" />
      <path
         id="path6437"
         d="M 344.91662,351.62395 L 341.84665,351.62395 L 341.21147,354.16462 L 336.44772,357.76391 L 338.45907,359.56354 L 344.17558,363.16283 L 348.83349,365.28005 L 356.13792,366.65626 L 367.78266,367.50315 L 376.25156,366.02109 L 380.90946,364.32731 L 383.76771,362.21009 L 386.5201,358.6108 L 388.63733,357.12873 C 388.63733,357.12873 389.8018,353.74118 388.84905,353.31773 C 387.8963,352.89429 382.28565,350.56533 382.28565,350.56533 L 380.48601,350.88292 L 344.91662,351.62395 z"
         style="fill:url(#radialGradient6491);fill-opacity:1;fill-rule:evenodd;stroke:none;stroke-width:1px;stroke-linecap:butt;stroke-linejoin:miter;stroke-opacity:1" />
      <path
         style="fill:#f9f9f9;fill-rule:evenodd;stroke:#000000;stroke-width:0.18808889px;stroke-linecap:butt;stroke-linejoin:miter;stroke-opacity:1"
         d="M 370.00574,334.15684 L 366.93577,336.37993 L 365.34785,341.99057 L 364.81854,347.49537 L 365.98302,352.0474 L 368.31196,355.22324 L 374.66364,357.23461 L 379.53326,355.54081 L 381.12118,353.74118 L 380.69773,349.71844 L 380.69773,345.16641 L 378.89809,339.76749 L 377.20431,336.37993 L 374.13433,334.26271 L 371.06436,333.83927 L 370.00574,334.15684 z"
         id="path6439" />
      <path
         style="fill:#f2f2f2;fill-rule:evenodd;stroke:#000000;stroke-width:0.18808889px;stroke-linecap:butt;stroke-linejoin:miter;stroke-opacity:1"
         d="M 364.18337,343.47263 L 363.86578,341.14368 L 362.06615,337.75612 L 359.52548,334.89787 L 358.361,334.15684 L 353.27967,334.79201 L 350.10382,336.59165 L 347.77487,342.30816 L 345.55179,347.91881 C 345.55179,347.91881 345.34006,351.30637 345.02247,351.72981 C 344.7049,352.15326 346.39868,355.01151 346.39868,355.01151 L 347.88073,357.44632 L 352.85622,359.24596 L 357.93756,359.03424 L 361.6427,355.54081 L 363.65407,349.8243 L 364.71267,345.27227 L 364.07751,342.62574 L 364.18337,343.47263 z"
         id="path6441" />
      <path
         style="fill:#b3b3b3;fill-rule:evenodd;stroke:#000000;stroke-width:0.18808889px;stroke-linecap:butt;stroke-linejoin:miter;stroke-opacity:1"
         d="M 387.57872,356.28184 C 387.57872,356.28184 386.20252,359.98699 385.67321,360.19872 C 385.14391,360.41043 382.49737,363.58628 382.49737,363.58628 L 375.72225,366.55039 L 366.19473,367.71487 L 356.87894,366.65626 L 349.15108,365.80936 L 343.75214,363.48042 L 339.83528,360.30458 L 337.08288,358.6108 L 336.13014,360.83388 L 334.64807,364.96247 L 333.37774,367.71487 L 331.36637,371.2083 L 329.14329,373.96068 L 329.35501,375.23101 L 330.41363,375.23101 L 336.87117,375.23101 L 346.18695,375.86619 L 356.77308,376.71308 L 364.07751,377.7717 L 371.59366,377.55996 L 385.14391,376.71308 L 397.31795,375.65445 L 397.42382,374.91344 L 396.25934,373.96068 L 394.24798,370.25553 L 391.07214,364.6449 L 388.84905,358.29321 L 387.57872,356.28184 z"
         id="path6443" />
      <path
         style="opacity:0.47000008;fill:url(#linearGradient6493);fill-opacity:1;fill-rule:evenodd;stroke:#000000;stroke-width:0.18808889px;stroke-linecap:butt;stroke-linejoin:miter;stroke-opacity:1"
         d="M 387.57872,356.28184 C 387.57872,356.28184 386.20252,359.98699 385.67321,360.19872 C 385.14391,360.41043 382.49737,363.58628 382.49737,363.58628 L 375.72225,366.55039 L 366.19473,367.71487 L 356.87894,366.65626 L 349.15108,365.80936 L 343.75214,363.48042 L 339.83528,360.30458 L 337.08288,358.6108 L 336.13014,360.83388 L 334.64807,364.96247 L 333.37774,367.71487 L 331.36637,371.2083 L 329.14329,373.96068 L 329.35501,375.23101 L 330.41363,375.23101 L 336.87117,375.23101 L 346.18695,375.86619 L 356.77308,376.71308 L 364.07751,377.7717 L 371.59366,377.55996 L 385.14391,376.71308 L 397.31795,375.65445 L 397.42382,374.91344 L 396.25934,373.96068 L 394.24798,370.25553 L 391.07214,364.6449 L 388.84905,358.29321 L 387.57872,356.28184 z"
         id="path6445" />
      <path
         id="path6447"
         d="M 370.00574,334.15684 L 366.93577,336.37993 L 365.34785,341.99057 L 364.81854,347.49537 L 365.98302,352.0474 L 368.31196,355.22324 L 374.66364,357.23461 L 379.53326,355.54081 L 381.12118,353.74118 L 380.69773,349.71844 L 380.69773,345.16641 L 378.89809,339.76749 L 377.20431,336.37993 L 374.13433,334.26271 L 371.06436,333.83927 L 370.00574,334.15684 z"
         style="fill:url(#linearGradient6495);fill-opacity:1;fill-rule:evenodd;stroke:#000000;stroke-width:0.18808889px;stroke-linecap:butt;stroke-linejoin:miter;stroke-opacity:1" />
      <path
         id="path6449"
         d="M 364.18337,343.47263 L 363.86578,341.14368 L 362.06615,337.75612 L 359.52548,334.89787 L 358.361,334.15684 L 353.27967,334.79201 L 350.10382,336.59165 L 347.77487,342.30816 L 345.55179,347.91881 C 345.55179,347.91881 345.34006,351.30637 345.02247,351.72981 C 344.7049,352.15326 346.39868,355.01151 346.39868,355.01151 L 347.88073,357.44632 L 352.85622,359.24596 L 357.93756,359.03424 L 361.6427,355.54081 L 363.65407,349.8243 L 364.71267,345.27227 L 364.07751,342.62574 L 364.18337,343.47263 z"
         style="fill:url(#linearGradient6497);fill-opacity:1;fill-rule:evenodd;stroke:#000000;stroke-width:0.18808889px;stroke-linecap:butt;stroke-linejoin:miter;stroke-opacity:1" />
      <path
         style="fill:url(#linearGradient6499);fill-opacity:1;fill-rule:evenodd;stroke:#000000;stroke-width:0.18808889px;stroke-linecap:butt;stroke-linejoin:miter;stroke-opacity:1"
         d="M 364.18337,343.47263 L 363.86578,341.14368 L 362.06615,337.75612 L 359.52548,334.89787 L 358.361,334.15684 L 353.27967,334.79201 L 350.10382,336.59165 L 347.77487,342.30816 L 345.55179,347.91881 C 345.55179,347.91881 345.34006,351.30637 345.02247,351.72981 C 344.7049,352.15326 346.39868,355.01151 346.39868,355.01151 L 347.88073,357.44632 L 352.85622,359.24596 L 357.93756,359.03424 L 361.6427,355.54081 L 363.65407,349.8243 L 364.71267,345.27227 L 364.07751,342.62574 L 364.18337,343.47263 z"
         id="path6451" />
      <path
         style="fill:url(#linearGradient6501);fill-opacity:1;fill-rule:evenodd;stroke:#000000;stroke-width:0.18808889px;stroke-linecap:butt;stroke-linejoin:miter;stroke-opacity:1"
         d="M 370.00574,334.15684 L 366.93577,336.37993 L 365.34785,341.99057 L 364.81854,347.49537 L 365.98302,352.0474 L 368.31196,355.22324 L 374.66364,357.23461 L 379.53326,355.54081 L 381.12118,353.74118 L 380.69773,349.71844 L 380.69773,345.16641 L 378.89809,339.76749 L 377.20431,336.37993 L 374.13433,334.26271 L 371.06436,333.83927 L 370.00574,334.15684 z"
         id="path6453" />
      <path
         style="fill:url(#linearGradient6503);fill-opacity:1;fill-rule:evenodd;stroke:none;stroke-width:1px;stroke-linecap:butt;stroke-linejoin:miter;stroke-opacity:1"
         d="M 344.91662,351.62395 L 341.84665,351.62395 L 341.21147,354.16462 L 336.44772,357.76391 L 338.45907,359.56354 L 344.17558,363.16283 L 348.83349,365.28005 L 356.13792,366.65626 L 367.78266,367.50315 L 376.25156,366.02109 L 380.90946,364.32731 L 383.76771,362.21009 L 386.5201,358.6108 L 388.63733,357.12873 C 388.63733,357.12873 389.8018,353.74118 388.84905,353.31773 C 387.8963,352.89429 382.28565,350.56533 382.28565,350.56533 L 380.48601,350.88292 L 344.91662,351.62395 z"
         id="path6455" />
      <path
         id="path6457"
         d="M 387.57872,356.28184 C 387.57872,356.28184 386.20252,359.98699 385.67321,360.19872 C 385.14391,360.41043 382.49737,363.58628 382.49737,363.58628 L 375.72225,366.55039 L 366.19473,367.71487 L 356.87894,366.65626 L 349.15108,365.80936 L 343.75214,363.48042 L 339.83528,360.30458 L 337.08288,358.6108 L 336.13014,360.83388 L 334.64807,364.96247 L 333.37774,367.71487 L 331.36637,371.2083 L 329.14329,373.96068 L 329.35501,375.23101 L 330.41363,375.23101 L 336.87117,375.23101 L 346.18695,375.86619 L 356.77308,376.71308 L 364.07751,377.7717 L 371.59366,377.55996 L 385.14391,376.71308 L 397.31795,375.65445 L 397.42382,374.91344 L 396.25934,373.96068 L 394.24798,370.25553 L 391.07214,364.6449 L 388.84905,358.29321 L 387.57872,356.28184 z"
         style="fill:url(#linearGradient6505);fill-opacity:1;fill-rule:evenodd;stroke:#000000;stroke-width:0.18808889px;stroke-linecap:butt;stroke-linejoin:miter;stroke-opacity:1" />
      <path
         id="path6459"
         d="M 365.2828,378.39562 C 360.70841,378.35622 359.97018,377.8016 355.99155,377.20246 C 352.01293,376.60333 345.96421,376.1142 341.27676,375.8853 C 336.5893,375.65639 332.32942,375.92921 327.90087,376.39741 C 326.18494,375.21909 330.19403,375.51384 328.43384,374.26196 C 329.59226,372.03611 331.71742,370.36837 332.5816,368.03885 C 333.88652,366.12884 334.70785,364.03662 335.37663,361.75224 C 335.65062,360.34629 336.54055,358.00796 334.99732,357.42244 C 336.10558,355.1053 338.25178,357.6827 340.29762,353.15667 C 340.69931,350.82576 343.78045,350.53095 344.6837,350.90933 C 346.02542,345.52495 346.97741,338.80103 351.5523,335.15233 C 354.02548,333.6764 357.03898,332.77856 359.51807,334.63735 C 361.88154,335.95542 363.17675,338.72738 364.10936,341.24406 C 364.39589,342.82497 364.84939,344.21162 365.15178,341.76753 C 365.81417,339.02875 365.9994,335.49836 368.90844,334.14154 C 371.47105,332.5158 374.2457,333.32198 376.30953,335.16544 C 378.41386,336.90256 379.273,339.50778 379.99478,342.07852 C 380.93118,344.86131 380.96239,347.85868 381.47749,350.74533 C 381.27025,351.98129 381.97078,353.94078 380.37693,355.68442 C 378.78308,357.42808 375.03895,358.04597 371.81256,357.11628 C 369.29145,356.79474 366.75958,354.8547 365.78034,352.93145 C 364.80107,351.00823 364.61375,346.52573 364.09626,350.93098 C 363.26126,354.78973 360.42317,359.4351 356.41325,359.70166 C 352.40332,359.96822 347.46255,358.64454 346.14952,355.94167 C 344.83649,353.23879 344.17197,349.70097 342.07179,353.24342 C 341.50399,355.24452 337.45364,356.97147 338.03444,358.34561 C 340.42633,359.85561 342.11413,361.42752 344.79048,362.87255 C 347.46686,364.31758 349.30285,365.1982 353.90341,365.80443 C 358.50399,366.41066 367.01586,367.65857 371.54178,366.92838 C 376.06769,366.19818 378.06543,364.39396 380.55569,362.84678 C 383.04594,361.2996 385.29392,360.28394 386.52681,357.74299 C 389.50537,355.0672 388.2808,353.11083 385.63449,352.55569 C 382.98818,352.00055 381.27311,351.1151 382.43245,349.81975 C 385.1679,348.94734 386.2791,352.78181 389.03586,351.80441 C 392.98811,351.48042 388.40232,355.82641 389.66331,358.28362 C 390.96748,360.82498 391.84625,363.92474 392.80187,366.44666 C 393.7575,368.96857 395.84016,370.73651 396.14862,372.6696 C 396.45708,374.60266 402.27833,375.44929 398.6946,376.38678 C 393.671,377.31645 388.87415,377.0216 383.32396,377.59912 C 377.77377,378.17665 369.85718,378.43503 365.2828,378.39562 z M 376.56813,376.85147 C 379.90738,376.57677 389.94043,375.99962 396.60283,375.30013 C 396.37483,374.1236 393.83808,371.80098 393.28542,369.8269 C 390.84931,366.71692 390.12991,362.66421 388.53429,359.10818 C 387.62722,356.28342 386.04572,360.29348 384.36109,361.65979 C 382.67646,363.0261 380.1502,364.76182 376.79799,366.43705 C 373.44578,368.11228 368.26808,368.42368 362.99181,367.89409 C 357.71556,367.36451 349.2885,366.63789 345.30622,364.52984 C 341.32395,362.42178 340.16929,361.71054 337.94021,359.76837 C 336.08131,361.36412 335.89755,365.49978 334.43798,367.55937 C 332.97843,369.61896 332.24036,371.65939 330.58039,373.18323 C 327.68175,376.31579 332.74788,374.60836 335.40251,374.67538 C 338.05716,374.74241 341.78454,374.64538 346.06537,375.01192 C 350.3462,375.37847 356.10542,375.89229 361.03341,376.71413 C 365.96137,377.53598 370.97435,377.2386 375.91618,376.89657 C 375.91618,376.89657 376.49988,376.78109 376.56813,376.85145 C 376.63638,376.92182 373.22888,377.12617 376.56813,376.85147 z M 362.89998,351.34212 C 363.67921,350.17872 363.81814,346.55562 362.60504,349.52834 C 359.22606,352.37039 357.58952,347.0822 358.95175,344.72061 C 359.2737,341.41098 363.40658,341.7169 363.13212,344.74208 C 365.48666,343.19674 361.53716,334.5598 356.12348,334.72501 C 350.70979,334.89021 349.32192,339.1313 347.22228,345.99099 C 346.51082,348.80614 345.41325,351.79846 346.82209,354.6447 C 348.23091,357.49094 350.93723,358.48482 353.64294,358.65936 C 358.42237,359.37929 361.78234,355.71397 362.89998,351.34212 z M 376.06886,356.24771 C 379.67802,356.03186 381.38179,353.08328 380.38018,349.74799 C 380.2719,346.98106 379.83988,344.79542 379.02631,342.18166 C 378.52557,339.39909 376.8215,335.96979 374.11113,334.75445 C 371.93626,332.94133 368.7184,334.99048 367.41404,336.96273 C 366.63582,339.7625 365.72385,342.61342 365.73901,345.59366 C 365.21312,348.34098 366.11831,351.45635 367.73138,353.84363 C 369.58784,355.94716 373.34351,356.63583 376.06886,356.24771 z M 375.14544,349.96454 C 372.93749,348.33027 373.69168,344.19913 375.24364,342.22325 C 378.78685,339.93535 380.21895,346.32655 378.98641,348.34715 C 378.18992,349.61285 376.7353,350.62012 375.14544,349.96454 z M 376.5411,346.25992 C 377.71739,344.48777 374.28497,342.6545 375.32012,345.64865 C 375.77133,345.86734 375.92958,347.16256 376.5411,346.25992 z M 360.07295,349.34431 C 359.60491,348.6121 359.60506,350.07661 360.07295,349.34431 z M 360.14687,347.73022 C 360.50138,346.67664 362.20969,342.95956 359.92603,345.09267 C 359.63397,345.32899 359.48538,348.80799 360.14687,347.73022 z M 347.30192,332.29502 C 348.21102,330.34271 354.39276,326.3257 355.08585,329.33773 C 352.53657,328.97105 349.39313,332.49682 347.30192,332.29502 z M 377.78276,331.46966 C 375.97413,330.14147 372.13629,330.04176 370.52661,329.31199 C 372.39725,327.33414 376.64492,329.62942 378.75152,330.63415 C 380.43894,331.24997 378.37558,331.88739 377.78276,331.46966 z"
         style="fill:#000000;fill-opacity:1"
         sodipodi:nodetypes="czzccccccccccccccczczczzcczzzzczcczzzczzcccczzzzczczzzzzzcccczczccccccccccccccccccccccccccccc" />
      <path
         id="path6461"
         d="M 387.57872,356.28184 C 387.57872,356.28184 386.20252,359.98699 385.67321,360.19872 C 385.14391,360.41043 382.49737,363.58628 382.49737,363.58628 L 375.72225,366.55039 L 366.19473,367.71487 L 356.87894,366.65626 L 349.15108,365.80936 L 343.75214,363.48042 L 339.83528,360.30458 L 337.08288,358.6108 L 336.13014,360.83388 L 334.64807,364.96247 L 333.37774,367.71487 L 331.36637,371.2083 L 329.14329,373.96068 L 329.35501,375.23101 L 330.41363,375.23101 L 336.87117,375.23101 L 346.18695,375.86619 L 356.77308,376.71308 L 364.07751,377.7717 L 371.59366,377.55996 L 385.14391,376.71308 L 397.31795,375.65445 L 397.42382,374.91344 L 396.25934,373.96068 L 394.24798,370.25553 L 391.07214,364.6449 L 388.84905,358.29321 L 387.57872,356.28184 z"
         style="fill:url(#radialGradient6507);fill-opacity:1;fill-rule:evenodd;stroke:#000000;stroke-width:0.18808889px;stroke-linecap:butt;stroke-linejoin:miter;stroke-opacity:1" />
      <path
         style="fill:url(#radialGradient6509);fill-opacity:1;fill-rule:evenodd;stroke:#000000;stroke-width:0.18808889px;stroke-linecap:butt;stroke-linejoin:miter;stroke-opacity:1"
         d="M 387.57872,356.28184 C 387.57872,356.28184 386.20252,359.98699 385.67321,360.19872 C 385.14391,360.41043 381.36798,363.56036 381.36798,363.56036 L 375.72225,366.55039 L 366.19473,367.71487 L 356.87894,366.65626 L 349.15108,365.80936 L 343.75214,363.48042 L 339.83528,360.30458 L 337.15966,357.40789 L 336.13014,360.83388 L 334.64807,364.96247 L 333.37774,367.71487 L 331.36637,371.2083 L 329.14329,373.96068 L 329.35501,375.23101 L 330.41363,375.23101 L 336.87117,375.23101 L 346.18695,375.86619 L 356.77308,376.71308 L 364.07751,377.7717 L 371.59366,377.55996 L 385.14391,376.71308 L 397.31795,375.65445 L 397.42382,374.91344 L 396.25934,373.96068 L 394.24798,370.25553 L 391.07214,364.6449 L 388.84905,358.29321 L 387.57872,356.28184 z"
         id="path6463"
         sodipodi:nodetypes="cscccccccccccccccccccccccccccc" />
      <path
         style="fill:#e6e6e6;fill-rule:evenodd;stroke:#000000;stroke-width:1px;stroke-linecap:butt;stroke-linejoin:miter;stroke-opacity:1"
         d="M 349.48231,365.59944 C 351.06759,365.59944 356.14968,367.72116 356.14968,367.72116 C 356.14968,367.72116 358.13127,369.50459 358.92391,370.69355 C 359.71655,371.88251 359.51839,371.88251 361.10366,372.08066 C 362.68894,372.27882 363.8779,371.88251 365.06685,371.48619 C 366.25581,371.08987 366.45397,369.90091 367.64293,368.71195 C 368.83188,367.523 369.77186,367.67995 369.77186,367.67995 L 362.29262,367.32484 L 349.48231,365.59944 z"
         id="path6465"
         sodipodi:nodetypes="ccssssccc" />
      <path
         style="fill:#d40000;fill-rule:evenodd;stroke:#000000;stroke-width:0.82511151px;stroke-linecap:butt;stroke-linejoin:miter;stroke-opacity:1"
         d="M 362.32854,368.62451 C 360.49061,369.06088 358.83646,370.36996 358.83646,370.36996 L 360.49061,371.96996 L 362.51234,371.96996 L 366.0044,371.24268 L 366.73958,369.78815 L 365.63682,369.49723 L 364.53405,368.62451 L 362.32854,368.62451 z"
         id="path6467" />
      <path
         id="path6469"
         d="M 362.32854,368.62451 C 360.49061,369.06088 358.83646,370.36996 358.83646,370.36996 L 360.49061,371.96996 L 362.51234,371.96996 L 366.0044,371.24268 L 366.73958,369.78815 L 365.63682,369.49723 L 364.53405,368.62451 L 362.32854,368.62451 z"
         style="fill:url(#linearGradient6511);fill-opacity:1;fill-rule:evenodd;stroke:#000000;stroke-width:0.82511151px;stroke-linecap:butt;stroke-linejoin:miter;stroke-opacity:1" />
      <path
         style="fill:none;fill-rule:evenodd;stroke:#000000;stroke-width:1px;stroke-linecap:butt;stroke-linejoin:miter;stroke-opacity:1"
         d="M 362.81934,368.43687 C 362.81934,369.69795 362.39898,369.97819 362.39898,369.97819"
         id="path6471" />
    </g>
    <g
       id="g2487"
       transform="matrix(1.0437506,0,0,1.0437506,-404.15697,44.330071)">
      <path
         transform="translate(51.579246,34.246155)"
         id="path2478"
         d="M 454.68984,1.6274934 C 453.48533,1.5128791 452.96404,1.3898693 452.32627,1.0697559 C 450.56017,0.18329877 447.28921,-2.4419378 447.05082,-3.1642718 C 446.97003,-3.4090736 446.96254,-3.8478441 447.02145,-4.8834119 C 447.14667,-7.0844236 447.12556,-8.7613209 446.97029,-8.9481905 C 446.71195,-9.2591173 446.46684,-9.2752673 445.73709,-9.0294584 C 444.50339,-8.613895 443.18431,-8.7554745 442.52577,-9.3741387 C 442.26458,-9.6195155 442.27062,-9.7391637 442.58811,-10.609094 C 443.12524,-12.080861 444.12401,-13.545489 445.70631,-15.181693 L 446.67615,-16.184571 L 446.77902,-19.220285 C 447.04508,-27.072283 447.41064,-28.335914 450.18972,-31.010166 C 451.49757,-32.268683 452.51518,-32.884464 453.9392,-33.279081 C 455.85406,-33.809718 458.38959,-33.654583 459.84067,-32.918002 C 463.33455,-31.144487 465.08111,-26.145671 465.23487,-17.479214 C 465.25796,-16.177874 465.3191,-14.872071 465.37074,-14.577428 C 465.42238,-14.282785 465.75781,-13.318499 466.11614,-12.434571 C 466.80251,-10.741442 467.03464,-9.9334923 467.31754,-8.2529664 C 467.75194,-5.6725727 467.76431,-4.6080655 467.36454,-4.2083057 C 467.24837,-4.0921253 467.06794,-3.9970709 466.96359,-3.9970709 C 466.67578,-3.9970709 465.67403,-4.4192039 464.80782,-4.9055128 C 463.17385,-5.8228619 462.76462,-5.9256798 462.07537,-5.5920253 C 461.62789,-5.3754039 461.34245,-4.9760941 461.34196,-4.5660387 C 461.34158,-4.2476655 461.45247,-4.1280566 461.8332,-4.0362218 C 462.43924,-3.8900369 463.27392,-3.3177932 463.50353,-2.8910762 C 463.6913,-2.5420959 463.73798,-1.9931021 463.64863,-1.1845709 C 463.51542,0.020918416 463.33764,0.30153002 462.54698,0.55432913 C 462.35055,0.61713181 461.96615,0.76127109 461.69276,0.87463449 C 460.25245,1.4718559 456.87271,1.8352015 454.68984,1.6274934 z M 456.18526,-11.458586 C 457.22844,-11.71063 457.91799,-12.247365 458.38211,-13.168582 C 458.77378,-13.945998 459.32507,-15.681771 459.32912,-16.150293 L 459.3327,-16.562444 L 460.08329,-16.615681 C 460.74636,-16.662716 460.88898,-16.705514 461.30654,-16.98276 C 463.31028,-18.313165 464.0353,-22.203806 462.99447,-26.040515 C 462.16462,-29.099593 460.0846,-30.341334 457.1517,-29.528585 L 456.53005,-29.356317 L 455.47601,-29.773966 C 454.66179,-30.096592 454.27979,-30.199168 453.79698,-30.224809 C 453.20478,-30.25626 453.14214,-30.240148 452.60324,-29.917715 C 451.93644,-29.518749 451.15996,-28.714793 450.84926,-28.101664 C 450.47226,-27.357685 450.20287,-26.413469 449.96754,-25.011276 C 449.12721,-20.003966 449.6732,-17.568541 451.68962,-17.329725 C 451.94019,-17.300049 452.1452,-17.259281 452.1452,-17.239129 C 452.1452,-17.218978 452.07955,-17.075549 451.99932,-16.920401 C 451.63277,-16.21157 452.35782,-12.958925 453.10587,-11.956347 C 453.59283,-11.303701 454.76197,-11.114715 456.18525,-11.458588 L 456.18526,-11.458586 z"
         style="opacity:1;fill:#b3b3b3;fill-opacity:1;stroke:none;stroke-width:1;stroke-linecap:round;stroke-linejoin:miter;stroke-miterlimit:4;stroke-dasharray:none;stroke-dashoffset:0;stroke-opacity:1" />
      <path
         transform="translate(51.579246,34.246155)"
         id="path2485"
         d="M 452.54834,-11.779919 C 453.30595,-9.507076 451.79073,-4.9613896 451.28565,-3.1936226 C 450.78057,-1.4258557 451.53819,0.84698756 451.53819,0.84698756 L 453.30595,2.1096782 L 460.8821,1.0995257 L 460.12448,-0.66824126 L 458.86179,-5.719004 L 457.5991,-12.537534 L 452.54834,-11.779919 z"
         style="fill:#ffffff;fill-rule:evenodd;stroke:none;stroke-width:1px;stroke-linecap:butt;stroke-linejoin:miter;stroke-opacity:1" />
      <path
         style="fill:#ffffff;fill-rule:evenodd;stroke:none;stroke-width:1px;stroke-linecap:butt;stroke-linejoin:miter;stroke-opacity:1"
         d="M 504.68879,16.630258 C 503.05374,20.801671 501.74022,25.1434 500.7221,29.508909 C 500.47888,30.466275 500.37599,31.53908 501.09365,32.324315 C 501.91534,33.485092 502.71157,34.821283 503.7416,35.720595 C 506.49949,35.906445 509.25697,36.098735 512.01512,36.280537 C 512.79903,33.315392 513.65261,30.248688 513.38096,27.159249 C 512.81267,23.547278 511.44816,20.126576 510.09981,16.745386 C 508.33087,16.65052 506.56238,16.547195 504.79345,16.452333 L 504.70854,16.596671 L 504.68879,16.630258 z"
         id="path2468" />
      <path
         sodipodi:nodetypes="cccccccccccc"
         style="fill:#ffccaa;fill-opacity:1;stroke:none;stroke-width:0.99999994;stroke-linecap:round;stroke-linejoin:miter;stroke-miterlimit:4;stroke-dasharray:none;stroke-dashoffset:0;stroke-opacity:1"
         d="M 514.58981,35.767693 C 513.47759,36.01609 512.16712,36.179505 511.34005,37.028869 C 510.96233,38.148178 512.21262,39.244814 513.31816,39.111642 C 514.82539,39.060212 516.43167,39.292851 517.87619,38.849987 C 518.45554,38.098598 518.4122,37.473019 517.90959,36.999031 C 517.21563,36.484228 515.52243,35.651137 514.58981,35.767693 z M 501.86447,35.366747 C 500.57507,34.931957 497.5669,36.21351 498.62886,38.096421 C 498.86445,39.490888 500.60522,39.423921 501.67976,39.514591 C 502.81683,39.45497 504.11718,39.545904 505.12313,39.00698 C 505.61569,38.308473 506.87029,37.184532 505.8557,37.102779 C 504.43174,36.698207 503.36005,35.335623 501.86447,35.366747 z"
         id="path2470" />
      <path
         style="fill:#ffd42a;fill-opacity:1;stroke:none;stroke-width:1;stroke-linecap:round;stroke-linejoin:miter;stroke-miterlimit:4;stroke-dasharray:none;stroke-dashoffset:0;stroke-opacity:1"
         d="M 504.85101,17.075071 C 504.14487,17.431039 504.84803,18.389158 504.83531,18.953753 C 505.12735,20.120834 505.50269,21.924566 506.95995,22.046513 C 508.32055,21.815947 509.29458,20.396636 509.44567,19.08458 C 509.46116,18.5224 509.82986,18.072084 510.05271,17.577448 C 508.30058,17.652509 506.55702,17.319772 504.85101,17.075071 z"
         id="path2472" />
      <path
         style="fill:#ffffff;fill-opacity:1;stroke:none;stroke-width:1;stroke-linecap:round;stroke-linejoin:miter;stroke-miterlimit:4;stroke-dasharray:none;stroke-dashoffset:0;stroke-opacity:1"
         d="M 505.56271,4.4790069 C 503.56302,4.8151761 502.81952,7.0512239 502.46787,8.782463 C 502.19567,10.658152 501.7711,12.684369 502.37576,14.531786 C 503.00263,15.934678 504.5227,16.643095 506.01276,16.572694 C 507.93044,16.370172 509.75491,17.354321 511.65927,16.965176 C 513.04496,16.500879 513.61411,14.862717 514.05603,13.600295 C 514.89012,10.62909 513.66473,7.1320899 510.90047,5.6355213 C 510.15919,5.1078828 509.14822,5.1686521 508.52988,5.8657776 C 508.19637,6.2732441 507.76268,6.3881462 507.54082,5.7977473 C 507.09883,5.1310592 506.458,4.3785566 505.56271,4.4790069 z M 506.93902,8.91144 C 507.61251,8.8834927 508.13764,9.6828855 508.8334,9.235892 C 509.69644,8.5369227 510.95245,8.9904539 510.84291,10.135985 C 511.05395,11.279044 510.18945,12.62393 508.93283,12.380983 C 508.21185,12.330226 508.52473,11.217161 507.74492,11.287266 C 506.98914,11.413718 505.92637,12.02667 505.43189,11.083175 C 504.84572,10.129038 505.97326,8.9584608 506.93902,8.91144 z"
         id="path2474" />
      <path
         id="path2476"
         style="fill:#000000"
         d="M 512.47137,17.480587 C 511.5167,17.881832 505.4819,17.184936 503.27133,16.896503 C 500.84248,16.579588 500.99245,13.06537 501.47925,9.8396038 C 501.85562,7.3456086 502.24525,5.3037614 504.5803,4.1422199 C 505.47972,3.6948161 506.71396,4.4050252 508.09758,4.9420464 C 511.42905,3.7781253 513.65169,4.9967101 514.50746,8.0818158 C 515.54607,11.280923 515.1257,16.174633 512.47137,17.480587 z M 516.71309,13.336773 C 516.29406,7.9602957 514.86245,1.0460518 508.98182,0.63052385 C 506.2491,0.40390983 504.01841,1.099977 502.19335,2.7488061 C 499.02622,5.6101312 498.55704,7.0191086 498.33725,14.329233 L 498.22554,18.04477 C 496.37679,19.800272 494.44623,21.950246 493.84861,24.443563 C 493.84861,25.392691 496.03537,25.810143 497.12913,25.320583 C 498.64913,24.640254 498.8792,25.097623 498.61437,28.273168 C 498.3822,31.057027 498.42037,31.281774 499.23772,31.943637 C 500.73132,33.314049 502.26525,34.534908 504.05547,35.46405 C 505.61365,36.282653 511.54396,36.095014 513.46227,35.081206 C 515.01592,34.622469 515.13087,34.495021 515.29408,33.050343 C 515.43004,31.846836 515.3031,31.363177 514.71505,30.844081 C 514.3008,30.478414 513.72438,30.17923 513.43409,30.17923 C 512.63816,30.17923 512.80101,29.122583 513.6685,28.658318 C 514.27973,28.331191 514.76976,28.449114 516.14263,29.253666 C 518.55901,30.669758 519.52553,30.842031 519.25402,28.211364 C 519.13614,27.069154 518.74864,24.220934 518.16143,22.80796 C 517.30538,20.748121 516.79586,20.001958 516.86773,18.021997 C 516.91703,16.663813 516.83608,14.48728 516.71309,13.336773 z M 498.07686,39.764434 C 497.02899,38.432277 497.02248,36.64287 498.65901,35.81535 C 500.43222,34.918716 500.34118,34.602186 499.29538,34.042498 C 498.36622,33.545218 497.20099,31.375835 497.47573,30.659886 C 497.5868,30.370433 497.80687,28.526038 497.50177,27.795853 C 497.04484,26.702258 495.87142,27.068352 494.38519,26.627328 C 492.65938,26.115198 492.45938,25.784023 492.56302,24.565821 C 492.68433,23.140058 495.09079,19.743815 496.49853,18.23959 C 497.36014,17.318932 497.30099,16.689587 497.38739,12.288348 C 497.59533,6.6937373 498.62862,3.2942773 503.2558,0.697896 C 504.99151,-0.23520285 508.79583,-0.65296642 510.71839,0.090009419 C 514.41172,1.5173018 515.26878,3.2279602 516.59497,6.9507384 C 517.56252,9.6667676 517.97403,13.577653 517.86859,17.072214 C 517.82672,18.460284 518.36942,20.020256 518.76483,21.061309 C 520.08397,24.534398 520.55001,26.633523 520.56326,29.161653 C 520.57073,30.587034 520.46046,31.869249 520.31821,32.011009 C 520.17596,32.152772 519.34764,32.268759 518.47749,32.268759 C 517.11641,32.268759 516.8081,32.61063 516.2666,33.141399 C 515.4206,33.970623 515.24474,35.280468 517.41324,35.989087 C 519.52852,36.68032 520.30993,38.024578 519.76917,38.886128 C 519.39255,39.486176 517.64884,39.860782 514.33243,39.902978 C 512.1863,39.930284 511.38948,39.900934 510.42073,38.387234 C 509.44113,36.856579 507.81044,36.955953 507.16748,38.47755 C 506.38932,40.319131 506.36689,40.62278 502.42709,40.670467 C 499.01142,40.711813 498.78498,40.664653 498.07686,39.764434 z M 505.8757,38.099122 C 505.8757,37.229541 505.01172,37.20153 502.68228,36.425843 C 501.81961,36.13858 501.70784,35.570723 501.09701,35.596493 C 500.01151,35.642286 498.71242,36.609041 498.53384,37.558628 C 498.30496,38.775756 499.63126,39.583296 502.39137,39.469524 C 504.94619,39.364224 505.8757,39.005476 505.8757,38.099122 z M 517.84519,38.3667 C 518.82588,37.328394 517.52609,37.147534 516.51138,36.798824 C 515.00016,36.279483 515.1594,35.930527 513.52542,36.388004 C 511.52433,36.948278 511.20447,37.107115 511.76237,38.149564 C 512.11829,38.814613 512.55238,38.917245 515.0092,38.917245 C 517.23254,38.917245 517.84519,38.798306 517.84519,38.3667 z M 504.8066,22.405162 C 504.13338,21.731936 503.24533,18.235293 503.54756,17.447711 C 504.02649,16.199664 504.83153,16.89197 505.08007,18.765624 C 505.33295,20.671882 506.06637,21.821135 507.02999,21.821135 C 507.75161,21.821135 509.10718,20.307072 509.10718,19.501093 C 509.10718,18.339237 509.54984,17.642084 510.28757,17.642084 C 511.15832,17.642084 511.15693,17.610029 510.38809,19.960631 C 509.94791,21.306369 509.46011,22.01204 508.69734,22.40648 C 507.32325,23.117056 505.51788,23.116441 504.8066,22.405162 z M 511.94164,16.077234 C 512.92112,15.701367 514.16784,13.44915 514.10269,11.756511 C 514.01308,9.428135 513.55595,7.5979025 512.10952,6.3279111 C 510.65849,5.053894 509.45163,5.1819165 508.72726,6.0547217 C 508.05511,6.8646276 507.81827,6.6601131 507.13849,5.6748089 C 506.00727,4.0351666 503.82092,4.7273203 503.19893,6.9200515 C 502.96992,7.7273652 502.51118,9.6184439 502.38955,11.195835 C 502.18245,13.881283 502.48249,13.630302 503.38834,14.68303 C 504.24946,15.683781 504.63188,16.114154 506.35736,16.042599 C 507.42351,15.998389 508.04627,16.115775 508.51292,16.303456 C 509.53774,16.715629 511.10528,16.398176 511.94164,16.077234 z M 508.07542,11.93538 C 507.92185,11.348109 507.75645,11.265622 507.37208,11.58463 C 506.53207,12.281772 505.13319,11.860053 504.99257,10.867294 C 504.76264,9.2438162 506.78573,7.8743289 507.84666,8.9352627 C 508.14153,9.2301297 508.47105,9.2131778 509.01206,8.8753057 C 509.42692,8.6162263 510.02345,8.5029051 510.33767,8.6234756 C 511.2377,8.9688517 511.51123,10.746899 510.82537,11.793657 C 510.06512,12.953941 508.3647,13.041567 508.07542,11.93538 z"
         sodipodi:nodetypes="cssscccccscccsscccssssssssccsssssssccssssssssssssssccssssccssssccsssssssccsssssssssccssssssc" />
    </g>
  </g>
</svg>
