<?xml version="1.0" encoding="UTF-8" standalone="no"?>
<!-- Created with Inkscape (http://www.inkscape.org/) -->
<svg
   xmlns:dc="http://purl.org/dc/elements/1.1/"
   xmlns:cc="http://creativecommons.org/ns#"
   xmlns:rdf="http://www.w3.org/1999/02/22-rdf-syntax-ns#"
   xmlns:svg="http://www.w3.org/2000/svg"
   xmlns="http://www.w3.org/2000/svg"
   xmlns:xlink="http://www.w3.org/1999/xlink"
   xmlns:sodipodi="http://sodipodi.sourceforge.net/DTD/sodipodi-0.dtd"
   xmlns:inkscape="http://www.inkscape.org/namespaces/inkscape"
   width="65.939735"
   height="37"
   id="svg3707"
   sodipodi:version="0.32"
   inkscape:version="0.46"
   version="1.0"
   sodipodi:docname="tastentierchen_apfel.svg"
   inkscape:output_extension="org.inkscape.output.svg.inkscape">
  <defs
     id="defs3709">
    <linearGradient
       id="linearGradient3345">
      <stop
         style="stop-color:#a6f733;stop-opacity:0.87854248;"
         offset="0"
         id="stop3347" />
      <stop
         style="stop-color:#9ef6a3;stop-opacity:0;"
         offset="1"
         id="stop3349" />
    </linearGradient>
    <linearGradient
       inkscape:collect="always"
       id="linearGradient2770">
      <stop
         style="stop-color:#808080;stop-opacity:1"
         offset="0"
         id="stop2772" />
      <stop
         style="stop-color:#e6e6e6;stop-opacity:0;"
         offset="1"
         id="stop2774" />
    </linearGradient>
    <linearGradient
       inkscape:collect="always"
       id="linearGradient2750">
      <stop
         style="stop-color:#999999;stop-opacity:1;"
         offset="0"
         id="stop2752" />
      <stop
         style="stop-color:#999999;stop-opacity:0;"
         offset="1"
         id="stop2754" />
    </linearGradient>
    <linearGradient
       inkscape:collect="always"
       id="linearGradient2740">
      <stop
         style="stop-color:#000000;stop-opacity:0.67986275"
         offset="0"
         id="stop2742" />
      <stop
         style="stop-color:#000000;stop-opacity:0;"
         offset="1"
         id="stop2744" />
    </linearGradient>
    <linearGradient
       inkscape:collect="always"
       id="linearGradient2718">
      <stop
         style="stop-color:#4d4d4d;stop-opacity:1"
         offset="0"
         id="stop2720" />
      <stop
         style="stop-color:#999999;stop-opacity:0;"
         offset="1"
         id="stop2722" />
    </linearGradient>
    <linearGradient
       inkscape:collect="always"
       id="linearGradient2780">
      <stop
         style="stop-color:#808080;stop-opacity:0.7013098"
         offset="0"
         id="stop2782" />
      <stop
         style="stop-color:#808080;stop-opacity:0;"
         offset="1"
         id="stop2784" />
    </linearGradient>
    <linearGradient
       inkscape:collect="always"
       id="linearGradient2760">
      <stop
         style="stop-color:#ffb380;stop-opacity:1;"
         offset="0"
         id="stop2762" />
      <stop
         style="stop-color:#ffb380;stop-opacity:0;"
         offset="1"
         id="stop2764" />
    </linearGradient>
    <inkscape:perspective
       sodipodi:type="inkscape:persp3d"
       inkscape:vp_x="0 : 526.18109 : 1"
       inkscape:vp_y="0 : 1000 : 0"
       inkscape:vp_z="744.09448 : 526.18109 : 1"
       inkscape:persp3d-origin="372.04724 : 350.78739 : 1"
       id="perspective3715" />
    <radialGradient
       inkscape:collect="always"
       xlink:href="#linearGradient2770"
       id="radialGradient3279"
       gradientUnits="userSpaceOnUse"
       gradientTransform="matrix(0.2520897,-0.1319036,7.6650231e-2,0.1464914,-413.39125,497.5536)"
       cx="695.45612"
       cy="264.62213"
       fx="695.45612"
       fy="264.62213"
       r="82.32235" />
    <radialGradient
       inkscape:collect="always"
       xlink:href="#linearGradient2770"
       id="radialGradient3283"
       gradientUnits="userSpaceOnUse"
       gradientTransform="matrix(0.1820294,0.1028604,-8.1337806e-2,0.1439415,-346.73792,357.10333)"
       cx="599.95435"
       cy="155.83673"
       fx="599.95435"
       fy="155.83673"
       r="82.32235" />
    <radialGradient
       inkscape:collect="always"
       xlink:href="#linearGradient2770"
       id="radialGradient3286"
       gradientUnits="userSpaceOnUse"
       gradientTransform="matrix(0.6042684,-0.1765161,4.1225469e-2,0.1411274,-617.86316,518.39092)"
       cx="615.50555"
       cy="277.36603"
       fx="615.50555"
       fy="277.36603"
       r="82.32235" />
    <radialGradient
       inkscape:collect="always"
       xlink:href="#linearGradient2750"
       id="radialGradient3290"
       gradientUnits="userSpaceOnUse"
       gradientTransform="matrix(-1.9816775e-3,0.1298188,-0.2164578,-3.3045817e-3,-238.88745,365.68559)"
       cx="446.38852"
       cy="111.18035"
       fx="446.38852"
       fy="111.18035"
       r="71.973396" />
    <radialGradient
       inkscape:collect="always"
       xlink:href="#linearGradient2740"
       id="radialGradient3293"
       gradientUnits="userSpaceOnUse"
       gradientTransform="matrix(1.0759654,0.6709292,-0.2777798,0.4454754,-672.57113,85.429645)"
       cx="403.12296"
       cy="147.60016"
       fx="403.12296"
       fy="147.60016"
       r="17.42005" />
    <radialGradient
       inkscape:collect="always"
       xlink:href="#linearGradient2718"
       id="radialGradient3297"
       gradientUnits="userSpaceOnUse"
       gradientTransform="matrix(0.4009781,-7.6418947e-2,3.111647e-2,0.1632681,-816.22931,244.02077)"
       cx="1260.6033"
       cy="1732.1663"
       fx="1260.6033"
       fy="1732.1663"
       r="82.579948" />
    <radialGradient
       inkscape:collect="always"
       xlink:href="#linearGradient2780"
       id="radialGradient3300"
       gradientUnits="userSpaceOnUse"
       gradientTransform="matrix(0.4793197,-0.1121622,3.9039918e-2,0.1668347,-536.2576,474.04282)"
       cx="620.95825"
       cy="185.26294"
       fx="620.95825"
       fy="185.26294"
       r="60.60405" />
    <radialGradient
       inkscape:collect="always"
       xlink:href="#linearGradient2760"
       id="radialGradient3306"
       gradientUnits="userSpaceOnUse"
       gradientTransform="matrix(-0.210145,0.5572385,-0.1603201,-6.0459699e-2,-71.571304,58.719968)"
       cx="657.84558"
       cy="92.631195"
       fx="657.84558"
       fy="92.631195"
       r="60.60405" />
    <radialGradient
       inkscape:collect="always"
       xlink:href="#linearGradient3345"
       id="radialGradient3361"
       gradientUnits="userSpaceOnUse"
       gradientTransform="matrix(-0.2497308,-0.7924298,0.3728252,-0.1174942,-444.10313,284.78703)"
       cx="-230.52351"
       cy="409.28598"
       fx="-230.52351"
       fy="409.28598"
       r="13.116908" />
  </defs>
  <sodipodi:namedview
     id="base"
     pagecolor="#ffffff"
     bordercolor="#666666"
     borderopacity="1.0"
     inkscape:pageopacity="0.0"
     inkscape:pageshadow="2"
     inkscape:zoom="11.722825"
     inkscape:cx="32.969868"
     inkscape:cy="18.5"
     inkscape:document-units="px"
     inkscape:current-layer="layer2"
     showgrid="false"
     inkscape:window-width="1149"
     inkscape:window-height="865"
     inkscape:window-x="109"
     inkscape:window-y="101" />
  <metadata
     id="metadata3712">
    <rdf:RDF>
      <cc:Work
         rdf:about="">
        <dc:format>image/svg+xml</dc:format>
        <dc:type
           rdf:resource="http://purl.org/dc/dcmitype/StillImage" />
        <dc:creator>
          <cc:Agent>
            <dc:title>Martin Engel</dc:title>
          </cc:Agent>
        </dc:creator>
        <cc:license
           rdf:resource="http://creativecommons.org/licenses/publicdomain/" />
      </cc:Work>
      <cc:License
         rdf:about="http://creativecommons.org/licenses/publicdomain/">
        <cc:permits
           rdf:resource="http://creativecommons.org/ns#Reproduction" />
        <cc:permits
           rdf:resource="http://creativecommons.org/ns#Distribution" />
        <cc:permits
           rdf:resource="http://creativecommons.org/ns#DerivativeWorks" />
      </cc:License>
    </rdf:RDF>
  </metadata>
  <g
     inkscape:groupmode="layer"
     id="layer2"
     inkscape:label="apfel"
     style="display:inline">
    <path
       id="path2628"
       d="M -232.38912,409.83336 L -232.27982,415.9551 L -225.83013,411.25448 L -227.57919,410.37994 L -232.38912,409.83336 z"
       style="fill:#552200;fill-rule:evenodd;stroke:none;stroke-width:1px;stroke-linecap:butt;stroke-linejoin:miter;stroke-opacity:1;display:inline"
       transform="translate(283.75924,-406.552)" />
    <path
       transform="translate(283.75924,-406.552)"
       id="path2630"
       d="M -243.10217,417.70417 L -240.91584,422.73274 L -241.13449,424.91907 L -242.22764,426.12156 L -244.30467,428.19857 L -245.39782,429.72901 L -244.52329,432.13399 L -242.88355,434.1017 L -241.13449,435.19485 L -239.93199,434.86691 L -231.95186,433.55511 L -229.6562,433.11784 L -227.14193,431.69672 L -221.89471,430.05696 L -220.36429,428.19857 L -219.38044,424.4818 L -219.92703,421.20232 L -221.78541,418.36008 L -223.64378,416.72031 L -226.37672,415.73646 L -227.46987,415.73646 L -228.78167,415.40851 L -232.49844,416.82963 L -234.7941,415.84578 L -236.54316,415.08057 L -237.52701,414.6433 L -240.04131,415.08057 L -241.57175,415.62716 L -243.10217,417.70417 z"
       style="fill:#d35f5f;fill-rule:evenodd;stroke:#000000;stroke-width:0.21643621px;stroke-linecap:butt;stroke-linejoin:miter;stroke-opacity:1;display:inline" />
    <path
       transform="translate(283.75924,-406.552)"
       style="fill:url(#radialGradient3306);fill-opacity:1;fill-rule:evenodd;stroke:#000000;stroke-width:0.21643621px;stroke-linecap:butt;stroke-linejoin:miter;stroke-opacity:1;display:inline"
       d="M -243.10217,417.70417 L -240.91584,422.73274 L -241.13449,424.91907 L -242.22764,426.12156 L -244.30467,428.19857 L -245.39782,429.72901 L -244.52329,432.13399 L -242.88355,434.1017 L -241.13449,435.19485 L -239.93199,434.86691 L -231.95186,433.55511 L -229.6562,433.11784 L -227.14193,431.69672 L -221.89471,430.05696 L -220.36429,428.19857 L -219.38044,424.4818 L -219.92703,421.20232 L -221.78541,418.36008 L -223.64378,416.72031 L -226.37672,415.73646 L -227.46987,415.73646 L -228.78167,415.40851 L -232.49844,416.82963 L -234.7941,415.84578 L -236.54316,415.08057 L -237.52701,414.6433 L -240.04131,415.08057 L -241.57175,415.62716 L -243.10217,417.70417 z"
       id="path2758" />
    <path
       id="path3315"
       d="M -243.10217,417.70417 L -240.91584,422.73274 L -241.13449,424.91907 L -242.22764,426.12156 L -244.30467,428.19857 L -245.39782,429.72901 L -244.52329,432.13399 L -242.88355,434.1017 L -241.13449,435.19485 L -239.93199,434.86691 L -231.95186,433.55511 L -229.6562,433.11784 L -227.14193,431.69672 L -221.89471,430.05696 L -220.36429,428.19857 L -219.38044,424.4818 L -219.92703,421.20232 L -221.78541,418.36008 L -223.64378,416.72031 L -226.37672,415.73646 L -227.46987,415.73646 L -228.78167,415.40851 L -232.49844,416.82963 L -234.7941,415.84578 L -236.54316,415.08057 L -237.52701,414.6433 L -240.04131,415.08057 L -241.57175,415.62716 L -243.10217,417.70417 z"
       style="fill:url(#radialGradient3361);fill-opacity:1;fill-rule:evenodd;stroke:#000000;stroke-width:0.21643620999999999px;stroke-linecap:butt;stroke-linejoin:miter;stroke-opacity:1;display:inline"
       transform="translate(283.75924,-406.552)" />
    <path
       id="path2778"
       d="M -243.10217,417.70417 L -240.91584,422.73274 L -241.13449,424.91907 L -242.22764,426.12156 L -244.30467,428.19857 L -245.39782,429.72901 L -244.52329,432.13399 L -242.88355,434.1017 L -241.13449,435.19485 L -239.93199,434.86691 L -231.95186,433.55511 L -229.6562,433.11784 L -227.14193,431.69672 L -221.89471,430.05696 L -220.36429,428.19857 L -219.38044,424.4818 L -219.92703,421.20232 L -221.78541,418.36008 L -223.64378,416.72031 L -226.37672,415.73646 L -227.46987,415.73646 L -228.78167,415.40851 L -232.49844,416.82963 L -234.7941,415.84578 L -236.54316,415.08057 L -237.52701,414.6433 L -240.04131,415.08057 L -241.57175,415.62716 L -243.10217,417.70417 z"
       style="fill:url(#radialGradient3300);fill-opacity:1;fill-rule:evenodd;stroke:#000000;stroke-width:0.21643621px;stroke-linecap:butt;stroke-linejoin:miter;stroke-opacity:1;display:inline"
       transform="translate(283.75924,-406.552)" />
  </g>
  <g
     inkscape:label="tastentierchen"
     inkscape:groupmode="layer"
     id="layer1"
     transform="translate(283.75924,-406.552)"
     style="display:inline">
    <path
       sodipodi:nodetypes="cscccccsccccccccccccccccccsccccccccsccccccc"
       d="M -283.3921,434.28625 C -283.34229,428.79221 -281.64197,439.16916 -281.21704,439.23225 C -280.82109,439.29106 -280.52265,439.30407 -280.1241,439.33179 C -279.41595,439.37255 -278.7071,439.35138 -277.99963,439.3121 C -277.59466,439.30809 -277.18966,439.30751 -276.78469,439.30549 C -276.37413,439.29539 -275.96574,439.34666 -275.55659,439.37237 C -275.11417,439.40787 -274.67026,439.39865 -274.22704,439.39298 C -273.82916,439.3899 -273.43151,439.38144 -273.03361,439.38038 C -272.59193,439.37815 -272.15027,439.3804 -271.70859,439.38529 C -271.13042,439.39562 -270.55232,439.39668 -269.97422,439.38428 C -269.2868,439.42269 -268.59719,439.39575 -267.90951,439.37372 C -267.40763,439.36159 -266.90602,439.34305 -266.404,439.33504 C -265.95472,439.32681 -265.50553,439.32558 -265.05623,439.33257 C -264.44218,439.32272 -263.83044,439.35993 -263.21645,439.35179 C -262.65465,439.33067 -262.09289,439.31013 -261.53063,439.30803 C -260.93545,439.28835 -260.34634,439.29835 -259.75471,439.36549 C -258.53319,439.55264 -257.30591,439.67129 -256.07354,439.75735 C -254.88128,439.83894 -253.68402,439.79973 -252.49247,439.72497 C -251.97794,439.70006 -251.46423,439.64876 -250.94892,439.64433 C -250.45596,439.63489 -249.96199,439.64539 -249.47011,439.67848 C -248.80754,439.71354 -248.14892,439.63443 -247.49068,439.57325 C -244.42761,437.99731 -244.2103,438.28727 -242.62822,442.80966 C -243.40486,443.16542 -248.77254,443.40722 -249.44035,443.41449 C -249.93141,443.45562 -250.42484,443.47408 -250.91762,443.47479 C -251.43414,443.48089 -251.95008,443.44081 -252.46585,443.41802 C -253.66478,443.34469 -254.86539,443.28597 -256.06657,443.27097 C -256.61547,443.25238 -256.89108,443.24901 -257.43373,443.20788 C -258.20438,443.14942 -258.97513,443.05473 -259.74941,443.06865 C -260.33311,443.07019 -260.91595,443.1143 -261.5005,443.10183 C -262.06272,443.10865 -262.62474,443.09705 -263.1868,443.08484 C -263.80085,443.08646 -264.41192,443.13336 -265.02603,443.13328 C -265.47516,443.14741 -265.92433,443.1533 -266.3737,443.15221 C -266.87576,443.15215 -267.37761,443.14161 -267.87962,443.13745 C -268.56756,443.12635 -269.25751,443.11036 -269.94424,443.15966 C -270.52245,443.15646 -271.10045,443.16669 -271.67835,443.18628 C -272.11982,443.19827 -272.56133,443.20769 -273.00292,443.21308 C -273.40162,443.21886 -273.80023,443.2179 -274.19895,443.21814 C -274.64961,443.21414 -275.10027,443.20516 -275.55096,443.20052 C -275.95219,443.18005 -276.35203,443.12832 -276.75365,443.131 C -277.16178,443.13687 -277.57011,443.14659 -277.97823,443.1359 C -278.6937,443.07469 -279.40744,442.99411 -280.12369,442.94145 C -280.89687,442.88632 -282.98504,443.05731 -283.75924,443.1173 L -283.3921,434.28625 z"
       id="path2626"
       style="fill:#333333;fill-opacity:1;stroke:none;stroke-width:9.01299953;stroke-linecap:square;stroke-linejoin:bevel;stroke-miterlimit:4;stroke-dasharray:none;stroke-dashoffset:0;stroke-opacity:0" />
    <path
       sodipodi:nodetypes="ccccccccccccccccccccccccccccc"
       id="path2634"
       d="M -263.65374,425.02839 L -265.84007,425.90292 L -269.3382,426.77745 L -271.08726,425.35633 L -272.83635,421.96753 L -273.16429,416.50169 L -272.39908,412.56627 L -271.52455,410.81721 L -271.19659,410.48927 L -268.79161,409.28677 L -266.38666,409.72403 L -264.41895,411.91039 L -263.65374,413.00354 L -263.21648,411.80106 L -261.79536,410.37994 L -260.15559,410.05198 L -257.532,410.37994 L -255.56429,411.80106 L -254.58043,413.55013 L -253.5966,417.59484 L -253.48728,420.32776 L -253.48728,422.29547 L -253.92454,423.27932 L -255.56429,424.59112 L -257.64132,426.23089 L -259.39038,426.66815 L -261.03012,426.9961 L -262.23262,426.44951 L -263.65374,425.02839 z"
       style="fill:#ffffff;fill-rule:evenodd;stroke:none;stroke-width:1px;stroke-linecap:butt;stroke-linejoin:miter;stroke-opacity:1" />
    <path
       sodipodi:nodetypes="ccccccccccccccccccccsccsccccccccccccccccc"
       id="path2636"
       d="M -272.07112,423.27932 L -274.14815,422.40479 L -275.78789,421.53026 L -278.63013,422.51411 L -278.84877,425.02839 L -278.41151,426.34019 L -276.88107,428.19857 L -275.56927,430.60355 L -274.03883,430.82219 L -272.50838,431.91535 L -269.2289,433.77373 L -266.82393,434.32032 L -263.87236,434.1017 L -260.8115,433.44579 L -258.29721,432.35261 L -257.09473,431.80602 L -253.81522,432.35261 L -254.14317,431.36876 L -253.92454,430.05696 L -253.15931,428.85448 C -253.15931,428.85448 -252.61275,428.63584 -251.19163,428.85448 C -249.77051,429.07311 -250.64504,428.74516 -250.64504,428.74516 L -249.98913,429.18245 C -249.98913,429.18245 -249.1146,427.65201 -248.56801,426.9961 C -248.02144,426.34021 -247.91212,425.46565 -247.91212,425.46565 L -247.69348,422.95138 L -248.13074,421.96753 L -250.53572,421.31162 L -252.3941,421.42094 L -253.5966,422.62341 L -254.58043,423.82591 L -256.76679,425.90292 L -259.17174,426.88677 L -261.24877,427.10542 L -263.32578,425.6843 L -263.87236,425.24703 L -266.27734,426.12156 L -268.79161,426.77745 L -270.10343,426.34019 L -271.74317,424.4818 L -272.07112,423.27932 z"
       style="fill:#ececec;fill-rule:evenodd;stroke:none;stroke-width:1px;stroke-linecap:butt;stroke-linejoin:miter;stroke-opacity:1" />
    <path
       sodipodi:nodetypes="cccccccccccccccccccccc"
       id="path2638"
       d="M -275.67859,430.49423 L -274.25747,430.93149 L -273.05497,430.93149 L -271.8525,432.68058 L -268.57299,434.1017 L -265.62143,434.211 L -263.10715,433.88305 L -259.39038,432.78988 L -257.64132,432.02467 L -255.0177,432.02467 L -253.92454,432.02467 L -251.62889,435.30417 L -248.56801,436.94392 L -246.92827,438.58368 L -244.52331,441.09798 L -250.42639,440.87933 L -263.65374,441.42592 L -277.20901,440.98865 L -280.2699,440.77001 L -279.28604,438.693 L -276.66242,432.68058 L -275.67859,430.49423 z"
       style="fill:#cccccc;fill-rule:evenodd;stroke:none;stroke-width:1px;stroke-linecap:butt;stroke-linejoin:miter;stroke-opacity:1" />
    <path
       style="fill:url(#radialGradient3297);fill-opacity:1;fill-rule:evenodd;stroke:none;stroke-width:1px;stroke-linecap:butt;stroke-linejoin:miter;stroke-opacity:1"
       d="M -275.67859,430.49423 L -274.25747,430.93149 L -273.05497,430.93149 L -271.8525,432.68058 L -268.57299,434.1017 L -265.62143,434.211 L -263.10715,433.88305 L -259.39038,432.78988 L -257.64132,432.02467 L -255.0177,432.02467 L -253.92454,432.02467 L -251.62889,435.30417 L -248.56801,436.94392 L -246.92827,438.58368 L -244.52331,441.09798 L -250.42639,440.87933 L -263.65374,441.42592 L -277.20901,440.98865 L -280.2699,440.77001 L -279.28604,438.693 L -276.66242,432.68058 L -275.67859,430.49423 z"
       id="path2716"
       sodipodi:nodetypes="cccccccccccccccccccccc" />
    <path
       id="path2640"
       d="M -278.73945,426.12156 L -279.83263,430.38492 L -282.89349,433.11784 L -281.80032,437.27188 L -281.36305,440.55139 L -280.2699,440.44207 L -279.0674,438.03709 L -275.56927,430.2756 L -277.42765,426.77745 L -278.73945,426.12156 z"
       style="fill:#b3b3b3;fill-rule:evenodd;stroke:#000000;stroke-width:0.21643621px;stroke-linecap:butt;stroke-linejoin:miter;stroke-opacity:1" />
    <path
       style="fill:url(#radialGradient3293);fill-opacity:1;fill-rule:evenodd;stroke:#000000;stroke-width:0.21643621px;stroke-linecap:butt;stroke-linejoin:miter;stroke-opacity:1"
       d="M -278.73945,426.12156 L -279.83263,430.38492 L -282.89349,433.11784 L -281.80032,437.27188 L -281.36305,440.55139 L -280.2699,440.44207 L -279.0674,438.03709 L -275.56927,430.2756 L -277.42765,426.77745 L -278.73945,426.12156 z"
       id="path2738" />
    <path
       style="fill:url(#radialGradient3290);fill-opacity:1;fill-rule:evenodd;stroke:none;stroke-width:1px;stroke-linecap:butt;stroke-linejoin:miter;stroke-opacity:1"
       d="M -272.07112,423.27932 L -274.14815,422.40479 L -275.78789,421.53026 L -278.63013,422.51411 L -278.84877,425.02839 L -278.41151,426.34019 L -276.88107,428.19857 L -275.56927,430.60355 L -274.03883,430.82219 L -272.50838,431.91535 L -269.2289,433.77373 L -266.82393,434.32032 L -263.87236,434.1017 L -260.8115,433.44579 L -258.29721,432.35261 L -257.09473,431.80602 L -253.81522,432.35261 L -254.14317,431.36876 L -253.92454,430.05696 L -253.15931,428.85448 C -253.15931,428.85448 -252.61275,428.63584 -251.19163,428.85448 C -249.77051,429.07311 -250.64504,428.74516 -250.64504,428.74516 L -249.98913,429.18245 C -249.98913,429.18245 -249.1146,427.65201 -248.56801,426.9961 C -248.02144,426.34021 -247.91212,425.46565 -247.91212,425.46565 L -247.69348,422.95138 L -248.13074,421.96753 L -250.53572,421.31162 L -252.3941,421.42094 L -253.5966,422.62341 L -254.58043,423.82591 L -256.76679,425.90292 L -259.17174,426.88677 L -261.24877,427.10542 L -263.32578,425.6843 L -263.87236,425.24703 L -266.27734,426.12156 L -268.79161,426.77745 L -270.10343,426.34019 L -271.74317,424.4818 L -272.07112,423.27932 z"
       id="path2748"
       sodipodi:nodetypes="ccccccccccccccccccccsccsccccccccccccccccc" />
    <path
       id="path2632"
       d="M -253.37796,428.9638 C -253.37796,428.9638 -251.41025,428.30789 -250.97298,428.52654 C -250.53572,428.74516 -248.13074,429.29175 -248.13074,429.29175 L -245.06988,431.15014 L -242.77423,433.88305 L -241.35311,435.08553 L -240.25993,435.19485 L -239.16678,433.99238 L -238.83881,430.2756 L -239.49472,429.18243 L -239.82267,427.54268 L -239.82267,426.23089 L -237.74566,424.80977 L -235.88727,423.93523 L -233.81024,424.59112 L -232.82641,427.43336 L -233.04503,430.38492 L -233.15435,432.35261 L -232.71709,433.77373 L -231.73323,433.66441 L -229.6562,433.11784 L -226.04875,431.47808 L -221.78541,430.49423 L -220.91086,429.61969 L -219.59906,430.05696 L -218.50591,431.80602 L -218.61521,433.00852 L -224.29969,438.25571 C -224.29969,438.25571 -225.50216,439.02095 -225.83013,439.45821 C -226.15807,439.89548 -227.36055,441.20728 -227.90714,441.42592 C -228.45373,441.64454 -233.15435,442.73772 -233.15435,442.73772 L -239.93199,442.95634 L -242.99285,441.64454 L -245.1792,440.44207 L -247.58418,437.81845 L -249.22392,436.61597 L -251.30093,435.63212 L -252.83137,434.1017 L -253.81522,432.35261 L -253.92454,429.94766 L -253.37796,428.9638 z"
       style="fill:#ffffff;fill-rule:evenodd;stroke:#000000;stroke-width:0.21643621px;stroke-linecap:butt;stroke-linejoin:miter;stroke-opacity:1" />
    <path
       style="fill:url(#radialGradient3286);fill-opacity:1;fill-rule:evenodd;stroke:#000000;stroke-width:0.21643621px;stroke-linecap:butt;stroke-linejoin:miter;stroke-opacity:1"
       d="M -253.37796,428.9638 C -253.37796,428.9638 -251.41025,428.30789 -250.97298,428.52654 C -250.53572,428.74516 -248.13074,429.29175 -248.13074,429.29175 L -245.06988,431.15014 L -242.77423,433.88305 L -241.35311,435.08553 L -240.25993,435.19485 L -239.16678,433.99238 L -238.83881,430.2756 L -239.49472,429.18243 L -239.82267,427.54268 L -239.82267,426.23089 L -237.74566,424.80977 L -235.88727,423.93523 L -233.81024,424.59112 L -232.82641,427.43336 L -233.04503,430.38492 L -233.15435,432.35261 L -232.71709,433.77373 L -231.73323,433.66441 L -229.6562,433.11784 L -226.04875,431.47808 L -221.78541,430.49423 L -220.91086,429.61969 L -219.59906,430.05696 L -218.50591,431.80602 L -218.61521,433.00852 L -224.29969,438.25571 C -224.29969,438.25571 -225.50216,439.02095 -225.83013,439.45821 C -226.15807,439.89548 -227.36055,441.20728 -227.90714,441.42592 C -228.45373,441.64454 -233.15435,442.73772 -233.15435,442.73772 L -239.93199,442.95634 L -242.99285,441.64454 L -245.1792,440.44207 L -247.58418,437.81845 L -249.22392,436.61597 L -251.30093,435.63212 L -252.83137,434.1017 L -253.81522,432.35261 L -253.92454,429.94766 L -253.37796,428.9638 z"
       id="path2768" />
    <path
       id="path2788"
       d="M -253.37796,428.9638 C -253.37796,428.9638 -251.41025,428.30789 -250.97298,428.52654 C -250.53572,428.74516 -248.13074,429.29175 -248.13074,429.29175 L -245.06988,431.15014 L -242.77423,433.88305 L -241.35311,435.08553 L -240.25993,435.19485 L -239.16678,433.99238 L -238.83881,430.2756 L -239.49472,429.18243 L -239.82267,427.54268 L -239.82267,426.23089 L -237.74566,424.80977 L -235.88727,423.93523 L -233.81024,424.59112 L -232.82641,427.43336 L -233.04503,430.38492 L -233.15435,432.35261 L -232.71709,433.77373 L -231.73323,433.66441 L -229.6562,433.11784 L -226.04875,431.47808 L -221.78541,430.49423 L -220.91086,429.61969 L -219.59906,430.05696 L -218.50591,431.80602 L -218.61521,433.00852 L -224.29969,438.25571 C -224.29969,438.25571 -225.50216,439.02095 -225.83013,439.45821 C -226.15807,439.89548 -227.36055,441.20728 -227.90714,441.42592 C -228.45373,441.64454 -233.15435,442.73772 -233.15435,442.73772 L -239.93199,442.95634 L -242.99285,441.64454 L -245.1792,440.44207 L -247.58418,437.81845 L -249.22392,436.61597 L -251.30093,435.63212 L -252.83137,434.1017 L -253.81522,432.35261 L -253.92454,429.94766 L -253.37796,428.9638 z"
       style="fill:url(#radialGradient3283);fill-opacity:1;fill-rule:evenodd;stroke:#000000;stroke-width:0.21643621px;stroke-linecap:butt;stroke-linejoin:miter;stroke-opacity:1" />
    <path
       style="fill:#000000"
       d="M -236.46628,443.37826 C -232.99369,443.25589 -229.51669,442.66759 -226.24422,441.49613 C -224.20952,439.95974 -228.97486,441.62039 -229.79254,441.66502 C -232.98939,442.30846 -236.31742,442.67424 -239.56296,442.305 C -242.02538,441.58842 -244.56946,440.72365 -245.96744,438.41945 C -247.50803,436.13299 -250.49332,436.00564 -252.04244,433.77319 C -253.67473,432.58037 -253.26335,430.10414 -253.46711,428.89567 C -254.96798,429.74531 -253.94327,432.8602 -256.39231,431.52922 C -259.64387,431.90593 -262.48553,434.28634 -265.94589,433.85013 C -268.54522,433.53407 -271.93983,432.60686 -272.6329,429.79568 C -275.99006,432.17301 -275.23068,426.5734 -277.69738,425.83076 C -279.91446,423.69198 -275.73105,420.1976 -274.0095,423.24578 C -271.7038,424.71453 -270.562,429.05276 -266.90531,427.0406 C -265.08477,426.07765 -263.61309,425.20072 -262.16349,427.20781 C -259.21267,428.36936 -256.15654,426.26127 -254.14654,424.22437 C -252.95537,421.68915 -247.59052,420.86522 -248.16858,424.68339 C -247.79172,426.23335 -251.51277,427.9156 -248.26095,427.27199 C -246.36012,425.6572 -246.34443,421.2266 -249.32651,420.95499 C -250.84487,420.38185 -254.01917,423.03109 -253.0198,420.04209 C -253.25255,416.8727 -253.21007,413.23177 -255.77746,410.9177 C -256.47901,409.35698 -260.68422,409.21485 -260.35999,410.43449 C -257.27963,410.02728 -254.78706,412.89846 -254.46382,415.75516 C -254.16788,418.2659 -253.79081,420.92357 -254.52137,423.38047 C -255.97837,424.64374 -253.81107,420.28151 -255.10183,419.45416 C -257.36166,417.84662 -259.82544,421.12914 -259.01807,423.28785 C -259.26738,425.02687 -255.53297,425.34276 -258.23686,426.18474 C -260.77793,427.87072 -263.5523,424.99642 -263.35848,422.39109 C -263.56401,419.39813 -263.89494,416.30921 -263.2505,413.35821 C -262.98006,412.16595 -260.27669,408.92067 -262.96775,410.77682 C -264.73056,412.68239 -264.90689,415.46961 -265.09101,417.94556 C -267.26974,418.82582 -268.61781,421.65785 -267.0425,423.98813 C -266.25567,424.41367 -263.0337,424.31073 -265.22522,425.3751 C -267.99476,427.47972 -271.31279,425.47998 -271.79144,422.29746 C -273.00896,418.70473 -273.08521,414.5205 -271.14427,411.16584 C -269.12412,409.0741 -266.26102,410.14266 -264.67668,411.76858 C -264.00199,409.43115 -267.90799,408.58781 -269.60511,409.61597 C -272.70515,410.71152 -273.82226,414.18822 -273.75287,417.19156 C -274.18637,418.69676 -273.24909,420.92863 -273.89065,421.98382 C -276.12103,419.84312 -279.73411,422.06867 -279.7838,424.88682 C -279.83687,427.4678 -280.03383,430.45079 -282.325,432.14224 C -284.5971,434.16018 -281.92355,437.52135 -282.6671,440.21303 C -282.81579,442.82475 -279.15488,440.76317 -277.46267,441.67831 C -274.75151,441.79544 -272.03753,441.36681 -269.3237,441.72192 C -263.33171,442.12241 -257.33002,441.79787 -251.34577,441.46304 C -250.31952,442.39382 -247.51541,441.65997 -248.60827,440.28006 C -254.98409,440.13341 -261.36627,440.94463 -267.74456,440.42724 C -270.49737,440.23162 -273.26855,440.13888 -275.99848,440.48128 C -277.13534,439.98197 -280.77854,440.74311 -278.67612,438.6716 C -277.82655,436.26212 -276.41783,433.77432 -276.22392,431.29723 C -278.4059,432.75988 -278.61368,436.25091 -279.90957,438.54976 C -280.25537,441.03774 -281.54706,439.16479 -281.15964,437.54877 C -281.58754,435.08187 -282.37941,432.61385 -279.94204,430.91089 C -279.14231,429.98164 -279.00829,427.89903 -278.43759,427.25487 C -277.15893,428.51173 -276.84622,430.55669 -275.12003,431.30915 C -272.35391,431.70086 -270.65967,434.56766 -267.71257,434.68272 C -264.13276,435.41834 -260.58489,434.11057 -257.45836,432.48423 C -255.64519,432.78204 -254.10265,431.91255 -253.50479,434.1628 C -252.01562,436.88201 -248.51029,436.72915 -246.81877,439.19477 C -245.02335,441.71817 -241.98489,443.01878 -239.04966,443.55199 C -238.18918,443.48516 -237.32765,443.43196 -236.46628,443.37826 z M -257.56325,423.49552 C -259.02917,421.86649 -256.25188,418.42278 -255.95879,421.65848 C -255.71207,422.50463 -256.52849,425.38008 -257.56325,423.49552 z M -266.15509,422.91013 C -267.25143,421.84366 -265.98478,417.73187 -265.7456,421.18881 C -265.18548,421.58075 -265.01742,419.18777 -264.8441,421.23532 C -264.72053,422.15983 -264.74893,424.12652 -266.15509,422.91013 z M -224.16816,438.86673 C -222.33098,437.00324 -220.25876,435.36038 -218.504,433.42754 C -216.53673,431.31599 -219.30705,429.76077 -220.58729,429.15596 C -218.41587,427.18297 -218.67981,424.02404 -219.02165,421.39382 C -220.12277,418.5269 -222.62534,416.16957 -225.53625,415.23779 C -226.74327,414.9121 -228.58855,416.10685 -226.27675,416.13403 C -222.49842,416.68962 -219.79533,420.64144 -219.90939,424.35358 C -219.88911,426.93435 -221.3436,429.57658 -223.92276,430.34549 C -225.87554,431.30504 -229.61679,431.67233 -230.25359,433.63411 C -227.70412,432.393 -224.95739,431.25755 -222.05434,431.33153 C -220.73756,430.51663 -220.04141,430.18184 -219.16002,431.84637 C -219.31146,434.61454 -222.91865,435.83377 -224.48807,437.9479 C -225.49502,438.44319 -227.31973,440.70517 -225.03131,439.51197 L -224.62088,439.22479 L -224.16816,438.86673 L -224.16816,438.86673 z M -239.55394,434.9766 C -237.66049,432.98367 -238.82269,430.11548 -239.45403,427.85091 C -239.76988,425.07923 -234.80111,423.21424 -233.72334,426.15596 C -232.60435,428.61467 -234.441,431.53483 -233.0125,434.00523 C -231.78667,434.61495 -229.81104,432.93374 -232.28737,433.22411 C -233.78386,430.54065 -231.0365,427.37283 -233.11804,424.80442 C -234.92857,422.52193 -239.89035,424.52695 -240.30586,427.30398 C -239.8447,429.70971 -239.65419,432.03397 -240.1012,434.47985 C -242.32993,435.15873 -244.92539,431.64101 -244.62419,429.61023 C -242.92588,427.78548 -240.49797,426.2442 -240.24718,423.49883 C -240.00049,421.05178 -242.60578,418.71921 -242.15195,416.68192 C -240.24184,415.1616 -237.42873,414.51861 -235.34774,416.10501 C -233.15593,418.16922 -230.51033,416.90283 -228.49723,415.39633 C -231.07293,414.39412 -224.19954,412.57283 -227.1474,411.7907 C -228.5477,412.86277 -230.46987,414.56567 -231.13691,413.27274 C -231.52249,414.13026 -231.98138,415.34402 -231.84478,413.66573 C -232.17738,411.78922 -231.90662,408.98432 -229.30692,410.64008 C -227.94631,411.5408 -225.77732,409.93872 -228.22426,409.61692 C -230.1344,409.28486 -234.29569,407.6814 -233.27188,411.25279 C -233.23372,413.02083 -232.85948,417.17816 -235.71092,414.992 C -237.61828,413.58292 -240.57556,414.33092 -242.39391,415.6585 C -245.6269,417.20851 -243.01462,419.53647 -242.13827,421.67477 C -240.42631,424.43477 -243.04837,427.07683 -245.21494,428.54996 C -245.98746,431.85373 -248.87411,426.74228 -250.76064,429.11527 C -248.34261,429.36999 -246.17254,430.67205 -244.65551,432.56433 C -243.57504,434.05365 -241.52178,436.89379 -239.55394,434.9766 z M -258.68454,434.56009 C -257.32532,432.29138 -261.86994,435.34281 -259.08021,434.83628 L -258.68454,434.56009 L -258.68454,434.56009 z M -263.03383,408.64586 C -260.30396,406.58833 -265.85754,408.16041 -264.05233,409.11271 C -263.67606,409.04771 -263.34839,408.8479 -263.03383,408.64586 z M -272.92496,407.91802 C -271.23855,408.07754 -270.7614,405.97075 -272.74315,406.70968 C -273.80421,406.70629 -274.31859,408.63703 -272.92496,407.91802 z"
       id="path2623" />
    <path
       style="fill:url(#radialGradient3279);fill-opacity:1;fill-rule:evenodd;stroke:#000000;stroke-width:0.21643621px;stroke-linecap:butt;stroke-linejoin:miter;stroke-opacity:1"
       d="M -253.37796,428.9638 C -253.37796,428.9638 -251.41025,428.30789 -250.97298,428.52654 C -250.53572,428.74516 -248.13074,429.29175 -248.13074,429.29175 L -245.06988,431.15014 L -242.77423,433.88305 L -241.35311,435.08553 L -240.25993,435.19485 L -239.16678,433.99238 L -238.83881,430.2756 L -239.49472,429.18243 L -239.82267,427.54268 L -239.82267,426.23089 L -237.74566,424.80977 L -235.88727,423.93523 L -233.81024,424.59112 L -232.82641,427.43336 L -233.04503,430.38492 L -233.15435,432.35261 L -232.71709,433.77373 L -231.73323,433.66441 L -229.6562,433.11784 L -226.04875,431.47808 L -221.78541,430.49423 L -220.91086,429.61969 L -219.59906,430.05696 L -218.50591,431.80602 L -218.61521,433.00852 L -224.29969,438.25571 C -224.29969,438.25571 -225.50216,439.02095 -225.83013,439.45821 C -226.15807,439.89548 -227.36055,441.20728 -227.90714,441.42592 C -228.45373,441.64454 -233.15435,442.73772 -233.15435,442.73772 L -239.93199,442.95634 L -242.99285,441.64454 L -245.1792,440.44207 L -247.58418,437.81845 L -249.22392,436.61597 L -251.30093,435.63212 L -252.83137,434.1017 L -253.81522,432.35261 L -253.92454,429.94766 L -253.37796,428.9638 z"
       id="path2792" />
  </g>
</svg>
