<?xml version="1.0" encoding="UTF-8" standalone="no"?>
<!-- Created with Inkscape (http://www.inkscape.org/) -->
<svg
   xmlns:dc="http://purl.org/dc/elements/1.1/"
   xmlns:cc="http://creativecommons.org/ns#"
   xmlns:rdf="http://www.w3.org/1999/02/22-rdf-syntax-ns#"
   xmlns:svg="http://www.w3.org/2000/svg"
   xmlns="http://www.w3.org/2000/svg"
   xmlns:xlink="http://www.w3.org/1999/xlink"
   xmlns:sodipodi="http://sodipodi.sourceforge.net/DTD/sodipodi-0.dtd"
   xmlns:inkscape="http://www.inkscape.org/namespaces/inkscape"
   width="53.399342"
   height="37"
   id="svg5948"
   sodipodi:version="0.32"
   inkscape:version="0.46+devel, revision 20105"
   sodipodi:docname="tastentierchen_fenster.svg"
   inkscape:output_extension="org.inkscape.output.svg.inkscape"
   version="1.0">
  <defs
     id="defs5950">
    <linearGradient
       inkscape:collect="always"
       id="linearGradient5607">
      <stop
         style="stop-color:#550000;stop-opacity:1"
         offset="0"
         id="stop5609" />
      <stop
         style="stop-color:#da0000;stop-opacity:1"
         offset="1"
         id="stop5611" />
    </linearGradient>
    <linearGradient
       inkscape:collect="always"
       xlink:href="#linearGradient5607"
       id="linearGradient5897"
       gradientUnits="userSpaceOnUse"
       x1="162.78802"
       y1="365.9147"
       x2="162.78802"
       y2="372.38251" />
    <radialGradient
       inkscape:collect="always"
       xlink:href="#linearGradient3415"
       id="radialGradient5895"
       gradientUnits="userSpaceOnUse"
       gradientTransform="matrix(4.3386401e-3,9.6493668e-2,-0.1481891,6.6630194e-3,752.33826,358.80325)"
       cx="-383.17914"
       cy="3897.1636"
       fx="-383.17914"
       fy="3897.1636"
       r="182.01132" />
    <linearGradient
       inkscape:collect="always"
       id="linearGradient3415">
      <stop
         style="stop-color:#000000;stop-opacity:1;"
         offset="0"
         id="stop3417" />
      <stop
         style="stop-color:#000000;stop-opacity:0;"
         offset="1"
         id="stop3419" />
    </linearGradient>
    <radialGradient
       inkscape:collect="always"
       xlink:href="#linearGradient3415"
       id="radialGradient5893"
       gradientUnits="userSpaceOnUse"
       gradientTransform="matrix(4.3386401e-3,9.6493668e-2,-0.1481891,6.6630194e-3,752.33826,358.80325)"
       cx="-315.02106"
       cy="3970.6899"
       fx="-315.02106"
       fy="3970.6899"
       r="182.01132" />
    <linearGradient
       inkscape:collect="always"
       id="linearGradient3607">
      <stop
         style="stop-color:#ffffff;stop-opacity:1;"
         offset="0"
         id="stop3609" />
      <stop
         style="stop-color:#ffffff;stop-opacity:0;"
         offset="1"
         id="stop3611" />
    </linearGradient>
    <linearGradient
       inkscape:collect="always"
       xlink:href="#linearGradient3607"
       id="linearGradient5891"
       gradientUnits="userSpaceOnUse"
       gradientTransform="matrix(0.1880889,0,0,0.1880889,186.93069,-487.64324)"
       x1="-384.76523"
       y1="4644.0273"
       x2="-240.72159"
       y2="4520.7471" />
    <linearGradient
       inkscape:collect="always"
       id="linearGradient3597">
      <stop
         style="stop-color:#ffffff;stop-opacity:1;"
         offset="0"
         id="stop3599" />
      <stop
         style="stop-color:#ffffff;stop-opacity:0;"
         offset="1"
         id="stop3601" />
    </linearGradient>
    <linearGradient
       inkscape:collect="always"
       xlink:href="#linearGradient3597"
       id="linearGradient5889"
       gradientUnits="userSpaceOnUse"
       gradientTransform="matrix(0.1880889,0,0,0.1880889,186.93069,-487.64321)"
       x1="-35.686485"
       y1="4597.96"
       x2="-116.1433"
       y2="4456.4487" />
    <linearGradient
       id="linearGradient3381"
       inkscape:collect="always">
      <stop
         id="stop3383"
         offset="0"
         style="stop-color:#ffffff;stop-opacity:1" />
      <stop
         id="stop3385"
         offset="1"
         style="stop-color:#e6e6e6;stop-opacity:0;" />
    </linearGradient>
    <linearGradient
       inkscape:collect="always"
       xlink:href="#linearGradient3381"
       id="linearGradient5887"
       gradientUnits="userSpaceOnUse"
       gradientTransform="matrix(0.1880889,0,0,0.1880889,217.18239,-415.79543)"
       x1="-267.06039"
       y1="4017.0872"
       x2="-235.06189"
       y2="4056.6892" />
    <linearGradient
       id="linearGradient3371"
       inkscape:collect="always">
      <stop
         id="stop3373"
         offset="0"
         style="stop-color:#ffffff;stop-opacity:1" />
      <stop
         id="stop3375"
         offset="1"
         style="stop-color:#ececec;stop-opacity:0;" />
    </linearGradient>
    <linearGradient
       inkscape:collect="always"
       xlink:href="#linearGradient3371"
       id="linearGradient5885"
       gradientUnits="userSpaceOnUse"
       gradientTransform="matrix(0.1880889,0,0,0.1880889,217.18239,-415.79543)"
       x1="-378.25092"
       y1="3996.2708"
       x2="-318.20984"
       y2="4065.8281" />
    <linearGradient
       inkscape:collect="always"
       id="linearGradient3359">
      <stop
         style="stop-color:#cccccc;stop-opacity:1"
         offset="0"
         id="stop3361" />
      <stop
         style="stop-color:#ececec;stop-opacity:0;"
         offset="1"
         id="stop3363" />
    </linearGradient>
    <linearGradient
       inkscape:collect="always"
       xlink:href="#linearGradient3359"
       id="linearGradient5883"
       gradientUnits="userSpaceOnUse"
       gradientTransform="matrix(0.1880889,0,0,0.1880889,217.18239,-415.79543)"
       x1="-290.92319"
       y1="4104.415"
       x2="-331.41055"
       y2="4060.2432" />
    <linearGradient
       inkscape:collect="always"
       id="linearGradient3349">
      <stop
         style="stop-color:#e6e6e6;stop-opacity:1;"
         offset="0"
         id="stop3351" />
      <stop
         style="stop-color:#e6e6e6;stop-opacity:0;"
         offset="1"
         id="stop3353" />
    </linearGradient>
    <linearGradient
       inkscape:collect="always"
       xlink:href="#linearGradient3349"
       id="linearGradient5881"
       gradientUnits="userSpaceOnUse"
       gradientTransform="matrix(0.1880889,0,0,0.1880889,217.18239,-415.79543)"
       x1="-193.44109"
       y1="4072.9363"
       x2="-232.02776"
       y2="4054.6584" />
    <linearGradient
       inkscape:collect="always"
       id="linearGradient3425">
      <stop
         style="stop-color:#f9f9f9;stop-opacity:1;"
         offset="0"
         id="stop3427" />
      <stop
         style="stop-color:#f9f9f9;stop-opacity:0;"
         offset="1"
         id="stop3429" />
    </linearGradient>
    <linearGradient
       inkscape:collect="always"
       xlink:href="#linearGradient3425"
       id="linearGradient5879"
       gradientUnits="userSpaceOnUse"
       gradientTransform="matrix(0.1880889,0,0,0.1880889,217.18239,-415.79543)"
       spreadMethod="reflect"
       x1="-285.84601"
       y1="4192.2505"
       x2="-289.90775"
       y2="4124.2158" />
    <radialGradient
       inkscape:collect="always"
       xlink:href="#linearGradient3399"
       id="radialGradient5877"
       gradientUnits="userSpaceOnUse"
       gradientTransform="matrix(1.6048082e-2,9.0554532e-2,-0.1793599,3.1782527e-2,856.41854,250.85467)"
       cx="-248.95627"
       cy="3885.6602"
       fx="-248.95627"
       fy="3885.6602"
       r="140.29561" />
    <radialGradient
       inkscape:collect="always"
       xlink:href="#linearGradient3399"
       id="radialGradient5875"
       gradientUnits="userSpaceOnUse"
       gradientTransform="matrix(8.1627261e-3,7.6309939e-2,-9.8386948e-2,1.052337e-2,540.96593,329.38605)"
       cx="-199.24757"
       cy="3702.4329"
       fx="-199.24757"
       fy="3702.4329"
       r="140.29561" />
    <linearGradient
       inkscape:collect="always"
       id="linearGradient3399">
      <stop
         style="stop-color:#4d4d4d;stop-opacity:1"
         offset="0"
         id="stop3401" />
      <stop
         style="stop-color:#ececec;stop-opacity:0;"
         offset="1"
         id="stop3403" />
    </linearGradient>
    <radialGradient
       inkscape:collect="always"
       xlink:href="#linearGradient3399"
       id="radialGradient5873"
       gradientUnits="userSpaceOnUse"
       gradientTransform="matrix(4.6632815e-3,0.1549835,-0.288364,8.6613063e-3,1245.5357,351.78628)"
       cx="-258.57077"
       cy="3747.105"
       fx="-258.57077"
       fy="3747.105"
       r="140.29561" />
    <inkscape:perspective
       sodipodi:type="inkscape:persp3d"
       inkscape:vp_x="0 : 526.18109 : 1"
       inkscape:vp_y="0 : 1000 : 0"
       inkscape:vp_z="744.09448 : 526.18109 : 1"
       inkscape:persp3d-origin="372.04724 : 350.78739 : 1"
       id="perspective5956" />
    <inkscape:perspective
       id="perspective3267"
       inkscape:persp3d-origin="0.5 : 0.33333333 : 1"
       inkscape:vp_z="1 : 0.5 : 1"
       inkscape:vp_y="0 : 1000 : 0"
       inkscape:vp_x="0 : 0.5 : 1"
       sodipodi:type="inkscape:persp3d" />
    <inkscape:perspective
       id="perspective3267-7"
       inkscape:persp3d-origin="0.5 : 0.33333333 : 1"
       inkscape:vp_z="1 : 0.5 : 1"
       inkscape:vp_y="0 : 1000 : 0"
       inkscape:vp_x="0 : 0.5 : 1"
       sodipodi:type="inkscape:persp3d" />
  </defs>
  <sodipodi:namedview
     id="base"
     pagecolor="#ffffff"
     bordercolor="#666666"
     borderopacity="1.0"
     gridtolerance="10000"
     guidetolerance="10"
     objecttolerance="10"
     inkscape:pageopacity="0.0"
     inkscape:pageshadow="2"
     inkscape:zoom="21.451455"
     inkscape:cx="25.767334"
     inkscape:cy="19.322699"
     inkscape:document-units="px"
     inkscape:current-layer="layer2"
     showgrid="false"
     inkscape:window-width="1680"
     inkscape:window-height="980"
     inkscape:window-x="-4"
     inkscape:window-y="-4" />
  <metadata
     id="metadata5953">
    <rdf:RDF>
      <cc:Work
         rdf:about="">
        <dc:format>image/svg+xml</dc:format>
        <dc:type
           rdf:resource="http://purl.org/dc/dcmitype/StillImage" />
      </cc:Work>
    </rdf:RDF>
  </metadata>
  <g
     inkscape:groupmode="layer"
     id="layer2"
     inkscape:label="fenster"
     style="display:inline">
    <rect
       style="fill:#87cefa;fill-opacity:0.78431374;stroke:#565656;stroke-width:0.73763102000000003;stroke-linecap:round;stroke-linejoin:miter;stroke-miterlimit:4;stroke-opacity:1;stroke-dasharray:none;stroke-dashoffset:0"
       id="rect2470"
       width="19.563871"
       height="12.078929"
       x="9.3936214"
       y="15.086232"
       transform="matrix(0.99143223,0.13062213,-0.13089107,0.99139676,0,0)" />
    <rect
       y="-0.6444664"
       x="9.3936214"
       height="12.078929"
       width="19.563871"
       id="rect2472"
       style="fill:#ff591f;fill-opacity:0.78431374;stroke:#565656;stroke-width:0.73763102000000003;stroke-linecap:round;stroke-linejoin:miter;stroke-miterlimit:4;stroke-opacity:1;stroke-dasharray:none;stroke-dashoffset:0"
       transform="matrix(0.99143223,0.13062213,-0.13089107,0.99139676,0,0)" />
    <rect
       y="15.086232"
       x="33.013519"
       height="12.078929"
       width="19.563871"
       id="rect2474"
       style="fill:#fffd3e;fill-opacity:0.78431374;stroke:#565656;stroke-width:0.73763102000000003;stroke-linecap:round;stroke-linejoin:miter;stroke-miterlimit:4;stroke-opacity:1;stroke-dasharray:none;stroke-dashoffset:0"
       transform="matrix(0.99143223,0.13062213,-0.13089107,0.99139676,0,0)" />
    <rect
       style="fill:#42da42;fill-opacity:0.78431374;stroke:#565656;stroke-width:0.73763102000000003;stroke-linecap:round;stroke-linejoin:miter;stroke-miterlimit:4;stroke-opacity:1;stroke-dasharray:none;stroke-dashoffset:0"
       id="rect2476"
       width="19.563871"
       height="12.078929"
       x="33.013519"
       y="-0.6444664"
       transform="matrix(0.99143223,0.13062213,-0.13089107,0.99139676,0,0)" />
  </g>
  <g
     inkscape:label="tastentierchen"
     inkscape:groupmode="layer"
     id="layer1"
     transform="translate(-62.072517,-496.09423)">
    <g
       id="g5823"
       transform="matrix(0.737631,0,0,0.737631,-31.94855,253.78393)">
      <path
         sodipodi:nodetypes="ccccccscsccccccccscccc"
         d="M 197.01648,377.47711 C 192.64764,377.36939 188.27672,377.38959 183.90675,377.3724 C 178.98021,377.39366 174.05366,377.37955 169.12713,377.38715 C 164.34298,377.38677 159.55892,377.37707 154.77482,377.4022 C 151.18688,377.4173 147.59889,377.42702 144.01093,377.4403 C 140.82525,377.45764 137.63974,377.42604 134.45402,377.42962 C 133.99523,377.4372 133.52764,377.36971 133.07764,377.45238 C 132.84392,377.49532 132.67043,377.68059 132.4668,377.7947 C 137.93321,374.49101 143.31643,371.06742 148.86605,367.88364 C 148.92302,367.85097 151.69165,368.14145 151.8675,368.15417 C 154.85017,368.30962 157.8393,368.28985 160.82547,368.28141 C 165.2689,368.30908 169.71252,368.33516 174.15607,368.32958 L 185.32844,377.31289 C 182.54724,377.81642 179.75883,378.27275 176.92363,378.43663 C 170.90001,378.63959 164.87031,378.51013 158.84358,378.58072 C 154.33537,378.58176 149.82722,378.62039 145.31922,378.65857 C 142.27788,378.64499 139.22715,378.6632 136.19634,378.40418 C 136.14723,378.3979 132.17854,377.89527 132.61378,377.55784 C 147.34409,366.13798 141.77841,366.8989 149.91984,367.07758 C 153.1162,367.08117 156.31236,367.04956 159.5087,367.06688 C 163.05873,367.08016 166.60876,367.08988 170.15875,367.10499 L 197.01648,377.47711 z"
         id="path5825"
         style="opacity:0.70800015;fill:#333333;fill-opacity:1;stroke:none;stroke-width:14.60000038;stroke-linejoin:bevel;stroke-miterlimit:4;stroke-dasharray:none;stroke-opacity:1" />
      <path
         style="fill:#000000;fill-opacity:1;stroke:none;stroke-width:14.60000038;stroke-linejoin:bevel;stroke-miterlimit:4;stroke-dasharray:none;stroke-opacity:1"
         id="path5827"
         d="M 198.14417,376.14106 C 193.77411,376.11068 189.40423,376.20826 185.03465,376.26843 C 180.10925,376.3769 175.18323,376.45001 170.25761,376.54481 C 165.4742,376.62913 160.69071,376.70412 155.90781,376.81395 C 152.3207,376.89255 148.73345,376.96579 145.14627,377.04259 C 141.9614,377.11632 138.77583,377.14113 135.59068,377.20109 C 135.13208,377.2168 134.66338,377.15759 134.21492,377.24821 C 133.98199,377.29529 133.81179,377.4836 133.61023,377.60129 C 139.01732,374.20135 144.33907,370.683 149.83145,367.40147 C 149.88784,367.3678 152.66117,367.60923 152.83723,367.61883 C 155.8222,367.72145 158.8105,367.64877 161.79605,367.58747 C 166.23927,367.53646 170.68266,367.48389 175.12541,367.39965 L 186.45505,376.18377 C 183.6832,376.73645 180.90331,377.24208 178.07146,377.45612 C 172.05238,377.76568 166.02134,377.74299 159.99679,377.92025 C 155.48932,378.00109 150.98256,378.11953 146.47593,378.23752 C 143.43481,378.27777 140.3849,378.34998 137.34999,378.14466 C 137.30078,378.13924 133.32379,377.70696 133.75299,377.36187 C 148.27884,365.68303 142.72751,366.54236 150.87079,366.57689 C 154.06673,366.5239 157.26185,366.43571 160.45799,366.39644 C 164.00769,366.34688 167.55733,366.29376 171.10704,366.246 L 198.14417,376.14106 z"
         sodipodi:nodetypes="ccccccscsccccccccscccc" />
      <path
         sodipodi:nodetypes="csc"
         style="fill:none;fill-rule:evenodd;stroke:#000000;stroke-width:1.26019549;stroke-linecap:butt;stroke-linejoin:miter;stroke-miterlimit:4;stroke-dasharray:none;stroke-opacity:1"
         d="M 162.26859,350.61789 C 164.56049,350.7134 165.33366,350.93547 166.00213,350.74447 C 166.67062,350.55348 168.00755,350.83998 168.00755,350.83998"
         id="path5829" />
      <path
         id="path5831"
         d="M 144.91662,351.62395 L 141.84665,351.62395 L 141.21147,354.16462 L 136.44772,357.76391 L 138.45907,359.56354 L 144.17558,363.16283 L 148.83349,365.28005 L 156.13792,366.65626 L 167.78266,367.50315 L 176.25156,366.02109 L 180.90946,364.32731 L 183.76771,362.21009 L 186.5201,358.6108 L 188.63733,357.12873 C 188.63733,357.12873 189.8018,353.74118 188.84905,353.31773 C 187.8963,352.89429 182.28565,350.56533 182.28565,350.56533 L 180.48601,350.88292 L 144.91662,351.62395 z"
         style="fill:#cccccc;fill-rule:evenodd;stroke:none;stroke-width:1px;stroke-linecap:butt;stroke-linejoin:miter;stroke-opacity:1" />
      <path
         style="fill:url(#radialGradient5873);fill-opacity:1;fill-rule:evenodd;stroke:none;stroke-width:1px;stroke-linecap:butt;stroke-linejoin:miter;stroke-opacity:1"
         d="M 144.91662,351.62395 L 141.84665,351.62395 L 141.21147,354.16462 L 136.44772,357.76391 L 138.45907,359.56354 L 144.17558,363.16283 L 148.83349,365.28005 L 156.13792,366.65626 L 167.78266,367.50315 L 176.25156,366.02109 L 180.90946,364.32731 L 183.76771,362.21009 L 186.5201,358.6108 L 188.63733,357.12873 C 188.63733,357.12873 189.8018,353.74118 188.84905,353.31773 C 187.8963,352.89429 182.28565,350.56533 182.28565,350.56533 L 180.48601,350.88292 L 144.91662,351.62395 z"
         id="path5833" />
      <path
         id="path5835"
         d="M 144.91662,351.62395 L 141.84665,351.62395 L 141.21147,354.16462 L 136.44772,357.76391 L 138.45907,359.56354 L 144.17558,363.16283 L 148.83349,365.28005 L 156.13792,366.65626 L 167.78266,367.50315 L 176.25156,366.02109 L 180.90946,364.32731 L 183.76771,362.21009 L 186.5201,358.6108 L 188.63733,357.12873 C 188.63733,357.12873 189.8018,353.74118 188.84905,353.31773 C 187.8963,352.89429 182.28565,350.56533 182.28565,350.56533 L 180.48601,350.88292 L 144.91662,351.62395 z"
         style="fill:url(#radialGradient5875);fill-opacity:1;fill-rule:evenodd;stroke:none;stroke-width:1px;stroke-linecap:butt;stroke-linejoin:miter;stroke-opacity:1" />
      <path
         style="fill:url(#radialGradient5877);fill-opacity:1;fill-rule:evenodd;stroke:none;stroke-width:1px;stroke-linecap:butt;stroke-linejoin:miter;stroke-opacity:1"
         d="M 144.91662,351.62395 L 141.84665,351.62395 L 141.21147,354.16462 L 136.44772,357.76391 L 138.45907,359.56354 L 144.17558,363.16283 L 148.83349,365.28005 L 156.13792,366.65626 L 167.78266,367.50315 L 176.25156,366.02109 L 180.90946,364.32731 L 183.76771,362.21009 L 186.5201,358.6108 L 188.63733,357.12873 C 188.63733,357.12873 189.8018,353.74118 188.84905,353.31773 C 187.8963,352.89429 182.28565,350.56533 182.28565,350.56533 L 180.48601,350.88292 L 144.91662,351.62395 z"
         id="path5837" />
      <path
         id="path5839"
         d="M 170.00574,334.15684 L 166.93577,336.37993 L 165.34785,341.99057 L 164.81854,347.49537 L 165.98302,352.0474 L 168.31196,355.22324 L 174.66364,357.23461 L 179.53326,355.54081 L 181.12118,353.74118 L 180.69773,349.71844 L 180.69773,345.16641 L 178.89809,339.76749 L 177.20431,336.37993 L 174.13433,334.26271 L 171.06436,333.83927 L 170.00574,334.15684 z"
         style="fill:#f9f9f9;fill-rule:evenodd;stroke:#000000;stroke-width:0.18808889px;stroke-linecap:butt;stroke-linejoin:miter;stroke-opacity:1" />
      <path
         id="path5841"
         d="M 164.18337,343.47263 L 163.86578,341.14368 L 162.06615,337.75612 L 159.52548,334.89787 L 158.361,334.15684 L 153.27967,334.79201 L 150.10382,336.59165 L 147.77487,342.30816 L 145.55179,347.91881 C 145.55179,347.91881 145.34006,351.30637 145.02247,351.72981 C 144.7049,352.15326 146.39868,355.01151 146.39868,355.01151 L 147.88073,357.44632 L 152.85622,359.24596 L 157.93756,359.03424 L 161.6427,355.54081 L 163.65407,349.8243 L 164.71267,345.27227 L 164.07751,342.62574 L 164.18337,343.47263 z"
         style="fill:#f2f2f2;fill-rule:evenodd;stroke:#000000;stroke-width:0.18808889px;stroke-linecap:butt;stroke-linejoin:miter;stroke-opacity:1" />
      <path
         id="path5843"
         d="M 187.57872,356.28184 C 187.57872,356.28184 186.20252,359.98699 185.67321,360.19872 C 185.14391,360.41043 182.49737,363.58628 182.49737,363.58628 L 175.72225,366.55039 L 166.19473,367.71487 L 156.87894,366.65626 L 149.15108,365.80936 L 143.75214,363.48042 L 139.83528,360.30458 L 137.08288,358.6108 L 136.13014,360.83388 L 134.64807,364.96247 L 133.37774,367.71487 L 131.36637,371.2083 L 129.14329,373.96068 L 129.35501,375.23101 L 130.41363,375.23101 L 136.87117,375.23101 L 146.18695,375.86619 L 156.77308,376.71308 L 164.07751,377.7717 L 171.59366,377.55996 L 185.14391,376.71308 L 197.31795,375.65445 L 197.42382,374.91344 L 196.25934,373.96068 L 194.24798,370.25553 L 191.07214,364.6449 L 188.84905,358.29321 L 187.57872,356.28184 z"
         style="fill:#b3b3b3;fill-rule:evenodd;stroke:#000000;stroke-width:0.18808889px;stroke-linecap:butt;stroke-linejoin:miter;stroke-opacity:1" />
      <path
         id="path5845"
         d="M 187.57872,356.28184 C 187.57872,356.28184 186.20252,359.98699 185.67321,360.19872 C 185.14391,360.41043 182.49737,363.58628 182.49737,363.58628 L 175.72225,366.55039 L 166.19473,367.71487 L 156.87894,366.65626 L 149.15108,365.80936 L 143.75214,363.48042 L 139.83528,360.30458 L 137.08288,358.6108 L 136.13014,360.83388 L 134.64807,364.96247 L 133.37774,367.71487 L 131.36637,371.2083 L 129.14329,373.96068 L 129.35501,375.23101 L 130.41363,375.23101 L 136.87117,375.23101 L 146.18695,375.86619 L 156.77308,376.71308 L 164.07751,377.7717 L 171.59366,377.55996 L 185.14391,376.71308 L 197.31795,375.65445 L 197.42382,374.91344 L 196.25934,373.96068 L 194.24798,370.25553 L 191.07214,364.6449 L 188.84905,358.29321 L 187.57872,356.28184 z"
         style="opacity:0.47000008;fill:url(#linearGradient5879);fill-opacity:1;fill-rule:evenodd;stroke:#000000;stroke-width:0.18808889px;stroke-linecap:butt;stroke-linejoin:miter;stroke-opacity:1" />
      <path
         style="fill:url(#linearGradient5881);fill-opacity:1;fill-rule:evenodd;stroke:#000000;stroke-width:0.18808889px;stroke-linecap:butt;stroke-linejoin:miter;stroke-opacity:1"
         d="M 170.00574,334.15684 L 166.93577,336.37993 L 165.34785,341.99057 L 164.81854,347.49537 L 165.98302,352.0474 L 168.31196,355.22324 L 174.66364,357.23461 L 179.53326,355.54081 L 181.12118,353.74118 L 180.69773,349.71844 L 180.69773,345.16641 L 178.89809,339.76749 L 177.20431,336.37993 L 174.13433,334.26271 L 171.06436,333.83927 L 170.00574,334.15684 z"
         id="path5847" />
      <path
         style="fill:url(#linearGradient5883);fill-opacity:1;fill-rule:evenodd;stroke:#000000;stroke-width:0.18808889px;stroke-linecap:butt;stroke-linejoin:miter;stroke-opacity:1"
         d="M 164.18337,343.47263 L 163.86578,341.14368 L 162.06615,337.75612 L 159.52548,334.89787 L 158.361,334.15684 L 153.27967,334.79201 L 150.10382,336.59165 L 147.77487,342.30816 L 145.55179,347.91881 C 145.55179,347.91881 145.34006,351.30637 145.02247,351.72981 C 144.7049,352.15326 146.39868,355.01151 146.39868,355.01151 L 147.88073,357.44632 L 152.85622,359.24596 L 157.93756,359.03424 L 161.6427,355.54081 L 163.65407,349.8243 L 164.71267,345.27227 L 164.07751,342.62574 L 164.18337,343.47263 z"
         id="path5849" />
      <path
         id="path5851"
         d="M 164.18337,343.47263 L 163.86578,341.14368 L 162.06615,337.75612 L 159.52548,334.89787 L 158.361,334.15684 L 153.27967,334.79201 L 150.10382,336.59165 L 147.77487,342.30816 L 145.55179,347.91881 C 145.55179,347.91881 145.34006,351.30637 145.02247,351.72981 C 144.7049,352.15326 146.39868,355.01151 146.39868,355.01151 L 147.88073,357.44632 L 152.85622,359.24596 L 157.93756,359.03424 L 161.6427,355.54081 L 163.65407,349.8243 L 164.71267,345.27227 L 164.07751,342.62574 L 164.18337,343.47263 z"
         style="fill:url(#linearGradient5885);fill-opacity:1;fill-rule:evenodd;stroke:#000000;stroke-width:0.18808889px;stroke-linecap:butt;stroke-linejoin:miter;stroke-opacity:1" />
      <path
         id="path5853"
         d="M 170.00574,334.15684 L 166.93577,336.37993 L 165.34785,341.99057 L 164.81854,347.49537 L 165.98302,352.0474 L 168.31196,355.22324 L 174.66364,357.23461 L 179.53326,355.54081 L 181.12118,353.74118 L 180.69773,349.71844 L 180.69773,345.16641 L 178.89809,339.76749 L 177.20431,336.37993 L 174.13433,334.26271 L 171.06436,333.83927 L 170.00574,334.15684 z"
         style="fill:url(#linearGradient5887);fill-opacity:1;fill-rule:evenodd;stroke:#000000;stroke-width:0.18808889px;stroke-linecap:butt;stroke-linejoin:miter;stroke-opacity:1" />
      <path
         id="path5855"
         d="M 144.91662,351.62395 L 141.84665,351.62395 L 141.21147,354.16462 L 136.44772,357.76391 L 138.45907,359.56354 L 144.17558,363.16283 L 148.83349,365.28005 L 156.13792,366.65626 L 167.78266,367.50315 L 176.25156,366.02109 L 180.90946,364.32731 L 183.76771,362.21009 L 186.5201,358.6108 L 188.63733,357.12873 C 188.63733,357.12873 189.8018,353.74118 188.84905,353.31773 C 187.8963,352.89429 182.28565,350.56533 182.28565,350.56533 L 180.48601,350.88292 L 144.91662,351.62395 z"
         style="fill:url(#linearGradient5889);fill-opacity:1;fill-rule:evenodd;stroke:none;stroke-width:1px;stroke-linecap:butt;stroke-linejoin:miter;stroke-opacity:1" />
      <path
         style="fill:url(#linearGradient5891);fill-opacity:1;fill-rule:evenodd;stroke:#000000;stroke-width:0.18808889px;stroke-linecap:butt;stroke-linejoin:miter;stroke-opacity:1"
         d="M 187.57872,356.28184 C 187.57872,356.28184 186.20252,359.98699 185.67321,360.19872 C 185.14391,360.41043 182.49737,363.58628 182.49737,363.58628 L 175.72225,366.55039 L 166.19473,367.71487 L 156.87894,366.65626 L 149.15108,365.80936 L 143.75214,363.48042 L 139.83528,360.30458 L 137.08288,358.6108 L 136.13014,360.83388 L 134.64807,364.96247 L 133.37774,367.71487 L 131.36637,371.2083 L 129.14329,373.96068 L 129.35501,375.23101 L 130.41363,375.23101 L 136.87117,375.23101 L 146.18695,375.86619 L 156.77308,376.71308 L 164.07751,377.7717 L 171.59366,377.55996 L 185.14391,376.71308 L 197.31795,375.65445 L 197.42382,374.91344 L 196.25934,373.96068 L 194.24798,370.25553 L 191.07214,364.6449 L 188.84905,358.29321 L 187.57872,356.28184 z"
         id="path5857" />
      <path
         sodipodi:nodetypes="czzccccccccccccccczczczzcczzzzczcczzzczzcccczzzzczczzzzzzcccczczccccccccccccccccccccccccccccc"
         style="fill:#000000;fill-opacity:1"
         d="M 165.2828,378.39562 C 160.70841,378.35622 159.97018,377.8016 155.99155,377.20246 C 152.01293,376.60333 145.96421,376.1142 141.27676,375.8853 C 136.5893,375.65639 132.32942,375.92921 127.90087,376.39741 C 126.18494,375.21909 130.19403,375.51384 128.43384,374.26196 C 129.59226,372.03611 131.71742,370.36837 132.5816,368.03885 C 133.88652,366.12884 134.70785,364.03662 135.37663,361.75224 C 135.65062,360.34629 136.64085,358.99367 135.09762,358.40815 C 136.20588,356.09101 139.45122,355.768 140.29762,353.15667 C 140.69931,350.82576 143.78045,350.53095 144.6837,350.90933 C 146.02542,345.52495 146.97741,338.80103 151.5523,335.15233 C 154.02548,333.6764 157.03898,332.77856 159.51807,334.63735 C 161.88154,335.95542 163.17675,338.72738 164.10936,341.24406 C 164.39589,342.82497 164.84939,344.21162 165.15178,341.76753 C 165.81417,339.02875 165.9994,335.49836 168.90844,334.14154 C 171.47105,332.5158 174.2457,333.32198 176.30953,335.16544 C 178.41386,336.90256 179.273,339.50778 179.99478,342.07852 C 180.93118,344.86131 180.96239,347.85868 181.47749,350.74533 C 181.27025,351.98129 181.97078,353.94078 180.37693,355.68442 C 178.78308,357.42808 175.03895,358.04597 171.81256,357.11628 C 169.29145,356.79474 166.75958,354.8547 165.78034,352.93145 C 164.80107,351.00823 164.61375,346.52573 164.09626,350.93098 C 163.26126,354.78973 160.42317,359.4351 156.41325,359.70166 C 152.40332,359.96822 147.46255,358.64454 146.14952,355.94167 C 144.83649,353.23879 144.17197,349.70097 142.07179,353.24342 C 141.50399,355.24452 137.45364,356.97147 138.03444,358.34561 C 140.42633,359.85561 142.11413,361.42752 144.79048,362.87255 C 147.46686,364.31758 149.30285,365.1982 153.90341,365.80443 C 158.50399,366.41066 167.51672,367.04423 172.04264,366.31404 C 176.56855,365.58384 178.44353,365.34139 180.93379,363.79421 C 183.42404,362.24703 185.29392,360.28394 186.52681,357.74299 C 189.50537,355.0672 188.2808,353.11083 185.63449,352.55569 C 182.98818,352.00055 181.27311,351.1151 182.43245,349.81975 C 185.1679,348.94734 186.2791,352.78181 189.03586,351.80441 C 192.98811,351.48042 188.40232,355.82641 189.66331,358.28362 C 190.96748,360.82498 191.84625,363.92474 192.80187,366.44666 C 193.7575,368.96857 195.84016,370.73651 196.14862,372.6696 C 196.45708,374.60266 202.27833,375.44929 198.6946,376.38678 C 193.671,377.31645 188.87415,377.0216 183.32396,377.59912 C 177.77377,378.17665 169.85718,378.43503 165.2828,378.39562 z M 176.56813,376.85147 C 179.90738,376.57677 189.94043,375.99962 196.60283,375.30013 C 196.37483,374.1236 193.83808,371.80098 193.28542,369.8269 C 190.84931,366.71692 190.12991,362.66421 188.53429,359.10818 C 187.62722,356.28342 186.09391,360.40048 184.54305,362.06381 C 182.99219,363.72714 180.48282,365.50038 176.79799,366.43705 C 173.11316,367.37371 168.26808,368.42368 162.99181,367.89409 C 157.71556,367.36451 149.2885,366.63789 145.30622,364.52984 C 141.32395,362.42178 140.16929,361.71054 137.94021,359.76837 C 136.08131,361.36412 135.89755,365.49978 134.43798,367.55937 C 132.97843,369.61896 132.24036,371.65939 130.58039,373.18323 C 127.68175,376.31579 132.74788,374.60836 135.40251,374.67538 C 138.05716,374.74241 141.78454,374.64538 146.06537,375.01192 C 150.3462,375.37847 156.10542,375.89229 161.03341,376.71413 C 165.96137,377.53598 170.97435,377.2386 175.91618,376.89657 C 175.91618,376.89657 176.49988,376.78109 176.56813,376.85145 C 176.63638,376.92182 173.22888,377.12617 176.56813,376.85147 z M 162.89998,351.34212 C 163.67921,350.17872 163.81814,346.55562 162.60504,349.52834 C 159.22606,352.37039 157.81502,346.36211 159.17725,344.00052 C 159.4992,340.69089 163.40658,341.7169 163.13212,344.74208 C 165.48666,343.19674 161.53716,334.5598 156.12348,334.72501 C 150.70979,334.89021 149.32192,339.1313 147.22228,345.99099 C 146.51082,348.80614 145.41325,351.79846 146.82209,354.6447 C 148.23091,357.49094 150.93723,358.48482 153.64294,358.65936 C 158.42237,359.37929 161.78234,355.71397 162.89998,351.34212 z M 176.06886,356.24771 C 179.67802,356.03186 181.38179,353.08328 180.38018,349.74799 C 180.2719,346.98106 179.7797,344.204 178.96613,341.59024 C 178.46539,338.80767 176.8215,335.96979 174.11113,334.75445 C 171.93626,332.94133 168.7184,334.99048 167.41404,336.96273 C 166.63582,339.7625 165.72385,342.61342 165.73901,345.59366 C 165.21312,348.34098 166.11831,351.45635 167.73138,353.84363 C 169.58784,355.94716 173.34351,356.63583 176.06886,356.24771 z M 167.29304,350.30688 C 165.08509,348.67261 165.83928,344.54147 167.39124,342.56559 C 171.08804,340.40291 173.2998,346.1514 171.13401,348.68949 C 170.33752,349.95519 168.8829,350.96246 167.29304,350.30688 z M 168.6887,346.60226 C 169.86499,344.83011 166.43257,342.99684 167.46772,345.99099 C 167.91893,346.20968 168.07718,347.5049 168.6887,346.60226 z M 160.29845,348.62422 C 159.83041,347.89201 159.83056,349.35652 160.29845,348.62422 z M 160.37237,347.01013 C 160.72688,345.95655 162.43519,342.23947 160.15153,344.37258 C 159.85947,344.6089 159.71088,348.0879 160.37237,347.01013 z M 148.563,332.71538 C 148.91162,330.62295 154.95324,328.00714 155.64633,331.01917 C 153.09705,330.65249 150.65421,332.91718 148.563,332.71538 z M 176.6618,331.7499 C 174.85317,330.42171 171.99617,331.0226 170.38649,330.29283 C 172.25713,328.31498 175.52396,329.90966 177.63056,330.91439 C 179.31798,331.53021 177.25462,332.16763 176.6618,331.7499 z"
         id="path5859" />
      <path
         style="fill:url(#radialGradient5893);fill-opacity:1;fill-rule:evenodd;stroke:#000000;stroke-width:0.18808889px;stroke-linecap:butt;stroke-linejoin:miter;stroke-opacity:1"
         d="M 187.57872,356.28184 C 187.57872,356.28184 186.20252,359.98699 185.67321,360.19872 C 185.14391,360.41043 182.49737,363.58628 182.49737,363.58628 L 175.72225,366.55039 L 166.19473,367.71487 L 156.87894,366.65626 L 149.15108,365.80936 L 143.75214,363.48042 L 139.83528,360.30458 L 137.08288,358.6108 L 136.13014,360.83388 L 134.64807,364.96247 L 133.37774,367.71487 L 131.36637,371.2083 L 129.14329,373.96068 L 129.35501,375.23101 L 130.41363,375.23101 L 136.87117,375.23101 L 146.18695,375.86619 L 156.77308,376.71308 L 164.07751,377.7717 L 171.59366,377.55996 L 185.14391,376.71308 L 197.31795,375.65445 L 197.42382,374.91344 L 196.25934,373.96068 L 194.24798,370.25553 L 191.07214,364.6449 L 188.84905,358.29321 L 187.57872,356.28184 z"
         id="path5861" />
      <path
         id="path5863"
         d="M 187.57872,356.28184 C 187.57872,356.28184 186.20252,359.98699 185.67321,360.19872 C 185.14391,360.41043 182.49737,363.58628 182.49737,363.58628 L 175.72225,366.55039 L 166.19473,367.71487 L 156.87894,366.65626 L 149.15108,365.80936 L 143.75214,363.48042 L 139.83528,360.30458 L 137.08288,358.6108 L 136.13014,360.83388 L 134.64807,364.96247 L 133.37774,367.71487 L 131.36637,371.2083 L 129.14329,373.96068 L 129.35501,375.23101 L 130.41363,375.23101 L 136.87117,375.23101 L 146.18695,375.86619 L 156.77308,376.71308 L 164.07751,377.7717 L 171.59366,377.55996 L 185.14391,376.71308 L 197.31795,375.65445 L 197.42382,374.91344 L 196.25934,373.96068 L 194.24798,370.25553 L 191.07214,364.6449 L 188.84905,358.29321 L 187.57872,356.28184 z"
         style="fill:url(#radialGradient5895);fill-opacity:1;fill-rule:evenodd;stroke:#000000;stroke-width:0.18808889px;stroke-linecap:butt;stroke-linejoin:miter;stroke-opacity:1" />
      <path
         sodipodi:nodetypes="ccssssccc"
         id="path5865"
         d="M 149.48231,365.59944 C 151.06759,365.59944 156.14968,367.72116 156.14968,367.72116 C 156.14968,367.72116 158.13127,369.50459 158.92391,370.69355 C 159.71655,371.88251 159.51839,371.88251 161.10366,372.08066 C 162.68894,372.27882 163.8779,371.88251 165.06685,371.48619 C 166.25581,371.08987 166.45397,369.90091 167.64293,368.71195 C 168.83188,367.523 169.43632,367.15072 169.43632,367.15072 L 162.29262,367.32484 L 149.48231,365.59944 z"
         style="fill:#e6e6e6;fill-rule:evenodd;stroke:#000000;stroke-width:1px;stroke-linecap:butt;stroke-linejoin:miter;stroke-opacity:1" />
      <path
         id="path5867"
         d="M 162.32854,368.62451 C 160.49061,369.06088 158.83646,370.36996 158.83646,370.36996 L 160.49061,371.96996 L 162.51234,371.96996 L 166.0044,371.24268 L 166.73958,369.78815 L 165.63682,369.49723 L 164.53405,368.62451 L 162.32854,368.62451 z"
         style="fill:#d40000;fill-rule:evenodd;stroke:#000000;stroke-width:0.82511151px;stroke-linecap:butt;stroke-linejoin:miter;stroke-opacity:1" />
      <path
         style="fill:url(#linearGradient5897);fill-opacity:1;fill-rule:evenodd;stroke:#000000;stroke-width:0.82511151px;stroke-linecap:butt;stroke-linejoin:miter;stroke-opacity:1"
         d="M 162.32854,368.62451 C 160.49061,369.06088 158.83646,370.36996 158.83646,370.36996 L 160.49061,371.96996 L 162.51234,371.96996 L 166.0044,371.24268 L 166.73958,369.78815 L 165.63682,369.49723 L 164.53405,368.62451 L 162.32854,368.62451 z"
         id="path5869" />
      <path
         id="path5871"
         d="M 162.81934,368.43687 C 162.81934,369.69795 162.39898,369.97819 162.39898,369.97819"
         style="fill:none;fill-rule:evenodd;stroke:#000000;stroke-width:1px;stroke-linecap:butt;stroke-linejoin:miter;stroke-opacity:1" />
    </g>
  </g>
</svg>
