<?xml version="1.0" encoding="UTF-8" standalone="no"?>
<!-- Created with Inkscape (http://www.inkscape.org/) -->
<svg
   xmlns:dc="http://purl.org/dc/elements/1.1/"
   xmlns:cc="http://creativecommons.org/ns#"
   xmlns:rdf="http://www.w3.org/1999/02/22-rdf-syntax-ns#"
   xmlns:svg="http://www.w3.org/2000/svg"
   xmlns="http://www.w3.org/2000/svg"
   xmlns:xlink="http://www.w3.org/1999/xlink"
   xmlns:sodipodi="http://sodipodi.sourceforge.net/DTD/sodipodi-0.dtd"
   xmlns:inkscape="http://www.inkscape.org/namespaces/inkscape"
   width="87.602371"
   height="53.37492"
   id="svg4762"
   sodipodi:version="0.32"
   inkscape:version="0.46"
   version="1.0"
   sodipodi:docname="tastentierchen_pingu.svg"
   inkscape:output_extension="org.inkscape.output.svg.inkscape"
   inkscape:export-filename="/home/nepomuk/projekte/neo/svn/svn.neo-layout.org/www/tastentierchen_pingu.png"
   inkscape:export-xdpi="62.388851"
   inkscape:export-ydpi="62.388851">
  <defs
     id="defs4764">
    <linearGradient
       id="linearGradient5607">
      <stop
         style="stop-color:#484848;stop-opacity:1;"
         offset="0"
         id="stop5609" />
      <stop
         style="stop-color:#959595;stop-opacity:1;"
         offset="1"
         id="stop5611" />
    </linearGradient>
    <linearGradient
       inkscape:collect="always"
       xlink:href="#linearGradient5607"
       id="linearGradient6511"
       gradientUnits="userSpaceOnUse"
       x1="162.78802"
       y1="365.9147"
       x2="162.78802"
       y2="372.38251"
       gradientTransform="translate(200,0)" />
    <radialGradient
       inkscape:collect="always"
       xlink:href="#linearGradient3415"
       id="radialGradient6509"
       gradientUnits="userSpaceOnUse"
       gradientTransform="matrix(4.3386401e-3,9.6493668e-2,-0.1481891,6.6630194e-3,952.33826,358.80325)"
       cx="-383.17914"
       cy="3897.1636"
       fx="-383.17914"
       fy="3897.1636"
       r="182.01132" />
    <linearGradient
       id="linearGradient3415">
      <stop
         style="stop-color:#000000;stop-opacity:1;"
         offset="0"
         id="stop3417" />
      <stop
         style="stop-color:#000000;stop-opacity:0;"
         offset="1"
         id="stop3419" />
    </linearGradient>
    <radialGradient
       inkscape:collect="always"
       xlink:href="#linearGradient3415"
       id="radialGradient6507"
       gradientUnits="userSpaceOnUse"
       gradientTransform="matrix(4.3386401e-3,9.6493668e-2,-0.1481891,6.6630194e-3,952.33826,358.80325)"
       cx="-315.02106"
       cy="3970.6899"
       fx="-315.02106"
       fy="3970.6899"
       r="182.01132" />
    <linearGradient
       inkscape:collect="always"
       id="linearGradient3607">
      <stop
         style="stop-color:#ffffff;stop-opacity:1;"
         offset="0"
         id="stop3609" />
      <stop
         style="stop-color:#ffffff;stop-opacity:0;"
         offset="1"
         id="stop3611" />
    </linearGradient>
    <linearGradient
       inkscape:collect="always"
       xlink:href="#linearGradient3607"
       id="linearGradient6505"
       gradientUnits="userSpaceOnUse"
       gradientTransform="matrix(0.1880889,0,0,0.1880889,386.93069,-487.64324)"
       x1="-384.76523"
       y1="4644.0273"
       x2="-240.72159"
       y2="4520.7471" />
    <linearGradient
       inkscape:collect="always"
       id="linearGradient3597">
      <stop
         style="stop-color:#ffffff;stop-opacity:1;"
         offset="0"
         id="stop3599" />
      <stop
         style="stop-color:#ffffff;stop-opacity:0;"
         offset="1"
         id="stop3601" />
    </linearGradient>
    <linearGradient
       inkscape:collect="always"
       xlink:href="#linearGradient3597"
       id="linearGradient6503"
       gradientUnits="userSpaceOnUse"
       gradientTransform="matrix(0.1880889,0,0,0.1880889,386.93069,-487.64321)"
       x1="-97.154755"
       y1="4576.6812"
       x2="-116.1433"
       y2="4456.4487" />
    <linearGradient
       id="linearGradient3381"
       inkscape:collect="always">
      <stop
         id="stop3383"
         offset="0"
         style="stop-color:#ffffff;stop-opacity:1" />
      <stop
         id="stop3385"
         offset="1"
         style="stop-color:#e6e6e6;stop-opacity:0;" />
    </linearGradient>
    <linearGradient
       inkscape:collect="always"
       xlink:href="#linearGradient3381"
       id="linearGradient6501"
       gradientUnits="userSpaceOnUse"
       gradientTransform="matrix(0.1880889,0,0,0.1880889,417.18239,-415.79543)"
       x1="-267.06039"
       y1="4017.0872"
       x2="-235.06189"
       y2="4056.6892" />
    <linearGradient
       id="linearGradient3371"
       inkscape:collect="always">
      <stop
         id="stop3373"
         offset="0"
         style="stop-color:#ffffff;stop-opacity:1" />
      <stop
         id="stop3375"
         offset="1"
         style="stop-color:#ececec;stop-opacity:0;" />
    </linearGradient>
    <linearGradient
       inkscape:collect="always"
       xlink:href="#linearGradient3371"
       id="linearGradient6499"
       gradientUnits="userSpaceOnUse"
       gradientTransform="matrix(0.1880889,0,0,0.1880889,417.18239,-415.79543)"
       x1="-378.25092"
       y1="3996.2708"
       x2="-318.20984"
       y2="4065.8281" />
    <linearGradient
       inkscape:collect="always"
       id="linearGradient3359">
      <stop
         style="stop-color:#cccccc;stop-opacity:1"
         offset="0"
         id="stop3361" />
      <stop
         style="stop-color:#ececec;stop-opacity:0;"
         offset="1"
         id="stop3363" />
    </linearGradient>
    <linearGradient
       inkscape:collect="always"
       xlink:href="#linearGradient3359"
       id="linearGradient6497"
       gradientUnits="userSpaceOnUse"
       gradientTransform="matrix(0.1880889,0,0,0.1880889,417.18239,-415.79543)"
       x1="-290.92319"
       y1="4104.415"
       x2="-331.41055"
       y2="4060.2432" />
    <linearGradient
       inkscape:collect="always"
       id="linearGradient3349">
      <stop
         style="stop-color:#e6e6e6;stop-opacity:1;"
         offset="0"
         id="stop3351" />
      <stop
         style="stop-color:#e6e6e6;stop-opacity:0;"
         offset="1"
         id="stop3353" />
    </linearGradient>
    <linearGradient
       inkscape:collect="always"
       xlink:href="#linearGradient3349"
       id="linearGradient6495"
       gradientUnits="userSpaceOnUse"
       gradientTransform="matrix(0.1880889,0,0,0.1880889,417.18239,-415.79543)"
       x1="-193.44109"
       y1="4072.9363"
       x2="-232.02776"
       y2="4054.6584" />
    <linearGradient
       inkscape:collect="always"
       id="linearGradient3425">
      <stop
         style="stop-color:#f9f9f9;stop-opacity:1;"
         offset="0"
         id="stop3427" />
      <stop
         style="stop-color:#f9f9f9;stop-opacity:0;"
         offset="1"
         id="stop3429" />
    </linearGradient>
    <linearGradient
       inkscape:collect="always"
       xlink:href="#linearGradient3425"
       id="linearGradient6493"
       gradientUnits="userSpaceOnUse"
       gradientTransform="matrix(0.1880889,0,0,0.1880889,417.18239,-415.79543)"
       spreadMethod="reflect"
       x1="-285.84601"
       y1="4192.2505"
       x2="-289.90775"
       y2="4124.2158" />
    <radialGradient
       inkscape:collect="always"
       xlink:href="#linearGradient3399"
       id="radialGradient6491"
       gradientUnits="userSpaceOnUse"
       gradientTransform="matrix(1.6048082e-2,9.0554532e-2,-0.1793599,3.1782527e-2,1056.4185,250.85467)"
       cx="-248.95627"
       cy="3885.6602"
       fx="-248.95627"
       fy="3885.6602"
       r="140.29561" />
    <radialGradient
       inkscape:collect="always"
       xlink:href="#linearGradient3399"
       id="radialGradient6489"
       gradientUnits="userSpaceOnUse"
       gradientTransform="matrix(8.1627261e-3,7.6309939e-2,-9.8386948e-2,1.052337e-2,740.96593,329.38605)"
       cx="-199.24757"
       cy="3702.4329"
       fx="-199.24757"
       fy="3702.4329"
       r="140.29561" />
    <linearGradient
       inkscape:collect="always"
       id="linearGradient3399">
      <stop
         style="stop-color:#4d4d4d;stop-opacity:1"
         offset="0"
         id="stop3401" />
      <stop
         style="stop-color:#ececec;stop-opacity:0;"
         offset="1"
         id="stop3403" />
    </linearGradient>
    <radialGradient
       inkscape:collect="always"
       xlink:href="#linearGradient3399"
       id="radialGradient6487"
       gradientUnits="userSpaceOnUse"
       gradientTransform="matrix(4.6632815e-3,0.1549835,-0.288364,8.6613063e-3,1445.5357,351.78628)"
       cx="-258.57077"
       cy="3747.105"
       fx="-258.57077"
       fy="3747.105"
       r="140.29561" />
    <inkscape:perspective
       sodipodi:type="inkscape:persp3d"
       inkscape:vp_x="0 : 526.18109 : 1"
       inkscape:vp_y="0 : 1000 : 0"
       inkscape:vp_z="744.09448 : 526.18109 : 1"
       inkscape:persp3d-origin="372.04724 : 350.78739 : 1"
       id="perspective4770" />
    <linearGradient
       inkscape:collect="always"
       xlink:href="#linearGradient5607"
       id="linearGradient3250"
       x1="59.791431"
       y1="29.176893"
       x2="86.21405"
       y2="29.176893"
       gradientUnits="userSpaceOnUse" />
  </defs>
  <sodipodi:namedview
     id="base"
     pagecolor="#ffffff"
     bordercolor="#666666"
     borderopacity="1.0"
     inkscape:pageopacity="0.0"
     inkscape:pageshadow="2"
     inkscape:zoom="13.059007"
     inkscape:cx="43.801186"
     inkscape:cy="26.68746"
     inkscape:document-units="px"
     inkscape:current-layer="layer3"
     showgrid="false"
     inkscape:window-width="1278"
     inkscape:window-height="989"
     inkscape:window-x="0"
     inkscape:window-y="1" />
  <metadata
     id="metadata4767">
    <rdf:RDF>
      <cc:Work
         rdf:about="">
        <dc:format>image/svg+xml</dc:format>
        <dc:type
           rdf:resource="http://purl.org/dc/dcmitype/StillImage" />
      </cc:Work>
    </rdf:RDF>
  </metadata>
  <g
     inkscape:label="tastentier"
     inkscape:groupmode="layer"
     id="layer1"
     transform="translate(-51.579246,-34.246155)"
     style="display:inline">
    <g
       id="g6531"
       transform="matrix(0.9948625,0.1012352,-0.1012352,0.9948625,-236.14866,-328.10879)">
      <path
         style="opacity:0.70800015;fill:#333333;fill-opacity:1;stroke:none;stroke-width:14.60000038;stroke-linejoin:bevel;stroke-miterlimit:4;stroke-dasharray:none;stroke-opacity:1"
         id="path6425"
         d="M 397.01648,377.47711 C 392.64764,377.36939 388.27672,377.38959 383.90675,377.3724 C 378.98021,377.39366 374.05366,377.37955 369.12713,377.38715 C 364.34298,377.38677 359.55892,377.37707 354.77482,377.4022 C 351.18688,377.4173 347.59889,377.42702 344.01093,377.4403 C 340.82525,377.45764 337.63974,377.42604 334.45402,377.42962 C 333.99523,377.4372 333.52764,377.36971 333.07764,377.45238 C 332.84392,377.49532 332.67043,377.68059 332.4668,377.7947 C 337.93321,374.49101 343.31643,371.06742 348.86605,367.88364 C 348.92302,367.85097 351.69165,368.14145 351.8675,368.15417 C 354.85017,368.30962 357.8393,368.28985 360.82547,368.28141 C 365.2689,368.30908 369.71252,368.33516 374.15607,368.32958 L 385.32844,377.31289 C 382.54724,377.81642 379.75883,378.27275 376.92363,378.43663 C 370.90001,378.63959 364.87031,378.51013 358.84358,378.58072 C 354.33537,378.58176 349.82722,378.62039 345.31922,378.65857 C 342.27788,378.64499 339.22715,378.6632 336.19634,378.40418 C 336.14723,378.3979 332.17854,377.89527 332.61378,377.55784 C 347.34409,366.13798 341.77841,366.8989 349.91984,367.07758 C 353.1162,367.08117 356.31236,367.04956 359.5087,367.06688 C 363.05873,367.08016 366.60876,367.08988 370.15875,367.10499 L 397.01648,377.47711 z"
         sodipodi:nodetypes="ccccccscsccccccccscccc" />
      <path
         sodipodi:nodetypes="ccccccscsccccccccscccc"
         d="M 398.14417,376.14106 C 393.77411,376.11068 389.40423,376.20826 385.03465,376.26843 C 380.10925,376.3769 375.18323,376.45001 370.25761,376.54481 C 365.4742,376.62913 360.25977,378.34143 355.47687,378.45126 C 351.88976,378.52986 348.30251,378.6031 344.71533,378.6799 C 341.53046,378.75363 338.34489,378.77844 335.15974,378.8384 C 335.7505,381.33671 333.87682,378.43751 333.78398,378.88552 C 333.35737,380.94414 333.38085,379.12091 333.17929,379.2386 C 338.58638,375.83866 344.33907,370.683 349.83145,367.40147 C 349.88784,367.3678 352.66117,367.60923 352.83723,367.61883 C 355.8222,367.72145 358.8105,367.64877 361.79605,367.58747 C 366.23927,367.53646 370.68266,367.48389 375.12541,367.39965 L 386.45505,376.18377 C 383.6832,376.73645 380.90331,377.24208 378.07146,377.45612 C 372.05238,377.76568 365.5904,379.3803 359.56585,379.55756 C 355.05838,379.6384 350.55162,379.75684 346.04499,379.87483 C 343.00387,379.91508 339.95396,379.98729 336.91905,379.78197 C 336.86984,379.77655 332.89285,379.34427 333.32205,378.99918 C 347.8479,367.32034 342.72751,366.54236 350.87079,366.57689 C 354.06673,366.5239 357.26185,366.43571 360.45799,366.39644 C 364.00769,366.34688 367.55733,366.29376 371.10704,366.246 L 398.14417,376.14106 z"
         id="path6427"
         style="fill:#000000;fill-opacity:1;stroke:none;stroke-width:14.60000038;stroke-linejoin:bevel;stroke-miterlimit:4;stroke-dasharray:none;stroke-opacity:1" />
      <path
         id="path6429"
         d="M 362.26859,350.61789 C 364.56049,350.7134 365.33366,350.93547 366.00213,350.74447 C 366.67062,350.55348 368.00755,350.83998 368.00755,350.83998"
         style="fill:none;fill-rule:evenodd;stroke:#000000;stroke-width:1.26019549;stroke-linecap:butt;stroke-linejoin:miter;stroke-miterlimit:4;stroke-dasharray:none;stroke-opacity:1"
         sodipodi:nodetypes="csc" />
      <path
         style="fill:#cccccc;fill-rule:evenodd;stroke:none;stroke-width:1px;stroke-linecap:butt;stroke-linejoin:miter;stroke-opacity:1"
         d="M 344.91662,351.62395 L 341.84665,351.62395 L 341.21147,354.16462 L 336.44772,357.76391 L 338.45907,359.56354 L 344.17558,363.16283 L 348.83349,365.28005 L 356.13792,366.65626 L 367.78266,367.50315 L 376.25156,366.02109 L 380.90946,364.32731 L 383.76771,362.21009 L 386.5201,358.6108 L 388.63733,357.12873 C 388.63733,357.12873 389.8018,353.74118 388.84905,353.31773 C 387.8963,352.89429 382.28565,350.56533 382.28565,350.56533 L 380.48601,350.88292 L 344.91662,351.62395 z"
         id="path6431" />
      <path
         id="path6433"
         d="M 344.91662,351.62395 L 341.84665,351.62395 L 341.21147,354.16462 L 336.44772,357.76391 L 338.45907,359.56354 L 344.17558,363.16283 L 348.83349,365.28005 L 356.13792,366.65626 L 367.78266,367.50315 L 376.25156,366.02109 L 380.90946,364.32731 L 383.76771,362.21009 L 386.5201,358.6108 L 388.63733,357.12873 C 388.63733,357.12873 389.8018,353.74118 388.84905,353.31773 C 387.8963,352.89429 382.28565,350.56533 382.28565,350.56533 L 380.48601,350.88292 L 344.91662,351.62395 z"
         style="fill:url(#radialGradient6487);fill-opacity:1;fill-rule:evenodd;stroke:none;stroke-width:1px;stroke-linecap:butt;stroke-linejoin:miter;stroke-opacity:1" />
      <path
         style="fill:url(#radialGradient6489);fill-opacity:1;fill-rule:evenodd;stroke:none;stroke-width:1px;stroke-linecap:butt;stroke-linejoin:miter;stroke-opacity:1"
         d="M 344.91662,351.62395 L 341.84665,351.62395 L 341.21147,354.16462 L 336.44772,357.76391 L 338.45907,359.56354 L 344.17558,363.16283 L 348.83349,365.28005 L 356.13792,366.65626 L 367.78266,367.50315 L 376.25156,366.02109 L 380.90946,364.32731 L 383.76771,362.21009 L 386.5201,358.6108 L 388.63733,357.12873 C 388.63733,357.12873 389.8018,353.74118 388.84905,353.31773 C 387.8963,352.89429 382.28565,350.56533 382.28565,350.56533 L 380.48601,350.88292 L 344.91662,351.62395 z"
         id="path6435" />
      <path
         id="path6437"
         d="M 344.91662,351.62395 L 341.84665,351.62395 L 341.21147,354.16462 L 336.44772,357.76391 L 338.45907,359.56354 L 344.17558,363.16283 L 348.83349,365.28005 L 356.13792,366.65626 L 367.78266,367.50315 L 376.25156,366.02109 L 380.90946,364.32731 L 383.76771,362.21009 L 386.5201,358.6108 L 388.63733,357.12873 C 388.63733,357.12873 389.8018,353.74118 388.84905,353.31773 C 387.8963,352.89429 382.28565,350.56533 382.28565,350.56533 L 380.48601,350.88292 L 344.91662,351.62395 z"
         style="fill:url(#radialGradient6491);fill-opacity:1;fill-rule:evenodd;stroke:none;stroke-width:1px;stroke-linecap:butt;stroke-linejoin:miter;stroke-opacity:1" />
      <path
         style="fill:#f9f9f9;fill-rule:evenodd;stroke:#000000;stroke-width:0.18808889px;stroke-linecap:butt;stroke-linejoin:miter;stroke-opacity:1"
         d="M 370.00574,334.15684 L 366.93577,336.37993 L 365.34785,341.99057 L 364.81854,347.49537 L 365.98302,352.0474 L 368.31196,355.22324 L 374.66364,357.23461 L 379.53326,355.54081 L 381.12118,353.74118 L 380.69773,349.71844 L 380.69773,345.16641 L 378.89809,339.76749 L 377.20431,336.37993 L 374.13433,334.26271 L 371.06436,333.83927 L 370.00574,334.15684 z"
         id="path6439" />
      <path
         style="fill:#f2f2f2;fill-rule:evenodd;stroke:#000000;stroke-width:0.18808889px;stroke-linecap:butt;stroke-linejoin:miter;stroke-opacity:1"
         d="M 364.18337,343.47263 L 363.86578,341.14368 L 362.06615,337.75612 L 359.52548,334.89787 L 358.361,334.15684 L 353.27967,334.79201 L 350.10382,336.59165 L 347.77487,342.30816 L 345.55179,347.91881 C 345.55179,347.91881 345.34006,351.30637 345.02247,351.72981 C 344.7049,352.15326 346.39868,355.01151 346.39868,355.01151 L 347.88073,357.44632 L 352.85622,359.24596 L 357.93756,359.03424 L 361.6427,355.54081 L 363.65407,349.8243 L 364.71267,345.27227 L 364.07751,342.62574 L 364.18337,343.47263 z"
         id="path6441" />
      <path
         style="fill:#b3b3b3;fill-rule:evenodd;stroke:#000000;stroke-width:0.18808889px;stroke-linecap:butt;stroke-linejoin:miter;stroke-opacity:1"
         d="M 387.57872,356.28184 C 387.57872,356.28184 386.20252,359.98699 385.67321,360.19872 C 385.14391,360.41043 382.49737,363.58628 382.49737,363.58628 L 375.72225,366.55039 L 366.19473,367.71487 L 356.87894,366.65626 L 349.15108,365.80936 L 343.75214,363.48042 L 339.83528,360.30458 L 337.08288,358.6108 L 336.13014,360.83388 L 334.64807,364.96247 L 333.37774,367.71487 L 331.36637,371.2083 L 329.14329,373.96068 L 329.35501,375.23101 L 330.41363,375.23101 L 336.87117,375.23101 L 346.18695,375.86619 L 356.77308,376.71308 L 364.07751,377.7717 L 371.59366,377.55996 L 385.14391,376.71308 L 397.31795,375.65445 L 397.42382,374.91344 L 396.25934,373.96068 L 394.24798,370.25553 L 391.07214,364.6449 L 388.84905,358.29321 L 387.57872,356.28184 z"
         id="path6443" />
      <path
         style="opacity:0.47000008;fill:url(#linearGradient6493);fill-opacity:1;fill-rule:evenodd;stroke:#000000;stroke-width:0.18808889px;stroke-linecap:butt;stroke-linejoin:miter;stroke-opacity:1"
         d="M 387.57872,356.28184 C 387.57872,356.28184 386.20252,359.98699 385.67321,360.19872 C 385.14391,360.41043 382.49737,363.58628 382.49737,363.58628 L 375.72225,366.55039 L 366.19473,367.71487 L 356.87894,366.65626 L 349.15108,365.80936 L 343.75214,363.48042 L 339.83528,360.30458 L 337.08288,358.6108 L 336.13014,360.83388 L 334.64807,364.96247 L 333.37774,367.71487 L 331.36637,371.2083 L 329.14329,373.96068 L 329.35501,375.23101 L 330.41363,375.23101 L 336.87117,375.23101 L 346.18695,375.86619 L 356.77308,376.71308 L 364.07751,377.7717 L 371.59366,377.55996 L 385.14391,376.71308 L 397.31795,375.65445 L 397.42382,374.91344 L 396.25934,373.96068 L 394.24798,370.25553 L 391.07214,364.6449 L 388.84905,358.29321 L 387.57872,356.28184 z"
         id="path6445" />
      <path
         id="path6447"
         d="M 370.00574,334.15684 L 366.93577,336.37993 L 365.34785,341.99057 L 364.81854,347.49537 L 365.98302,352.0474 L 368.31196,355.22324 L 374.66364,357.23461 L 379.53326,355.54081 L 381.12118,353.74118 L 380.69773,349.71844 L 380.69773,345.16641 L 378.89809,339.76749 L 377.20431,336.37993 L 374.13433,334.26271 L 371.06436,333.83927 L 370.00574,334.15684 z"
         style="fill:url(#linearGradient6495);fill-opacity:1;fill-rule:evenodd;stroke:#000000;stroke-width:0.18808889px;stroke-linecap:butt;stroke-linejoin:miter;stroke-opacity:1" />
      <path
         id="path6449"
         d="M 364.18337,343.47263 L 363.86578,341.14368 L 362.06615,337.75612 L 359.52548,334.89787 L 358.361,334.15684 L 353.27967,334.79201 L 350.10382,336.59165 L 347.77487,342.30816 L 345.55179,347.91881 C 345.55179,347.91881 345.34006,351.30637 345.02247,351.72981 C 344.7049,352.15326 346.39868,355.01151 346.39868,355.01151 L 347.88073,357.44632 L 352.85622,359.24596 L 357.93756,359.03424 L 361.6427,355.54081 L 363.65407,349.8243 L 364.71267,345.27227 L 364.07751,342.62574 L 364.18337,343.47263 z"
         style="fill:url(#linearGradient6497);fill-opacity:1;fill-rule:evenodd;stroke:#000000;stroke-width:0.18808889px;stroke-linecap:butt;stroke-linejoin:miter;stroke-opacity:1" />
      <path
         style="fill:url(#linearGradient6499);fill-opacity:1;fill-rule:evenodd;stroke:#000000;stroke-width:0.18808889px;stroke-linecap:butt;stroke-linejoin:miter;stroke-opacity:1"
         d="M 364.18337,343.47263 L 363.86578,341.14368 L 362.06615,337.75612 L 359.52548,334.89787 L 358.361,334.15684 L 353.27967,334.79201 L 350.10382,336.59165 L 347.77487,342.30816 L 345.55179,347.91881 C 345.55179,347.91881 345.34006,351.30637 345.02247,351.72981 C 344.7049,352.15326 346.39868,355.01151 346.39868,355.01151 L 347.88073,357.44632 L 352.85622,359.24596 L 357.93756,359.03424 L 361.6427,355.54081 L 363.65407,349.8243 L 364.71267,345.27227 L 364.07751,342.62574 L 364.18337,343.47263 z"
         id="path6451" />
      <path
         style="fill:url(#linearGradient6501);fill-opacity:1;fill-rule:evenodd;stroke:#000000;stroke-width:0.18808889px;stroke-linecap:butt;stroke-linejoin:miter;stroke-opacity:1"
         d="M 370.00574,334.15684 L 366.93577,336.37993 L 365.34785,341.99057 L 364.81854,347.49537 L 365.98302,352.0474 L 368.31196,355.22324 L 374.66364,357.23461 L 379.53326,355.54081 L 381.12118,353.74118 L 380.69773,349.71844 L 380.69773,345.16641 L 378.89809,339.76749 L 377.20431,336.37993 L 374.13433,334.26271 L 371.06436,333.83927 L 370.00574,334.15684 z"
         id="path6453" />
      <path
         style="fill:url(#linearGradient6503);fill-opacity:1;fill-rule:evenodd;stroke:none;stroke-width:1px;stroke-linecap:butt;stroke-linejoin:miter;stroke-opacity:1"
         d="M 344.91662,351.62395 L 341.84665,351.62395 L 341.21147,354.16462 L 336.44772,357.76391 L 338.45907,359.56354 L 344.17558,363.16283 L 348.83349,365.28005 L 356.13792,366.65626 L 367.78266,367.50315 L 376.25156,366.02109 L 380.90946,364.32731 L 383.76771,362.21009 L 386.5201,358.6108 L 388.63733,357.12873 C 388.63733,357.12873 389.8018,353.74118 388.84905,353.31773 C 387.8963,352.89429 382.28565,350.56533 382.28565,350.56533 L 380.48601,350.88292 L 344.91662,351.62395 z"
         id="path6455" />
      <path
         id="path6457"
         d="M 387.57872,356.28184 C 387.57872,356.28184 386.20252,359.98699 385.67321,360.19872 C 385.14391,360.41043 382.49737,363.58628 382.49737,363.58628 L 375.72225,366.55039 L 366.19473,367.71487 L 356.87894,366.65626 L 349.15108,365.80936 L 343.75214,363.48042 L 339.83528,360.30458 L 337.08288,358.6108 L 336.13014,360.83388 L 334.64807,364.96247 L 333.37774,367.71487 L 331.36637,371.2083 L 329.14329,373.96068 L 329.35501,375.23101 L 330.41363,375.23101 L 336.87117,375.23101 L 346.18695,375.86619 L 356.77308,376.71308 L 364.07751,377.7717 L 371.59366,377.55996 L 385.14391,376.71308 L 397.31795,375.65445 L 397.42382,374.91344 L 396.25934,373.96068 L 394.24798,370.25553 L 391.07214,364.6449 L 388.84905,358.29321 L 387.57872,356.28184 z"
         style="fill:url(#linearGradient6505);fill-opacity:1;fill-rule:evenodd;stroke:#000000;stroke-width:0.18808889px;stroke-linecap:butt;stroke-linejoin:miter;stroke-opacity:1" />
      <path
         id="path6459"
         d="M 365.2828,378.39562 C 360.70841,378.35622 359.97018,377.8016 355.99155,377.20246 C 352.01293,376.60333 345.96421,376.1142 341.27676,375.8853 C 336.5893,375.65639 332.32942,375.92921 327.90087,376.39741 C 326.18494,375.21909 330.19403,375.51384 328.43384,374.26196 C 329.59226,372.03611 331.71742,370.36837 332.5816,368.03885 C 333.88652,366.12884 334.70785,364.03662 335.37663,361.75224 C 335.65062,360.34629 336.54055,358.00796 334.99732,357.42244 C 336.10558,355.1053 338.25178,357.6827 340.29762,353.15667 C 340.69931,350.82576 343.78045,350.53095 344.6837,350.90933 C 346.02542,345.52495 346.97741,338.80103 351.5523,335.15233 C 354.02548,333.6764 357.03898,332.77856 359.51807,334.63735 C 361.88154,335.95542 363.17675,338.72738 364.10936,341.24406 C 364.39589,342.82497 364.84939,344.21162 365.15178,341.76753 C 365.81417,339.02875 365.9994,335.49836 368.90844,334.14154 C 371.47105,332.5158 374.2457,333.32198 376.30953,335.16544 C 378.41386,336.90256 379.273,339.50778 379.99478,342.07852 C 380.93118,344.86131 380.96239,347.85868 381.47749,350.74533 C 381.27025,351.98129 381.97078,353.94078 380.37693,355.68442 C 378.78308,357.42808 375.03895,358.04597 371.81256,357.11628 C 369.29145,356.79474 366.75958,354.8547 365.78034,352.93145 C 364.80107,351.00823 364.61375,346.52573 364.09626,350.93098 C 363.26126,354.78973 360.42317,359.4351 356.41325,359.70166 C 352.40332,359.96822 347.46255,358.64454 346.14952,355.94167 C 344.83649,353.23879 344.17197,349.70097 342.07179,353.24342 C 341.50399,355.24452 337.45364,356.97147 338.03444,358.34561 C 340.42633,359.85561 342.11413,361.42752 344.79048,362.87255 C 347.46686,364.31758 349.30285,365.1982 353.90341,365.80443 C 358.50399,366.41066 367.01586,367.65857 371.54178,366.92838 C 376.06769,366.19818 378.06543,364.39396 380.55569,362.84678 C 383.04594,361.2996 385.29392,360.28394 386.52681,357.74299 C 389.50537,355.0672 388.2808,353.11083 385.63449,352.55569 C 382.98818,352.00055 381.27311,351.1151 382.43245,349.81975 C 385.1679,348.94734 386.2791,352.78181 389.03586,351.80441 C 392.98811,351.48042 388.40232,355.82641 389.66331,358.28362 C 390.96748,360.82498 391.84625,363.92474 392.80187,366.44666 C 393.7575,368.96857 395.84016,370.73651 396.14862,372.6696 C 396.45708,374.60266 402.27833,375.44929 398.6946,376.38678 C 393.671,377.31645 388.87415,377.0216 383.32396,377.59912 C 377.77377,378.17665 369.85718,378.43503 365.2828,378.39562 z M 376.56813,376.85147 C 379.90738,376.57677 389.94043,375.99962 396.60283,375.30013 C 396.37483,374.1236 393.83808,371.80098 393.28542,369.8269 C 390.84931,366.71692 390.12991,362.66421 388.53429,359.10818 C 387.62722,356.28342 386.04572,360.29348 384.36109,361.65979 C 382.67646,363.0261 380.1502,364.76182 376.79799,366.43705 C 373.44578,368.11228 368.26808,368.42368 362.99181,367.89409 C 357.71556,367.36451 349.2885,366.63789 345.30622,364.52984 C 341.32395,362.42178 340.16929,361.71054 337.94021,359.76837 C 336.08131,361.36412 335.89755,365.49978 334.43798,367.55937 C 332.97843,369.61896 332.24036,371.65939 330.58039,373.18323 C 327.68175,376.31579 332.74788,374.60836 335.40251,374.67538 C 338.05716,374.74241 341.78454,374.64538 346.06537,375.01192 C 350.3462,375.37847 356.10542,375.89229 361.03341,376.71413 C 365.96137,377.53598 370.97435,377.2386 375.91618,376.89657 C 375.91618,376.89657 376.49988,376.78109 376.56813,376.85145 C 376.63638,376.92182 373.22888,377.12617 376.56813,376.85147 z M 362.89998,351.34212 C 363.67921,350.17872 363.81814,346.55562 362.60504,349.52834 C 359.22606,352.37039 357.58952,347.0822 358.95175,344.72061 C 359.2737,341.41098 363.40658,341.7169 363.13212,344.74208 C 365.48666,343.19674 361.53716,334.5598 356.12348,334.72501 C 350.70979,334.89021 349.32192,339.1313 347.22228,345.99099 C 346.51082,348.80614 345.41325,351.79846 346.82209,354.6447 C 348.23091,357.49094 350.93723,358.48482 353.64294,358.65936 C 358.42237,359.37929 361.78234,355.71397 362.89998,351.34212 z M 376.06886,356.24771 C 379.67802,356.03186 381.38179,353.08328 380.38018,349.74799 C 380.2719,346.98106 379.83988,344.79542 379.02631,342.18166 C 378.52557,339.39909 376.8215,335.96979 374.11113,334.75445 C 371.93626,332.94133 368.7184,334.99048 367.41404,336.96273 C 366.63582,339.7625 365.72385,342.61342 365.73901,345.59366 C 365.21312,348.34098 366.11831,351.45635 367.73138,353.84363 C 369.58784,355.94716 373.34351,356.63583 376.06886,356.24771 z M 375.14544,349.96454 C 372.93749,348.33027 373.69168,344.19913 375.24364,342.22325 C 378.78685,339.93535 380.21895,346.32655 378.98641,348.34715 C 378.18992,349.61285 376.7353,350.62012 375.14544,349.96454 z M 376.5411,346.25992 C 377.71739,344.48777 374.28497,342.6545 375.32012,345.64865 C 375.77133,345.86734 375.92958,347.16256 376.5411,346.25992 z M 360.07295,349.34431 C 359.60491,348.6121 359.60506,350.07661 360.07295,349.34431 z M 360.14687,347.73022 C 360.50138,346.67664 362.20969,342.95956 359.92603,345.09267 C 359.63397,345.32899 359.48538,348.80799 360.14687,347.73022 z M 347.30192,332.29502 C 348.21102,330.34271 354.39276,326.3257 355.08585,329.33773 C 352.53657,328.97105 349.39313,332.49682 347.30192,332.29502 z M 377.78276,331.46966 C 375.97413,330.14147 372.13629,330.04176 370.52661,329.31199 C 372.39725,327.33414 376.64492,329.62942 378.75152,330.63415 C 380.43894,331.24997 378.37558,331.88739 377.78276,331.46966 z"
         style="fill:#000000;fill-opacity:1"
         sodipodi:nodetypes="czzccccccccccccccczczczzcczzzzczcczzzczzcccczzzzczczzzzzzcccczczccccccccccccccccccccccccccccc" />
      <path
         id="path6461"
         d="M 387.57872,356.28184 C 387.57872,356.28184 386.20252,359.98699 385.67321,360.19872 C 385.14391,360.41043 382.49737,363.58628 382.49737,363.58628 L 375.72225,366.55039 L 366.19473,367.71487 L 356.87894,366.65626 L 349.15108,365.80936 L 343.75214,363.48042 L 339.83528,360.30458 L 337.08288,358.6108 L 336.13014,360.83388 L 334.64807,364.96247 L 333.37774,367.71487 L 331.36637,371.2083 L 329.14329,373.96068 L 329.35501,375.23101 L 330.41363,375.23101 L 336.87117,375.23101 L 346.18695,375.86619 L 356.77308,376.71308 L 364.07751,377.7717 L 371.59366,377.55996 L 385.14391,376.71308 L 397.31795,375.65445 L 397.42382,374.91344 L 396.25934,373.96068 L 394.24798,370.25553 L 391.07214,364.6449 L 388.84905,358.29321 L 387.57872,356.28184 z"
         style="fill:url(#radialGradient6507);fill-opacity:1;fill-rule:evenodd;stroke:#000000;stroke-width:0.18808889px;stroke-linecap:butt;stroke-linejoin:miter;stroke-opacity:1" />
      <path
         style="fill:url(#radialGradient6509);fill-opacity:1;fill-rule:evenodd;stroke:#000000;stroke-width:0.18808889px;stroke-linecap:butt;stroke-linejoin:miter;stroke-opacity:1"
         d="M 387.57872,356.28184 C 387.57872,356.28184 386.20252,359.98699 385.67321,360.19872 C 385.14391,360.41043 381.36798,363.56036 381.36798,363.56036 L 375.72225,366.55039 L 366.19473,367.71487 L 356.87894,366.65626 L 349.15108,365.80936 L 343.75214,363.48042 L 339.83528,360.30458 L 337.15966,357.40789 L 336.13014,360.83388 L 334.64807,364.96247 L 333.37774,367.71487 L 331.36637,371.2083 L 329.14329,373.96068 L 329.35501,375.23101 L 330.41363,375.23101 L 336.87117,375.23101 L 346.18695,375.86619 L 356.77308,376.71308 L 364.07751,377.7717 L 371.59366,377.55996 L 385.14391,376.71308 L 397.31795,375.65445 L 397.42382,374.91344 L 396.25934,373.96068 L 394.24798,370.25553 L 391.07214,364.6449 L 388.84905,358.29321 L 387.57872,356.28184 z"
         id="path6463"
         sodipodi:nodetypes="cscccccccccccccccccccccccccccc" />
      <path
         style="fill:#e6e6e6;fill-rule:evenodd;stroke:#000000;stroke-width:1px;stroke-linecap:butt;stroke-linejoin:miter;stroke-opacity:1"
         d="M 349.48231,365.59944 C 351.06759,365.59944 356.14968,367.72116 356.14968,367.72116 C 356.14968,367.72116 358.13127,369.50459 358.92391,370.69355 C 359.71655,371.88251 359.51839,371.88251 361.10366,372.08066 C 362.68894,372.27882 363.8779,371.88251 365.06685,371.48619 C 366.25581,371.08987 366.45397,369.90091 367.64293,368.71195 C 368.83188,367.523 369.77186,367.67995 369.77186,367.67995 L 362.29262,367.32484 L 349.48231,365.59944 z"
         id="path6465"
         sodipodi:nodetypes="ccssssccc" />
      <path
         style="fill:#d40000;fill-rule:evenodd;stroke:#000000;stroke-width:0.82511151px;stroke-linecap:butt;stroke-linejoin:miter;stroke-opacity:1"
         d="M 362.32854,368.62451 C 360.49061,369.06088 358.83646,370.36996 358.83646,370.36996 L 360.49061,371.96996 L 362.51234,371.96996 L 366.0044,371.24268 L 366.73958,369.78815 L 365.63682,369.49723 L 364.53405,368.62451 L 362.32854,368.62451 z"
         id="path6467" />
      <path
         id="path6469"
         d="M 362.32854,368.62451 C 360.49061,369.06088 358.83646,370.36996 358.83646,370.36996 L 360.49061,371.96996 L 362.51234,371.96996 L 366.0044,371.24268 L 366.73958,369.78815 L 365.63682,369.49723 L 364.53405,368.62451 L 362.32854,368.62451 z"
         style="fill:url(#linearGradient6511);fill-opacity:1;fill-rule:evenodd;stroke:#000000;stroke-width:0.82511151px;stroke-linecap:butt;stroke-linejoin:miter;stroke-opacity:1" />
      <path
         style="fill:none;fill-rule:evenodd;stroke:#000000;stroke-width:1px;stroke-linecap:butt;stroke-linejoin:miter;stroke-opacity:1"
         d="M 362.81934,368.43687 C 362.81934,369.69795 362.39898,369.97819 362.39898,369.97819"
         id="path6471" />
    </g>
  </g>
  <g
     inkscape:groupmode="layer"
     id="layer2"
     inkscape:label="tux-rest"
     style="display:inline">
    <path
       style="fill:#ffffff;fill-rule:evenodd;stroke:none;stroke-width:1px;stroke-linecap:butt;stroke-linejoin:miter;stroke-opacity:1"
       d="M 70.447251,33.533063 C 71.238007,35.905345 69.656496,40.649908 69.129318,42.495015 C 68.60214,44.340123 69.392907,46.712405 69.392907,46.712405 L 71.238007,48.030339 L 79.145618,46.975992 L 78.354852,45.130884 L 77.036919,39.859147 L 75.718985,32.742302 L 70.447251,33.533063 z"
       id="path2485" />
    <path
       id="path2468"
       d="M 71.033007,27.441758 C 69.326423,31.795673 67.955436,36.327355 66.892772,40.883857 C 66.638911,41.883109 66.53152,43.00285 67.280578,43.822439 C 68.138217,45.034001 68.969283,46.428651 70.044377,47.367308 C 72.922927,47.56129 75.801048,47.761992 78.679869,47.951748 C 79.498075,44.856876 80.389,41.656002 80.105465,38.431398 C 79.512312,34.661402 78.088104,31.091042 76.680763,27.561923 C 74.834431,27.462906 72.988568,27.355061 71.142246,27.256048 L 71.053621,27.406701 L 71.033007,27.441758 z"
       style="fill:#ffffff;fill-rule:evenodd;stroke:none;stroke-width:1px;stroke-linecap:butt;stroke-linejoin:miter;stroke-opacity:1" />
    <path
       id="path2470"
       d="M 81.367203,47.416467 C 80.206323,47.675732 78.838519,47.846296 77.975264,48.73282 C 77.581019,49.9011 78.886009,51.045714 80.039917,50.906716 C 81.61309,50.853036 83.289645,51.095853 84.797364,50.633613 C 85.402061,49.849351 85.356825,49.196402 84.832225,48.701677 C 84.107904,48.164351 82.340626,47.294812 81.367203,47.416467 z M 68.085122,46.997979 C 66.73931,46.544167 63.59953,47.881789 64.707952,49.847078 C 64.953849,51.302554 66.770779,51.232657 67.892331,51.327294 C 69.079148,51.265065 70.436389,51.359977 71.48635,50.797475 C 72.00046,50.068408 73.309949,48.895294 72.25097,48.809964 C 70.764711,48.387692 69.646134,46.965494 68.085122,46.997979 z"
       style="fill:#ffccaa;fill-opacity:1;stroke:none;stroke-width:0.99999994;stroke-linecap:round;stroke-linejoin:miter;stroke-miterlimit:4;stroke-dasharray:none;stroke-dashoffset:0;stroke-opacity:1"
       sodipodi:nodetypes="cccccccccccc" />
    <path
       id="path2472"
       d="M 71.202325,27.906032 C 70.465291,28.277573 71.199214,29.277611 71.185938,29.866907 C 71.490755,31.085049 71.882516,32.967695 73.403532,33.094977 C 74.823659,32.854324 75.840303,31.372917 75.998004,30.003458 C 76.014171,29.416682 76.399002,28.946665 76.631602,28.430388 C 74.802815,28.508733 72.982974,28.161438 71.202325,27.906032 z"
       style="fill:#ffd42a;fill-opacity:1;stroke:none;stroke-width:1;stroke-linecap:round;stroke-linejoin:miter;stroke-miterlimit:4;stroke-dasharray:none;stroke-dashoffset:0;stroke-opacity:1" />
    <path
       id="path2474"
       d="M 71.945162,14.758882 C 69.857984,15.109759 69.081956,17.443635 68.714921,19.250617 C 68.430812,21.208369 67.987667,23.323234 68.618781,25.251476 C 69.273077,26.715746 70.859651,27.455156 72.414902,27.381675 C 74.416482,27.170293 76.320773,28.197499 78.30845,27.791329 C 79.754765,27.306718 80.348815,25.596886 80.81007,24.279232 C 81.680652,21.178035 80.40165,17.528039 77.516452,15.965995 C 76.742741,15.415272 75.68754,15.4787 75.042147,16.206325 C 74.694046,16.631618 74.241382,16.751547 74.009815,16.135318 C 73.548488,15.439462 72.879621,14.654037 71.945162,14.758882 z M 73.381686,19.385237 C 74.084642,19.356067 74.632747,20.190434 75.358947,19.723884 C 76.259745,18.994334 77.570706,19.467708 77.456374,20.663356 C 77.676647,21.856425 76.774325,23.260151 75.462727,23.006574 C 74.710203,22.953597 75.036772,21.791835 74.222845,21.865007 C 73.433999,21.996991 72.324732,22.63676 71.808618,21.651987 C 71.196803,20.656105 72.373674,19.434315 73.381686,19.385237 z"
       style="fill:#ffffff;fill-opacity:1;stroke:none;stroke-width:1;stroke-linecap:round;stroke-linejoin:miter;stroke-miterlimit:4;stroke-dasharray:none;stroke-dashoffset:0;stroke-opacity:1" />
    <path
       sodipodi:nodetypes="cssscccccscccsscccssssssssccsssssssccssssssssssssssccssssccssssccsssssssccsssssssssccssssssc"
       d="M 79.15608,28.329289 C 78.159643,28.748089 71.860816,28.020703 69.553533,27.719651 C 67.018419,27.388871 67.17495,23.720904 67.683048,20.354008 C 68.075884,17.750899 68.482561,15.61972 70.919771,14.407361 C 71.858541,13.940383 73.14678,14.681664 74.590934,15.24218 C 78.068158,14.027337 80.38804,15.299235 81.28125,18.519316 C 82.3653,21.858386 81.926538,26.966199 79.15608,28.329289 z M 83.583378,24.004181 C 83.146015,18.392479 81.651771,11.175733 75.51386,10.742026 C 72.661582,10.505497 70.333298,11.232018 68.42839,12.952984 C 65.122697,15.939494 64.63299,17.410115 64.403584,25.040062 L 64.286986,28.918156 C 62.357352,30.750462 60.342329,32.994498 59.718563,35.5969 C 59.718563,36.587552 62.000995,37.023268 63.142608,36.51229 C 64.729109,35.802196 64.969244,36.279575 64.692828,39.594052 C 64.4505,42.499707 64.49034,42.734286 65.34345,43.425106 C 66.902396,44.855475 68.503436,46.129747 70.371979,47.099539 C 71.998331,47.953957 78.188095,47.758109 80.190332,46.699946 C 81.811956,46.221139 81.931935,46.088115 82.102285,44.580231 C 82.244194,43.32407 82.1117,42.819251 81.497922,42.277444 C 81.065549,41.895779 80.46391,41.583505 80.160919,41.583505 C 79.330167,41.583505 79.500142,40.480629 80.405585,39.996053 C 81.043557,39.654614 81.555026,39.777696 82.98796,40.617447 C 85.510058,42.095494 86.518864,42.275304 86.235475,39.529544 C 86.112438,38.337362 85.707984,35.36453 85.095083,33.889738 C 84.201581,31.73978 83.669769,30.960972 83.744783,28.894386 C 83.79624,27.476781 83.711749,25.205023 83.583378,24.004181 z M 64.131801,51.588068 C 63.038087,50.197628 63.031292,48.329934 64.739421,47.466209 C 66.59021,46.530347 66.495187,46.199968 65.403632,45.615794 C 64.433821,45.096757 63.217612,42.832463 63.504372,42.08519 C 63.620301,41.783074 63.849999,39.857985 63.531551,39.095854 C 63.05463,37.954414 61.829872,38.336525 60.278619,37.876206 C 58.477303,37.34167 58.268553,36.996005 58.376728,35.724506 C 58.503345,34.236365 61.015089,30.691535 62.484419,29.121499 C 63.383725,28.160562 63.321987,27.503682 63.412167,22.909887 C 63.629204,17.070508 64.707701,13.52232 69.537323,10.812345 C 71.348972,9.8384229 75.319733,9.4023819 77.326406,10.177863 C 81.181321,11.667601 82.075878,13.453101 83.46009,17.338753 C 84.469971,20.17361 84.899485,24.255599 84.789432,27.90305 C 84.74573,29.351849 85.312173,30.98007 85.724883,32.06667 C 87.101736,35.691709 87.588165,37.882672 87.601995,40.521409 C 87.609792,42.009151 87.494697,43.347464 87.346224,43.495426 C 87.19775,43.643391 86.333191,43.764453 85.424971,43.764453 C 84.004343,43.764453 83.682544,44.121281 83.117354,44.675271 C 82.234341,45.540774 82.050787,46.907926 84.31416,47.647547 C 86.521984,48.369022 87.337582,49.772092 86.773163,50.671335 C 86.380066,51.297636 84.560067,51.688631 81.098562,51.732673 C 78.858538,51.761174 78.026857,51.73054 77.015723,50.150615 C 75.993265,48.552992 74.291231,48.656714 73.620142,50.244882 C 72.807937,52.167033 72.784525,52.483967 68.672357,52.53374 C 65.107249,52.576895 64.870902,52.527672 64.131801,51.588068 z M 72.271845,49.849897 C 72.271845,48.942272 71.370066,48.913035 68.938711,48.103411 C 68.038299,47.803581 67.921639,47.210879 67.284085,47.237777 C 66.151094,47.285573 64.795168,48.294625 64.608775,49.285757 C 64.369881,50.556135 65.754207,51.399005 68.635074,51.280255 C 71.301669,51.170348 72.271845,50.795905 72.271845,49.849897 z M 84.765008,50.129182 C 85.788604,49.04545 84.431947,48.856677 83.372843,48.492711 C 81.795506,47.950648 81.961713,47.586425 80.256245,48.063917 C 78.167606,48.648703 77.833752,48.81449 78.416061,49.902546 C 78.787552,50.596692 79.240634,50.703814 81.804942,50.703814 C 84.125554,50.703814 84.765008,50.579671 84.765008,50.129182 z M 71.155972,33.469317 C 70.453298,32.766637 69.526395,29.117014 69.841848,28.294975 C 70.341731,26.992325 71.181992,27.71492 71.441406,29.670547 C 71.70535,31.660205 72.470857,32.859739 73.476636,32.859739 C 74.229828,32.859739 75.644705,31.279435 75.644705,30.438194 C 75.644705,29.225506 76.106731,28.497852 76.876737,28.497852 C 77.785583,28.497852 77.784132,28.464394 76.981655,30.917837 C 76.522217,32.322451 76.013075,33.058996 75.216934,33.470693 C 73.782727,34.212357 71.898371,34.211715 71.155972,33.469317 z M 78.603174,26.864539 C 79.625507,26.472227 80.926772,24.121474 80.858771,22.354781 C 80.765241,19.924538 80.288111,18.014231 78.778399,16.688677 C 77.263885,15.358921 76.004224,15.492544 75.248163,16.403535 C 74.546606,17.248875 74.299404,17.035413 73.589883,16.007001 C 72.409172,14.295624 70.127168,15.018059 69.477965,17.306724 C 69.238936,18.149358 68.760126,20.123173 68.633174,21.769575 C 68.417013,24.572513 68.73018,24.310552 69.675662,25.409337 C 70.574456,26.453872 70.973608,26.903074 72.774578,26.828388 C 73.887373,26.782244 74.537379,26.904766 75.024445,27.100658 C 76.094102,27.530864 77.730223,27.199522 78.603174,26.864539 z M 74.567804,22.541476 C 74.407516,21.928512 74.234879,21.842416 73.833693,22.175381 C 72.956932,22.903023 71.49685,22.462853 71.350078,21.426661 C 71.110088,19.732155 73.22169,18.302752 74.329036,19.410102 C 74.636807,19.717869 74.980744,19.700176 75.545423,19.347522 C 75.978433,19.077107 76.601062,18.958828 76.929029,19.084674 C 77.868436,19.44516 78.153933,21.300998 77.438066,22.393553 C 76.644555,23.6046 74.869741,23.696059 74.567804,22.541476 z"
       style="fill:#000000"
       id="path2476" />
  </g>
  <g
     inkscape:groupmode="layer"
     id="layer3"
     inkscape:label="tux-körper-grau"
     style="display:inline">
    <path
       style="fill:url(#linearGradient3250);fill-opacity:1.0;stroke:none;stroke-width:1;stroke-linecap:round;stroke-linejoin:miter;stroke-miterlimit:4;stroke-dasharray:none;stroke-dashoffset:0;stroke-opacity:1;display:inline"
       d="M 72.682443,47.527058 C 71.425235,47.407429 70.881139,47.279038 70.215466,46.944919 C 68.372098,46.019679 64.958031,43.279587 64.709212,42.52565 C 64.624887,42.270138 64.617069,41.812171 64.678557,40.731297 C 64.809255,38.43399 64.787222,36.683727 64.625158,36.488682 C 64.355516,36.164152 64.099682,36.147295 63.338005,36.403858 C 62.05033,36.837603 60.673539,36.689829 59.986188,36.044098 C 59.713571,35.787986 59.719875,35.663103 60.051255,34.755113 C 60.611885,33.218955 61.654352,31.690249 63.305878,29.98246 L 64.31815,28.935705 L 64.42552,25.767177 C 64.70322,17.571649 65.084774,16.252734 67.98544,13.461482 C 69.35051,12.147904 70.412641,11.505182 71.898962,11.0933 C 73.897599,10.539448 76.54406,10.70137 78.058625,11.470177 C 81.705365,13.321284 83.528338,18.538801 83.688825,27.584421 C 83.712925,28.942695 83.77674,30.305628 83.830639,30.613162 C 83.884538,30.920696 84.234644,31.92717 84.608651,32.84977 C 85.32505,34.616974 85.567336,35.460272 85.862613,37.214322 C 86.316018,39.90761 86.328929,41.01869 85.911669,41.435939 C 85.790417,41.557203 85.602093,41.656416 85.493177,41.656416 C 85.192775,41.656416 84.147198,41.215814 83.243091,40.708229 C 81.537634,39.750745 81.1105,39.643429 80.391095,39.991681 C 79.924037,40.21778 79.626109,40.63456 79.625598,41.062555 C 79.625201,41.394858 79.740942,41.519699 80.13833,41.615552 C 80.770884,41.768133 81.642082,42.365412 81.881738,42.810798 C 82.077723,43.175047 82.126445,43.748059 82.033186,44.591964 C 81.894148,45.850195 81.70859,46.143083 80.883338,46.406942 C 80.678314,46.472493 80.277096,46.622938 79.991745,46.741261 C 78.488421,47.364611 74.960815,47.743854 72.682443,47.527058 z M 74.243289,33.868455 C 75.332109,33.605384 76.051827,33.045166 76.536252,32.083646 C 76.945058,31.272217 77.520467,29.460503 77.524695,28.971483 L 77.528431,28.5413 L 78.31186,28.485734 C 79.00394,28.436641 79.152799,28.391971 79.588628,28.102595 C 81.680033,26.713984 82.436773,22.653125 81.350406,18.648558 C 80.484249,15.455643 78.313227,14.159575 75.252011,15.007883 L 74.603164,15.187688 L 73.503009,14.751766 C 72.653166,14.415025 72.254453,14.307961 71.75052,14.281198 C 71.132411,14.248371 71.067031,14.265188 70.504553,14.601728 C 69.80858,15.018149 68.998129,15.857279 68.673836,16.497232 C 68.280342,17.273761 67.999166,18.259287 67.75354,19.722827 C 66.876445,24.949209 67.446322,27.491186 69.550962,27.74045 C 69.812494,27.771424 70.026474,27.813976 70.026474,27.83501 C 70.026474,27.856042 69.957952,28.005746 69.874211,28.167682 C 69.491625,28.907525 70.248396,32.302475 71.029174,33.348917 C 71.537438,34.030116 72.757729,34.227371 74.243278,33.868453 L 74.243289,33.868455 z"
       id="path2478" />
  </g>
</svg>
