<?xml version="1.0" encoding="UTF-8" standalone="no"?>
<!-- Created with Inkscape (http://www.inkscape.org/) -->
<svg
   xmlns:dc="http://purl.org/dc/elements/1.1/"
   xmlns:cc="http://creativecommons.org/ns#"
   xmlns:rdf="http://www.w3.org/1999/02/22-rdf-syntax-ns#"
   xmlns:svg="http://www.w3.org/2000/svg"
   xmlns="http://www.w3.org/2000/svg"
   xmlns:xlink="http://www.w3.org/1999/xlink"
   xmlns:sodipodi="http://sodipodi.sourceforge.net/DTD/sodipodi-0.dtd"
   xmlns:inkscape="http://www.inkscape.org/namespaces/inkscape"
   width="60.726803"
   height="37"
   id="svg4762"
   sodipodi:version="0.32"
   inkscape:version="0.46"
   version="1.0"
   sodipodi:docname="tastentierchen_pingu.svg"
   inkscape:output_extension="org.inkscape.output.svg.inkscape"
   inkscape:export-filename="/home/nepomuk/projekte/neo/svn/svn.neo-layout.org/www/tastentierchen_pingu.png"
   inkscape:export-xdpi="62.388851"
   inkscape:export-ydpi="62.388851"
   style="display:inline">
  <defs
     id="defs4764">
    <linearGradient
       id="linearGradient5607">
      <stop
         style="stop-color:#484848;stop-opacity:1;"
         offset="0"
         id="stop5609" />
      <stop
         style="stop-color:#959595;stop-opacity:1;"
         offset="1"
         id="stop5611" />
    </linearGradient>
    <linearGradient
       inkscape:collect="always"
       xlink:href="#linearGradient5607"
       id="linearGradient6511"
       gradientUnits="userSpaceOnUse"
       x1="162.78802"
       y1="365.9147"
       x2="162.78802"
       y2="372.38251"
       gradientTransform="translate(200,0)" />
    <radialGradient
       inkscape:collect="always"
       xlink:href="#linearGradient3415"
       id="radialGradient6509"
       gradientUnits="userSpaceOnUse"
       gradientTransform="matrix(4.3386401e-3,9.6493668e-2,-0.1481891,6.6630194e-3,952.33826,358.80325)"
       cx="-383.17914"
       cy="3897.1636"
       fx="-383.17914"
       fy="3897.1636"
       r="182.01132" />
    <linearGradient
       id="linearGradient3415">
      <stop
         style="stop-color:#000000;stop-opacity:1;"
         offset="0"
         id="stop3417" />
      <stop
         style="stop-color:#000000;stop-opacity:0;"
         offset="1"
         id="stop3419" />
    </linearGradient>
    <radialGradient
       inkscape:collect="always"
       xlink:href="#linearGradient3415"
       id="radialGradient6507"
       gradientUnits="userSpaceOnUse"
       gradientTransform="matrix(4.3386401e-3,9.6493668e-2,-0.1481891,6.6630194e-3,952.33826,358.80325)"
       cx="-315.02106"
       cy="3970.6899"
       fx="-315.02106"
       fy="3970.6899"
       r="182.01132" />
    <linearGradient
       inkscape:collect="always"
       id="linearGradient3607">
      <stop
         style="stop-color:#ffffff;stop-opacity:1;"
         offset="0"
         id="stop3609" />
      <stop
         style="stop-color:#ffffff;stop-opacity:0;"
         offset="1"
         id="stop3611" />
    </linearGradient>
    <linearGradient
       inkscape:collect="always"
       xlink:href="#linearGradient3607"
       id="linearGradient6505"
       gradientUnits="userSpaceOnUse"
       gradientTransform="matrix(0.1880889,0,0,0.1880889,386.93069,-487.64324)"
       x1="-384.76523"
       y1="4644.0273"
       x2="-240.72159"
       y2="4520.7471" />
    <linearGradient
       inkscape:collect="always"
       id="linearGradient3597">
      <stop
         style="stop-color:#ffffff;stop-opacity:1;"
         offset="0"
         id="stop3599" />
      <stop
         style="stop-color:#ffffff;stop-opacity:0;"
         offset="1"
         id="stop3601" />
    </linearGradient>
    <linearGradient
       inkscape:collect="always"
       xlink:href="#linearGradient3597"
       id="linearGradient6503"
       gradientUnits="userSpaceOnUse"
       gradientTransform="matrix(0.1880889,0,0,0.1880889,386.93069,-487.64321)"
       x1="-97.154755"
       y1="4576.6812"
       x2="-116.1433"
       y2="4456.4487" />
    <linearGradient
       id="linearGradient3381"
       inkscape:collect="always">
      <stop
         id="stop3383"
         offset="0"
         style="stop-color:#ffffff;stop-opacity:1" />
      <stop
         id="stop3385"
         offset="1"
         style="stop-color:#e6e6e6;stop-opacity:0;" />
    </linearGradient>
    <linearGradient
       inkscape:collect="always"
       xlink:href="#linearGradient3381"
       id="linearGradient6501"
       gradientUnits="userSpaceOnUse"
       gradientTransform="matrix(0.1880889,0,0,0.1880889,417.18239,-415.79543)"
       x1="-267.06039"
       y1="4017.0872"
       x2="-235.06189"
       y2="4056.6892" />
    <linearGradient
       id="linearGradient3371"
       inkscape:collect="always">
      <stop
         id="stop3373"
         offset="0"
         style="stop-color:#ffffff;stop-opacity:1" />
      <stop
         id="stop3375"
         offset="1"
         style="stop-color:#ececec;stop-opacity:0;" />
    </linearGradient>
    <linearGradient
       inkscape:collect="always"
       xlink:href="#linearGradient3371"
       id="linearGradient6499"
       gradientUnits="userSpaceOnUse"
       gradientTransform="matrix(0.1880889,0,0,0.1880889,417.18239,-415.79543)"
       x1="-378.25092"
       y1="3996.2708"
       x2="-318.20984"
       y2="4065.8281" />
    <linearGradient
       inkscape:collect="always"
       id="linearGradient3359">
      <stop
         style="stop-color:#cccccc;stop-opacity:1"
         offset="0"
         id="stop3361" />
      <stop
         style="stop-color:#ececec;stop-opacity:0;"
         offset="1"
         id="stop3363" />
    </linearGradient>
    <linearGradient
       inkscape:collect="always"
       xlink:href="#linearGradient3359"
       id="linearGradient6497"
       gradientUnits="userSpaceOnUse"
       gradientTransform="matrix(0.1880889,0,0,0.1880889,417.18239,-415.79543)"
       x1="-290.92319"
       y1="4104.415"
       x2="-331.41055"
       y2="4060.2432" />
    <linearGradient
       inkscape:collect="always"
       id="linearGradient3349">
      <stop
         style="stop-color:#e6e6e6;stop-opacity:1;"
         offset="0"
         id="stop3351" />
      <stop
         style="stop-color:#e6e6e6;stop-opacity:0;"
         offset="1"
         id="stop3353" />
    </linearGradient>
    <linearGradient
       inkscape:collect="always"
       xlink:href="#linearGradient3349"
       id="linearGradient6495"
       gradientUnits="userSpaceOnUse"
       gradientTransform="matrix(0.1880889,0,0,0.1880889,417.18239,-415.79543)"
       x1="-193.44109"
       y1="4072.9363"
       x2="-232.02776"
       y2="4054.6584" />
    <linearGradient
       inkscape:collect="always"
       id="linearGradient3425">
      <stop
         style="stop-color:#f9f9f9;stop-opacity:1;"
         offset="0"
         id="stop3427" />
      <stop
         style="stop-color:#f9f9f9;stop-opacity:0;"
         offset="1"
         id="stop3429" />
    </linearGradient>
    <linearGradient
       inkscape:collect="always"
       xlink:href="#linearGradient3425"
       id="linearGradient6493"
       gradientUnits="userSpaceOnUse"
       gradientTransform="matrix(0.1880889,0,0,0.1880889,417.18239,-415.79543)"
       spreadMethod="reflect"
       x1="-285.84601"
       y1="4192.2505"
       x2="-289.90775"
       y2="4124.2158" />
    <radialGradient
       inkscape:collect="always"
       xlink:href="#linearGradient3399"
       id="radialGradient6491"
       gradientUnits="userSpaceOnUse"
       gradientTransform="matrix(1.6048082e-2,9.0554532e-2,-0.1793599,3.1782527e-2,1056.4185,250.85467)"
       cx="-248.95627"
       cy="3885.6602"
       fx="-248.95627"
       fy="3885.6602"
       r="140.29561" />
    <radialGradient
       inkscape:collect="always"
       xlink:href="#linearGradient3399"
       id="radialGradient6489"
       gradientUnits="userSpaceOnUse"
       gradientTransform="matrix(8.1627261e-3,7.6309939e-2,-9.8386948e-2,1.052337e-2,740.96593,329.38605)"
       cx="-199.24757"
       cy="3702.4329"
       fx="-199.24757"
       fy="3702.4329"
       r="140.29561" />
    <linearGradient
       inkscape:collect="always"
       id="linearGradient3399">
      <stop
         style="stop-color:#4d4d4d;stop-opacity:1"
         offset="0"
         id="stop3401" />
      <stop
         style="stop-color:#ececec;stop-opacity:0;"
         offset="1"
         id="stop3403" />
    </linearGradient>
    <radialGradient
       inkscape:collect="always"
       xlink:href="#linearGradient3399"
       id="radialGradient6487"
       gradientUnits="userSpaceOnUse"
       gradientTransform="matrix(4.6632815e-3,0.1549835,-0.288364,8.6613063e-3,1445.5357,351.78628)"
       cx="-258.57077"
       cy="3747.105"
       fx="-258.57077"
       fy="3747.105"
       r="140.29561" />
    <inkscape:perspective
       sodipodi:type="inkscape:persp3d"
       inkscape:vp_x="0 : 526.18109 : 1"
       inkscape:vp_y="0 : 1000 : 0"
       inkscape:vp_z="744.09448 : 526.18109 : 1"
       inkscape:persp3d-origin="372.04724 : 350.78739 : 1"
       id="perspective4770" />
    <linearGradient
       inkscape:collect="always"
       xlink:href="#linearGradient5607"
       id="linearGradient3250"
       x1="59.791431"
       y1="29.176893"
       x2="86.21405"
       y2="29.176893"
       gradientUnits="userSpaceOnUse"
       gradientTransform="matrix(0.6932095,0,0,0.6932095,-1.3317016e-7,16.374919)" />
  </defs>
  <sodipodi:namedview
     id="base"
     pagecolor="#ffffff"
     bordercolor="#666666"
     borderopacity="1.0"
     inkscape:pageopacity="0.0"
     inkscape:pageshadow="2"
     inkscape:zoom="6.5295035"
     inkscape:cx="34.760956"
     inkscape:cy="30.139051"
     inkscape:document-units="px"
     inkscape:current-layer="layer3"
     showgrid="false"
     inkscape:window-width="1278"
     inkscape:window-height="989"
     inkscape:window-x="0"
     inkscape:window-y="1" />
  <metadata
     id="metadata4767">
    <rdf:RDF>
      <cc:Work
         rdf:about="">
        <dc:format>image/svg+xml</dc:format>
        <dc:type
           rdf:resource="http://purl.org/dc/dcmitype/StillImage" />
      </cc:Work>
    </rdf:RDF>
  </metadata>
  <g
     inkscape:label="tastentier"
     inkscape:groupmode="layer"
     id="layer1"
     transform="translate(-51.579236,-50.621068)"
     style="display:inline">
    <g
       id="g6531"
       transform="matrix(0.6896481,7.0177201e-2,-7.0177201e-2,0.6896481,-147.87647,-200.56681)">
      <path
         style="opacity:0.70800015;fill:#333333;fill-opacity:1;stroke:none;stroke-width:14.60000038;stroke-linejoin:bevel;stroke-miterlimit:4;stroke-dasharray:none;stroke-opacity:1"
         id="path6425"
         d="M 397.01648,377.47711 C 392.64764,377.36939 388.27672,377.38959 383.90675,377.3724 C 378.98021,377.39366 374.05366,377.37955 369.12713,377.38715 C 364.34298,377.38677 359.55892,377.37707 354.77482,377.4022 C 351.18688,377.4173 347.59889,377.42702 344.01093,377.4403 C 340.82525,377.45764 337.63974,377.42604 334.45402,377.42962 C 333.99523,377.4372 333.52764,377.36971 333.07764,377.45238 C 332.84392,377.49532 332.67043,377.68059 332.4668,377.7947 C 337.93321,374.49101 343.31643,371.06742 348.86605,367.88364 C 348.92302,367.85097 351.69165,368.14145 351.8675,368.15417 C 354.85017,368.30962 357.8393,368.28985 360.82547,368.28141 C 365.2689,368.30908 369.71252,368.33516 374.15607,368.32958 L 385.32844,377.31289 C 382.54724,377.81642 379.75883,378.27275 376.92363,378.43663 C 370.90001,378.63959 364.87031,378.51013 358.84358,378.58072 C 354.33537,378.58176 349.82722,378.62039 345.31922,378.65857 C 342.27788,378.64499 339.22715,378.6632 336.19634,378.40418 C 336.14723,378.3979 332.17854,377.89527 332.61378,377.55784 C 347.34409,366.13798 341.77841,366.8989 349.91984,367.07758 C 353.1162,367.08117 356.31236,367.04956 359.5087,367.06688 C 363.05873,367.08016 366.60876,367.08988 370.15875,367.10499 L 397.01648,377.47711 z"
         sodipodi:nodetypes="ccccccscsccccccccscccc" />
      <path
         sodipodi:nodetypes="ccccccscsccccccccscccc"
         d="M 398.14417,376.14106 C 393.77411,376.11068 389.40423,376.20826 385.03465,376.26843 C 380.10925,376.3769 375.18323,376.45001 370.25761,376.54481 C 365.4742,376.62913 360.25977,378.34143 355.47687,378.45126 C 351.88976,378.52986 348.30251,378.6031 344.71533,378.6799 C 341.53046,378.75363 338.34489,378.77844 335.15974,378.8384 C 335.7505,381.33671 333.87682,378.43751 333.78398,378.88552 C 333.35737,380.94414 333.38085,379.12091 333.17929,379.2386 C 338.58638,375.83866 344.33907,370.683 349.83145,367.40147 C 349.88784,367.3678 352.66117,367.60923 352.83723,367.61883 C 355.8222,367.72145 358.8105,367.64877 361.79605,367.58747 C 366.23927,367.53646 370.68266,367.48389 375.12541,367.39965 L 386.45505,376.18377 C 383.6832,376.73645 380.90331,377.24208 378.07146,377.45612 C 372.05238,377.76568 365.5904,379.3803 359.56585,379.55756 C 355.05838,379.6384 350.55162,379.75684 346.04499,379.87483 C 343.00387,379.91508 339.95396,379.98729 336.91905,379.78197 C 336.86984,379.77655 332.89285,379.34427 333.32205,378.99918 C 347.8479,367.32034 342.72751,366.54236 350.87079,366.57689 C 354.06673,366.5239 357.26185,366.43571 360.45799,366.39644 C 364.00769,366.34688 367.55733,366.29376 371.10704,366.246 L 398.14417,376.14106 z"
         id="path6427"
         style="fill:#000000;fill-opacity:1;stroke:none;stroke-width:14.60000038;stroke-linejoin:bevel;stroke-miterlimit:4;stroke-dasharray:none;stroke-opacity:1" />
      <path
         id="path6429"
         d="M 362.26859,350.61789 C 364.56049,350.7134 365.33366,350.93547 366.00213,350.74447 C 366.67062,350.55348 368.00755,350.83998 368.00755,350.83998"
         style="fill:none;fill-rule:evenodd;stroke:#000000;stroke-width:1.26019549;stroke-linecap:butt;stroke-linejoin:miter;stroke-miterlimit:4;stroke-dasharray:none;stroke-opacity:1"
         sodipodi:nodetypes="csc" />
      <path
         style="fill:#cccccc;fill-rule:evenodd;stroke:none;stroke-width:1px;stroke-linecap:butt;stroke-linejoin:miter;stroke-opacity:1"
         d="M 344.91662,351.62395 L 341.84665,351.62395 L 341.21147,354.16462 L 336.44772,357.76391 L 338.45907,359.56354 L 344.17558,363.16283 L 348.83349,365.28005 L 356.13792,366.65626 L 367.78266,367.50315 L 376.25156,366.02109 L 380.90946,364.32731 L 383.76771,362.21009 L 386.5201,358.6108 L 388.63733,357.12873 C 388.63733,357.12873 389.8018,353.74118 388.84905,353.31773 C 387.8963,352.89429 382.28565,350.56533 382.28565,350.56533 L 380.48601,350.88292 L 344.91662,351.62395 z"
         id="path6431" />
      <path
         id="path6433"
         d="M 344.91662,351.62395 L 341.84665,351.62395 L 341.21147,354.16462 L 336.44772,357.76391 L 338.45907,359.56354 L 344.17558,363.16283 L 348.83349,365.28005 L 356.13792,366.65626 L 367.78266,367.50315 L 376.25156,366.02109 L 380.90946,364.32731 L 383.76771,362.21009 L 386.5201,358.6108 L 388.63733,357.12873 C 388.63733,357.12873 389.8018,353.74118 388.84905,353.31773 C 387.8963,352.89429 382.28565,350.56533 382.28565,350.56533 L 380.48601,350.88292 L 344.91662,351.62395 z"
         style="fill:url(#radialGradient6487);fill-opacity:1;fill-rule:evenodd;stroke:none;stroke-width:1px;stroke-linecap:butt;stroke-linejoin:miter;stroke-opacity:1" />
      <path
         style="fill:url(#radialGradient6489);fill-opacity:1;fill-rule:evenodd;stroke:none;stroke-width:1px;stroke-linecap:butt;stroke-linejoin:miter;stroke-opacity:1"
         d="M 344.91662,351.62395 L 341.84665,351.62395 L 341.21147,354.16462 L 336.44772,357.76391 L 338.45907,359.56354 L 344.17558,363.16283 L 348.83349,365.28005 L 356.13792,366.65626 L 367.78266,367.50315 L 376.25156,366.02109 L 380.90946,364.32731 L 383.76771,362.21009 L 386.5201,358.6108 L 388.63733,357.12873 C 388.63733,357.12873 389.8018,353.74118 388.84905,353.31773 C 387.8963,352.89429 382.28565,350.56533 382.28565,350.56533 L 380.48601,350.88292 L 344.91662,351.62395 z"
         id="path6435" />
      <path
         id="path6437"
         d="M 344.91662,351.62395 L 341.84665,351.62395 L 341.21147,354.16462 L 336.44772,357.76391 L 338.45907,359.56354 L 344.17558,363.16283 L 348.83349,365.28005 L 356.13792,366.65626 L 367.78266,367.50315 L 376.25156,366.02109 L 380.90946,364.32731 L 383.76771,362.21009 L 386.5201,358.6108 L 388.63733,357.12873 C 388.63733,357.12873 389.8018,353.74118 388.84905,353.31773 C 387.8963,352.89429 382.28565,350.56533 382.28565,350.56533 L 380.48601,350.88292 L 344.91662,351.62395 z"
         style="fill:url(#radialGradient6491);fill-opacity:1;fill-rule:evenodd;stroke:none;stroke-width:1px;stroke-linecap:butt;stroke-linejoin:miter;stroke-opacity:1" />
      <path
         style="fill:#f9f9f9;fill-rule:evenodd;stroke:#000000;stroke-width:0.18808889px;stroke-linecap:butt;stroke-linejoin:miter;stroke-opacity:1"
         d="M 370.00574,334.15684 L 366.93577,336.37993 L 365.34785,341.99057 L 364.81854,347.49537 L 365.98302,352.0474 L 368.31196,355.22324 L 374.66364,357.23461 L 379.53326,355.54081 L 381.12118,353.74118 L 380.69773,349.71844 L 380.69773,345.16641 L 378.89809,339.76749 L 377.20431,336.37993 L 374.13433,334.26271 L 371.06436,333.83927 L 370.00574,334.15684 z"
         id="path6439" />
      <path
         style="fill:#f2f2f2;fill-rule:evenodd;stroke:#000000;stroke-width:0.18808889px;stroke-linecap:butt;stroke-linejoin:miter;stroke-opacity:1"
         d="M 364.18337,343.47263 L 363.86578,341.14368 L 362.06615,337.75612 L 359.52548,334.89787 L 358.361,334.15684 L 353.27967,334.79201 L 350.10382,336.59165 L 347.77487,342.30816 L 345.55179,347.91881 C 345.55179,347.91881 345.34006,351.30637 345.02247,351.72981 C 344.7049,352.15326 346.39868,355.01151 346.39868,355.01151 L 347.88073,357.44632 L 352.85622,359.24596 L 357.93756,359.03424 L 361.6427,355.54081 L 363.65407,349.8243 L 364.71267,345.27227 L 364.07751,342.62574 L 364.18337,343.47263 z"
         id="path6441" />
      <path
         style="fill:#b3b3b3;fill-rule:evenodd;stroke:#000000;stroke-width:0.18808889px;stroke-linecap:butt;stroke-linejoin:miter;stroke-opacity:1"
         d="M 387.57872,356.28184 C 387.57872,356.28184 386.20252,359.98699 385.67321,360.19872 C 385.14391,360.41043 382.49737,363.58628 382.49737,363.58628 L 375.72225,366.55039 L 366.19473,367.71487 L 356.87894,366.65626 L 349.15108,365.80936 L 343.75214,363.48042 L 339.83528,360.30458 L 337.08288,358.6108 L 336.13014,360.83388 L 334.64807,364.96247 L 333.37774,367.71487 L 331.36637,371.2083 L 329.14329,373.96068 L 329.35501,375.23101 L 330.41363,375.23101 L 336.87117,375.23101 L 346.18695,375.86619 L 356.77308,376.71308 L 364.07751,377.7717 L 371.59366,377.55996 L 385.14391,376.71308 L 397.31795,375.65445 L 397.42382,374.91344 L 396.25934,373.96068 L 394.24798,370.25553 L 391.07214,364.6449 L 388.84905,358.29321 L 387.57872,356.28184 z"
         id="path6443" />
      <path
         style="opacity:0.47000008;fill:url(#linearGradient6493);fill-opacity:1;fill-rule:evenodd;stroke:#000000;stroke-width:0.18808889px;stroke-linecap:butt;stroke-linejoin:miter;stroke-opacity:1"
         d="M 387.57872,356.28184 C 387.57872,356.28184 386.20252,359.98699 385.67321,360.19872 C 385.14391,360.41043 382.49737,363.58628 382.49737,363.58628 L 375.72225,366.55039 L 366.19473,367.71487 L 356.87894,366.65626 L 349.15108,365.80936 L 343.75214,363.48042 L 339.83528,360.30458 L 337.08288,358.6108 L 336.13014,360.83388 L 334.64807,364.96247 L 333.37774,367.71487 L 331.36637,371.2083 L 329.14329,373.96068 L 329.35501,375.23101 L 330.41363,375.23101 L 336.87117,375.23101 L 346.18695,375.86619 L 356.77308,376.71308 L 364.07751,377.7717 L 371.59366,377.55996 L 385.14391,376.71308 L 397.31795,375.65445 L 397.42382,374.91344 L 396.25934,373.96068 L 394.24798,370.25553 L 391.07214,364.6449 L 388.84905,358.29321 L 387.57872,356.28184 z"
         id="path6445" />
      <path
         id="path6447"
         d="M 370.00574,334.15684 L 366.93577,336.37993 L 365.34785,341.99057 L 364.81854,347.49537 L 365.98302,352.0474 L 368.31196,355.22324 L 374.66364,357.23461 L 379.53326,355.54081 L 381.12118,353.74118 L 380.69773,349.71844 L 380.69773,345.16641 L 378.89809,339.76749 L 377.20431,336.37993 L 374.13433,334.26271 L 371.06436,333.83927 L 370.00574,334.15684 z"
         style="fill:url(#linearGradient6495);fill-opacity:1;fill-rule:evenodd;stroke:#000000;stroke-width:0.18808889px;stroke-linecap:butt;stroke-linejoin:miter;stroke-opacity:1" />
      <path
         id="path6449"
         d="M 364.18337,343.47263 L 363.86578,341.14368 L 362.06615,337.75612 L 359.52548,334.89787 L 358.361,334.15684 L 353.27967,334.79201 L 350.10382,336.59165 L 347.77487,342.30816 L 345.55179,347.91881 C 345.55179,347.91881 345.34006,351.30637 345.02247,351.72981 C 344.7049,352.15326 346.39868,355.01151 346.39868,355.01151 L 347.88073,357.44632 L 352.85622,359.24596 L 357.93756,359.03424 L 361.6427,355.54081 L 363.65407,349.8243 L 364.71267,345.27227 L 364.07751,342.62574 L 364.18337,343.47263 z"
         style="fill:url(#linearGradient6497);fill-opacity:1;fill-rule:evenodd;stroke:#000000;stroke-width:0.18808889px;stroke-linecap:butt;stroke-linejoin:miter;stroke-opacity:1" />
      <path
         style="fill:url(#linearGradient6499);fill-opacity:1;fill-rule:evenodd;stroke:#000000;stroke-width:0.18808889px;stroke-linecap:butt;stroke-linejoin:miter;stroke-opacity:1"
         d="M 364.18337,343.47263 L 363.86578,341.14368 L 362.06615,337.75612 L 359.52548,334.89787 L 358.361,334.15684 L 353.27967,334.79201 L 350.10382,336.59165 L 347.77487,342.30816 L 345.55179,347.91881 C 345.55179,347.91881 345.34006,351.30637 345.02247,351.72981 C 344.7049,352.15326 346.39868,355.01151 346.39868,355.01151 L 347.88073,357.44632 L 352.85622,359.24596 L 357.93756,359.03424 L 361.6427,355.54081 L 363.65407,349.8243 L 364.71267,345.27227 L 364.07751,342.62574 L 364.18337,343.47263 z"
         id="path6451" />
      <path
         style="fill:url(#linearGradient6501);fill-opacity:1;fill-rule:evenodd;stroke:#000000;stroke-width:0.18808889px;stroke-linecap:butt;stroke-linejoin:miter;stroke-opacity:1"
         d="M 370.00574,334.15684 L 366.93577,336.37993 L 365.34785,341.99057 L 364.81854,347.49537 L 365.98302,352.0474 L 368.31196,355.22324 L 374.66364,357.23461 L 379.53326,355.54081 L 381.12118,353.74118 L 380.69773,349.71844 L 380.69773,345.16641 L 378.89809,339.76749 L 377.20431,336.37993 L 374.13433,334.26271 L 371.06436,333.83927 L 370.00574,334.15684 z"
         id="path6453" />
      <path
         style="fill:url(#linearGradient6503);fill-opacity:1;fill-rule:evenodd;stroke:none;stroke-width:1px;stroke-linecap:butt;stroke-linejoin:miter;stroke-opacity:1"
         d="M 344.91662,351.62395 L 341.84665,351.62395 L 341.21147,354.16462 L 336.44772,357.76391 L 338.45907,359.56354 L 344.17558,363.16283 L 348.83349,365.28005 L 356.13792,366.65626 L 367.78266,367.50315 L 376.25156,366.02109 L 380.90946,364.32731 L 383.76771,362.21009 L 386.5201,358.6108 L 388.63733,357.12873 C 388.63733,357.12873 389.8018,353.74118 388.84905,353.31773 C 387.8963,352.89429 382.28565,350.56533 382.28565,350.56533 L 380.48601,350.88292 L 344.91662,351.62395 z"
         id="path6455" />
      <path
         id="path6457"
         d="M 387.57872,356.28184 C 387.57872,356.28184 386.20252,359.98699 385.67321,360.19872 C 385.14391,360.41043 382.49737,363.58628 382.49737,363.58628 L 375.72225,366.55039 L 366.19473,367.71487 L 356.87894,366.65626 L 349.15108,365.80936 L 343.75214,363.48042 L 339.83528,360.30458 L 337.08288,358.6108 L 336.13014,360.83388 L 334.64807,364.96247 L 333.37774,367.71487 L 331.36637,371.2083 L 329.14329,373.96068 L 329.35501,375.23101 L 330.41363,375.23101 L 336.87117,375.23101 L 346.18695,375.86619 L 356.77308,376.71308 L 364.07751,377.7717 L 371.59366,377.55996 L 385.14391,376.71308 L 397.31795,375.65445 L 397.42382,374.91344 L 396.25934,373.96068 L 394.24798,370.25553 L 391.07214,364.6449 L 388.84905,358.29321 L 387.57872,356.28184 z"
         style="fill:url(#linearGradient6505);fill-opacity:1;fill-rule:evenodd;stroke:#000000;stroke-width:0.18808889px;stroke-linecap:butt;stroke-linejoin:miter;stroke-opacity:1" />
      <path
         id="path6459"
         d="M 365.2828,378.39562 C 360.70841,378.35622 359.97018,377.8016 355.99155,377.20246 C 352.01293,376.60333 345.96421,376.1142 341.27676,375.8853 C 336.5893,375.65639 332.32942,375.92921 327.90087,376.39741 C 326.18494,375.21909 330.19403,375.51384 328.43384,374.26196 C 329.59226,372.03611 331.71742,370.36837 332.5816,368.03885 C 333.88652,366.12884 334.70785,364.03662 335.37663,361.75224 C 335.65062,360.34629 336.54055,358.00796 334.99732,357.42244 C 336.10558,355.1053 338.25178,357.6827 340.29762,353.15667 C 340.69931,350.82576 343.78045,350.53095 344.6837,350.90933 C 346.02542,345.52495 346.97741,338.80103 351.5523,335.15233 C 354.02548,333.6764 357.03898,332.77856 359.51807,334.63735 C 361.88154,335.95542 363.17675,338.72738 364.10936,341.24406 C 364.39589,342.82497 364.84939,344.21162 365.15178,341.76753 C 365.81417,339.02875 365.9994,335.49836 368.90844,334.14154 C 371.47105,332.5158 374.2457,333.32198 376.30953,335.16544 C 378.41386,336.90256 379.273,339.50778 379.99478,342.07852 C 380.93118,344.86131 380.96239,347.85868 381.47749,350.74533 C 381.27025,351.98129 381.97078,353.94078 380.37693,355.68442 C 378.78308,357.42808 375.03895,358.04597 371.81256,357.11628 C 369.29145,356.79474 366.75958,354.8547 365.78034,352.93145 C 364.80107,351.00823 364.61375,346.52573 364.09626,350.93098 C 363.26126,354.78973 360.42317,359.4351 356.41325,359.70166 C 352.40332,359.96822 347.46255,358.64454 346.14952,355.94167 C 344.83649,353.23879 344.17197,349.70097 342.07179,353.24342 C 341.50399,355.24452 337.45364,356.97147 338.03444,358.34561 C 340.42633,359.85561 342.11413,361.42752 344.79048,362.87255 C 347.46686,364.31758 349.30285,365.1982 353.90341,365.80443 C 358.50399,366.41066 367.01586,367.65857 371.54178,366.92838 C 376.06769,366.19818 378.06543,364.39396 380.55569,362.84678 C 383.04594,361.2996 385.29392,360.28394 386.52681,357.74299 C 389.50537,355.0672 388.2808,353.11083 385.63449,352.55569 C 382.98818,352.00055 381.27311,351.1151 382.43245,349.81975 C 385.1679,348.94734 386.2791,352.78181 389.03586,351.80441 C 392.98811,351.48042 388.40232,355.82641 389.66331,358.28362 C 390.96748,360.82498 391.84625,363.92474 392.80187,366.44666 C 393.7575,368.96857 395.84016,370.73651 396.14862,372.6696 C 396.45708,374.60266 402.27833,375.44929 398.6946,376.38678 C 393.671,377.31645 388.87415,377.0216 383.32396,377.59912 C 377.77377,378.17665 369.85718,378.43503 365.2828,378.39562 z M 376.56813,376.85147 C 379.90738,376.57677 389.94043,375.99962 396.60283,375.30013 C 396.37483,374.1236 393.83808,371.80098 393.28542,369.8269 C 390.84931,366.71692 390.12991,362.66421 388.53429,359.10818 C 387.62722,356.28342 386.04572,360.29348 384.36109,361.65979 C 382.67646,363.0261 380.1502,364.76182 376.79799,366.43705 C 373.44578,368.11228 368.26808,368.42368 362.99181,367.89409 C 357.71556,367.36451 349.2885,366.63789 345.30622,364.52984 C 341.32395,362.42178 340.16929,361.71054 337.94021,359.76837 C 336.08131,361.36412 335.89755,365.49978 334.43798,367.55937 C 332.97843,369.61896 332.24036,371.65939 330.58039,373.18323 C 327.68175,376.31579 332.74788,374.60836 335.40251,374.67538 C 338.05716,374.74241 341.78454,374.64538 346.06537,375.01192 C 350.3462,375.37847 356.10542,375.89229 361.03341,376.71413 C 365.96137,377.53598 370.97435,377.2386 375.91618,376.89657 C 375.91618,376.89657 376.49988,376.78109 376.56813,376.85145 C 376.63638,376.92182 373.22888,377.12617 376.56813,376.85147 z M 362.89998,351.34212 C 363.67921,350.17872 363.81814,346.55562 362.60504,349.52834 C 359.22606,352.37039 357.58952,347.0822 358.95175,344.72061 C 359.2737,341.41098 363.40658,341.7169 363.13212,344.74208 C 365.48666,343.19674 361.53716,334.5598 356.12348,334.72501 C 350.70979,334.89021 349.32192,339.1313 347.22228,345.99099 C 346.51082,348.80614 345.41325,351.79846 346.82209,354.6447 C 348.23091,357.49094 350.93723,358.48482 353.64294,358.65936 C 358.42237,359.37929 361.78234,355.71397 362.89998,351.34212 z M 376.06886,356.24771 C 379.67802,356.03186 381.38179,353.08328 380.38018,349.74799 C 380.2719,346.98106 379.83988,344.79542 379.02631,342.18166 C 378.52557,339.39909 376.8215,335.96979 374.11113,334.75445 C 371.93626,332.94133 368.7184,334.99048 367.41404,336.96273 C 366.63582,339.7625 365.72385,342.61342 365.73901,345.59366 C 365.21312,348.34098 366.11831,351.45635 367.73138,353.84363 C 369.58784,355.94716 373.34351,356.63583 376.06886,356.24771 z M 375.14544,349.96454 C 372.93749,348.33027 373.69168,344.19913 375.24364,342.22325 C 378.78685,339.93535 380.21895,346.32655 378.98641,348.34715 C 378.18992,349.61285 376.7353,350.62012 375.14544,349.96454 z M 376.5411,346.25992 C 377.71739,344.48777 374.28497,342.6545 375.32012,345.64865 C 375.77133,345.86734 375.92958,347.16256 376.5411,346.25992 z M 360.07295,349.34431 C 359.60491,348.6121 359.60506,350.07661 360.07295,349.34431 z M 360.14687,347.73022 C 360.50138,346.67664 362.20969,342.95956 359.92603,345.09267 C 359.63397,345.32899 359.48538,348.80799 360.14687,347.73022 z M 347.30192,332.29502 C 348.21102,330.34271 354.39276,326.3257 355.08585,329.33773 C 352.53657,328.97105 349.39313,332.49682 347.30192,332.29502 z M 377.78276,331.46966 C 375.97413,330.14147 372.13629,330.04176 370.52661,329.31199 C 372.39725,327.33414 376.64492,329.62942 378.75152,330.63415 C 380.43894,331.24997 378.37558,331.88739 377.78276,331.46966 z"
         style="fill:#000000;fill-opacity:1"
         sodipodi:nodetypes="czzccccccccccccccczczczzcczzzzczcczzzczzcccczzzzczczzzzzzcccczczccccccccccccccccccccccccccccc" />
      <path
         id="path6461"
         d="M 387.57872,356.28184 C 387.57872,356.28184 386.20252,359.98699 385.67321,360.19872 C 385.14391,360.41043 382.49737,363.58628 382.49737,363.58628 L 375.72225,366.55039 L 366.19473,367.71487 L 356.87894,366.65626 L 349.15108,365.80936 L 343.75214,363.48042 L 339.83528,360.30458 L 337.08288,358.6108 L 336.13014,360.83388 L 334.64807,364.96247 L 333.37774,367.71487 L 331.36637,371.2083 L 329.14329,373.96068 L 329.35501,375.23101 L 330.41363,375.23101 L 336.87117,375.23101 L 346.18695,375.86619 L 356.77308,376.71308 L 364.07751,377.7717 L 371.59366,377.55996 L 385.14391,376.71308 L 397.31795,375.65445 L 397.42382,374.91344 L 396.25934,373.96068 L 394.24798,370.25553 L 391.07214,364.6449 L 388.84905,358.29321 L 387.57872,356.28184 z"
         style="fill:url(#radialGradient6507);fill-opacity:1;fill-rule:evenodd;stroke:#000000;stroke-width:0.18808889px;stroke-linecap:butt;stroke-linejoin:miter;stroke-opacity:1" />
      <path
         style="fill:url(#radialGradient6509);fill-opacity:1;fill-rule:evenodd;stroke:#000000;stroke-width:0.18808889px;stroke-linecap:butt;stroke-linejoin:miter;stroke-opacity:1"
         d="M 387.57872,356.28184 C 387.57872,356.28184 386.20252,359.98699 385.67321,360.19872 C 385.14391,360.41043 381.36798,363.56036 381.36798,363.56036 L 375.72225,366.55039 L 366.19473,367.71487 L 356.87894,366.65626 L 349.15108,365.80936 L 343.75214,363.48042 L 339.83528,360.30458 L 337.15966,357.40789 L 336.13014,360.83388 L 334.64807,364.96247 L 333.37774,367.71487 L 331.36637,371.2083 L 329.14329,373.96068 L 329.35501,375.23101 L 330.41363,375.23101 L 336.87117,375.23101 L 346.18695,375.86619 L 356.77308,376.71308 L 364.07751,377.7717 L 371.59366,377.55996 L 385.14391,376.71308 L 397.31795,375.65445 L 397.42382,374.91344 L 396.25934,373.96068 L 394.24798,370.25553 L 391.07214,364.6449 L 388.84905,358.29321 L 387.57872,356.28184 z"
         id="path6463"
         sodipodi:nodetypes="cscccccccccccccccccccccccccccc" />
      <path
         style="fill:#e6e6e6;fill-rule:evenodd;stroke:#000000;stroke-width:1px;stroke-linecap:butt;stroke-linejoin:miter;stroke-opacity:1"
         d="M 349.48231,365.59944 C 351.06759,365.59944 356.14968,367.72116 356.14968,367.72116 C 356.14968,367.72116 358.13127,369.50459 358.92391,370.69355 C 359.71655,371.88251 359.51839,371.88251 361.10366,372.08066 C 362.68894,372.27882 363.8779,371.88251 365.06685,371.48619 C 366.25581,371.08987 366.45397,369.90091 367.64293,368.71195 C 368.83188,367.523 369.77186,367.67995 369.77186,367.67995 L 362.29262,367.32484 L 349.48231,365.59944 z"
         id="path6465"
         sodipodi:nodetypes="ccssssccc" />
      <path
         style="fill:#d40000;fill-rule:evenodd;stroke:#000000;stroke-width:0.82511151px;stroke-linecap:butt;stroke-linejoin:miter;stroke-opacity:1"
         d="M 362.32854,368.62451 C 360.49061,369.06088 358.83646,370.36996 358.83646,370.36996 L 360.49061,371.96996 L 362.51234,371.96996 L 366.0044,371.24268 L 366.73958,369.78815 L 365.63682,369.49723 L 364.53405,368.62451 L 362.32854,368.62451 z"
         id="path6467" />
      <path
         id="path6469"
         d="M 362.32854,368.62451 C 360.49061,369.06088 358.83646,370.36996 358.83646,370.36996 L 360.49061,371.96996 L 362.51234,371.96996 L 366.0044,371.24268 L 366.73958,369.78815 L 365.63682,369.49723 L 364.53405,368.62451 L 362.32854,368.62451 z"
         style="fill:url(#linearGradient6511);fill-opacity:1;fill-rule:evenodd;stroke:#000000;stroke-width:0.82511151px;stroke-linecap:butt;stroke-linejoin:miter;stroke-opacity:1" />
      <path
         style="fill:none;fill-rule:evenodd;stroke:#000000;stroke-width:1px;stroke-linecap:butt;stroke-linejoin:miter;stroke-opacity:1"
         d="M 362.81934,368.43687 C 362.81934,369.69795 362.39898,369.97819 362.39898,369.97819"
         id="path6471" />
    </g>
  </g>
  <g
     inkscape:groupmode="layer"
     id="layer2"
     inkscape:label="tux"
     style="display:inline"
     transform="translate(9.7821362e-6,-16.374913)">
    <g
       id="g2460">
      <path
         id="path2478"
         d="M 50.384159,49.321126 C 49.51265,49.238198 49.135478,49.149197 48.674027,48.917582 C 47.396187,48.276197 45.029523,46.376739 44.857039,45.854103 C 44.798584,45.67698 44.793165,45.359512 44.835789,44.61024 C 44.92639,43.017725 44.911117,41.804426 44.798772,41.669219 C 44.611854,41.444252 44.434507,41.432567 43.906506,41.610419 C 43.013877,41.911095 42.059473,41.808656 41.582994,41.36103 C 41.394014,41.18349 41.398384,41.09692 41.628099,40.467493 C 42.016733,39.402614 42.739381,38.3429 43.884235,37.159045 L 44.585951,36.433424 L 44.660381,34.23697 C 44.852886,28.555753 45.117382,27.641468 47.128152,25.706546 C 48.074431,24.795961 48.81071,24.35042 49.841042,24.0649 C 51.226516,23.680964 53.061068,23.79321 54.110979,24.326154 C 56.638934,25.609359 57.902636,29.226192 58.013887,35.496701 C 58.030593,36.43827 58.074831,37.383068 58.112194,37.596253 C 58.149557,37.809439 58.392254,38.507136 58.651519,39.146691 C 59.148134,40.371734 59.316089,40.956316 59.520777,42.17224 C 59.835082,44.039253 59.844032,44.809464 59.554784,45.098705 C 59.470731,45.182766 59.340183,45.251542 59.264681,45.251542 C 59.056439,45.251542 58.331636,44.946112 57.7049,44.594249 C 56.522661,43.930512 56.226568,43.85612 55.727869,44.097532 C 55.4041,44.254265 55.197574,44.543181 55.19722,44.839872 C 55.196944,45.070227 55.277177,45.156768 55.55265,45.223214 C 55.991143,45.328985 56.595065,45.743024 56.761197,46.05177 C 56.897056,46.304271 56.93083,46.701488 56.866182,47.286491 C 56.7698,48.158709 56.641169,48.361742 56.069097,48.544651 C 55.926972,48.590092 55.648844,48.694382 55.451036,48.776404 C 54.408918,49.208517 51.963548,49.471411 50.384159,49.321126 z M 51.466152,39.852853 C 52.220932,39.67049 52.719848,39.282141 53.055656,38.615607 C 53.339044,38.053116 53.737923,36.797219 53.740854,36.458226 L 53.743443,36.160019 L 54.286524,36.1215 C 54.76628,36.087468 54.869471,36.056503 55.171592,35.855904 C 56.621373,34.893306 57.145953,32.07828 56.392873,29.302276 C 55.792445,27.088917 54.287472,26.190471 52.165408,26.778526 L 51.715621,26.903168 L 50.952983,26.600983 C 50.363864,26.367551 50.087472,26.293333 49.738141,26.274781 C 49.309662,26.252025 49.26434,26.263683 48.874425,26.496975 C 48.39197,26.785642 47.830157,27.367335 47.605354,27.810957 C 47.33258,28.349254 47.137667,29.03243 46.967396,30.04697 C 46.359386,33.669947 46.75443,35.43207 48.213386,35.604862 C 48.394683,35.626333 48.543016,35.655831 48.543016,35.670412 C 48.543016,35.684991 48.495516,35.788768 48.437466,35.901023 C 48.172253,36.413889 48.696854,38.767301 49.238097,39.492705 C 49.59043,39.964918 50.436348,40.101657 51.466144,39.852852 L 51.466152,39.852853 z"
         style="fill:url(#linearGradient3250);fill-opacity:1;stroke:none;stroke-width:1;stroke-linecap:round;stroke-linejoin:miter;stroke-miterlimit:4;stroke-dasharray:none;stroke-dashoffset:0;stroke-opacity:1;display:inline" />
      <path
         id="path2485"
         d="M 48.834702,39.620356 C 49.382862,41.264845 48.286543,44.553821 47.921099,45.832866 C 47.555654,47.111913 48.103821,48.756401 48.103821,48.756401 L 49.382862,49.670005 L 54.864493,48.939122 L 54.316326,47.660076 L 53.402723,44.005658 L 52.489118,39.072193 L 48.834702,39.620356 z"
         style="fill:#ffffff;fill-rule:evenodd;stroke:none;stroke-width:1px;stroke-linecap:butt;stroke-linejoin:miter;stroke-opacity:1" />
      <path
         style="fill:#ffffff;fill-rule:evenodd;stroke:none;stroke-width:1px;stroke-linecap:butt;stroke-linejoin:miter;stroke-opacity:1"
         d="M 49.240754,35.397806 C 48.057734,38.415981 47.107353,41.557386 46.370704,44.715996 C 46.194725,45.408687 46.12028,46.184902 46.639535,46.753049 C 47.234058,47.592916 47.810161,48.5597 48.555426,49.210386 C 50.550864,49.344856 52.546005,49.483985 54.541631,49.615525 C 55.108819,47.470131 55.726417,45.251255 55.529868,43.015929 C 55.118689,40.402532 54.131414,37.927524 53.155832,35.481105 C 51.875937,35.412466 50.596367,35.337707 49.316479,35.26907 L 49.255044,35.373504 L 49.240754,35.397806 z"
         id="path2468" />
      <path
         sodipodi:nodetypes="cccccccccccc"
         style="fill:#ffccaa;fill-opacity:1;stroke:none;stroke-width:0.99999994;stroke-linecap:round;stroke-linejoin:miter;stroke-miterlimit:4;stroke-dasharray:none;stroke-dashoffset:0;stroke-opacity:1"
         d="M 56.404517,49.244464 C 55.599784,49.424189 54.651609,49.542425 54.053192,50.156972 C 53.779898,50.966835 54.684529,51.760292 55.484429,51.663937 C 56.574968,51.626726 57.737172,51.795049 58.782337,51.47462 C 59.201518,50.930962 59.17016,50.478331 58.806503,50.135383 C 58.304397,49.762904 57.079303,49.160131 56.404517,49.244464 z M 47.197252,48.954364 C 46.264322,48.639777 44.087797,49.567029 44.856166,50.929386 C 45.026624,51.938336 46.286137,51.889883 47.063608,51.955486 C 47.88632,51.912348 48.827173,51.978142 49.555016,51.58821 C 49.911402,51.082814 50.819152,50.2696 50.085057,50.210449 C 49.054769,49.917726 48.27936,48.931845 47.197252,48.954364 z"
         id="path2470" />
      <path
         style="fill:#ffd42a;fill-opacity:1;stroke:none;stroke-width:1;stroke-linecap:round;stroke-linejoin:miter;stroke-miterlimit:4;stroke-dasharray:none;stroke-dashoffset:0;stroke-opacity:1"
         d="M 49.358127,35.719645 C 48.847208,35.977201 49.35597,36.670437 49.346767,37.078942 C 49.558069,37.92337 49.829642,39.228438 50.884024,39.316671 C 51.86847,39.149848 52.573217,38.122923 52.682537,37.173601 C 52.693744,36.766842 52.960513,36.441022 53.121753,36.083134 C 51.854021,36.137443 50.59249,35.896695 49.358127,35.719645 z"
         id="path2472" />
      <path
         style="fill:#ffffff;fill-opacity:1;stroke:none;stroke-width:1;stroke-linecap:round;stroke-linejoin:miter;stroke-miterlimit:4;stroke-dasharray:none;stroke-dashoffset:0;stroke-opacity:1"
         d="M 49.873068,26.605916 C 48.426217,26.849147 47.888267,28.467012 47.633835,29.719629 C 47.436888,31.076762 47.129695,32.542806 47.56719,33.879482 C 48.020754,34.894527 49.120582,35.407094 50.198697,35.356156 C 51.586211,35.209624 52.906284,35.921693 54.28416,35.640132 C 55.286759,35.304195 55.69856,34.118923 56.018307,33.205513 C 56.621802,31.055734 55.735186,28.525522 53.73514,27.442698 C 53.198796,27.060932 52.46732,27.104901 52.019928,27.609297 C 51.778621,27.904114 51.46483,27.98725 51.304306,27.560074 C 50.984509,27.0777 50.520844,26.533236 49.873068,26.605916 z M 50.868881,29.812949 C 51.356176,29.792728 51.736128,30.371119 52.239537,30.047702 C 52.863978,29.541971 53.772749,29.870119 53.693493,30.698953 C 53.846188,31.526 53.22069,32.499076 52.311478,32.323294 C 51.789821,32.28657 52.016202,31.481226 51.45198,31.531949 C 50.905144,31.623442 50.13619,32.066936 49.778415,31.384282 C 49.354299,30.693927 50.170117,29.84697 50.868881,29.812949 z"
         id="path2474" />
      <path
         id="path2476"
         style="fill:#000000"
         d="M 54.871745,36.013051 C 54.181006,36.303367 49.814599,35.799136 48.215169,35.590444 C 46.457803,35.361144 46.566312,32.818475 46.918531,30.48451 C 47.190848,28.680011 47.472761,27.202657 49.162258,26.362238 C 49.813022,26.038525 50.706041,26.552388 51.707143,26.940943 C 54.117587,26.098802 55.725752,26.980494 56.344933,29.212684 C 57.096407,31.527359 56.792253,35.068144 54.871745,36.013051 z M 57.94079,33.014845 C 57.637606,29.12476 56.601782,24.122043 52.346924,23.821393 C 50.369698,23.657429 48.755709,24.16106 47.435209,25.35405 C 45.143671,27.424327 44.804201,28.443776 44.645175,33.732927 L 44.564348,36.421259 C 43.226708,37.691431 41.829875,39.247018 41.397474,41.051028 C 41.397474,41.737757 42.979678,42.039799 43.771055,41.685585 C 44.870832,41.193341 45.037296,41.524264 44.845682,43.821891 C 44.677698,45.836119 44.705315,45.998731 45.296699,46.477614 C 46.377375,47.46916 47.487231,48.352497 48.782523,49.024766 C 49.909926,49.617057 54.200729,49.481293 55.588699,48.747764 C 56.712824,48.415851 56.795994,48.323637 56.914082,47.278358 C 57.012455,46.407575 56.920609,46.05763 56.495132,45.682044 C 56.195407,45.41747 55.778345,45.200999 55.568309,45.200999 C 54.992424,45.200999 55.110252,44.436475 55.737914,44.100562 C 56.180162,43.863873 56.534717,43.949195 57.528041,44.531318 C 59.276383,45.555915 59.975697,45.680561 59.779249,43.777174 C 59.693959,42.950742 59.413587,40.889947 58.988718,39.867607 C 58.369334,38.377235 58.000677,37.837358 58.052678,36.404781 C 58.088348,35.422084 58.029778,33.84728 57.94079,33.014845 z M 44.456773,52.136257 C 43.6986,51.172391 43.693889,49.877688 44.87798,49.278945 C 46.160965,48.630197 46.095094,48.401175 45.338418,47.99622 C 44.666136,47.636419 43.823048,46.066789 44.021833,45.548772 C 44.102196,45.339342 44.261425,44.004852 44.040674,43.476536 C 43.710067,42.685279 42.861054,42.950162 41.78571,42.631064 C 40.537021,42.260519 40.392313,42.020901 40.467301,41.139485 C 40.555073,40.107892 42.296238,37.650582 43.314792,36.562218 C 43.938199,35.896088 43.895402,35.440732 43.957915,32.25627 C 44.108368,28.208357 44.855992,25.748719 48.203932,23.870139 C 49.459784,23.195007 52.212353,22.892739 53.603398,23.43031 C 56.275661,24.463011 56.895777,25.700736 57.855326,28.394307 C 58.555385,30.359457 58.853128,33.18913 58.776838,35.717578 C 58.746544,36.721899 59.139207,37.850597 59.425302,38.603839 C 60.379749,41.11675 60.716946,42.635546 60.726534,44.464744 C 60.731939,45.496061 60.652154,46.423792 60.549231,46.526361 C 60.446307,46.628932 59.846987,46.712853 59.2174,46.712853 C 58.232607,46.712853 58.009533,46.960209 57.617738,47.344241 C 57.005625,47.944215 56.878384,48.891938 58.447375,49.40465 C 59.97786,49.904784 60.54324,50.877405 60.151979,51.500769 C 59.879481,51.934927 58.61784,52.205968 56.218292,52.236499 C 54.665486,52.256256 54.088957,52.23502 53.388029,51.139801 C 52.679252,50.032314 51.499386,50.104215 51.03418,51.205148 C 50.471152,52.537601 50.454923,52.757303 47.604329,52.791806 C 45.132962,52.821721 44.969124,52.787599 44.456773,52.136257 z M 50.099528,50.93134 C 50.099528,50.302166 49.474406,50.281899 47.788968,49.72066 C 47.164794,49.512815 47.083924,49.101948 46.641966,49.120594 C 45.856566,49.153727 44.916625,49.853211 44.787415,50.540273 C 44.621812,51.420911 45.58144,52.005197 47.578484,51.922878 C 49.426993,51.84669 50.099528,51.587122 50.099528,50.93134 z M 58.759907,51.124943 C 59.469474,50.37369 58.529026,50.242831 57.794845,49.990526 C 56.70142,49.614763 56.816637,49.36228 55.63439,49.693282 C 54.186526,50.098661 53.955095,50.213586 54.358757,50.967837 C 54.616278,51.449026 54.930359,51.523284 56.707961,51.523284 C 58.316632,51.523284 58.759907,51.437227 58.759907,51.124943 z M 49.325994,39.576167 C 48.838894,39.089063 48.196356,36.559109 48.415031,35.989264 C 48.761555,35.086255 49.344032,35.587164 49.52386,36.942824 C 49.706829,38.322073 50.237485,39.153602 50.934701,39.153602 C 51.456821,39.153602 52.437627,38.05812 52.437627,37.474964 C 52.437627,36.634317 52.757908,36.1299 53.291683,36.1299 C 53.921704,36.1299 53.920698,36.106707 53.364413,37.807457 C 53.045926,38.781149 52.692984,39.291729 52.141092,39.577121 C 51.146886,40.091249 49.840633,40.090804 49.325994,39.576167 z M 54.488466,34.997672 C 55.197156,34.725718 56.099206,33.096154 56.052067,31.871465 C 55.987231,30.186798 55.65648,28.862555 54.609933,27.943668 C 53.560058,27.021869 52.686849,27.114497 52.16274,27.746005 C 51.676414,28.332003 51.505051,28.184029 51.013205,27.471124 C 50.194725,26.284781 48.612818,26.78558 48.162784,28.372104 C 47.997087,28.956226 47.665171,30.324493 47.577167,31.465795 C 47.427322,33.408818 47.644412,33.227224 48.29983,33.988912 C 48.922882,34.712994 49.199578,35.024385 50.448028,34.972612 C 51.219428,34.940625 51.670018,35.025558 52.007657,35.161352 C 52.749153,35.459575 53.883328,35.229886 54.488466,34.997672 z M 51.691109,32.000884 C 51.579996,31.575971 51.460322,31.516289 51.182216,31.747103 C 50.574437,32.251512 49.562294,31.946382 49.460551,31.228084 C 49.294187,30.053436 50.75797,29.06256 51.525593,29.830186 C 51.738942,30.043533 51.977363,30.031268 52.368804,29.786805 C 52.66897,29.59935 53.100583,29.517358 53.327932,29.604596 C 53.979138,29.854488 54.177047,31.140973 53.680802,31.898342 C 53.130732,32.737852 51.900414,32.801252 51.691109,32.000884 z"
         sodipodi:nodetypes="cssscccccscccsscccssssssssccsssssssccssssssssssssssccssssccssssccsssssssccsssssssssccssssssc" />
    </g>
  </g>
</svg>
