<?xml version="1.0" encoding="UTF-8" standalone="no"?>
<!-- Created with Inkscape (http://www.inkscape.org/) -->

<svg
   xmlns:dc="http://purl.org/dc/elements/1.1/"
   xmlns:cc="http://creativecommons.org/ns#"
   xmlns:rdf="http://www.w3.org/1999/02/22-rdf-syntax-ns#"
   xmlns:svg="http://www.w3.org/2000/svg"
   xmlns="http://www.w3.org/2000/svg"
   xmlns:xlink="http://www.w3.org/1999/xlink"
   xmlns:sodipodi="http://sodipodi.sourceforge.net/DTD/sodipodi-0.dtd"
   xmlns:inkscape="http://www.inkscape.org/namespaces/inkscape"
   width="62.246441"
   height="49.119816"
   id="svg6520"
   version="1.1"
   inkscape:version="0.47 r22583"
   sodipodi:docname="Neues Dokument 14">
  <title
     id="title6763">Tastentierchen</title>
  <defs
     id="defs6522">
    <inkscape:perspective
       sodipodi:type="inkscape:persp3d"
       inkscape:vp_x="0 : 526.18109 : 1"
       inkscape:vp_y="0 : 1000 : 0"
       inkscape:vp_z="744.09448 : 526.18109 : 1"
       inkscape:persp3d-origin="372.04724 : 350.78739 : 1"
       id="perspective6528" />
    <inkscape:perspective
       id="perspective6402"
       inkscape:persp3d-origin="0.5 : 0.33333333 : 1"
       inkscape:vp_z="1 : 0.5 : 1"
       inkscape:vp_y="0 : 1000 : 0"
       inkscape:vp_x="0 : 0.5 : 1"
       sodipodi:type="inkscape:persp3d" />
    <radialGradient
       inkscape:collect="always"
       xlink:href="#linearGradient3024-6"
       id="radialGradient4783"
       gradientUnits="userSpaceOnUse"
       gradientTransform="matrix(0.79094842,-0.06005054,0.02443908,0.32166036,255.25967,268.5437)"
       cx="769.60938"
       cy="2219.71"
       fx="769.60938"
       fy="2219.71"
       r="46.777485" />
    <linearGradient
       inkscape:collect="always"
       id="linearGradient3024-6">
      <stop
         style="stop-color:#999999;stop-opacity:1;"
         offset="0"
         id="stop3026-1" />
      <stop
         style="stop-color:#999999;stop-opacity:0;"
         offset="1"
         id="stop3028-7" />
    </linearGradient>
    <radialGradient
       inkscape:collect="always"
       xlink:href="#linearGradient4803"
       id="radialGradient4809"
       cx="916.5155"
       cy="957.49255"
       fx="916.5155"
       fy="957.49255"
       r="24.25499"
       gradientTransform="matrix(1.5485986,0.03315118,-0.0063405,0.29618503,-496.21449,629.28716)"
       gradientUnits="userSpaceOnUse" />
    <linearGradient
       inkscape:collect="always"
       id="linearGradient4803">
      <stop
         style="stop-color:#cccccc;stop-opacity:1;"
         offset="0"
         id="stop4805" />
      <stop
         style="stop-color:#cccccc;stop-opacity:0;"
         offset="1"
         id="stop4807" />
    </linearGradient>
    <radialGradient
       inkscape:collect="always"
       xlink:href="#linearGradient4833"
       id="radialGradient4839"
       cx="898.03229"
       cy="917.81659"
       fx="898.03229"
       fy="917.81659"
       r="4.4813037"
       gradientTransform="matrix(2.0000193,-0.01873965,0.01741665,1.8588212,-915.95205,-773.65462)"
       gradientUnits="userSpaceOnUse" />
    <linearGradient
       inkscape:collect="always"
       id="linearGradient4833">
      <stop
         style="stop-color:#ffe6d5;stop-opacity:1"
         offset="0"
         id="stop4835" />
      <stop
         style="stop-color:#ffe6d5;stop-opacity:0;"
         offset="1"
         id="stop4837" />
    </linearGradient>
    <radialGradient
       inkscape:collect="always"
       xlink:href="#linearGradient4797"
       id="radialGradient4777"
       gradientUnits="userSpaceOnUse"
       gradientTransform="matrix(1.1371266,-1.0304935e-6,0.01441772,-0.28762901,801.79516,1118.5412)"
       cx="93.949982"
       cy="651.87311"
       fx="93.949982"
       fy="651.87311"
       r="37.976631" />
    <linearGradient
       id="linearGradient4797"
       inkscape:collect="always">
      <stop
         id="stop4799"
         offset="0"
         style="stop-color:#f9f9f9;stop-opacity:1" />
      <stop
         id="stop4801"
         offset="1"
         style="stop-color:#cccccc;stop-opacity:0;" />
    </linearGradient>
    <radialGradient
       inkscape:collect="always"
       xlink:href="#linearGradient4855"
       id="radialGradient4853"
       gradientUnits="userSpaceOnUse"
       gradientTransform="matrix(-3.3916953,-2.1217744,1.0161411,-1.6243203,3039.138,4310.6178)"
       cx="904.10651"
       cy="910.81702"
       fx="904.10651"
       fy="910.81702"
       r="4.4813037" />
    <linearGradient
       inkscape:collect="always"
       id="linearGradient4855">
      <stop
         style="stop-color:#de8787;stop-opacity:1"
         offset="0"
         id="stop4857" />
      <stop
         style="stop-color:#ffe6d5;stop-opacity:0;"
         offset="1"
         id="stop4859" />
    </linearGradient>
    <radialGradient
       inkscape:collect="always"
       xlink:href="#linearGradient4845"
       id="radialGradient4843"
       gradientUnits="userSpaceOnUse"
       gradientTransform="matrix(-4.0006904,-2.3023831e-5,1.0228327e-5,-1.7737358,4515.8931,2528.106)"
       cx="902.55035"
       cy="913.58606"
       fx="902.55035"
       fy="913.58606"
       r="4.4813037" />
    <linearGradient
       id="linearGradient4845"
       inkscape:collect="always">
      <stop
         id="stop4847"
         offset="0"
         style="stop-color:#ffe680;stop-opacity:1" />
      <stop
         id="stop4849"
         offset="1"
         style="stop-color:#ffe6d5;stop-opacity:0;" />
    </linearGradient>
    <radialGradient
       inkscape:collect="always"
       xlink:href="#linearGradient3056-2"
       id="radialGradient4760"
       gradientUnits="userSpaceOnUse"
       gradientTransform="matrix(-0.85288793,-1.4824334,1.0531025,-0.6058819,-33.403758,742.83287)"
       cx="159.27368"
       cy="312.72891"
       fx="159.27368"
       fy="312.72891"
       r="11.471598" />
    <linearGradient
       inkscape:collect="always"
       id="linearGradient3056-2">
      <stop
         style="stop-color:#e6e6e6;stop-opacity:1;"
         offset="0"
         id="stop3058-4" />
      <stop
         style="stop-color:#e6e6e6;stop-opacity:0;"
         offset="1"
         id="stop3060-7" />
    </linearGradient>
    <radialGradient
       inkscape:collect="always"
       xlink:href="#linearGradient3068-8"
       id="radialGradient4757"
       gradientUnits="userSpaceOnUse"
       gradientTransform="matrix(0.99377389,-0.34213424,0.6333753,1.8396894,-200.13811,-178.35475)"
       cx="192.50502"
       cy="302.92819"
       fx="192.50502"
       fy="302.92819"
       r="11.509131" />
    <linearGradient
       inkscape:collect="always"
       id="linearGradient3068-8">
      <stop
         style="stop-color:#e6e6e6;stop-opacity:1;"
         offset="0"
         id="stop3070-6" />
      <stop
         style="stop-color:#e6e6e6;stop-opacity:0;"
         offset="1"
         id="stop3072-3" />
    </linearGradient>
    <radialGradient
       inkscape:collect="always"
       xlink:href="#linearGradient3078-7"
       id="radialGradient4754"
       gradientUnits="userSpaceOnUse"
       gradientTransform="matrix(-0.41231173,-1.0526186,0.81760431,-0.32024963,9.1160018,567.82607)"
       cx="171.46219"
       cy="292.07318"
       fx="171.46219"
       fy="292.07318"
       r="7.7786336" />
    <linearGradient
       inkscape:collect="always"
       id="linearGradient3078-7">
      <stop
         style="stop-color:#e6e6e6;stop-opacity:1;"
         offset="0"
         id="stop3080-7" />
      <stop
         style="stop-color:#e6e6e6;stop-opacity:0;"
         offset="1"
         id="stop3082-2" />
    </linearGradient>
    <radialGradient
       inkscape:collect="always"
       xlink:href="#linearGradient3088-3"
       id="radialGradient4751"
       gradientUnits="userSpaceOnUse"
       gradientTransform="matrix(-0.7401647,-0.4802476,0.24466752,-0.3770846,267.16906,493.91166)"
       cx="195.50186"
       cy="290.36057"
       fx="195.50186"
       fy="290.36057"
       r="7.7561717" />
    <linearGradient
       inkscape:collect="always"
       id="linearGradient3088-3">
      <stop
         style="stop-color:#e6e6e6;stop-opacity:1;"
         offset="0"
         id="stop3090-7" />
      <stop
         style="stop-color:#e6e6e6;stop-opacity:0;"
         offset="1"
         id="stop3092-2" />
    </linearGradient>
    <radialGradient
       inkscape:collect="always"
       xlink:href="#linearGradient4813"
       id="radialGradient4819"
       cx="891.71777"
       cy="933.68256"
       fx="891.71777"
       fy="933.68256"
       r="4.3909578"
       gradientTransform="matrix(1.6227711,-1.9211544,2.1185867,1.7895333,-2526.9519,977.13128)"
       gradientUnits="userSpaceOnUse" />
    <linearGradient
       id="linearGradient4813">
      <stop
         style="stop-color:#ff0a0a;stop-opacity:1;"
         offset="0"
         id="stop4815" />
      <stop
         style="stop-color:#ffb380;stop-opacity:0;"
         offset="1"
         id="stop4817" />
    </linearGradient>
    <radialGradient
       inkscape:collect="always"
       xlink:href="#linearGradient4825"
       id="radialGradient4823"
       gradientUnits="userSpaceOnUse"
       gradientTransform="matrix(-3.4220213,1.6947576,-0.97791665,-1.9745773,4900.3918,1224.327)"
       cx="903.8028"
       cy="928.54962"
       fx="903.8028"
       fy="928.54962"
       r="4.3909578" />
    <linearGradient
       id="linearGradient4825">
      <stop
         id="stop4827"
         offset="0"
         style="stop-color:#ffff1a;stop-opacity:1;" />
      <stop
         id="stop4829"
         offset="1"
         style="stop-color:#ffb380;stop-opacity:0;" />
    </linearGradient>
    <radialGradient
       inkscape:collect="always"
       xlink:href="#linearGradient4863"
       id="radialGradient4873"
       gradientUnits="userSpaceOnUse"
       gradientTransform="matrix(-1.1953241,-2.2787367,0.85793242,-0.4500335,1239.2464,3410.5002)"
       cx="921.58246"
       cy="911.59534"
       fx="921.58246"
       fy="911.59534"
       r="5.0424676" />
    <linearGradient
       id="linearGradient4863">
      <stop
         style="stop-color:#ffcc00;stop-opacity:1"
         offset="0"
         id="stop4865" />
      <stop
         style="stop-color:#ffccaa;stop-opacity:0;"
         offset="1"
         id="stop4867" />
    </linearGradient>
    <radialGradient
       inkscape:collect="always"
       xlink:href="#linearGradient5647"
       id="radialGradient4869"
       cx="914.16962"
       cy="905.22815"
       fx="914.16962"
       fy="905.22815"
       r="5.0424676"
       gradientTransform="matrix(-3.4887356,-0.91539604,0.24587714,-0.93708197,3885.4802,2590.9828)"
       gradientUnits="userSpaceOnUse" />
    <linearGradient
       id="linearGradient5647">
      <stop
         id="stop5649"
         offset="0"
         style="stop-color:#ff5800;stop-opacity:1" />
      <stop
         id="stop5651"
         offset="1"
         style="stop-color:#ffccaa;stop-opacity:0;" />
    </linearGradient>
    <radialGradient
       inkscape:collect="always"
       xlink:href="#linearGradient5655"
       id="radialGradient5661"
       cx="939.73511"
       cy="913.07269"
       fx="939.73511"
       fy="913.07269"
       r="4.0015359"
       gradientTransform="matrix(1.6957708,1.2272013,-0.63456072,0.8768478,-75.666127,-1040.6664)"
       gradientUnits="userSpaceOnUse" />
    <linearGradient
       inkscape:collect="always"
       id="linearGradient5655">
      <stop
         style="stop-color:#ff5555;stop-opacity:1"
         offset="0"
         id="stop5657" />
      <stop
         style="stop-color:#ffccaa;stop-opacity:0;"
         offset="1"
         id="stop5659" />
    </linearGradient>
    <radialGradient
       inkscape:collect="always"
       xlink:href="#linearGradient5665"
       id="radialGradient5671"
       gradientUnits="userSpaceOnUse"
       gradientTransform="matrix(3.8264889,1.6218566,-0.67533546,1.5933319,-2036.1574,-2059.5107)"
       cx="938.20667"
       cy="905.28235"
       fx="938.20667"
       fy="905.28235"
       r="4.0015359" />
    <linearGradient
       id="linearGradient5665"
       inkscape:collect="always">
      <stop
         id="stop5667"
         offset="0"
         style="stop-color:#ffdd55;stop-opacity:1" />
      <stop
         id="stop5669"
         offset="1"
         style="stop-color:#ffccaa;stop-opacity:0;" />
    </linearGradient>
    <radialGradient
       inkscape:collect="always"
       xlink:href="#linearGradient5675"
       id="radialGradient5681"
       cx="944.04388"
       cy="931.27417"
       fx="944.04388"
       fy="931.27417"
       r="5.5315232"
       gradientTransform="matrix(2.2113449,-0.68857166,0.23657968,0.75977208,-1365.1594,872.91404)"
       gradientUnits="userSpaceOnUse" />
    <linearGradient
       inkscape:collect="always"
       id="linearGradient5675">
      <stop
         style="stop-color:#f80000;stop-opacity:1"
         offset="0"
         id="stop5677" />
      <stop
         style="stop-color:#ffb380;stop-opacity:0;"
         offset="1"
         id="stop5679" />
    </linearGradient>
    <radialGradient
       inkscape:collect="always"
       xlink:href="#linearGradient5685"
       id="radialGradient5691"
       gradientUnits="userSpaceOnUse"
       gradientTransform="matrix(1.5095934,-0.02679232,0.01412019,0.79562816,-495.27861,214.62631)"
       cx="946.19531"
       cy="922.85242"
       fx="946.19531"
       fy="922.85242"
       r="5.5315232" />
    <linearGradient
       id="linearGradient5685"
       inkscape:collect="always">
      <stop
         id="stop5687"
         offset="0"
         style="stop-color:#f8f300;stop-opacity:1" />
      <stop
         id="stop5689"
         offset="1"
         style="stop-color:#ffb380;stop-opacity:0;" />
    </linearGradient>
    <radialGradient
       r="5.5315232"
       fy="922.85242"
       fx="946.19531"
       cy="922.85242"
       cx="946.19531"
       gradientTransform="matrix(1.5095934,-0.02679232,0.01412019,0.79562816,-495.27861,214.62631)"
       gradientUnits="userSpaceOnUse"
       id="radialGradient6518"
       xlink:href="#linearGradient5685"
       inkscape:collect="always" />
  </defs>
  <sodipodi:namedview
     id="base"
     pagecolor="#ffffff"
     bordercolor="#666666"
     borderopacity="1.0"
     inkscape:pageopacity="0.0"
     inkscape:pageshadow="2"
     inkscape:zoom="2.8"
     inkscape:cx="114.81944"
     inkscape:cy="31.159995"
     inkscape:document-units="px"
     inkscape:current-layer="layer1"
     showgrid="false"
     inkscape:window-width="919"
     inkscape:window-height="483"
     inkscape:window-x="445"
     inkscape:window-y="265"
     inkscape:window-maximized="0" />
  <metadata
     id="metadata6525">
    <rdf:RDF>
      <cc:Work
         rdf:about="">
        <dc:format>image/svg+xml</dc:format>
        <dc:type
           rdf:resource="http://purl.org/dc/dcmitype/StillImage" />
        <cc:license
           rdf:resource="http://creativecommons.org/licenses/publicdomain/" />
        <dc:title>Tastentierchen</dc:title>
        <dc:creator>
          <cc:Agent>
            <dc:title>Martin Engel</dc:title>
          </cc:Agent>
        </dc:creator>
        <dc:source>neo-layout.org</dc:source>
      </cc:Work>
      <cc:License
         rdf:about="http://creativecommons.org/licenses/publicdomain/">
        <cc:permits
           rdf:resource="http://creativecommons.org/ns#Reproduction" />
        <cc:permits
           rdf:resource="http://creativecommons.org/ns#Distribution" />
        <cc:permits
           rdf:resource="http://creativecommons.org/ns#DerivativeWorks" />
      </cc:License>
    </rdf:RDF>
  </metadata>
  <g
     inkscape:label="Ebene 1"
     inkscape:groupmode="layer"
     id="layer1"
     transform="translate(-1.3767724,-1001.0166)">
    <g
       transform="translate(-888.03072,104.36549)"
       id="g5695">
      <path
         style="fill:#666666;stroke:none"
         d="m 945.15945,944.01203 c -2.87393,1.53978 -14.3666,1.4331 -16.05369,1.01083 -1.68709,-0.42228 -8.50207,0.37802 -10.5575,0.33271 -2.05544,-0.0453 -15.31404,0.25682 -16.80668,0.38298 -1.49264,0.12616 -5.97956,-0.14017 -6.91712,-0.39523 -0.93756,-0.25507 -1.22409,-0.70925 0.35164,-1.57445 1.57573,-0.8652 11.71637,-4.07412 22.17719,-3.73036 14.90224,0.4897 25.33795,-1.86739 27.80616,3.97352 z"
         id="path4571"
         sodipodi:nodetypes="cssssssc" />
      <path
         style="color:#000000;fill:#bebebe;fill-opacity:1;fill-rule:evenodd;stroke:none;stroke-width:10;marker:none;visibility:visible;display:inline;overflow:visible;enable-background:accumulate"
         d="m 899.22479,944.98584 c -1.23553,-0.026 -3.50105,-0.61832 -3.54252,-0.62841 -0.41185,-0.10028 0.16017,-0.35403 0.37615,-0.76857 0.61282,-1.17615 1.6511,-2.88505 2.02976,-3.86179 0.59806,-1.5427 1.1069,-2.78695 1.55256,-5.02558 0.36153,-1.81606 0.35949,-1.80872 0.48667,-1.74623 0.0593,0.0291 0.477,0.13527 0.92816,0.23582 2.75128,0.61321 7.65045,0.85947 15.13215,1.45983 1.24272,0.0997 2.71642,0.22659 3.27488,0.28192 5.33412,0.52855 9.98237,0.39883 13.76535,-0.38416 2.59793,-0.53771 4.97141,-1.18377 6.00789,-2.09964 0.11675,-0.10317 0.2364,-0.18812 0.26589,-0.18879 0.0295,-6.8e-4 0.15495,0.44411 0.2788,0.98842 0.58221,2.55897 1.26341,4.02707 1.95235,5.64695 0.40579,0.95408 1.29419,2.91866 1.9437,4.0723 l 0.43902,0.77979 -0.50522,0.0525 c -1.99534,0.20718 -3.334,0.27796 -6.61775,0.3499 -4.32254,0.0949 -6.76752,0.0724 -13.65674,-0.1797 l -3.4179,-0.12508 -3.4816,0.28326 c -1.91489,0.15579 -3.73154,0.30453 -4.03701,0.33051 -3.24985,0.2765 -10.8047,0.57662 -13.17459,0.52679 l 0,-2e-5 z"
         id="path4583"
         sodipodi:nodetypes="cssssssssssssscccscccscc" />
      <path
         sodipodi:nodetypes="cssssssssssssscccscccscc"
         id="path4581"
         d="m 899.22479,944.98584 c -1.23553,-0.026 -3.54665,-0.57115 -3.58812,-0.58125 -0.41186,-0.10028 0.16017,-0.35403 0.37615,-0.76856 0.61281,-1.17615 1.6967,-2.93222 2.07536,-3.90896 0.59806,-1.5427 1.1069,-2.78695 1.55256,-5.02558 0.36153,-1.81606 0.35949,-1.80872 0.48667,-1.74623 0.0593,0.0291 0.477,0.13527 0.92816,0.23582 2.75128,0.61321 7.48832,0.96101 14.97002,1.56137 1.24272,0.0997 2.71642,0.22659 3.27488,0.28193 5.33412,0.52855 9.98237,0.39883 13.76535,-0.38416 2.59793,-0.53771 5.13354,-1.28532 6.17002,-2.20119 0.11675,-0.10317 0.2364,-0.18812 0.26589,-0.18879 0.0295,-6.8e-4 0.15495,0.44411 0.2788,0.98842 0.58221,2.55897 1.26341,4.02707 1.95235,5.64695 0.40579,0.95408 1.29419,2.91866 1.9437,4.0723 l 0.43902,0.77979 -0.50522,0.0525 c -1.99534,0.20718 -3.334,0.27796 -6.61775,0.3499 -4.32254,0.0949 -6.76752,0.0724 -13.65674,-0.1797 l -3.4179,-0.12508 -3.4816,0.28326 c -1.91489,0.15579 -3.73154,0.30453 -4.03701,0.33051 -3.24985,0.2765 -10.8047,0.57662 -13.17459,0.52679 l 0,-2e-5 z"
         style="color:#000000;fill:url(#radialGradient4783);fill-opacity:1;fill-rule:evenodd;stroke:none;stroke-width:10;marker:none;visibility:visible;display:inline;overflow:visible;enable-background:accumulate" />
      <path
         sodipodi:nodetypes="csssssssssssscccsccccc"
         id="path4579"
         d="m 895.75099,944.30973 c -0.41186,-0.10028 0.16017,-0.35403 0.37615,-0.76856 0.61281,-1.17615 1.58238,-2.83736 1.96104,-3.8141 0.59806,-1.5427 1.1069,-2.78695 1.55256,-5.02558 0.36153,-1.81606 0.35949,-1.80872 0.48667,-1.74623 0.0593,0.0291 0.477,0.13527 0.92816,0.23582 2.75128,0.61321 7.48742,0.8958 14.96911,1.49616 1.24272,0.0997 2.71642,0.22659 3.27488,0.28193 5.33412,0.52855 9.98237,0.39883 13.76535,-0.38416 2.59793,-0.53772 5.13445,-1.22011 6.17093,-2.13598 0.11675,-0.10317 0.2364,-0.18812 0.26589,-0.18879 0.0295,-6.8e-4 0.15495,0.44411 0.2788,0.98842 0.58221,2.55897 1.26341,4.02707 1.95235,5.64695 0.40579,0.95408 1.29419,2.91866 1.9437,4.0723 l 0.43902,0.77979 -0.50522,0.0525 c -1.99534,0.20718 -3.334,0.27796 -6.61775,0.3499 -4.32254,0.0949 -6.76752,0.0724 -13.65674,-0.1797 l -3.4179,-0.12508 -3.4816,0.28326 c -1.91489,0.15579 -3.73154,0.30453 -4.03701,0.33051 -5.53707,0.15035 -11.72731,0.30035 -16.64839,-0.14934 z"
         style="color:#000000;fill:url(#radialGradient4809);fill-opacity:1;fill-rule:evenodd;stroke:none;stroke-width:10;marker:none;visibility:visible;display:inline;overflow:visible;enable-background:accumulate" />
      <path
         sodipodi:nodetypes="ccsc"
         style="fill:#ffe6d5;stroke:#000000;stroke-width:0.70793515px;stroke-linecap:butt;stroke-linejoin:miter;stroke-opacity:1"
         d="m 900.0041,915.21957 c -1.43923,-1.02546 -3.5349,-7.20444 -3.5349,-7.20444 0,0 8.93268,-0.38691 8.21346,1.36796 -0.71922,1.75486 -2.35477,5.77913 -4.67856,5.83648 z"
         id="path4613" />
      <path
         id="path4831"
         d="m 900.0041,915.21957 c -1.43923,-1.02546 -3.5349,-7.20444 -3.5349,-7.20444 0,0 8.93268,-0.38691 8.21346,1.36796 -0.71922,1.75486 -2.35477,5.77913 -4.67856,5.83648 z"
         style="fill:url(#radialGradient4839);fill-opacity:1;stroke:#000000;stroke-width:0.70793515px;stroke-linecap:butt;stroke-linejoin:miter;stroke-opacity:1"
         sodipodi:nodetypes="ccsc" />
      <path
         sodipodi:nodetypes="cssssssssssscccsssssssssssssssssssssssssccc"
         id="path4587"
         d="m 924.90725,935.34344 c -1.90537,-0.0434 -3.4692,-0.13796 -5.43436,-0.3286 -0.7386,-0.0717 -2.49231,-0.22313 -3.89713,-0.33661 -5.91951,-0.47821 -10.85672,-0.65508 -13.5248,-1.13123 -1.01461,-0.18107 -2.09388,-0.41484 -2.15322,-0.46639 -0.0115,-0.01 0.13486,-0.0726 0.32516,-0.13913 0.56679,-0.19823 1.72209,-0.83206 2.4186,-1.32692 1.24724,-0.88613 3.72777,-3.01364 3.82304,-3.41665 0.021,-0.0888 0.0208,-0.2241 -5.7e-4,-0.3006 -0.0213,-0.0765 -0.009,-0.1962 0.0269,-0.26601 0.0782,-0.15148 0.43437,-0.32004 0.68799,-0.32562 0.17183,-0.004 0.19284,0.0287 0.37794,0.58404 0.1078,0.32342 0.34052,0.87138 0.51717,1.21769 l 0.32117,0.62964 0.35074,0.034 c 0.1929,0.0187 0.80777,0.0864 1.36636,0.15045 0.61615,0.0707 1.42725,0.11238 2.06218,0.10607 0.5756,-0.006 1.60744,6.2e-4 2.29297,0.0141 1.6066,0.0316 2.17348,-0.0936 2.54562,-0.47693 0.30444,-0.31342 0.34605,-0.36676 0.92257,-0.55643 0.35017,-0.11521 0.49526,-0.20675 0.72741,-0.45896 0.15949,-0.17328 0.45344,-0.42356 0.65322,-0.55618 0.27862,-0.18496 0.37204,-0.28852 0.40103,-0.4446 0.0208,-0.1119 0.064,-0.20406 0.096,-0.20479 0.15668,-0.004 0.42072,0.30125 0.63414,0.73211 0.26917,0.54339 0.4619,0.6841 1.26384,0.92267 0.3408,0.10139 0.52129,0.20015 0.69723,0.38151 0.13057,0.13458 0.35355,0.29204 0.49553,0.34991 0.41882,0.1707 1.75405,0.14926 3.69033,-0.0593 0.91613,-0.0986 2.09428,-0.21299 2.61813,-0.25407 1.09328,-0.0857 1.38717,-0.18684 1.80794,-0.62206 0.30785,-0.3184 0.45696,-0.76654 0.45026,-1.3532 -0.005,-0.43408 0.021,-0.50362 0.23138,-0.61967 0.29991,-0.16546 1.01266,-0.0594 1.14036,0.16966 0.0407,0.073 0.0575,0.22808 0.0373,0.34453 -0.0638,0.36761 0.27478,0.7648 1.63653,1.92007 1.42246,1.20676 2.65083,1.9624 3.96456,2.43882 0.38933,0.14119 0.69828,0.28768 0.68656,0.32552 -0.053,0.17106 -0.85146,0.74523 -1.50209,1.08008 -1.90098,0.97835 -4.46281,1.65395 -7.59338,2.00249 -1.05118,0.11703 -4.18319,0.2629 -5.16475,0.24055 l 0,0 1.2e-4,0 z"
         style="color:#000000;fill:#4d4d4d;fill-opacity:1;fill-rule:evenodd;stroke:none;stroke-width:10;marker:none;visibility:visible;display:inline;overflow:visible;enable-background:accumulate" />
      <path
         style="color:#000000;fill:url(#radialGradient4777);fill-opacity:1;fill-rule:evenodd;stroke:none;stroke-width:10;marker:none;visibility:visible;display:inline;overflow:visible;enable-background:accumulate"
         d="m 924.90725,935.34344 c -1.90537,-0.0434 -3.4692,-0.13796 -5.43436,-0.3286 -0.7386,-0.0717 -2.49231,-0.22313 -3.89713,-0.33661 -5.91951,-0.47821 -10.92167,-0.62098 -13.58974,-1.09713 -1.01461,-0.18107 -2.09389,-0.41484 -2.15322,-0.46639 -0.0115,-0.01 0.13486,-0.0726 0.32515,-0.13913 0.56679,-0.19823 1.72209,-0.83206 2.41861,-1.32692 1.24724,-0.88613 3.79271,-3.04774 3.88798,-3.45075 0.021,-0.0888 0.0208,-0.2241 -5.7e-4,-0.3006 -0.0213,-0.0765 -0.009,-0.1962 0.0269,-0.26601 0.0782,-0.15148 0.43437,-0.32004 0.68799,-0.32562 0.17183,-0.004 0.19284,0.0287 0.37794,0.58404 0.1078,0.32342 0.34052,0.87138 0.51717,1.21769 l 0.32117,0.62964 0.35074,0.034 c 0.1929,0.0187 0.80777,0.0864 1.36636,0.15045 0.61615,0.0707 1.42725,0.11238 2.06218,0.10607 0.5756,-0.006 1.60744,6.2e-4 2.29297,0.0141 1.6066,0.0316 2.17348,-0.0936 2.54562,-0.47693 0.30444,-0.31342 0.34605,-0.36676 0.92257,-0.55643 0.35017,-0.11521 0.49526,-0.20675 0.72741,-0.45896 0.15949,-0.17328 0.45344,-0.42356 0.65322,-0.55618 0.27862,-0.18496 0.37204,-0.28852 0.40103,-0.4446 0.0208,-0.1119 0.064,-0.20406 0.096,-0.20479 0.15668,-0.004 0.42072,0.30125 0.63414,0.73211 0.26917,0.54339 0.4619,0.6841 1.26384,0.92267 0.3408,0.10139 0.52129,0.20015 0.69723,0.38151 0.13057,0.13458 0.35355,0.29204 0.49553,0.34991 0.41882,0.1707 1.75405,0.14926 3.69033,-0.0593 0.91613,-0.0986 2.09428,-0.21299 2.61813,-0.25407 1.09328,-0.0857 1.38717,-0.18684 1.80794,-0.62206 0.30785,-0.3184 0.45696,-0.76654 0.45026,-1.3532 -0.005,-0.43408 0.021,-0.50362 0.23138,-0.61967 0.29991,-0.16546 1.01266,-0.0594 1.14036,0.16966 0.0407,0.073 0.0575,0.22808 0.0373,0.34453 -0.0638,0.36761 0.27478,0.7648 1.63653,1.92007 1.42246,1.20676 2.65083,1.9624 3.96456,2.43882 0.38933,0.14119 0.69828,0.28768 0.68656,0.32552 -0.053,0.17106 -0.85146,0.74523 -1.50209,1.08008 -1.90098,0.97835 -4.46281,1.65395 -7.59338,2.00249 -1.05118,0.11703 -4.18319,0.2629 -5.16475,0.24055 l 0,0 1.2e-4,0 z"
         id="path4585"
         sodipodi:nodetypes="cssssssssssscccsssssssssssssssssssssssssccc" />
      <path
         sodipodi:nodetypes="czccsccc"
         id="path4577"
         d="m 920.26217,928.67773 c -0.96672,-1.74401 -0.5177,-6.01913 -0.35731,-9.13351 0.16039,-3.11437 1.63876,-6.76689 5.01738,-6.11561 5.95743,2.25154 9.12327,10.01065 6.10413,15.51642 0,0 -2.74127,0.45385 -3.26446,0.46578 -0.52318,0.0119 -4.58151,-0.15653 -4.58151,-0.15653 l -1.44968,-0.74974 -1.46855,0.17319 z"
         style="fill:#ffffff;stroke:#000000;stroke-width:0.70793515px;stroke-linecap:butt;stroke-linejoin:miter;stroke-opacity:1" />
      <path
         id="path4589"
         style="fill:none;stroke:#000000;stroke-width:0.70793515px;stroke-linecap:butt;stroke-linejoin:miter;stroke-opacity:1"
         d="m 919.67176,926.9859 c 0,0 -0.7823,0.14829 -1.03116,1.0672 -0.24886,0.91891 -1.56228,0.55745 -1.94375,1.34892 -0.38148,0.79147 -4.97027,0.11326 -6.80142,0.15499 -1.83115,0.0417 -1.72218,-1.52631 -1.72218,-1.52631 0,0 0.24522,-1.17975 -1.06093,-1.01952 -1.30614,0.16022 -0.90102,1.06423 -0.90102,1.06423 0,0 0.005,0.39126 -2.19261,2.26783 -2.19808,1.87656 -4.23933,2.86797 -4.23933,2.86797 -0.95264,3.75409 -0.42267,4.15478 -4.20042,11.15339 6.45936,0.58888 16.42197,0.24628 24.3293,-0.42394 7.921,0.30954 17.89411,0.71971 24.33294,-0.16309 -3.97052,-6.82205 -3.55953,-8.31953 -4.61626,-12.02784 0,0 -1.9674,-0.34655 -4.21641,-2.12178 -2.249,-1.77523 -2.25446,-2.1665 -2.25446,-2.1665 0,0 0.37966,-0.92188 -0.93013,-1.0225 -1.30978,-0.10062 -1.03182,1.06721 -1.03182,1.06721 0,0 0.15263,1.56208 -1.67852,1.6038 -1.83115,0.0417 -6.39811,0.92858 -6.80142,0.15499 -0.4033,-0.77359 -1.70581,-0.35252 -1.98013,-1.2595 -0.27433,-0.90699 -1.06027,-1.01955 -1.06027,-1.01955 z"
         sodipodi:nodetypes="cssscscscccccscscsssc" />
      <path
         style="fill:none;stroke:#000000;stroke-width:0.70793515px;stroke-linecap:butt;stroke-linejoin:miter;stroke-opacity:1"
         d="m 899.88824,933.24694 c 3.15913,1.36311 16.88314,1.35696 17.92956,1.47851 16.04808,1.86411 22.57014,-2.65943 21.54868,-2.83936"
         id="path4591"
         sodipodi:nodetypes="csc" />
      <path
         style="fill:#ffffff;stroke:#000000;stroke-width:0.70793515px;stroke-linecap:butt;stroke-linejoin:miter;stroke-opacity:1"
         d="m 919.4126,927.59008 c 0.62715,-2.70285 0.27247,-4.93013 0.0253,-8.03522 -0.24713,-3.10509 -1.82643,-6.68793 -5.18473,-5.88314 -5.89086,2.52153 -8.83832,10.41996 -5.66755,15.78467 0,0 2.75218,0.32868 3.27537,0.31675 2.00268,-0.25113 4.01705,0.33614 6.00208,-1.18047 l 1.5495,-1.00259 z"
         id="path4593"
         sodipodi:nodetypes="czccccc" />
      <path
         style="fill:#cccccc;stroke:#000000;stroke-width:0.70793515px;stroke-linecap:butt;stroke-linejoin:miter;stroke-opacity:1"
         d="m 919.22578,918.17864 c 0.0338,-0.0464 -0.8697,-0.81429 -1.32657,-1.16584 -1.85993,-1.43115 -4.56494,-1.11439 -5.51922,-0.8196 -0.64484,0.19919 -2.78596,1.2609 -2.78596,1.2609 0.32187,-0.68644 2.05072,-2.409 2.9246,-3.00157 2.2454,-1.5226 4.63271,-1.04857 5.74217,0.8668 0.32666,0.68754 0.96498,2.85931 0.96498,2.85931 z"
         id="path4595"
         sodipodi:nodetypes="csscscc" />
      <path
         style="fill:#cccccc;stroke:#000000;stroke-width:0.70793515px;stroke-linecap:butt;stroke-linejoin:miter;stroke-opacity:1"
         d="m 920.08939,918.08977 c -0.0123,-0.0684 0.98613,-0.78739 1.43291,-1.15953 1.81883,-1.51498 4.72712,-1.36413 5.67783,-1.07475 1.59808,0.48643 3.03628,1.84297 2.53434,1.293 -1.84985,-2.78317 -5.516,-5.09756 -7.80381,-3.0198 -1.36038,1.19679 -1.84127,3.96108 -1.84127,3.96108 z"
         id="path4597"
         sodipodi:nodetypes="cssccc" />
      <path
         style="fill:#000000;stroke:#000000;stroke-width:0.70793515px;stroke-linecap:butt;stroke-linejoin:miter;stroke-opacity:1"
         d="m 916.95837,922.75829 c 0,0 -1.3446,0.0786 -1.30978,0.56617 0.0256,0.35855 1.29246,0.36985 1.29246,0.36985 0,0 -0.0499,0.87617 -0.30423,1.40381 -0.25432,0.52765 -2.21809,0.44194 -3.27174,-0.0559 -1.05364,-0.49784 -0.33247,-2.93951 0.007,-3.82971 0.56484,-1.47961 2.15301,-1.7912 2.81245,-1.41484 0.65944,0.37636 0.77348,2.96063 0.77348,2.96063 z"
         id="path4599"
         sodipodi:nodetypes="cscssssc" />
      <path
         style="fill:#000000;stroke:#000000;stroke-width:0.70793515px;stroke-linecap:butt;stroke-linejoin:miter;stroke-opacity:1"
         d="m 922.59614,922.62983 c 0,0 1.34594,0.0173 1.32474,0.50613 -0.0156,0.3595 -1.28132,0.4285 -1.28132,0.4285 0,0 0.0743,0.87334 0.34318,1.38906 0.26887,0.51572 2.229,0.3406 3.2681,-0.20493 1.03909,-0.54553 0.25028,-2.95279 -0.11415,-3.82695 -0.60575,-1.45293 -2.20159,-1.69197 -2.85012,-1.2858 -0.64852,0.40617 -0.69043,2.99399 -0.69043,2.99399 z"
         id="path4601"
         sodipodi:nodetypes="cscssssc" />
      <path
         style="fill:#ffffff;stroke:none"
         d="m 925.23614,920.17289 c 0.92239,0.46822 0.9651,1.18479 0.63811,1.19224 -0.32699,0.007 -0.16668,-0.22451 -0.59495,-0.44306 -0.42828,-0.21855 -0.72575,-0.44008 -0.59768,-0.6387 0.12807,-0.19861 0.55361,-0.17569 0.55452,-0.11048 z"
         id="path4603" />
      <path
         id="path4605"
         d="m 916.12118,920.1099 c 0.78043,0.67672 0.64899,1.38404 0.3305,1.31286 -0.31849,-0.0712 -0.10728,-0.25838 -0.46936,-0.57371 -0.36209,-0.31533 -0.59677,-0.60218 -0.42484,-0.76467 0.17193,-0.1625 0.57854,-0.0381 0.5637,0.0255 z"
         style="fill:#ffffff;stroke:none" />
      <path
         sodipodi:nodetypes="cssc"
         style="fill:#ffb380;stroke:#000000;stroke-width:0.70793515px;stroke-linecap:butt;stroke-linejoin:miter;stroke-opacity:1"
         d="m 942.11323,929.97019 c 1.85661,0.79629 8.51059,-3.18514 9.17347,-4.81447 0.35379,-0.86963 -6.4709,-4.12933 -8.17043,-2.90537 -1.69954,1.22396 -3.35797,5.7464 -1.00304,7.71984 z"
         id="path4607" />
      <path
         style="fill:#ffccaa;stroke:#000000;stroke-width:0.70793515px;stroke-linecap:butt;stroke-linejoin:miter;stroke-opacity:1"
         d="m 942.09946,904.89516 c -6.76987,1.07592 -7.93743,3.60372 -6.91412,4.3694 1.02332,0.76569 2.36501,4.65137 4.28822,3.30314 1.92322,-1.34823 2.94315,-6.53756 2.6259,-7.67254 z"
         id="path4609" />
      <path
         sodipodi:nodetypes="csss"
         style="fill:#ffccaa;stroke:#000000;stroke-width:0.70793515px;stroke-linecap:butt;stroke-linejoin:miter;stroke-opacity:1"
         d="m 919.11642,897.00664 c 2.17924,0.68689 5.59882,7.35109 3.84976,8.05082 -1.74904,0.69974 -7.90599,0.62008 -8.79738,-0.23945 -0.8914,-0.85953 4.55591,-7.93484 4.94762,-7.81137 z"
         id="path4611" />
      <path
         id="path4851"
         d="m 900.0041,915.21957 c -1.43923,-1.02546 -3.5349,-7.20444 -3.5349,-7.20444 0,0 8.93268,-0.38691 8.21346,1.36796 -0.71922,1.75486 -2.35477,5.77913 -4.67856,5.83648 z"
         style="fill:url(#radialGradient4853);fill-opacity:1;stroke:#000000;stroke-width:0.70793515px;stroke-linecap:butt;stroke-linejoin:miter;stroke-opacity:1"
         sodipodi:nodetypes="ccsc" />
      <path
         sodipodi:nodetypes="ccsc"
         style="fill:url(#radialGradient4843);fill-opacity:1;stroke:#000000;stroke-width:0.70793515px;stroke-linecap:butt;stroke-linejoin:miter;stroke-opacity:1"
         d="m 900.0041,915.21957 c -1.43923,-1.02546 -3.5349,-7.20444 -3.5349,-7.20444 0,0 8.93268,-0.38691 8.21346,1.36796 -0.71922,1.75486 -2.35477,5.77913 -4.67856,5.83648 z"
         id="path4841" />
      <path
         style="fill:#ffb380;stroke:#000000;stroke-width:0.70793515px;stroke-linecap:butt;stroke-linejoin:miter;stroke-opacity:1"
         d="m 889.76146,927.21299 c 3.39969,1.26693 5.20685,5.01189 6.61753,4.24359 1.41067,-0.76831 2.29106,-7.45063 0.26838,-7.30856 -2.02266,0.14207 -6.86667,1.82076 -6.88591,3.06497 z"
         id="path4615" />
      <path
         sodipodi:nodetypes="cssscccsssssscccccccssssscccsssssssccc"
         id="path4617"
         d="m 911.1033,929.44444 c -1.39916,-0.12016 -2.30428,-0.24406 -2.36944,-0.32434 -0.20338,-0.25062 -0.68818,-1.45143 -0.85212,-2.11062 -0.34509,-1.38761 -0.39437,-2.85131 -0.14518,-4.31233 0.28107,-1.64795 0.86379,-3.13862 1.79434,-4.59018 l 0.289,-0.45079 1.22738,-0.59384 c 0.67506,-0.32662 1.3283,-0.62296 1.45164,-0.65855 0.39491,-0.11394 1.27174,-0.20062 1.877,-0.18555 1.2282,0.0306 2.35644,0.3446 3.1346,0.87243 0.2692,0.1826 1.09566,0.86811 1.32593,1.09981 0.14152,0.14239 0.16294,0.20029 0.2259,0.61086 0.0382,0.24946 0.13672,1.20964 0.2188,2.13375 0.25761,2.90006 0.24016,4.76787 -0.0576,6.16544 l -0.07,0.32844 -0.78867,0.50373 c -1.91565,1.51217 -4.30793,1.40665 -6.61531,1.56372 -0.0438,-0.002 -0.33466,-0.0252 -0.64631,-0.052 l 0,0 z m 5.04956,-3.78345 c 0.33942,-0.07 0.59652,-0.21647 0.70609,-0.40234 0.13123,-0.22263 0.25919,-0.71908 0.3293,-1.27753 0.0353,-0.28171 0.0642,-0.51942 0.0641,-0.52825 -1.2e-4,-0.009 -0.16169,-0.0261 -0.35904,-0.0385 -0.45659,-0.0285 -0.84553,-0.0948 -0.84622,-0.14421 -9.2e-4,-0.0657 0.25529,-0.1377 0.73618,-0.20689 l 0.46272,-0.0666 -0.003,-0.20167 c -0.004,-0.315 -0.15465,-1.50266 -0.23638,-1.8684 -0.26426,-1.18257 -0.60735,-1.54579 -1.44907,-1.5341 -0.47927,0.007 -0.79491,0.0901 -1.23123,0.32562 -0.69303,0.37401 -1.0908,0.93477 -1.41899,2.00036 -0.25682,0.83385 -0.34722,1.38717 -0.34164,2.09099 0.005,0.60557 0.009,0.63082 0.15398,0.92402 0.16493,0.33354 0.32737,0.4771 0.72221,0.63825 0.76257,0.31124 1.97597,0.44069 2.71083,0.28921 l 0,0 0,-10e-6 z"
         style="color:#000000;fill:url(#radialGradient4760);fill-opacity:1;fill-rule:evenodd;stroke:none;stroke-width:10;marker:none;visibility:visible;display:inline;overflow:visible;enable-background:accumulate" />
      <path
         id="path4619"
         d="m 926.34975,929.09198 c -0.0637,-0.007 -0.77181,-0.0328 -1.57357,-0.057 l -1.45775,-0.0439 -0.76865,-0.38628 c -0.75013,-0.37698 -0.77484,-0.38561 -1.02589,-0.35848 -0.24187,0.0261 -0.26442,0.0196 -0.37728,-0.10942 -0.066,-0.0755 -0.15938,-0.24143 -0.20748,-0.3688 -0.11774,-0.31175 -0.37555,-0.62984 -0.66385,-0.81907 l -0.23771,-0.15602 -0.0361,-0.39125 c -0.0198,-0.21518 -0.018,-0.67823 0.004,-1.02899 0.0221,-0.35076 0.0317,-1.15011 0.0214,-1.77632 -0.025,-1.53028 0.19175,-5.15273 0.32149,-5.36989 0.0607,-0.10166 1.68566,-1.33348 1.99423,-1.51179 0.18475,-0.10676 0.55414,-0.27146 0.82087,-0.36602 0.74813,-0.2652 1.23496,-0.34767 2.19375,-0.37161 1.28254,-0.0318 1.67806,0.0502 2.80677,0.5839 1.12453,0.53167 1.28622,0.64123 1.60191,1.08552 0.66172,0.93128 1.2707,2.1732 1.62142,3.30663 0.33064,1.06851 0.48191,2.02967 0.49917,3.17161 0.0122,0.79791 -0.0745,1.82796 -0.16947,2.01544 -0.021,0.0415 -0.10399,0.0901 -0.18436,0.10806 -0.19967,0.0445 -0.52148,0.38644 -0.58261,0.61908 -0.0268,0.102 -0.0467,0.34297 -0.0441,0.53549 0.008,0.63376 -0.17367,1.01299 -0.59346,1.23624 -0.19651,0.10451 -0.33122,0.1329 -0.86194,0.1816 -0.34596,0.0317 -1.04478,0.0984 -1.55293,0.1481 -1.34093,0.13116 -1.42043,0.13749 -1.54793,0.12316 z m -1.47044,-3.6353 c 0.89345,-0.15446 1.62466,-0.45406 1.84857,-0.75741 0.16086,-0.21793 0.2733,-0.53144 0.30849,-0.86014 0.0921,-0.86056 -0.4364,-2.8444 -0.95341,-3.57867 -0.21945,-0.31168 -0.58125,-0.62221 -0.92859,-0.797 -0.77438,-0.3897 -1.84111,-0.33898 -2.20402,0.10479 -0.33802,0.41335 -0.54605,1.35841 -0.61796,2.80729 -0.0172,0.34624 -0.01,0.51393 0.0226,0.51319 0.0265,-6e-4 0.22474,0.0167 0.44063,0.0384 0.42912,0.0431 0.74051,0.11404 0.74128,0.16882 7e-4,0.0501 -0.38888,0.13563 -0.83021,0.18244 l -0.37867,0.0401 0.0355,0.30353 c 0.0872,0.74578 0.29048,1.41146 0.49323,1.6149 0.11679,0.1172 0.39598,0.22952 0.66753,0.26856 0.24225,0.0348 1.03675,0.006 1.35507,-0.0488 l 0,0 z"
         style="color:#000000;fill:url(#radialGradient4757);fill-opacity:1;fill-rule:evenodd;stroke:none;stroke-width:10;marker:none;visibility:visible;display:inline;overflow:visible;enable-background:accumulate" />
      <path
         id="path4621"
         d="m 918.34366,917.0208 c -0.34829,-0.29065 -0.82003,-0.59627 -1.18753,-0.76935 -0.9922,-0.46729 -2.30745,-0.66664 -3.57363,-0.54165 -0.94279,0.0931 -1.32832,0.20243 -2.34495,0.66516 -0.34813,0.15846 -0.64773,0.28356 -0.66578,0.27799 -0.10187,-0.0314 1.30435,-1.37608 1.93928,-1.85443 0.50332,-0.37919 1.28443,-0.74396 1.89682,-0.8858 0.40842,-0.0946 1.10257,-0.10388 1.47777,-0.0198 0.94465,0.21172 1.72953,0.8003 2.14078,1.60537 0.12426,0.24324 0.62752,1.67755 0.60772,1.732 -0.005,0.0139 -0.13576,-0.0804 -0.29048,-0.20951 z"
         style="color:#000000;fill:url(#radialGradient4754);fill-opacity:1;fill-rule:evenodd;stroke:none;stroke-width:10;marker:none;visibility:visible;display:inline;overflow:visible;enable-background:accumulate" />
      <path
         id="path4623"
         d="m 920.57144,917.27457 c -0.001,-0.0779 0.23254,-0.7658 0.39402,-1.16007 0.57416,-1.40192 1.36304,-2.20247 2.39993,-2.43543 0.42901,-0.0964 1.083,-0.0769 1.55203,0.0462 0.98012,0.25723 1.86187,0.75708 2.88887,1.63762 0.29293,0.25115 0.85344,0.81831 0.77968,0.78891 -0.0181,-0.007 -0.1959,-0.0916 -0.39513,-0.18742 -0.90057,-0.43334 -1.4087,-0.54161 -2.56523,-0.54659 -1.0391,-0.004 -1.80898,0.11085 -2.6047,0.39017 -0.81111,0.28471 -1.1298,0.4796 -2.34363,1.43319 -0.0801,0.0629 -0.10531,0.0709 -0.10584,0.0335 z"
         style="color:#000000;fill:url(#radialGradient4751);fill-opacity:1;fill-rule:evenodd;stroke:none;stroke-width:10;marker:none;visibility:visible;display:inline;overflow:visible;enable-background:accumulate" />
      <path
         style="fill:none;stroke:#000000;stroke-width:0.70793515px;stroke-linecap:butt;stroke-linejoin:miter;stroke-opacity:1"
         d="m 922.06607,939.4024 c -1.40274,-1.07505 -3.65774,-0.23953 -3.65774,-0.23953"
         id="path4625" />
      <path
         id="path4627"
         d="m 921.01705,911.81916 c 2.20167,-1.34168 3.59541,-0.91219 3.59541,-0.91219"
         style="fill:none;stroke:#000000;stroke-width:0.70793515px;stroke-linecap:butt;stroke-linejoin:miter;stroke-opacity:1" />
      <path
         style="fill:none;stroke:#000000;stroke-width:0.70793515px;stroke-linecap:butt;stroke-linejoin:miter;stroke-opacity:1"
         d="m 912.2347,912.65004 c 1.98073,-1.65071 3.42477,-1.43268 3.42477,-1.43268"
         id="path4629" />
      <path
         id="path4811"
         d="m 889.76146,927.21299 c 3.39969,1.26693 5.20685,5.01189 6.61753,4.24359 1.41067,-0.76831 2.29106,-7.45063 0.26838,-7.30856 -2.02266,0.14207 -6.86667,1.82076 -6.88591,3.06497 z"
         style="fill:url(#radialGradient4819);fill-opacity:1;stroke:#000000;stroke-width:0.70793515px;stroke-linecap:butt;stroke-linejoin:miter;stroke-opacity:1" />
      <path
         style="fill:url(#radialGradient4823);fill-opacity:1;stroke:#000000;stroke-width:0.70793515px;stroke-linecap:butt;stroke-linejoin:miter;stroke-opacity:1"
         d="m 889.76146,927.21299 c 3.39969,1.26693 5.20685,5.01189 6.61753,4.24359 1.41067,-0.76831 2.29106,-7.45063 0.26838,-7.30856 -2.02266,0.14207 -6.86667,1.82076 -6.88591,3.06497 z"
         id="path4821" />
      <path
         sodipodi:nodetypes="csss"
         style="fill:url(#radialGradient4873);fill-opacity:1;stroke:#000000;stroke-width:0.70793515px;stroke-linecap:butt;stroke-linejoin:miter;stroke-opacity:1"
         d="m 919.11642,897.00664 c 2.17924,0.68689 5.59882,7.35109 3.84976,8.05082 -1.74904,0.69974 -7.90599,0.62008 -8.79738,-0.23945 -0.8914,-0.85953 4.55591,-7.93484 4.94762,-7.81137 z"
         id="path4871" />
      <path
         id="path4861"
         d="m 919.11642,897.00664 c 2.17924,0.68689 5.59882,7.35109 3.84976,8.05082 -1.74904,0.69974 -7.90599,0.62008 -8.79738,-0.23945 -0.8914,-0.85953 4.55591,-7.93484 4.94762,-7.81137 z"
         style="fill:url(#radialGradient4869);fill-opacity:1;stroke:#000000;stroke-width:0.70793515px;stroke-linecap:butt;stroke-linejoin:miter;stroke-opacity:1"
         sodipodi:nodetypes="csss" />
      <path
         id="path5653"
         d="m 942.09946,904.89516 c -6.76987,1.07592 -7.93743,3.60372 -6.91412,4.3694 1.02332,0.76569 2.36501,4.65137 4.28822,3.30314 1.92322,-1.34823 2.94315,-6.53756 2.6259,-7.67254 z"
         style="fill:url(#radialGradient5661);fill-opacity:1;stroke:#000000;stroke-width:0.70793515px;stroke-linecap:butt;stroke-linejoin:miter;stroke-opacity:1" />
      <path
         style="fill:url(#radialGradient5671);fill-opacity:1;stroke:#000000;stroke-width:0.70793515px;stroke-linecap:butt;stroke-linejoin:miter;stroke-opacity:1"
         d="m 942.09946,904.89516 c -6.76987,1.07592 -7.93743,3.60372 -6.91412,4.3694 1.02332,0.76569 2.36501,4.65137 4.28822,3.30314 1.92322,-1.34823 2.94315,-6.53756 2.6259,-7.67254 z"
         id="path5663" />
      <path
         id="path5673"
         d="m 942.11323,929.97019 c 1.85661,0.79629 8.51059,-3.18514 9.17347,-4.81447 0.35379,-0.86963 -6.4709,-4.12933 -8.17043,-2.90537 -1.69954,1.22396 -3.35797,5.7464 -1.00304,7.71984 z"
         style="fill:url(#radialGradient5681);fill-opacity:1;stroke:#000000;stroke-width:0.70793515px;stroke-linecap:butt;stroke-linejoin:miter;stroke-opacity:1"
         sodipodi:nodetypes="cssc" />
      <path
         sodipodi:nodetypes="cssc"
         style="fill:url(#radialGradient6518);fill-opacity:1;stroke:#000000;stroke-width:0.70793515px;stroke-linecap:butt;stroke-linejoin:miter;stroke-opacity:1"
         d="m 942.11323,929.97019 c 1.85661,0.79629 8.51059,-3.18514 9.17347,-4.81447 0.35379,-0.86963 -6.4709,-4.12933 -8.17043,-2.90537 -1.69954,1.22396 -3.35797,5.7464 -1.00304,7.71984 z"
         id="path5683" />
    </g>
  </g>
</svg>
