<?xml version="1.0" encoding="UTF-8" standalone="no"?>
<!-- Created with Inkscape (http://www.inkscape.org/) -->
<svg
   xmlns:dc="http://purl.org/dc/elements/1.1/"
   xmlns:cc="http://web.resource.org/cc/"
   xmlns:rdf="http://www.w3.org/1999/02/22-rdf-syntax-ns#"
   xmlns:svg="http://www.w3.org/2000/svg"
   xmlns="http://www.w3.org/2000/svg"
   xmlns:sodipodi="http://sodipodi.sourceforge.net/DTD/sodipodi-0.dtd"
   xmlns:inkscape="http://www.inkscape.org/namespaces/inkscape"
   width="210mm"
   height="297mm"
   id="svg2128"
   sodipodi:version="0.32"
   inkscape:version="0.44.1"
   sodipodi:docbase="/home/nepomuk/tmp"
   sodipodi:docname="tastentiere.svg">
  <defs
     id="defs2130" />
  <sodipodi:namedview
     id="base"
     pagecolor="#ffffff"
     bordercolor="#666666"
     borderopacity="1.0"
     inkscape:pageopacity="0.0"
     inkscape:pageshadow="2"
     inkscape:zoom="0.49497475"
     inkscape:cx="350"
     inkscape:cy="869.93471"
     inkscape:document-units="px"
     inkscape:current-layer="layer1"
     inkscape:window-width="1050"
     inkscape:window-height="591"
     inkscape:window-x="6"
     inkscape:window-y="49" />
  <metadata
     id="metadata2133">
    <rdf:RDF>
      <cc:Work
         rdf:about="">
        <dc:format>image/svg+xml</dc:format>
        <dc:type
           rdf:resource="http://purl.org/dc/dcmitype/StillImage" />
      </cc:Work>
    </rdf:RDF>
  </metadata>
  <g
     inkscape:label="Ebene 1"
     inkscape:groupmode="layer"
     id="layer1">
    <rect
       style="opacity:1;fill:#efde9a;fill-opacity:1;fill-rule:nonzero;stroke:none;stroke-width:5.92700005;stroke-linecap:round;stroke-linejoin:round;stroke-miterlimit:4;stroke-dasharray:none;stroke-dashoffset:0;stroke-opacity:1"
       id="rect3082"
       width="333"
       height="333"
       x="207.08127"
       y="286.00671"
       ry="25.175259" />
    <rect
       ry="22.907219"
       y="301.00671"
       x="222.08127"
       height="303"
       width="303"
       id="rect3084"
       style="opacity:1;fill:#fff6d5;fill-opacity:1;fill-rule:nonzero;stroke:none;stroke-width:5.92700005;stroke-linecap:round;stroke-linejoin:round;stroke-miterlimit:4;stroke-dasharray:none;stroke-dashoffset:0;stroke-opacity:1" />
    <path
       style="fill:#333;fill-opacity:1;fill-rule:nonzero;stroke:none;stroke-width:1px;stroke-linecap:butt;stroke-linejoin:miter;stroke-opacity:1"
       id="path2118"
       d="M 419.20674,172.26518 C 423.55134,173.08249 428.016,173.1529 432.42185,173.33792 C 447.1695,173.445 454.79358,168.71119 469.49746,167.71542 C 474.97506,167.24417 485.48055,168.49493 488.49448,173.58894 C 488.35937,174.88602 488.62912,175.43571 488.70095,176.74943 C 488.63004,182.34141 482.04985,181.96333 477.84505,183.37126 C 473.48913,183.07245 469.11704,183.46795 464.75822,183.57362 C 460.47134,183.71519 456.19364,183.66836 451.91703,183.37381 C 447.1313,183.08402 441.52381,186.47131 454.60488,180.55065 C 452.32548,173.62845 456.65621,176.78901 461.24257,177.58295 C 466.99974,178.79114 472.85754,178.90709 478.71027,179.04507 C 481.08861,179.78903 484.76415,178.70931 486.05691,178.42345 C 469.23147,194.17428 479.99814,180.79284 479.62555,180.93855 C 479.82223,179.5229 479.88453,178.09546 479.97813,176.67519 C 479.76474,174.98548 472.01662,169.81372 471.51137,168.1846 C 471.06665,166.17562 470.21564,164.37833 469.25514,162.62922 C 468.90798,161.64601 474.80175,164.85232 474.22801,164.36145 C 473.41812,163.51838 472.30882,163.23906 471.33391,162.74158 C 470.78409,162.62574 470.22241,162.58917 469.66709,162.51305 L 476.40786,154.36811 C 477.22317,154.67 478.11047,154.80936 478.86419,155.27764 C 479.96356,155.96687 481.07718,156.64205 482.18098,157.32114 C 483.40124,158.49016 484.70432,159.56807 485.56987,161.06706 C 486.79555,163.29946 487.76059,165.58333 488.41725,168.06183 C 489.11265,170.16498 489.95806,172.2462 490.29442,174.44002 C 490.29921,176.09198 490.377,177.72699 490.10902,179.37094 C 489.64719,185.14726 489.59604,185.22257 481.7026,188.11781 C 478.80175,187.6856 475.88666,187.49151 472.95414,187.38594 C 466.92522,187.07438 460.91859,186.55313 454.96221,185.53052 C 449.30524,184.60156 445.14059,185.00248 444.12425,178.37078 C 450.5986,175.29851 451.92726,174.17601 457.96589,174.91362 C 462.022,175.12346 466.0845,175.29187 470.14651,175.09481 C 474.41108,174.87024 478.74237,174.7911 482.95378,174.14065 C 480.99198,174.9636 477.37648,176.35478 478.14601,178.33814 C 478.11164,177.70621 477.737,176.90535 478.16551,176.43955 C 481.76378,181.83741 475.90477,178.27568 471.50321,179.31479 C 456.70158,179.5849 441.92147,180.39597 427.13708,181.12786 C 422.33172,181.11764 417.51966,181.30954 412.73176,180.83704 L 419.20674,172.26518 z "
       sodipodi:nodetypes="ccccccccccccccccccccccccccccccccccccccc" />
    <path
       style="opacity:1;fill:#b3b3b3;fill-opacity:1;fill-rule:nonzero;stroke:none;stroke-width:5.92700005;stroke-linecap:round;stroke-linejoin:round;stroke-miterlimit:4;stroke-dasharray:none;stroke-dashoffset:0;stroke-opacity:1"
       d="M 436.8828,150.38507 C 436.8828,150.38507 444.57155,141.51343 446.05015,141.21771 C 447.52876,140.92199 452.85174,137.96477 452.85174,137.96477 C 452.85174,137.96477 458.17472,138.85194 459.35761,139.14766 C 460.54049,139.44338 468.22925,143.8792 468.22925,143.8792 L 466.15919,147.72357 L 459.06189,148.31501 L 451.66885,151.27222 L 448.41593,152.75083 L 445.45872,150.08934 L 436.8828,150.38507 z "
       id="path2104" />
    <path
       style="opacity:1;fill:#f2f2f2;fill-opacity:1;fill-rule:nonzero;stroke:none;stroke-width:5.92700005;stroke-linecap:round;stroke-linejoin:round;stroke-miterlimit:4;stroke-dasharray:none;stroke-dashoffset:0;stroke-opacity:1"
       d="M 418.84381,124.65732 L 421.50531,129.9803 L 420.61814,137.07762 L 417.95665,144.76636 L 420.61814,153.04655 L 427.41972,153.93372 L 437.17852,150.68079 L 441.0229,145.65353 L 447.82448,140.33055 L 453.44319,138.55621 L 457.879,138.85194 L 461.72338,140.62627 L 465.86347,143.8792 L 472.36934,145.94925 L 480.94525,143.8792 L 487.45112,151.27222 L 497.20991,161.32674 L 496.61848,156.5952 L 485.67679,125.84021 L 471.48217,115.48996 L 469.11641,114.01136 L 418.84381,124.65732 z "
       id="path2102" />
    <path
       style="opacity:1;fill:white;fill-opacity:1;fill-rule:nonzero;stroke:none;stroke-width:5.92700005;stroke-linecap:round;stroke-linejoin:round;stroke-miterlimit:4;stroke-dasharray:none;stroke-dashoffset:0;stroke-opacity:1"
       d="M 447.82448,111.05415 L 448.41593,107.20977 L 451.07741,106.02689 L 456.10467,104.25257 L 461.42765,105.73117 L 465.86347,108.68838 L 467.6378,111.05415 L 470.00357,119.63006 L 469.41212,124.95304 L 466.45491,128.50169 L 461.42765,129.68458 L 455.51323,127.91025 L 451.66885,124.95304 L 449.00737,121.70011 L 447.82448,118.15146 L 447.82448,111.05415 z "
       id="path2108" />
    <path
       style="opacity:1;fill:maroon;fill-opacity:1;fill-rule:nonzero;stroke:none;stroke-width:5.92700005;stroke-linecap:round;stroke-linejoin:round;stroke-miterlimit:4;stroke-dasharray:none;stroke-dashoffset:0;stroke-opacity:1"
       d="M 465.27203,147.13213 C 463.79343,147.42785 453.73891,149.4979 453.73891,149.4979 L 447.23304,154.82088 L 457.28756,165.17111 L 469.11641,156.89092 L 465.27203,147.13213 z "
       id="path2098" />
    <path
       style="opacity:1;fill:#f2f2f2;fill-opacity:1;fill-rule:nonzero;stroke:none;stroke-width:5.92700005;stroke-linecap:round;stroke-linejoin:round;stroke-miterlimit:4;stroke-dasharray:none;stroke-dashoffset:0;stroke-opacity:1"
       d="M 407.60641,136.19045 L 403.46632,173.45132 L 403.1706,176.40852 L 408.78929,176.70424 L 430.37694,178.18285 L 452.55602,174.92991 L 477.10088,171.67698 L 480.94525,170.19838 L 488.92972,166.05828 L 496.9142,163.39679 L 498.98424,162.80535 L 495.73131,159.55242 L 488.04255,150.68079 L 481.5367,143.8792 L 472.66506,144.76636 L 467.93352,144.76636 L 464.97631,152.45511 L 461.42765,159.55242 L 459.06189,161.32674 L 454.92179,158.66526 L 449.89453,153.34227 L 445.45872,149.4979 L 441.61433,149.20218 L 428.60261,153.04655 L 420.91386,153.638 L 419.73098,152.45511 L 417.66094,147.13213 L 419.13953,139.7391 L 420.91386,133.23323 L 420.61814,127.61454 L 420.0267,124.95304 L 407.60641,136.19045 z "
       id="path2100" />
    <g
       id="g2082"
       transform="matrix(0.390735,0,0,0.390735,1146.242,-173.8908)">
      <g
         id="g2058"
         transform="translate(-1489.359,932.6676)">
        <path
           style="fill:#333;fill-opacity:1;fill-rule:nonzero;stroke:none;stroke-width:1px;stroke-linecap:butt;stroke-linejoin:miter;stroke-opacity:1"
           id="path2060"
           d="M -814.61707,-97.011315 C -801.71011,-96.544537 -789.06788,-94.103776 -776.23605,-92.568155 C -712.9155,-73.43275 -741.20573,-50.175626 -792.16637,-9.0159744 C -808.5842,-10.379825 -825.08043,-9.7307115 -841.52904,-9.6054772 C -855.15533,-50.135994 -816.37818,-82.677613 -776.80407,-76.978947 C -754.05545,-73.775751 -731.65294,-70.738125 -709.63155,-64.260585 C -664.27265,-19.008 -728.63814,8.7880724 -772.63764,7.2088344 C -798.98158,1.9301761 -742.77974,-37.50489 -726.57046,-58.932139 L -776.89526,5.509999 C -763.51368,-18.352634 -760.71753,-61.468435 -733.49062,-64.14958 C -751.97719,-50.66605 -774.42193,-19.507947 -760.7587,-1.1538653 C -780.17825,-4.939437 -799.68178,-8.5159893 -819.53035,-9.4812432 C -870.6474,-9.7706703 -837.07028,-42.179251 -801.54812,-79.978085 C -789.31096,-80.495845 -774.85576,-78.462652 -765.11021,-86.047072 C -802.60086,-53.598384 -799.93313,-19.178647 -819.72947,-25.114711 C -831.80887,-26.146406 -843.71167,-27.025894 -855.81753,-25.649999 L -814.61707,-97.011315 z " />
        <path
           sodipodi:nodetypes="cccccccccccc"
           style="opacity:1;fill:#ccc;fill-opacity:1;fill-rule:nonzero;stroke:none;stroke-width:5.92700005;stroke-linecap:round;stroke-linejoin:round;stroke-miterlimit:4;stroke-dasharray:none;stroke-dashoffset:0;stroke-opacity:1"
           d="M -857.18049,-208.90603 L -913.53922,-170.03798 C -916.32143,-134.40893 -931.63428,-98.779868 -942.69019,-63.150813 L -917.42602,-49.546934 L -824.14264,-33.999751 L -713.36867,-41.773343 L -678.38741,-41.773343 L -658.95343,-59.264018 L -674.50062,-94.245275 L -725.02915,-193.35875 L -760.01031,-208.90603 L -857.18049,-208.90603 z "
           id="path2062" />
        <path
           style="opacity:1;fill:white;fill-opacity:1;fill-rule:nonzero;stroke:none;stroke-width:5.92700005;stroke-linecap:round;stroke-linejoin:round;stroke-miterlimit:4;stroke-dasharray:none;stroke-dashoffset:0;stroke-opacity:1"
           d="M -801.205,-245.33125 L -818.03887,-258.72965 L -844.14858,-255.98121 C -844.14858,-255.98121 -858.92112,-225.74904 -858.92112,-224.37482 C -858.92112,-223.0006 -857.8905,-185.89741 -857.8905,-185.89741 L -851.7066,-171.12478 L -840.02601,-167.00221 L -814.2599,-172.8426 L -799.83088,-186.24091 L -793.64698,-184.86679 L -787.46308,-174.56033 C -787.46308,-174.56033 -771.31632,-169.75065 -769.9421,-170.09416 C -768.56798,-170.43776 -757.91791,-170.78127 -757.91791,-170.78127 L -749.32927,-174.90383 L -737.9921,-192.42481 L -739.70992,-219.56514 L -754.48246,-256.32482 L -773.72116,-263.19573 L -793.64698,-257.35543 L -801.205,-245.33125 z "
           id="path2064" />
        <path
           style="opacity:1;fill:white;fill-opacity:1;fill-rule:nonzero;stroke:none;stroke-width:5.92700005;stroke-linecap:round;stroke-linejoin:round;stroke-miterlimit:4;stroke-dasharray:none;stroke-dashoffset:0;stroke-opacity:1"
           d="M -891.21473,-126.80707 L -885.03083,-113.75226 L -864.4179,-119.24905 L -836.24696,-108.25548 L -807.3889,-91.078103 L -777.84373,-78.710309 L -751.73411,-82.145764 L -733.86953,-104.82002 L -714.63082,-120.62317 L -708.44702,-128.8684 L -719.4405,-131.61675 L -733.18242,-126.80707 L -773.72116,-128.18129 L -821.13082,-132.99097 L -856.17277,-124.74584 L -873.35015,-124.74584 L -891.21473,-126.80707 z "
           id="path2066" />
        <path
           style="fill:black"
           d="M -769.8665,-34.083344 C -777.00886,-34.542283 -794.78947,-34.692922 -809.37904,-34.418001 C -850.02966,-33.652204 -881.48571,-37.235605 -914.85794,-46.433919 C -918.6825,-47.488104 -922.24532,-48.350575 -922.77534,-48.350575 C -923.30537,-48.350575 -926.96082,-50.51493 -930.8986,-53.160252 C -934.83637,-55.805572 -938.41583,-57.97108 -938.85313,-57.972523 C -939.29033,-57.973966 -941.58021,-59.641289 -943.94177,-61.677706 L -948.23546,-65.380291 L -945.62515,-68.482436 C -944.18946,-70.18862 -942.94722,-72.308918 -942.86459,-73.194283 C -942.78196,-74.079456 -942.60977,-75.885971 -942.48213,-77.208632 C -942.35438,-78.531293 -938.5076,-84.375049 -936.28515,-90.194758 C -934.06259,-96.014466 -931.63958,-102.76869 -930.90062,-105.20422 C -930.16166,-107.63974 -928.3993,-111.31914 -926.98429,-113.38067 C -923.38088,-118.63062 -920.66553,-130.80045 -917.94508,-142.13926 C -915.56468,-152.06105 -914.91441,-166.38753 -916.53219,-173.26826 C -917.53866,-177.54925 -915.55092,-178.9532 -912.51775,-176.10366 L -910.36792,-174.08407 L -909.47591,-176.38839 C -908.79102,-178.15787 -906.77076,-179.32489 -900.77348,-181.41537 C -895.48976,-183.25709 -892.11221,-185.08515 -890.33321,-187.06587 C -888.88694,-188.67625 -886.2244,-191.34696 -884.41663,-193.00072 C -878.19849,-198.68913 -875.19302,-202.06571 -872.8407,-206.00618 C -870.12728,-210.55152 -869.42968,-210.76545 -867.0185,-207.79134 C -866.05339,-206.60095 -864.92061,-205.96886 -864.5013,-206.38673 C -864.082,-206.80459 -863.42817,-210.40021 -863.0483,-214.37704 C -862.66843,-218.35387 -861.9515,-222.12428 -861.45505,-222.75569 C -860.95869,-223.3872 -860.28456,-226.59776 -859.95693,-229.89036 C -859.62939,-233.18297 -858.51884,-238.27382 -857.48928,-241.2034 C -855.4039,-247.13631 -847.17175,-259.01439 -845.14515,-259.01439 C -844.42725,-259.01439 -842.62507,-259.64263 -841.14022,-260.41054 C -837.19513,-262.45061 -818.5611,-264.19701 -815.79717,-262.78565 C -814.60774,-262.17838 -811.16199,-259.27151 -808.14007,-256.32607 C -803.33588,-251.64346 -802.57066,-251.20405 -802.04968,-252.82818 C -800.54377,-257.52281 -799.60357,-258.97774 -796.626,-261.22126 C -791.70291,-264.93048 -784.68434,-266.90081 -774.67617,-267.38322 L -765.53779,-267.8236 L -760.04879,-264.33312 C -754.2059,-260.61764 -746.70011,-250.72193 -745.43517,-245.06634 C -745.08021,-243.47914 -744.20456,-240.88192 -743.48936,-239.29472 C -742.77417,-237.70753 -741.4061,-233.81169 -740.44936,-230.63731 C -739.49262,-227.46292 -737.49555,-222.66633 -736.01138,-219.97829 C -734.5273,-217.29017 -733.31295,-214.17109 -733.31295,-213.04697 C -733.31295,-210.43667 -736.08761,-205.87022 -730.20605,-199.75058 C -725.16811,-194.50871 -713.12039,-181.98662 -710.83253,-174.6282 C -707.93345,-165.30397 -702.40549,-153.60312 -700.1864,-150.24212 C -697.81995,-146.65786 -692.65253,-135.96239 -691.55082,-132.36831 C -691.20087,-131.22678 -690.28174,-130.04995 -689.50825,-129.75319 C -688.73485,-129.45634 -688.10325,-128.22602 -688.10469,-127.01898 C -688.10613,-125.81195 -687.28618,-123.09294 -686.28259,-120.97668 C -685.27901,-118.86043 -682.07826,-112.15093 -679.16985,-106.06669 C -676.26154,-99.982449 -673.57639,-93.562878 -673.20306,-91.800901 C -672.82974,-90.03902 -670.69616,-86.352981 -668.46168,-83.609734 C -666.2273,-80.866487 -663.91769,-77.330124 -663.32918,-75.751011 C -662.74067,-74.171898 -660.93146,-69.696783 -659.30868,-65.806236 C -657.68589,-61.915688 -656.35813,-58.115178 -656.35813,-57.36054 C -656.35813,-54.682608 -665.30134,-46.837932 -669.82523,-45.547688 C -672.20602,-44.868658 -674.82469,-43.717895 -675.64465,-42.990383 C -678.90811,-40.094573 -685.99844,-38.489584 -699.16425,-37.666456 C -706.57115,-37.203381 -716.31075,-36.41065 -720.8078,-35.904864 C -747.26563,-32.929117 -750.20473,-32.820034 -769.8665,-34.083344 z M -735.71779,-39.805319 C -729.89808,-40.327939 -716.69552,-41.136734 -706.37877,-41.602599 C -689.75604,-42.353293 -677.82911,-43.971653 -674.70907,-45.899949 C -672.61176,-47.196157 -673.73982,-50.911247 -677.28022,-54.36719 C -679.91362,-56.937769 -682.29133,-60.113118 -686.08713,-60.926723 C -692.36895,-62.273143 -695.39462,-63.265668 -696.30548,-68.851915 C -696.66668,-71.067348 -698.24368,-75.477148 -699.8099,-78.651534 C -706.60155,-92.416828 -708.1925,-96.294966 -709.28044,-101.73798 C -709.91494,-104.91237 -710.82021,-108.76463 -711.29224,-110.29843 C -711.76426,-111.83234 -709.37246,-116.37775 -709.37246,-117.62143 C -709.37246,-118.86522 -709.87565,-119.88275 -710.49071,-119.88275 C -712.06934,-119.88275 -722.93271,-112.30099 -725.32706,-109.69241 C -728.47606,-106.26158 -738.91363,-90.967192 -741.5604,-85.905488 C -744.16743,-80.919489 -747.88156,-78.687703 -754.9565,-77.855822 C -757.07276,-77.606969 -760.10285,-76.842711 -761.69005,-76.157525 C -764.45975,-74.961743 -764.27736,-74.888251 -757.15539,-74.331098 C -753.07409,-74.011832 -749.44942,-73.465164 -749.10062,-73.11627 C -746.81054,-70.826287 -755.00017,-65.726491 -761.03179,-65.686571 C -764.8931,-65.660983 -767.94262,-67.152272 -767.94262,-69.066042 C -767.94262,-69.841073 -768.3755,-70.475085 -768.90456,-70.475085 C -769.43362,-70.475085 -767.68021,-73.921122 -767.68021,-74.866896 C -767.68021,-76.597995 -770.41037,-74.131689 -787.12111,-78.725892 C -794.46222,-80.744225 -800.71518,-83.648692 -803.5376,-86.351442 C -804.86218,-87.619753 -808.84334,-89.9713 -812.38471,-91.577059 C -815.92617,-93.182817 -821.87045,-96.467538 -825.59429,-98.876512 C -838.73385,-107.37646 -847.11028,-110.72005 -859.2653,-112.31696 C -874.88376,-114.36877 -881.11864,-114.2567 -882.37906,-111.90159 C -882.92679,-110.87819 -883.37486,-108.9018 -883.37486,-107.50959 C -883.37486,-106.11738 -883.87016,-104.03277 -884.4755,-102.8772 C -886.87419,-98.298485 -895.30122,-88.604005 -898.15172,-87.144172 C -899.81212,-86.293822 -903.55145,-83.573372 -906.4613,-81.098698 C -914.1387,-74.569562 -922.86192,-68.820941 -926.18098,-68.103433 C -927.76817,-67.760311 -930.54249,-66.224774 -932.34621,-64.691256 C -936.38095,-61.26061 -935.78994,-60.262699 -927.31221,-56.190634 C -920.57395,-52.954109 -912.10161,-50.636614 -892.03228,-46.540502 C -861.34644,-40.277437 -843.65059,-38.783455 -805.4581,-39.230948 C -789.8507,-39.413812 -774.05091,-39.217673 -770.34746,-38.795095 C -763.14709,-37.973506 -752.73173,-38.277381 -735.71779,-39.805319 z M -664.83884,-54.362669 C -658.90726,-59.263412 -664.8577,-67.369092 -666.83553,-70.956052 C -669.45902,-75.713784 -671.75121,-79.971983 -673.04934,-82.499276 C -673.59284,-83.557404 -675.62041,-87.020371 -677.55505,-90.194758 C -679.48969,-93.369144 -682.01978,-98.78003 -683.17747,-102.21895 C -684.33506,-105.65787 -686.50759,-111.06875 -688.00513,-114.24314 C -689.50267,-117.41752 -691.72609,-122.28713 -692.94601,-125.06443 C -695.37221,-130.58834 -700.01033,-138.59369 -701.60493,-137.60818 C -702.27635,-137.1932 -709.67514,-135.02937 -709.59376,-132.10723 C -709.5117,-129.16074 -701.94382,-125.45223 -701.25598,-124.16706 C -700.66083,-123.05487 -704.23981,-116.857 -704.27088,-113.37461 C -704.30714,-109.30071 -703.52653,-105.89902 -702.08161,-101.25701 C -700.84639,-97.28903 -698.71291,-90.363096 -697.34042,-85.866049 C -694.41758,-76.288733 -682.47304,-64.283973 -677.28561,-61.836617 C -675.52575,-61.006275 -673.31118,-58.783531 -672.23006,-56.762312 C -670.3413,-53.231146 -671.08997,-47.18192 -664.83884,-54.362669 z M -934.90121,-69.032182 C -932.64143,-70.883907 -929.96465,-72.398955 -928.95279,-72.398955 C -925.68914,-72.398955 -919.30718,-76.549898 -910.77914,-84.219408 C -898.22358,-95.510893 -891.38614,-101.23537 -890.60794,-106.89405 C -889.4995,-114.95324 -894.73551,-120.26052 -898.89107,-128.07288 C -901.01271,-132.06155 -902.43551,-135.89418 -902.14019,-136.82486 C -889.48853,-146.22181 -884.2481,-142.91093 -876.78397,-157.53023 C -874.23349,-161.90116 -873.44066,-164.82429 -870.82709,-179.49236 C -870.37161,-182.04842 -868.89629,-186.0214 -867.54852,-188.3211 C -864.73804,-193.11683 -864.62876,-198.41247 -866.36101,-198.41247 C -870.63778,-195.29426 -878.28122,-185.07611 -880.0735,-183.70785 C -881.62471,-182.40433 -886.90862,-179.28391 -891.81555,-176.77355 C -898.5213,-173.3429 -901.41268,-172.34432 -903.45689,-172.75324 L -906.17648,-173.29711 L -907.30992,-165.89464 C -909.37414,-152.41398 -911.90942,-140.92366 -913.40051,-138.29152 C -913.99999,-137.23339 -914.82716,-134.8526 -915.23858,-133.00088 C -916.55431,-127.08045 -931.77059,-85.474157 -933.35634,-83.461211 C -934.96537,-81.418734 -940.77055,-65.665408 -939.91424,-65.665408 C -939.41682,-65.665408 -937.16099,-67.180456 -934.90121,-69.032182 z M -753.96286,-87.719254 C -750.51346,-89.392925 -751.77669,-88.648187 -749.67092,-90.076854 C -746.03413,-92.544218 -735.23683,-107.58376 -735.23683,-109.09207 C -735.23683,-110.19512 -724.55473,-118.14744 -720.38685,-120.14711 C -715.68934,-122.40093 -714.19949,-124.58115 -715.93117,-126.66769 C -717.68285,-128.77827 -720.44871,-128.57241 -724.54203,-126.02684 C -727.70353,-124.06075 -729.44915,-123.83152 -743.60124,-123.52427 C -755.05009,-123.27571 -761.17031,-123.58507 -766.68768,-124.69129 C -781.52265,-130.60158 -796.6209,-130.72425 -811.71183,-132.63269 C -822.27042,-134.13089 -830.9414,-128.48324 -835.75906,-126.37872 C -837.87532,-125.4543 -841.66294,-124.12904 -844.176,-123.43376 C -846.68905,-122.73847 -850.33552,-119.6011 -850.66002,-119.64931 C -863.26942,-121.52256 -831.78701,-110.08562 -830.70425,-110.75484 C -830.04985,-111.15933 -831.42978,-116.27157 -831.74192,-118.19554 C -832.03002,-119.97031 -831.81974,-121.69804 -831.27471,-122.03481 C -829.73715,-122.98511 -827.71401,-120.38538 -825.225,-114.26141 C -821.90277,-106.08728 -821.02981,-105.34014 -814.95558,-105.47279 L -807.86294,-105.58572 L -808.29889,-108.95249 C -809.28641,-116.57997 -808.89009,-120.92387 -807.17583,-121.26113 C -806.03911,-121.48478 -805.31843,-120.7439 -804.85603,-118.8763 C -804.48712,-117.38617 -805.26417,-115.56705 -804.23163,-114.83367 C -802.75352,-113.78391 -802.45763,-112.72857 -802.84067,-109.87239 C -803.11107,-107.85637 -802.86039,-105.77763 -802.2764,-105.19373 C -801.67856,-104.59579 -797.63834,-104.14282 -792.90311,-104.14282 L -784.58064,-104.14282 L -783.97635,-111.97942 C -783.64401,-116.28956 -783.16564,-120.02244 -782.91332,-120.27466 C -782.661,-120.52698 -781.7867,-120.47706 -780.97021,-120.16375 C -779.82483,-119.72424 -779.48585,-118.03134 -779.48585,-112.75031 C -779.48585,-107.70534 -779.16976,-106.01042 -778.28343,-106.30227 C -777.59959,-106.52736 -776.95076,-108.72961 -776.77896,-111.40812 C -776.42507,-116.92828 -775.08894,-119.15007 -773.11062,-117.50814 C -772.15667,-116.71647 -771.96169,-115.0477 -772.3935,-111.37292 C -773.10254,-105.34043 -771.84443,-103.99266 -768.09163,-106.76448 C -766.68701,-107.80192 -763.8063,-108.97164 -761.69005,-109.36401 C -757.38077,-110.1628 -752.55166,-112.30378 -752.55166,-114.68082 C -752.55166,-116.91626 -752.54752,-118.57185 -749.94433,-118.57185 C -747.81682,-118.57185 -747.72948,-118.28404 -747.90243,-111.8458 C -748.0523,-106.26504 -748.44958,-104.77539 -750.23513,-103.09797 L -750.4633,-101.07617 L -751.50748,-103.02726 C -752.08175,-104.1003 -752.55166,-105.91884 -752.55166,-107.06835 C -752.55166,-108.67555 -752.94047,-109.00184 -754.23505,-108.48095 C -755.16091,-108.1084 -759.84659,-107.19504 -762.29626,-106.45118 C -764.74592,-105.70731 -767.28793,-104.45073 -767.94513,-103.65887 C -768.60242,-102.86691 -769.95288,-102.21895 -770.94617,-102.21895 C -772.29461,-102.21895 -772.7523,-101.51751 -772.7523,-99.45098 C -772.7523,-97.928525 -773.42941,-96.120952 -774.25706,-95.434131 C -775.1633,-94.681993 -775.55413,-93.35789 -775.23967,-92.105065 C -774.64626,-89.740628 -776.77127,-86.225717 -778.24389,-87.1359 C -778.7795,-87.466902 -779.94575,-90.332603 -780.83564,-93.504007 C -781.72543,-96.675412 -782.92746,-99.563142 -783.50664,-99.921078 C -784.08582,-100.27901 -788.4735,-100.55971 -793.25701,-100.5448 C -800.51433,-100.52219 -802.16482,-100.22996 -803.22526,-98.779645 C -803.92429,-97.823674 -803.24839,-94.562953 -803.24185,-94.002722 C -803.22415,-92.489021 -797.97714,-89.309182 -792.59694,-87.590396 C -775.73306,-82.202981 -763.27209,-83.20239 -753.96286,-87.719254 z M -809.99607,-99.81411 C -810.57458,-101.32185 -817.00874,-102.53551 -817.00874,-101.14253 C -817.00874,-99.967333 -810.12416,-96.371208 -808.69472,-96.371208 C -807.97674,-96.371208 -809.67863,-98.986846 -809.99607,-99.81411 z M -875.03632,-120.26436 C -873.38352,-121.80038 -879.42823,-123.38152 -882.38272,-123.38152 C -884.79631,-123.38152 -885.29873,-122.99482 -885.29873,-121.13704 C -885.29873,-119.90259 -885.00543,-118.59917 -884.64682,-118.24065 C -883.92114,-117.51497 -876.35225,-119.04145 -875.03632,-120.26436 z M -850.66906,-131.09057 C -847.23014,-132.03067 -839.67895,-133.67308 -836.24003,-134.74044 C -832.80111,-135.80771 -827.8231,-137.16894 -825.17777,-137.76534 C -822.53245,-138.36184 -818.85305,-139.2549 -817.00132,-139.7501 C -812.60374,-140.92616 -803.86966,-140.94358 -801.69674,-139.78069 C -800.75568,-139.27702 -796.99653,-138.61492 -793.3431,-138.30922 C -784.31274,-137.55372 -773.04704,-135.24238 -765.2646,-132.54848 C -761.7114,-131.31845 -754.84713,-129.77984 -750.01071,-129.12928 C -741.15109,-127.93763 -737.00246,-128.48719 -727.87994,-132.06087 C -723.70332,-133.69693 -713.11231,-142.03576 -713.11231,-143.68798 C -713.11231,-145.77047 -715.62893,-148.39184 -717.62822,-148.39184 C -718.44913,-148.39184 -721.66286,-149.78934 -724.76972,-151.49735 C -730.19946,-154.48233 -730.54739,-154.9103 -733.73486,-162.52479 C -736.16346,-168.32641 -736.91059,-171.31235 -736.5262,-173.68093 C -735.90662,-177.49914 -738.01047,-180.23651 -740.96996,-179.46254 C -742.02549,-179.18656 -744.44476,-177.49356 -746.34602,-175.70051 C -749.35323,-172.86434 -760.55842,-169.84954 -753.5136,-173.01767 C -753.22396,-173.14792 -751.50988,-175.60787 -749.06099,-178.06783 C -743.29582,-183.85907 -742.28185,-186.43657 -741.43111,-197.46285 C -740.24408,-212.84795 -740.74631,-218.69363 -743.50322,-221.5828 C -744.89446,-223.04081 -745.64121,-224.68841 -745.30627,-225.56117 C -744.99191,-226.38045 -745.62775,-228.71709 -746.71925,-230.7537 C -747.81086,-232.79031 -748.70392,-234.93754 -748.70392,-235.52548 C -748.70392,-236.60198 -750.03379,-239.64554 -753.84748,-247.29773 C -754.98651,-249.58309 -757.91868,-253.33579 -760.36354,-255.63713 C -765.50768,-260.47932 -777.31582,-263.07128 -782.69409,-260.98205 C -797.70721,-255.14994 -799.68649,-249.62648 -799.68649,-245.74844 C -799.68649,-243.19229 -799.64436,-243.19191 -791.35161,-245.66716 C -786.69642,-247.05657 -781.90338,-246.00634 -776.51251,-242.41553 C -771.49188,-239.07136 -769.9244,-234.84096 -769.23383,-222.77147 C -768.7015,-213.4683 -766.95626,-209.55775 -768.83174,-203.92196 C -770.76783,-198.10408 -771.39972,-193.41243 -775.94266,-190.57751 C -780.37285,-187.81301 -781.73312,-187.45969 -788.14327,-187.40822 L -795.35778,-187.35022 L -796.95796,-189.83345 C -796.53933,-185.58103 -787.72001,-178.71473 -784.44434,-176.43533 C -780.52772,-173.70998 -775.8658,-172.41233 -767.70214,-171.77504 C -760.1193,-171.18316 -751.66168,-172.7719 -762.76674,-168.95869 C -766.19604,-167.78118 -781.18184,-169.34019 -784.17605,-170.7753 C -785.53873,-171.42846 -788.36441,-174.25626 -790.45537,-177.05944 C -793.74683,-181.47183 -794.64306,-182.11719 -797.13255,-181.86728 C -799.4462,-181.63507 -800.2246,-180.93209 -801.11592,-178.26993 C -801.72531,-176.45015 -802.84337,-174.7758 -803.60051,-174.54917 C -804.35765,-174.32254 -807.47913,-172.88954 -810.53702,-171.36478 C -813.59501,-169.84001 -817.0903,-168.59248 -818.30455,-168.59248 C -819.51871,-168.59248 -823.6938,-167.5103 -827.58261,-166.18764 C -837.50055,-162.81433 -841.8938,-163.01345 -849.33187,-167.17305 C -852.66613,-169.03766 -855.69488,-170.96305 -855.97423,-171.50176 C -864.0503,-187.07596 -865.28091,-176.68141 -865.17927,-165.23302 C -865.1391,-160.70862 -869.26057,-156.40784 -869.24893,-155.32104 C -869.21738,-152.37925 -875.97575,-145.38887 -881.58595,-140.26426 C -884.31207,-137.774 -888.46648,-136.82851 -888.46648,-135.81175 C -888.46648,-130.99361 -864.7264,-127.24754 -850.66906,-131.09057 z M -707.5378,-151.52111 C -706.05815,-153.30406 -708.74157,-162.64686 -711.59467,-165.64598 C -712.88472,-167.00202 -716.02727,-170.22379 -718.57803,-175.2499 C -723.37703,-184.70611 -730.32437,-187.94004 -732.96979,-190.13556 C -734.18943,-191.14771 -732.63931,-195.44688 -733.79392,-194.4886 C -735.63208,-192.96317 -735.63478,-189.70038 -733.80085,-186.18162 C -732.91029,-184.47293 -732.58362,-182.24913 -732.94078,-180.32728 C -733.30074,-178.39119 -732.74561,-176.68899 -731.46171,-172.46196 C -729.73388,-166.77337 -728.50713,-164.77648 -723.75949,-159.92458 C -720.17638,-156.26278 -717.03076,-153.93711 -715.15296,-153.56157 C -713.52527,-153.23605 -711.69798,-152.37252 -711.09225,-151.6427 C -709.72784,-149.99875 -708.82689,-149.96787 -707.5378,-151.52111 z M -823.2539,-171.70482 C -820.07952,-172.77132 -816.58865,-174.45519 -815.49647,-175.44685 C -814.40419,-176.4386 -813.02189,-177.2499 -812.42472,-177.2499 C -810.54135,-177.2499 -808.34391,-181.39122 -808.34391,-184.94076 C -808.34391,-188.66432 -808.38825,-188.68664 -822.09737,-191.84929 C -829.00118,-193.44196 -831.03452,-198.60842 -829.42347,-210.4636 C -828.9222,-214.15224 -828.09667,-221.18533 -827.58886,-226.09274 C -826.73794,-234.31507 -826.41848,-235.26383 -823.5168,-238.18321 C -819.67329,-242.05028 -815.61094,-243.77503 -811.19537,-243.4145 C -806.03728,-242.99327 -806.22101,-246.0933 -811.6216,-250.60765 C -816.90426,-255.02341 -818.60295,-255.67772 -826.93561,-256.50633 C -832.93261,-257.10264 -834.01902,-256.91448 -839.44077,-254.34082 C -844.40263,-251.98533 -845.89016,-250.67133 -848.4921,-246.34436 C -855.05481,-235.4313 -856.55581,-229.94442 -856.6043,-216.68924 C -856.67279,-197.94594 -855.69392,-184.30406 -854.05257,-181.13006 C -853.24974,-179.57759 -852.59293,-177.64535 -852.59293,-176.83627 C -852.59293,-175.25504 -846.94166,-172.02515 -840.62107,-169.99383 C -836.0766,-168.53332 -831.29097,-169.00477 -823.2539,-171.70482 z M -811.09581,-198.38054 L -808.82487,-200.27238 L -812.9131,-200.30441 C -816.37068,-200.33144 -817.00132,-200.03959 -817.00132,-198.41247 C -817.00132,-195.90192 -814.08983,-195.88614 -811.09581,-198.38054 z M -790.63583,-216.96407 C -787.71809,-216.96407 -784.52196,-220.13682 -787.47039,-220.438 C -790.53233,-220.75082 -797.02895,-225.79819 -797.02895,-224.61453 C -797.02895,-224.16752 -797.37784,-218.40264 -796.31972,-217.44504 C -795.26159,-216.48743 -794.36843,-215.01355 -794.33486,-214.16965 C -794.29523,-213.17106 -793.97019,-213.39106 -793.4039,-214.79972 C -792.91379,-216.01906 -791.70522,-216.96407 -790.63583,-216.96407 z M -809.78681,-205.14602 C -809.45985,-205.67509 -809.44811,-206.52197 -809.76084,-207.02786 C -810.55212,-208.30819 -813.15358,-207.15512 -813.15358,-205.52406 C -813.15358,-203.98602 -810.67573,-203.70783 -809.78681,-205.14602 z M -811.03011,-215.72731 C -809.40617,-215.72731 -808.00021,-218.24065 -808.85258,-219.61988 C -809.13577,-220.07805 -809.95524,-220.22743 -810.67362,-219.95174 C -811.39199,-219.67615 -813.17167,-220.64251 -814.62852,-222.09936 L -817.2774,-224.74824 L -819.53939,-221.92121 C -822.46954,-218.25912 -822.40038,-216.33054 -819.24994,-213.8524 L -816.68879,-211.83782 L -814.61871,-213.78256 C -813.48016,-214.85224 -811.86536,-215.72731 -811.03011,-215.72731 z M -787.26021,-205.1338 C -786.06751,-206.57084 -786.52923,-209.47473 -787.9504,-209.47473 C -789.14397,-209.47473 -791.22694,-205.65229 -790.59264,-204.6259 C -789.77846,-203.30872 -788.62952,-203.4838 -787.26021,-205.1338 z M -782.39118,-197.92381 C -782.39118,-200.48737 -787.78167,-201.2726 -791.35228,-199.22916 C -793.28895,-198.12091 -793.07684,-197.9821 -788.64376,-197.45641 C -785.99844,-197.14272 -783.50943,-196.81807 -783.11263,-196.73496 C -782.71583,-196.65184 -782.39118,-197.18687 -782.39118,-197.92381 z M -853.55486,-266.62695 C -853.55486,-267.2399 -852.64795,-271.35756 -851.53942,-275.77726 C -849.1114,-285.45818 -845.67488,-289.33363 -836.721,-292.48887 C -831.3305,-294.38831 -818.06026,-297.4918 -814.10459,-297.4918 C -811.36288,-297.4918 -807.45127,-292.65192 -807.50427,-289.32516 C -807.55805,-285.95819 -808.27984,-282.01276 -810.02729,-281.44522 C -810.09569,-284.14963 -816.30036,-282.55889 -817.28423,-285.07893 C -817.58108,-286.21411 -819.60711,-287.82198 -822.16788,-288.95476 C -826.25014,-290.7605 -826.93994,-288.79917 -832.43519,-287.52961 C -839.67164,-285.85786 -843.77535,-282.2027 -847.96487,-273.69775 C -850.9208,-267.69691 -853.55486,-264.36506 -853.55486,-266.62695 z M -746.78005,-278.3601 C -749.65922,-292.23815 -776.4696,-294.34377 -783.40564,-282.71911 C -784.86691,-279.41563 -785.85886,-278.44946 -788.28794,-277.96359 C -789.96459,-277.62826 -791.52322,-277.54072 -791.75148,-277.76909 C -792.76989,-278.78749 -787.32803,-290.56548 -783.20796,-295.03636 C -780.74444,-297.70948 -780.58178,-292.12487 -779.06741,-294.38311 C -777.55313,-296.64125 -775.38868,-298.72115 -774.25763,-299.00502 C -773.12659,-299.28889 -767.61095,-298.41526 -762.00065,-297.06354 C -756.39036,-295.71193 -750.91262,-294.60599 -749.82784,-294.60599 C -747.43513,-294.60599 -746.65923,-293.49015 -745.14553,-287.87245 C -743.41789,-281.46076 -743.52438,-275.44342 -745.33715,-275.44342 C -746.30245,-275.44342 -746.78005,-276.40881 -746.78005,-278.3601 z "
           id="path2068"
           sodipodi:nodetypes="cssssscccssssssscccsssssssssssssssscccssssssssssssssssssssssccssssssssssssssssssssssssssssssssssssccssssssssssssssccssssccssccscccssssccssssssccssssssscccssssscccsssssssssssscccsssssssssssssssccssccsssccssssssssssssssssssssssssssssssscccsssssssssssssssssccssssssssssccssssssssssssssssccccsccsssssccssccssccccccccssccsssccssssccssscccsssssssssc" />
      </g>
      <g
         id="g2070">
        <path
           style="fill:black"
           d="M -2206.6916,723.34709 C -2205.0177,723.03201 -2198.2967,728.41442 -2194.3964,733.19362 C -2188.2206,740.761 -2183.3002,757.1232 -2185.5634,762.56721 C -2186.2067,764.11451 -2187.0545,765.44102 -2187.4474,765.51498 C -2187.8402,765.58903 -2189.1815,760.23219 -2190.4278,753.61087 C -2192.548,742.34747 -2192.942,741.24494 -2196.5473,736.48959 C -2198.6667,733.69409 -2201.1183,731.00865 -2201.9953,730.52187 C -2202.8722,730.0352 -2203.6942,729.0819 -2203.8219,728.40352 C -2203.9496,727.72513 -2204.8211,726.74441 -2205.7585,726.22414 C -2207.7664,725.10973 -2208.2434,723.63918 -2206.6916,723.34709 z "
           id="path2072" />
        <path
           id="path2074"
           d="M -2179.7586,767.35997 C -2178.3253,766.4397 -2177.1347,757.91182 -2177.5807,751.75924 C -2178.2867,742.0172 -2185.9442,726.7432 -2191.3275,724.33929 C -2192.8576,723.65609 -2194.3848,723.27381 -2194.7212,723.48982 C -2195.0577,723.70569 -2192.3547,728.52115 -2188.7144,734.19068 C -2182.5221,743.83511 -2182.0515,744.90719 -2181.4075,750.83988 C -2181.0289,754.32747 -2180.9673,757.96315 -2181.2707,758.91922 C -2181.5741,759.87513 -2181.5171,761.1326 -2181.1442,761.71347 C -2180.7712,762.29435 -2180.7314,763.60574 -2181.0557,764.62762 C -2181.7503,766.81648 -2181.0874,768.21311 -2179.7586,767.35997 z "
           style="fill:black" />
      </g>
      <g
         id="g2076"
         transform="matrix(-0.684511,-0.729003,0.729003,-0.684511,-4456.293,-335.8774)"
         inkscape:transform-center-y="31.765213"
         inkscape:transform-center-x="25.027138">
        <path
           id="path2078"
           d="M -2206.6916,723.34709 C -2205.0177,723.03201 -2198.2967,728.41442 -2194.3964,733.19362 C -2188.2206,740.761 -2183.3002,757.1232 -2185.5634,762.56721 C -2186.2067,764.11451 -2187.0545,765.44102 -2187.4474,765.51498 C -2187.8402,765.58903 -2189.1815,760.23219 -2190.4278,753.61087 C -2192.548,742.34747 -2192.942,741.24494 -2196.5473,736.48959 C -2198.6667,733.69409 -2201.1183,731.00865 -2201.9953,730.52187 C -2202.8722,730.0352 -2203.6942,729.0819 -2203.8219,728.40352 C -2203.9496,727.72513 -2204.8211,726.74441 -2205.7585,726.22414 C -2207.7664,725.10973 -2208.2434,723.63918 -2206.6916,723.34709 z "
           style="fill:black" />
        <path
           style="fill:black"
           d="M -2179.7586,767.35997 C -2178.3253,766.4397 -2177.1347,757.91182 -2177.5807,751.75924 C -2178.2867,742.0172 -2185.9442,726.7432 -2191.3275,724.33929 C -2192.8576,723.65609 -2194.3848,723.27381 -2194.7212,723.48982 C -2195.0577,723.70569 -2192.3547,728.52115 -2188.7144,734.19068 C -2182.5221,743.83511 -2182.0515,744.90719 -2181.4075,750.83988 C -2181.0289,754.32747 -2180.9673,757.96315 -2181.2707,758.91922 C -2181.5741,759.87513 -2181.5171,761.1326 -2181.1442,761.71347 C -2180.7712,762.29435 -2180.7314,763.60574 -2181.0557,764.62762 C -2181.7503,766.81648 -2181.0874,768.21311 -2179.7586,767.35997 z "
           id="path2080" />
      </g>
    </g>
    <path
       style="opacity:1;fill:white;fill-opacity:1;fill-rule:nonzero;stroke:none;stroke-width:5.92700005;stroke-linecap:round;stroke-linejoin:round;stroke-miterlimit:4;stroke-dasharray:none;stroke-dashoffset:0;stroke-opacity:1"
       d="M 444.86727,109.87126 L 435.4042,108.68838 L 427.41972,115.48996 L 423.57535,122.883 L 425.6454,129.68458 L 429.19405,132.64179 L 433.03842,134.41612 L 438.06568,135.00756 L 442.5015,134.41612 L 444.86727,130.27602 L 447.82448,125.24876 L 448.41593,120.2215 L 446.93732,114.30708 L 444.86727,109.87126 z "
       id="path2106" />
    <path
       style="opacity:1;fill:#f2f2f2;fill-opacity:1;fill-rule:nonzero;stroke:none;stroke-width:5.92700005;stroke-linecap:round;stroke-linejoin:round;stroke-miterlimit:4;stroke-dasharray:none;stroke-dashoffset:0;stroke-opacity:1"
       d="M 443.98011,107.20977 L 438.95285,100.99963 L 433.33414,99.816744 L 428.89833,100.99963 L 425.6454,105.73117 L 423.27963,116.37713 L 423.87107,121.99583 L 425.34968,119.03862 L 427.41972,115.48996 L 431.55983,111.64559 L 436.8828,108.98411 L 443.98011,107.20977 z "
       id="path2110" />
    <path
       style="opacity:1;fill:#f2f2f2;fill-opacity:1;fill-rule:nonzero;stroke:none;stroke-width:5.92700005;stroke-linecap:round;stroke-linejoin:round;stroke-miterlimit:4;stroke-dasharray:none;stroke-dashoffset:0;stroke-opacity:1"
       d="M 448.17269,107.51175 L 449.00912,103.53873 L 453.19125,96.638224 L 458.41891,94.338054 L 461.13729,94.547154 L 463.85568,98.311074 L 466.36495,105.42069 L 466.99227,108.9755 L 463.85568,106.67533 L 458.41891,104.16605 L 451.93661,105.21158 L 448.17269,107.51175 z "
       id="path2112" />
    <path
       style="fill:black"
       d="M 495.49269,164.49261 C 494.51874,164.08917 494.06966,164.23429 489.94796,166.28429 C 487.48122,167.51114 485.25415,168.51496 484.99891,168.51496 C 484.74367,168.51496 484.3364,168.75401 484.09393,169.04618 C 483.85142,169.33839 482.88148,169.86674 481.93847,170.22032 C 480.99547,170.57384 479.81101,171.14875 479.30633,171.49781 C 478.00811,172.39577 464.05832,174.99246 457.83435,175.49475 C 455.00812,175.72283 452.20024,176.05786 451.59463,176.23925 C 450.38316,176.60216 441.96263,177.86334 438.19758,178.24584 C 435.34386,178.53573 418.98221,178.51294 415.72275,178.21454 C 414.45746,178.0987 412.84412,177.86071 412.13756,177.68567 C 411.43101,177.51062 408.91584,177.25281 406.54832,177.11279 L 402.24374,176.85813 L 402.41586,173.34226 C 402.51048,171.4085 402.82478,168.9945 403.11426,167.97776 C 403.40374,166.96104 403.75765,165.13817 403.90076,163.92692 C 404.04387,162.71569 404.32436,161.31175 404.52407,160.80707 C 404.72382,160.30238 405.01588,158.81586 405.17311,157.50369 C 405.33036,156.1915 405.88804,152.31004 406.41236,148.87818 C 406.93671,145.44634 407.351,141.23452 407.33301,139.5186 C 407.31503,137.80268 407.40429,136.13843 407.53144,135.82028 C 407.65858,135.50213 408.4605,134.80068 409.3135,134.26149 C 410.16651,133.7223 412.48989,131.64955 414.47658,129.65536 C 417.39751,126.72343 418.04265,125.88426 417.84771,125.27012 C 417.55585,124.35046 418.62343,123.56877 420.65842,123.21219 C 421.40836,123.08075 422.12332,122.80925 422.2472,122.60881 C 422.37108,122.40836 422.5299,120.0611 422.60011,117.39266 C 422.67033,114.72422 422.96451,111.10085 423.25378,109.34066 C 423.70795,106.57723 424.01135,105.80065 425.47636,103.6515 C 427.19126,101.13579 429.14808,99.510974 430.46286,99.510974 C 430.85754,99.510974 431.29561,99.324664 431.43633,99.096944 C 431.86312,98.406404 435.61616,99.017454 438.20722,100.19936 C 440.83782,101.3993 442.30918,102.77097 444.06368,105.65894 C 444.70755,106.71877 446.45636,109.06898 446.59045,109.06898 C 447.10543,109.06894 447.8654,104.85482 449.08057,102.33103 C 451.63397,97.027894 455.46179,92.904214 457.831,92.904214 C 459.5927,92.904214 463.5235,95.219984 463.5235,96.257834 C 463.5235,96.411844 463.9829,97.248084 464.54437,98.116144 C 465.73347,99.954684 466.35395,101.48327 467.04734,104.28252 C 467.3224,105.39282 467.92695,107.70519 468.39082,109.42112 C 469.20932,112.44882 469.26427,112.53742 470.25223,112.4204 C 471.50477,112.27204 472.21225,112.82731 472.91561,114.5106 C 473.65939,116.29073 478.58892,120.99705 482.09453,123.27396 C 483.69007,124.31023 485.36132,125.45746 485.80849,125.82336 C 486.61415,126.48257 488.3819,131.18208 490.68399,138.78452 C 491.70833,142.16726 494.13664,149.21084 495.04967,151.44749 C 495.29687,152.0531 496.05926,153.86996 496.74382,155.48495 C 497.42844,157.09994 498.23508,159.16455 498.53647,160.07298 C 498.88233,161.11568 498.84603,160.71032 499.09073,162.08551 C 499.33548,163.46072 500.62516,165.13068 495.49269,164.49261 z M 496.40284,161.64701 C 495.1916,160.50301 494.94914,160.41771 494.10508,159.81572 C 492.12334,158.40235 491.52896,157.67745 488.09062,152.48068 C 487.37047,151.39224 485.41268,149.09433 483.73995,147.37423 L 480.6986,144.24681 L 478.62605,144.48479 C 477.05897,144.66472 476.36837,144.94199 475.7944,145.62167 C 475.29283,146.21562 474.82346,146.4393 474.41087,146.28096 C 474.06747,146.14919 472.6843,146.15939 471.33718,146.30364 C 469.28516,146.52342 468.72549,146.7398 467.88661,147.63788 C 466.92107,148.67146 464.99167,153.06709 464.99167,154.23323 C 464.99167,156.73297 462.73961,160.65287 460.53222,161.99526 C 458.25321,163.38121 457.00237,162.57643 450.98342,155.85199 C 446.05382,150.34452 445.89614,150.20633 444.26329,149.96232 C 443.14997,149.79598 442.01628,150.01198 439.66575,150.8383 C 436.31674,152.01563 427.59427,154.73813 426.08517,155.07717 C 425.58049,155.19055 424.16411,155.09897 422.93768,154.87368 C 421.47906,154.60573 420.20956,154.58159 419.26726,154.80375 C 417.90197,155.12573 417.71165,155.35579 415.62447,159.20768 C 413.60206,162.93999 412.82004,164.13185 409.81037,168.06882 C 409.23697,168.81887 408.55486,169.92807 408.29459,170.53369 C 408.03428,171.13932 406.97559,172.43537 405.94196,173.41384 C 404.90832,174.3923 404.06263,175.32665 404.06263,175.49009 C 404.06263,175.65357 405.67302,175.89108 407.64129,176.01793 C 409.60956,176.14482 412.87164,176.41765 414.89038,176.62425 C 419.30759,177.0763 437.03255,176.81852 441.68448,176.23456 C 443.50133,176.00648 447.05247,175.42068 449.57589,174.93277 C 452.09931,174.44483 456.3937,173.86865 459.119,173.65234 C 461.84429,173.43604 465.23025,173.00323 466.64337,172.69055 C 468.05648,172.37786 470.69918,171.98898 472.51605,171.82638 C 476.60274,171.46062 480.57388,170.23198 482.15763,168.84332 C 482.81743,168.26478 483.80844,167.6825 484.35988,167.54938 C 485.24534,167.33558 486.96798,166.48981 492.64164,163.48324 C 495.57013,160.87856 497.20637,163.99975 496.40284,161.64701 z M 449.57589,166.05541 C 449.57589,164.42743 449.45037,164.2079 447.35308,162.1684 C 445.09856,159.9759 444.81799,159.19278 446.02465,158.46064 C 446.59811,158.11269 446.97881,158.37094 448.67194,160.2565 C 451.37252,163.26398 451.67071,164.05884 450.8775,166.13587 C 450.53197,167.04063 450.09776,167.78088 449.91258,167.78088 C 449.7274,167.78088 449.57589,167.00444 449.57589,166.05541 z M 406.82392,169.43175 C 407.63608,168.22096 409.33575,165.77381 410.60094,163.99366 C 413.65617,159.69493 415.86164,155.45951 415.59602,154.40111 C 415.44612,153.80397 415.62979,153.42686 416.27718,153.00271 C 417.70875,152.0647 418.19894,150.43412 417.69961,148.27091 C 417.46673,147.26191 417.27616,145.82909 417.27616,145.08682 C 417.27616,143.5593 418.36836,139.47503 419.2144,137.83906 C 420.2695,135.79867 420.6284,132.61901 420.15369,129.51669 C 419.91354,127.94711 419.54124,126.68779 419.32315,126.70709 C 419.10572,126.72633 417.44132,128.3615 415.62447,130.34078 C 413.8076,132.3201 411.61911,134.39289 410.76115,134.94705 C 409.9032,135.50121 409.18647,136.2197 409.16844,136.54372 C 409.15042,136.86771 409.09464,138.28902 409.0445,139.70213 C 408.90953,143.50553 408.12715,149.57237 407.33206,152.9807 C 406.947,154.63143 406.63192,156.82814 406.63192,157.86221 C 406.63192,158.89632 406.36904,160.25074 406.04774,160.87207 C 405.72643,161.4934 405.38435,163.16781 405.28756,164.59292 C 405.19077,166.01808 404.87559,167.64048 404.5871,168.19835 C 404.29863,168.75619 404.06263,169.81099 404.06263,170.54236 C 404.06263,172.49415 405.03107,172.10463 406.82392,169.43175 z M 460.03785,159.65559 C 461.72422,158.17494 461.99771,157.63182 463.06188,153.65021 C 464.51742,148.2043 464.51291,148.69301 463.1075,148.70663 C 461.76171,148.7197 459.41887,149.49478 456.02597,151.04942 C 454.54936,151.72599 454.0061,151.85875 454.33482,151.46268 C 455.03117,150.62362 454.56873,150.38093 453.18964,150.86165 C 451.4415,151.47109 450.30997,152.30005 450.30997,152.97137 C 450.30997,153.29555 450.91644,154.24145 451.65768,155.07342 C 453.46122,157.09762 457.72321,160.77965 458.28038,160.79489 C 458.52571,160.80157 459.31654,160.28891 460.03785,159.65559 z M 494.90978,155.89828 C 494.35706,154.66156 493.61068,152.97934 493.25123,152.15998 C 492.89175,151.34064 492.23673,149.35861 491.79561,147.75548 C 490.51225,143.09107 486.29031,130.33458 485.33915,128.24742 C 484.73452,126.92071 484.09947,126.14643 483.26356,125.71677 C 481.71736,124.92202 477.18603,121.51748 476.03074,120.28246 C 474.22629,118.35353 474.00712,119.5959 475.61576,122.63465 C 479.28424,129.56451 480.03296,131.31891 480.23672,133.4624 C 480.61638,137.4571 480.78853,138.00224 482.25636,139.85922 C 483.9125,141.95437 484.00279,142.29297 482.97676,142.56128 C 481.7453,142.88332 482.13561,143.75875 484.67646,146.37356 C 486.01503,147.7511 488.28276,150.44729 489.71588,152.36509 C 492.85531,156.56626 495.51915,159.3335 495.75189,158.63539 C 495.84145,158.36668 495.46252,157.13496 494.90978,155.89828 z M 428.57941,152.0513 C 433.6678,150.74074 434.68035,150.11134 439.42698,145.30848 C 443.07212,141.62014 444.26057,140.6615 446.76783,139.38728 C 449.63069,137.93232 449.89577,137.86897 452.92868,137.9151 C 456.32022,137.96667 459.01458,138.65044 461.56276,140.10624 C 462.40216,140.58577 464.62064,141.49131 466.49269,142.11851 C 469.51595,143.1314 470.22758,143.2377 472.85794,143.06949 C 476.68646,142.82463 479.67856,142.24001 480.30392,141.61463 C 480.72088,141.19767 480.68201,140.96819 480.06057,140.17818 C 478.93049,138.7415 478.50611,137.3935 478.21743,134.32359 C 477.94799,131.45821 476.39202,127.48067 474.36275,124.46986 C 473.88655,123.7633 473.2088,122.11161 472.85663,120.79944 C 472.50448,119.48726 471.91215,117.80084 471.54034,117.05186 C 471.16856,116.30287 470.86436,115.45596 470.86436,115.16985 C 470.86436,114.88371 470.62131,114.44788 470.32422,114.20129 C 469.85469,113.81164 469.81068,114.08167 469.98775,116.26686 C 470.09981,117.64947 470.32201,119.19975 470.48157,119.71192 C 471.29468,122.32197 469.48912,126.45667 466.65031,128.48541 C 464.85315,129.76974 464.76727,129.7904 461.60644,129.69944 C 457.83637,129.59094 456.24296,129.10877 453.95735,127.38477 C 452.27758,126.11777 449.28523,121.38946 449.91629,120.9994 C 450.30076,120.76178 453.24632,123.73328 453.24632,124.35875 C 453.24632,124.62174 453.40227,124.8369 453.59291,124.8369 C 453.78356,124.8369 454.56811,125.41874 455.33637,126.12988 C 456.82112,127.50427 456.868,127.52186 460.65675,128.12817 C 462.98976,128.50149 463.21384,128.47122 465.15303,127.52013 C 466.30624,126.95456 467.19584,126.27307 467.19834,125.95333 C 467.20079,125.64208 467.58612,124.71721 468.05464,123.89801 C 468.63601,122.88148 468.87392,121.94909 468.80382,120.96167 C 468.46287,116.1594 467.8081,112.98551 466.94709,111.96149 C 466.67908,111.64279 466.45985,111.21335 466.45985,111.00721 C 466.45985,110.16166 464.25877,107.67711 463.1075,107.22316 C 462.42788,106.95514 461.15744,106.42186 460.28432,106.03805 C 457.63398,104.87295 456.90258,105.18383 455.93799,107.88552 C 455.47052,109.19491 454.3053,111.22817 453.26067,112.55742 C 452.24341,113.85191 451.90269,113.35985 451.05059,113.53588 C 450.52565,113.64438 448.80976,110.15017 447.65277,111.60072 C 447.29913,112.04411 449.3092,116.77742 448.89433,121.31289 C 448.59449,124.5911 448.39123,125.28352 446.81493,128.39633 C 444.73489,132.50397 442.3565,135.31175 440.5298,135.8161 C 438.81432,136.28977 432.08794,135.44689 429.36599,134.41718 C 426.12331,133.19046 424.37395,131.02036 422.97457,126.48859 C 422.65439,125.45174 422.28988,124.98595 421.73388,124.90312 C 420.78475,124.76173 420.78068,124.84285 421.5206,129.15042 C 422.18003,132.98929 421.91979,135.27151 420.42902,138.72352 C 418.88748,142.29308 418.55916,144.26821 419.0986,146.72673 C 419.35825,147.91003 419.67379,149.5944 419.79983,150.46976 C 420.20505,153.28427 422.31583,153.66453 428.57941,152.0513 z M 450.58761,150.74463 C 451.04311,150.2641 452.90243,149.27595 454.71936,148.54873 C 457.73994,147.33976 458.33639,147.22649 461.68235,147.22649 C 465.16114,147.22649 465.37087,147.18208 465.93119,146.32691 C 466.88151,144.87658 466.46048,144.21021 463.70244,142.79964 C 462.29186,142.07818 460.34392,141.02549 459.37369,140.46036 C 457.71683,139.49526 457.40465,139.44203 454.23509,139.5843 C 451.0339,139.72797 450.71953,139.81837 448.11547,141.34412 C 445.39444,142.93841 440.33314,147.30878 440.08979,148.27422 C 439.98728,148.68087 440.45026,148.72722 442.52904,148.51849 C 445.46476,148.22364 446.27483,148.50909 447.85916,150.3966 C 449.08512,151.85721 449.48464,151.90815 450.58761,150.74463 z M 441.70298,133.09984 C 442.57705,132.38359 444.03134,130.60307 444.93475,129.14308 C 446.37517,126.81522 446.65052,126.02116 447.17239,122.68992 C 447.76299,118.92021 447.76131,118.87753 446.94922,117.08067 L 446.13091,115.27005 L 444.592,115.5008 C 443.65025,115.64205 442.71631,115.55762 442.18527,115.2833 C 440.86461,114.60112 439.66597,113.39795 439.66368,112.75228 C 439.66255,112.43417 439.48424,111.53503 439.26739,110.7541 L 438.87319,109.33428 L 436.97544,109.58071 C 434.7364,109.87145 433.30974,110.74511 430.24813,113.70047 C 428.6428,115.25008 427.87197,116.31274 427.58788,117.36781 C 427.36788,118.18484 426.77588,119.41509 426.27236,120.10165 C 425.76886,120.78824 425.08635,121.92809 424.75567,122.63465 C 424.18272,123.85884 424.19443,124.03738 425.00442,126.4284 C 425.47189,127.80844 426.25945,129.56228 426.75459,130.32588 C 427.6276,131.67223 428.11885,131.96949 432.14138,133.58525 C 434.90197,134.69413 434.89327,134.69258 437.59574,134.5422 C 439.83432,134.41763 440.29008,134.2576 441.70298,133.09984 z M 425.40813,118.32189 C 425.72845,117.76675 426.18645,116.7032 426.42597,115.95848 C 426.95345,114.31834 430.52114,110.89953 433.63109,109.05408 C 435.71255,107.8189 435.92764,107.77115 439.21414,107.8148 C 441.09412,107.83971 442.58329,107.75713 442.52335,107.63128 C 441.59624,105.68419 440.33666,103.60756 439.79719,103.13669 C 438.59669,102.08885 435.12213,100.3533 433.7115,100.09692 C 432.05307,99.795464 430.72412,100.4096 428.40078,102.55115 C 426.41082,104.38544 425.78461,105.54115 425.08569,108.6693 C 424.53652,111.1272 424.1516,119.33126 424.58544,119.33126 C 424.71761,119.33126 425.08785,118.87705 425.40813,118.32189 z M 465.22115,105.39143 C 464.89305,104.57149 464.62463,103.40664 464.62463,102.8029 C 464.62463,101.32732 463.4349,98.896984 461.89017,97.216964 C 460.88641,96.125304 460.35648,95.840554 459.32865,95.840554 C 457.09993,95.840554 455.385,96.799294 453.57727,99.055844 C 451.54713,101.59005 449.76323,104.59219 450.0921,104.92111 C 450.22321,105.05221 451.23797,104.71439 452.34709,104.17043 C 453.71275,103.50065 454.95097,103.18139 456.18306,103.18139 C 458.67722,103.18139 462.33579,104.4517 464.08725,105.92584 C 464.88751,106.59941 465.6042,107.0901 465.67995,107.01636 C 465.75568,106.94263 465.54922,106.21141 465.22115,105.39143 z M 472.10497,105.21771 C 471.80098,104.42556 472.26124,103.91548 473.27998,103.91548 C 474.30773,103.91548 477.23038,101.40818 478.04987,99.823514 C 478.79879,98.375234 478.71147,97.704534 477.44341,95.166954 C 475.56859,91.415124 472.45357,89.400314 465.35871,87.350414 C 464.65216,87.146274 463.33081,86.747884 462.42238,86.465074 C 458.51547,85.248844 447.90952,84.782654 442.48886,85.588904 C 438.05113,86.248954 427.8366,89.037964 426.66492,89.909544 C 426.44701,90.071634 424.695,90.816544 422.77155,91.564834 C 420.84814,92.313124 418.59949,93.374824 417.77449,93.924154 C 416.46063,94.799034 413.42996,98.213224 412.29836,100.09325 C 411.88765,100.77561 411.03643,100.53997 411.03643,99.743864 C 411.03643,98.902644 414.7843,93.953834 416.1957,92.931404 C 420.29626,89.961004 435.1897,84.902674 443.20088,83.759524 C 449.7194,82.829414 459.30024,83.512074 465.17519,85.325334 C 469.51727,86.665474 472.48239,87.787444 473.05751,88.307954 C 473.39713,88.615274 473.83868,88.866734 474.0388,88.866734 C 475.07309,88.866734 477.51344,91.645954 478.73037,94.209704 C 480.61124,98.172294 480.47147,99.687334 477.9696,102.45663 C 476.72265,103.83682 473.66115,105.7507 472.70023,105.7507 C 472.48532,105.7507 472.21746,105.51084 472.10497,105.21771 z M 420.2125,99.101654 C 420.2125,98.476474 422.61032,96.417574 424.59903,95.335214 C 427.74795,93.621334 433.984,92.957464 435.79404,94.143454 C 436.30848,94.480544 436.72941,94.876394 436.72941,95.023144 C 436.72944,95.169894 434.70612,95.289984 432.23314,95.289984 C 428.0264,95.289984 427.60194,95.357254 425.64186,96.334844 C 424.48961,96.909524 423.35449,97.611494 423.11936,97.894784 C 422.88427,98.178054 422.4846,98.409844 422.23123,98.409844 C 421.97786,98.409844 421.56494,98.657604 421.31362,98.960414 C 420.77532,99.609014 420.2125,99.681214 420.2125,99.101654 z M 465.45316,95.593524 C 465.05173,95.022814 464.46012,94.040394 464.13845,93.410354 C 463.68387,92.519954 463.17459,92.169394 461.8514,91.836234 C 459.78841,91.316744 455.84237,91.673334 455.56177,92.404554 C 455.19407,93.362754 454.66882,92.895214 454.78298,91.711324 L 454.89801,90.518424 L 458.19426,90.411144 C 463.65109,90.233534 466.1403,91.394854 466.6398,94.351344 C 466.98461,96.392214 466.42618,96.976804 465.45316,95.593524 z M 481.27163,88.615984 C 480.08421,88.378794 479.19589,87.223564 479.48953,86.298404 C 479.84049,85.192724 481.80656,84.098164 483.44463,84.096544 C 484.59475,84.095414 484.89095,84.255114 485.18808,85.036694 C 485.69067,86.358554 485.63892,86.842434 484.90373,87.695504 C 484.23245,88.474444 482.61511,88.884324 481.27163,88.615984 z M 402.41094,83.671324 C 400.48213,82.616374 400.23676,80.667564 401.75665,78.474404 C 402.75019,77.040664 402.76169,77.035934 404.73776,77.239904 C 406.78586,77.451284 408.2337,78.376924 408.67092,79.754474 C 408.98287,80.737454 408.17563,82.899514 407.25623,83.543484 C 406.34439,84.182174 403.48296,84.257674 402.41094,83.671324 z M 405.46594,81.403694 C 405.54595,80.991114 405.33674,80.791804 404.82361,80.791804 C 404.40508,80.791804 404.06263,81.012034 404.06263,81.281184 C 404.06263,82.405354 405.25156,82.509164 405.46594,81.403694 z M 424.43617,83.482114 C 422.74403,82.873044 421.47699,81.790564 420.69391,80.284994 C 419.91493,78.787204 420.60956,76.497184 422.35992,74.792724 C 423.80702,73.383574 429.19601,70.729224 429.99076,71.034194 C 430.92012,71.390824 430.08979,72.198644 427.33911,73.614034 C 424.20552,75.226414 422.04771,77.421184 422.04771,78.996014 C 422.04771,80.972494 424.97579,82.366894 429.20504,82.404444 C 432.78077,82.436194 446.54207,81.276814 450.30997,80.626344 C 452.0259,80.330144 455.08153,79.910874 457.10026,79.694674 C 461.83122,79.187974 468.06114,78.013584 471.78196,76.927074 C 473.39695,76.455494 475.13457,75.982344 475.64336,75.875604 C 477.05765,75.578924 479.86482,73.577694 480.34499,72.523814 C 481.79599,69.339274 474.40544,63.988534 469.95707,65.002994 C 469.15522,65.185854 468.43314,65.269394 468.35243,65.188674 C 468.27168,65.107974 468.70732,64.540234 469.32047,63.927084 C 470.34803,62.899514 470.57421,62.830694 472.20975,63.047534 C 474.34898,63.331194 477.11149,64.517184 479.17449,66.037614 C 481.07427,67.437774 482.8128,70.743064 482.444,72.253624 C 481.92152,74.393594 477.44991,77.511724 474.16774,78.024864 C 473.25931,78.166864 471.35986,78.622334 469.94675,79.037014 C 468.53363,79.451704 466.38644,79.927754 465.17519,80.094944 C 463.96396,80.262124 461.98193,80.571074 460.77069,80.781454 C 457.1638,81.407924 447.0026,82.666514 444.4373,82.804554 C 443.12512,82.875134 439.90531,83.194434 437.2822,83.514044 C 431.53965,84.213784 426.43357,84.201084 424.43617,83.482114 z M 458.42903,73.251734 C 457.26125,72.743894 457.20178,72.631644 457.41563,71.338154 C 457.54053,70.582374 457.64455,69.749144 457.64679,69.486494 C 457.65281,68.775574 460.05789,67.893054 461.23258,68.170794 C 462.48772,68.467514 463.89055,69.708554 463.89055,70.522214 C 463.89055,70.859744 463.63069,71.656784 463.31308,72.293414 C 462.86804,73.185554 462.49623,73.450954 461.69141,73.450954 C 461.11711,73.450954 460.42724,73.527524 460.15838,73.621084 C 459.88953,73.714684 459.11132,73.548444 458.42903,73.251734 z "
       id="path2096"
       sodipodi:nodetypes="csssssssssscccsssssssssssssssssssssssssssssssssszccsscccsssssssssssssssssssssssssscccsssssccssssssssssssssssssccssssssssccssssssssssssccssssssssssssssssssssssssssssssssssssssssssssssccssssssssssccsscccsscccssssssssccsssssssssccsssssssssccsssssssssssssssssssccssssssssccssscccsccssssccssssccssccsssssssssssssssssssssssccsssssssc" />
    <text
       xml:space="preserve"
       style="font-size:10.89503956px;font-style:normal;font-weight:normal;fill:black;fill-opacity:1;stroke:none;stroke-width:1px;stroke-linecap:butt;stroke-linejoin:miter;stroke-opacity:1;font-family:Bitstream Vera Sans"
       x="390.09366"
       y="211.26122"
       id="text2120"><tspan
         sodipodi:role="line"
         id="tspan2122"
         x="390.09366"
         y="211.26122">Schwips-, h, Shifttaste</tspan></text>
    <text
       id="text2124"
       y="210.69598"
       x="176.70161"
       style="font-size:10.89503956px;font-style:normal;font-weight:normal;fill:black;fill-opacity:1;stroke:none;stroke-width:1px;stroke-linecap:butt;stroke-linejoin:miter;stroke-opacity:1;font-family:Bitstream Vera Sans"
       xml:space="preserve"><tspan
         y="210.69598"
         x="176.70161"
         id="tspan2126"
         sodipodi:role="line">Brave Taste sucht Herrchen!</tspan></text>
    <g
       transform="matrix(0.390735,0,0,0.390735,1271.501,115.0128)"
       id="g2163">
      <g
         transform="translate(-1489.359,932.6676)"
         id="g2165">
        <path
           d="M -814.61707,-97.011315 C -801.71011,-96.544537 -789.06788,-94.103776 -776.23605,-92.568155 C -712.9155,-73.43275 -741.20573,-50.175626 -792.16637,-9.0159744 C -808.5842,-10.379825 -825.08043,-9.7307115 -841.52904,-9.6054772 C -855.15533,-50.135994 -816.37818,-82.677613 -776.80407,-76.978947 C -754.05545,-73.775751 -731.65294,-70.738125 -709.63155,-64.260585 C -664.27265,-19.008 -728.63814,8.7880724 -772.63764,7.2088344 C -798.98158,1.9301761 -742.77974,-37.50489 -726.57046,-58.932139 L -776.89526,5.509999 C -763.51368,-18.352634 -760.71753,-61.468435 -733.49062,-64.14958 C -751.97719,-50.66605 -774.42193,-19.507947 -760.7587,-1.1538653 C -780.17825,-4.939437 -799.68178,-8.5159893 -819.53035,-9.4812432 C -870.6474,-9.7706703 -837.07028,-42.179251 -801.54812,-79.978085 C -789.31096,-80.495845 -774.85576,-78.462652 -765.11021,-86.047072 C -802.60086,-53.598384 -799.93313,-19.178647 -819.72947,-25.114711 C -831.80887,-26.146406 -843.71167,-27.025894 -855.81753,-25.649999 L -814.61707,-97.011315 z "
           id="path2167"
           style="fill:#333;fill-opacity:1;fill-rule:nonzero;stroke:none;stroke-width:1px;stroke-linecap:butt;stroke-linejoin:miter;stroke-opacity:1" />
        <path
           id="path2169"
           d="M -857.18049,-208.90603 L -913.53922,-170.03798 C -916.32143,-134.40893 -931.63428,-98.779868 -942.69019,-63.150813 L -917.42602,-49.546934 L -824.14264,-33.999751 L -713.36867,-41.773343 L -678.38741,-41.773343 L -658.95343,-59.264018 L -674.50062,-94.245275 L -725.02915,-193.35875 L -760.01031,-208.90603 L -857.18049,-208.90603 z "
           style="opacity:1;fill:#efde9a;fill-opacity:1;fill-rule:nonzero;stroke:none;stroke-width:5.92700005;stroke-linecap:round;stroke-linejoin:round;stroke-miterlimit:4;stroke-dasharray:none;stroke-dashoffset:0;stroke-opacity:1"
           sodipodi:nodetypes="cccccccccccc" />
        <path
           id="path2171"
           d="M -801.205,-245.33125 L -818.03887,-258.72965 L -844.14858,-255.98121 C -844.14858,-255.98121 -858.92112,-225.74904 -858.92112,-224.37482 C -858.92112,-223.0006 -857.8905,-185.89741 -857.8905,-185.89741 L -851.7066,-171.12478 L -840.02601,-167.00221 L -814.2599,-172.8426 L -799.83088,-186.24091 L -793.64698,-184.86679 L -787.46308,-174.56033 C -787.46308,-174.56033 -771.31632,-169.75065 -769.9421,-170.09416 C -768.56798,-170.43776 -757.91791,-170.78127 -757.91791,-170.78127 L -749.32927,-174.90383 L -737.9921,-192.42481 L -739.70992,-219.56514 L -754.48246,-256.32482 L -773.72116,-263.19573 L -793.64698,-257.35543 L -801.205,-245.33125 z "
           style="opacity:1;fill:white;fill-opacity:1;fill-rule:nonzero;stroke:none;stroke-width:5.92700005;stroke-linecap:round;stroke-linejoin:round;stroke-miterlimit:4;stroke-dasharray:none;stroke-dashoffset:0;stroke-opacity:1" />
        <path
           id="path2173"
           d="M -891.21473,-126.80707 L -885.03083,-113.75226 L -864.4179,-119.24905 L -836.24696,-108.25548 L -807.3889,-91.078103 L -777.84373,-78.710309 L -751.73411,-82.145764 L -733.86953,-104.82002 L -714.63082,-120.62317 L -708.44702,-128.8684 L -719.4405,-131.61675 L -733.18242,-126.80707 L -773.72116,-128.18129 L -821.13082,-132.99097 L -856.17277,-124.74584 L -873.35015,-124.74584 L -891.21473,-126.80707 z "
           style="opacity:1;fill:white;fill-opacity:1;fill-rule:nonzero;stroke:none;stroke-width:5.92700005;stroke-linecap:round;stroke-linejoin:round;stroke-miterlimit:4;stroke-dasharray:none;stroke-dashoffset:0;stroke-opacity:1" />
        <path
           sodipodi:nodetypes="cssssscccssssssscccsssssssssssssssscccssssssssssssssssssssssccssssssssssssssssssssssssssssssssssssccssssssssssssssccssssccssccscccssssccssssssccssssssscccssssscccsssssssssssscccsssssssssssssssccssccsssccssssssssssssssssssssssssssssssscccsssssssssssssssssccssssssssssccssssssssssssssssccccsccsssssccssccssccccccccssccsssccssssccssscccsssssssssc"
           id="path2175"
           d="M -769.8665,-34.083344 C -777.00886,-34.542283 -794.78947,-34.692922 -809.37904,-34.418001 C -850.02966,-33.652204 -881.48571,-37.235605 -914.85794,-46.433919 C -918.6825,-47.488104 -922.24532,-48.350575 -922.77534,-48.350575 C -923.30537,-48.350575 -926.96082,-50.51493 -930.8986,-53.160252 C -934.83637,-55.805572 -938.41583,-57.97108 -938.85313,-57.972523 C -939.29033,-57.973966 -941.58021,-59.641289 -943.94177,-61.677706 L -948.23546,-65.380291 L -945.62515,-68.482436 C -944.18946,-70.18862 -942.94722,-72.308918 -942.86459,-73.194283 C -942.78196,-74.079456 -942.60977,-75.885971 -942.48213,-77.208632 C -942.35438,-78.531293 -938.5076,-84.375049 -936.28515,-90.194758 C -934.06259,-96.014466 -931.63958,-102.76869 -930.90062,-105.20422 C -930.16166,-107.63974 -928.3993,-111.31914 -926.98429,-113.38067 C -923.38088,-118.63062 -920.66553,-130.80045 -917.94508,-142.13926 C -915.56468,-152.06105 -914.91441,-166.38753 -916.53219,-173.26826 C -917.53866,-177.54925 -915.55092,-178.9532 -912.51775,-176.10366 L -910.36792,-174.08407 L -909.47591,-176.38839 C -908.79102,-178.15787 -906.77076,-179.32489 -900.77348,-181.41537 C -895.48976,-183.25709 -892.11221,-185.08515 -890.33321,-187.06587 C -888.88694,-188.67625 -886.2244,-191.34696 -884.41663,-193.00072 C -878.19849,-198.68913 -875.19302,-202.06571 -872.8407,-206.00618 C -870.12728,-210.55152 -869.42968,-210.76545 -867.0185,-207.79134 C -866.05339,-206.60095 -864.92061,-205.96886 -864.5013,-206.38673 C -864.082,-206.80459 -863.42817,-210.40021 -863.0483,-214.37704 C -862.66843,-218.35387 -861.9515,-222.12428 -861.45505,-222.75569 C -860.95869,-223.3872 -860.28456,-226.59776 -859.95693,-229.89036 C -859.62939,-233.18297 -858.51884,-238.27382 -857.48928,-241.2034 C -855.4039,-247.13631 -847.17175,-259.01439 -845.14515,-259.01439 C -844.42725,-259.01439 -842.62507,-259.64263 -841.14022,-260.41054 C -837.19513,-262.45061 -818.5611,-264.19701 -815.79717,-262.78565 C -814.60774,-262.17838 -811.16199,-259.27151 -808.14007,-256.32607 C -803.33588,-251.64346 -802.57066,-251.20405 -802.04968,-252.82818 C -800.54377,-257.52281 -799.60357,-258.97774 -796.626,-261.22126 C -791.70291,-264.93048 -784.68434,-266.90081 -774.67617,-267.38322 L -765.53779,-267.8236 L -760.04879,-264.33312 C -754.2059,-260.61764 -746.70011,-250.72193 -745.43517,-245.06634 C -745.08021,-243.47914 -744.20456,-240.88192 -743.48936,-239.29472 C -742.77417,-237.70753 -741.4061,-233.81169 -740.44936,-230.63731 C -739.49262,-227.46292 -737.49555,-222.66633 -736.01138,-219.97829 C -734.5273,-217.29017 -733.31295,-214.17109 -733.31295,-213.04697 C -733.31295,-210.43667 -736.08761,-205.87022 -730.20605,-199.75058 C -725.16811,-194.50871 -713.12039,-181.98662 -710.83253,-174.6282 C -707.93345,-165.30397 -702.40549,-153.60312 -700.1864,-150.24212 C -697.81995,-146.65786 -692.65253,-135.96239 -691.55082,-132.36831 C -691.20087,-131.22678 -690.28174,-130.04995 -689.50825,-129.75319 C -688.73485,-129.45634 -688.10325,-128.22602 -688.10469,-127.01898 C -688.10613,-125.81195 -687.28618,-123.09294 -686.28259,-120.97668 C -685.27901,-118.86043 -682.07826,-112.15093 -679.16985,-106.06669 C -676.26154,-99.982449 -673.57639,-93.562878 -673.20306,-91.800901 C -672.82974,-90.03902 -670.69616,-86.352981 -668.46168,-83.609734 C -666.2273,-80.866487 -663.91769,-77.330124 -663.32918,-75.751011 C -662.74067,-74.171898 -660.93146,-69.696783 -659.30868,-65.806236 C -657.68589,-61.915688 -656.35813,-58.115178 -656.35813,-57.36054 C -656.35813,-54.682608 -665.30134,-46.837932 -669.82523,-45.547688 C -672.20602,-44.868658 -674.82469,-43.717895 -675.64465,-42.990383 C -678.90811,-40.094573 -685.99844,-38.489584 -699.16425,-37.666456 C -706.57115,-37.203381 -716.31075,-36.41065 -720.8078,-35.904864 C -747.26563,-32.929117 -750.20473,-32.820034 -769.8665,-34.083344 z M -735.71779,-39.805319 C -729.89808,-40.327939 -716.69552,-41.136734 -706.37877,-41.602599 C -689.75604,-42.353293 -677.82911,-43.971653 -674.70907,-45.899949 C -672.61176,-47.196157 -673.73982,-50.911247 -677.28022,-54.36719 C -679.91362,-56.937769 -682.29133,-60.113118 -686.08713,-60.926723 C -692.36895,-62.273143 -695.39462,-63.265668 -696.30548,-68.851915 C -696.66668,-71.067348 -698.24368,-75.477148 -699.8099,-78.651534 C -706.60155,-92.416828 -708.1925,-96.294966 -709.28044,-101.73798 C -709.91494,-104.91237 -710.82021,-108.76463 -711.29224,-110.29843 C -711.76426,-111.83234 -709.37246,-116.37775 -709.37246,-117.62143 C -709.37246,-118.86522 -709.87565,-119.88275 -710.49071,-119.88275 C -712.06934,-119.88275 -722.93271,-112.30099 -725.32706,-109.69241 C -728.47606,-106.26158 -738.91363,-90.967192 -741.5604,-85.905488 C -744.16743,-80.919489 -747.88156,-78.687703 -754.9565,-77.855822 C -757.07276,-77.606969 -760.10285,-76.842711 -761.69005,-76.157525 C -764.45975,-74.961743 -764.27736,-74.888251 -757.15539,-74.331098 C -753.07409,-74.011832 -749.44942,-73.465164 -749.10062,-73.11627 C -746.81054,-70.826287 -755.00017,-65.726491 -761.03179,-65.686571 C -764.8931,-65.660983 -767.94262,-67.152272 -767.94262,-69.066042 C -767.94262,-69.841073 -768.3755,-70.475085 -768.90456,-70.475085 C -769.43362,-70.475085 -767.68021,-73.921122 -767.68021,-74.866896 C -767.68021,-76.597995 -770.41037,-74.131689 -787.12111,-78.725892 C -794.46222,-80.744225 -800.71518,-83.648692 -803.5376,-86.351442 C -804.86218,-87.619753 -808.84334,-89.9713 -812.38471,-91.577059 C -815.92617,-93.182817 -821.87045,-96.467538 -825.59429,-98.876512 C -838.73385,-107.37646 -847.11028,-110.72005 -859.2653,-112.31696 C -874.88376,-114.36877 -881.11864,-114.2567 -882.37906,-111.90159 C -882.92679,-110.87819 -883.37486,-108.9018 -883.37486,-107.50959 C -883.37486,-106.11738 -883.87016,-104.03277 -884.4755,-102.8772 C -886.87419,-98.298485 -895.30122,-88.604005 -898.15172,-87.144172 C -899.81212,-86.293822 -903.55145,-83.573372 -906.4613,-81.098698 C -914.1387,-74.569562 -922.86192,-68.820941 -926.18098,-68.103433 C -927.76817,-67.760311 -930.54249,-66.224774 -932.34621,-64.691256 C -936.38095,-61.26061 -935.78994,-60.262699 -927.31221,-56.190634 C -920.57395,-52.954109 -912.10161,-50.636614 -892.03228,-46.540502 C -861.34644,-40.277437 -843.65059,-38.783455 -805.4581,-39.230948 C -789.8507,-39.413812 -774.05091,-39.217673 -770.34746,-38.795095 C -763.14709,-37.973506 -752.73173,-38.277381 -735.71779,-39.805319 z M -664.83884,-54.362669 C -658.90726,-59.263412 -664.8577,-67.369092 -666.83553,-70.956052 C -669.45902,-75.713784 -671.75121,-79.971983 -673.04934,-82.499276 C -673.59284,-83.557404 -675.62041,-87.020371 -677.55505,-90.194758 C -679.48969,-93.369144 -682.01978,-98.78003 -683.17747,-102.21895 C -684.33506,-105.65787 -686.50759,-111.06875 -688.00513,-114.24314 C -689.50267,-117.41752 -691.72609,-122.28713 -692.94601,-125.06443 C -695.37221,-130.58834 -700.01033,-138.59369 -701.60493,-137.60818 C -702.27635,-137.1932 -709.67514,-135.02937 -709.59376,-132.10723 C -709.5117,-129.16074 -701.94382,-125.45223 -701.25598,-124.16706 C -700.66083,-123.05487 -704.23981,-116.857 -704.27088,-113.37461 C -704.30714,-109.30071 -703.52653,-105.89902 -702.08161,-101.25701 C -700.84639,-97.28903 -698.71291,-90.363096 -697.34042,-85.866049 C -694.41758,-76.288733 -682.47304,-64.283973 -677.28561,-61.836617 C -675.52575,-61.006275 -673.31118,-58.783531 -672.23006,-56.762312 C -670.3413,-53.231146 -671.08997,-47.18192 -664.83884,-54.362669 z M -934.90121,-69.032182 C -932.64143,-70.883907 -929.96465,-72.398955 -928.95279,-72.398955 C -925.68914,-72.398955 -919.30718,-76.549898 -910.77914,-84.219408 C -898.22358,-95.510893 -891.38614,-101.23537 -890.60794,-106.89405 C -889.4995,-114.95324 -894.73551,-120.26052 -898.89107,-128.07288 C -901.01271,-132.06155 -902.43551,-135.89418 -902.14019,-136.82486 C -889.48853,-146.22181 -884.2481,-142.91093 -876.78397,-157.53023 C -874.23349,-161.90116 -873.44066,-164.82429 -870.82709,-179.49236 C -870.37161,-182.04842 -868.89629,-186.0214 -867.54852,-188.3211 C -864.73804,-193.11683 -864.62876,-198.41247 -866.36101,-198.41247 C -870.63778,-195.29426 -878.28122,-185.07611 -880.0735,-183.70785 C -881.62471,-182.40433 -886.90862,-179.28391 -891.81555,-176.77355 C -898.5213,-173.3429 -901.41268,-172.34432 -903.45689,-172.75324 L -906.17648,-173.29711 L -907.30992,-165.89464 C -909.37414,-152.41398 -911.90942,-140.92366 -913.40051,-138.29152 C -913.99999,-137.23339 -914.82716,-134.8526 -915.23858,-133.00088 C -916.55431,-127.08045 -931.77059,-85.474157 -933.35634,-83.461211 C -934.96537,-81.418734 -940.77055,-65.665408 -939.91424,-65.665408 C -939.41682,-65.665408 -937.16099,-67.180456 -934.90121,-69.032182 z M -753.96286,-87.719254 C -750.51346,-89.392925 -751.77669,-88.648187 -749.67092,-90.076854 C -746.03413,-92.544218 -735.23683,-107.58376 -735.23683,-109.09207 C -735.23683,-110.19512 -724.55473,-118.14744 -720.38685,-120.14711 C -715.68934,-122.40093 -714.19949,-124.58115 -715.93117,-126.66769 C -717.68285,-128.77827 -720.44871,-128.57241 -724.54203,-126.02684 C -727.70353,-124.06075 -729.44915,-123.83152 -743.60124,-123.52427 C -755.05009,-123.27571 -761.17031,-123.58507 -766.68768,-124.69129 C -781.52265,-130.60158 -796.6209,-130.72425 -811.71183,-132.63269 C -822.27042,-134.13089 -830.9414,-128.48324 -835.75906,-126.37872 C -837.87532,-125.4543 -841.66294,-124.12904 -844.176,-123.43376 C -846.68905,-122.73847 -850.33552,-119.6011 -850.66002,-119.64931 C -863.26942,-121.52256 -831.78701,-110.08562 -830.70425,-110.75484 C -830.04985,-111.15933 -831.42978,-116.27157 -831.74192,-118.19554 C -832.03002,-119.97031 -831.81974,-121.69804 -831.27471,-122.03481 C -829.73715,-122.98511 -827.71401,-120.38538 -825.225,-114.26141 C -821.90277,-106.08728 -821.02981,-105.34014 -814.95558,-105.47279 L -807.86294,-105.58572 L -808.29889,-108.95249 C -809.28641,-116.57997 -808.89009,-120.92387 -807.17583,-121.26113 C -806.03911,-121.48478 -805.31843,-120.7439 -804.85603,-118.8763 C -804.48712,-117.38617 -805.26417,-115.56705 -804.23163,-114.83367 C -802.75352,-113.78391 -802.45763,-112.72857 -802.84067,-109.87239 C -803.11107,-107.85637 -802.86039,-105.77763 -802.2764,-105.19373 C -801.67856,-104.59579 -797.63834,-104.14282 -792.90311,-104.14282 L -784.58064,-104.14282 L -783.97635,-111.97942 C -783.64401,-116.28956 -783.16564,-120.02244 -782.91332,-120.27466 C -782.661,-120.52698 -781.7867,-120.47706 -780.97021,-120.16375 C -779.82483,-119.72424 -779.48585,-118.03134 -779.48585,-112.75031 C -779.48585,-107.70534 -779.16976,-106.01042 -778.28343,-106.30227 C -777.59959,-106.52736 -776.95076,-108.72961 -776.77896,-111.40812 C -776.42507,-116.92828 -775.08894,-119.15007 -773.11062,-117.50814 C -772.15667,-116.71647 -771.96169,-115.0477 -772.3935,-111.37292 C -773.10254,-105.34043 -771.84443,-103.99266 -768.09163,-106.76448 C -766.68701,-107.80192 -763.8063,-108.97164 -761.69005,-109.36401 C -757.38077,-110.1628 -752.55166,-112.30378 -752.55166,-114.68082 C -752.55166,-116.91626 -752.54752,-118.57185 -749.94433,-118.57185 C -747.81682,-118.57185 -747.72948,-118.28404 -747.90243,-111.8458 C -748.0523,-106.26504 -748.44958,-104.77539 -750.23513,-103.09797 L -750.4633,-101.07617 L -751.50748,-103.02726 C -752.08175,-104.1003 -752.55166,-105.91884 -752.55166,-107.06835 C -752.55166,-108.67555 -752.94047,-109.00184 -754.23505,-108.48095 C -755.16091,-108.1084 -759.84659,-107.19504 -762.29626,-106.45118 C -764.74592,-105.70731 -767.28793,-104.45073 -767.94513,-103.65887 C -768.60242,-102.86691 -769.95288,-102.21895 -770.94617,-102.21895 C -772.29461,-102.21895 -772.7523,-101.51751 -772.7523,-99.45098 C -772.7523,-97.928525 -773.42941,-96.120952 -774.25706,-95.434131 C -775.1633,-94.681993 -775.55413,-93.35789 -775.23967,-92.105065 C -774.64626,-89.740628 -776.77127,-86.225717 -778.24389,-87.1359 C -778.7795,-87.466902 -779.94575,-90.332603 -780.83564,-93.504007 C -781.72543,-96.675412 -782.92746,-99.563142 -783.50664,-99.921078 C -784.08582,-100.27901 -788.4735,-100.55971 -793.25701,-100.5448 C -800.51433,-100.52219 -802.16482,-100.22996 -803.22526,-98.779645 C -803.92429,-97.823674 -803.24839,-94.562953 -803.24185,-94.002722 C -803.22415,-92.489021 -797.97714,-89.309182 -792.59694,-87.590396 C -775.73306,-82.202981 -763.27209,-83.20239 -753.96286,-87.719254 z M -809.99607,-99.81411 C -810.57458,-101.32185 -817.00874,-102.53551 -817.00874,-101.14253 C -817.00874,-99.967333 -810.12416,-96.371208 -808.69472,-96.371208 C -807.97674,-96.371208 -809.67863,-98.986846 -809.99607,-99.81411 z M -875.03632,-120.26436 C -873.38352,-121.80038 -879.42823,-123.38152 -882.38272,-123.38152 C -884.79631,-123.38152 -885.29873,-122.99482 -885.29873,-121.13704 C -885.29873,-119.90259 -885.00543,-118.59917 -884.64682,-118.24065 C -883.92114,-117.51497 -876.35225,-119.04145 -875.03632,-120.26436 z M -850.66906,-131.09057 C -847.23014,-132.03067 -839.67895,-133.67308 -836.24003,-134.74044 C -832.80111,-135.80771 -827.8231,-137.16894 -825.17777,-137.76534 C -822.53245,-138.36184 -818.85305,-139.2549 -817.00132,-139.7501 C -812.60374,-140.92616 -803.86966,-140.94358 -801.69674,-139.78069 C -800.75568,-139.27702 -796.99653,-138.61492 -793.3431,-138.30922 C -784.31274,-137.55372 -773.04704,-135.24238 -765.2646,-132.54848 C -761.7114,-131.31845 -754.84713,-129.77984 -750.01071,-129.12928 C -741.15109,-127.93763 -737.00246,-128.48719 -727.87994,-132.06087 C -723.70332,-133.69693 -713.11231,-142.03576 -713.11231,-143.68798 C -713.11231,-145.77047 -715.62893,-148.39184 -717.62822,-148.39184 C -718.44913,-148.39184 -721.66286,-149.78934 -724.76972,-151.49735 C -730.19946,-154.48233 -730.54739,-154.9103 -733.73486,-162.52479 C -736.16346,-168.32641 -736.91059,-171.31235 -736.5262,-173.68093 C -735.90662,-177.49914 -738.01047,-180.23651 -740.96996,-179.46254 C -742.02549,-179.18656 -744.44476,-177.49356 -746.34602,-175.70051 C -749.35323,-172.86434 -760.55842,-169.84954 -753.5136,-173.01767 C -753.22396,-173.14792 -751.50988,-175.60787 -749.06099,-178.06783 C -743.29582,-183.85907 -742.28185,-186.43657 -741.43111,-197.46285 C -740.24408,-212.84795 -740.74631,-218.69363 -743.50322,-221.5828 C -744.89446,-223.04081 -745.64121,-224.68841 -745.30627,-225.56117 C -744.99191,-226.38045 -745.62775,-228.71709 -746.71925,-230.7537 C -747.81086,-232.79031 -748.70392,-234.93754 -748.70392,-235.52548 C -748.70392,-236.60198 -750.03379,-239.64554 -753.84748,-247.29773 C -754.98651,-249.58309 -757.91868,-253.33579 -760.36354,-255.63713 C -765.50768,-260.47932 -777.31582,-263.07128 -782.69409,-260.98205 C -797.70721,-255.14994 -799.68649,-249.62648 -799.68649,-245.74844 C -799.68649,-243.19229 -799.64436,-243.19191 -791.35161,-245.66716 C -786.69642,-247.05657 -781.90338,-246.00634 -776.51251,-242.41553 C -771.49188,-239.07136 -769.9244,-234.84096 -769.23383,-222.77147 C -768.7015,-213.4683 -766.95626,-209.55775 -768.83174,-203.92196 C -770.76783,-198.10408 -771.39972,-193.41243 -775.94266,-190.57751 C -780.37285,-187.81301 -781.73312,-187.45969 -788.14327,-187.40822 L -795.35778,-187.35022 L -796.95796,-189.83345 C -796.53933,-185.58103 -787.72001,-178.71473 -784.44434,-176.43533 C -780.52772,-173.70998 -775.8658,-172.41233 -767.70214,-171.77504 C -760.1193,-171.18316 -751.66168,-172.7719 -762.76674,-168.95869 C -766.19604,-167.78118 -781.18184,-169.34019 -784.17605,-170.7753 C -785.53873,-171.42846 -788.36441,-174.25626 -790.45537,-177.05944 C -793.74683,-181.47183 -794.64306,-182.11719 -797.13255,-181.86728 C -799.4462,-181.63507 -800.2246,-180.93209 -801.11592,-178.26993 C -801.72531,-176.45015 -802.84337,-174.7758 -803.60051,-174.54917 C -804.35765,-174.32254 -807.47913,-172.88954 -810.53702,-171.36478 C -813.59501,-169.84001 -817.0903,-168.59248 -818.30455,-168.59248 C -819.51871,-168.59248 -823.6938,-167.5103 -827.58261,-166.18764 C -837.50055,-162.81433 -841.8938,-163.01345 -849.33187,-167.17305 C -852.66613,-169.03766 -855.69488,-170.96305 -855.97423,-171.50176 C -864.0503,-187.07596 -865.28091,-176.68141 -865.17927,-165.23302 C -865.1391,-160.70862 -869.26057,-156.40784 -869.24893,-155.32104 C -869.21738,-152.37925 -875.97575,-145.38887 -881.58595,-140.26426 C -884.31207,-137.774 -888.46648,-136.82851 -888.46648,-135.81175 C -888.46648,-130.99361 -864.7264,-127.24754 -850.66906,-131.09057 z M -707.5378,-151.52111 C -706.05815,-153.30406 -708.74157,-162.64686 -711.59467,-165.64598 C -712.88472,-167.00202 -716.02727,-170.22379 -718.57803,-175.2499 C -723.37703,-184.70611 -730.32437,-187.94004 -732.96979,-190.13556 C -734.18943,-191.14771 -732.63931,-195.44688 -733.79392,-194.4886 C -735.63208,-192.96317 -735.63478,-189.70038 -733.80085,-186.18162 C -732.91029,-184.47293 -732.58362,-182.24913 -732.94078,-180.32728 C -733.30074,-178.39119 -732.74561,-176.68899 -731.46171,-172.46196 C -729.73388,-166.77337 -728.50713,-164.77648 -723.75949,-159.92458 C -720.17638,-156.26278 -717.03076,-153.93711 -715.15296,-153.56157 C -713.52527,-153.23605 -711.69798,-152.37252 -711.09225,-151.6427 C -709.72784,-149.99875 -708.82689,-149.96787 -707.5378,-151.52111 z M -823.2539,-171.70482 C -820.07952,-172.77132 -816.58865,-174.45519 -815.49647,-175.44685 C -814.40419,-176.4386 -813.02189,-177.2499 -812.42472,-177.2499 C -810.54135,-177.2499 -808.34391,-181.39122 -808.34391,-184.94076 C -808.34391,-188.66432 -808.38825,-188.68664 -822.09737,-191.84929 C -829.00118,-193.44196 -831.03452,-198.60842 -829.42347,-210.4636 C -828.9222,-214.15224 -828.09667,-221.18533 -827.58886,-226.09274 C -826.73794,-234.31507 -826.41848,-235.26383 -823.5168,-238.18321 C -819.67329,-242.05028 -815.61094,-243.77503 -811.19537,-243.4145 C -806.03728,-242.99327 -806.22101,-246.0933 -811.6216,-250.60765 C -816.90426,-255.02341 -818.60295,-255.67772 -826.93561,-256.50633 C -832.93261,-257.10264 -834.01902,-256.91448 -839.44077,-254.34082 C -844.40263,-251.98533 -845.89016,-250.67133 -848.4921,-246.34436 C -855.05481,-235.4313 -856.55581,-229.94442 -856.6043,-216.68924 C -856.67279,-197.94594 -855.69392,-184.30406 -854.05257,-181.13006 C -853.24974,-179.57759 -852.59293,-177.64535 -852.59293,-176.83627 C -852.59293,-175.25504 -846.94166,-172.02515 -840.62107,-169.99383 C -836.0766,-168.53332 -831.29097,-169.00477 -823.2539,-171.70482 z M -811.09581,-198.38054 L -808.82487,-200.27238 L -812.9131,-200.30441 C -816.37068,-200.33144 -817.00132,-200.03959 -817.00132,-198.41247 C -817.00132,-195.90192 -814.08983,-195.88614 -811.09581,-198.38054 z M -790.63583,-216.96407 C -787.71809,-216.96407 -784.52196,-220.13682 -787.47039,-220.438 C -790.53233,-220.75082 -797.02895,-225.79819 -797.02895,-224.61453 C -797.02895,-224.16752 -797.37784,-218.40264 -796.31972,-217.44504 C -795.26159,-216.48743 -794.36843,-215.01355 -794.33486,-214.16965 C -794.29523,-213.17106 -793.97019,-213.39106 -793.4039,-214.79972 C -792.91379,-216.01906 -791.70522,-216.96407 -790.63583,-216.96407 z M -809.78681,-205.14602 C -809.45985,-205.67509 -809.44811,-206.52197 -809.76084,-207.02786 C -810.55212,-208.30819 -813.15358,-207.15512 -813.15358,-205.52406 C -813.15358,-203.98602 -810.67573,-203.70783 -809.78681,-205.14602 z M -811.03011,-215.72731 C -809.40617,-215.72731 -808.00021,-218.24065 -808.85258,-219.61988 C -809.13577,-220.07805 -809.95524,-220.22743 -810.67362,-219.95174 C -811.39199,-219.67615 -813.17167,-220.64251 -814.62852,-222.09936 L -817.2774,-224.74824 L -819.53939,-221.92121 C -822.46954,-218.25912 -822.40038,-216.33054 -819.24994,-213.8524 L -816.68879,-211.83782 L -814.61871,-213.78256 C -813.48016,-214.85224 -811.86536,-215.72731 -811.03011,-215.72731 z M -787.26021,-205.1338 C -786.06751,-206.57084 -786.52923,-209.47473 -787.9504,-209.47473 C -789.14397,-209.47473 -791.22694,-205.65229 -790.59264,-204.6259 C -789.77846,-203.30872 -788.62952,-203.4838 -787.26021,-205.1338 z M -782.39118,-197.92381 C -782.39118,-200.48737 -787.78167,-201.2726 -791.35228,-199.22916 C -793.28895,-198.12091 -793.07684,-197.9821 -788.64376,-197.45641 C -785.99844,-197.14272 -783.50943,-196.81807 -783.11263,-196.73496 C -782.71583,-196.65184 -782.39118,-197.18687 -782.39118,-197.92381 z M -853.55486,-266.62695 C -853.55486,-267.2399 -852.64795,-271.35756 -851.53942,-275.77726 C -849.1114,-285.45818 -845.67488,-289.33363 -836.721,-292.48887 C -831.3305,-294.38831 -818.06026,-297.4918 -814.10459,-297.4918 C -811.36288,-297.4918 -807.45127,-292.65192 -807.50427,-289.32516 C -807.55805,-285.95819 -808.27984,-282.01276 -810.02729,-281.44522 C -810.09569,-284.14963 -816.30036,-282.55889 -817.28423,-285.07893 C -817.58108,-286.21411 -819.60711,-287.82198 -822.16788,-288.95476 C -826.25014,-290.7605 -826.93994,-288.79917 -832.43519,-287.52961 C -839.67164,-285.85786 -843.77535,-282.2027 -847.96487,-273.69775 C -850.9208,-267.69691 -853.55486,-264.36506 -853.55486,-266.62695 z M -746.78005,-278.3601 C -749.65922,-292.23815 -776.4696,-294.34377 -783.40564,-282.71911 C -784.86691,-279.41563 -785.85886,-278.44946 -788.28794,-277.96359 C -789.96459,-277.62826 -791.52322,-277.54072 -791.75148,-277.76909 C -792.76989,-278.78749 -787.32803,-290.56548 -783.20796,-295.03636 C -780.74444,-297.70948 -780.58178,-292.12487 -779.06741,-294.38311 C -777.55313,-296.64125 -775.38868,-298.72115 -774.25763,-299.00502 C -773.12659,-299.28889 -767.61095,-298.41526 -762.00065,-297.06354 C -756.39036,-295.71193 -750.91262,-294.60599 -749.82784,-294.60599 C -747.43513,-294.60599 -746.65923,-293.49015 -745.14553,-287.87245 C -743.41789,-281.46076 -743.52438,-275.44342 -745.33715,-275.44342 C -746.30245,-275.44342 -746.78005,-276.40881 -746.78005,-278.3601 z "
           style="fill:black" />
      </g>
      <g
         id="g2177">
        <path
           id="path2179"
           d="M -2206.6916,723.34709 C -2205.0177,723.03201 -2198.2967,728.41442 -2194.3964,733.19362 C -2188.2206,740.761 -2183.3002,757.1232 -2185.5634,762.56721 C -2186.2067,764.11451 -2187.0545,765.44102 -2187.4474,765.51498 C -2187.8402,765.58903 -2189.1815,760.23219 -2190.4278,753.61087 C -2192.548,742.34747 -2192.942,741.24494 -2196.5473,736.48959 C -2198.6667,733.69409 -2201.1183,731.00865 -2201.9953,730.52187 C -2202.8722,730.0352 -2203.6942,729.0819 -2203.8219,728.40352 C -2203.9496,727.72513 -2204.8211,726.74441 -2205.7585,726.22414 C -2207.7664,725.10973 -2208.2434,723.63918 -2206.6916,723.34709 z "
           style="fill:black" />
        <path
           style="fill:black"
           d="M -2179.7586,767.35997 C -2178.3253,766.4397 -2177.1347,757.91182 -2177.5807,751.75924 C -2178.2867,742.0172 -2185.9442,726.7432 -2191.3275,724.33929 C -2192.8576,723.65609 -2194.3848,723.27381 -2194.7212,723.48982 C -2195.0577,723.70569 -2192.3547,728.52115 -2188.7144,734.19068 C -2182.5221,743.83511 -2182.0515,744.90719 -2181.4075,750.83988 C -2181.0289,754.32747 -2180.9673,757.96315 -2181.2707,758.91922 C -2181.5741,759.87513 -2181.5171,761.1326 -2181.1442,761.71347 C -2180.7712,762.29435 -2180.7314,763.60574 -2181.0557,764.62762 C -2181.7503,766.81648 -2181.0874,768.21311 -2179.7586,767.35997 z "
           id="path2181" />
      </g>
      <g
         inkscape:transform-center-x="25.027138"
         inkscape:transform-center-y="31.765213"
         transform="matrix(-0.684511,-0.729003,0.729003,-0.684511,-4456.293,-335.8774)"
         id="g2183">
        <path
           style="fill:black"
           d="M -2206.6916,723.34709 C -2205.0177,723.03201 -2198.2967,728.41442 -2194.3964,733.19362 C -2188.2206,740.761 -2183.3002,757.1232 -2185.5634,762.56721 C -2186.2067,764.11451 -2187.0545,765.44102 -2187.4474,765.51498 C -2187.8402,765.58903 -2189.1815,760.23219 -2190.4278,753.61087 C -2192.548,742.34747 -2192.942,741.24494 -2196.5473,736.48959 C -2198.6667,733.69409 -2201.1183,731.00865 -2201.9953,730.52187 C -2202.8722,730.0352 -2203.6942,729.0819 -2203.8219,728.40352 C -2203.9496,727.72513 -2204.8211,726.74441 -2205.7585,726.22414 C -2207.7664,725.10973 -2208.2434,723.63918 -2206.6916,723.34709 z "
           id="path2185" />
        <path
           id="path2187"
           d="M -2179.7586,767.35997 C -2178.3253,766.4397 -2177.1347,757.91182 -2177.5807,751.75924 C -2178.2867,742.0172 -2185.9442,726.7432 -2191.3275,724.33929 C -2192.8576,723.65609 -2194.3848,723.27381 -2194.7212,723.48982 C -2195.0577,723.70569 -2192.3547,728.52115 -2188.7144,734.19068 C -2182.5221,743.83511 -2182.0515,744.90719 -2181.4075,750.83988 C -2181.0289,754.32747 -2180.9673,757.96315 -2181.2707,758.91922 C -2181.5741,759.87513 -2181.5171,761.1326 -2181.1442,761.71347 C -2180.7712,762.29435 -2180.7314,763.60574 -2181.0557,764.62762 C -2181.7503,766.81648 -2181.0874,768.21311 -2179.7586,767.35997 z "
           style="fill:black" />
      </g>
    </g>
    <text
       xml:space="preserve"
       style="font-size:36px;font-style:normal;font-weight:bold;fill:black;fill-opacity:1;stroke:none;stroke-width:1px;stroke-linecap:butt;stroke-linejoin:miter;stroke-opacity:1;font-family:Linux Libertine"
       x="280.84271"
       y="527.08282"
       id="text3076"><tspan
         sodipodi:role="line"
         id="tspan3078"
         x="280.84271"
         y="527.08282">Hol dir Gold!</tspan><tspan
         sodipodi:role="line"
         x="280.84271"
         y="572.08282"
         id="tspan3080">Hol dir Neo!</tspan></text>
    <text
       xml:space="preserve"
       style="font-size:36px;font-style:normal;font-weight:normal;fill:#e3e2db;fill-opacity:1;stroke:none;stroke-width:1px;stroke-linecap:butt;stroke-linejoin:miter;stroke-opacity:1;font-family:Bitstream Vera Sans"
       x="270.72089"
       y="745.27576"
       id="text3102"><tspan
         sodipodi:role="line"
         id="tspan3104"
         x="270.72089"
         y="745.27576">Bierdeckel</tspan></text>
  </g>
</svg>
