<?xml version="1.0" encoding="UTF-8" standalone="no"?>
<svg
   xmlns:dc="http://purl.org/dc/elements/1.1/"
   xmlns:cc="http://creativecommons.org/ns#"
   xmlns:rdf="http://www.w3.org/1999/02/22-rdf-syntax-ns#"
   xmlns:svg="http://www.w3.org/2000/svg"
   xmlns="http://www.w3.org/2000/svg"
   xmlns:xlink="http://www.w3.org/1999/xlink"
   xmlns:sodipodi="http://sodipodi.sourceforge.net/DTD/sodipodi-0.dtd"
   xmlns:inkscape="http://www.inkscape.org/namespaces/inkscape"
   version="1.1"
   id="Ebene_1"
   width="535"
   height="183"
   viewBox="0 0 535 183"
   enable-background="new 0 0 535 183"
   xml:space="preserve"
   inkscape:version="0.48.5 r10040"
   sodipodi:docname="tastatur_e1.svg"
   inkscape:export-filename="/home/knittl/git/svn/neo/www/tastatur_base.png"
   inkscape:export-xdpi="90"
   inkscape:export-ydpi="90">

  <metadata id="metadata135">
    <rdf:RDF>
      <cc:Work rdf:about="">
        <dc:format>image/svg+xml</dc:format>
        <dc:type rdf:resource="http://purl.org/dc/dcmitype/StillImage" />
        <dc:title />
      </cc:Work>
    </rdf:RDF>
  </metadata>

<defs id="defs">
<style type="text/css" id="style46661">
text.mod, text.key, text.dead {
	fill:#111;
	fill-opacity:1;
	stroke:none;
	font-style:normal;
	font-variant:normal;
	font-weight:normal;
	font-stretch:normal;
	display:inline;
	font-family:DejaVu Sans;
	writing-mode:lr-tb;
}

text.key {
	font-family:Linux Libertine;
}

text.mod {
	text-align:start;
	text-anchor:start;
}

text.deadcircle, text.dead, text.center, text.key {
	text-align:center;
	text-anchor:middle;
}

text.key { font-size:20px; }
text.dead { font-size:20px; }
text.deadcircle { font-size:16px; }
text.mod { font-size:10px; }
text.big { font-size:14px; }

.key {
	stroke-width:1.25;
}

.grey { fill:#949494; stroke:#696969; }
.grey { fill:#9f9f9f; stroke:#747474; }

/* bootstrap colors */
.l5, .r5 { fill:#06889c; }
.l4, .r4 { fill:#1b9084; }
.l3, .r3 { fill:#369c63; }
.l2, .r2 { fill:#4aa44a; }

/* btn bg hover, unused */
.l2, .r2 { stroke:#3071a9; }
.l3, .r3 { stroke:#449d44; }
.l4, .r4 { stroke:#c9302c; }
.l5, .r5 { stroke:#ec971f; }

/* btn border hover */
.l2, .r2 { stroke:#204d74; }
.l3, .r3 { stroke:#204d74; }
.l4, .r4 { stroke:#204d74; }
.l5, .r5 { stroke:#204d74; }

text.nubkey { fill:#eee; }

.pressed {
	<!--opacity:0.5;-->
	fill:#777;
}
    </style>

    <g id="basekey">
        <rect width="32" height="32" rx="4" class="key" />
	<!--rect width="20" height="20" x="6" y="6" /-->
        <!--rect width="2" height="2" fill="#000" x="15" y="15" /-->
    </g>

    </defs>
<sodipodi:namedview
     pagecolor="#ffffff"
     bordercolor="#666666"
     borderopacity="1"
     objecttolerance="10"
     gridtolerance="10"
     guidetolerance="10"
     inkscape:pageopacity="0"
     inkscape:pageshadow="2"
     inkscape:window-width="1614"
     inkscape:window-height="969"
     id="base"
     showgrid="false"
     inkscape:zoom="0.70961538"
     inkscape:cx="685.32105"
     inkscape:cy="241.15395"
     inkscape:window-x="78"
     inkscape:window-y="71"
     inkscape:window-maximized="0"
     inkscape:current-layer="Ebene_1" />
<g transform="translate(3.5,3.5)">
<use xlink:href="#basekey" y="0" x="0" class="l5" />
<use xlink:href="#basekey" y="0" x="36" class="l5" />
<use xlink:href="#basekey" y="0" x="72" class="l5" />
<use xlink:href="#basekey" y="0" x="108" class="l4" />
<use xlink:href="#basekey" y="0" x="144" class="l3" />
<use xlink:href="#basekey" y="0" x="180" class="l2" />
<use xlink:href="#basekey" y="0" x="216" class="l2" />

<use xlink:href="#basekey" y="0" x="252" class="r2" />
<use xlink:href="#basekey" y="0" x="288" class="r2" />
<use xlink:href="#basekey" y="0" x="324" class="r3" />
<use xlink:href="#basekey" y="0" x="360" class="r4" />
<use xlink:href="#basekey" y="0" x="396" class="r5" />
<use xlink:href="#basekey" y="0" x="432" class="r5" />


<use xlink:href="#basekey" y="36" x="54" class="l5" />
<use xlink:href="#basekey" y="36" x="90" class="l4" />
<use xlink:href="#basekey" y="36" x="126" class="l3" />
<use xlink:href="#basekey" y="36" x="162" class="l2" />
<use xlink:href="#basekey" y="36" x="198" class="l2" />

<use xlink:href="#basekey" y="36" x="234" class="r2" />
<use xlink:href="#basekey" y="36" x="270" class="r2" />
<use xlink:href="#basekey" y="36" x="306" class="r3" />
<use xlink:href="#basekey" y="36" x="342" class="r4" />
<use xlink:href="#basekey" y="36" x="378" class="r5" />
<use xlink:href="#basekey" y="36" x="414" class="r5" />
<use xlink:href="#basekey" y="36" x="450" class="r5" />


<use xlink:href="#basekey" y="72" x="64" class="l5" />
<use xlink:href="#basekey" y="72" x="100" class="l4" />
<use xlink:href="#basekey" y="72" x="136" class="l3" />
<use xlink:href="#basekey" y="72" x="172" class="l2" />
<use xlink:href="#basekey" y="72" x="208" class="l2" />

<use xlink:href="#basekey" y="72" x="244" class="r2" />
<use xlink:href="#basekey" y="72" x="280" class="r2" />
<use xlink:href="#basekey" y="72" x="316" class="r3" />
<use xlink:href="#basekey" y="72" x="352" class="r4" />
<use xlink:href="#basekey" y="72" x="388" class="r5" />
<use xlink:href="#basekey" y="72" x="424" class="r5" />


<use xlink:href="#basekey" y="108" x="82" class="l5" />
<use xlink:href="#basekey" y="108" x="118" class="l4" />
<use xlink:href="#basekey" y="108" x="154" class="l3" />
<use xlink:href="#basekey" y="108" x="190" class="l2" />
<use xlink:href="#basekey" y="108" x="226" class="l2" />

<use xlink:href="#basekey" y="108" x="262" class="r2" />
<use xlink:href="#basekey" y="108" x="298" class="r2" />
<use xlink:href="#basekey" y="108" x="334" class="r3" />
<use xlink:href="#basekey" y="108" x="370" class="r4" />
<use xlink:href="#basekey" y="108" x="406" class="r5" />


<rect id="backspace" y="0" x="468" width="60" height="32" rx="4" class="key grey" />

<rect id="tab" x="0" y="36" width="50" height="32" rx="4" class="key grey" />

<rect id="m3l" x="0" y="72" width="60" height="32" rx="4" class="key grey pressed" />
<use id="m3r" xlink:href="#basekey" x="460" y="72" class="key grey pressed" />

<rect id="shiftl" x="0" y="108" width="40" height="32" rx="4" class="key grey pressed" />
<rect id="m4l" x="44" y="108" width="34" height="32" rx="4" class="key grey" />
<rect id="shiftr" x="442" y="108" width="86" height="32" rx="4" class="key grey pressed" />

<rect id="ctrll" x="0" y="144" width="50" height="32" rx="4" class="key grey" />
<rect id="altl" x="124" y="144" width="48" height="32" rx="4" class="key grey" />
<rect id="space" x="176" y="144" width="168" height="32" rx="4" class="key grey" />
<rect id="m4r" x="348" y="144" width="48" height="32" rx="4" class="key grey" />
<rect id="ctrlr" x="478" y="144" width="50" height="32" rx="4" class="key grey" />

<path
     fill-rule="evenodd"
     clip-rule="evenodd"
     d="
     M 10,32
     l -6,0 a 4,4 0 0 1 -4,-4
     l 0,-24 a 4,4 0 0 1 4,-4
     l 34,0 a 4,4 0 0 1 4,4
     l 0,60 a 4,4 0 0 1 -4,4
     l -24,0 a 4,4 0 0 1 -4,-4
     z"
     transform="translate(486,36)"
     id="return"
     class="key grey"/>

<rect y="101" x="181" width="14" height="1" rx="1" id="nub" style="fill:#eee;" />
<use y="0" x="108" xlink:href="#nub" />
</g>

<g transform="translate(-0.5,-0.5)">
<text y="96" x="10" class="mod" id="m3ltxt">Mod3</text>
<text y="133" x="10" class="mod big" id="shiftltxt">⇧</text>
<text y="168" x="10" class="mod" id="ctrlltxt">Strg</text>

<text y="132" x="56" class="mod" id="m4ltxt">M4</text>
<text y="168" x="135" class="mod" id="altltxt">Alt</text>

<text y="96" x="472" class="mod" id="m3rtxt">M3</text>
<text y="133" x="450" class="mod big" id="shiftrtxt">⇧</text>
<text y="168" x="490" class="mod" id="ctrlrtxt">Strg</text>
<text y="168" x="357" class="mod" id="m4rtxt">Mod4</text>

<text y="62" x="495" class="mod big" id="returntxt">⏎</text>
<text y="23" x="480" class="mod" id="backspacetxt">⌫</text>

<text y="25" x="20" class="deadcircle" id="deadcircletxt">◌</text>
<use y="0" x="432" xlink:href="#deadcircletxt" id="t2" />
<use y="36" x="450" xlink:href="#deadcircletxt" id="t3" />
</g>

<g transform="translate(55,26)">
	<text x="0" class="key">₁</text>
	<text x="36" class="key">₂</text>
	<text x="72" class="key">₃</text>
	<text x="108" class="key">♀</text>
	<text x="144" class="key">♂</text>

	<text x="180" class="key">⚥</text>
	<text x="216" class="key">ϰ</text>
	<text x="252" class="key">⟨</text>
	<text x="288" class="key">⟩</text>
	<text x="324" class="key">₀</text>
	<text x="360" class="key">‑</text>
</g>


<text x="10" y="60" class="mod big">⇥</text>

<g transform="translate(73,62)">
	<text x="0" class="key">θ</text>
	<text x="36" class="key">δ</text>
	<text x="72" class="key">λ</text>
	<text x="108" class="key">α</text>
	<text x="144" class="key">ξ</text>

	<text x="180" class="key">π</text>
	<text x="216" class="key">ψ</text>
	<text x="252" class="key">λ</text>
	<text x="288" class="key">μ</text>
	<text x="324" class="key">ω</text>
	<text x="360" class="key">ς</text>
</g>


<g transform="translate(84,98)">
	<text x="0" class="key">χ</text>
	<text x="36" class="key">τ</text>
	<text x="72" class="key">ι</text>
	<text x="108" class="key nubkey">ε</text>
	<text x="144" class="key">ο</text>

	<text x="180" class="key">β</text>
	<text x="216" class="key nubkey">ν</text>
	<text x="252" class="key">ρ</text>
	<text x="288" class="key">σ</text>
	<text x="324" class="key">γ</text>
    <text x="360" class="key">ϕ</text>
</g>


<g transform="translate(101,134)">
	<text x="0" class="key">φ</text>
	<text x="36" class="key">ϵ</text>
	<text x="72" class="key">η</text>
	<text x="108" class="key">η</text>

	<text x="144" class="key">ϵ</text>
	<text x="180" class="key">υ</text>
	<text x="216" class="key">ζ</text>
	<text x="252" class="key">ϱ</text>
	<text x="288" class="key">ϑ</text>
	<text x="324" class="key">κ</text>
</g>

<text x="20" y="26" class="dead" id="t1"></text><text x="28" y="25" class="dead" id="t1">˞</text>
<text x="452" y="26" class="dead" id="t2">῾</text>
<text x="470" y="62" class="dead" id="t3">᾿</text>
</svg>